<svg xmlns="http://www.w3.org/2000/svg" width="270.912" height="61.86" viewBox="0 0 270.912 61.86">
  <g id="logo-7" transform="translate(-29.471 -36.428)">
    <path id="Trazado_3480" data-name="Trazado 3480" d="M63.87,45.12h6.843V72.787H63.87Zm9.557,17.22c0-6.843,4.2-10.925,10.674-10.925S94.775,55.5,94.775,62.34,90.67,73.288,84.1,73.288,73.427,69.3,73.427,62.34Zm14.483,0c0-3.763-1.483-5.976-3.809-5.976s-3.786,2.281-3.786,5.976,1.437,5.93,3.786,5.93,3.809-2.1,3.809-5.907Zm9.443,11.792h6.569a3.535,3.535,0,0,0,3.695,2.053c2.6,0,3.969-1.414,3.969-3.467V68.886h-.137a6.478,6.478,0,0,1-6.227,3.741c-5,0-8.3-3.809-8.3-10.355S100.067,51.6,105.313,51.6a6.546,6.546,0,0,1,6.3,4.014h0V51.8h6.843V72.558c0,5-4.4,8.1-10.9,8.1-6.044,0-9.808-2.714-10.2-6.5Zm14.255-11.815c0-3.33-1.528-5.428-3.946-5.428s-3.9,2.076-3.9,5.428,1.46,5.246,3.9,5.246,3.946-1.847,3.946-5.223Zm9.42,0c0-6.843,4.2-10.925,10.674-10.925s10.7,4.083,10.7,10.925-4.106,10.948-10.7,10.948S121.028,69.3,121.028,62.34Zm14.483,0c0-3.763-1.483-5.976-3.809-5.976s-3.672,2.3-3.672,6.021,1.437,5.93,3.763,5.93,3.718-2.121,3.718-5.93ZM145,46.831a3.49,3.49,0,1,1,3.558,3.4A3.33,3.33,0,0,1,145,46.876Zm0,5.018h6.843V72.787H145ZM176.68,62.317c0,6.843-3.034,10.743-8.234,10.743a6.523,6.523,0,0,1-6.386-3.877h-.137V79.492h-6.843V51.8h6.843v3.741h.137a6.546,6.546,0,0,1,6.341-4.037c5.246.091,8.371,4.014,8.371,10.857Zm-6.843,0c0-3.33-1.528-5.451-3.923-5.451s-3.923,2.144-3.946,5.451,1.551,5.428,3.946,5.428,3.923-2.076,3.923-5.383Zm18.589-10.948c5.679,0,9.123,2.691,9.283,7h-6.227c0-1.483-1.232-2.418-3.125-2.418s-2.737.73-2.737,1.8.753,1.414,2.281,1.733l4.379.89c4.174.89,5.953,2.577,5.953,5.748,0,4.334-3.946,7.116-9.762,7.116s-9.625-2.783-9.922-7.048h6.592c.205,1.551,1.437,2.463,3.444,2.463s2.919-.661,2.919-1.756-.639-1.323-2.281-1.665l-3.946-.844c-4.083-.844-6.227-3.011-6.227-6.2.046-4.106,3.718-6.774,9.374-6.774Zm32.639,21.371h-6.592v-3.9h-.137A5.953,5.953,0,0,1,208.27,73.2a7.276,7.276,0,0,1-7.664-7.869V51.8h6.843V63.754c0,2.486,1.277,3.809,3.4,3.809a3.49,3.49,0,0,0,3.467-3.946V51.8h6.843ZM224.373,51.8h6.614V55.84h.137a6.067,6.067,0,0,1,5.953-4.425,5.451,5.451,0,0,1,5.816,4.562h.137a6.432,6.432,0,0,1,6.432-4.562,6.637,6.637,0,0,1,6.843,7.116V72.787h-6.843V60.356c0-2.281-1.026-3.33-2.942-3.33a2.988,2.988,0,0,0-2.988,3.376V72.787h-6.5V60.265c0-2.1-1.026-3.239-2.9-3.239a3.056,3.056,0,0,0-3.034,3.421V72.787h-6.843Z" transform="translate(44.06 8.738)" fill="#fff"/>
    <path id="Trazado_3481" data-name="Trazado 3481" d="M88.794,55.112a30.221,30.221,0,0,0-4.562-7.344A30.86,30.86,0,1,0,41.626,91.834a29.857,29.857,0,0,0,7.3,4.174,30.54,30.54,0,0,0,11.564,2.281,30.928,30.928,0,0,0,30.86-30.905,30.541,30.541,0,0,0-2.555-12.271ZM60.466,42.727a24.431,24.431,0,0,1,10.312,2.282h0a10.012,10.012,0,0,1-2.463.707A13.069,13.069,0,0,0,57.25,56.777a6.843,6.843,0,0,1-6.181,6.044A13.069,13.069,0,0,0,40.007,73.884a6.637,6.637,0,0,1-1.8,3.969h0A24.633,24.633,0,0,1,60.489,42.682ZM41.6,83.349c.274-.251.547-.479.821-.753a12.5,12.5,0,0,0,3.695-7.367A6.66,6.66,0,0,1,48.1,71.078a6.455,6.455,0,0,1,4.128-1.962A13.069,13.069,0,0,0,63.294,58.054,6.66,6.66,0,0,1,65.278,53.7,6.546,6.546,0,0,1,69.452,51.8a12.5,12.5,0,0,0,6.843-3.262,23.971,23.971,0,0,1,5.383,6.341,1.962,1.962,0,0,1-.3.319,6.546,6.546,0,0,1-4.128,2.007A13.024,13.024,0,0,0,66.191,68.273a6.843,6.843,0,0,1-6.135,6.113A13.138,13.138,0,0,0,48.925,85.447a7.162,7.162,0,0,1-1.118,3.125A24.838,24.838,0,0,1,41.6,83.349Zm18.863,8.8a24.724,24.724,0,0,1-6.843-.958,13.183,13.183,0,0,0,1.46-4.562A6.843,6.843,0,0,1,61.2,80.521,13.069,13.069,0,0,0,72.281,69.459a6.843,6.843,0,0,1,6.113-6.113,13.023,13.023,0,0,0,5.839-2.281A24.679,24.679,0,0,1,60.466,92.039Z" transform="translate(0)" fill="#fff"/>
  </g>
</svg>
