<svg xmlns="http://www.w3.org/2000/svg" width="292.302" height="66.744" viewBox="0 0 292.302 66.744"><defs><style>.a{fill:#00549c;}</style></defs><g transform="translate(-29.471 -36.428)"><path class="a" d="M63.87,45.268h7.383V75.119H63.87Zm10.311,18.58c0-7.383,4.528-11.788,11.517-11.788s11.517,4.405,11.517,11.788S92.786,75.66,85.7,75.66,74.181,71.353,74.181,63.848Zm15.627,0c0-4.061-1.6-6.448-4.11-6.448s-4.085,2.461-4.085,6.448,1.55,6.4,4.085,6.4,4.11-2.264,4.11-6.374ZM100,76.571h7.087a3.814,3.814,0,0,0,3.987,2.215c2.805,0,4.282-1.526,4.282-3.741V70.91h-.148a6.989,6.989,0,0,1-6.718,4.036c-5.389,0-8.958-4.11-8.958-11.173s3.4-11.517,9.056-11.517a7.063,7.063,0,0,1,6.792,4.331h0v-4.11h7.383V74.873c0,5.389-4.75,8.736-11.763,8.736-6.521,0-10.582-2.929-11-7.014Zm15.381-12.748c0-3.593-1.649-5.857-4.257-5.857s-4.208,2.239-4.208,5.857,1.575,5.66,4.208,5.66,4.257-1.993,4.257-5.636Zm10.164,0c0-7.383,4.528-11.788,11.517-11.788S148.6,56.44,148.6,63.823s-4.43,11.812-11.542,11.812-11.517-4.282-11.517-11.788Zm15.627,0c0-4.061-1.6-6.448-4.11-6.448s-3.962,2.486-3.962,6.5,1.55,6.4,4.061,6.4,4.011-2.289,4.011-6.4Zm10.237-16.71a3.765,3.765,0,1,1,3.839,3.667,3.593,3.593,0,0,1-3.839-3.618Zm0,5.414h7.383V75.119h-7.383Zm34.182,11.3c0,7.383-3.273,11.591-8.884,11.591a7.038,7.038,0,0,1-6.891-4.184h-.148V82.354h-7.383V52.478h7.383v4.036h.148a7.063,7.063,0,0,1,6.841-4.356c5.66.1,9.032,4.331,9.032,11.714Zm-7.383,0c0-3.593-1.649-5.882-4.233-5.882s-4.233,2.313-4.257,5.882,1.673,5.857,4.257,5.857,4.233-2.239,4.233-5.808Zm20.057-11.812c6.128,0,9.844,2.9,10.016,7.555h-6.718c0-1.6-1.329-2.609-3.371-2.609s-2.953.787-2.953,1.944.812,1.526,2.461,1.87l4.725.96c4.5.96,6.423,2.781,6.423,6.2,0,4.676-4.257,7.678-10.533,7.678s-10.385-3-10.705-7.6h7.112c.221,1.673,1.55,2.658,3.716,2.658s3.15-.714,3.15-1.895-.689-1.427-2.461-1.8l-4.257-.911c-4.405-.911-6.718-3.248-6.718-6.694.049-4.43,4.011-7.309,10.114-7.309Zm35.216,23.059h-7.112V70.861h-.148a6.423,6.423,0,0,1-6.546,4.7,7.85,7.85,0,0,1-8.269-8.49V52.478h7.383v12.9c0,2.682,1.378,4.11,3.667,4.11a3.765,3.765,0,0,0,3.741-4.257V52.478h7.383Zm3.568-22.591h7.137v4.356h.148a6.546,6.546,0,0,1,6.423-4.774,5.882,5.882,0,0,1,6.275,4.922h.148a6.94,6.94,0,0,1,6.94-4.922,7.161,7.161,0,0,1,7.383,7.678V75.119h-7.383V61.707c0-2.461-1.107-3.593-3.175-3.593a3.224,3.224,0,0,0-3.224,3.642V75.119H250.7V61.608c0-2.264-1.107-3.495-3.125-3.495a3.3,3.3,0,0,0-3.273,3.691V75.119h-7.383Z" transform="translate(50.255 9.966)"/><path class="a" d="M93.478,56.587a32.607,32.607,0,0,0-4.922-7.924,33.3,33.3,0,1,0-45.97,47.545,32.214,32.214,0,0,0,7.875,4.5,32.952,32.952,0,0,0,12.477,2.461,33.37,33.37,0,0,0,33.3-33.346,32.952,32.952,0,0,0-2.756-13.24ZM62.913,43.225a26.36,26.36,0,0,1,11.126,2.462h0a10.8,10.8,0,0,1-2.658.763A14.1,14.1,0,0,0,59.443,58.384a7.383,7.383,0,0,1-6.669,6.521A14.1,14.1,0,0,0,40.839,76.841a7.161,7.161,0,0,1-1.944,4.282h0A26.578,26.578,0,0,1,62.938,43.175ZM42.561,87.054c.3-.271.591-.517.886-.812a13.486,13.486,0,0,0,3.987-7.949,7.186,7.186,0,0,1,2.141-4.479A6.964,6.964,0,0,1,54.029,71.7,14.1,14.1,0,0,0,65.965,59.762a7.186,7.186,0,0,1,2.141-4.7,7.063,7.063,0,0,1,4.5-2.043A13.486,13.486,0,0,0,79.992,49.5,25.864,25.864,0,0,1,85.8,56.341a2.116,2.116,0,0,1-.32.345,7.063,7.063,0,0,1-4.454,2.166A14.052,14.052,0,0,0,69.09,70.787a7.383,7.383,0,0,1-6.62,6.6A14.175,14.175,0,0,0,50.461,89.318a7.727,7.727,0,0,1-1.206,3.371A26.8,26.8,0,0,1,42.561,87.054Zm20.352,9.5a26.676,26.676,0,0,1-7.383-1.034A14.224,14.224,0,0,0,57.105,90.6,7.383,7.383,0,0,1,63.7,84a14.1,14.1,0,0,0,11.96-11.936,7.383,7.383,0,0,1,6.6-6.6,14.052,14.052,0,0,0,6.3-2.461A26.627,26.627,0,0,1,62.913,96.43Z" transform="translate(0)"/></g></svg>