<svg xmlns="http://www.w3.org/2000/svg" width="40.619" height="40.619" viewBox="0 0 40.619 40.619">
  <path id="Icon_awesome-facebook-square" data-name="Icon awesome-facebook-square" d="M36.267,2.25H4.352A4.352,4.352,0,0,0,0,6.6V38.517a4.352,4.352,0,0,0,4.352,4.352H16.8V29.059H11.084v-6.5H16.8V17.605c0-5.635,3.355-8.748,8.493-8.748a34.6,34.6,0,0,1,5.034.439v5.531H27.487c-2.793,0-3.665,1.734-3.665,3.512v4.221h6.236l-1,6.5H23.823V42.869H36.267a4.352,4.352,0,0,0,4.352-4.352V6.6A4.352,4.352,0,0,0,36.267,2.25Z" transform="translate(0 -2.25)" fill="#00549c"/>
</svg>
