<svg xmlns="http://www.w3.org/2000/svg" width="40.641" height="40.632" viewBox="0 0 40.641 40.632">
  <path id="Icon_awesome-instagram" data-name="Icon awesome-instagram" d="M20.32,12.136A10.418,10.418,0,1,0,30.737,22.554,10.4,10.4,0,0,0,20.32,12.136Zm0,17.19a6.773,6.773,0,1,1,6.773-6.773A6.785,6.785,0,0,1,20.32,29.327ZM33.593,11.71a2.43,2.43,0,1,1-2.43-2.43A2.424,2.424,0,0,1,33.593,11.71Zm6.9,2.466c-.154-3.255-.9-6.138-3.282-8.514S31.952,2.544,28.7,2.38c-3.355-.19-13.41-.19-16.764,0-3.246.154-6.129.9-8.514,3.273S.3,10.912.138,14.167c-.19,3.355-.19,13.41,0,16.764.154,3.255.9,6.138,3.282,8.514s5.259,3.119,8.514,3.282c3.355.19,13.41.19,16.764,0,3.255-.154,6.138-.9,8.514-3.282s3.119-5.259,3.282-8.514c.19-3.355.19-13.4,0-16.755ZM36.159,34.531A6.857,6.857,0,0,1,32.3,38.393c-2.675,1.061-9.021.816-11.977.816s-9.311.236-11.977-.816A6.857,6.857,0,0,1,4.48,34.531c-1.061-2.675-.816-9.021-.816-11.977s-.236-9.311.816-11.977A6.857,6.857,0,0,1,8.343,6.714C11.018,5.654,17.364,5.9,20.32,5.9s9.311-.236,11.977.816a6.857,6.857,0,0,1,3.862,3.862c1.061,2.675.816,9.021.816,11.977S37.22,31.865,36.159,34.531Z" transform="translate(0.005 -2.238)" fill="#00549c"/>
</svg>
