<svg xmlns="http://www.w3.org/2000/svg" width="54.145" height="40.616" viewBox="0 0 54.145 40.616">
  <path id="Icon_ionic-logo-youtube" data-name="Icon ionic-logo-youtube" d="M53.793,13.469c0-4.759-3.5-8.588-7.827-8.588C40.107,4.606,34.131,4.5,28.028,4.5h-1.9c-6.092,0-12.078.106-17.938.381C3.871,4.881.37,8.731.37,13.49.106,17.255-.01,21.021,0,24.786q-.016,5.648.36,11.306c0,4.759,3.5,8.62,7.816,8.62,6.156.286,12.47.412,18.89.4q9.646.032,18.89-.4c4.326,0,7.827-3.86,7.827-8.62.254-3.776.37-7.541.36-11.317Q54.174,19.127,53.793,13.469Zm-31.9,21.693V14.379L37.23,24.765Z" transform="translate(0 -4.5)" fill="#00549c"/>
</svg>
