<svg xmlns="http://www.w3.org/2000/svg" xmlns:xlink="http://www.w3.org/1999/xlink" width="117.823" height="117.823" viewBox="0 0 117.823 117.823">
  <defs>
    <filter id="Trazado_110" x="0" y="0" width="117.823" height="117.823" filterUnits="userSpaceOnUse">
      <feOffset dy="3" input="SourceAlpha"/>
      <feGaussianBlur stdDeviation="3" result="blur"/>
      <feFlood flood-opacity="0.161"/>
      <feComposite operator="in" in2="blur"/>
      <feComposite in="SourceGraphic"/>
    </filter>
    <linearGradient id="linear-gradient" x1="0.5" y1="0.975" x2="0.5" y2="-0.201" gradientUnits="objectBoundingBox">
      <stop offset="0" stop-color="#20b038"/>
      <stop offset="1" stop-color="#60d66a"/>
    </linearGradient>
  </defs>
  <g id="Grupo_392" data-name="Grupo 392" transform="translate(-1626.956 -929.374)">
    <g id="Grupo_389" data-name="Grupo 389" transform="translate(1635.956 935.374)">
      <g transform="matrix(1, 0, 0, 1, -9, -6)" filter="url(#Trazado_110)">
        <path id="Trazado_110-2" data-name="Trazado 110" d="M190.061,130.628A49.085,49.085,0,0,1,117.371,173.2l-27.133,8.622,8.844-26.087a48.117,48.117,0,0,1-7.029-25.108,49.006,49.006,0,0,1,98.008,0Zm-49-40.883a41.085,41.085,0,0,0-41.2,40.883A40.459,40.459,0,0,0,107.7,154.6l-5.145,15.18,15.83-5.03a40.991,40.991,0,1,0,22.67-75Z" transform="translate(-81.24 -76)" fill="#fff" fill-rule="evenodd"/>
      </g>
    </g>
    <g id="Grupo_391" data-name="Grupo 391">
      <g id="Grupo_388" data-name="Grupo 388" transform="translate(1635.956 935.374)">
        <g id="Grupo_382" data-name="Grupo 382" transform="translate(0 0)">
          <path id="Trazado_109" data-name="Trazado 109" d="M158.571,101.5a43.124,43.124,0,0,0-43.247,42.912,42.467,42.467,0,0,0,8.237,25.16l-5.4,15.933,16.616-5.28A43.025,43.025,0,1,0,158.571,101.5Z" transform="translate(-107.498 -95.418)" fill-rule="evenodd" fill="url(#linear-gradient)"/>
        </g>
      </g>
      <path id="Trazado_110-3" data-name="Trazado 110" d="M165.8,141.828c-.3-.5-1.1-.8-2.3-1.392s-7.111-3.482-8.21-3.877-1.906-.6-2.7.595-3.1,3.878-3.807,4.674-1.4.894-2.6.3a32.851,32.851,0,0,1-9.662-5.913,36.253,36.253,0,0,1-6.684-8.255c-.7-1.191-.069-1.835.526-2.43.542-.537,1.2-1.392,1.8-2.085a8.164,8.164,0,0,0,1.2-1.994,2.165,2.165,0,0,0-.1-2.085c-.3-.595-2.7-6.461-3.7-8.85s-2-2.293-2.7-2.293a17.3,17.3,0,0,0-2,.208,10.008,10.008,0,0,0-2.209.618,3.748,3.748,0,0,0-1.3.873,13.323,13.323,0,0,0-4.2,9.938c0,5.865,4.3,11.535,4.9,12.325s8.307,13.225,20.521,18,12.213,3.179,14.416,2.978,7.106-2.881,8.108-5.665,1-5.171.7-5.665Zm0,0" transform="translate(1545.718 853.374)" fill="#fff" fill-rule="evenodd"/>
    </g>
  </g>
</svg>
