<svg xmlns="http://www.w3.org/2000/svg" width="15.963" height="15.963" viewBox="0 0 15.963 15.963">
  <path id="Trazado_126" data-name="Trazado 126" d="M12.011,3.952c4.016,4.015,3.956,10.395,3.951,10.663l-.022,1.325-1.325.023c-.281,0-6.647.064-10.663-3.953S0,1.616,0,1.347L.023.023,1.348,0h.082C2.235,0,8.191.132,12.011,3.952Zm1.118,9.181c-.209-1.848-.884-5.072-3.056-7.244s-5.4-2.854-7.239-3.06c.209,1.848.884,5.072,3.055,7.244A12.387,12.387,0,0,0,13.13,13.133Z" transform="translate(0)" fill="#74a839"/>
</svg>
