<svg xmlns="http://www.w3.org/2000/svg" width="201.961" height="355.842" viewBox="0 0 201.961 355.842">
  <g id="Grupo_508" data-name="Grupo 508" opacity="0.1">
    <path id="Intersecci贸n_6" data-name="Intersecci贸n 6" d="M10.72,4.88,0,7.962,2.7,18.841c.624,2.3,13.951,54.466,55.343,78.5,41.373,24.027,93.086,9.565,95.264,8.947l10.713-3.086-2.7-10.88-.18-.672c-1.753-6.578-15.8-54.968-55.158-77.823C87.389,3.025,66.7,0,49.368,0A152.239,152.239,0,0,0,10.72,4.88ZM69.566,77.264C47.071,64.2,34.622,39.406,28.932,24.79,44.4,22.45,72.079,20.905,94.455,33.9c22.5,13.055,34.945,37.857,40.633,52.467a138.829,138.829,0,0,1-20.562,1.577C100.436,87.947,83.913,85.593,69.566,77.264Z" transform="translate(37.94 0)" fill="#a2e2ff"/>
    <path id="Intersecci贸n_3" data-name="Intersecci贸n 3" d="M0,199.916V152.042a275.71,275.71,0,0,0,60.035-2.621C50.491,124.9,31.7,86.447,0,58.51V0L.116.067C81.152,47.119,110.062,146.739,113.671,160.282l.369,1.385,5.558,22.4-22.054,6.355c-2.469.7-35.842,10.039-79.559,10.038C12.159,200.457,6.144,200.29,0,199.916Z" transform="translate(0 155.385)" fill="#a2e2ff"/>
  </g>
</svg>
