<svg xmlns="http://www.w3.org/2000/svg" width="115.005" height="115.013" viewBox="0 0 115.005 115.013">
  <g id="Grupo_488" data-name="Grupo 488" transform="translate(-40.266 -35.195)">
    <path id="Trazado_492" data-name="Trazado 492" d="M154.271,63.121a27.774,27.774,0,0,1-1.342,4.034,43.773,43.773,0,0,1-2.587,3.941c-.188.291-.411.742-.314,1.008,1.383,3.792-.308,7.359-3.306,9.6-3.876,2.9-8.334,3.705-13.046,3.37a17.188,17.188,0,0,1-9.436-3.3c-5.186-3.945-5.151-10.1.056-14.033a2.862,2.862,0,0,0,.233-.219c-.918-2.278-3.342-3.97-5.4-3.779A3.3,3.3,0,0,0,115.9,66.55c-.4,2.834-.707,5.689-.873,8.546-.305,5.286-.423,10.583-.729,15.869a38.735,38.735,0,0,1-1.7,10.411,8.123,8.123,0,0,1-.543,1.322,1.8,1.8,0,0,1-2.256.865,1.749,1.749,0,0,1-1.18-2.2c2.4-6.764,1.991-13.843,2.414-20.83.267-4.4.475-8.811.891-13.2.376-3.955,2.333-6.285,5.68-7.144a6.906,6.906,0,0,1,6.195,1.075,62.11,62.11,0,0,1,4.548,4.325c8.823-2.063,11.778-1.642,19.142,2.84,2.945-2.435,3.833-7.292,1.994-10.982a14.343,14.343,0,0,0-5.411-5.676c-4.572-2.891-9.657-3.991-14.982-4.282-2.849-.155-5.693-.4-8.346-.593.423,1.466.943,3.189,1.408,4.927a4.329,4.329,0,0,1,.084,1.425,1.827,1.827,0,0,1-1.9,1.746,1.741,1.741,0,0,1-1.809-1.708c-.148-4.029-2.363-6.789-5.5-8.93a26.266,26.266,0,0,0-15.032-4.342,26.293,26.293,0,0,0-15.92,4.662c-2.929,2.108-4.925,4.808-5.058,8.6A1.752,1.752,0,0,1,75.1,54.994a1.7,1.7,0,0,1-1.771-1.843c.267-1.8.783-3.554,1.229-5.319a6.87,6.87,0,0,1,.557-1.165c-5.4.637-10.738,1.062-16,1.952A20.021,20.021,0,0,0,48.9,53.747a10.928,10.928,0,0,0-3.709,6.35c-.527,3.259.624,5.967,2.789,8.445C54,63.863,60.6,63.518,67.4,65.665a45.619,45.619,0,0,1,3.477-3.719A7.52,7.52,0,0,1,79.5,60.731a7.056,7.056,0,0,1,4.125,6.1c.358,3.656.629,7.322.858,10.988.343,5.5.517,11.019.972,16.512a39.22,39.22,0,0,0,1.423,6.537c.329,1.263.062,2.247-.986,2.673a1.857,1.857,0,0,1-2.524-1.276,29.329,29.329,0,0,1-1.909-9.689c-.441-7.23-.736-14.468-1.137-21.7-.079-1.425-.349-2.842-.557-4.258-.394-2.678-3.758-3.661-5.62-2.37a35.449,35.449,0,0,0-3.4,3.046c.534.442.808.671,1.084.9a8.153,8.153,0,0,1,.417,12.791,15.817,15.817,0,0,1-8.5,3.866,20.157,20.157,0,0,1-12.962-1.882c-2.835-1.5-5.1-3.586-5.6-6.932a19.375,19.375,0,0,1,.251-3.687,1.889,1.889,0,0,0-.235-1.219c-5.427-6.157-5.259-13.632.543-19.452C49.874,47.542,55.03,45.4,60.672,44.4a50.229,50.229,0,0,1,7.344-.662,26.563,26.563,0,0,0,12.162-3.1,34.338,34.338,0,0,1,13.443-4.281,1.508,1.508,0,0,0,.4-.16h7.5a3.274,3.274,0,0,0,.617.185,31.5,31.5,0,0,1,12.224,3.756A29.124,29.124,0,0,0,128.6,43.752a33.533,33.533,0,0,1,13.489,2.814c4.147,1.823,7.83,4.288,10.152,8.286a34.9,34.9,0,0,1,2.027,5.179ZM60.2,68.147c-.987.095-1.984.132-2.959.3a12.257,12.257,0,0,0-6.91,3.137c-2.055,2.042-2.063,4.493.055,6.48a10.785,10.785,0,0,0,2.722,1.833,16.526,16.526,0,0,0,10.23,1.2A12.427,12.427,0,0,0,69.6,78.308a4.284,4.284,0,0,0,.555-6.44A6.54,6.54,0,0,0,68.24,70.25,17.293,17.293,0,0,0,60.2,68.147Zm75.5,13.276c.591-.054,1.439-.089,2.273-.217a12.312,12.312,0,0,0,7.393-3.34,4.048,4.048,0,0,0,0-6.082,9.642,9.642,0,0,0-2.747-1.983,16.526,16.526,0,0,0-15.074.4c-1.82.938-3.36,2.268-3.377,4.538-.017,2.309,1.547,3.64,3.348,4.7A16.533,16.533,0,0,0,135.707,81.423Z" fill="#74a839" stroke="#74a839" stroke-width="2"/>
    <path id="Trazado_493" data-name="Trazado 493" d="M66.648,125.009a138.131,138.131,0,0,0,62.263.018l.053-.439c-1.642-.4-3.276-.841-4.929-1.192a101.235,101.235,0,0,0-18.25-2.246,5.041,5.041,0,0,1-.55-.029,1.871,1.871,0,0,1-1.778-2,1.773,1.773,0,0,1,2.013-1.727c3.118.189,6.241.369,9.346.7a76.794,76.794,0,0,1,17.863,3.74c.138.05.272.109.41.161a2.841,2.841,0,0,0,3.784-1.047,1.241,1.241,0,0,0-.075-1.942,16.317,16.317,0,0,0-3-2.01,44.841,44.841,0,0,0-13.428-3.741c-4.948-.672-9.935-1.061-14.908-1.556-1.315-.131-2.068-.845-2-1.991a1.849,1.849,0,0,1,2.115-1.763c8.859.5,17.684,1.313,26.146,4.195a33.859,33.859,0,0,1,6.58,3.251,5.869,5.869,0,0,1,2.8,5.513c-.1,5.074-.089,10.153,0,15.227a6.139,6.139,0,0,1-2.439,5.16,21.767,21.767,0,0,1-6.827,3.5,78.425,78.425,0,0,1-17.133,3.493,151.672,151.672,0,0,1-24.9.7c-8.64-.47-17.243-1.283-25.506-4.037a35.791,35.791,0,0,1-6.913-3.324,5.966,5.966,0,0,1-2.945-5.662q.185-7.5,0-15.006a6.434,6.434,0,0,1,2.914-5.707,27.665,27.665,0,0,1,9.25-4A111.617,111.617,0,0,1,89.7,107.951c1.472-.084,2.359.627,2.39,1.819.031,1.167-.734,1.85-2.179,1.934-7.384.43-14.752,1.066-21.9,3.091a42.435,42.435,0,0,0-7.754,3.054c-2.739,1.4-2.653,2.824.016,4.35a1.9,1.9,0,0,0,1.413.123,75.613,75.613,0,0,1,17.664-4.116c.84-.089,1.682-.169,2.526-.229a1.872,1.872,0,1,1,.429,3.714c-3.266.5-6.548.919-9.8,1.484-1.975.342-3.914.9-5.87,1.356Zm-8.371.679c-.01.223-.037.544-.037.864,0,3.236.035,6.473-.022,9.707a2.419,2.419,0,0,0,1.244,2.4,37.85,37.85,0,0,0,5.34,2.554c7.9,2.69,16.118,3.534,24.386,4a155.668,155.668,0,0,0,23.136-.43,78.144,78.144,0,0,0,16.981-3.1,52.908,52.908,0,0,0,6.628-2.9,2.6,2.6,0,0,0,1.4-2.649c-.073-3.16-.025-6.324-.025-9.486v-1.06c-1.828.772-3.506,1.6-5.262,2.2-8.072,2.757-16.465,3.683-24.916,4.187a155.924,155.924,0,0,1-23.908-.4,89.185,89.185,0,0,1-17.757-3.158C63.029,127.666,60.687,126.611,58.277,125.688Z" fill="#74a839" stroke="#74a839" stroke-width="2"/>
    <path id="Trazado_494" data-name="Trazado 494" d="M95.881,105.524c0-5.551-.008-11.1.011-16.653,0-.728-.111-1.137-.941-1.417-3.795-1.282-6.154-3.948-6.47-7.953a60.214,60.214,0,0,1,.036-9.795,9.331,9.331,0,0,1,18.508,0,60.54,60.54,0,0,1,.014,9.9c-.324,3.908-2.65,6.521-6.349,7.808a1.275,1.275,0,0,0-1.048,1.455q.045,16.488.016,32.976a6.359,6.359,0,0,1-.1,1.423,1.838,1.838,0,0,1-3.576-.006,6.055,6.055,0,0,1-.1-1.314Q95.876,113.74,95.881,105.524ZM103.356,74.8a44.278,44.278,0,0,0-.027-4.508,5.524,5.524,0,0,0-5.536-4.954,5.424,5.424,0,0,0-5.558,4.909,67.816,67.816,0,0,0,0,9.016A5.377,5.377,0,0,0,97.8,84.143a5.482,5.482,0,0,0,5.53-4.945A42.443,42.443,0,0,0,103.356,74.8Z" fill="#74a839" stroke="#74a839" stroke-width="2"/>
  </g>
</svg>
