<svg xmlns="http://www.w3.org/2000/svg" width="134.992" height="133.776" viewBox="0 0 134.992 133.776">
  <g id="Grupo_6326" data-name="Grupo 6326" transform="translate(-1522.318 -1648.068)">
    <g id="Grupo_6319" data-name="Grupo 6319" transform="translate(1545.38 1681.487)">
      <g id="Grupo_6317" data-name="Grupo 6317">
        <path id="Trazado_3451" data-name="Trazado 3451" d="M1553.654,1733.567a33.292,33.292,0,0,0,46.37-5.825,32.592,32.592,0,0,0-5.88-45.952,33.29,33.29,0,0,0-46.369,5.827A32.592,32.592,0,0,0,1553.654,1733.567Zm38.689-49.474a29.691,29.691,0,0,1,5.357,41.862,30.328,30.328,0,0,1-42.244,5.308,29.692,29.692,0,0,1-5.357-41.862A30.328,30.328,0,0,1,1592.343,1684.093Z" transform="translate(-1540.541 -1674.62)" fill="#74a839"/>
        <path id="Trazado_3452" data-name="Trazado 3452" d="M1573.929,1740.8a33.39,33.39,0,0,1-20.4-6.916h0a32.9,32.9,0,0,1-5.934-46.391,33.255,33.255,0,1,1,26.336,53.307Zm-20.014-7.411a32.976,32.976,0,0,0,45.926-5.772,32.28,32.28,0,0,0-5.824-45.51,32.972,32.972,0,0,0-45.926,5.771,32.28,32.28,0,0,0,5.824,45.511Zm20.016,4.5a30.436,30.436,0,0,1-18.6-6.306,30.1,30.1,0,0,1,14.813-53.732,30.414,30.414,0,0,1,22.463,6.066h0a30,30,0,0,1,5.413,42.3A30.5,30.5,0,0,1,1573.932,1737.882Zm.11-59.655a30.7,30.7,0,0,0-3.821.239,29.469,29.469,0,0,0-14.5,52.615,30.014,30.014,0,0,0,41.8-5.253,29.382,29.382,0,0,0-5.3-41.424h0A29.715,29.715,0,0,0,1574.042,1678.226Z" transform="translate(-1540.608 -1674.685)" fill="#74a839"/>
      </g>
      <g id="Grupo_6318" data-name="Grupo 6318" transform="translate(9.522 7.615)">
        <path id="Trazado_3453" data-name="Trazado 3453" d="M1554.065,1720.832c-1.044,1.334-.082,3.685,2.237,5.466s4.856,2.118,5.9.783c.035-.046.069-.094.1-.143a24.427,24.427,0,0,0,29.7-6.976,23.963,23.963,0,0,0-4.323-33.786,24.477,24.477,0,0,0-34.094,4.284,23.9,23.9,0,0,0,.6,30.239C1554.14,1720.742,1554.1,1720.786,1554.065,1720.832Zm3.313,4.09c-1.636-1.257-2.184-2.692-1.925-3.024s1.8-.165,3.436,1.091,2.184,2.693,1.925,3.025S1559.015,1726.179,1557.378,1724.922Zm-2.406-33.4a22.707,22.707,0,0,1,31.63-3.975,22.231,22.231,0,0,1,4.011,31.344,22.663,22.663,0,0,1-28.075,6.215,6.72,6.72,0,0,0-2.572-3.5,6.807,6.807,0,0,0-4.059-1.6A22.17,22.17,0,0,1,1554.972,1691.527Z" transform="translate(-1548.047 -1680.666)" fill="#74a839"/>
        <path id="Trazado_3454" data-name="Trazado 3454" d="M1572.8,1729.843a24.65,24.65,0,0,1-10.264-2.224c-1.276,1.37-3.989,1.028-6.434-.853a7.884,7.884,0,0,1-2.529-3.1,3.026,3.026,0,0,1,.09-2.865,24.519,24.519,0,0,1,16.1-39.844,24.773,24.773,0,0,1,18.292,4.939,24.432,24.432,0,0,1,4.408,34.446A24.986,24.986,0,0,1,1572.8,1729.843Zm-10.577-3.411.375.179a24.077,24.077,0,0,0,29.117-6.84,23.5,23.5,0,0,0-4.237-33.127,24,24,0,0,0-33.429,4.2,23.55,23.55,0,0,0,.583,29.649l.268.314-.372.41a2.073,2.073,0,0,0-.076,2.1,6.92,6.92,0,0,0,2.229,2.7c2.072,1.591,4.37,1.97,5.236.867Zm10.636,1.693a23.027,23.027,0,0,1-10.448-2.5l-.2-.1-.049-.213a6.28,6.28,0,0,0-2.4-3.233,6.463,6.463,0,0,0-3.682-1.5h-.076l-.22.005-.146-.163a22.653,22.653,0,0,1-.956-29.092h0a22.942,22.942,0,1,1,18.172,36.79Zm-9.828-3.242a22.2,22.2,0,0,0,27.3-6.178,21.764,21.764,0,0,0-3.925-30.685,22.232,22.232,0,0,0-30.964,3.89h0a21.72,21.72,0,0,0,.775,27.736,7.517,7.517,0,0,1,4.134,1.692A7.412,7.412,0,0,1,1563.033,1724.883Zm-2.646,1.849a5.9,5.9,0,0,1-3.208-1.341h0c-1.626-1.249-2.564-2.971-2.01-3.682.368-.469,1.22-.336,1.694-.218a6.881,6.881,0,0,1,2.406,1.224c1.628,1.251,2.567,2.971,2.011,3.684A1.092,1.092,0,0,1,1560.387,1726.731Zm-2.627-2.085a1.524,1.524,0,1,0,.931-1.188,4.638,4.638,0,0,0-2.724-1.14,4.573,4.573,0,0,0,1.793,2.328Z" transform="translate(-1548.138 -1680.761)" fill="#74a839"/>
      </g>
    </g>
    <g id="Grupo_6320" data-name="Grupo 6320" transform="translate(1522.568 1648.318)">
      <path id="Trazado_3455" data-name="Trazado 3455" d="M1589.814,1780.866c-37.079,0-67.246-29.894-67.246-66.638s30.167-66.638,67.246-66.638,67.246,29.894,67.246,66.638S1626.893,1780.866,1589.814,1780.866Zm0-128.322c-34.323,0-62.247,27.672-62.247,61.684s27.924,61.684,62.247,61.684,62.247-27.672,62.247-61.684S1624.137,1652.544,1589.814,1652.544Z" transform="translate(-1522.568 -1647.59)" fill="#74a839" stroke="#74a839" stroke-width="0.5"/>
    </g>
    <g id="Grupo_6321" data-name="Grupo 6321" transform="translate(1584 1708.089)">
      <path id="Trazado_3456" data-name="Trazado 3456" d="M1644.209,1705.066h-64.677l-8.076-3.776-.307-3.584,6.226-1.793h66.834Zm-64.252-1.88h62.355v-5.394h-64.8l-4.345,1.28.085.98Z" transform="translate(-1571.149 -1695.913)" fill="#74a839"/>
    </g>
    <g id="Grupo_6322" data-name="Grupo 6322" transform="translate(1525.774 1699.139)">
      <path id="Trazado_3457" data-name="Trazado 3457" d="M1525.1,1695.242s14.8-12.022,21.029-3.294-1.625,12.853-5.418,12.64c-3.651-.205-13.608-2.819-15.61,0Z" transform="translate(-1525.103 -1688.771)" fill="#74a839"/>
    </g>
    <g id="Grupo_6323" data-name="Grupo 6323" transform="translate(1525.774 1717.773)">
      <path id="Trazado_3458" data-name="Trazado 3458" d="M1525.1,1712.994s14.8,12.022,21.029,3.3-1.625-12.854-5.418-12.641c-3.651.206-13.608,2.819-15.61,0Z" transform="translate(-1525.103 -1703.641)" fill="#74a839"/>
    </g>
    <g id="Grupo_6325" data-name="Grupo 6325" transform="translate(1564.428 1708.715)">
      <g id="Grupo_6324" data-name="Grupo 6324">
        <path id="Trazado_3459" data-name="Trazado 3459" d="M1561.578,1696.663a6.539,6.539,0,0,1,4.373,1.393,7.919,7.919,0,0,1,1.243,1.573c.125.178.21.284.439.3a7.5,7.5,0,0,0,4.483-1.029c.77-.449,1.516-.935,2.285-1.384a5.735,5.735,0,0,1,2.77-.855,4.6,4.6,0,0,1,3,.993,14.317,14.317,0,0,1,1.442,1.245,4.754,4.754,0,0,0,5.269,1.183c.229-.076.458-.153.689-.215a1.064,1.064,0,0,1,1.28.635,1.015,1.015,0,0,1-.536,1.316c-2.644.994-5.2,1.126-7.515-.838-.517-.438-1.009-.9-1.525-1.346a2.8,2.8,0,0,0-3.594-.406c-.573.3-1.123.655-1.668,1.01a10.119,10.119,0,0,1-6.507,1.8.374.374,0,0,0-.3.131,5.386,5.386,0,0,1-4.325,2.831,7.035,7.035,0,0,1-4.982-.952,4.044,4.044,0,0,1-1.774-2.09,3.206,3.206,0,0,1,.85-3.488A6.33,6.33,0,0,1,1561.578,1696.663Zm.162,2-.029.115a4.766,4.766,0,0,0-2.411.56c-.62.341-1.225.755-1.227,1.539s.6,1.205,1.225,1.537a4.81,4.81,0,0,0,3.419.457,5.609,5.609,0,0,0,1.849-.778c1.05-.708,1.023-1.673.011-2.445a2.419,2.419,0,0,0-.726-.425C1563.156,1699.012,1562.445,1698.85,1561.739,1698.665Z" transform="translate(-1555.606 -1696.349)" fill="#74a839"/>
        <path id="Trazado_3460" data-name="Trazado 3460" d="M1561.658,1705.483a7.169,7.169,0,0,1-3.864-1.107,4.367,4.367,0,0,1-1.9-2.25,3.529,3.529,0,0,1,.921-3.808,6.638,6.638,0,0,1,4.828-1.9h.009a6.8,6.8,0,0,1,4.575,1.47,6.545,6.545,0,0,1,1.105,1.348l.193.283c.111.162.124.163.2.168a7.263,7.263,0,0,0,4.3-.988c.388-.224.769-.46,1.15-.694s.752-.465,1.136-.689a6.023,6.023,0,0,1,2.922-.9,4.9,4.9,0,0,1,3.206,1.059,14.876,14.876,0,0,1,1.474,1.271,4.425,4.425,0,0,0,4.942,1.106c.235-.076.468-.155.707-.22a1.39,1.39,0,0,1,1.66.829,1.322,1.322,0,0,1-.721,1.717c-3.209,1.207-5.7.925-7.835-.892-.263-.224-.521-.455-.778-.687s-.493-.445-.747-.659a2.487,2.487,0,0,0-3.236-.367c-.561.3-1.1.639-1.644,1a10.42,10.42,0,0,1-6.708,1.846,5.714,5.714,0,0,1-4.552,2.961A8.456,8.456,0,0,1,1561.658,1705.483Zm-.014-8.443a5.946,5.946,0,0,0-4.379,1.713,2.9,2.9,0,0,0-.779,3.168,3.716,3.716,0,0,0,1.645,1.927,6.7,6.7,0,0,0,4.762.907,5.023,5.023,0,0,0,4.092-2.662.684.684,0,0,1,.612-.3,9.827,9.827,0,0,0,6.311-1.745c.558-.364,1.108-.717,1.693-1.026a3.1,3.1,0,0,1,3.947.446c.257.218.507.443.759.67s.507.454.766.675c1.942,1.651,4.229,1.9,7.2.782a.709.709,0,0,0,.353-.915.749.749,0,0,0-.9-.441c-.225.063-.449.135-.673.21a5.082,5.082,0,0,1-5.6-1.262,13.806,13.806,0,0,0-1.41-1.217,4.243,4.243,0,0,0-2.8-.926,5.415,5.415,0,0,0-2.616.812c-.378.219-.751.45-1.123.679s-.77.475-1.162.7a7.84,7.84,0,0,1-4.669,1.072.831.831,0,0,1-.673-.439l-.2-.288a6.084,6.084,0,0,0-.994-1.223A6.207,6.207,0,0,0,1561.644,1697.04Zm.02,6.341a5.169,5.169,0,0,1-2.451-.623,2.12,2.12,0,0,1-1.392-1.816,2.163,2.163,0,0,1,1.39-1.812,5,5,0,0,1,2.319-.6l.048-.185.909.234c.511.127,1.021.256,1.522.411a2.705,2.705,0,0,1,.826.475,1.916,1.916,0,0,1,.889,1.54,1.775,1.775,0,0,1-.917,1.412,5.87,5.87,0,0,1-1.955.823A5.208,5.208,0,0,1,1561.664,1703.38Zm.013-4.223a4.353,4.353,0,0,0-2.16.521c-.656.361-1.062.7-1.063,1.263s.424.924,1.061,1.265a4.476,4.476,0,0,0,3.2.427,5.3,5.3,0,0,0,1.742-.733,1.254,1.254,0,0,0,.64-.912,1.33,1.33,0,0,0-.642-1.025,2.253,2.253,0,0,0-.629-.375c-.492-.15-.99-.276-1.49-.4l-.3-.076-.013.05-.25,0Z" transform="translate(-1555.672 -1696.412)" fill="#fff"/>
      </g>
    </g>
  </g>
</svg>
