<svg xmlns="http://www.w3.org/2000/svg" width="119.866" height="120.033" viewBox="0 0 119.866 120.033">
  <g id="Grupo_491" data-name="Grupo 491" transform="translate(-362.174 -46.127)">
    <path id="Trazado_502" data-name="Trazado 502" d="M477.928,46.127h1.8a2.289,2.289,0,0,1,2.3,2.5,23.75,23.75,0,0,1-5.947,13.189,49.607,49.607,0,0,1-13.291,10.249c-2.429,1.384-4.925,2.648-7.395,3.966.057.108.075.208.131.237,1.142.593,2.293,1.166,3.43,1.766,5.736,3.03,11.294,6.308,15.871,10.982a24.063,24.063,0,0,1,1.578,32.355c-3.854,4.6-8.735,7.882-13.892,10.79-2.361,1.331-4.777,2.564-7.3,3.912.593.3,1.072.551,1.554.793a76.739,76.739,0,0,1,15.269,9.508c4.066,3.428,7.361,7.423,9.017,12.581a23.325,23.325,0,0,1,.717,2.786,3.57,3.57,0,0,1-3.514,4.223h0a3.568,3.568,0,0,1-3.5-2.9q-.156-.82-.309-1.634c-.151-.8-.551-1.111-1.437-1.109q-25.956.045-51.911,0c-.928,0-1.354.306-1.507,1.173l-.073.412a4.938,4.938,0,0,1-4.865,4.045h-1.029a1.659,1.659,0,0,1-1.656-1.787v-.012c.493-6.221,3.32-11.3,7.681-15.615,4.723-4.673,10.4-7.935,16.24-10.96.954-.494,1.913-.977,2.971-1.518-2.2-1.154-4.257-2.187-6.264-3.31a1.657,1.657,0,0,0-1.9.024,30.4,30.4,0,0,1-26.374,2.4c-2.327-.832-4.5-2.081-6.867-3.194l-5.939,6.77,2.558,2.2a3.718,3.718,0,0,1,.453,5.178c-3.433,4.192-9.936,12.032-13.81,16.485a9.871,9.871,0,0,1-10.645,3.1,10.327,10.327,0,0,1-7.644-8.065c-.074-.3-.167-.6-.251-.893v-2.813a14.561,14.561,0,0,1,2.724-5.6c3.6-4.259,9.854-11.836,13.258-16a3.714,3.714,0,0,1,5.28-.48l2.729,2.312,6.087-6.943-.655-.764c-11.989-13.935-9.436-35.418,5.8-45.7,10.635-7.174,21.828-7.388,33.136-1.338.38.2.954.494,1.243.352,2.325-1.155,4.6-2.4,7.023-3.692-.51-.275-.873-.481-1.246-.669a86.378,86.378,0,0,1-13.935-8.351c-5.789-4.449-10.058-9.755-11.353-16.731a3.535,3.535,0,0,1,3.451-4.211h.041a3.507,3.507,0,0,1,3.5,3.253h0c.072,1,.548,1.227,1.516,1.224q22.673-.051,45.346-.024c2.5,0,5-.021,7.5.015.67.01,1.013-.177,1.084-.871.028-.272.058-.543.089-.813A3.154,3.154,0,0,1,477.928,46.127Zm-63,83.921a23.891,23.891,0,1,0-23.881-23.812A23.81,23.81,0,0,0,414.924,130.048Zm55.34-72.117-.186-.24h-46.3a10.376,10.376,0,0,0,.693.8c.89.818,1.757,1.668,2.7,2.422,5.874,4.692,12.647,7.816,19.364,11.032a1.267,1.267,0,0,0,.965.016c6.369-3.042,12.779-6.021,18.44-10.318C467.451,60.493,468.826,59.172,470.263,57.931Zm-24.657,54.228a5.1,5.1,0,0,0,.605.052c8.939,0,17.878-.007,26.816.022a1.094,1.094,0,0,0,1.213-.923,16.221,16.221,0,0,0,.1-10.232,1.354,1.354,0,0,0-1.561-1.123c-8.743.034-17.488.02-26.231.023-.38,0-.76.032-.938.039Zm23.52,41.119c-.333-.354-.472-.534-.643-.675-.992-.82-1.96-1.675-2.995-2.437-5.527-4.076-11.71-6.976-17.871-9.91a1.742,1.742,0,0,0-1.292.058c-1.707.765-3.393,1.578-5.061,2.423-5.363,2.714-10.7,5.473-15.26,9.482-.325.286-.631.594-1.124,1.059Zm-.773-60.352.156-.308c-1.121-.891-2.208-1.831-3.371-2.667-5.47-3.931-11.532-6.8-17.586-9.677a1.723,1.723,0,0,0-1.291.113c-2.74,1.312-5.456,2.671-8.176,4.025a2.164,2.164,0,0,0-.432.3c1.6,2.434,3.224,4.765,4.692,7.19a1.81,1.81,0,0,0,1.815,1.045c7.684-.035,15.369-.02,23.053-.02Zm.383,26.32h-1.582c-7.022,0-14.045.088-21.063-.052-2.164-.044-3.63.31-4.472,2.53a16.45,16.45,0,0,1-2.313,3.5c-.536.743-1.158,1.425-1.84,2.256,3.109,1.521,6.1,3.008,9.128,4.435a1.548,1.548,0,0,0,1.167-.122c3.661-1.822,7.339-3.614,10.94-5.549A47.124,47.124,0,0,0,468.736,119.245Zm-95.659,29.984c-1.136,1.423-2.294,2.741-3.3,4.167a3.552,3.552,0,0,0,.743,4.743,3.613,3.613,0,0,0,4.888-.292c1.1-1.2,2.073-2.513,3.155-3.841Zm4.582-5.35,5.478,4.767,3.845-4.494-5.528-4.716Z" fill="#74a839"/>
    <path id="Trazado_503" data-name="Trazado 503" d="M424.133,102.622v.016a3.314,3.314,0,0,1-3.314,3.314h-2.293a3.313,3.313,0,0,0-3.314,3.313v2.325A3.314,3.314,0,0,1,411.9,114.9h-.016a3.313,3.313,0,0,1-3.313-3.313v-2.274A3.314,3.314,0,0,0,405.255,106h-2.32a3.313,3.313,0,0,1-3.314-3.313h0a3.314,3.314,0,0,1,3.314-3.314h2.232a3.313,3.313,0,0,0,3.313-3.313v-2.3a3.313,3.313,0,0,1,3.314-3.313h.035a3.313,3.313,0,0,1,3.313,3.313V96a3.313,3.313,0,0,0,3.314,3.313h2.363A3.314,3.314,0,0,1,424.133,102.622Z" transform="translate(2.965 3.505)" fill="#74a839"/>
  </g>
</svg>
