<svg xmlns="http://www.w3.org/2000/svg" width="120" height="99.246" viewBox="0 0 120 99.246">
  <g id="Grupo_490" data-name="Grupo 490" transform="translate(-403.285 -354.126)">
    <path id="Trazado_498" data-name="Trazado 498" d="M522.284,375.846c-.192.93-.361,1.866-.579,2.79a25.273,25.273,0,0,1-4.8,9.723,3.378,3.378,0,0,0-.661,1.175c-1.367,5.474-5.239,8.209-10.424,9.334-3.562.772-7.033.334-9.8-2.275a4.346,4.346,0,0,0-3.181-1.191,57.033,57.033,0,0,1-7.139-.968,1.457,1.457,0,0,0-1.6.386c-.889.95-1.868,1.819-2.837,2.693a2.5,2.5,0,0,0-.882,2.689c.71,2.377,1.5,4.73,2.252,7.07,14.026-7.469,28.8.435,33.537,11.656a23.986,23.986,0,0,1-44.093,18.9c-3.25,1.045-6.605.495-9.923.577a1.713,1.713,0,1,1,.042-3.415c1.958-.03,3.916,0,5.875-.016a10.608,10.608,0,0,0,1.491-.092c1.422-.211,1.409-.251,1.154-1.681-1.595-8.942.914-16.53,7.583-22.706a1.782,1.782,0,0,0,.761-1.96c-.573-2.1-.951-4.264-1.674-6.308-1.062-3-.546-5.431,1.886-7.553,4.293-3.747,7.519-8.184,8.772-13.851,1.217-5.5-.727-10.039-5.551-12.983a28.61,28.61,0,0,0-11.311-3.625,51.6,51.6,0,0,0-21.559,1.267,24.987,24.987,0,0,0-4.569,1.854c-5.769,3.015-7.971,8.08-6.281,14.364a25.8,25.8,0,0,0,8.3,12.731c2.818,2.484,3.36,4.673,1.957,8.189a21.457,21.457,0,0,0-.364,15.413c1.578,4.564,3.186,9.118,4.86,13.647a8.47,8.47,0,0,0,1.545,2.366,1.837,1.837,0,0,1,.227,2.564,1.677,1.677,0,0,1-2.549-.023,9.521,9.521,0,0,1-2.142-2.932c-1.984-5.311-3.971-10.633-5.656-16.044a23.917,23.917,0,0,1,.937-16.449c.758-1.875.568-2.641-.89-3.957-1.024-.925-1.856-2.384-3.03-2.73-1.15-.338-2.614.546-3.961.687-1.786.187-3.593.159-5.389.259a1.734,1.734,0,0,0-1.1.323c-2.934,3.286-6.674,3.921-10.73,3.127-4.409-.863-8.014-3.1-9.735-7.4a31.032,31.032,0,0,0-2.856-5.29c-3.334-5.183-4.849-10.811-3.291-16.894,1.986-7.755,7.282-12.15,14.976-13.689,6.62-1.324,12.895.192,18.911,2.9,2.475,1.115,4.8,2.56,7.22,3.8a2.181,2.181,0,0,0,1.459.178,55.093,55.093,0,0,1,31.655-.014,2.323,2.323,0,0,0,1.659-.258,47.345,47.345,0,0,1,15.866-6.528,24.708,24.708,0,0,1,14.571,1.261,11.513,11.513,0,0,1,1.245.592,1.692,1.692,0,0,1,.833,2.241,1.746,1.746,0,0,1-2.323.861,39.615,39.615,0,0,0-4.664-1.579c-5.171-1.117-10.158-.134-14.979,1.749-2.561,1-5.013,2.281-7.591,3.47l5.336,4.5c1.01-.463,2.2-1.052,3.424-1.564a24.325,24.325,0,0,1,10.73-2.185c4.331.221,7.813,2.587,8.859,6.151a10.848,10.848,0,0,1-.929,7.928c-.243.51-.525,1-.671,1.277l5.042,3.765c3.365-4.476,4.756-12.089,1.26-17.992-.963-1.628-.908-2.581.155-3.183,1.038-.588,1.891-.146,2.851,1.495a17.948,17.948,0,0,1,2.276,6.588,9.041,9.041,0,0,0,.215.881Zm-28.076,32.031a20.489,20.489,0,1,0,20.436,20.484A20.515,20.515,0,0,0,494.208,407.877Zm-51.4-43.558c-2-.979-3.92-2.028-5.925-2.879-4.784-2.027-9.714-3.257-14.993-2.684-9.444,1.024-15.328,8.594-13.839,17.984a18.077,18.077,0,0,0,2.975,7.436l5.04-3.746c-.429-1.041-1.041-2.241-1.427-3.51-1.763-5.8,1.319-10.7,7.283-11.712a15.875,15.875,0,0,1,7.293.4c2.88.871,5.686,1.988,8.526,3Zm-9.622,27.632a14.126,14.126,0,0,0,6.272-.738c-3.863-6.021-6.19-12.219-3.55-19.393-1.278-.567-2.479-1.16-3.724-1.64a20.966,20.966,0,0,0-8.854-1.71c-3.86.23-6.217,2.7-5.561,6.285a20.375,20.375,0,0,0,2.169,5c.13.265.693.421,1.069.449C427.806,380.725,432.514,385.221,433.187,391.951Zm60.3.215a10.28,10.28,0,0,1,5.25-9.522,14.691,14.691,0,0,1,5.727-2.173A4.055,4.055,0,0,0,508,377.616a12.458,12.458,0,0,0,.827-2.382c.72-3.275-.886-5.912-4.177-6.5a16.631,16.631,0,0,0-5.017-.007,26.6,26.6,0,0,0-8.912,3.153c2.625,7.2.243,13.385-3.713,19.583ZM424.1,395.74a16.615,16.615,0,0,0,3-.86,4.116,4.116,0,0,0,2.111-5.676,7.23,7.23,0,0,0-1.272-2.027,10.454,10.454,0,0,0-9.431-3.425c-2.015.254-3.8,1.1-4.525,3.21-.7,2.052.166,3.765,1.5,5.245C417.6,394.552,420.315,395.618,424.1,395.74Zm82.617-12.246a11.154,11.154,0,0,0-8.778,4.63c-1.953,3.07-.843,6.308,2.686,7.176a12.1,12.1,0,0,0,4.974.064,9.125,9.125,0,0,0,6.61-4.7,4.267,4.267,0,0,0-2.287-6.4A22.069,22.069,0,0,0,506.718,383.493Z" transform="translate(0 0)" fill="#74a839" stroke="#74a839" stroke-width="2"/>
    <path id="Trazado_499" data-name="Trazado 499" d="M496.219,419.41c1.778,0,3.391-.01,5,0,2.41.017,3.4,1.012,3.409,3.441.01,1.655.015,3.31,0,4.964-.022,2.32-.993,3.293-3.292,3.31-1.648.012-3.3,0-5.12,0v2.919c0,.809.014,1.619-.005,2.427a2.779,2.779,0,0,1-2.978,3.076q-2.866.082-5.736,0a2.8,2.8,0,0,1-2.993-3.084c-.035-1.654-.019-3.309-.03-4.964a1.868,1.868,0,0,0-.127-.372h-2.1c-6.152,0-6.152,0-6.152-6.206,0-.7,0-1.4,0-2.1.014-2.388,1.031-3.4,3.452-3.415,1.608-.01,3.215,0,4.952,0,0-1.729-.006-3.336,0-4.943.01-2.414,1.025-3.446,3.407-3.461q2.481-.014,4.964,0c2.331.016,3.331,1.029,3.345,3.384C496.227,416,496.219,417.615,496.219,419.41Zm-8.238-5.026c-.069.13-.131.192-.132.255-.018,1.727-.008,3.453-.048,5.179a2.707,2.707,0,0,1-2.9,2.9c-.918.027-1.837.006-2.756.007H479.5v5.1c.528,0,.964,0,1.4,0,1.4.007,2.8-.043,4.188.039a2.672,2.672,0,0,1,2.714,2.856c.028.918.008,1.837.009,2.756,0,.9,0,1.8,0,2.711h5.1c0-1.833-.035-3.592.01-5.35a2.754,2.754,0,0,1,2.841-2.992c.622-.043,1.249-.018,1.874-.019,1.2,0,2.4,0,3.613,0v-5.1c-1.865,0-3.658.027-5.449-.008a2.636,2.636,0,0,1-2.819-2.387,13.371,13.371,0,0,1-.07-1.758c-.009-1.382,0-2.763,0-4.178Z" transform="translate(4.956 4.082)" fill="#74a839" stroke="#74a839" stroke-width="2"/>
  </g>
</svg>
