<svg xmlns="http://www.w3.org/2000/svg" width="119" height="119.004" viewBox="0 0 119 119.004">
  <g id="Grupo_487" data-name="Grupo 487" transform="translate(-206.747 -35.695)">
    <path id="Trazado_490" data-name="Trazado 490" d="M323.779,61.318c-.1.151-.21.3-.293.456a3.452,3.452,0,0,1-6.615-1.525c-.019-3.687-.006-7.375-.006-11.062V48c-7.191,7.034-14.173,13.863-21.148,20.685a30.994,30.994,0,0,1-44.434,42.861c-11.6-10.256-14.18-26.271-6.645-38.838A15.347,15.347,0,0,1,249.8,76.76c.158.19-.034.769-.19,1.109-3.56,7.829-3.139,15.45,1.341,22.767a23.982,23.982,0,0,0,25.329,11.138,24.318,24.318,0,0,0,19.091-19.939c2.235-13.3-7.565-26.36-20.924-27.734a60.66,60.66,0,0,0-7.217.132,1.373,1.373,0,0,1-.915-.227c-1.651-1.7-3.262-3.449-4.87-5.164,6.949-2.93,18.761-3.3,29.372,4.966l21.157-20.7H304.91c-1.652,0-3.3.006-4.955,0a3.54,3.54,0,0,1-3.755-2.737c-.38-1.605.448-3.083,2.214-3.962a1.33,1.33,0,0,0,.243-.214h22.586l2.536,2.536Z" transform="translate(1.468 0)" fill="#74a839" stroke="#74a839" stroke-width="1"/>
    <path id="Trazado_491" data-name="Trazado 491" d="M248.533,116.55l-6.639,1.507v14.291h2.141q3.745,0,7.49,0c2.536,0,4.13,1.356,4.111,3.484s-1.6,3.428-4.168,3.43q-4.206,0-8.412,0h-1.244v8.362c0,.73.016,1.46-.005,2.189a3.45,3.45,0,1,1-6.9-.005c-.03-3.455-.008-6.91-.008-10.545h-1.367q-4.262,0-8.527,0c-2.346,0-3.917-1.383-3.933-3.434s1.563-3.473,3.887-3.478c3.259-.006,6.52,0,9.858,0V117.97a31.18,31.18,0,0,1-21.947-13.077,29.866,29.866,0,0,1-5.624-17.93A31.129,31.129,0,0,1,228.77,57.579a30.76,30.76,0,0,1,34.518,11.195,30.066,30.066,0,0,1,1.876,33.726,15.388,15.388,0,0,1-5.113-3.981c-.16-.189-.076-.718.065-1.008,6.519-13.326-.895-27.531-12.213-32.53a24.159,24.159,0,1,0-13.292,46.053c2.536.391,5.189,0,7.788.006a1.84,1.84,0,0,1,1.2.3C245.212,112.978,246.766,114.673,248.533,116.55Z" transform="translate(0 0.879)" fill="#74a839" stroke="#74a839" stroke-width="1"/>
  </g>
</svg>
