<svg xmlns="http://www.w3.org/2000/svg" xmlns:xlink="http://www.w3.org/1999/xlink" width="227" height="216" viewBox="0 0 227 216">
  <defs>
    <filter id="Image" x="0" y="0" width="227" height="216" filterUnits="userSpaceOnUse">
      <feOffset dy="5" input="SourceAlpha"/>
      <feGaussianBlur stdDeviation="2.5" result="blur"/>
      <feFlood flood-opacity="0.161"/>
      <feComposite operator="in" in2="blur"/>
      <feComposite in="SourceGraphic"/>
    </filter>
  </defs>
  <g id="Grupo_455" data-name="Grupo 455" transform="translate(-498.072 -3328.518)">
    <g transform="matrix(1, 0, 0, 1, 498.07, 3328.52)" filter="url(#Image)">
      <g id="Image-2" data-name="Image" transform="translate(7.5 2.5)" fill="#fff" stroke="#a2e2ff" stroke-width="6">
        <rect width="212" height="201" rx="100.5" stroke="none"/>
        <rect x="3" y="3" width="206" height="195" rx="97.5" fill="none"/>
      </g>
    </g>
    <g id="Grupo_1294" data-name="Grupo 1294" transform="translate(-1643.44 3251.893)">
      <g id="Grupo_1277" data-name="Grupo 1277" transform="translate(2204.312 107.831)">
        <g id="Grupo_1276" data-name="Grupo 1276">
          <path id="Trazado_2660" data-name="Trazado 2660" d="M2304.741,122.729c-.017-.249-.055-.5-.083-.745s-.044-.5-.083-.744q-.117-.741-.306-1.475a17.578,17.578,0,0,0-.983-2.815c-.009-.026-.01-.042-.021-.069a13.4,13.4,0,0,0-1.711-2.9h0l-.011-.015c-.105-.138-.177-.226-.177-.226l-.019-.006a13.79,13.79,0,0,0-2.371-2.318l-.01-.024-.145-.1c-.215-.162-.444-.312-.67-.463-.086-.058-.172-.115-.257-.169-.125-.079-.242-.168-.371-.245l.005.019a12.535,12.535,0,0,0-3-1.432l.006.008c-.577-.205-1.167-.392-1.779-.549q-.559-.144-1.137-.26a21.136,21.136,0,0,0-3.322-.371h0a25,25,0,0,0-5.194.441,32.856,32.856,0,0,0-6.419,1.929l-.265.109c-.251.105-.5.209-.754.322l-.181.081h0c-1.275.58-2.531,1.272-3.747,1.941-.6.328-1.194.657-1.8.975l0,0-.33.195a2,2,0,0,1-.481.2l-.017,0c-.064.019-.135.036-.208.051h-.006a.466.466,0,0,1-.064.014h-.007a2.274,2.274,0,0,1-.381.036,1.5,1.5,0,0,1-.428-.055,46.728,46.728,0,0,0-26.936,0,1.539,1.539,0,0,1-.428.054,2.312,2.312,0,0,1-.38-.036h-.007l-.053-.012-.011,0h-.007l-.018,0c-.076-.018-.144-.032-.208-.054h-.006a2.47,2.47,0,0,1-.264-.092,1.419,1.419,0,0,1-.211-.105l-.337-.2c-.6-.315-1.2-.646-1.8-.977-1.213-.668-2.467-1.359-3.742-1.939h0l-.1-.046-.077-.033c-.251-.113-.5-.218-.753-.321l-.269-.112h0a34.606,34.606,0,0,0-4.84-1.587q-.791-.192-1.577-.34a25.385,25.385,0,0,0-5.195-.441h0a22.657,22.657,0,0,0-2.416.218c-.309.045-.61.095-.9.153a20.4,20.4,0,0,0-3.621,1.078l-.008,0c-.089.038-.164.073-.249.112-.148.063-.3.119-.446.185h0l-.06.027c-.1.045-.2.091-.3.142-.05.023-.091.047-.134.072-.023.014-.047.027-.072.04a10.461,10.461,0,0,0-2.007,1.2v.01a13.973,13.973,0,0,0-1.7,1.419c-.043.035-.086.067-.131.106a13.262,13.262,0,0,0-2.156,2.8c-.017.027-.033.049-.052.077s-.032.064-.05.095h0c.018-.031.032-.064.05-.095h0c-.018.031-.033.065-.05.1-.079.135-.125.215-.125.215l0,.013a16.424,16.424,0,0,0-.878,1.884c-.022.058-.042.119-.064.178-.1.272-.2.544-.294.824-.114.353-.219.713-.313,1.08a16.026,16.026,0,0,0-.5,4.248q.008.429.037.859a16.455,16.455,0,0,0,.212,1.717v.005l.052.259q.066.337.141.669c.01.047.018.1.029.145.041.173.094.34.141.51.032.118.062.237.1.354.1.327.2.648.309.953v0l.008.022c.115.315.23.633.36.949l.007.015v0c.037.094.078.185.118.274l.068.155h0v0a24.107,24.107,0,0,0,1.706,3.144c.12.186.235.372.352.558l.274.413c.2.3.406.592.627.878a3.073,3.073,0,0,1,.6,1.08,7.7,7.7,0,0,0,.233.736l.167.421c.07.154.141.309.205.471a9.486,9.486,0,0,0,2.045,3.141l0,0,.113.113c.064.065.128.13.195.191l.021.021h0l.021.017c.112.1.228.2.344.289l.1.078c.259.2.542.418.837.607l0,0h0l.15.094h0a13.968,13.968,0,0,0,4.1,1.591h0c.038.008.076.018.115.028s.081.021.123.029q.665.129,1.3.194a11.719,11.719,0,0,0,1.237.063,9.343,9.343,0,0,0,2.27-.273l.111-.032a7.812,7.812,0,0,0,.763-.256h0l.238-.1.029-.012c.1-.041.195-.086.291-.131l0,0c.046-.02.085-.041.124-.063l.069-.036a7.965,7.965,0,0,0,1.738-1.248,2.727,2.727,0,0,1,.294-.235l.088-.064.008-.005c.035-.037.09-.09.146-.141.092-.086.185-.172.275-.272a1.025,1.025,0,0,1,.559-.278c.073-.017.149-.028.224-.038.1-.012.2-.019.3-.024.508-.029,1.016-.045,1.523-.06.059,0,.116-.012.176-.017,1.28-.1,2.551-.283,3.888-.509.473-.079.954-.164,1.448-.253a1.646,1.646,0,0,1,1.2.109.211.211,0,0,0,.027.013l.007,0a4.928,4.928,0,0,1,1.647,1.423,10.655,10.655,0,0,0,.818.867c1.286,1.16,1.471,1.914.852,3.5l0,.012c-.337,1.1-.714,2.291-1.182,3.729a20.332,20.332,0,0,0-.524,4.974l.018.507a19.4,19.4,0,0,0,.858,4.819c1.444,4.638,3.166,9.249,4.832,13.707a4.5,4.5,0,0,0,.623,1.091l.3.378c.278.337.582.664.871.969h0a1.312,1.312,0,0,0,.961.451h.009a1.266,1.266,0,0,0,.919-.428,1.415,1.415,0,0,0-.2-1.931,7.45,7.45,0,0,1-1.354-2.082q-.152-.412-.3-.826l-.316-.871v0c-1.176-3.221-2.367-6.575-3.542-9.972a20.013,20.013,0,0,1-.7-2.623l-.15-.864a18.2,18.2,0,0,1-.172-4.042,1.614,1.614,0,0,1-.016-.235c0-.038-.009-.078-.008-.115a1.58,1.58,0,0,1,.057-.358l.024-.094,0-.013q.07-.614.185-1.232a19.956,19.956,0,0,1,1.09-3.742c.1-.239.167-.462.239-.685l.069-.224c.034-.108.067-.214.092-.318l0-.018h0a6.029,6.029,0,0,0,.166-1.512,4.812,4.812,0,0,0-1.4-3.235,7.749,7.749,0,0,0-.6-.577c-4.1-3.58-6.577-7.488-7.562-11.948a10.735,10.735,0,0,1,.2-5.748h0l.007-.019c.088-.267.191-.53.3-.787.105-.241.219-.477.345-.705h0l.06-.113h0l.024-.037c.14-.245.29-.485.45-.715s.319-.442.491-.651l0,0,.01-.01c.157-.19.325-.368.5-.546.037-.038.071-.081.109-.121h0l.019-.019.007-.005c.172-.171.352-.333.537-.494.057-.05.112-.1.171-.15.221-.186.448-.368.686-.541l.013-.009.238-.174c.208-.154.423-.313.662-.459a23.937,23.937,0,0,1,9.3-3.059h.007l.268-.037h0l.3-.042h.006l.017,0a40.659,40.659,0,0,1,6.618-.468h0a42.262,42.262,0,0,1,6.64.472h0l.3.042h0l.277.038a30,30,0,0,1,5.311,1.225,19.607,19.607,0,0,1,3.984,1.836c.238.145.453.3.66.456l.209.154,0,0,.011.009h0l.014.01c.028.021.05.041.077.062.324.24.615.481.886.722.147.132.3.264.431.4l.017.015.023.024c.021.021.038.041.059.062.2.208.385.405.549.6l.011.012h0l0,0c.138.168.266.344.393.519.04.056.085.11.124.168.142.205.272.418.4.635.015.027.035.053.05.079l.038.071c.009.015.014.029.021.045a9.925,9.925,0,0,1,1.04,6.269q-.069.49-.181.992c-.986,4.46-3.461,8.368-7.564,11.948a5.018,5.018,0,0,0-1.83,5.306l0,.017h0l.005.018c.018.074.041.15.064.226.01.032.018.064.028.1l.074.24c.071.217.14.435.232.667a19.486,19.486,0,0,1,1.278,4.987l0,.017.009.031c0,.017,0,.029.009.046a2.087,2.087,0,0,1,.049.289c0,.018.008.04.009.059a1.544,1.544,0,0,1-.012.215c0,.047,0,.095-.008.144a18.238,18.238,0,0,1-.182,4.124l-.14.783a20.216,20.216,0,0,1-.7,2.623c-1.073,3.1-2.158,6.161-3.231,9.114l-1.024,2.767a8.093,8.093,0,0,1-1.258,1.872,1.416,1.416,0,0,0-.2,1.931,1.264,1.264,0,0,0,.919.428h.007a1.306,1.306,0,0,0,.962-.451c.272-.286.583-.619.872-.969l.293-.389,0,.012c.033-.045.054-.085.085-.128l.087-.115v-.015a4.2,4.2,0,0,0,.453-.833c1.664-4.456,3.386-9.063,4.831-13.707a19.354,19.354,0,0,0,.858-4.819l.012-.5.006,0c0-.041,0-.085,0-.127l0-.195-.008,0a20.4,20.4,0,0,0-.524-4.666v-.008c-.252-.772-.478-1.476-.688-2.143-.173-.546-.338-1.071-.493-1.578v0c-.077-.194-.14-.374-.191-.546a2.247,2.247,0,0,1,.61-2.527c.127-.136.272-.274.432-.421a10.1,10.1,0,0,0,.819-.867,5.089,5.089,0,0,1,1.648-1.423l.005,0,.027-.014a1.577,1.577,0,0,1,1.2-.108,52.712,52.712,0,0,0,5.51.778h.009c.483.014.976.029,1.467.056l.049,0a2.206,2.206,0,0,1,.865.181.724.724,0,0,1,.214.162c.088.1.182.185.274.271.052.049.1.1.156.147l.011.012.068.046a2.815,2.815,0,0,1,.3.24,7.9,7.9,0,0,0,1.742,1.25l.073.038.073.037.036.018h0c.176.088.351.158.527.228.139.053.264.1.385.141l.037.014c.116.041.227.074.338.106l.039.012h0l.115.032h0c.235.059.484.095.732.135a9.739,9.739,0,0,0,1.538.139,13.072,13.072,0,0,0,2.539-.256l.122-.029.115-.028h0a13.925,13.925,0,0,0,4.105-1.593l.149-.094a10.129,10.129,0,0,0,.845-.612h0l.085-.068c.125-.1.253-.2.372-.31h0c.078-.071.15-.145.222-.218l.112-.113a9.327,9.327,0,0,0,1.175-1.462,9.062,9.062,0,0,0,.474-.814q.218-.419.4-.864c.065-.163.137-.321.209-.478l.163-.409c.087-.249.17-.482.234-.74a3.072,3.072,0,0,1,.6-1.08c.222-.286.425-.582.627-.878l.274-.413q.172-.279.351-.559a23.841,23.841,0,0,0,1.705-3.143v0l.064-.145q.054-.121.106-.246l.018-.041h0v0l.009-.023c.135-.321.25-.642.365-.963h0c.1-.3.209-.621.308-.945.034-.11.062-.226.094-.337.05-.178.1-.355.147-.536.011-.05.019-.1.031-.149.049-.218.095-.437.137-.655l.056-.274q.074-.427.128-.857A16.161,16.161,0,0,0,2304.741,122.729Zm-99.611-4.043c.087-.273.187-.539.286-.8C2205.316,118.147,2205.219,118.413,2205.13,118.687Zm.359-1.005a16.313,16.313,0,0,1,.877-1.88h0A16.667,16.667,0,0,0,2205.489,117.681Zm19.182,23.461-.127-.151.009.014.1.151c-.032.027-.064.055-.1.082l-.017.015h0c-.028.022-.061.042-.091.064-.054.038-.107.078-.168.117-.095.062-.2.122-.31.183l0,0a4.73,4.73,0,0,1-.541.259h0c-.214.086-.425.164-.637.228l-.008,0c-.05.019-.075.028-.1.036l-.011,0-.063.013c-.372.1-.716.178-1.005.242-.2.045-.371.083-.5.119l-.03.008h-.029a14.464,14.464,0,0,1-2.6-.31h-.005l-.1-.013a8.046,8.046,0,0,1-5.509-3.663l0,0h0l0-.006c-.072-.106-.139-.218-.2-.331l-.006-.01c-.037-.059-.05-.079-.063-.1-.085-.159-.157-.306-.219-.449a4.2,4.2,0,0,1-.154-.412v0c-.006-.021-.011-.042-.017-.064l-.01-.038c-.019-.072-.036-.137-.05-.2-.029-.115-.05-.226-.066-.332a3.605,3.605,0,0,1,.576-2.711,3.707,3.707,0,0,1,.246-.314l0,0,0-.005v0l.013-.014.016-.018.029-.036.017-.019.015-.015c.058-.064.117-.128.182-.19l0,0,0,0a5.1,5.1,0,0,1,3.1-1.366.734.734,0,0,1,.074-.006l.2-.033c.287-.056.574-.112.858-.178l.027-.006h.027a10.437,10.437,0,0,1,2.608.46,8.568,8.568,0,0,1,.94.31l.035.012c.241.1.476.213.708.331.075.036.153.065.226.1.126.068.243.151.366.226.173.1.35.2.516.318.194.135.376.288.561.44.088.072.182.135.269.212h0c.074.064.142.133.21.2l.227.219c.131.122.26.244.385.378a6.407,6.407,0,0,1,1.123,1.79A3.717,3.717,0,0,1,2224.672,141.143Zm9.668-2.782.13.2-.041.015h0l.169.268-1.566.168h-.01l-.026.005a10.837,10.837,0,0,1-1.259.227l-.133.018a12.825,12.825,0,0,1-1.335.074c-.1,0-.194.006-.294.005h-.019l-1.44.156,0-.224a11.148,11.148,0,0,0-.046-1.157v-.01a10.726,10.726,0,0,0-2.87-5.7l0,0a10.7,10.7,0,0,0-1.472-1.1,12.477,12.477,0,0,0-4.816-1.83,4.512,4.512,0,0,1-.522-.094c-.073-.017-.143-.044-.214-.064-.091-.027-.184-.05-.272-.083h0c-.042-.005-.11-.015-.189-.031l-.031-.006c-.038-.009-.083-.023-.125-.035s-.091-.022-.14-.038h-.006l-.022-.009a1.265,1.265,0,0,1-.271-.135l-.013-.012c-.021-.014-.03-.036-.049-.053a.56.56,0,0,1-.149-.164l-.038-.072-.051-.1c-.07-.067-.129-.142-.193-.214s-.109-.112-.156-.173c-.072-.09-.131-.182-.194-.276-.033-.051-.073-.1-.1-.153-.068-.11-.125-.219-.183-.328-.018-.036-.041-.072-.059-.108-.072-.142-.137-.281-.195-.412a10.636,10.636,0,0,1-.719-2.073,4.492,4.492,0,0,1,2.4-5.362h0l0,0a6.619,6.619,0,0,1,2.556-.659,15.465,15.465,0,0,1,5.052.607c.081.021.164.045.249.071l.167.05c.036.01.07.023.106.033.241.073.481.147.717.227.528.173.96.328,1.356.486l.007,0,.023.01.016.006h0c.228.091.445.18.657.269.254.106.5.214.751.331h0l.7.318c.341.155.685.312,1.036.468l.169.074-.064.174C2228.911,128.51,2231.495,133.926,2234.34,138.36Zm2.825-22.736-4.415,3.738-.039-.012-.187.158-.855-.395c-.466-.217-.961-.448-1.467-.673h0c-.743-.273-1.433-.524-2.1-.76q-.652-.231-1.285-.444c-.484-.163-.967-.319-1.455-.468-.143-.042-.287-.073-.432-.1-.085-.018-.169-.037-.254-.058h0a17.167,17.167,0,0,0-4.044-.34c-.261.018-.507.041-.742.068s-.457.059-.668.095a7.758,7.758,0,0,0-5.469,3.4,6.53,6.53,0,0,0-.624,1.321,8.159,8.159,0,0,0,.023,5.041,19.073,19.073,0,0,0,.848,2.148l.451.924-.056.038h0l-.095.1-4.472,3.326-.117-.168c-.054-.08-.1-.163-.154-.247-.034-.059-.069-.118-.105-.174a14.964,14.964,0,0,1-1.768-13.211q.188-.5.423-1l.01-.022q.235-.492.52-.976c.042-.072.069-.132.108-.2a11.425,11.425,0,0,1,.834-1.137v.023a12.321,12.321,0,0,1,1.449-1.573c.132-.115.26-.226.385-.328l.092-.076c.249-.2.478-.381.7-.54s.458-.331.7-.482h0a9.056,9.056,0,0,1,.87-.506l.083-.031.011,0q.59-.308,1.218-.559a15.344,15.344,0,0,1,4.063-1c.04,0,.078-.005.117-.008l.084-.005a21.505,21.505,0,0,1,9.259,1.057h0l.159.049c.106.032.213.064.318.1h0q.74.242,1.486.523t1.492.6c.281.119.557.241.834.368.83.38,1.665.8,2.615,1.281h0c.538.258,1.085.517,1.637.772l.281.131Zm41.948,23.72h-.008c-.1,0-.192,0-.289,0a11.97,11.97,0,0,1-1.354-.076l-.077-.01a11.344,11.344,0,0,1-1.33-.238l-.018,0-1.553-.165.176-.273h0v0l.085-.209c2.845-4.434,5.429-9.85,3.015-16.405l-.064-.174.17-.074c.352-.156.7-.314,1.041-.471l.7-.315h0c.471-.221.948-.414,1.4-.595l.01,0,.051-.022h0c-.008,0,0,0,.019-.008.376-.151.806-.305,1.336-.478h0q.4-.135.805-.255l.014,0,.172-.051c.082-.024.164-.049.247-.071h0a15.5,15.5,0,0,1,5.048-.605,6.624,6.624,0,0,1,2.557.659l0,0h0a4.343,4.343,0,0,1,2.527,4.481h0a6.255,6.255,0,0,1-.131.881,10.7,10.7,0,0,1-.718,2.075c-.058.13-.122.267-.194.409-.033.065-.076.133-.113.2s-.082.155-.129.233-.094.136-.141.2-.1.153-.158.227-.119.131-.178.2-.11.131-.175.191l-.088.171c0,.006-.01.01-.014.017a.586.586,0,0,1-.127.141c-.022.018-.032.044-.056.06l-.013.01a1.2,1.2,0,0,1-.271.135l-.021.009h-.005c-.05.018-.094.027-.141.04s-.087.026-.125.035l-.029.005c-.08.017-.149.027-.191.032h0c-.11.041-.224.071-.337.1-.049.013-.1.032-.147.044a4.518,4.518,0,0,1-.523.094,10.779,10.779,0,0,0-3.274,1c-.389.182-.75.373-1.078.56-.164.094-.319.185-.464.274a10.96,10.96,0,0,0-1.476,1.1l-.006.005a10.542,10.542,0,0,0-2.686,4.879c-.068.271-.128.546-.177.827l0,.008a11,11,0,0,0-.045,1.149l0,.224Zm17.949-2.753v.005h0a3.987,3.987,0,0,1-.115.527v.006a.992.992,0,0,1-.026.1,4.618,4.618,0,0,1-.356.823l0,.006c-.013.026-.021.044-.03.058l-.023.036-.052.088-.05.085c-.046.076-.09.146-.136.214l0,.005a8.167,8.167,0,0,1-.486.695A7.947,7.947,0,0,1,2291.63,142c-.282.082-.574.15-.872.206l-.063.009c-.436.092-.868.164-1.307.215s-.878.085-1.337.1h-.031l-.028-.008c-.133-.036-.3-.074-.5-.119-.289-.065-.631-.141-.989-.241h0a.744.744,0,0,1-.078-.014.6.6,0,0,1-.077-.027c-.042-.013-.078-.027-.119-.04-.2-.064-.379-.131-.559-.2h0a4.664,4.664,0,0,1-.546-.262h0c-.115-.064-.22-.127-.319-.191s-.171-.114-.247-.173c-.036-.028-.069-.058-.1-.086-.01-.009-.017-.019-.027-.027h0a3.656,3.656,0,0,1-1.141-3.847,4.77,4.77,0,0,1,.219-.624,6.4,6.4,0,0,1,1.124-1.79c.125-.135.255-.258.386-.38l.227-.221c.068-.068.135-.136.21-.2a9.055,9.055,0,0,1,2.646-1.628,8.758,8.758,0,0,1,.974-.322l.006,0a11.119,11.119,0,0,1,1.315-.317,10,10,0,0,1,1.287-.141h.027l.026.006c.285.067.574.122.863.178l.155.031.015,0a.772.772,0,0,1,.1.006,6.348,6.348,0,0,1,1.783.471h0a4.629,4.629,0,0,1,.718.395c.055.038.1.087.153.128a3.986,3.986,0,0,1,.449.373l.02.021c.06.059.116.119.172.181l.007.006.009.01.031.037.008.009.02.023.01.012A3.591,3.591,0,0,1,2297.063,136.592Zm2.58-4.448,0,.005c-.031.05-.066.108-.1.165-.05.086-.1.171-.156.25l-.117.168-4.6-3.418.012-.027-.012-.009.054-.169c.036-.068.082-.153.133-.247l.029-.05.005-.01.205-.468a18.68,18.68,0,0,0,.846-2.144,7.222,7.222,0,0,0-6.07-9.76c-.422-.071-.883-.124-1.41-.164h-.006c-.2-.008-.406,0-.607,0-.461,0-.923.013-1.39.053a18.277,18.277,0,0,0-2.022.289l-.023,0h0c-.078.019-.165.037-.25.056-.145.031-.29.062-.433.1-1.57.476-3.06,1.017-4.843,1.673l-.011,0c-.492.221-.988.451-1.453.668l-.858.4-.187-.158-.039.012-4.65-3.937.021-.009h0l.244-.162q.829-.383,1.641-.774c1.265-.641,2.326-1.172,3.449-1.648.994-.422,1.989-.8,2.959-1.113h0l.014-.005h0c.118-.04.221-.071.323-.1l.158-.047a21.431,21.431,0,0,1,9.256-1.057h0l.081.005c.04,0,.078,0,.118.009a15.042,15.042,0,0,1,4.947,1.407l1.324.687c-.011,0-.02.006-.032.008a12.856,12.856,0,0,1,1.71,1.282c.218.2.427.4.619.595l0,0c.2.209.39.415.566.617l.087.1a14.9,14.9,0,0,1,1.333,1.817C2303.511,122.215,2302.175,128.483,2299.642,132.144Z" transform="translate(-2204.312 -107.831)" fill="#74a839"/>
        </g>
      </g>
      <g id="Grupo_1278" data-name="Grupo 1278" transform="translate(2251.526 131.799)">
        <path id="Trazado_2661" data-name="Trazado 2661" d="M2243,172.823h-.454c-.574,0-1.041-.283-1.041-.631V127.666c0-.424.567-.768,1.268-.768h0c.7,0,1.268.344,1.268.768v44.526C2244.045,172.54,2243.578,172.823,2243,172.823Z" transform="translate(-2241.028 -126.417)" fill="#74a839"/>
        <path id="Trazado_2662" data-name="Trazado 2662" d="M2243.109,173.408h-.453c-.868,0-1.523-.478-1.523-1.112V127.773c0-.7.769-1.25,1.749-1.25s1.749.549,1.749,1.25V172.3C2244.631,172.93,2243.977,173.408,2243.109,173.408Zm-.227-45.924c-.508,0-.776.222-.788.29V172.3a.968.968,0,0,0,.562.15h.453a.76.76,0,0,0,.567-.181l-.006-44.493C2243.658,127.707,2243.39,127.485,2242.882,127.485Z" transform="translate(-2241.133 -126.523)" fill="#74a839"/>
      </g>
      <g id="Grupo_1279" data-name="Grupo 1279" transform="translate(2251.031 128.026)">
        <path id="Trazado_2663" data-name="Trazado 2663" d="M2242.991,132.379a2.244,2.244,0,0,1-2.244-2.244v-3.224a2.242,2.242,0,0,1,.783-1.7l1.267-1.086a2.244,2.244,0,1,1,2.922,3.406l-.484.415v2.191A2.243,2.243,0,0,1,2242.991,132.379Z" transform="translate(-2240.747 -123.58)" fill="#74a839"/>
      </g>
      <g id="Grupo_1280" data-name="Grupo 1280" transform="translate(2250.193 121.42)">
        <path id="Trazado_2664" data-name="Trazado 2664" d="M2251.838,122.123a.636.636,0,0,1-.423-.16c-4.3-3.78-10.4-1.63-10.462-1.609a.64.64,0,1,1-.436-1.2c.278-.1,6.884-2.425,11.744,1.852a.64.64,0,0,1,.058.9A.633.633,0,0,1,2251.838,122.123Z" transform="translate(-2240.094 -118.429)" fill="#74a839"/>
      </g>
      <g id="Grupo_1281" data-name="Grupo 1281" transform="translate(2248.046 116.323)">
        <path id="Trazado_2665" data-name="Trazado 2665" d="M2247.96,125.942a1.185,1.185,0,0,1-.25-.026,1.283,1.283,0,0,1-.831-.565c-.639-1-2.817-.622-3.366-.463a1.284,1.284,0,0,1-1.5-.663l-3.46-6.972a1.283,1.283,0,0,1,.691-1.768c.377-.142,9.349-3.457,17.408,2.6a1.282,1.282,0,0,1-.034,2.075l-7.923,5.546A1.287,1.287,0,0,1,2247.96,125.942Zm-2.939-3.824a5.262,5.262,0,0,1,3.093.868l5.494-3.847a16.851,16.851,0,0,0-12.072-1.643l2.335,4.7A8.435,8.435,0,0,1,2245.021,122.118Z" transform="translate(-2238.419 -114.454)" fill="#74a839"/>
      </g>
      <g id="Grupo_1282" data-name="Grupo 1282" transform="translate(2251.979 176.837)">
        <path id="Trazado_2666" data-name="Trazado 2666" d="M2252.89,180.943a.961.961,0,0,1-.828-.471c-.037-.063-3.708-6.2-7.363-7.954-4.606-2.211-2.928-9.8-2.854-10.125a.962.962,0,0,1,1.875.428c-.015.064-1.363,6.439,1.809,7.963,4.183,2.005,8.026,8.433,8.187,8.705a.963.963,0,0,1-.827,1.453Z" transform="translate(-2241.487 -161.647)" fill="#74a839"/>
      </g>
      <g id="Grupo_1283" data-name="Grupo 1283" transform="translate(2260.392 193.066)">
        <path id="Trazado_2667" data-name="Trazado 2667" d="M2252.717,184.692a3.48,3.48,0,0,1-1.153-.2,3.425,3.425,0,0,1-1.994-1.823l-1.213-2.657h0a3.471,3.471,0,0,1,1.292-4.352l1.289-.819a3.459,3.459,0,0,1,5,1.487l1.272,2.8a3.446,3.446,0,0,1-1.6,4.521l-1.348.674A3.451,3.451,0,0,1,2252.717,184.692Zm-2.026-5.743,1.21,2.656a.888.888,0,0,0,.515.469.876.876,0,0,0,.7-.044l1.348-.674a.889.889,0,0,0,.414-1.167l-1.272-2.8a.892.892,0,0,0-1.29-.382l-1.289.817a.893.893,0,0,0-.332,1.123Z" transform="translate(-2248.047 -174.304)" fill="#74a839"/>
      </g>
      <g id="Grupo_1284" data-name="Grupo 1284" transform="translate(2263.21 198.41)">
        <path id="Trazado_2668" data-name="Trazado 2668" d="M2255.97,189.842a1.278,1.278,0,0,1-1.05-.545l-4.442-6.33a1.279,1.279,0,0,1-.086-1.331,1.361,1.361,0,0,1,1.141-.687,2.952,2.952,0,0,0,2.879-1.635,1.255,1.255,0,0,1,1.243-.841,1.286,1.286,0,0,1,1.19.913l2.336,7.774a1.281,1.281,0,0,1-.636,1.505l-1.984,1.032A1.269,1.269,0,0,1,2255.97,189.842Zm-2.233-6.7,2.637,3.758.045-.023-1.342-4.464A5.336,5.336,0,0,1,2253.737,183.146Z" transform="translate(-2250.246 -178.472)" fill="#74a839"/>
      </g>
      <g id="Grupo_1285" data-name="Grupo 1285" transform="translate(2268.524 207.216)">
        <path id="Trazado_2669" data-name="Trazado 2669" d="M2263.051,205.911a1.282,1.282,0,0,1-1.184-.789c-2.712-6.5-7.287-17.505-7.446-18.222a1.282,1.282,0,0,1,2.493-.6c.283.9,4.526,11.141,7.32,17.836a1.282,1.282,0,0,1-.69,1.676A1.263,1.263,0,0,1,2263.051,205.911Z" transform="translate(-2254.39 -185.339)" fill="#74a839"/>
      </g>
      <g id="Grupo_1286" data-name="Grupo 1286" transform="translate(2269.635 204.272)">
        <path id="Trazado_2670" data-name="Trazado 2670" d="M2264.842,196.213a1.28,1.28,0,0,1-1.01-.492l-8.3-10.6a1.282,1.282,0,1,1,2.018-1.581l8.3,10.605a1.283,1.283,0,0,1-1.008,2.072Z" transform="translate(-2255.256 -183.043)" fill="#74a839"/>
      </g>
      <g id="Grupo_1287" data-name="Grupo 1287" transform="translate(2276.604 212.931)">
        <path id="Trazado_2671" data-name="Trazado 2671" d="M2265.383,196.847a1.275,1.275,0,0,1-.569-.135l-3.411-1.693a1.282,1.282,0,0,1-.231-2.149l3.488-2.794a1.283,1.283,0,0,1,2.075.841l.49,3.937a1.281,1.281,0,0,1-.379,1.081l-.571.55A1.278,1.278,0,0,1,2265.383,196.847Zm-1.041-3.231.154.077-.021-.181Z" transform="translate(-2260.691 -189.796)" fill="#74a839"/>
      </g>
      <g id="Grupo_1288" data-name="Grupo 1288" transform="translate(2280.013 216.866)">
        <path id="Trazado_2672" data-name="Trazado 2672" d="M2272.393,206.285a1.281,1.281,0,0,1-1.025-.512l-7.76-10.3a1.281,1.281,0,0,1,.133-1.693l.57-.551a1.294,1.294,0,0,1,.959-.359,1.278,1.278,0,0,1,.916.458c8.417,10.064,8.445,10.28,8.5,10.753.162,1.273-1.31,1.9-1.793,2.105A1.278,1.278,0,0,1,2272.393,206.285Z" transform="translate(-2263.35 -192.865)" fill="#74a839"/>
      </g>
      <g id="Grupo_1289" data-name="Grupo 1289" transform="translate(2274.475 224.697)">
        <path id="Trazado_2673" data-name="Trazado 2673" d="M2261.239,199.972c.219.527-1.209,4.811-1.209,4.811l4.919-1.864Z" transform="translate(-2258.749 -198.69)" fill="#74a839"/>
        <path id="Trazado_2674" data-name="Trazado 2674" d="M2260.314,206.347a1.281,1.281,0,0,1-1.217-1.687,32.014,32.014,0,0,0,1.163-4.183,1.281,1.281,0,0,1,2.059-1.227l3.711,2.947a1.283,1.283,0,0,1-.344,2.2l-4.918,1.864A1.3,1.3,0,0,1,2260.314,206.347Zm2.1-3.749c-.028.108-.06.219-.093.336l.349-.132Zm-2.075-1.854v0Z" transform="translate(-2259.031 -198.972)" fill="#74a839"/>
      </g>
      <g id="Grupo_1290" data-name="Grupo 1290" transform="translate(2274.316 228.062)">
        <path id="Trazado_2675" data-name="Trazado 2675" d="M2261.845,208.9a2.761,2.761,0,0,1-2.507-1.608l-.177-.383h0a2.766,2.766,0,0,1,1.473-3.72l3.44-1.389a2.76,2.76,0,0,1,3.543,1.4l.182.395a2.76,2.76,0,0,1-1.485,3.724c-1.036.413-2.42.964-3.427,1.375A2.767,2.767,0,0,1,2261.845,208.9Zm-.356-3.067.177.383a.2.2,0,0,0,.255.1c1.012-.41,2.4-.967,3.445-1.38a.2.2,0,0,0,.1-.268l-.182-.394a.2.2,0,0,0-.255-.1l-3.439,1.387a.2.2,0,0,0-.105.268Z" transform="translate(-2258.907 -201.597)" fill="#74a839"/>
      </g>
      <g id="Grupo_1291" data-name="Grupo 1291" transform="translate(2275.902 230.432)">
        <path id="Trazado_2676" data-name="Trazado 2676" d="M2266.421,222.14a1.283,1.283,0,0,1-1.205-.845l-5-13.764a1.283,1.283,0,0,1,.657-1.6l5-2.367a1.28,1.28,0,0,1,1.7.589l6.7,13.514a1.284,1.284,0,0,1-.682,1.764l-6.7,2.617A1.28,1.28,0,0,1,2266.421,222.14Zm-3.392-14.387,4.149,11.433,4.177-1.63-5.522-11.131Z" transform="translate(-2260.144 -203.445)" fill="#74a839"/>
      </g>
      <g id="Grupo_1292" data-name="Grupo 1292" transform="translate(2281.865 245.228)">
        <path id="Trazado_2677" data-name="Trazado 2677" d="M2265.964,222.242l8.171-3.272-2.32-3.986-7.021,2.618Z" transform="translate(-2264.794 -214.984)" fill="#74a839"/>
      </g>
      <g id="Grupo_1293" data-name="Grupo 1293" transform="translate(2282.698 249.214)">
        <path id="Trazado_2678" data-name="Trazado 2678" d="M2273.952,218.093l2.916,1.666-11.424,5,.337-3.391Z" transform="translate(-2265.444 -218.093)" fill="#74a839"/>
      </g>
    </g>
  </g>
</svg>
