<svg xmlns="http://www.w3.org/2000/svg" xmlns:xlink="http://www.w3.org/1999/xlink" width="227" height="216" viewBox="0 0 227 216">
  <defs>
    <filter id="Image" x="0" y="0" width="227" height="216" filterUnits="userSpaceOnUse">
      <feOffset dy="5" input="SourceAlpha"/>
      <feGaussianBlur stdDeviation="2.5" result="blur"/>
      <feFlood flood-opacity="0.161"/>
      <feComposite operator="in" in2="blur"/>
      <feComposite in="SourceGraphic"/>
    </filter>
  </defs>
  <g id="Grupo_455" data-name="Grupo 455" transform="translate(-498.072 -3328.518)">
    <g transform="matrix(1, 0, 0, 1, 498.07, 3328.52)" filter="url(#Image)">
      <g id="Image-2" data-name="Image" transform="translate(7.5 2.5)" fill="#fff" stroke="#a2e2ff" stroke-width="6">
        <rect width="212" height="201" rx="100.5" stroke="none"/>
        <rect x="3" y="3" width="206" height="195" rx="97.5" fill="none"/>
      </g>
    </g>
    <g id="Grupo_1664" data-name="Grupo 1664" transform="translate(-477.193 2697.091)">
      <g id="Grupo_1689" data-name="Grupo 1689" transform="translate(1034.436 683.678)">
        <g id="Grupo_1688" data-name="Grupo 1688">
          <g id="Grupo_1665" data-name="Grupo 1665" transform="translate(28.753 12.051)">
            <g id="Grupo_1664-2" data-name="Grupo 1664">
              <path id="Trazado_2982" data-name="Trazado 2982" d="M1095.141,750.8c-13.151,0-26.415-3.785-34.882-11.358a1.4,1.4,0,0,1-.392-1.495l14.528-42.7a1.4,1.4,0,0,1,2.229-.619c8.76,7.4,28.432,7.429,36.287.05a1.4,1.4,0,0,1,2.284.569l14.528,42.7a1.4,1.4,0,0,1-.362,1.467C1121.361,747.008,1108.308,750.8,1095.141,750.8Zm-32.32-12.842c15.789,13.25,49.027,13.265,63.958.027L1113.2,698.07c-9.1,6.58-27.014,6.561-36.775-.079Z" transform="translate(-1059.792 -694.305)" fill="#74a839"/>
            </g>
          </g>
          <g id="Grupo_1667" data-name="Grupo 1667">
            <g id="Grupo_1666" data-name="Grupo 1666">
              <path id="Trazado_2983" data-name="Trazado 2983" d="M1135.819,762.336h-59.6a1.4,1.4,0,0,1,0-2.8h59.6a4.348,4.348,0,0,0,4.343-4.343v-64.12a4.348,4.348,0,0,0-4.343-4.343H1041.83a4.348,4.348,0,0,0-4.343,4.343V751.6a1.4,1.4,0,0,1-2.8,0v-60.53a7.152,7.152,0,0,1,7.144-7.143h93.989a7.152,7.152,0,0,1,7.144,7.143v64.12A7.152,7.152,0,0,1,1135.819,762.336Z" transform="translate(-1034.402 -683.644)" fill="#74a839"/>
              <path id="Trazado_2984" data-name="Trazado 2984" d="M1135.853,762.653h-59.6a1.684,1.684,0,1,1,0-3.368h59.6a4.064,4.064,0,0,0,4.06-4.06v-64.12a4.064,4.064,0,0,0-4.06-4.06h-93.989a4.064,4.064,0,0,0-4.06,4.06v60.53a1.684,1.684,0,0,1-3.368,0v-60.53a7.436,7.436,0,0,1,7.427-7.428h93.989a7.436,7.436,0,0,1,7.428,7.428v64.12A7.436,7.436,0,0,1,1135.853,762.653Zm-59.6-2.8a1.117,1.117,0,1,0,0,2.234h59.6a6.868,6.868,0,0,0,6.86-6.861v-64.12a6.868,6.868,0,0,0-6.86-6.861h-93.989a6.868,6.868,0,0,0-6.86,6.861v60.53a1.117,1.117,0,0,0,2.234,0v-60.53a4.631,4.631,0,0,1,4.627-4.627h93.989a4.631,4.631,0,0,1,4.627,4.627v64.12a4.631,4.631,0,0,1-4.627,4.627Z" transform="translate(-1034.436 -683.678)" fill="#74a839"/>
            </g>
          </g>
          <g id="Grupo_1669" data-name="Grupo 1669" transform="translate(12.418 13.353)">
            <g id="Grupo_1668" data-name="Grupo 1668">
              <path id="Trazado_2985" data-name="Trazado 2985" d="M1046.787,739.323a1.4,1.4,0,0,1-1.4-1.4V696.852a1.4,1.4,0,0,1,2.8,0v41.071A1.4,1.4,0,0,1,1046.787,739.323Z" transform="translate(-1045.387 -695.453)" fill="#74a839"/>
            </g>
          </g>
          <g id="Grupo_1671" data-name="Grupo 1671" transform="translate(14.285 20.82)">
            <g id="Grupo_1670" data-name="Grupo 1670">
              <path id="Trazado_2986" data-name="Trazado 2986" d="M1055.9,704.838h-7.467a1.4,1.4,0,1,1,0-2.8h7.467a1.4,1.4,0,1,1,0,2.8Z" transform="translate(-1047.033 -702.038)" fill="#74a839"/>
            </g>
          </g>
          <g id="Grupo_1673" data-name="Grupo 1673" transform="translate(14.285 32.021)">
            <g id="Grupo_1672" data-name="Grupo 1672">
              <path id="Trazado_2987" data-name="Trazado 2987" d="M1055.9,714.716h-7.467a1.4,1.4,0,1,1,0-2.8h7.467a1.4,1.4,0,1,1,0,2.8Z" transform="translate(-1047.033 -711.916)" fill="#74a839"/>
            </g>
          </g>
          <g id="Grupo_1675" data-name="Grupo 1675" transform="translate(14.285 43.221)">
            <g id="Grupo_1674" data-name="Grupo 1674">
              <path id="Trazado_2988" data-name="Trazado 2988" d="M1055.9,724.594h-7.467a1.4,1.4,0,0,1,0-2.8h7.467a1.4,1.4,0,0,1,0,2.8Z" transform="translate(-1047.033 -721.793)" fill="#74a839"/>
            </g>
          </g>
          <g id="Grupo_1677" data-name="Grupo 1677" transform="translate(12.418 54.423)">
            <g id="Grupo_1676" data-name="Grupo 1676">
              <path id="Trazado_2989" data-name="Trazado 2989" d="M1056.121,734.471h-9.334a1.4,1.4,0,1,1,0-2.8h9.334a1.4,1.4,0,1,1,0,2.8Z" transform="translate(-1045.387 -731.671)" fill="#74a839"/>
            </g>
          </g>
          <g id="Grupo_1679" data-name="Grupo 1679" transform="translate(17.396 69.781)">
            <g id="Grupo_1678" data-name="Grupo 1678">
              <path id="Trazado_2990" data-name="Trazado 2990" d="M1096.35,776.492a1.376,1.376,0,0,1-.344-.043l-27.422-6.914c-2.083-.652-3.944,1.107-6.552,3.862a1.4,1.4,0,0,1-1.435.373l-8.981-2.817a1.394,1.394,0,0,1-.829-.7c-1.563-3.08-1.319-7.611.766-14.26,1.708-5.45,4.075-9.02,7.032-10.612a1.4,1.4,0,0,1,1.083-.1l8.98,2.816a1.4,1.4,0,0,1,.981,1.32c.058,5.419.763,7.649,2.6,8.226l26.535,10.007a1.4,1.4,0,0,1,.843,1.729l-1.923,6.134A1.4,1.4,0,0,1,1096.35,776.492Zm-28.692-9.917a5.614,5.614,0,0,1,1.688.265l26.063,6.57,1.132-3.611-25.222-9.515c-3.757-1.175-4.364-5.389-4.472-9.822l-7.415-2.325c-1.534,1.031-3.54,3.379-5.206,8.691-1.7,5.423-2.085,9.242-1.168,11.643l7.544,2.367C1062.64,768.709,1064.908,766.576,1067.659,766.576Z" transform="translate(-1049.776 -745.214)" fill="#74a839"/>
            </g>
          </g>
          <g id="Grupo_1681" data-name="Grupo 1681" transform="translate(22.456 75.892)">
            <g id="Grupo_1680" data-name="Grupo 1680">
              <path id="Trazado_2991" data-name="Trazado 2991" d="M1055.641,771.169a1.436,1.436,0,0,1-.438-.07,1.4,1.4,0,0,1-.893-1.768l5.83-17.764a1.4,1.4,0,1,1,2.66.873l-5.83,17.764A1.4,1.4,0,0,1,1055.641,771.169Z" transform="translate(-1054.239 -750.603)" fill="#74a839"/>
            </g>
          </g>
          <g id="Grupo_1683" data-name="Grupo 1683" transform="translate(64.689 80.557)">
            <g id="Grupo_1682" data-name="Grupo 1682">
              <path id="Trazado_2992" data-name="Trazado 2992" d="M1117.569,776.5c-10.5,0-23.054-3.518-25.076-4.1a1.4,1.4,0,0,1,.78-2.69c7.829,2.273,29.381,6.931,35.024,1.288.837-.838.872-1.2.872-1.205-.5-.74-4.938-1.365-7.878-1.78-5.285-.744-11.274-1.588-15.184-4.193-2.075-1.383-2.24-2.752-2.012-3.657.883-3.513,10.231-4.914,15.724-5.435a1.4,1.4,0,0,1,.265,2.787c-6.352.606-12.415,2.114-13.231,3.272a2.938,2.938,0,0,0,.807.7c3.378,2.252,9.279,3.083,14.02,3.751,5.63.793,9.347,1.317,10.154,3.724.616,1.84-1.021,3.477-1.559,4.014C1127.65,775.6,1122.871,776.5,1117.569,776.5Z" transform="translate(-1091.483 -754.718)" fill="#74a839"/>
            </g>
          </g>
          <g id="Grupo_1685" data-name="Grupo 1685" transform="translate(7.943 71.993)">
            <g id="Grupo_1684" data-name="Grupo 1684">
              <path id="Trazado_2993" data-name="Trazado 2993" d="M1044.378,761.646a1.4,1.4,0,0,1-1.11-.544,8.72,8.72,0,0,1,5.332-13.913,1.4,1.4,0,0,1,.5,2.756,5.918,5.918,0,0,0-3.62,9.446,1.4,1.4,0,0,1-1.107,2.256Z" transform="translate(-1041.441 -747.165)" fill="#74a839"/>
            </g>
          </g>
          <g id="Grupo_1687" data-name="Grupo 1687" transform="translate(1.83 66.002)">
            <g id="Grupo_1686" data-name="Grupo 1686">
              <path id="Trazado_2994" data-name="Trazado 2994" d="M1040.316,766.158a1.4,1.4,0,0,1-1.1-.536,14.746,14.746,0,0,1-2.251-14.234,14.924,14.924,0,0,1,11.145-9.481,1.4,1.4,0,0,1,.528,2.751,12.1,12.1,0,0,0-9.043,7.691,11.963,11.963,0,0,0,1.826,11.546,1.4,1.4,0,0,1-1.1,2.263Z" transform="translate(-1036.05 -741.882)" fill="#74a839"/>
            </g>
          </g>
        </g>
      </g>
      <g id="Grupo_1692" data-name="Grupo 1692" transform="translate(1077.348 713.489)">
        <g id="Grupo_1690" data-name="Grupo 1690">
          <path id="Trazado_2995" data-name="Trazado 2995" d="M1114.91,716.5c-.007-.105-.024-.21-.035-.314s-.018-.21-.035-.314q-.049-.313-.128-.622a7.49,7.49,0,0,0-.415-1.187c0-.011,0-.018-.009-.029a5.647,5.647,0,0,0-.721-1.221h0l-.006-.007-.074-.1-.008,0a5.851,5.851,0,0,0-1-.979l0-.01c-.021-.016-.04-.027-.06-.042-.092-.068-.187-.132-.283-.2l-.108-.071c-.053-.034-.1-.07-.157-.1l0,.008a5.292,5.292,0,0,0-1.267-.6l0,0c-.243-.087-.492-.166-.75-.232-.158-.04-.318-.077-.481-.109a8.812,8.812,0,0,0-1.4-.157h0a10.507,10.507,0,0,0-2.192.186,13.87,13.87,0,0,0-2.709.814l-.111.045c-.107.044-.213.089-.319.136l-.076.034h0c-.536.245-1.067.537-1.581.82-.252.138-.5.278-.758.412h0l-.139.083a.827.827,0,0,1-.2.083l-.007,0a.88.88,0,0,1-.087.021h0l-.027.006h0a1.048,1.048,0,0,1-.161.016.615.615,0,0,1-.18-.024,19.735,19.735,0,0,0-11.368,0,.654.654,0,0,1-.18.023,1.064,1.064,0,0,1-.161-.016h0l-.022,0h-.008l-.007,0a.818.818,0,0,1-.089-.023h0a.978.978,0,0,1-.112-.04.646.646,0,0,1-.087-.044l-.143-.083c-.252-.134-.506-.273-.759-.413-.513-.282-1.042-.574-1.58-.819h0l-.042-.019-.033-.015c-.107-.048-.212-.092-.317-.135l-.113-.047h0a14.633,14.633,0,0,0-2.042-.67c-.222-.053-.445-.1-.666-.143a10.669,10.669,0,0,0-2.192-.186h0a9.588,9.588,0,0,0-1.02.092c-.13.019-.258.04-.381.065a8.66,8.66,0,0,0-1.528.455l0,0-.107.048c-.062.026-.126.051-.187.078h0l-.026.011c-.042.019-.083.039-.124.06-.022.01-.038.02-.057.031l-.031.017a4.428,4.428,0,0,0-.847.507v0a6.078,6.078,0,0,0-.717.6c-.018.015-.036.028-.056.045a5.618,5.618,0,0,0-.909,1.182l-.021.033-.021.04h0l.021-.04h0c-.007.014-.014.028-.021.041l-.052.091v.006a6.828,6.828,0,0,0-.37.795c-.01.025-.018.051-.028.076-.043.115-.085.229-.124.347q-.073.225-.133.456a6.756,6.756,0,0,0-.211,1.793c0,.121.007.242.016.363a7.225,7.225,0,0,0,.089.725v0l.022.109c.018.1.038.188.059.282,0,.02.008.041.013.061.018.073.04.144.06.215.014.05.026.1.041.15.042.138.086.273.13.4v0l0,.009c.048.134.1.268.152.4l0,.007h0c.016.04.033.077.05.116l.03.066h0a10.021,10.021,0,0,0,.72,1.327c.051.078.1.156.149.236l.116.174c.085.126.171.251.264.371a1.308,1.308,0,0,1,.254.456,2.938,2.938,0,0,0,.1.311l.07.177c.03.066.059.132.086.2a4,4,0,0,0,.863,1.327h0l.048.049.081.081.009.008h0l.008.007c.048.043.1.083.145.121l.042.034c.109.085.228.176.353.255h0l.063.04h0a5.905,5.905,0,0,0,1.732.671h0l.049.012.051.012c.188.036.371.064.55.082a5.174,5.174,0,0,0,.523.026,3.925,3.925,0,0,0,.957-.116l.047-.012c.107-.028.209-.067.322-.109h0l.1-.041.011,0c.042-.017.083-.036.124-.056h0a.453.453,0,0,0,.052-.026l.028-.015a3.523,3.523,0,0,0,.384-.238,3.412,3.412,0,0,0,.349-.289,1.17,1.17,0,0,1,.125-.1l.036-.027,0,0,.061-.059a1.547,1.547,0,0,0,.117-.115.434.434,0,0,1,.236-.118.843.843,0,0,1,.094-.016c.043-.006.085-.008.126-.01.213-.012.429-.019.643-.026.024,0,.049,0,.074-.007.54-.042,1.076-.12,1.641-.214l.61-.107a.7.7,0,0,1,.5.045l.011.006h0a2.069,2.069,0,0,1,.7.6,4.425,4.425,0,0,0,.345.365,1.087,1.087,0,0,1,.359,1.475v0c-.143.465-.3.967-.5,1.574a8.562,8.562,0,0,0-.222,2.1l.008.214a8.246,8.246,0,0,0,.362,2.033c.61,1.957,1.337,3.9,2.04,5.784a1.9,1.9,0,0,0,.262.46l.126.16c.117.142.245.28.367.409h0a.554.554,0,0,0,.406.191h0a.536.536,0,0,0,.388-.181.6.6,0,0,0-.084-.814,3.134,3.134,0,0,1-.572-.879c-.043-.117-.085-.232-.127-.349l-.133-.367h0c-.5-1.36-1-2.776-1.495-4.209a8.436,8.436,0,0,1-.3-1.107l-.062-.365a7.626,7.626,0,0,1-.073-1.706.727.727,0,0,1-.007-.1c0-.017,0-.033,0-.049a.722.722,0,0,1,.024-.151l.01-.04v-.006q.029-.259.078-.521a8.42,8.42,0,0,1,.46-1.579c.04-.1.07-.2.1-.289l.03-.094c.015-.045.028-.091.039-.134l0-.008h0a2.488,2.488,0,0,0,.07-.637,2.028,2.028,0,0,0-.589-1.365,3.271,3.271,0,0,0-.253-.244,9.294,9.294,0,0,1-3.191-5.043,4.529,4.529,0,0,1,.085-2.426h0l0-.008c.037-.114.081-.225.128-.333s.092-.2.145-.3h0l.025-.048h0l.009-.016c.06-.1.122-.2.191-.3s.135-.187.207-.274h0l0,0c.066-.081.137-.155.209-.23.016-.017.031-.035.047-.051h0l.009-.007,0,0c.073-.071.149-.141.227-.207.024-.022.047-.043.072-.064.093-.078.189-.155.29-.228l0,0,.1-.074c.087-.065.179-.132.28-.194a10.105,10.105,0,0,1,3.924-1.29h0l.113-.017h0l.128-.018h.009a17.053,17.053,0,0,1,2.793-.2h0a17.881,17.881,0,0,1,2.8.2h0l.128.018h0l.117.017a12.609,12.609,0,0,1,2.241.516,8.227,8.227,0,0,1,1.682.776,3.064,3.064,0,0,1,.279.193l.089.065h0l.006,0h0l.006,0,.033.026c.136.1.26.2.373.305.062.055.126.111.182.167l.007.007.009.01.025.026c.086.087.162.171.233.255l0,0h0c.059.071.112.145.167.22l.052.07c.06.087.115.177.168.268l.02.034.017.03.009.019a4.2,4.2,0,0,1,.439,2.646c-.021.138-.045.278-.077.418a9.291,9.291,0,0,1-3.192,5.043,2.12,2.12,0,0,0-.772,2.24l0,.007h0v.008c.008.032.018.063.028.1l.011.041.032.1c.03.092.059.184.1.281a8.27,8.27,0,0,1,.54,2.1v.007l0,.012,0,.02a.87.87,0,0,1,.022.121l0,.025a.507.507,0,0,1-.006.091.605.605,0,0,1,0,.061,7.65,7.65,0,0,1-.077,1.74l-.059.331a8.219,8.219,0,0,1-.295,1.107c-.453,1.31-.911,2.6-1.363,3.846l-.432,1.168a3.419,3.419,0,0,1-.531.79.6.6,0,0,0-.084.814.536.536,0,0,0,.388.181h0a.553.553,0,0,0,.406-.191c.114-.121.245-.262.367-.409l.124-.163,0,0c.014-.019.023-.036.035-.054l.037-.049v-.007a1.778,1.778,0,0,0,.19-.352c.7-1.88,1.43-3.825,2.04-5.784a8.242,8.242,0,0,0,.362-2.033l.006-.212v0c0-.017,0-.035,0-.053l0-.083,0,0a8.635,8.635,0,0,0-.221-1.97v0c-.105-.327-.2-.624-.29-.9-.073-.23-.142-.451-.207-.666h0c-.032-.083-.059-.159-.08-.231a.947.947,0,0,1,.259-1.066c.053-.058.115-.117.182-.178a4.468,4.468,0,0,0,.345-.365,2.134,2.134,0,0,1,.7-.6h0l.01-.006a.665.665,0,0,1,.506-.045,22.366,22.366,0,0,0,2.325.328h0c.2.006.413.012.619.024h.021a.928.928,0,0,1,.366.076.3.3,0,0,1,.09.068,1.573,1.573,0,0,0,.117.115l.064.062,0,0,.029.019a1.347,1.347,0,0,1,.127.1,3.322,3.322,0,0,0,.735.528l.031.016.031.016.016.008h0c.075.037.149.067.222.1l.162.06.016.006c.05.017.1.031.143.044l.016,0h0l.049.012h0c.1.026.205.041.308.058a4.13,4.13,0,0,0,.65.058,5.541,5.541,0,0,0,1.07-.108l.052-.012.049-.012h0a5.891,5.891,0,0,0,1.733-.671l.062-.041a4.088,4.088,0,0,0,.357-.257h0l.036-.029c.053-.042.107-.085.156-.13h0c.033-.03.063-.06.093-.092l.048-.048a3.94,3.94,0,0,0,.5-.617,3.725,3.725,0,0,0,.2-.344c.061-.118.117-.239.167-.365.027-.068.058-.135.087-.2l.069-.174c.036-.1.071-.2.1-.312a1.289,1.289,0,0,1,.254-.456c.093-.12.179-.245.264-.371l.115-.174c.049-.079.1-.158.149-.236a9.96,9.96,0,0,0,.719-1.327h0l.027-.061.044-.1.008-.018h0l0-.01c.056-.135.105-.27.154-.406h0c.043-.128.087-.262.129-.4.015-.047.026-.1.04-.142.021-.076.044-.151.063-.227,0-.02.008-.042.012-.062.02-.092.04-.185.058-.277l.024-.116c.02-.12.038-.242.053-.362A6.775,6.775,0,0,0,1114.91,716.5Zm-42.037-1.707c.037-.114.079-.227.121-.339C1072.951,714.57,1072.91,714.683,1072.873,714.8Zm.152-.424a6.984,6.984,0,0,1,.37-.794h0A7.178,7.178,0,0,0,1073.025,714.373Zm8.1,9.9-.054-.065,0,.006.043.065-.041.035-.007.006h0l-.039.026c-.023.017-.045.034-.07.05-.041.026-.084.051-.132.077h0a2.192,2.192,0,0,1-.229.109h0c-.09.036-.178.069-.269.1h0l-.042.015h0l-.026.006c-.158.042-.3.075-.424.1-.084.019-.157.035-.213.051l-.011,0h-.014a6.093,6.093,0,0,1-1.1-.13h0l-.041-.006a3.389,3.389,0,0,1-2.325-1.546h0v0c-.029-.045-.058-.092-.086-.139l0,0-.027-.043c-.035-.067-.066-.129-.092-.189a1.816,1.816,0,0,1-.065-.175h0l-.008-.027,0-.017c-.009-.03-.016-.057-.022-.084a1.4,1.4,0,0,1-.027-.141,1.516,1.516,0,0,1,.243-1.144,1.614,1.614,0,0,1,.1-.133h0v0h0l0-.006.007-.008.014-.015.007-.008.006-.007c.025-.027.049-.054.077-.081h0a2.157,2.157,0,0,1,1.31-.577l.031,0,.083-.014c.121-.024.243-.048.363-.075l.011,0h.011a4.34,4.34,0,0,1,1.1.194,3.956,3.956,0,0,1,.4.13l.015.006c.1.04.2.09.3.139.031.015.064.027.094.043.053.029.1.065.154.1.074.044.149.085.219.135s.159.121.236.185c.037.031.077.058.115.09h0c.031.027.06.057.089.086l.1.092c.054.051.109.1.162.16a2.7,2.7,0,0,1,.474.755A1.57,1.57,0,0,1,1081.12,724.275Zm4.08-1.175.054.085-.017.007h0l.071.113-.661.071h0l-.01,0a4.612,4.612,0,0,1-.532.1l-.057.008c-.181.02-.37.029-.562.032-.042,0-.082,0-.124,0h-.009l-.607.066v-.1a4.46,4.46,0,0,0-.02-.488v0a4.529,4.529,0,0,0-1.211-2.406h0a4.516,4.516,0,0,0-.621-.463,5.261,5.261,0,0,0-2.032-.772,1.923,1.923,0,0,1-.221-.04c-.031-.007-.06-.018-.091-.027s-.077-.02-.115-.035h0c-.018,0-.047-.006-.079-.012l-.014,0-.052-.014c-.019-.006-.038-.009-.059-.017h0l-.009,0a.51.51,0,0,1-.114-.057l-.006,0c-.008-.006-.012-.016-.021-.022a.244.244,0,0,1-.062-.07l-.016-.029-.022-.042a1,1,0,0,1-.082-.091c-.023-.024-.047-.048-.067-.073s-.054-.077-.08-.117c-.015-.021-.032-.042-.045-.065-.028-.047-.052-.092-.077-.138l-.025-.045c-.031-.06-.058-.119-.083-.173a4.466,4.466,0,0,1-.3-.875,1.9,1.9,0,0,1,1.011-2.262h0a2.774,2.774,0,0,1,1.078-.278,6.507,6.507,0,0,1,2.133.255l.1.029.07.021.045.014c.1.032.2.063.3.1.222.073.4.138.573.205h0l.009,0,.007,0h0l.278.113c.107.045.212.091.316.139h0l.3.134.437.2.071.032-.027.074C1082.908,718.943,1084,721.229,1085.2,723.1Zm1.192-9.595-1.863,1.577-.016,0-.079.066-.361-.167c-.2-.092-.406-.188-.619-.283h0c-.313-.115-.6-.221-.887-.321-.184-.065-.364-.128-.542-.187-.2-.068-.408-.135-.615-.2-.06-.018-.121-.031-.183-.044-.035-.007-.071-.015-.106-.024h0a7.29,7.29,0,0,0-1.707-.144c-.11.008-.214.018-.313.029s-.193.025-.282.04a3.271,3.271,0,0,0-2.308,1.436,2.768,2.768,0,0,0-.156.289c-.04.087-.076.177-.108.268a3.452,3.452,0,0,0,.01,2.127,7.812,7.812,0,0,0,.359.906l.19.39-.024.017h0l-.04.044-1.887,1.4-.049-.07c-.024-.033-.044-.069-.066-.1s-.028-.05-.044-.074a6.318,6.318,0,0,1-.746-5.576c.053-.141.112-.281.178-.421l0-.009c.067-.138.14-.276.22-.412.017-.031.029-.056.044-.085a4.873,4.873,0,0,1,.353-.479v.009a5.2,5.2,0,0,1,.612-.664c.055-.049.11-.094.162-.138l.039-.032c.105-.086.2-.161.292-.228s.194-.139.3-.2h0a3.615,3.615,0,0,1,.367-.213l.036-.014h0c.167-.086.338-.166.515-.236a6.461,6.461,0,0,1,1.714-.423l.049,0,.036,0a9.084,9.084,0,0,1,3.906.446h0l.067.019.134.042h0c.209.069.417.143.627.221s.42.162.629.252c.119.05.236.1.353.155.35.16.7.337,1.1.54h0q.342.163.691.327l.119.054Zm17.7,10.011h0c-.042,0-.082,0-.122,0a5.518,5.518,0,0,1-.572-.032l-.032,0a5.1,5.1,0,0,1-.561-.1h-.008l-.655-.07.075-.116h0l.035-.088c1.2-1.871,2.292-4.157,1.274-6.923l-.027-.074.072-.032c.148-.066.295-.133.439-.2l.295-.133h0c.2-.093.4-.175.59-.25l0,0,.022-.009h0s0,0,.008,0c.158-.065.34-.129.564-.2h0c.112-.037.227-.074.34-.108l.006,0,.073-.021.1-.029h0a6.532,6.532,0,0,1,2.131-.255,2.792,2.792,0,0,1,1.08.278h0a1.831,1.831,0,0,1,1.066,1.89h0a2.768,2.768,0,0,1-.054.371,4.477,4.477,0,0,1-.3.875c-.024.054-.051.113-.082.173-.014.027-.032.056-.047.084s-.035.066-.055.1-.04.058-.059.086-.042.065-.067.1-.05.054-.075.083-.047.056-.074.081l-.037.071-.006.007a.249.249,0,0,1-.054.06c-.009.008-.014.018-.023.025l-.006.006a.6.6,0,0,1-.114.057l-.009,0h0c-.021.008-.04.011-.059.017s-.037.011-.053.015l-.011,0c-.034.007-.064.011-.082.014h0c-.048.017-.1.029-.143.043-.021.006-.041.014-.062.018a1.909,1.909,0,0,1-.22.04,4.572,4.572,0,0,0-1.382.42c-.163.077-.316.158-.455.237-.069.039-.135.078-.2.116a4.537,4.537,0,0,0-.623.464l0,0a4.439,4.439,0,0,0-1.134,2.059c-.03.114-.054.231-.075.349v0a4.651,4.651,0,0,0-.019.484l0,.1Zm7.574-1.162v0h0a1.672,1.672,0,0,1-.049.222v0a.263.263,0,0,1-.01.041,1.9,1.9,0,0,1-.151.348v0l-.012.025-.009.015-.023.037-.021.036c-.019.032-.037.061-.057.09v0a3.575,3.575,0,0,1-.205.294,3.354,3.354,0,0,1-1.751,1.166c-.12.034-.243.063-.369.086l-.026,0c-.185.039-.366.069-.551.091s-.372.036-.566.042h-.013l-.011,0c-.057-.016-.129-.032-.213-.051-.121-.027-.267-.059-.417-.1h0l-.033-.006a.184.184,0,0,1-.032-.011l-.051-.017c-.083-.027-.16-.054-.236-.085h0a1.926,1.926,0,0,1-.23-.11h0c-.049-.027-.093-.053-.135-.081s-.071-.049-.1-.074l-.043-.035-.011-.013h0a1.543,1.543,0,0,1-.482-1.624,2.036,2.036,0,0,1,.093-.263,2.688,2.688,0,0,1,.474-.755c.052-.057.108-.109.163-.16l.1-.093c.028-.029.058-.058.09-.085a3.842,3.842,0,0,1,1.116-.688,3.9,3.9,0,0,1,.412-.135h0a4.817,4.817,0,0,1,.555-.134,4.115,4.115,0,0,1,.543-.059h.011l.011,0c.12.027.242.051.364.075l.066.012h.007l.04,0a2.691,2.691,0,0,1,.753.2h0a2.038,2.038,0,0,1,.3.167c.024.016.042.037.065.055a1.7,1.7,0,0,1,.189.158l.008.008c.026.025.05.051.073.076l0,0,0,0,.014.016,0,0,.008.01,0,0A1.515,1.515,0,0,1,1111.669,722.354Zm1.09-1.878,0,0c-.014.022-.027.045-.042.07s-.042.071-.066.105l-.049.07-1.94-1.441.006-.012-.006,0,.024-.071.055-.1.012-.022,0,0,.086-.2a7.919,7.919,0,0,0,.357-.906,3.048,3.048,0,0,0-2.562-4.119c-.178-.03-.373-.052-.6-.069h0c-.085,0-.17,0-.255,0-.195,0-.39,0-.586.022a7.678,7.678,0,0,0-.854.122h-.011l-.105.024c-.061.014-.123.026-.183.044-.662.2-1.292.429-2.045.706h0c-.207.093-.417.19-.613.282l-.362.167-.079-.066-.016,0-1.963-1.661.009,0h0l.1-.067q.349-.163.692-.328c.534-.271.982-.494,1.456-.7.419-.178.839-.336,1.249-.469h0l.006,0h0c.05-.017.093-.029.136-.043l.067-.02a9.066,9.066,0,0,1,3.907-.446h0l.035,0,.049,0a6.336,6.336,0,0,1,2.089.593l.558.29-.014,0a5.312,5.312,0,0,1,.722.541c.092.084.18.168.261.251l0,0c.085.088.164.175.238.26l.037.044a6.28,6.28,0,0,1,.562.767A6.168,6.168,0,0,1,1112.759,720.476Z" transform="translate(-1072.245 -709.934)" fill="#74a839"/>
          <path id="Trazado_2996" data-name="Trazado 2996" d="M1097.095,739.965a.815.815,0,0,1-.6-.271.854.854,0,0,1,.076-1.191,3.1,3.1,0,0,0,.486-.72l.426-1.153c.453-1.243.911-2.531,1.362-3.841a7.974,7.974,0,0,0,.285-1.069l.058-.326a7.427,7.427,0,0,0,.075-1.67l0-.11a.536.536,0,0,0-.011-.137l-.017-.11a8,8,0,0,0-.519-2c-.036-.09-.065-.175-.092-.26l-.045-.145c-.024-.077-.035-.116-.044-.153l-.029-.06.023-.014a2.4,2.4,0,0,1,.867-2.46,9.024,9.024,0,0,0,3.1-4.891c.03-.134.054-.266.074-.4a3.92,3.92,0,0,0-.408-2.47l.213-.2-.254.129q-.077-.133-.16-.255l.184-.23-.231.166c-.05-.069-.1-.137-.153-.2l-.04-.06c-.029-.022-.1-.1-.181-.183l-.04-.041c-.052-.052-.11-.1-.169-.154-.11-.1-.227-.2-.356-.291l-.131-.1a3.036,3.036,0,0,0-.256-.178,7.93,7.93,0,0,0-1.627-.75,12.453,12.453,0,0,0-2.191-.5l-.293-.042a19.557,19.557,0,0,0-2.714-.188,16.672,16.672,0,0,0-2.71.187l-.183.026-.115.017a9.845,9.845,0,0,0-3.821,1.253c-.093.057-.176.119-.256.179l-.1.075c-.1.074-.192.146-.279.221l-.255-.154.186.213c-.071.063-.143.128-.211.2l-.062.048.009.009c-.068.07-.134.141-.2.215s-.137.173-.2.261-.121.185-.177.281c-.082.151-.126.244-.169.338s-.083.2-.117.305a4.258,4.258,0,0,0-.081,2.284,9.023,9.023,0,0,0,3.1,4.891,3.2,3.2,0,0,1,.275.265,2.291,2.291,0,0,1,.663,1.549,2.845,2.845,0,0,1-.075.709l-.026.071c0-.009,0,.028-.019.083l-.031.1c-.034.1-.066.205-.11.313a8.125,8.125,0,0,0-.443,1.524c-.031.168-.056.336-.076.5l-.018.08a.5.5,0,0,0-.014.094l.007.155a7.409,7.409,0,0,0,.072,1.643l.062.359a8.094,8.094,0,0,0,.284,1.063c.495,1.432,1,2.847,1.492,4.2l.261.717a2.875,2.875,0,0,0,.523.794.854.854,0,0,1,.076,1.189.814.814,0,0,1-.6.272.834.834,0,0,1-.618-.281c-.125-.13-.257-.273-.378-.421l-.13-.164a2.155,2.155,0,0,1-.305-.536c-.709-1.9-1.436-3.841-2.045-5.8a8.536,8.536,0,0,1-.375-2.1l-.008-.218a8.962,8.962,0,0,1,.228-2.173c.2-.61.354-1.1.493-1.552l.021-.066a.822.822,0,0,0-.285-1.161,5,5,0,0,1-.369-.389,2.167,2.167,0,0,0-.542-.5h-.058l-.052-.051a.492.492,0,0,0-.3-.006l-.614.107c-.671.113-1.185.18-1.665.218l-.089.009c-.213.006-.424.013-.636.024-.033,0-.068,0-.1.009l-.073.011a.214.214,0,0,0-.084.031c-.039.042-.079.082-.119.119l-.143.124a.985.985,0,0,0-.1.078,3.616,3.616,0,0,1-.375.311,3.755,3.755,0,0,1-.416.257l-.153.076c-.026.013-.053.023-.079.034l-.116.048c-.146.054-.248.092-.356.12a6.152,6.152,0,0,1-1.1.137,5.16,5.16,0,0,1-.522-.027c-.188-.019-.381-.048-.576-.086l-.3-.074a6.014,6.014,0,0,1-1.618-.657h-.2v-.134c-.086-.059-.169-.122-.245-.184l-.069-.054c-.045-.037-.091-.074-.135-.115l-.026-.025c-.039-.035-.062-.06-.087-.085a4.365,4.365,0,0,1-.969-1.465l-.158-.375c-.048-.136-.083-.238-.11-.348a1.051,1.051,0,0,0-.2-.348c-.088-.116-.17-.232-.25-.35l-.294-.454a10.313,10.313,0,0,1-.718-1.314l-.052-.119-.074-.173c-.05-.121-.1-.245-.138-.367l-.029-.06,0-.018c-.038-.111-.076-.229-.112-.348l-.033-.121c-.036-.125-.056-.19-.073-.259l-.1-.463a7.317,7.317,0,0,1-.094-.762c-.009-.13-.014-.254-.016-.379a7.09,7.09,0,0,1,.22-1.869c.041-.16.087-.318.137-.472.036-.113.077-.226.119-.336l.01-.026.025-.071c.058-.147.12-.294.189-.439h0c.045-.094.092-.189.142-.283l0-.007.143-.256a6.018,6.018,0,0,1,.982-1.275,7.28,7.28,0,0,1,.762-.637l.014-.013a4.521,4.521,0,0,1,.906-.545.736.736,0,0,1,.092-.05c.034-.019.082-.041.129-.064.074-.033.126-.054.178-.075l.287-.125.008.006a8.768,8.768,0,0,1,1.438-.415c.128-.026.258-.047.392-.068a9.989,9.989,0,0,1,1.052-.094,11.409,11.409,0,0,1,2.257.191q.338.063.681.146a14.942,14.942,0,0,1,2.081.684l.117.049c.107.043.217.089.325.138l.075.039,0,0c.558.254,1.11.559,1.6.829.25.138.5.277.754.408l.153.09c.05.024.079.037.1.045l.113.032a.574.574,0,0,0,.232,0,20.132,20.132,0,0,1,11.528,0,.558.558,0,0,0,.213,0l.078-.011a1.235,1.235,0,0,0,.155-.066l.154-.093c.253-.133.5-.27.754-.408.521-.287,1.054-.581,1.6-.829l.082-.035c.107-.049.214-.093.324-.138l.112-.047a14.208,14.208,0,0,1,2.765-.831,11.11,11.11,0,0,1,2.25-.191,9.094,9.094,0,0,1,1.453.162c.167.033.333.07.5.112.251.065.495.142.733.226l.015,0a3.634,3.634,0,0,1,.545.209l-.036-.071.828.49c.036.021.07.043.1.067l.169.112c.138.092.222.148.3.209l.07.056a6.087,6.087,0,0,1,.979.939l.009,0,.145.187a5.891,5.891,0,0,1,.764,1.3,8.241,8.241,0,0,1,.435,1.25c.054.217.1.431.134.649.011.071.019.145.026.219l.024.214c.009.074.018.147.023.222a7.233,7.233,0,0,1-.038,1.32c-.017.126-.035.25-.057.375l-.084.4c-.027.127-.044.185-.06.243l-.305.034.273.075-.028.105c-.042.137-.087.275-.133.406s-.1.282-.16.422l-.076.176a10.414,10.414,0,0,1-.752,1.392l-.266.413c-.107.158-.188.274-.276.388a1.064,1.064,0,0,0-.2.352c-.031.118-.067.226-.108.338l-.073.183c-.033.075-.061.138-.089.2a3.87,3.87,0,0,1-.178.391c-.066.124-.136.248-.213.366a4.288,4.288,0,0,1-.531.66c-.082.082-.116.118-.154.152s-.1.082-.144.121l-.066.052a4.529,4.529,0,0,1-.379.274l-.062.04a5.979,5.979,0,0,1-1.6.654v.061h-.285a6.382,6.382,0,0,1-1.173.132,4.476,4.476,0,0,1-.692-.061l-.071-.013a2.458,2.458,0,0,1-.263-.051l-.069-.018c-.057-.016-.111-.033-.166-.052l-.2-.076c-.069-.028-.137-.056-.207-.09l-.077-.04a3.654,3.654,0,0,1-.824-.585.987.987,0,0,0-.1-.076l-.066-.051.175-.226-.233.169c-.06-.055-.1-.092-.137-.133a.613.613,0,0,0-.261-.053c-.224-.011-.43-.018-.633-.024a22.545,22.545,0,0,1-2.37-.333c-.163-.031-.238-.032-.294,0l-.055.056h-.056a2.2,2.2,0,0,0-.545.5,5.108,5.108,0,0,1-.37.39c-.061.056-.117.109-.167.161a.677.677,0,0,0-.193.791c.016.049.033.1.053.154l.04.112c.062.2.126.409.2.627l.305.99a8.21,8.21,0,0,1,.207,1.451l.028-.018-.02.895a8.445,8.445,0,0,1-.375,2.109c-.616,1.98-1.343,3.922-2.045,5.8a1.818,1.818,0,0,1-.171.334v.02l-.641.844v-.078l0,0A.828.828,0,0,1,1097.095,739.965Zm2.706-10.645a1.085,1.085,0,0,1,.031.184.651.651,0,0,1,0,.141.932.932,0,0,1-.007.107,7.368,7.368,0,0,1-.078,1.737l-.059.337a9.159,9.159,0,0,1-.306,1.149c-.453,1.313-.913,2.6-1.365,3.851l-.433,1.17a3.675,3.675,0,0,1-.579.874c-.238.281-.128.4-.092.44a.26.26,0,0,0,.38-.01c.115-.12.24-.255.358-.4l.181-.247a1.427,1.427,0,0,0,.159-.29c.7-1.872,1.423-3.807,2.035-5.772a7.891,7.891,0,0,0,.349-1.962l.006-.336a8.336,8.336,0,0,0-.214-1.906l-.286-.883-.187-.6-.033-.033v-.066c-.026-.07-.049-.137-.068-.2a1.23,1.23,0,0,1,.322-1.341c.06-.063.126-.128.2-.194.109-.1.217-.223.322-.342a2.536,2.536,0,0,1,.746-.652l.085-.037a.862.862,0,0,1,.645-.056,22.522,22.522,0,0,0,2.3.325c.2,0,.406.011.617.021a1.258,1.258,0,0,1,.5.109.536.536,0,0,1,.176.138c.02.022.05.048.079.076l.062.058a2.1,2.1,0,0,1,.178.142,3.049,3.049,0,0,0,.675.487l.075.038c.061.032.121.054.183.08l.166.06c.062.023.1.035.143.047a2.592,2.592,0,0,0,.272.057l.073.013a2.327,2.327,0,0,0,.616.053,5.264,5.264,0,0,0,.938-.09l.158-.037a5.561,5.561,0,0,0,1.649-.636l.059-.036c.118-.076.23-.162.334-.243s.135-.109.172-.144.06-.057.084-.082l.051-.051a3.754,3.754,0,0,0,.459-.572c.067-.1.129-.21.186-.32s.108-.223.154-.339c.031-.074.061-.143.093-.213l.064-.161c.031-.088.063-.178.089-.278a1.542,1.542,0,0,1,.3-.56c.081-.1.154-.212.231-.322l.281-.438a9.66,9.66,0,0,0,.7-1.288l.114-.265c.045-.113.08-.214.117-.315.042-.121.085-.253.125-.386l.058-.205c.015-.049.028-.1.04-.145l.092-.447c.019-.11.037-.227.051-.342a6.573,6.573,0,0,0,.038-1.213c0-.062-.013-.125-.021-.187l-.025-.229c-.007-.062-.013-.125-.023-.186-.032-.2-.073-.4-.122-.6a7.179,7.179,0,0,0-.4-1.143,5.362,5.362,0,0,0-.7-1.2l-.061-.075a5.7,5.7,0,0,0-.973-.952l-.063-.051c-.072-.054-.147-.1-.222-.154l-.3-.193a6.468,6.468,0,0,0-.888-.462l-.323-.115c-.234-.083-.475-.16-.725-.224-.154-.04-.308-.076-.466-.107a8.5,8.5,0,0,0-1.357-.151,10.059,10.059,0,0,0-2.128.181,13.633,13.633,0,0,0-2.653.8l-.111.045c-.1.043-.206.087-.311.134l-.077.033c-.524.239-1.048.527-1.555.806-.253.14-.5.277-.753.408l-.145.086a1.046,1.046,0,0,1-.27.112,1.087,1.087,0,0,1-.111.028l-.091.013a.7.7,0,0,1-.158.016h0a.916.916,0,0,1-.266-.035,19.547,19.547,0,0,0-11.206,0,1.138,1.138,0,0,1-.469.014l-.161-.037a1.2,1.2,0,0,1-.138-.048,1.089,1.089,0,0,1-.134-.068l-.134-.079c-.244-.127-.5-.268-.754-.408-.478-.264-1.022-.564-1.559-.809l-.077-.034c-.1-.045-.2-.088-.306-.13l-.117-.049a14.019,14.019,0,0,0-2-.655c-.217-.053-.432-.1-.65-.141a10.33,10.33,0,0,0-2.134-.181,9.18,9.18,0,0,0-.987.087c-.122.019-.247.041-.365.063a8.271,8.271,0,0,0-1.478.44l-.286.118c-.062.03-.1.044-.131.064l-.1.052a5.342,5.342,0,0,0-.687.395v0l-.121.09a5.606,5.606,0,0,0-.682.569l-.254-.158.188.211a5.512,5.512,0,0,0-.855,1.117l-.056-.021.036.051-.069.129a6.7,6.7,0,0,0-.354.761h0l-.023.066-.007.015h0c-.034.092-.068.182-.1.273l-.016.053c-.048.145-.091.29-.129.439a6.472,6.472,0,0,0-.2,1.718c0,.115.007.233.014.35.018.228.045.46.087.692l.078.386c.026.111.043.168.06.226l.048.171c.042.138.085.271.128.4l.016.049c.047.13.088.238.134.345l.078.185a10.036,10.036,0,0,0,.7,1.289l.262.407c.1.14.171.248.253.354a1.524,1.524,0,0,1,.3.559,2.671,2.671,0,0,0,.084.266l.16.382a3.728,3.728,0,0,0,.8,1.235l.119.119c.056.05.092.078.128.109l-.115.271.175-.222c.082.064.172.131.264.2h.2v.125a5.653,5.653,0,0,0,1.577.593l.167.04c.146.026.3.048.45.062a3.279,3.279,0,0,0,.491.025,3.626,3.626,0,0,0,.89-.107,3.073,3.073,0,0,0,.32-.105l.112-.045c.05-.019.084-.036.119-.053l.078-.028,0-.009a3.429,3.429,0,0,0,.352-.219,3.222,3.222,0,0,0,.319-.264,1.809,1.809,0,0,1,.152-.121l.074-.065a1.339,1.339,0,0,0,.1-.1.707.707,0,0,1,.389-.2,1.051,1.051,0,0,1,.126-.021c.041-.006.091-.009.137-.012.217-.011.433-.018.651-.024.523-.043,1.019-.109,1.674-.218l.611-.107a.959.959,0,0,1,.68.071,2.291,2.291,0,0,1,.794.674,4.475,4.475,0,0,0,.323.342,1.339,1.339,0,0,1,.452,1.737l-.017.045c-.143.464-.3.966-.5,1.569a8.264,8.264,0,0,0-.208,2l.008.21a7.925,7.925,0,0,0,.349,1.958c.605,1.945,1.329,3.881,2.029,5.755a1.628,1.628,0,0,0,.23.406l.12.154c.109.13.234.264.352.389a.258.258,0,0,0,.383.011c.035-.037.145-.158-.093-.439a3.4,3.4,0,0,1-.62-.963l-.262-.719c-.5-1.361-1-2.778-1.5-4.213a8.84,8.84,0,0,1-.3-1.144l-.064-.372a8.02,8.02,0,0,1-.077-1.775l0,.008a.376.376,0,0,1,0-.062l0-.093a.97.97,0,0,1,.031-.2c.024-.184.052-.364.085-.544a8.83,8.83,0,0,1,.475-1.632c.038-.1.067-.184.094-.271l.028-.091c.015-.048.025-.08.033-.113a2.183,2.183,0,0,0,.065-.576,1.75,1.75,0,0,0-.513-1.18,2.706,2.706,0,0,0-.23-.224,9.566,9.566,0,0,1-3.281-5.2,4.791,4.791,0,0,1,.093-2.574c.044-.13.088-.251.141-.366s.1-.216.155-.321l.04-.068c.061-.11.13-.217.2-.322s.145-.2.224-.295.15-.171.227-.252l.114-.117q.092-.087.187-.17l.259.151-.183-.216q.148-.124.306-.241l.107-.078a3.2,3.2,0,0,1,.3-.206,10.365,10.365,0,0,1,4.029-1.329l.254-.036a16.528,16.528,0,0,1,2.84-.2,19.019,19.019,0,0,1,2.841.2l.246.034a12.954,12.954,0,0,1,2.291.53,8.334,8.334,0,0,1,1.738.8c.107.063.2.133.295.2l.092.068c.192.144.32.25.441.358.056.049.111.1.164.149l.062.065c.1.1.182.191.257.279s.127.164.184.244l.058.077c.062.093.12.187.177.284l.045.08a4.482,4.482,0,0,1,.475,2.832c-.022.145-.048.291-.081.438a9.566,9.566,0,0,1-3.282,5.2,1.842,1.842,0,0,0-.683,1.963l.017.048-.007.029.015.013.044.143c.034.107.059.179.09.258A8.551,8.551,0,0,1,1099.8,729.32Zm-18.725-3.822.083.087-.083-.154Zm4.68-9.994.164.158-.045-.091Zm-12.185-1.989.047.028.015-.006Zm34.293,11.663-.058-.013c-.044-.013-.093-.024-.149-.036l-.09-.019c-.119-.027-.256-.059-.4-.1l-.105-.032c-.113-.037-.2-.066-.275-.1l-.059-.026a2.085,2.085,0,0,1-.208-.1l-.034-.019c-.042-.024-.081-.046-.116-.07s-.085-.057-.123-.085l-.054-.047a1.842,1.842,0,0,1-.584-1.925,2.451,2.451,0,0,1,.108-.305,2.953,2.953,0,0,1,.525-.832c.058-.062.118-.12.179-.175l.089-.088c.028-.028.062-.061.1-.094a4.149,4.149,0,0,1,1.2-.739,3.859,3.859,0,0,1,.441-.146l.023-.007a4.673,4.673,0,0,1,.56-.133,4.721,4.721,0,0,1,.581-.065h.034l.044.007c.136.032.255.054.373.078l.019.293.07-.28a3.014,3.014,0,0,1,.837.221l.169.083c.063.034.122.071.18.11l.067.053a2.01,2.01,0,0,1,.231.2h.015l.145.179a1.8,1.8,0,0,1,.381,1.472h0a1.67,1.67,0,0,1-.044.221l-.025.092,0,.008,0,.007a2.133,2.133,0,0,1-.155.357l-.047.085-.009,0,0,0-.006-.007-.256-.086.151.1h.07l.017.057-.017.026v.035l-.084.085a1.824,1.824,0,0,1-.182.267,3.61,3.61,0,0,1-1.9,1.264,3.947,3.947,0,0,1-.4.093c-.211.044-.4.075-.594.1s-.387.039-.587.044Zm-.688-.758.043.015.077.027c.159.041.286.069.4.094l.027.3.062-.277c.066.016.123.028.171.041.125-.013.3-.025.479-.047s.351-.05.526-.086a3.651,3.651,0,0,0,.375-.086,3.059,3.059,0,0,0,1.607-1.067c.051-.066.1-.135.146-.205v0l.1-.145.028.007v-.094l.053-.054a1.661,1.661,0,0,0,.11-.262l.011-.039h0a1.309,1.309,0,0,0,.04-.185v-.024l0,.013a1.239,1.239,0,0,0-.236-.988h-.152v-.17a1.206,1.206,0,0,0-.158-.13l-.057-.049a1.7,1.7,0,0,0-.2-.116h-.221V720.8a2.642,2.642,0,0,0-.506-.111l-.077-.3-.053.278c-.125-.024-.25-.049-.374-.076-.112.01-.282.029-.453.059a4.365,4.365,0,0,0-.518.126l-.049.013c-.118.034-.233.073-.346.117a3.549,3.549,0,0,0-1.034.637c-.024.022-.048.043-.072.069l-.1.1c-.057.052-.107.1-.153.149a2.393,2.393,0,0,0-.422.675,1.5,1.5,0,0,0-.079.229,1.258,1.258,0,0,0,.392,1.331.95.95,0,0,0,.129.1,1.345,1.345,0,0,0,.116.069l.036.02c.036.019.075.037.117.056h.226Zm4.131-1.415.163.041-.062-.041Zm-31.675,2.172a6.287,6.287,0,0,1-1.169-.137l-.023,0a3.677,3.677,0,0,1-2.528-1.676l-.129-.211c-.039-.073-.072-.141-.1-.205s-.054-.135-.076-.2l-.041-.163a1.385,1.385,0,0,1-.03-.154,1.81,1.81,0,0,1,.289-1.347c.018-.024.036-.05.054-.073v-.183h.158a.548.548,0,0,1,.052-.051,2.418,2.418,0,0,1,1.467-.653l.1-.014c.113-.023.231-.045.347-.073l.076-.01a4.776,4.776,0,0,1,1.2.206,3.741,3.741,0,0,1,.417.14,3.646,3.646,0,0,1,.338.155l.1.047c.042.022.081.048.118.071l-.052.3.143-.245c.065.037.129.077.192.119s.147.11.217.168l-.09.29.172-.225.074.059c.041.036.075.07.109.1l.088.084c.058.054.117.111.174.174a2.942,2.942,0,0,1,.526.835,1.86,1.86,0,0,1-.286,2.046l.009.015-.406.34-.014-.015c-.036.023-.073.043-.109.064l-.067.036c-.044.021-.091.044-.139.065l-.045.044h-.065c-.073.028-.144.053-.218.077l-.155.036a3.668,3.668,0,0,1-.374.1c-.126.027-.175.039-.214.05Zm-1.051-.691a5.652,5.652,0,0,0,1.018.122l.141-.033c.185-.041.32-.07.466-.111l.072-.022c.079-.024.155-.052.232-.083l.01,0a1.642,1.642,0,0,0,.194-.092l.263-.168,0-.007a1.281,1.281,0,0,0,.31-1.559,2.385,2.385,0,0,0-.422-.674c-.048-.052-.1-.1-.147-.145l-.1-.094c-.032-.034-.056-.057-.081-.081l-.107-.082c-.1-.079-.155-.128-.218-.171s-.1-.065-.154-.1l-.113-.069c-.025-.016-.05-.034-.078-.049l.04-.293-.128.252c-.091-.045-.181-.091-.276-.128a3.81,3.81,0,0,0-.379-.126,4.131,4.131,0,0,0-1.038-.185,2.952,2.952,0,0,1-.321.073l-.087.016a1.918,1.918,0,0,0-1.185.5l-.2.263-.014,0a1.236,1.236,0,0,0-.176.9c.007.044.015.082.023.12l.025.1a1.084,1.084,0,0,0,.059.16c.023.052.05.109.083.171l.017.034h0l.082.129a3.12,3.12,0,0,0,2.143,1.428l.05.01Zm2.449-.326.06.077,0,0Zm1.456-.229.009-.417c0-.122,0-.253-.014-.4l-.007-.082a4.241,4.241,0,0,0-1.123-2.2,4.111,4.111,0,0,0-.576-.429,4.992,4.992,0,0,0-1.918-.732,1.785,1.785,0,0,1-.255-.047l-.076-.021.053-.28-.113.248h0l-.006.011a.638.638,0,0,1-.061-.019c-.024,0-.047-.007-.068-.01l-.186-.028-.044-.042a.668.668,0,0,1-.12-.066l-.083-.077a.342.342,0,0,1-.107-.133.3.3,0,0,0-.054-.073l-.1-.11c-.032-.043-.059-.084-.088-.127l-.058-.084c-.026-.043-.051-.09-.075-.135l-.036-.068c-.033-.061-.062-.126-.089-.187a4.611,4.611,0,0,1-.321-.929,2.172,2.172,0,0,1,1-2.5v-.11h.218a3.155,3.155,0,0,1,1.129-.279,6.859,6.859,0,0,1,2.225.267l.181.052c.152.047.255.079.358.115.226.074.413.141.586.21l.3.125c.1.041.2.084.3.132l1.07.48-.117.322c-.978,2.651.08,4.86,1.243,6.673l.247.381-.019.008.128.2-1.115.121a4.428,4.428,0,0,1-.543.1l-.073.01c-.176.019-.374.03-.577.032h-.135Zm.544-.991.011.068c.009.1.015.2.017.29l.4-.034c.236,0,.414-.011.587-.031a4.933,4.933,0,0,0,.551-.1l.26-.031-.015-.024.017-.007c-1.158-1.849-2.147-4.088-1.229-6.787l-.574-.26c-.1-.048-.2-.091-.3-.133l-.276-.113c-.18-.073-.359-.137-.575-.207-.1-.035-.2-.065-.3-.094l-.212-.064a6.13,6.13,0,0,0-2.042-.246,2.605,2.605,0,0,0-.811.178v.1h-.219a1.607,1.607,0,0,0-.8,1.92,4.225,4.225,0,0,0,.285.82c.021.051.048.1.075.159.05.094.07.129.092.164l-.2.214.243-.148a.916.916,0,0,0,.065.093l-.16.245.212-.189.287.287.007-.024.308.081c.06.014.12.025.184.033a5.526,5.526,0,0,1,2.149.812,4.586,4.586,0,0,1,.577.421h.053l.084.135A4.7,4.7,0,0,1,1083.029,722.941Zm-4.682-3.794-.007.115.054-.162Zm26.682,4.784-.983-.1a6.272,6.272,0,0,1-.646-.035,5.433,5.433,0,0,1-.629-.111l-1.081-.116.332-.542c1.188-1.861,2.246-4.071,1.27-6.721l-.118-.323,1.044-.468c.164-.076.333-.146.493-.213l.007-.025.173-.044c.128-.054.314-.121.544-.2.113-.039.23-.075.347-.111l.192-.051v0a7.14,7.14,0,0,1,2.22-.267,3.116,3.116,0,0,1,1.19.307c.041.018.082.039.121.059l.037.022a2.115,2.115,0,0,1,1.067,2.088,2.8,2.8,0,0,1-.06.412,4.605,4.605,0,0,1-.323.93c-.024.058-.052.12-.085.184l-.035.065c-.041.075-.059.109-.082.144l-.051.076c-.05.074-.069.1-.091.129l-.061.069-.237-.161.185.218-.025.03-.067.105a.577.577,0,0,1-.07.074l-.06.054a.908.908,0,0,1-.18.092l-.06.03-.025,0-.075.02-.086.016c-.035.011-.072.022-.108.032-.054.017-.079.025-.105.031a2,2,0,0,1-.247.043,4.214,4.214,0,0,0-1.293.4c-.157.073-.3.15-.434.226-.069.039-.131.075-.188.111a4.131,4.131,0,0,0-.584.436l-.009.008a4.189,4.189,0,0,0-1.041,1.91c-.027.108-.05.218-.07.33v0c-.011.168-.017.3-.013.429Zm-.871-.663.3.032c0-.091.008-.186.017-.288l.021-.115c.018-.1.04-.189.062-.282a4.763,4.763,0,0,1,1.208-2.19l.1-.084a4.578,4.578,0,0,1,.579-.424q.1-.06.207-.122c.141-.081.3-.163.472-.244a4.766,4.766,0,0,1,1.468-.446,1.605,1.605,0,0,0,.187-.034l.157.248-.085-.235.016-.016-.006-.023.039-.01.026-.026.306-.082.085-.128.265.128-.212-.187.287.1-.222-.175.146-.226.3.035-.254-.126c.027-.057.052-.11.075-.161a4.1,4.1,0,0,0,.286-.82,2.359,2.359,0,0,0,.05-.333,1.547,1.547,0,0,0-.848-1.588h-.219v-.1a2.625,2.625,0,0,0-.815-.178,6.42,6.42,0,0,0-2.037.246l-.075.01v-.115l-.105-.139.083.271-.114.035c-.1.03-.2.061-.3.1-.207.067-.379.128-.527.187l-.055.022c-.185.076-.382.155-.576.246l-.569.259c.922,2.712-.081,4.959-1.247,6.814l.221.024a5.323,5.323,0,0,0,.573.1,5.1,5.1,0,0,0,.57.034Zm-29.339-2.108-.217-.308a1.256,1.256,0,0,1-.068-.11l.192-.231-.234.162a6.653,6.653,0,0,1-.778-5.836c.054-.148.118-.295.186-.442l.027-.05c.07-.147.138-.272.211-.4l.049-.092a5.2,5.2,0,0,1,.375-.509l.5-.6v.044c.044-.045.09-.087.136-.131l.127-.108h-.105l.8-.522a4.424,4.424,0,0,1,.4-.231l.091-.033a4,4,0,0,1,.48-.226,6.8,6.8,0,0,1,1.793-.442l.115.276-.035-.281a9.419,9.419,0,0,1,4.028.457l.209.065c.208.068.422.143.635.223s.427.166.641.255c.122.053.241.105.361.161.348.159.7.335,1.1.536l.034.016c.218.106.44.211.664.315l.5.228-.424.4-1.988,1.685-.016-.007-.093.077-.524-.24c-.2-.093-.4-.189-.616-.284-.295-.108-.585-.213-.867-.313-.182-.065-.36-.127-.536-.185-.2-.068-.4-.134-.608-.195a1.343,1.343,0,0,0-.135-.033l-.142-.033a6.865,6.865,0,0,0-1.629-.135c-.1.007-.2.017-.292.026s-.182.025-.267.04a2.985,2.985,0,0,0-2.113,1.3,1.942,1.942,0,0,0-.139.259c-.038.082-.069.161-.1.243a3.179,3.179,0,0,0,.014,1.952,7.457,7.457,0,0,0,.347.874l.294.6-.257.192Zm-.411-6.511c-.06.128-.115.255-.162.383a6.057,6.057,0,0,0,.713,5.317h0l1.524-1.133-.092-.188a7.847,7.847,0,0,1-.376-.949,3.727,3.727,0,0,1-.007-2.3,2.975,2.975,0,0,1,.119-.3,3.063,3.063,0,0,1,.172-.32,3.553,3.553,0,0,1,2.5-1.564c.094-.016.192-.031.294-.043s.213-.021.328-.029a7.609,7.609,0,0,1,1.783.148l.112.025c.087.019.149.033.209.051.206.062.413.129.62.2.178.059.361.122.547.189.282.1.575.206.889.322.234.1.444.2.643.294l.2.091.066-.056.015,0,1.517-1.284c-.122-.057-.242-.115-.362-.171h-.219v-.11c-.341-.171-.64-.32-.939-.456-.117-.054-.231-.1-.347-.154-.2-.086-.41-.169-.617-.246s-.41-.15-.616-.215l-.267-.084a8.753,8.753,0,0,0-3.72-.413l-.074,0a6.192,6.192,0,0,0-1.656.4,5.2,5.2,0,0,0-.487.225l-.068.025c-.032.017-.086.048-.155.088l-.162.1c-.09.056-.175.117-.261.179-.105.077-.2.15-.3.231l-.2.163a4.894,4.894,0,0,0-.575.625l-.285.37c-.018.026-.035.053-.053.082l-.04.076c-.076.128-.146.259-.208.39Zm38.287,6.51-2.346-1.745.263-.624a7.386,7.386,0,0,0,.347-.875,2.768,2.768,0,0,0-2.339-3.757c-.169-.028-.355-.049-.568-.066-.075,0-.154,0-.235,0-.19,0-.378,0-.565.02a7.108,7.108,0,0,0-.821.118l-.116.025a1.413,1.413,0,0,0-.157.039c-.647.195-1.269.42-2.01.692l-1.144.526-2.563-2.152.507-.213.725-.347c.5-.249.971-.49,1.467-.7.433-.183.862-.342,1.272-.477l.156-.048a9.491,9.491,0,0,1,4.084-.475l.051.287.031-.282a6.692,6.692,0,0,1,2.179.62l1.283.666-.163.033c.073.059.143.119.213.181.1.088.193.177.278.266s.171.183.249.271a6.871,6.871,0,0,1,.627.848,6.465,6.465,0,0,1-.326,6.609v.2h-.123l-.034.053Zm-1.653-1.937,1.515,1.128h0l.081-.12a5.873,5.873,0,0,0,.277-5.95,6.08,6.08,0,0,0-.533-.725c-.107-.124-.183-.206-.264-.29s-.162-.161-.25-.239a5.09,5.09,0,0,0-.682-.513l-.084-.052-.442-.23a6.076,6.076,0,0,0-1.988-.562h0l-.086,0a8.772,8.772,0,0,0-3.787.433l-.2.062q-.609.2-1.236.464c-.481.2-.946.439-1.44.688l-.425.2,1.592,1.337.279-.128c.161-.076.33-.153.5-.229l.067-.03c.76-.28,1.394-.509,2.059-.711.059-.017.119-.031.178-.044l.193-.036a6.553,6.553,0,0,1,.84-.122c.247-.022.488-.023.739-.024l.138,0a6.251,6.251,0,0,1,.633.074,3.327,3.327,0,0,1,2.787,4.48,7.8,7.8,0,0,1-.37.938Z" transform="translate(-1072.278 -709.967)" fill="#74a839"/>
        </g>
        <g id="Grupo_1691" data-name="Grupo 1691" transform="translate(20.212 28.804)">
          <path id="Trazado_2997" data-name="Trazado 2997" d="M1091.731,735.62l-.262,0h-.262l-.262,0a.533.533,0,0,0-.592.506.524.524,0,0,0,.146.4.563.563,0,0,0,.427.16c.117,0,.234,0,.35,0h.121c.116,0,.234,0,.35,0a.552.552,0,0,0,.428-.159.539.539,0,0,0-.446-.906Z" transform="translate(-1090.069 -735.334)" fill="#74a839"/>
          <path id="Trazado_2998" data-name="Trazado 2998" d="M1091.813,737c-.084,0-.154,0-.231,0h-.27c-.117,0-.231,0-.346,0a.863.863,0,0,1-.636-.245.809.809,0,0,1-.227-.61.817.817,0,0,1,.871-.777l.395,0,.4,0a.821.821,0,0,1,.644,1.387A.826.826,0,0,1,1091.813,737Zm-.647-.57h.146l.12.283,0-.283h.358a.244.244,0,0,0,.285-.263c-.007-.152-.111-.231-.313-.235l-.391,0-.387,0c-.2,0-.305.083-.312.236a.25.25,0,0,0,.065.188.416.416,0,0,0,.218.074Z" transform="translate(-1090.102 -735.368)" fill="#74a839"/>
        </g>
      </g>
    </g>
  </g>
</svg>
