<svg xmlns="http://www.w3.org/2000/svg" xmlns:xlink="http://www.w3.org/1999/xlink" width="227" height="216" viewBox="0 0 227 216">
  <defs>
    <filter id="Image" x="0" y="0" width="227" height="216" filterUnits="userSpaceOnUse">
      <feOffset dy="5" input="SourceAlpha"/>
      <feGaussianBlur stdDeviation="2.5" result="blur"/>
      <feFlood flood-opacity="0.161"/>
      <feComposite operator="in" in2="blur"/>
      <feComposite in="SourceGraphic"/>
    </filter>
  </defs>
  <g id="Grupo_455" data-name="Grupo 455" transform="translate(-498.072 -3328.518)">
    <g transform="matrix(1, 0, 0, 1, 498.07, 3328.52)" filter="url(#Image)">
      <g id="Image-2" data-name="Image" transform="translate(7.5 2.5)" fill="#fff" stroke="#a2e2ff" stroke-width="6">
        <rect width="212" height="201" rx="100.5" stroke="none"/>
        <rect x="3" y="3" width="206" height="195" rx="97.5" fill="none"/>
      </g>
    </g>
    <g id="Grupo_1527" data-name="Grupo 1527" transform="translate(-1407.567 2979.41)">
      <g id="Grupo_1511" data-name="Grupo 1511" transform="translate(1982.507 396.598)">
        <g id="Grupo_1510" data-name="Grupo 1510">
          <path id="Trazado_2890" data-name="Trazado 2890" d="M1992.579,506.1a1.389,1.389,0,0,1-1.389-1.388c0-2.62-1.792-5.565-3.691-8.683a37.892,37.892,0,0,1-4.593-9.469c-2.781-10.2.875-16.333,3.815-21.26l.475-.8c.8-1.355,1.664-2.658,2.5-3.917,2.364-3.566,4.809-7.253,6.168-12.687,3.575-14.3-5.46-48.958-5.552-49.305a1.389,1.389,0,0,1,2.687-.708c.381,1.451,9.305,35.7,5.559,50.687-1.474,5.895-4.053,9.785-6.547,13.547-.852,1.287-1.658,2.5-2.422,3.8l-.481.809c-2.808,4.708-5.99,10.045-3.518,19.108a35.18,35.18,0,0,0,4.285,8.754c2.107,3.461,4.1,6.73,4.1,10.128A1.389,1.389,0,0,1,1992.579,506.1Z" transform="translate(-1981.606 -396.542)" fill="#74a839"/>
          <path id="Trazado_2891" data-name="Trazado 2891" d="M1992.634,506.464a1.7,1.7,0,0,1-1.693-1.694c0-2.537-1.773-5.444-3.648-8.523a38.213,38.213,0,0,1-4.626-9.549c-2.817-10.326.879-16.521,3.846-21.5l.475-.8c.8-1.36,1.667-2.664,2.5-3.924,2.354-3.551,4.784-7.216,6.131-12.6,3.522-14.1-5.46-48.807-5.551-49.155a1.695,1.695,0,1,1,3.277-.863c.383,1.452,9.337,35.735,5.56,50.84-1.488,5.946-4.08,9.859-6.589,13.641-.8,1.208-1.63,2.455-2.414,3.782l-.481.81c-2.776,4.656-5.925,9.933-3.487,18.87a35.029,35.029,0,0,0,4.25,8.676c2.132,3.5,4.142,6.8,4.142,10.287A1.7,1.7,0,0,1,1992.634,506.464Zm-.92-109.254a1.144,1.144,0,0,0-.279.037,1.085,1.085,0,0,0-.772,1.325c.092.348,9.169,34.983,5.552,49.457-1.371,5.484-3.83,9.2-6.209,12.781-.835,1.261-1.694,2.557-2.49,3.905l-.475.8c-2.91,4.878-6.53,10.949-3.783,21.025a37.687,37.687,0,0,0,4.554,9.381c1.927,3.163,3.742,6.144,3.742,8.851a1.082,1.082,0,0,0,2.165,0c0-3.313-1.967-6.545-4.051-9.966a35.5,35.5,0,0,1-4.32-8.836c-2.506-9.189.713-14.583,3.553-19.344l.48-.809c.793-1.339,1.625-2.594,2.431-3.807,2.479-3.74,5.044-7.607,6.505-13.452,3.739-14.955-5.178-49.09-5.56-50.537a1.084,1.084,0,0,0-1.042-.808Z" transform="translate(-1981.662 -396.598)" fill="#74a839"/>
        </g>
      </g>
      <g id="Grupo_1513" data-name="Grupo 1513" transform="translate(2016.321 420.244)">
        <g id="Grupo_1512" data-name="Grupo 1512">
          <path id="Trazado_2892" data-name="Trazado 2892" d="M2010.921,487.421a1.389,1.389,0,0,1-.421-2.712c23.234-7.416,35.086-16.677,38.425-30.031,1.582-6.33,3.368-22.513-14.194-36.026a1.388,1.388,0,0,1,1.694-2.2c13.087,10.068,18.766,24.61,15.194,38.9-3.549,14.2-16.347,24.366-40.276,32A1.369,1.369,0,0,1,2010.921,487.421Z" transform="translate(-2009.227 -415.857)" fill="#74a839"/>
          <path id="Trazado_2893" data-name="Trazado 2893" d="M2010.977,487.783a1.695,1.695,0,0,1-.515-3.309c23.124-7.381,34.912-16.575,38.221-29.815,1.568-6.272,3.336-22.306-14.082-35.708a1.695,1.695,0,1,1,2.068-2.686c13.186,10.144,18.907,24.805,15.3,39.218-3.576,14.309-16.439,24.547-40.479,32.219A1.681,1.681,0,0,1,2010.977,487.783Zm24.657-71.256a1.081,1.081,0,0,0-.66,1.939c17.7,13.623,15.9,29.952,14.3,36.341-3.365,13.468-15.278,22.8-38.626,30.249a1.086,1.086,0,0,0-.7,1.361,1.111,1.111,0,0,0,1.359.7c23.819-7.6,36.551-17.7,40.072-31.786,3.543-14.169-2.1-28.594-15.082-38.585A1.084,1.084,0,0,0,2035.634,416.527Z" transform="translate(-2009.283 -415.913)" fill="#74a839"/>
        </g>
      </g>
      <g id="Grupo_1515" data-name="Grupo 1515" transform="translate(2023.265 490.113)">
        <g id="Grupo_1514" data-name="Grupo 1514">
          <path id="Trazado_2894" data-name="Trazado 2894" d="M2016.6,488.975a1.417,1.417,0,0,1-.339-.042,1.389,1.389,0,0,1-1.01-1.685c.359-1.435.844-2.849,1.358-4.345a50.787,50.787,0,0,0,2.324-8.508,1.389,1.389,0,1,1,2.74.458,53.145,53.145,0,0,1-2.436,8.951c-.493,1.438-.96,2.8-1.29,4.118A1.388,1.388,0,0,1,2016.6,488.975Z" transform="translate(-2014.899 -472.93)" fill="#74a839"/>
          <path id="Trazado_2895" data-name="Trazado 2895" d="M2016.651,489.337a1.62,1.62,0,0,1-.412-.051,1.7,1.7,0,0,1-1.232-2.054c.366-1.465.873-2.943,1.365-4.37a50.757,50.757,0,0,0,2.31-8.459,1.695,1.695,0,1,1,3.343.557,53.152,53.152,0,0,1-2.447,9c-.5,1.458-.96,2.8-1.284,4.093A1.688,1.688,0,0,1,2016.651,489.337Zm3.7-15.74a1.073,1.073,0,0,0-1.065.9,50.984,50.984,0,0,1-2.333,8.546c-.49,1.427-.993,2.892-1.353,4.331a1.085,1.085,0,0,0,.786,1.314,1.1,1.1,0,0,0,1.315-.788c.329-1.321.792-2.671,1.283-4.1a52.819,52.819,0,0,0,2.438-8.945,1.081,1.081,0,0,0-.889-1.245A1.029,1.029,0,0,0,2020.352,473.6Z" transform="translate(-2014.956 -472.986)" fill="#74a839"/>
        </g>
      </g>
      <g id="Grupo_1517" data-name="Grupo 1517" transform="translate(2031.597 396.6)">
        <g id="Grupo_1516" data-name="Grupo 1516">
          <path id="Trazado_2896" data-name="Trazado 2896" d="M2026.843,419.685a10.718,10.718,0,0,1-3.958-.715,1.388,1.388,0,0,1,1.031-2.578,9.542,9.542,0,0,0,8.221-1,6.083,6.083,0,0,0,2.838-5.137c.092-5.738-6.77-10.843-6.839-10.893a1.389,1.389,0,0,1,1.639-2.241c.332.241,8.092,6,7.977,13.18a8.855,8.855,0,0,1-4.077,7.4A12.577,12.577,0,0,1,2026.843,419.685Z" transform="translate(-2021.705 -396.544)" fill="#74a839"/>
          <path id="Trazado_2897" data-name="Trazado 2897" d="M2026.9,420.047a11.076,11.076,0,0,1-4.07-.736,1.695,1.695,0,1,1,1.257-3.147,9.211,9.211,0,0,0,7.938-.974,5.787,5.787,0,0,0,2.7-4.886c.089-5.6-6.645-10.592-6.713-10.642a1.7,1.7,0,0,1-.365-2.368,1.673,1.673,0,0,1,1.105-.674,1.69,1.69,0,0,1,1.26.306c.337.246,8.219,6.1,8.1,13.432a9.148,9.148,0,0,1-4.214,7.653A12.92,12.92,0,0,1,2026.9,420.047Zm-3.441-3.394a1.082,1.082,0,0,0-.427.088,1.083,1.083,0,0,0,.025,2,10.444,10.444,0,0,0,3.843.693,12.29,12.29,0,0,0,6.662-1.934,8.552,8.552,0,0,0,3.941-7.152c.113-7.02-7.525-12.691-7.851-12.929a1.083,1.083,0,0,0-1.28,1.748c.07.049,7.059,5.275,6.965,11.144a6.377,6.377,0,0,1-2.974,5.386,9.876,9.876,0,0,1-8.5,1.033A1.092,1.092,0,0,0,2023.458,416.654Z" transform="translate(-2021.762 -396.6)" fill="#74a839"/>
        </g>
      </g>
      <g id="Grupo_1519" data-name="Grupo 1519" transform="translate(2002.896 420.913)">
        <g id="Grupo_1518" data-name="Grupo 1518">
          <path id="Trazado_2898" data-name="Trazado 2898" d="M2019.177,476.409c-13.1,0-20.61-10.543-20.61-28.923,0-18.409,8.676-30.776,21.591-30.776,13.35,0,28.868,13.468,28.868,30.831C2049.026,464.064,2033.267,476.409,2019.177,476.409Zm.982-56.922c-13,0-18.814,14.063-18.814,28,0,16.616,6.5,26.146,17.832,26.146,12.779,0,27.072-11.157,27.072-26.09C2046.249,431.741,2032.223,419.486,2020.159,419.486Z" transform="translate(-1998.261 -416.404)" fill="#74a839"/>
          <path id="Trazado_2899" data-name="Trazado 2899" d="M2019.233,476.771c-13.293,0-20.916-10.653-20.916-29.229s8.8-31.082,21.9-31.082c13.492,0,29.174,13.6,29.174,31.137C2049.388,464.3,2033.468,476.771,2019.233,476.771Zm.98-59.7c-12.731,0-21.284,12.243-21.284,30.47,0,18.187,7.4,28.617,20.3,28.617,13.945,0,29.543-12.214,29.543-28.562C2048.776,430.405,2033.423,417.072,2020.213,417.072Zm-.98,56.922c-11.527,0-18.139-9.642-18.139-26.453,0-14.09,5.912-28.305,19.12-28.305,12.208,0,26.4,12.388,26.4,28.36C2046.611,462.7,2032.156,473.994,2019.233,473.994Zm.98-54.146c-12.784,0-18.508,13.908-18.508,27.693,0,16.422,6.388,25.841,17.527,25.841,12.635,0,26.766-11.028,26.766-25.786C2046,431.97,2032.139,419.849,2020.213,419.849Z" transform="translate(-1998.317 -416.46)" fill="#74a839"/>
        </g>
      </g>
      <g id="Grupo_1521" data-name="Grupo 1521" transform="translate(1977.897 504.001)">
        <g id="Grupo_1520" data-name="Grupo 1520">
          <path id="Trazado_2900" data-name="Trazado 2900" d="M2052.68,487.358h-73.145a1.389,1.389,0,0,1,0-2.778h73.145a1.389,1.389,0,0,1,0,2.778Z" transform="translate(-1977.841 -484.274)" fill="#74a839"/>
          <path id="Trazado_2901" data-name="Trazado 2901" d="M2052.736,487.719h-73.143a1.694,1.694,0,1,1,0-3.389h73.143a1.694,1.694,0,1,1,0,3.389Zm-73.143-2.777a1.082,1.082,0,1,0,0,2.164h73.143a1.082,1.082,0,1,0,0-2.164Z" transform="translate(-1977.897 -484.33)" fill="#74a839"/>
        </g>
      </g>
      <g id="Grupo_1523" data-name="Grupo 1523" transform="translate(2012.602 427.142)">
        <g id="Grupo_1522" data-name="Grupo 1522">
          <path id="Trazado_2902" data-name="Trazado 2902" d="M2027.079,466.061h-.084a9.093,9.093,0,0,1-5.224-1.5,4.03,4.03,0,0,1-1.341-4.286,6.126,6.126,0,0,0,.086-.671,7.52,7.52,0,0,0-.823.114c-1.688.288-4.512.775-8.373-2.284-3.511-2.779-4.389-6.643-4.786-10.057-.351-3.016,1.75-6.372,3.436-9.068a20.572,20.572,0,0,0,1.719-3.064c.184-.508.06-.854-.371-1.792-.693-1.511-1.643-3.578.015-7.244a6.8,6.8,0,0,1,6.895-4.4c3.477.225,7.151,2.836,8.022,5.7,1.909,6.27-1.431,9.9-3.463,10.943a1.389,1.389,0,0,1-1.279-2.466c.4-.213,3.747-2.208,2.086-7.668-.486-1.6-3.014-3.575-5.544-3.739a4.087,4.087,0,0,0-4.186,2.77,4.94,4.94,0,0,0-.021,4.94,4.775,4.775,0,0,1,.458,3.9,21.418,21.418,0,0,1-1.976,3.591c-1.457,2.327-3.27,5.225-3.032,7.274.476,4.091,1.562,6.466,3.751,8.2,2.891,2.288,4.712,1.973,6.18,1.722a3.574,3.574,0,0,1,3.052.414,3.2,3.2,0,0,1,.9,3.329c-.165,1.009-.156,1.283.323,1.663,1.3,1.025,4.265,1.026,5.472.69a12.873,12.873,0,0,0-1.376-.936,11.3,11.3,0,0,1-1.049-.7c-1.062-.84-.629-2.206-.029-4.095.29-.913.97-3.052.725-3.589a1.369,1.369,0,0,0-1.336-.814,1.389,1.389,0,1,1-.32-2.759,4.122,4.122,0,0,1,4.171,2.4c.708,1.514.017,3.689-.592,5.607-.142.446-.32,1.006-.418,1.4l.306.19c1.191.734,2.675,1.649,2.923,3.062a2.315,2.315,0,0,1-.507,1.883C2030.519,465.919,2028.146,466.061,2027.079,466.061Z" transform="translate(-2006.19 -421.492)" fill="#74a839"/>
          <path id="Trazado_2903" data-name="Trazado 2903" d="M2027.135,466.424h-.05a9.424,9.424,0,0,1-5.446-1.563,4.345,4.345,0,0,1-1.454-4.575c.014-.083.031-.18.044-.278-.159.024-.322.053-.426.071-1.746.3-4.653.794-8.616-2.346-3.6-2.848-4.5-6.786-4.9-10.261-.363-3.124,1.768-6.53,3.479-9.266a20.4,20.4,0,0,0,1.69-3.005c.135-.37.081-.6-.361-1.561-.718-1.565-1.7-3.706.014-7.5a7.106,7.106,0,0,1,7.194-4.576c3.592.233,7.389,2.942,8.294,5.918,1.97,6.464-1.5,10.221-3.615,11.3a1.693,1.693,0,0,1-2.282-.732,1.7,1.7,0,0,1,.721-2.277c.364-.195,3.53-2.073,1.934-7.307-.447-1.469-2.9-3.368-5.271-3.522a3.778,3.778,0,0,0-3.886,2.592,4.633,4.633,0,0,0-.021,4.685,5.09,5.09,0,0,1,.466,4.131,21.533,21.533,0,0,1-1.99,3.629c-1.444,2.306-3.227,5.151-3,7.1.464,4,1.518,6.318,3.636,8,2.778,2.2,4.527,1.9,5.931,1.665a3.861,3.861,0,0,1,3.3.471,3.5,3.5,0,0,1,1.01,3.616c-.163,1-.122,1.113.211,1.375,1.017.8,3.193.932,4.539.761-.3-.2-.606-.391-.793-.507a11.42,11.42,0,0,1-1.08-.717c-1.228-.971-.743-2.5-.13-4.428.772-2.43.826-3.172.737-3.368a1.057,1.057,0,0,0-1.026-.638,1.7,1.7,0,0,1-1.519-2.737,1.68,1.68,0,0,1,1.133-.63,4.432,4.432,0,0,1,4.485,2.572c.758,1.625.048,3.858-.579,5.828-.115.364-.256.8-.355,1.164l.111.069c1.248.77,2.792,1.723,3.066,3.271a2.617,2.617,0,0,1-.568,2.126C2030.761,466.234,2028.433,466.424,2027.135,466.424Zm-6.25-7.077-.007.324a6.3,6.3,0,0,1-.089.709,3.72,3.72,0,0,0,1.229,4,8.79,8.79,0,0,0,5.037,1.431l.081.307v-.306c.956,0,3.275-.12,4.148-1.223a2.024,2.024,0,0,0,.446-1.642c-.225-1.276-1.642-2.15-2.78-2.852l-.5-.307.055-.218c.1-.4.279-.966.422-1.418.593-1.864,1.265-3.976.607-5.384a3.847,3.847,0,0,0-3.86-2.223,1.085,1.085,0,0,0-.951,1.2,1.086,1.086,0,0,0,1.2.952,1.655,1.655,0,0,1,1.647.989c.247.536-.105,1.91-.709,3.809-.638,2.008-.931,3.086-.074,3.764a11.336,11.336,0,0,0,1.02.677,12.835,12.835,0,0,1,1.414.965l.44.373-.557.154c-1.2.334-4.325.376-5.743-.746-.613-.486-.608-.9-.437-1.953a2.9,2.9,0,0,0-.783-3.039,3.287,3.287,0,0,0-2.81-.351c-1.535.258-3.429.583-6.422-1.785-2.26-1.79-3.38-4.225-3.864-8.405-.252-2.157,1.593-5.1,3.075-7.471a21.306,21.306,0,0,0,1.947-3.532,4.453,4.453,0,0,0-.446-3.665,5.246,5.246,0,0,1,.018-5.2c.946-2.089,2.447-3.094,4.485-2.948,2.692.173,5.291,2.23,5.816,3.952,1.736,5.7-1.823,7.807-2.234,8.028a1.088,1.088,0,0,0-.463,1.456,1.079,1.079,0,0,0,1.458.468c1.954-1,5.16-4.5,3.309-10.58-.839-2.757-4.386-5.269-7.748-5.487a6.536,6.536,0,0,0-6.6,4.219,7.3,7.3,0,0,0-.016,6.988c.422.916.613,1.383.382,2.026a20.586,20.586,0,0,1-1.74,3.108c-1.67,2.669-3.737,5.974-3.4,8.884.389,3.352,1.249,7.143,4.672,9.851,3.75,2.972,6.49,2.5,8.126,2.226a7.35,7.35,0,0,1,.871-.12Z" transform="translate(-2006.245 -421.548)" fill="#74a839"/>
        </g>
      </g>
      <g id="Grupo_1525" data-name="Grupo 1525" transform="translate(2023.859 440.113)">
        <g id="Grupo_1524" data-name="Grupo 1524">
          <path id="Trazado_2904" data-name="Trazado 2904" d="M2017.082,445.5a1.388,1.388,0,0,1-.761-2.55c2.4-1.567,6.141-1.846,9.763-2.114.47-.034.939-.07,1.4-.107,6.347-.515,8-7.2,8.019-7.269a1.389,1.389,0,0,1,2.7.64c-.715,3.014-3.828,8.856-10.5,9.4-.466.038-.941.073-1.42.109-3.117.231-6.651.493-8.446,1.667A1.388,1.388,0,0,1,2017.082,445.5Z" transform="translate(-2015.385 -432.087)" fill="#74a839"/>
          <path id="Trazado_2905" data-name="Trazado 2905" d="M2017.138,445.866a1.693,1.693,0,0,1-.928-3.112c2.46-1.611,6.246-1.893,9.906-2.163q.707-.051,1.4-.107c6.106-.5,7.73-6.969,7.746-7.034a1.7,1.7,0,1,1,3.3.781c-.733,3.089-3.927,9.075-10.771,9.631-.383.032-.77.06-1.161.091l-.262.018c-3.08.229-6.571.487-8.3,1.618A1.675,1.675,0,0,1,2017.138,445.866Zm19.774-13.109a1.085,1.085,0,0,0-1.054.834c-.016.067-1.692,6.967-8.293,7.5-.463.037-.932.072-1.4.107-3.582.266-7.289.541-9.617,2.065a1.08,1.08,0,0,0-.313,1.5,1.107,1.107,0,0,0,1.5.313c1.863-1.219,5.438-1.483,8.592-1.716l.263-.02c.389-.029.775-.058,1.156-.089,6.492-.526,9.528-6.224,10.225-9.162a1.084,1.084,0,0,0-1.052-1.333Z" transform="translate(-2015.441 -432.144)" fill="#74a839"/>
        </g>
      </g>
      <g id="Grupo_1526" data-name="Grupo 1526" transform="translate(2057.604 503.538)">
        <path id="Trazado_2906" data-name="Trazado 2906" d="M2044.729,484.2a1.472,1.472,0,1,0,1.471,1.473A1.473,1.473,0,0,0,2044.729,484.2Z" transform="translate(-2042.95 -483.896)" fill="#74a839"/>
        <path id="Trazado_2907" data-name="Trazado 2907" d="M2044.783,487.507a1.778,1.778,0,1,1,1.779-1.778A1.78,1.78,0,0,1,2044.783,487.507Zm0-2.943a1.165,1.165,0,1,0,1.167,1.165A1.166,1.166,0,0,0,2044.783,484.564Z" transform="translate(-2043.006 -483.952)" fill="#74a839"/>
      </g>
    </g>
  </g>
</svg>
