<svg xmlns="http://www.w3.org/2000/svg" xmlns:xlink="http://www.w3.org/1999/xlink" width="227" height="216" viewBox="0 0 227 216">
  <defs>
    <filter id="Image" x="0" y="0" width="227" height="216" filterUnits="userSpaceOnUse">
      <feOffset dy="5" input="SourceAlpha"/>
      <feGaussianBlur stdDeviation="2.5" result="blur"/>
      <feFlood flood-opacity="0.161"/>
      <feComposite operator="in" in2="blur"/>
      <feComposite in="SourceGraphic"/>
    </filter>
  </defs>
  <g id="Grupo_455" data-name="Grupo 455" transform="translate(-498.072 -3328.518)">
    <g transform="matrix(1, 0, 0, 1, 498.07, 3328.52)" filter="url(#Image)">
      <g id="Image-2" data-name="Image" transform="translate(7.5 2.5)" fill="#fff" stroke="#a2e2ff" stroke-width="6">
        <rect width="212" height="201" rx="100.5" stroke="none"/>
        <rect x="3" y="3" width="206" height="195" rx="97.5" fill="none"/>
      </g>
    </g>
    <g id="Grupo_6296" data-name="Grupo 6296" transform="translate(-965.738 3999.67)">
      <g id="Grupo_6291" data-name="Grupo 6291" transform="translate(1532.775 -575.321)">
        <g id="Grupo_6289" data-name="Grupo 6289">
          <g id="Grupo_6288" data-name="Grupo 6288">
            <g id="Grupo_6285" data-name="Grupo 6285" transform="translate(24.876 5.738)">
              <g id="Grupo_6283" data-name="Grupo 6283" transform="translate(18.581 56.339)">
                <path id="Trazado_3424" data-name="Trazado 3424" d="M1570.106-531.248c-.287,0-.575,0-.861,0a1.815,1.815,0,0,0-.355.059c.8.046,1.657.057,2.552.02a1.823,1.823,0,0,0-.473-.079C1570.682-531.248,1570.394-531.246,1570.106-531.248Z" transform="translate(-1568.89 531.248)" fill="none"/>
              </g>
              <g id="Grupo_6284" data-name="Grupo 6284">
                <path id="Trazado_3425" data-name="Trazado 3425" d="M1581.508-525.869q1.682-4.61,3.285-9.248a18.546,18.546,0,0,0,.65-2.45,16.612,16.612,0,0,0,.281-4.457c-.016-.231-.022-.463-.048-.694-.438-1.627-.738-3.3-1.3-4.883-.048-.135-.077-.263-.117-.4-.052-.16-.1-.319-.138-.472h0c-.544-2.117.037-3.622,1.929-5.288a20.385,20.385,0,0,0,6.555-10.054,12.7,12.7,0,0,0,.369-1.967c0-.02.007-.042.01-.063a10.259,10.259,0,0,0,.025-1.87v0a8.68,8.68,0,0,0-.307-1.669c-.01-.034-.012-.07-.021-.1a8.226,8.226,0,0,0-.661-1.6c-.018-.035-.035-.07-.054-.1a8.58,8.58,0,0,0-.875-1.271l-.01-.012q-.258-.31-.55-.6l-.023-.021a10.526,10.526,0,0,0-1.279-1.087l-.029-.019a12.666,12.666,0,0,0-1.557-.955,19.834,19.834,0,0,0-3.607-1.463,35.416,35.416,0,0,0-4.146-.94l-.255-.039c-.094-.014-.189-.024-.284-.037a48.413,48.413,0,0,0-6.108-.433,48.433,48.433,0,0,0-6.108.433c-.094.014-.189.023-.283.037l-.256.039a35.6,35.6,0,0,0-4.145.94,19.848,19.848,0,0,0-3.609,1.463,12.971,12.971,0,0,0-1.556.954l-.03.022a10.38,10.38,0,0,0-1.278,1.084l-.024.022c-.194.2-.378.4-.549.6l-.011.013a8.529,8.529,0,0,0-.874,1.269c-.019.034-.036.069-.055.1a8.046,8.046,0,0,0-.592,1.367h0a8.394,8.394,0,0,0-.321,1.352v.013a11.038,11.038,0,0,0,.331,4.541,20.368,20.368,0,0,0,6.555,10.054c1.891,1.667,2.473,3.172,1.927,5.288h0c-.04.153-.088.312-.138.472-.04.132-.069.261-.116.4-.561,1.582-.861,3.256-1.3,4.883-.026.231-.031.463-.048.694a16.623,16.623,0,0,0,.283,4.457,18.558,18.558,0,0,0,.648,2.45q1.6,4.637,3.286,9.248c.185.509.365,1.02.554,1.529a6.641,6.641,0,0,0,1.22,1.869,26.651,26.651,0,0,0,5.271.8,1.816,1.816,0,0,1,.355-.059c.286,0,.574,0,.861,0s.575,0,.863,0a1.82,1.82,0,0,1,.473.08,20.782,20.782,0,0,0,5.153-.824,6.692,6.692,0,0,0,1.22-1.869C1581.142-524.849,1581.322-525.36,1581.508-525.869Z" transform="translate(-1553.448 578.07)" fill="#fff"/>
              </g>
            </g>
            <g id="Grupo_6287" data-name="Grupo 6287">
              <g id="Grupo_6286" data-name="Grupo 6286">
                <path id="Trazado_3426" data-name="Trazado 3426" d="M1621.61-569.447c-.014-.22-.049-.439-.073-.658s-.038-.438-.072-.656q-.1-.653-.27-1.3a15.578,15.578,0,0,0-.868-2.483c-.008-.023-.008-.037-.018-.061a11.8,11.8,0,0,0-1.509-2.552h0l-.011-.013c-.093-.122-.155-.2-.155-.2l-.017,0a12.186,12.186,0,0,0-2.091-2.044l-.01-.023c-.045-.031-.083-.055-.128-.087-.19-.143-.391-.276-.591-.408-.077-.05-.153-.1-.227-.149-.111-.071-.213-.148-.328-.215l.005.016a11.094,11.094,0,0,0-2.648-1.263l0,.007c-.508-.182-1.029-.347-1.568-.485-.33-.084-.664-.161-1-.229a18.617,18.617,0,0,0-2.93-.327h0a22.04,22.04,0,0,0-4.582.39,28.933,28.933,0,0,0-5.661,1.7l-.233.1c-.223.093-.445.184-.667.284l-.159.071h0c-1.124.511-2.232,1.123-3.3,1.712-.527.29-1.053.58-1.585.86l0,0-.291.171a1.706,1.706,0,0,1-.424.176l-.015,0c-.058.017-.119.032-.184.046h0c-.028.007-.043.01-.057.012h-.007a2.019,2.019,0,0,1-.336.031,1.323,1.323,0,0,1-.378-.048,42.175,42.175,0,0,0-11.88-1.748,42.173,42.173,0,0,0-11.88,1.748,1.318,1.318,0,0,1-.378.048,2.076,2.076,0,0,1-.337-.031h-.005l-.047-.008-.01,0h-.006l-.016,0a1.683,1.683,0,0,1-.183-.047h-.006a2.179,2.179,0,0,1-.234-.081,1.353,1.353,0,0,1-.184-.093l-.3-.174c-.526-.278-1.056-.57-1.586-.862-1.069-.59-2.177-1.2-3.3-1.711h0l-.089-.04-.068-.03c-.223-.1-.444-.193-.665-.283l-.236-.1h0a30.353,30.353,0,0,0-4.269-1.4c-.466-.113-.928-.213-1.391-.3a22.38,22.38,0,0,0-4.582-.39h0a19.816,19.816,0,0,0-2.131.193c-.272.04-.538.083-.8.135a17.906,17.906,0,0,0-3.195.952l-.006,0c-.081.035-.146.066-.222.1-.13.055-.265.106-.392.164h0l-.052.025c-.088.039-.174.079-.26.124-.045.022-.082.043-.118.064-.02.013-.042.024-.064.036a9.25,9.25,0,0,0-1.77,1.058v.008a12.374,12.374,0,0,0-1.5,1.253c-.038.031-.077.059-.117.094a11.691,11.691,0,0,0-1.9,2.47c-.016.024-.03.043-.046.069s-.029.055-.045.083h0c.016-.028.029-.057.045-.083h0c-.016.026-.029.057-.044.084-.07.119-.109.19-.109.19l0,.012a14.173,14.173,0,0,0-.774,1.661c-.02.052-.038.106-.058.158-.09.24-.179.48-.26.728-.1.31-.193.628-.276.952a14.1,14.1,0,0,0-.443,3.747c.005.253.016.505.034.758a14.524,14.524,0,0,0,.185,1.514v0l.046.229c.039.2.079.395.124.591.01.042.017.086.026.128.036.153.082.3.124.45.029.1.055.209.086.313.088.288.181.57.273.84v0l.007.02c.1.278.2.558.318.837l.006.013h0c.034.083.07.164.1.243l.06.137h0v0a21.082,21.082,0,0,0,1.505,2.774c.1.164.207.328.309.492l.242.365c.179.261.357.522.553.775a2.685,2.685,0,0,1,.53.952c.057.227.13.432.207.65l.147.371c.061.136.124.273.181.415a8.379,8.379,0,0,0,1.8,2.771h0l.1.1c.055.057.112.113.171.167l.018.018h0l.018.016c.1.09.2.172.3.254l.085.07c.229.179.478.368.739.534l0,0h0l.132.083h0a12.3,12.3,0,0,0,3.62,1.4h0l.1.025c.036.008.071.018.108.025.391.077.775.134,1.148.172a10.692,10.692,0,0,0,1.093.054,8.272,8.272,0,0,0,2-.241l.1-.028a6.983,6.983,0,0,0,.674-.227h0l.211-.085.025-.01q.128-.056.256-.116l0,0c.04-.018.075-.036.108-.055l.06-.031a7.088,7.088,0,0,0,.8-.5,7.276,7.276,0,0,0,.731-.6,2.453,2.453,0,0,1,.259-.207l.077-.057.007,0c.03-.033.079-.078.129-.124.082-.076.164-.152.243-.24a.9.9,0,0,1,.492-.247c.065-.014.132-.024.2-.032.089-.011.178-.018.261-.023.448-.025.9-.038,1.344-.052.052,0,.1-.011.154-.014,1.13-.089,2.25-.251,3.43-.45.418-.071.841-.144,1.277-.223a1.445,1.445,0,0,1,1.054.1c.008,0,.016.006.024.011l0,0a4.352,4.352,0,0,1,1.455,1.256,9.159,9.159,0,0,0,.721.764,2.273,2.273,0,0,1,.751,3.083l0,.011c-.3.972-.629,2.021-1.042,3.289a17.931,17.931,0,0,0-.463,4.388l.016.446a17.136,17.136,0,0,0,.757,4.25c1.273,4.092,2.793,8.158,4.262,12.092a3.956,3.956,0,0,0,.55.963l.261.333c.245.3.514.586.768.855h0a1.158,1.158,0,0,0,.848.4h.007a1.1,1.1,0,0,0,.81-.378,1.249,1.249,0,0,0-.174-1.7,6.539,6.539,0,0,1-1.195-1.836c-.09-.243-.178-.486-.266-.729l-.278-.768v0c-1.037-2.841-2.088-5.8-3.124-8.8a17.661,17.661,0,0,1-.616-2.315l-.132-.762a15.978,15.978,0,0,1-.152-3.565,1.374,1.374,0,0,1-.013-.208c0-.033-.008-.067-.007-.1a1.445,1.445,0,0,1,.049-.315l.022-.083,0-.011c.041-.36.1-.723.163-1.088a17.6,17.6,0,0,1,.962-3.3c.084-.211.147-.408.21-.6l.061-.2c.03-.1.059-.189.082-.282l0-.016h0a5.345,5.345,0,0,0,.146-1.333,4.25,4.25,0,0,0-1.231-2.854,7.083,7.083,0,0,0-.527-.509,19.415,19.415,0,0,1-6.672-10.539,9.485,9.485,0,0,1,.179-5.071h0l.006-.017c.078-.236.168-.468.268-.7.093-.212.194-.42.3-.622h0l.052-.1h0l.02-.034q.186-.325.4-.63c.137-.2.281-.391.433-.574l0,0,.008-.01c.14-.167.286-.325.438-.481.032-.035.063-.072.1-.107h0l.018-.017.006,0c.152-.15.311-.294.473-.436.051-.043.1-.089.15-.132.195-.164.4-.324.605-.476l.011-.008.211-.154c.184-.136.374-.276.585-.4a21.113,21.113,0,0,1,8.2-2.7h.006l.237-.035h0l.267-.039h.006l.014,0a35.784,35.784,0,0,1,5.837-.413h0a37.423,37.423,0,0,1,5.857.415h0l.267.037h0l.244.035a26.417,26.417,0,0,1,4.684,1.079,17.341,17.341,0,0,1,3.515,1.62c.21.128.4.267.582.4l.184.135,0,0,.011.008h0l.012.008.069.054c.285.212.543.425.781.638.13.116.262.232.38.349l.014.013.021.022.052.054c.179.183.339.359.485.533l.008.011h0l0,0c.121.149.235.3.347.458.036.051.076.1.111.148.124.182.239.369.35.56.013.024.03.047.043.071l.034.063c.007.012.012.025.019.039a8.757,8.757,0,0,1,.917,5.53q-.061.433-.159.875a19.407,19.407,0,0,1-6.672,10.539,4.426,4.426,0,0,0-1.613,4.681l0,.014h0l.005.016c.016.066.036.132.056.2.008.028.016.057.024.084l.066.212c.061.191.124.384.206.588a17.188,17.188,0,0,1,1.126,4.4l0,.014.008.028c0,.014,0,.026.007.041a1.6,1.6,0,0,1,.043.254c0,.017.007.036.008.052a1.424,1.424,0,0,1-.011.191c0,.042,0,.084-.007.126a16.037,16.037,0,0,1-.161,3.637l-.123.691a17.721,17.721,0,0,1-.617,2.315c-.946,2.737-1.9,5.434-2.849,8.039l-.9,2.441a7.2,7.2,0,0,1-1.109,1.651,1.248,1.248,0,0,0-.176,1.7,1.106,1.106,0,0,0,.81.378h.008a1.16,1.16,0,0,0,.849-.4c.239-.253.512-.546.767-.855l.259-.343,0,.01c.029-.038.047-.073.075-.112l.077-.1v-.013a3.722,3.722,0,0,0,.4-.735c1.469-3.931,2.988-7.994,4.263-12.092a17.107,17.107,0,0,0,.755-4.25l.012-.444,0,0c0-.037,0-.075,0-.112l0-.172-.006,0a18.045,18.045,0,0,0-.463-4.116v-.006c-.223-.681-.421-1.3-.608-1.89-.153-.481-.3-.943-.434-1.392v0c-.066-.171-.123-.33-.169-.481a1.984,1.984,0,0,1,.539-2.23c.112-.119.239-.242.381-.371a9.4,9.4,0,0,0,.722-.764,4.449,4.449,0,0,1,1.453-1.256l0,0,.024-.012a1.387,1.387,0,0,1,1.055-.1,47.028,47.028,0,0,0,4.86.687h.007c.427.013.861.026,1.295.051h.042a1.987,1.987,0,0,1,.764.16.657.657,0,0,1,.189.142c.078.088.16.164.242.24q.068.063.137.13l.01.01.06.041a2.658,2.658,0,0,1,.266.212,6.958,6.958,0,0,0,1.535,1.1l.065.035.064.032.033.016,0,0c.155.077.309.138.464.2.123.047.234.088.339.125l.034.012c.1.036.2.066.3.094l.034.011h0l.1.028h0c.208.053.428.084.646.119a8.5,8.5,0,0,0,1.356.122,11.5,11.5,0,0,0,2.239-.226c.037-.007.072-.016.108-.025s.067-.018.1-.025h0a12.262,12.262,0,0,0,3.622-1.4l.131-.083c.265-.167.515-.359.746-.539h0l.075-.06c.111-.089.222-.178.328-.273v0h0c.068-.061.132-.126.195-.191l.1-.1a8.383,8.383,0,0,0,1.037-1.289q.226-.348.417-.718c.128-.247.244-.5.349-.763.058-.144.12-.283.184-.421l.143-.362c.077-.219.15-.425.207-.652a2.706,2.706,0,0,1,.53-.952c.2-.253.374-.514.553-.775l.242-.365c.1-.164.2-.328.311-.493a21.2,21.2,0,0,0,1.5-2.771v0l.057-.129q.049-.108.094-.217l.017-.037h0v0l.008-.02c.118-.282.22-.566.321-.848h0c.091-.267.184-.548.271-.834.03-.1.054-.2.082-.3.044-.158.093-.313.13-.473.011-.044.018-.088.028-.131.043-.193.083-.385.122-.578l.048-.242c.045-.251.082-.5.113-.756A14.143,14.143,0,0,0,1621.61-569.447Zm-87.865-3.568c.078-.241.166-.475.254-.709C1533.91-573.49,1533.823-573.255,1533.745-573.015Zm.318-.886a14.338,14.338,0,0,1,.774-1.659h0A14.646,14.646,0,0,0,1534.062-573.9Zm16.922,20.695-.113-.134.008.012.091.132-.085.073-.016.013h0c-.025.018-.054.036-.079.055-.048.035-.095.07-.148.1-.084.054-.176.107-.274.161l0,0a4.193,4.193,0,0,1-.478.229h-.005c-.188.076-.373.144-.561.2l-.007,0c-.045.017-.066.025-.088.031l-.011,0-.055.011c-.328.09-.63.158-.885.214-.176.04-.328.073-.445.106l-.025.007h-.025a12.617,12.617,0,0,1-2.3-.273h-.006l-.086-.012a7.09,7.09,0,0,1-4.859-3.231l0,0h0l0-.006c-.063-.093-.122-.193-.181-.291l0-.008c-.032-.053-.045-.071-.055-.091-.075-.14-.139-.27-.193-.4s-.1-.242-.136-.363h0c-.006-.018-.011-.038-.016-.058l-.009-.034c-.017-.063-.031-.12-.044-.177-.024-.1-.044-.2-.058-.294a3.175,3.175,0,0,1,.509-2.391,3.081,3.081,0,0,1,.217-.277l0,0,0,0h0l.01-.013.014-.016.027-.031.014-.017.013-.013a2.082,2.082,0,0,1,.16-.167l0,0,0,0a4.5,4.5,0,0,1,2.736-1.2l.065,0,.173-.03c.254-.049.508-.1.758-.156l.023-.006h.024a9.214,9.214,0,0,1,2.3.405,7.83,7.83,0,0,1,.828.274l.031.01c.213.085.419.188.625.291.066.034.135.058.2.093.111.06.215.134.322.2.153.093.309.178.456.282.171.118.332.254.495.387.078.064.161.119.238.187h0c.065.057.126.118.187.179l.2.192c.115.107.229.214.339.333a5.621,5.621,0,0,1,.99,1.58A3.281,3.281,0,0,1,1550.984-553.205Zm8.527-2.455.114.177-.036.014h0l.15.236-1.381.148h-.01l-.022,0a9.555,9.555,0,0,1-1.112.2l-.117.017a11.63,11.63,0,0,1-1.177.065c-.087,0-.172,0-.26,0h-.017l-1.27.137,0-.2a9.927,9.927,0,0,0-.042-1.022v-.008a9.456,9.456,0,0,0-2.532-5.028l0,0a9.5,9.5,0,0,0-1.3-.966,11.006,11.006,0,0,0-4.249-1.615,4.031,4.031,0,0,1-.46-.082c-.065-.016-.126-.038-.19-.058-.079-.023-.161-.043-.239-.072h0c-.037,0-.1-.014-.166-.028l-.027-.006c-.034-.007-.073-.02-.111-.03s-.079-.019-.123-.034h0l-.019-.008a1.174,1.174,0,0,1-.239-.118l-.011-.011c-.018-.012-.027-.033-.043-.046a.5.5,0,0,1-.131-.146l-.033-.063-.046-.088c-.063-.059-.114-.125-.171-.189s-.1-.1-.138-.152c-.063-.079-.116-.162-.17-.244-.03-.044-.065-.089-.093-.135-.06-.1-.111-.192-.162-.289-.016-.031-.036-.064-.052-.1-.064-.126-.122-.248-.172-.363a9.415,9.415,0,0,1-.634-1.829,3.962,3.962,0,0,1,2.114-4.73h0l0,0a5.841,5.841,0,0,1,2.254-.581,13.681,13.681,0,0,1,4.457.534c.071.019.146.041.219.063l.148.045c.031.01.063.02.094.029.213.065.423.131.632.2.467.153.847.289,1.2.428l.006,0,.021.008.014.006h0c.2.081.391.159.58.237.224.094.443.189.663.292h0l.62.28c.3.137.6.276.913.413l.149.066-.057.153C1554.722-564.349,1557-559.572,1559.511-555.66ZM1562-575.716l-3.9,3.3-.033-.01-.165.138-.755-.349c-.411-.191-.848-.393-1.295-.593h0c-.655-.241-1.263-.462-1.854-.671-.384-.135-.761-.267-1.134-.391-.427-.143-.853-.282-1.284-.413-.125-.037-.253-.064-.381-.091q-.112-.023-.224-.05h0a15.25,15.25,0,0,0-3.568-.3q-.344.025-.654.061t-.59.083a6.844,6.844,0,0,0-4.824,3,5.746,5.746,0,0,0-.325.605,5.863,5.863,0,0,0-.225.56,7.194,7.194,0,0,0,.021,4.446,16.61,16.61,0,0,0,.747,1.9l.4.816-.049.034h0l-.083.091-3.944,2.933-.1-.148c-.048-.07-.091-.144-.136-.218-.03-.052-.06-.1-.093-.154a13.2,13.2,0,0,1-1.559-11.654q.166-.444.372-.879l.01-.019q.208-.435.458-.862c.037-.062.062-.117.1-.177a10.325,10.325,0,0,1,.736-1v.021a10.962,10.962,0,0,1,1.278-1.389c.117-.1.23-.2.341-.289l.081-.067c.219-.179.422-.336.612-.477s.4-.291.619-.425h-.006a7.96,7.96,0,0,1,.769-.446l.075-.028.007,0c.348-.181.707-.345,1.076-.493a13.5,13.5,0,0,1,3.584-.883c.034,0,.069-.006.1-.007l.075,0a18.991,18.991,0,0,1,8.165.931h0l.141.042c.093.029.188.057.28.088h0q.655.213,1.312.461t1.315.526c.248.1.492.213.736.325.733.336,1.468.7,2.307,1.13h0c.474.227.955.456,1.443.682l.249.114Zm37,20.925H1599c-.085,0-.169,0-.254,0a11.054,11.054,0,0,1-1.195-.066l-.066-.01a9.933,9.933,0,0,1-1.174-.211l-.016,0-1.369-.146.155-.241h0v0l.075-.184c2.51-3.912,4.788-8.69,2.661-14.472l-.057-.153.149-.066c.312-.138.616-.277.918-.415l.615-.278h0c.415-.2.835-.366,1.231-.525l.008,0,.046-.019h0c-.007,0,0,0,.017-.006.332-.134.712-.27,1.179-.424h0q.354-.119.711-.225l.012,0,.151-.046c.072-.022.144-.043.218-.061h0a13.657,13.657,0,0,1,4.453-.534,5.853,5.853,0,0,1,2.255.581l0,0h0a3.831,3.831,0,0,1,2.23,3.953h0a5.459,5.459,0,0,1-.116.776,9.351,9.351,0,0,1-.634,1.83c-.051.114-.107.236-.171.361-.029.058-.066.118-.1.177s-.072.137-.114.206-.083.12-.124.181-.089.135-.14.2-.1.115-.158.173-.1.116-.153.168l-.078.15c0,.006-.01.01-.013.014a.483.483,0,0,1-.112.124.545.545,0,0,1-.049.054l-.011.01a1.141,1.141,0,0,1-.239.119l-.018.007h0c-.043.016-.082.023-.124.034s-.077.024-.111.031l-.025,0c-.07.014-.131.024-.168.028h0c-.1.035-.2.061-.3.089-.043.012-.086.029-.13.04a3.974,3.974,0,0,1-.462.082,9.546,9.546,0,0,0-2.887.877c-.343.161-.662.331-.952.495-.144.083-.282.164-.41.243a9.6,9.6,0,0,0-1.3.97l-.005,0a9.3,9.3,0,0,0-2.37,4.3c-.06.239-.113.483-.156.73l0,.007a9.86,9.86,0,0,0-.04,1.013l0,.2Zm15.831-2.429v.006h0a3.342,3.342,0,0,1-.1.464v.006c-.012.047-.017.066-.023.085a4.055,4.055,0,0,1-.314.727l0,0c-.011.023-.019.039-.027.052l-.019.031-.047.078-.045.075c-.041.067-.079.13-.119.189l0,0a6.925,6.925,0,0,1-.427.612,7.011,7.011,0,0,1-3.661,2.437q-.376.108-.77.182l-.055.008c-.384.082-.765.144-1.151.19s-.776.075-1.18.088h-.026l-.025-.007c-.118-.032-.27-.066-.444-.106-.255-.057-.557-.124-.874-.212h0c-.031,0-.05-.008-.07-.013a.662.662,0,0,1-.067-.023l-.1-.036c-.174-.057-.336-.116-.493-.179h0a4.331,4.331,0,0,1-.482-.23h0c-.1-.055-.195-.112-.281-.169s-.152-.1-.219-.153c-.031-.025-.06-.051-.089-.076-.008-.007-.016-.016-.024-.024h0a3.224,3.224,0,0,1-1.006-3.393,4.107,4.107,0,0,1,.193-.551,5.632,5.632,0,0,1,.992-1.58c.109-.119.225-.226.339-.334l.2-.194c.06-.06.119-.12.185-.178a7.989,7.989,0,0,1,2.334-1.437,7.92,7.92,0,0,1,.859-.284h.006a9.553,9.553,0,0,1,1.159-.279,8.47,8.47,0,0,1,1.135-.125h.024l.023.006c.251.059.506.107.762.158l.137.026.013,0c.041,0,.063,0,.084,0a5.648,5.648,0,0,1,1.574.415h0a4.114,4.114,0,0,1,.633.349c.049.034.088.077.135.113a3.5,3.5,0,0,1,.4.329l.017.018c.054.052.1.106.152.16l0,0,.009.01.029.034.007.007.017.021.008.01A3.169,3.169,0,0,1,1614.837-557.221Zm2.277-3.924,0,0c-.028.045-.058.1-.088.146-.044.076-.088.15-.137.221l-.1.148-4.054-3.015.011-.024-.011-.007.048-.15c.031-.059.072-.134.118-.217l.024-.046,0-.008.182-.413a16.637,16.637,0,0,0,.746-1.892,6.787,6.787,0,0,0-.531-5.61,6.844,6.844,0,0,0-4.824-3c-.373-.063-.78-.111-1.244-.144h-.006c-.178-.007-.357,0-.536,0-.407,0-.813.011-1.225.046a16.17,16.17,0,0,0-1.784.255l-.021,0h0c-.07.017-.146.032-.221.049-.127.028-.255.054-.381.091-1.385.42-2.7.9-4.273,1.476l-.01,0c-.434.2-.872.4-1.281.588l-.758.35-.165-.138-.034.01-4.1-3.473.018-.008h0l0,0,.215-.141c.487-.226.969-.455,1.448-.683,1.117-.567,2.052-1.035,3.042-1.455.877-.372,1.755-.7,2.611-.981h0l.013,0h0c.1-.034.194-.061.284-.088l.138-.043a18.937,18.937,0,0,1,8.167-.931h0l.072,0c.035,0,.068,0,.1.007a13.3,13.3,0,0,1,4.364,1.241l1.167.608-.028.006a11.341,11.341,0,0,1,1.509,1.131c.193.174.377.35.546.525l0,0c.179.184.344.367.5.544.026.03.052.061.077.093a12.931,12.931,0,0,1,1.177,1.6C1620.526-569.9,1619.347-564.373,1617.114-561.144Z" transform="translate(-1532.724 582.889)" fill="#74a839"/>
                <path id="Trazado_3427" data-name="Trazado 3427" d="M1584.354-520.72a1.416,1.416,0,0,1-1.04-.474,1.5,1.5,0,0,1,.167-2.1,6.843,6.843,0,0,0,1.066-1.577l.9-2.426c.955-2.628,1.913-5.33,2.847-8.032a17.661,17.661,0,0,0,.606-2.274l.122-.686a15.692,15.692,0,0,0,.156-3.563l.013-.226a.614.614,0,0,0,0-.1,2.183,2.183,0,0,0-.042-.249l.274-.15-.3.037a16.927,16.927,0,0,0-1.109-4.329c-.077-.194-.137-.379-.2-.561l-.107-.35c-.031-.1-.049-.159-.062-.219a4.715,4.715,0,0,1,1.7-5,19.124,19.124,0,0,0,6.576-10.378c.064-.288.114-.573.156-.852a8.514,8.514,0,0,0-.886-5.346l.212-.244-.263.146.22-.215-.26.15c-.107-.183-.219-.365-.338-.539l-.109-.147c-.1-.143-.208-.289-.324-.428l-.042-.057c-.115-.135-.271-.3-.445-.481l-.068-.071c-.112-.112-.221-.209-.331-.307-.284-.254-.534-.46-.813-.668l.111-.295-.178.242-.208-.154c-.184-.135-.364-.268-.562-.39a17.028,17.028,0,0,0-3.454-1.591,26.164,26.164,0,0,0-4.631-1.067l-.513-.072a37.632,37.632,0,0,0-5.815-.413,35.841,35.841,0,0,0-5.8.409l-.531.076a20.817,20.817,0,0,0-8.093,2.659c-.2.117-.37.248-.54.373l-.235.171c-.215.158-.41.313-.6.472l-.093.082c-.195.171-.343.3-.479.435l-.152.159c-.144.15-.288.3-.423.464-.157.189-.295.373-.427.564s-.25.38-.365.578v.215h-.121c-.095.178-.181.361-.263.546-.094.217-.182.439-.256.667a9.172,9.172,0,0,0-.178,4.928A19.138,19.138,0,0,0,1565.411-553a7.235,7.235,0,0,1,.55.531,4.518,4.518,0,0,1,1.31,3.05,5.592,5.592,0,0,1-.154,1.409c-.029.119-.059.22-.092.322l-.06.195c-.077.237-.138.427-.218.628a17.185,17.185,0,0,0-.945,3.242c-.067.357-.12.714-.161,1.067l-.031.134a1.161,1.161,0,0,0-.04.254l.007.083a1.059,1.059,0,0,0,.01.165,16.3,16.3,0,0,0,.152,3.568l.13.757a17.845,17.845,0,0,0,.605,2.268c1.052,3.038,2.1,6,3.122,8.79l.543,1.5a6.357,6.357,0,0,0,1.143,1.748,1.5,1.5,0,0,1,.167,2.1,1.412,1.412,0,0,1-1.031.474,1.451,1.451,0,0,1-1.076-.492c-.26-.273-.532-.567-.782-.87l-.266-.339a4.243,4.243,0,0,1-.594-1.042c-1.477-3.953-2.994-8.016-4.267-12.109a17.488,17.488,0,0,1-.771-4.323l-.017-.451a18.279,18.279,0,0,1,.473-4.465c.419-1.294.751-2.34,1.047-3.31a2.01,2.01,0,0,0-.662-2.783,9.514,9.514,0,0,1-.745-.788,4.18,4.18,0,0,0-1.339-1.176l-.084-.042a1.168,1.168,0,0,0-.838-.05c-.434.078-.86.152-1.277.223-1.426.241-2.459.375-3.457.454l-.158.013c-.457.016-.9.03-1.348.054-.078,0-.159.011-.242.021-.057.007-.114.017-.17.028a.646.646,0,0,0-.333.152c-.087.1-.175.181-.264.262l-.238.207a2.216,2.216,0,0,0-.232.183,7.3,7.3,0,0,1-.76.628,7.125,7.125,0,0,1-.838.519l-.133.071-.052.026c-.089.041-.177.081-.266.119l-.3.12a6.616,6.616,0,0,1-.65.217l-.1.028a8.592,8.592,0,0,1-2.08.251c-.365-.013-.745-.018-1.124-.055s-.786-.1-1.175-.176l-.284-.076a12.43,12.43,0,0,1-3.647-1.417l-.144-.09c-.268-.172-.527-.367-.763-.552l-.088-.071c-.083-.065-.165-.134-.247-.2h-.012l-.088-.089c-.075-.07-.136-.13-.2-.191l-.1-.095a8.67,8.67,0,0,1-1.872-2.875c-.054-.138-.116-.27-.176-.4l-.153-.385a6.843,6.843,0,0,1-.218-.686,2.445,2.445,0,0,0-.475-.84c-.194-.25-.372-.508-.547-.765l-.262-.392c-.107-.172-.208-.334-.313-.5a21.427,21.427,0,0,1-1.526-2.812l-.062-.142c-.028-.064-.057-.129-.083-.194l-.046-.046v-.067c-.089-.22-.167-.427-.241-.629h-.09v-.253c-.088-.259-.176-.528-.259-.8-.023-.073-.043-.149-.063-.224l-.062-.223c-.031-.111-.064-.22-.09-.333l-.029-.134c-.043-.2-.085-.4-.124-.6l-.048-.239a15.008,15.008,0,0,1-.189-1.545c-.019-.259-.03-.516-.035-.773a14.541,14.541,0,0,1,.451-3.826c.086-.332.18-.653.281-.971v0h0c.081-.251.171-.5.262-.737l.059-.16a14.53,14.53,0,0,1,.736-1.592v0l.27-.484a11.805,11.805,0,0,1,1.95-2.526c.037-.033.072-.059.106-.086a12.8,12.8,0,0,1,1.485-1.245l.026-.027a9.533,9.533,0,0,1,1.833-1.1c.1-.058.142-.081.188-.1.08-.042.172-.087.267-.129.141-.064.236-.1.33-.141l.481-.208.01.006a18.274,18.274,0,0,1,3.109-.911q.393-.079.811-.138a20.106,20.106,0,0,1,2.164-.195,23.224,23.224,0,0,1,4.651.393c.469.088.936.189,1.405.3a30.463,30.463,0,0,1,4.314,1.415l.24.1c.248.1.461.191.672.288l.208.094c1.113.509,2.2,1.109,3.258,1.691.544.3,1.072.59,1.6.868l.308.18a.97.97,0,0,0,.146.073c.054.023.108.041.168.06l.053.016a1.366,1.366,0,0,0,.151.037,1.272,1.272,0,0,0,.649.007,41.785,41.785,0,0,1,23.931,0,1.467,1.467,0,0,0,.575.01l.071-.011c.07-.02.108-.03.144-.04a1.5,1.5,0,0,0,.373-.149l.318-.188c.524-.277,1.048-.564,1.573-.854,1.087-.6,2.2-1.208,3.326-1.722l.161-.073c.225-.1.45-.2.675-.288l.234-.1a29.415,29.415,0,0,1,5.721-1.719,22.819,22.819,0,0,1,4.645-.393,19.01,19.01,0,0,1,2.981.333q.516.1,1.021.232c.5.129,1,.282,1.523.468l.041.01a9.8,9.8,0,0,1,1.976.863l-.032-.082.778.5c.069.041.134.084.2.128l.437.287c.183.123.365.244.539.374l.2.162a12.518,12.518,0,0,1,2.025,1.978l.067.068s.067.081.164.209a12.037,12.037,0,0,1,1.558,2.638l.023.075a16,16,0,0,1,.874,2.5c.112.434.2.881.274,1.328.025.156.041.314.056.473l.046.409c.021.153.04.3.048.458h0a14.536,14.536,0,0,1-.081,2.706c-.03.256-.07.514-.115.772l-.049.248c-.037.193-.08.387-.122.582l-.03.137c-.028.123-.063.243-.1.363l-.117.424c-.09.291-.183.574-.276.845-.106.294-.209.582-.33.869l0,.008h0l-.256.581a21.415,21.415,0,0,1-1.445,2.635l-.555.862c-.195.286-.373.544-.567.794a2.422,2.422,0,0,0-.474.84c-.057.23-.132.442-.211.663l-.153.389c-.083.183-.136.3-.184.421a8.539,8.539,0,0,1-.361.79c-.134.256-.277.5-.434.745a8.686,8.686,0,0,1-1.072,1.334l-.1.1c-.064.066-.132.136-.207.2-.111.1-.228.2-.342.286l-.076.06a9.368,9.368,0,0,1-.774.56l-.134.083a12.5,12.5,0,0,1-3.629,1.424l0,0-.295.069a11.98,11.98,0,0,1-2.273.232h-.032a8.748,8.748,0,0,1-1.4-.125l-.092-.014c-.2-.031-.393-.063-.581-.111l-.188-.053c-.1-.03-.187-.057-.271-.085-.144-.051-.257-.094-.383-.142-.166-.064-.328-.13-.491-.209l-.173-.09a7.329,7.329,0,0,1-1.6-1.15,2.179,2.179,0,0,0-.234-.185l-.236-.2c-.087-.08-.176-.164-.261-.257a.339.339,0,0,0-.1-.077,1.786,1.786,0,0,0-.644-.126c-.467-.025-.892-.038-1.31-.052l-.087-.008a45,45,0,0,1-4.843-.683,1.123,1.123,0,0,0-.84.05l-.062.061h-.064a4.458,4.458,0,0,0-1.294,1.155,9.458,9.458,0,0,1-.747.789c-.135.122-.255.237-.362.351a1.685,1.685,0,0,0-.472,1.937c.045.144.1.3.161.457l.022.07c.132.433.272.881.42,1.346.188.587.386,1.207.607,1.888l.017.1a17.818,17.818,0,0,1,.458,3.633l.018-.01-.026,1.23a17.3,17.3,0,0,1-.77,4.33c-1.279,4.11-2.8,8.176-4.268,12.109a3.723,3.723,0,0,1-.368.7l.007.05-.155.173c-.034.053-.05.081-.072.109l-.344.468-.008-.028c-.241.285-.484.546-.7.776A1.448,1.448,0,0,1,1584.354-520.72Zm10.479-50.479c.118.147.219.285.319.424l.113.152c.13.191.249.384.363.581l.1.178a9.092,9.092,0,0,1,.951,5.717c-.042.3-.1.594-.164.9a19.7,19.7,0,0,1-6.768,10.7,4.15,4.15,0,0,0-1.517,4.386c.018.078.032.124.046.171l.1.333c.07.214.126.386.2.566a17.48,17.48,0,0,1,1.146,4.477,2.046,2.046,0,0,1,.063.345,1.126,1.126,0,0,1,0,.248l-.307.07.3.007a.984.984,0,0,1-.01.119,15.751,15.751,0,0,1-.159,3.635l-.125.7a18.162,18.162,0,0,1-.628,2.358c-.936,2.7-1.9,5.41-2.851,8.043l-.9,2.444a7.451,7.451,0,0,1-1.162,1.741c-.439.52-.5.961-.184,1.307a.809.809,0,0,0,1.226-.023c.236-.249.5-.538.755-.841l.393-.537a3.418,3.418,0,0,0,.367-.674c1.465-3.924,2.983-7.981,4.258-12.075a16.864,16.864,0,0,0,.741-4.175l.015-.538v-.177a17.627,17.627,0,0,0-.456-4.048c-.217-.662-.415-1.283-.6-1.872-.153-.483-.3-.945-.436-1.395-.067-.171-.124-.332-.17-.486a2.283,2.283,0,0,1,.609-2.523c.115-.123.248-.251.4-.386a8.76,8.76,0,0,0,.682-.723,4.961,4.961,0,0,1,1.528-1.33l.054-.024a1.666,1.666,0,0,1,1.251-.126,45.5,45.5,0,0,0,4.826.682c.439.014.869.028,1.3.051a2.328,2.328,0,0,1,.927.195.934.934,0,0,1,.277.211c.07.077.146.147.22.217.048.045.1.092.144.138a2.474,2.474,0,0,1,.331.256,6.713,6.713,0,0,0,1.47,1.056l-.046.315.133-.271.067.037v0l.01,0c.145.071.288.129.432.187.118.044.226.084.331.122.126.043.218.073.312.1l.132.038c.168.043.346.07.525.1l.094.013a6.306,6.306,0,0,0,1.338.118,11.325,11.325,0,0,0,2.15-.22l.088-.021.029-.008.026-.028h.127a12.022,12.022,0,0,0,3.464-1.36l.129-.082a8.8,8.8,0,0,0,.719-.518l.073-.06c.106-.085.213-.17.314-.261.066-.06.124-.122.182-.18l.1-.1a8.034,8.034,0,0,0,1-1.242,7.671,7.671,0,0,0,.4-.692q.186-.357.337-.736c.052-.13.107-.255.164-.38l.162-.4c.075-.209.143-.4.2-.614a2.928,2.928,0,0,1,.584-1.064c.185-.24.355-.487.525-.735l.564-.876a20.708,20.708,0,0,0,1.457-2.675v-.236h.1l.07-.162c.14-.337.241-.615.341-.9.09-.26.18-.537.267-.819l.115-.416c.032-.111.065-.221.091-.335l.028-.135c.042-.183.082-.373.119-.563l.048-.243c.042-.241.079-.486.11-.733a14.056,14.056,0,0,0,.078-2.6h0c-.008-.141-.027-.28-.046-.42l-.048-.43c-.013-.146-.026-.291-.051-.434-.067-.43-.156-.858-.263-1.273a15.368,15.368,0,0,0-.851-2.437l-.025-.082a11.619,11.619,0,0,0-1.465-2.473c-.041-.055-.075-.1-.1-.132l-.075-.079a11.907,11.907,0,0,0-2.041-1.994l-.125-.1c-.173-.129-.345-.244-.52-.36l-.44-.291-.062-.042-.1-.053a13.8,13.8,0,0,0-1.906-.988l-.681-.241c-.533-.193-1.037-.348-1.541-.478-.324-.083-.652-.159-.988-.224a18.106,18.106,0,0,0-2.883-.323,21.68,21.68,0,0,0-4.515.384,28.754,28.754,0,0,0-5.6,1.685l-.233.1c-.219.09-.44.182-.658.279l-.158.071c-1.109.505-2.208,1.111-3.271,1.7-.539.3-1.065.585-1.595.866h0l-.29.171a2.033,2.033,0,0,1-.495.206c-.072.022-.144.038-.217.054l-.071-.292-.031.312a2.148,2.148,0,0,1-.829-.026,41.161,41.161,0,0,0-23.591,0,2.089,2.089,0,0,1-.849.024l-.077-.014c-.075-.018-.134-.031-.188-.047l-.042-.013a2.417,2.417,0,0,1-.266-.091,1.376,1.376,0,0,1-.227-.116l-.289-.168c-.516-.273-1.048-.566-1.579-.858-1.077-.592-2.173-1.2-3.281-1.7l-.158-.072c-.207-.093-.415-.178-.621-.263l-.272-.112a30.013,30.013,0,0,0-4.228-1.389q-.688-.166-1.374-.3a21.543,21.543,0,0,0-4.521-.384,19.971,19.971,0,0,0-2.1.188c-.266.04-.527.084-.78.135a17.585,17.585,0,0,0-3.142.934l-.353.147c-.085.034-.171.069-.254.107-.138.063-.219.1-.3.141l-.188.1a10.9,10.9,0,0,0-1.6.936v.01l-.126.1a11.871,11.871,0,0,0-1.462,1.223l-.129.1a11.531,11.531,0,0,0-1.841,2.4h0l-.191.345h0l0,0a14.386,14.386,0,0,0-.755,1.617v0h0l-.057.156-.006.016h0c-.087.231-.172.46-.25.7q-.146.458-.27.936a13.858,13.858,0,0,0-.433,3.668c.005.245.016.493.033.74.032.457.088.924.166,1.391l.021.02v.129l.04.171c.039.2.079.39.123.584l.017.082c.034.144.063.245.091.346l.066.236c.018.067.035.136.057.2.065.213.132.425.2.629h0l.069.206c.1.274.194.537.3.8l.01.026,0,.011.024.059c.027.066.055.13.083.194l.061.137a21.039,21.039,0,0,0,1.482,2.735c.107.166.211.33.313.5l.237.356c.185.271.355.518.541.758a2.942,2.942,0,0,1,.582,1.064,6.427,6.427,0,0,0,.2.62l.143.362c.059.127.123.268.182.415a8.073,8.073,0,0,0,1.739,2.671l.1.1.1.1h0l.09.089c.1.089.2.168.295.245l.088.071c.2.155.413.32.639.468h.035l.173.131a11.906,11.906,0,0,0,3.528,1.366l.148.083-.025.025.023.237.058-.295c.372.072.749.129,1.122.167.357.035.714.05,1.06.053a8.027,8.027,0,0,0,1.929-.231l.093-.026a6.488,6.488,0,0,0,.645-.219l.208-.083c.086-.036.154-.067.223-.1l.138-.07a6.97,6.97,0,0,0,.831-.51,6.568,6.568,0,0,0,.7-.578,2.7,2.7,0,0,1,.292-.232l.183-.162a2.927,2.927,0,0,0,.223-.22,1.181,1.181,0,0,1,.655-.338,2.275,2.275,0,0,1,.225-.037c.1-.012.191-.019.281-.025.45-.024.9-.038,1.351-.053l.145-.012c.975-.077,1.994-.211,3.4-.446q.623-.107,1.272-.223a1.748,1.748,0,0,1,1.249.126l.067.028.006,0a4.8,4.8,0,0,1,1.5,1.306,9.2,9.2,0,0,0,.7.739,2.56,2.56,0,0,1,.83,3.416c-.294.963-.627,2.014-1.04,3.282a17.626,17.626,0,0,0-.45,4.29l.017.442a16.982,16.982,0,0,0,.742,4.172c1.27,4.075,2.784,8.13,4.249,12.052a3.63,3.63,0,0,0,.517.911l.256.328c.237.285.5.569.751.834a.807.807,0,0,0,1.226.024c.317-.345.255-.787-.184-1.307a6.882,6.882,0,0,1-1.247-1.926l-.562-1.55c-1.016-2.782-2.06-5.727-3.108-8.75a18.619,18.619,0,0,1-.627-2.352l-.132-.771a16.279,16.279,0,0,1-.155-3.639.53.53,0,0,1-.014-.162,1.088,1.088,0,0,1-.007-.136,1.745,1.745,0,0,1,.06-.385l.02-.077c.036-.338.092-.708.16-1.079a17.982,17.982,0,0,1,.978-3.356c.075-.188.132-.365.189-.538l.074-.241c.029-.091.055-.178.076-.263a4.936,4.936,0,0,0,.142-1.272,3.937,3.937,0,0,0-1.15-2.657,6.488,6.488,0,0,0-.5-.486,19.706,19.706,0,0,1-6.768-10.7,9.747,9.747,0,0,1,.187-5.227c.088-.262.182-.5.284-.74.1-.221.2-.438.318-.646l.144-.258c.115-.195.226-.367.344-.535.142-.206.29-.4.449-.594s.307-.348.463-.51l.1-.107c.184-.181.348-.327.514-.473l.155-.137c.2-.168.407-.334.623-.491l.22-.161c.2-.15.4-.291.605-.419a21.4,21.4,0,0,1,8.316-2.739l.513-.073a37.108,37.108,0,0,1,5.905-.419,37.443,37.443,0,0,1,5.9.419l.514.072a26.69,26.69,0,0,1,4.738,1.093,17.629,17.629,0,0,1,3.576,1.647c.214.131.409.273.6.413l.267.2c.313.233.578.452.822.67.171.15.286.255.392.36l.089.091c.187.19.351.372.5.551l.066.043Zm-59.793-4.542v0Zm71.862,24.116-.072-.013c-.124-.035-.256-.064-.408-.1-.3-.067-.609-.136-.931-.225a.763.763,0,0,1-.15-.04l-.073-.024c-.191-.063-.345-.118-.492-.177l-.059-.022c-.166-.07-.312-.138-.444-.208h-.047l-.059-.059c-.095-.053-.183-.106-.265-.16s-.163-.108-.237-.165l-.1-.088a3.559,3.559,0,0,1-1.123-3.724,4.251,4.251,0,0,1,.208-.592,5.922,5.922,0,0,1,1.046-1.663c.117-.125.236-.238.357-.351l.194-.189c.063-.063.126-.126.2-.189a8.3,8.3,0,0,1,2.423-1.49,8.233,8.233,0,0,1,.812-.273l.033-.031h.083a9.964,9.964,0,0,1,1.153-.277,8.84,8.84,0,0,1,1.177-.129h.035l.059.007c.274.063.52.109.764.158l.156.031a.392.392,0,0,1,.072,0,5.988,5.988,0,0,1,1.6.415l.064.027a4.4,4.4,0,0,1,.678.374,1,1,0,0,1,.107.087,4.52,4.52,0,0,1,.472.4c.069.069.123.125.176.185l.07.078a3.474,3.474,0,0,1,.81,2.935l-.01.049a3.469,3.469,0,0,1-.089.414l-.012.042a.706.706,0,0,1-.03.107,4.278,4.278,0,0,1-.332.771l-.035.066a.43.43,0,0,1-.038.059l-.072.128c-.045.071-.085.137-.126.2-.14.22-.287.433-.445.637a7.263,7.263,0,0,1-3.816,2.54q-.388.112-.8.189c-.451.093-.836.155-1.227.2s-.79.078-1.206.091Zm-1.994-1.172.04.016c.15.061.3.117.47.171l.206.063c.337.091.634.159.884.214.207.047.348.078.457.109.36-.017.738-.046,1.118-.09s.741-.106,1.126-.186a8.108,8.108,0,0,0,.805-.184,6.677,6.677,0,0,0,3.506-2.332,6.956,6.956,0,0,0,.41-.588l.264-.439a3.782,3.782,0,0,0,.28-.652l.021-.084a3.275,3.275,0,0,0,.094-.424l.009-.052a2.871,2.871,0,0,0-.668-2.391l-.089-.1c-.049-.053-.084-.09-.12-.125a3.18,3.18,0,0,0-.37-.313c-.042-.03-.068-.054-.095-.077a3.331,3.331,0,0,0-.57-.332l-.06-.028a5.308,5.308,0,0,0-1.488-.392l-.256-.037c-.268-.052-.521-.1-.77-.16a9.413,9.413,0,0,0-1.063.123,9.684,9.684,0,0,0-1.057.251l0,0-.077.02-.009,0-.022.006a7.511,7.511,0,0,0-.8.263,7.692,7.692,0,0,0-2.247,1.384c-.061.054-.117.109-.172.165l-.2.2c-.115.106-.225.209-.331.322a5.358,5.358,0,0,0-.934,1.493,3.89,3.89,0,0,0-.181.513,2.918,2.918,0,0,0,.912,3.086l.1.085c.065.049.131.1.2.142s.13.081.2.122h0l.07.038h0l.03.017C1604.642-552.917,1604.766-552.858,1604.908-552.8Zm-57.055,1.171a13.113,13.113,0,0,1-2.387-.282l-.067-.008a7.4,7.4,0,0,1-4.986-3.232h-.136v-.214c-.037-.057-.083-.131-.128-.207l-.017-.03a1.165,1.165,0,0,1-.067-.114c-.076-.14-.142-.277-.2-.409s-.1-.262-.147-.392l-.07-.27c-.031-.134-.053-.24-.067-.341a3.494,3.494,0,0,1,.558-2.607c.067-.1.138-.185.213-.274l.067-.134h.048c.059-.064.1-.112.148-.155l.069-.111h.045a4.856,4.856,0,0,1,2.825-1.208l.226-.032c.243-.048.493-.1.739-.153l.093-.013a9.513,9.513,0,0,1,2.412.417,8.193,8.193,0,0,1,.851.284c.253.1.467.2.681.312l.071.032c.046.021.091.041.136.065.076.041.152.089.228.137l.22.134c.12.072.243.143.36.226.159.111.313.237.466.362l.138.11c.052.04.1.079.153.123.072.061.137.128.2.195l.194.186c.118.111.237.223.35.345a5.878,5.878,0,0,1,1.048,1.665,3.584,3.584,0,0,1-.705,4.125l.006.01-.395.344-.013,0-.016.013-.041-.022.017.025-.12.083c-.09.058-.186.114-.291.171l-.071.04c-.129.069-.276.138-.442.208l-.06.022c-.179.071-.355.135-.533.189h0c-.05.019-.079.029-.107.037l-.087.012c-.309.091-.616.16-.877.218-.195.045-.327.073-.431.1Zm-2.229-.862a12.551,12.551,0,0,0,2.21.26c.073-.028.214-.059.374-.1.3-.065.6-.132.92-.22l.134-.038c.2-.06.375-.128.555-.2l.021-.007a3.914,3.914,0,0,0,.424-.2l.073-.04c.068-.04.131-.078.193-.117l.256-.174,0-.007.01.006.084-.02-.033-.039a2.993,2.993,0,0,0,.728-3.6,5.312,5.312,0,0,0-.936-1.493c-.1-.113-.213-.214-.323-.316l-.2-.2c-.06-.06-.115-.117-.176-.168a1.469,1.469,0,0,0-.115-.091l-.114-.09c-.189-.154-.33-.269-.477-.372-.1-.073-.213-.136-.32-.2l-.241-.147c-.06-.04-.123-.081-.187-.114-.031-.018-.062-.03-.091-.043l-.1-.046c-.2-.1-.4-.2-.6-.282a8.54,8.54,0,0,0-.828-.273,8.9,8.9,0,0,0-2.234-.395c-.22.057-.477.107-.734.156l-.181.03-.054-.3-.03.3a4.2,4.2,0,0,0-2.552,1.115l-.016.016-.025.025-.019.018c-.034.036-.067.071-.1.107l-.276-.141.086.085.157.078-.089.173h-.046c-.038.049-.076.1-.112.15a2.862,2.862,0,0,0-.458,2.167c.013.094.032.184.054.279l.042.16-.266.174.286-.09c.036.112.077.223.126.336s.111.241.181.373l.06.1.084.14h.137l.017.251a6.872,6.872,0,0,0,4.6,2.988Zm5.194-.455.1.141v-.022Zm3.3-1.325.009-.539a9.191,9.191,0,0,0-.04-.989,9.133,9.133,0,0,0-2.446-4.852,9.169,9.169,0,0,0-1.245-.927,10.75,10.75,0,0,0-4.126-1.571,4.1,4.1,0,0,1-.5-.088c-.047-.012-.094-.026-.142-.042l-.124-.037c-.055-.016-.109-.031-.165-.051s-.1-.014-.156-.025l-.115-.029-.13-.036h-.08l-.046-.043a1.413,1.413,0,0,1-.26-.135l-.106-.1a.666.666,0,0,1-.184-.223l-.052-.1c-.036-.037-.071-.077-.107-.118l-.083-.093a1.561,1.561,0,0,1-.111-.125c-.054-.067-.1-.14-.15-.213l.183-.263-.244.174a1.162,1.162,0,0,1-.07-.1c-.06-.1-.111-.192-.161-.286l-.069-.125c-.061-.124-.121-.251-.176-.369a9.65,9.65,0,0,1-.652-1.889,4.246,4.246,0,0,1,2.279-5.064h0l.006,0,.071-.045.013,0a6.162,6.162,0,0,1,2.28-.568,13.9,13.9,0,0,1,4.554.544c.073.019.153.042.232.067l.236.071c.216.066.428.132.641.2.47.155.857.292,1.212.433.248.1.439.181.628.26.229.1.453.191.675.3l.75.341.78.351.409.18-.158.419c-2.08,5.657.163,10.354,2.633,14.2l.312.485-.037.013.213.339-1.863.2a9.614,9.614,0,0,1-1.136.2l-.128.017a11.326,11.326,0,0,1-1.2.067l-.261,0Zm3-.842.152.283-.037-.3a9.007,9.007,0,0,0,1.076-.194l.972-.108-.089-.138.036-.014c-2.5-3.923-4.726-8.7-2.646-14.492l-.676-.306-.751-.342c-.221-.1-.435-.2-.657-.289-.186-.077-.375-.156-.575-.236-.387-.155-.762-.29-1.223-.44-.208-.071-.416-.136-.626-.2l-.006-.318-.086.289-.148-.043c-.075-.024-.143-.045-.211-.061a13.3,13.3,0,0,0-4.363-.523,5.53,5.53,0,0,0-2.1.528l-.053.028-.011,0-.043.019a3.68,3.68,0,0,0-1.894,4.367,9.216,9.216,0,0,0,.615,1.772c.049.111.1.227.167.35l-.217.23.266-.141c.053.1.1.186.152.273l.119.174c.04.059.079.118.124.174.022.029.048.054.071.081l.106.117c.034.037.065.076.1.111l.259.351c.013,0,.072.03.14.055l.12.035,0,.032.013.011-.016.014-.023.247.126-.277a1.276,1.276,0,0,0,.167.028c.12.036.171.049.221.063l.148.046c.031.01.062.02.095.029a3.561,3.561,0,0,0,.427.076,11.338,11.338,0,0,1,4.37,1.656,9.962,9.962,0,0,1,1.339,1l.054.063a9.664,9.664,0,0,1,2.578,5.144c.034.379.048.676.048.945l1.238-.107A11.094,11.094,0,0,0,1557.115-555.11Zm43.533.841-1.649-.176h-.208a10.846,10.846,0,0,1-1.225-.069,11.322,11.322,0,0,1-1.278-.225l-1.832-.2.47-.789c2.494-3.9,4.739-8.595,2.657-14.254l-.155-.417.409-.179.885-.4.644-.292c.42-.2.845-.369,1.245-.531l0,0a.322.322,0,0,1,.1-.044c.3-.125.687-.263,1.164-.419.236-.081.477-.156.719-.227l.165-.049c.047-.015.1-.03.146-.043l.033-.031h.085a13.914,13.914,0,0,1,4.512-.533,6.147,6.147,0,0,1,2.373.612l.014.006a4.134,4.134,0,0,1,2.385,4.24,5.847,5.847,0,0,1-.121.82,9.652,9.652,0,0,1-.652,1.887c-.054.119-.112.245-.177.374l-.068.124-.3-.081.233.2c-.029.053-.059.108-.094.164s-.058.089-.091.136l-.323-.061.25.166c-.039.057-.076.113-.119.167a1.475,1.475,0,0,1-.119.132h0l-.051.054c-.059.07-.1.112-.13.146l-.1.179a.886.886,0,0,1-.141.152.326.326,0,0,1-.078.077,1.311,1.311,0,0,1-.279.149l-.07.029a.966.966,0,0,1-.108.03l-.165-.267.087.289-.087.023c-.106.02-.176.031-.218.037a1.168,1.168,0,0,1-.2.066l-.19-.258.091.288-.091.026a4.2,4.2,0,0,1-.5.088,9.093,9.093,0,0,0-2.794.852c-.337.158-.649.322-.931.482-.142.081-.277.161-.4.238a9.447,9.447,0,0,0-1.259.94l-.009.01a9.023,9.023,0,0,0-2.274,4.144c-.058.233-.11.469-.152.709-.029.339-.042.661-.037.965Zm-5.157-1.16.885.1a10.828,10.828,0,0,0,1.194.214,10.3,10.3,0,0,0,1.226.073l.249,0,.011.3.032-.3.947.1c0-.284.015-.58.043-.9l.016-.077c.034-.211.088-.461.151-.707a9.616,9.616,0,0,1,2.447-4.441l.08-.058a8.853,8.853,0,0,1,1.284-.963c.131-.079.271-.164.417-.247.3-.17.623-.341.974-.505a9.7,9.7,0,0,1,2.979-.9,3.473,3.473,0,0,0,.427-.076l.2.254-.082-.29c.127-.036.2-.055.273-.083l.106-.019s.051-.008.111-.022l.147.273-.024-.3.2.256-.1-.282a.935.935,0,0,0,.2-.095h0c-.01,0,.008-.022.031-.041l.2-.283a.853.853,0,0,0,.078-.085l.119-.13a1.147,1.147,0,0,0,.079-.09,1.544,1.544,0,0,0,.093-.129l.084-.122c.023-.034.047-.065.067-.1s.054-.093.076-.135l.129-.23c.06-.122.114-.237.164-.349a9.145,9.145,0,0,0,.615-1.771,5.35,5.35,0,0,0,.11-.734,3.512,3.512,0,0,0-2.054-3.657l-.053-.026a5.543,5.543,0,0,0-2.1-.529,13.151,13.151,0,0,0-4.282.5h0l-.08.02-.01,0-.023.006c-.057.016-.114.031-.171.049l-.157.047c-.245.072-.48.147-.712.226-.463.15-.836.284-1.162.415l-.117-.267.1.272c-.449.183-.865.35-1.274.543l-.621.281c-.283.129-.546.249-.811.368,2.095,5.833-.18,10.642-2.7,14.582l.028.026Zm21.413-4.717-4.486-3.338.462-1.091a16.275,16.275,0,0,0,.734-1.859,6.491,6.491,0,0,0-.5-5.363,6.55,6.55,0,0,0-4.618-2.863c-.373-.062-.771-.108-1.217-.141-.125,0-.255,0-.383,0h-.135c-.445,0-.838.014-1.2.045a15.522,15.522,0,0,0-1.685.238l-.021.022-.251.036c-.155.033-.277.06-.4.094-1.375.418-2.685.892-4.251,1.469-.4.179-.813.371-1.2.552l-1,.462-4.432-3.712-.485-.161.165-.111-.065-.054.422-.184.206-.136c.525-.248,1.006-.475,1.482-.7,1.112-.564,2.047-1.032,3.055-1.46.885-.375,1.772-.708,2.637-.99l.063-.031.018,0,.189-.059.176-.053a19.2,19.2,0,0,1,8.288-.942c.093,0,.137.007.183.013a13.577,13.577,0,0,1,4.453,1.266l2.032,1.058-.2.025q.451.33.882.709c.185.168.362.338.527.506l.034.034c.186.191.355.378.513.56l.081.1a13.194,13.194,0,0,1,1.2,1.64c2.714,4.685,1.5,10.359-.777,13.65h0l-.079.131c-.046.082-.1.164-.149.242Zm-3.771-3.556,3.627,2.7c.019-.03.036-.06.053-.09l.1-.155.258.155-.248-.171c2.173-3.141,3.335-8.547.756-13a13.028,13.028,0,0,0-1.144-1.558l-.078-.093c-.124-.142-.259-.29-.4-.44l-.087-.089c-.167-.172-.345-.344-.532-.513a11.091,11.091,0,0,0-1.468-1.1l-.184-.116-.935-.486a12.973,12.973,0,0,0-4.257-1.207l-.182-.015a18.6,18.6,0,0,0-8.038.921l-.144.043c-.111.032-.188.057-.275.085l-.06.017c-.869.29-1.708.606-2.547.963-.99.419-1.916.882-3.023,1.444-.385.184-.766.367-1.15.546l.042.022-.155.072,3.8,3.175.586-.269c.457-.213.871-.406,1.282-.59,1.607-.593,2.924-1.071,4.32-1.493.136-.041.271-.07.407-.1l.236-.054a16.763,16.763,0,0,1,1.829-.261c.381-.031.791-.047,1.251-.047h.131c.134,0,.273,0,.415,0,.48.035.9.083,1.287.149a7.14,7.14,0,0,1,5.031,3.137,7.084,7.084,0,0,1,.562,5.855,16.834,16.834,0,0,1-.759,1.928l-.182.411-.279-.113.243.184Zm-75.271,3.556-.281-.406c-.052-.075-.1-.156-.148-.237l-.088-.147a13.576,13.576,0,0,1-1.586-11.917c.114-.306.241-.605.383-.9.151-.319.308-.614.481-.9l.089-.169a10.632,10.632,0,0,1,.768-1.05l.533-.638v.022c.243-.271.5-.532.774-.782.124-.107.239-.2.349-.3l.084-.069c.225-.184.431-.344.625-.486l.2-.143-.013-.007.442-.286a8.5,8.5,0,0,1,.8-.463l.1-.04c.331-.174.7-.343,1.075-.493a13.816,13.816,0,0,1,3.663-.9c.042,0,.085-.007.126-.008a19.354,19.354,0,0,1,8.317.934l.45.14c.442.143.882.3,1.325.463s.885.344,1.327.532c.25.106.5.214.743.327.75.343,1.523.733,2.254,1.1h.053l.053.052q.69.33,1.4.659l.652.3-.561.529-4.02,3.406-.035-.011-.184.156-.928-.43c-.411-.19-.848-.393-1.293-.592-.634-.232-1.242-.455-1.831-.664-.383-.134-.757-.265-1.129-.389-.425-.141-.848-.279-1.277-.41-.114-.033-.236-.06-.355-.085-.078-.016-.158-.032-.236-.053a14.579,14.579,0,0,0-3.487-.29c-.215.014-.427.035-.631.058s-.391.05-.574.081a6.55,6.55,0,0,0-4.618,2.863,5.593,5.593,0,0,0-.309.573,5.457,5.457,0,0,0-.213.532,6.9,6.9,0,0,0,.024,4.261,16.038,16.038,0,0,0,.724,1.836l.517,1.061-.292.227Zm-.526-14.54c-.036.053-.071.108-.108.164a1.729,1.729,0,0,1-.089.17c-.162.274-.309.554-.444.835-.145.3-.265.587-.371.875a12.95,12.95,0,0,0,1.523,11.377l.1.172c.018.03.035.06.054.09l3.634-2.7-.3-.612a16.916,16.916,0,0,1-.764-1.94,7.494,7.494,0,0,1-.018-4.63,6.218,6.218,0,0,1,.237-.588,6.1,6.1,0,0,1,.342-.638,7.142,7.142,0,0,1,5.03-3.137c.191-.034.392-.061.605-.085s.433-.046.669-.061a15.588,15.588,0,0,1,3.647.3c.088.021.159.036.229.051.137.029.272.058.4.1.439.133.866.272,1.3.415.373.126.753.258,1.137.395.592.208,1.2.431,1.858.673.468.208.907.411,1.319.6l.58.267.145-.122.033.011,3.652-3.091q-.621-.291-1.226-.58l-.07-.032-.012-.006-.025-.013c-.733-.372-1.51-.764-2.259-1.106-.241-.111-.481-.217-.726-.32-.437-.185-.871-.359-1.305-.524s-.866-.315-1.3-.456l-.424-.129a18.707,18.707,0,0,0-8.038-.921l-.183.013a13.144,13.144,0,0,0-3.5.864c-.355.142-.708.3-1.048.479l-.118.046c-.047.025-.138.073-.268.147l-.439.274c-.209.13-.405.272-.6.414s-.383.289-.6.464l-.079.066c-.106.089-.219.184-.335.284a10.745,10.745,0,0,0-1.237,1.345Z" transform="translate(-1532.775 582.838)" fill="#74a839"/>
              </g>
            </g>
          </g>
        </g>
        <g id="Grupo_6290" data-name="Grupo 6290" transform="translate(36.574 59.175)">
          <path id="Trazado_3428" data-name="Trazado 3428" d="M1570.809-528.768a12.48,12.48,0,0,1-7.64-2.4l1.917-2.32c.2.161,4.937,3.875,12.62-.167l1.4,2.663A17.758,17.758,0,0,1,1570.809-528.768Z" transform="translate(-1563.17 533.659)" fill="#74a839"/>
        </g>
      </g>
      <g id="Grupo_6295" data-name="Grupo 6295" transform="translate(1533.679 -619.822)">
        <g id="Grupo_6292" data-name="Grupo 6292" transform="translate(24.86 29.893)">
          <path id="Trazado_3429" data-name="Trazado 3429" d="M1590.068-586.373a1.8,1.8,0,0,1-.929-.257,32.02,32.02,0,0,0-32.2-.72,1.805,1.805,0,0,1-2.482-.592,1.8,1.8,0,0,1,.587-2.48,35.622,35.622,0,0,1,35.956.7,1.8,1.8,0,0,1,.618,2.476A1.8,1.8,0,0,1,1590.068-586.373Z" transform="translate(-1554.187 594.979)" fill="#74a839" stroke="#74a839" stroke-width="1"/>
        </g>
        <g id="Grupo_6293" data-name="Grupo 6293" transform="translate(12.557 15.64)">
          <path id="Trazado_3430" data-name="Trazado 3430" d="M1604.451-593.779a1.8,1.8,0,0,1-1-.3c-29.339-19.6-55.564-2.124-56.664-1.368a1.806,1.806,0,0,1-2.508-.469,1.8,1.8,0,0,1,.464-2.508c.29-.2,29.3-19.649,60.712,1.344a1.8,1.8,0,0,1,.5,2.5A1.8,1.8,0,0,1,1604.451-593.779Z" transform="translate(-1543.962 606.824)" fill="#74a839" stroke="#74a839" stroke-width="1"/>
        </g>
        <g id="Grupo_6294" data-name="Grupo 6294">
          <path id="Trazado_3431" data-name="Trazado 3431" d="M1618.826-603.962a2.1,2.1,0,0,1-1.058-.285c-42.041-24.485-80.669-1.92-81.054-1.689a2.1,2.1,0,0,1-2.889-.724,2.1,2.1,0,0,1,.724-2.888c.407-.243,41.171-24.057,85.339,1.662a2.107,2.107,0,0,1,.76,2.879A2.109,2.109,0,0,1,1618.826-603.962Z" transform="translate(-1533.526 619.822)" fill="#74a839" stroke="#74a839" stroke-width="1"/>
        </g>
      </g>
    </g>
  </g>
</svg>
