<svg xmlns="http://www.w3.org/2000/svg" xmlns:xlink="http://www.w3.org/1999/xlink" width="227" height="216" viewBox="0 0 227 216">
  <defs>
    <filter id="Image" x="0" y="0" width="227" height="216" filterUnits="userSpaceOnUse">
      <feOffset dy="5" input="SourceAlpha"/>
      <feGaussianBlur stdDeviation="2.5" result="blur"/>
      <feFlood flood-opacity="0.161"/>
      <feComposite operator="in" in2="blur"/>
      <feComposite in="SourceGraphic"/>
    </filter>
  </defs>
  <g id="Grupo_455" data-name="Grupo 455" transform="translate(7.5 2.5)">
    <g transform="matrix(1, 0, 0, 1, -7.5, -2.5)" filter="url(#Image)">
      <g id="Image-2" data-name="Image" transform="translate(7.5 2.5)" fill="#fff" stroke="#a2e2ff" stroke-width="6">
        <rect width="212" height="201" rx="100.5" stroke="none"/>
        <rect x="3" y="3" width="206" height="195" rx="97.5" fill="none"/>
      </g>
    </g>
    <g id="Grupo_923" data-name="Grupo 923" transform="translate(90.303 -653.211)">
      <g id="Grupo_833" data-name="Grupo 833" transform="translate(-48.647 700.211)">
        <g id="Grupo_808" data-name="Grupo 808" transform="translate(6.085 4.018)">
          <g id="Grupo_807" data-name="Grupo 807">
            <g id="Grupo_806" data-name="Grupo 806">
              <path id="Trazado_1651" data-name="Trazado 1651" d="M-44.464,705.656a2.018,2.018,0,0,1-2.022-2.01,2,2,0,0,1,2-2.008h.023a2.009,2.009,0,0,1,2.01,2.008A2.01,2.01,0,0,1-44.464,705.656Z" transform="translate(46.486 -701.638)" fill="#74a839" stroke="#74a839" stroke-width="1"/>
            </g>
          </g>
        </g>
        <g id="Grupo_811" data-name="Grupo 811" transform="translate(12.116 4.018)">
          <g id="Grupo_810" data-name="Grupo 810">
            <g id="Grupo_809" data-name="Grupo 809">
              <path id="Trazado_1652" data-name="Trazado 1652" d="M-42.322,705.656a2.018,2.018,0,0,1-2.022-2.01,2,2,0,0,1,2-2.008h.023a2.009,2.009,0,0,1,2.01,2.008A2.01,2.01,0,0,1-42.322,705.656Z" transform="translate(44.344 -701.638)" fill="#74a839" stroke="#74a839" stroke-width="1"/>
            </g>
          </g>
        </g>
        <g id="Grupo_814" data-name="Grupo 814" transform="translate(18.15 4.018)">
          <g id="Grupo_813" data-name="Grupo 813">
            <g id="Grupo_812" data-name="Grupo 812">
              <path id="Trazado_1653" data-name="Trazado 1653" d="M-40.179,705.656a2.018,2.018,0,0,1-2.022-2.01,2,2,0,0,1,2-2.008h.023a2.009,2.009,0,0,1,2.01,2.008A2.01,2.01,0,0,1-40.179,705.656Z" transform="translate(42.201 -701.638)" fill="#74a839" stroke="#74a839" stroke-width="1"/>
            </g>
          </g>
        </g>
        <g id="Grupo_817" data-name="Grupo 817" transform="translate(0.037 8.036)">
          <g id="Grupo_816" data-name="Grupo 816">
            <g id="Grupo_815" data-name="Grupo 815">
              <path id="Trazado_1654" data-name="Trazado 1654" d="M78.056,801.491H-46.624a2.007,2.007,0,0,1-2.01-2.008V705.073a2.007,2.007,0,0,1,2.01-2.008H78.056a2.007,2.007,0,0,1,2.01,2.008v94.411A2.007,2.007,0,0,1,78.056,801.491ZM-44.61,797.473H76.046V707.08H-44.61Z" transform="translate(48.634 -703.065)" fill="#74a839" stroke="#74a839" stroke-width="1"/>
            </g>
          </g>
        </g>
        <g id="Grupo_820" data-name="Grupo 820">
          <g id="Grupo_819" data-name="Grupo 819">
            <g id="Grupo_818" data-name="Grupo 818">
              <path id="Trazado_1655" data-name="Trazado 1655" d="M-46.634,708.247a2.011,2.011,0,0,1-2.013-2.01,6.038,6.038,0,0,1,6.034-6.026,2.008,2.008,0,0,1,2.01,2.008,2.008,2.008,0,0,1-2.01,2.01,2.009,2.009,0,0,0-2.01,2.008A2.01,2.01,0,0,1-46.634,708.247Z" transform="translate(48.647 -700.211)" fill="#74a839" stroke="#74a839" stroke-width="1"/>
            </g>
          </g>
        </g>
        <g id="Grupo_823" data-name="Grupo 823" transform="translate(0 4.018)">
          <g id="Grupo_822" data-name="Grupo 822">
            <g id="Grupo_821" data-name="Grupo 821">
              <path id="Trazado_1656" data-name="Trazado 1656" d="M-46.634,709.671a2.008,2.008,0,0,1-2.013-2.008v-4.018a2.01,2.01,0,0,1,2.013-2.008,2.009,2.009,0,0,1,2.01,2.008v4.018A2.007,2.007,0,0,1-46.634,709.671Z" transform="translate(48.647 -701.638)" fill="#74a839" stroke="#74a839" stroke-width="1"/>
            </g>
          </g>
        </g>
        <g id="Grupo_826" data-name="Grupo 826" transform="translate(120.659)">
          <g id="Grupo_825" data-name="Grupo 825" transform="translate(0)">
            <g id="Grupo_824" data-name="Grupo 824">
              <path id="Trazado_1657" data-name="Trazado 1657" d="M.236,708.247a2.008,2.008,0,0,1-2.01-2.01,2.009,2.009,0,0,0-2.01-2.008,2.008,2.008,0,0,1-2.01-2.01,2.008,2.008,0,0,1,2.01-2.008,6.036,6.036,0,0,1,6.031,6.026A2.008,2.008,0,0,1,.236,708.247Z" transform="translate(5.795 -700.211)" fill="#74a839" stroke="#74a839" stroke-width="1"/>
            </g>
          </g>
        </g>
        <g id="Grupo_829" data-name="Grupo 829" transform="translate(124.68 4.018)">
          <g id="Grupo_828" data-name="Grupo 828" transform="translate(0)">
            <g id="Grupo_827" data-name="Grupo 827">
              <path id="Trazado_1658" data-name="Trazado 1658" d="M-2.357,709.671a2.006,2.006,0,0,1-2.01-2.008v-4.018a2.007,2.007,0,0,1,2.01-2.008,2.007,2.007,0,0,1,2.01,2.008v4.018A2.006,2.006,0,0,1-2.357,709.671Z" transform="translate(4.367 -701.638)" fill="#74a839" stroke="#74a839" stroke-width="1"/>
            </g>
          </g>
        </g>
        <g id="Grupo_832" data-name="Grupo 832" transform="translate(4.024)">
          <g id="Grupo_831" data-name="Grupo 831">
            <g id="Grupo_830" data-name="Grupo 830">
              <path id="Trazado_1659" data-name="Trazado 1659" d="M71.428,704.229H-45.208a2.008,2.008,0,0,1-2.01-2.01,2.008,2.008,0,0,1,2.01-2.008H71.428a2.009,2.009,0,1,1,0,4.018Z" transform="translate(47.218 -700.211)" fill="#74a839" stroke="#74a839" stroke-width="1"/>
            </g>
          </g>
        </g>
      </g>
      <g id="Grupo_836" data-name="Grupo 836" transform="translate(41.217 747.487)">
        <g id="Grupo_835" data-name="Grupo 835">
          <g id="Grupo_834" data-name="Grupo 834">
            <path id="Trazado_1660" data-name="Trazado 1660" d="M10.288,741.943H-14.654a2.077,2.077,0,0,1-2.078-2.078V719.079A2.077,2.077,0,0,1-14.654,717H10.288a2.077,2.077,0,0,1,2.078,2.078v20.786A2.077,2.077,0,0,1,10.288,741.943Zm-22.864-4.156H8.21V721.16H-12.576Z" transform="translate(16.732 -717.001)" fill="#74a839" stroke="#74a839" stroke-width="1"/>
          </g>
        </g>
      </g>
      <g id="Grupo_839" data-name="Grupo 839" transform="translate(49.531 751.646)">
        <g id="Grupo_838" data-name="Grupo 838">
          <g id="Grupo_837" data-name="Grupo 837">
            <path id="Trazado_1661" data-name="Trazado 1661" d="M-11.7,735.1a2.077,2.077,0,0,1-2.078-2.078V720.556a2.076,2.076,0,0,1,2.078-2.078,2.076,2.076,0,0,1,2.078,2.078v12.471A2.077,2.077,0,0,1-11.7,735.1Z" transform="translate(13.779 -718.478)" fill="#74a839" stroke="#74a839" stroke-width="1"/>
          </g>
        </g>
      </g>
      <g id="Grupo_842" data-name="Grupo 842" transform="translate(49.53 757.88)">
        <g id="Grupo_841" data-name="Grupo 841">
          <g id="Grupo_840" data-name="Grupo 840">
            <path id="Trazado_1662" data-name="Trazado 1662" d="M-11.7,731.085a2.075,2.075,0,0,1-1.782-1.008,2.077,2.077,0,0,1,.712-2.852l10.393-6.234a2.077,2.077,0,0,1,2.852.713,2.077,2.077,0,0,1-.712,2.852l-10.393,6.234A2.081,2.081,0,0,1-11.7,731.085Z" transform="translate(13.78 -720.692)" fill="#74a839" stroke="#74a839" stroke-width="1"/>
          </g>
        </g>
      </g>
      <g id="Grupo_845" data-name="Grupo 845" transform="translate(49.529 751.642)">
        <g id="Grupo_844" data-name="Grupo 844">
          <g id="Grupo_843" data-name="Grupo 843">
            <path id="Trazado_1663" data-name="Trazado 1663" d="M-1.309,728.873a2.048,2.048,0,0,1-1.067-.3l-10.393-6.237a2.077,2.077,0,0,1-.715-2.849,2.078,2.078,0,0,1,2.852-.715L-.239,725.01a2.077,2.077,0,0,1,.712,2.852A2.071,2.071,0,0,1-1.309,728.873Z" transform="translate(13.78 -718.477)" fill="#74a839" stroke="#74a839" stroke-width="1"/>
          </g>
        </g>
      </g>
      <g id="Grupo_922" data-name="Grupo 922" transform="translate(-35.706 724.592)">
        <g id="Grupo_900" data-name="Grupo 900" transform="translate(7.845 18.637)">
          <g id="Grupo_848" data-name="Grupo 848" transform="translate(26.954)">
            <g id="Grupo_847" data-name="Grupo 847">
              <g id="Grupo_846" data-name="Grupo 846">
                <path id="Trazado_1664" data-name="Trazado 1664" d="M-21.3,736.275a10.328,10.328,0,0,1-7.349-3.047,10.3,10.3,0,0,1-3.047-7.346,10.328,10.328,0,0,1,3.047-7.349,10.324,10.324,0,0,1,7.346-3.044,10.325,10.325,0,0,1,7.349,3.044,10.326,10.326,0,0,1,3.044,7.349,10.316,10.316,0,0,1-3.044,7.349A10.324,10.324,0,0,1-21.3,736.275Zm0-16.629a6.189,6.189,0,0,0-4.407,1.827,6.2,6.2,0,0,0-1.827,4.409,6.178,6.178,0,0,0,1.827,4.407,6.383,6.383,0,0,0,8.816,0,6.2,6.2,0,0,0,1.827-4.409,6.2,6.2,0,0,0-1.827-4.409A6.2,6.2,0,0,0-21.3,719.645Z" transform="translate(31.692 -715.489)" fill="#74a839" stroke="#74a839" stroke-width="1"/>
              </g>
            </g>
          </g>
          <g id="Grupo_851" data-name="Grupo 851" transform="translate(7.605 20.068)">
            <g id="Grupo_850" data-name="Grupo 850">
              <g id="Grupo_849" data-name="Grupo 849">
                <path id="Trazado_1665" data-name="Trazado 1665" d="M-26.459,739.743a6.215,6.215,0,0,1-4.407-1.819l-5.879-5.882a6.2,6.2,0,0,1-1.819-4.407,6.2,6.2,0,0,1,1.819-4.409,2.075,2.075,0,0,1,2.94,0,2.075,2.075,0,0,1,0,2.94,2.077,2.077,0,0,0,0,2.937l5.879,5.882a2.08,2.08,0,0,0,2.94,0l11.021-11.021a2.08,2.08,0,0,1,2.94,0,2.075,2.075,0,0,1,0,2.94L-22.05,737.922A6.2,6.2,0,0,1-26.459,739.743Z" transform="translate(38.564 -722.616)" fill="#74a839" stroke="#74a839" stroke-width="1"/>
              </g>
            </g>
          </g>
          <g id="Grupo_854" data-name="Grupo 854" transform="translate(6.611 13.409)">
            <g id="Grupo_853" data-name="Grupo 853">
              <g id="Grupo_852" data-name="Grupo 852">
                <path id="Trazado_1666" data-name="Trazado 1666" d="M-29.49,733.276a2.072,2.072,0,0,1-1.47-.608,2.08,2.08,0,0,1,0-2.94,3.124,3.124,0,0,0,0-4.412,3.2,3.2,0,0,0-4.412,0,2.075,2.075,0,0,1-2.94,0,2.077,2.077,0,0,1,0-2.937,7.284,7.284,0,0,1,10.291,0,7.283,7.283,0,0,1,0,10.288A2.072,2.072,0,0,1-29.49,733.276Z" transform="translate(38.917 -720.251)" fill="#74a839" stroke="#74a839" stroke-width="1"/>
              </g>
            </g>
          </g>
          <g id="Grupo_857" data-name="Grupo 857" transform="translate(8.816 18.599)">
            <g id="Grupo_856" data-name="Grupo 856">
              <g id="Grupo_855" data-name="Grupo 855">
                <path id="Trazado_1667" data-name="Trazado 1667" d="M-36.056,727.719a2.072,2.072,0,0,1-1.47-.608,2.083,2.083,0,0,1,0-2.942l1.47-1.467a2.084,2.084,0,0,1,2.942,0,2.081,2.081,0,0,1,0,2.943l-1.47,1.467A2.069,2.069,0,0,1-36.056,727.719Z" transform="translate(38.134 -722.094)" fill="#74a839" stroke="#74a839" stroke-width="1"/>
              </g>
            </g>
          </g>
          <g id="Grupo_860" data-name="Grupo 860" transform="translate(6.614 14.922)">
            <g id="Grupo_859" data-name="Grupo 859">
              <g id="Grupo_858" data-name="Grupo 858">
                <path id="Trazado_1668" data-name="Trazado 1668" d="M-36.833,724.946a2.069,2.069,0,0,1-1.861-1.146,2.072,2.072,0,0,1,.924-2.788l.008-.005a2.085,2.085,0,0,1,2.79.929,2.082,2.082,0,0,1-.929,2.79A2.057,2.057,0,0,1-36.833,724.946Z" transform="translate(38.916 -720.789)" fill="#74a839" stroke="#74a839" stroke-width="1"/>
              </g>
            </g>
          </g>
          <g id="Grupo_863" data-name="Grupo 863" transform="translate(1.471 14.922)">
            <g id="Grupo_862" data-name="Grupo 862">
              <g id="Grupo_861" data-name="Grupo 861">
                <path id="Trazado_1669" data-name="Trazado 1669" d="M-38.666,725.684a2.079,2.079,0,0,1-2.055-1.782,2.084,2.084,0,0,1,1.763-2.354l5.153-.738a2.082,2.082,0,0,1,2.351,1.765,2.083,2.083,0,0,1-1.763,2.354l-5.153.738A2.655,2.655,0,0,1-38.666,725.684Z" transform="translate(40.743 -720.788)" fill="#74a839" stroke="#74a839" stroke-width="1"/>
              </g>
            </g>
          </g>
          <g id="Grupo_866" data-name="Grupo 866" transform="translate(0 17.136)">
            <g id="Grupo_865" data-name="Grupo 865">
              <g id="Grupo_864" data-name="Grupo 864">
                <path id="Trazado_1670" data-name="Trazado 1670" d="M-30.371,734.544a2.072,2.072,0,0,1-1.47-.608l-8.813-8.813a2.075,2.075,0,0,1,0-2.94,2.077,2.077,0,0,1,2.937,0L-28.9,731a2.075,2.075,0,0,1,0,2.94A2.072,2.072,0,0,1-30.371,734.544Z" transform="translate(41.265 -721.575)" fill="#74a839" stroke="#74a839" stroke-width="1"/>
              </g>
            </g>
          </g>
          <g id="Grupo_869" data-name="Grupo 869" transform="translate(0 15.661)">
            <g id="Grupo_868" data-name="Grupo 868">
              <g id="Grupo_867" data-name="Grupo 867">
                <path id="Trazado_1671" data-name="Trazado 1671" d="M-39.184,726.682a2.084,2.084,0,0,1-1.47-.608,2.078,2.078,0,0,1,0-2.94l1.47-1.473a2.08,2.08,0,0,1,2.94-.006,2.078,2.078,0,0,1,0,2.94l-1.47,1.475A2.063,2.063,0,0,1-39.184,726.682Z" transform="translate(41.265 -721.051)" fill="#74a839" stroke="#74a839" stroke-width="1"/>
              </g>
            </g>
          </g>
          <g id="Grupo_872" data-name="Grupo 872" transform="translate(27.183 15.49)">
            <g id="Grupo_871" data-name="Grupo 871">
              <g id="Grupo_870" data-name="Grupo 870">
                <path id="Trazado_1672" data-name="Trazado 1672" d="M-25.118,730.465a2.06,2.06,0,0,1-1.467-.608,2.072,2.072,0,0,1-.006-2.937,1.028,1.028,0,0,0,.3-.738,1.024,1.024,0,0,0-.3-.729,1.038,1.038,0,0,0-1.473-.006,2.078,2.078,0,0,1-2.94,0A2.075,2.075,0,0,1-31,722.5a5.2,5.2,0,0,1,7.343.006,5.149,5.149,0,0,1,1.523,3.672,5.179,5.179,0,0,1-1.518,3.675A2.071,2.071,0,0,1-25.118,730.465Z" transform="translate(31.611 -720.99)" fill="#74a839" stroke="#74a839" stroke-width="1"/>
              </g>
            </g>
          </g>
          <g id="Grupo_875" data-name="Grupo 875" transform="translate(22.774 11.074)">
            <g id="Grupo_874" data-name="Grupo 874">
              <g id="Grupo_873" data-name="Grupo 873">
                <path id="Trazado_1673" data-name="Trazado 1673" d="M-26.687,724.5a2.076,2.076,0,0,1-1.47-.611,1.035,1.035,0,0,0-.735-.3,1.048,1.048,0,0,0-.735.3,2.08,2.08,0,0,1-2.94,0,2.075,2.075,0,0,1,0-2.94,5.167,5.167,0,0,1,3.675-1.523h0a5.159,5.159,0,0,1,3.675,1.526,2.074,2.074,0,0,1,0,2.937A2.076,2.076,0,0,1-26.687,724.5Z" transform="translate(33.177 -719.422)" fill="#74a839" stroke="#74a839" stroke-width="1"/>
              </g>
            </g>
          </g>
          <g id="Grupo_878" data-name="Grupo 878" transform="translate(14.515 11.084)">
            <g id="Grupo_877" data-name="Grupo 877">
              <g id="Grupo_876" data-name="Grupo 876">
                <path id="Trazado_1674" data-name="Trazado 1674" d="M-33.12,728.9a2.075,2.075,0,0,1-1.47-.611,5.2,5.2,0,0,1,0-7.346,5.2,5.2,0,0,1,7.349,0,2.075,2.075,0,0,1,0,2.94,2.072,2.072,0,0,1-2.937,0,1.043,1.043,0,0,0-1.47,0,1.037,1.037,0,0,0,0,1.467,2.08,2.08,0,0,1,0,2.94A2.075,2.075,0,0,1-33.12,728.9Z" transform="translate(36.11 -719.426)" fill="#74a839" stroke="#74a839" stroke-width="1"/>
              </g>
            </g>
          </g>
          <g id="Grupo_881" data-name="Grupo 881" transform="translate(23.506 24.483)">
            <g id="Grupo_880" data-name="Grupo 880">
              <g id="Grupo_879" data-name="Grupo 879">
                <path id="Trazado_1675" data-name="Trazado 1675" d="M-28.632,729.258a5.16,5.16,0,0,1-3.675-1.523,2.072,2.072,0,0,1,0-2.937,2.075,2.075,0,0,1,2.94,0,1.038,1.038,0,0,0,.735.3,1.038,1.038,0,0,0,.735-.3,2.072,2.072,0,0,1,2.937-.005,2.075,2.075,0,0,1,.006,2.94A5.165,5.165,0,0,1-28.632,729.258Z" transform="translate(32.917 -724.184)" fill="#74a839" stroke="#74a839" stroke-width="1"/>
              </g>
            </g>
          </g>
          <g id="Grupo_884" data-name="Grupo 884" transform="translate(10.968 11.934)">
            <g id="Grupo_883" data-name="Grupo 883">
              <g id="Grupo_882" data-name="Grupo 882">
                <path id="Trazado_1676" data-name="Trazado 1676" d="M-22.743,736.429a2.072,2.072,0,0,1-1.47-.608l-12.547-12.547a2.072,2.072,0,0,1,0-2.937,2.075,2.075,0,0,1,2.94,0l12.547,12.544a2.08,2.08,0,0,1,0,2.94A2.072,2.072,0,0,1-22.743,736.429Z" transform="translate(37.37 -719.727)" fill="#74a839" stroke="#74a839" stroke-width="1"/>
              </g>
            </g>
          </g>
          <g id="Grupo_887" data-name="Grupo 887" transform="translate(19.837 11.992)">
            <g id="Grupo_886" data-name="Grupo 886">
              <g id="Grupo_885" data-name="Grupo 885">
                <path id="Trazado_1677" data-name="Trazado 1677" d="M-26.263,729.78a2.072,2.072,0,0,1-1.47-.608l-5.876-5.876a2.075,2.075,0,0,1,0-2.94,2.08,2.08,0,0,1,2.94,0l5.876,5.877a2.08,2.08,0,0,1,0,2.94A2.076,2.076,0,0,1-26.263,729.78Z" transform="translate(34.22 -719.748)" fill="#74a839" stroke="#74a839" stroke-width="1"/>
              </g>
            </g>
          </g>
          <g id="Grupo_890" data-name="Grupo 890" transform="translate(25.713 16.396)">
            <g id="Grupo_889" data-name="Grupo 889">
              <g id="Grupo_888" data-name="Grupo 888">
                <path id="Trazado_1678" data-name="Trazado 1678" d="M-30.053,726.941a2.072,2.072,0,0,1-1.47-.608,2.075,2.075,0,0,1,0-2.94l1.473-1.473a2.077,2.077,0,0,1,2.937,0,2.075,2.075,0,0,1,0,2.94l-1.47,1.472A2.076,2.076,0,0,1-30.053,726.941Z" transform="translate(32.133 -721.312)" fill="#74a839" stroke="#74a839" stroke-width="1"/>
              </g>
            </g>
          </g>
          <g id="Grupo_893" data-name="Grupo 893" transform="translate(27.186 11.99)">
            <g id="Grupo_892" data-name="Grupo 892">
              <g id="Grupo_891" data-name="Grupo 891">
                <path id="Trazado_1679" data-name="Trazado 1679" d="M-24.96,728.475a2.072,2.072,0,0,1-1.47-.608L-31,723.294a2.072,2.072,0,0,1,0-2.937,2.072,2.072,0,0,1,2.937,0l4.573,4.57a2.08,2.08,0,0,1,0,2.94A2.072,2.072,0,0,1-24.96,728.475Z" transform="translate(31.61 -719.747)" fill="#74a839" stroke="#74a839" stroke-width="1"/>
              </g>
            </g>
          </g>
          <g id="Grupo_896" data-name="Grupo 896" transform="translate(21.307 11.991)">
            <g id="Grupo_895" data-name="Grupo 895">
              <g id="Grupo_894" data-name="Grupo 894">
                <path id="Trazado_1680" data-name="Trazado 1680" d="M-31.617,725.375a2.081,2.081,0,0,1-1.47-.605,2.081,2.081,0,0,1,0-2.942l1.47-1.47a2.084,2.084,0,0,1,2.942,0,2.08,2.08,0,0,1,0,2.94l-1.47,1.473A2.077,2.077,0,0,1-31.617,725.375Z" transform="translate(33.698 -719.748)" fill="#74a839" stroke="#74a839" stroke-width="1"/>
              </g>
            </g>
          </g>
          <g id="Grupo_899" data-name="Grupo 899" transform="translate(15.433 17.867)">
            <g id="Grupo_898" data-name="Grupo 898">
              <g id="Grupo_897" data-name="Grupo 897">
                <path id="Trazado_1681" data-name="Trazado 1681" d="M-33.7,727.459a2.081,2.081,0,0,1-1.47-.605,2.081,2.081,0,0,1,0-2.942l1.467-1.47a2.086,2.086,0,0,1,2.942,0,2.08,2.08,0,0,1,0,2.94l-1.467,1.47A2.072,2.072,0,0,1-33.7,727.459Z" transform="translate(35.784 -721.834)" fill="#74a839" stroke="#74a839" stroke-width="1"/>
              </g>
            </g>
          </g>
        </g>
        <g id="Grupo_903" data-name="Grupo 903">
          <g id="Grupo_902" data-name="Grupo 902">
            <g id="Grupo_901" data-name="Grupo 901">
              <path id="Trazado_1682" data-name="Trazado 1682" d="M-12.873,771.227a31.214,31.214,0,0,1-31.178-31.178A31.213,31.213,0,0,1-12.873,708.87a31.214,31.214,0,0,1,31.178,31.178A31.214,31.214,0,0,1-12.873,771.227Zm0-58.2A27.052,27.052,0,0,0-39.9,740.048a27.052,27.052,0,0,0,27.022,27.02,27.051,27.051,0,0,0,27.02-27.02A27.052,27.052,0,0,0-12.873,713.026Z" transform="translate(44.051 -708.87)" fill="#74a839" stroke="#74a839" stroke-width="1"/>
            </g>
          </g>
        </g>
        <g id="Grupo_906" data-name="Grupo 906" transform="translate(17.6 24.692)">
          <g id="Grupo_905" data-name="Grupo 905">
            <g id="Grupo_904" data-name="Grupo 904">
              <path id="Trazado_1683" data-name="Trazado 1683" d="M-34.508,727.674a2.072,2.072,0,0,1-1.47-.608,6.242,6.242,0,0,1,0-8.816,2.075,2.075,0,0,1,2.94,0,2.075,2.075,0,0,1,0,2.94,2.077,2.077,0,0,0,0,2.937,2.075,2.075,0,0,1,0,2.94A2.072,2.072,0,0,1-34.508,727.674Z" transform="translate(37.8 -717.639)" fill="#74a839" stroke="#74a839" stroke-width="1"/>
            </g>
          </g>
        </g>
        <g id="Grupo_909" data-name="Grupo 909" transform="translate(26.902 6.928)">
          <g id="Grupo_908" data-name="Grupo 908">
            <g id="Grupo_907" data-name="Grupo 907">
              <path id="Trazado_1684" data-name="Trazado 1684" d="M-28.01,720.759a2.081,2.081,0,0,1-1.473-.611,2.08,2.08,0,0,1,.006-2.94,1.031,1.031,0,0,0,.3-.735,1.03,1.03,0,0,0-.3-.732,1.036,1.036,0,0,0-.735-.307,1.035,1.035,0,0,0-.735.3,2.078,2.078,0,0,1-2.94.006,2.078,2.078,0,0,1,0-2.94,5.32,5.32,0,0,1,7.349,0,5.165,5.165,0,0,1,1.52,3.674,5.162,5.162,0,0,1-1.523,3.677A2.086,2.086,0,0,1-28.01,720.759Z" transform="translate(34.497 -711.33)" fill="#74a839" stroke="#74a839" stroke-width="1"/>
            </g>
          </g>
        </g>
        <g id="Grupo_912" data-name="Grupo 912" transform="translate(18.812 12.196)">
          <g id="Grupo_911" data-name="Grupo 911">
            <g id="Grupo_910" data-name="Grupo 910">
              <path id="Trazado_1685" data-name="Trazado 1685" d="M-35.29,729.856a2.072,2.072,0,0,1-1.47-.608,2.075,2.075,0,0,1,0-2.94l12.5-12.5a2.075,2.075,0,0,1,2.94,0,2.075,2.075,0,0,1,0,2.94l-12.5,12.5A2.072,2.072,0,0,1-35.29,729.856Z" transform="translate(37.37 -713.201)" fill="#74a839" stroke="#74a839" stroke-width="1"/>
            </g>
          </g>
        </g>
        <g id="Grupo_915" data-name="Grupo 915" transform="translate(20.319 7.789)">
          <g id="Grupo_914" data-name="Grupo 914">
            <g id="Grupo_913" data-name="Grupo 913">
              <path id="Trazado_1686" data-name="Trazado 1686" d="M-34.757,722.377a2.07,2.07,0,0,1-1.467-.608,2.075,2.075,0,0,1,0-2.94l6.58-6.583a2.075,2.075,0,0,1,2.94,0,2.075,2.075,0,0,1,0,2.939l-6.583,6.583A2.071,2.071,0,0,1-34.757,722.377Z" transform="translate(36.835 -711.636)" fill="#74a839" stroke="#74a839" stroke-width="1"/>
            </g>
          </g>
        </g>
        <g id="Grupo_918" data-name="Grupo 918" transform="translate(14.436 14.372)">
          <g id="Grupo_917" data-name="Grupo 917">
            <g id="Grupo_916" data-name="Grupo 916">
              <path id="Trazado_1687" data-name="Trazado 1687" d="M-33.9,719.349a6.218,6.218,0,0,1-4.412-1.825,2.08,2.08,0,0,1,0-2.94,2.075,2.075,0,0,1,2.94,0,2.087,2.087,0,0,0,2.945,0,2.072,2.072,0,0,1,2.937,0,2.075,2.075,0,0,1,0,2.94A6.212,6.212,0,0,1-33.9,719.349Z" transform="translate(38.924 -713.974)" fill="#74a839" stroke="#74a839" stroke-width="1"/>
            </g>
          </g>
        </g>
        <g id="Grupo_921" data-name="Grupo 921" transform="translate(8.557 8.493)">
          <g id="Grupo_920" data-name="Grupo 920">
            <g id="Grupo_919" data-name="Grupo 919">
              <path id="Trazado_1688" data-name="Trazado 1688" d="M-33.055,721.923a2.072,2.072,0,0,1-1.47-.608l-5.879-5.882a2.077,2.077,0,0,1,0-2.937,2.075,2.075,0,0,1,2.94,0l5.879,5.879a2.075,2.075,0,0,1,0,2.94A2.072,2.072,0,0,1-33.055,721.923Z" transform="translate(41.012 -711.886)" fill="#74a839" stroke="#74a839" stroke-width="1"/>
            </g>
          </g>
        </g>
      </g>
    </g>
  </g>
</svg>
