<svg xmlns="http://www.w3.org/2000/svg" xmlns:xlink="http://www.w3.org/1999/xlink" width="227" height="216" viewBox="0 0 227 216">
  <defs>
    <filter id="Image" x="0" y="0" width="227" height="216" filterUnits="userSpaceOnUse">
      <feOffset dy="5" input="SourceAlpha"/>
      <feGaussianBlur stdDeviation="2.5" result="blur"/>
      <feFlood flood-opacity="0.161"/>
      <feComposite operator="in" in2="blur"/>
      <feComposite in="SourceGraphic"/>
    </filter>
  </defs>
  <g id="Grupo_455" data-name="Grupo 455" transform="translate(7.5 2.5)">
    <g transform="matrix(1, 0, 0, 1, -7.5, -2.5)" filter="url(#Image)">
      <g id="Image-2" data-name="Image" transform="translate(7.5 2.5)" fill="#fff" stroke="#a2e2ff" stroke-width="6">
        <rect width="212" height="201" rx="100.5" stroke="none"/>
        <rect x="3" y="3" width="206" height="195" rx="97.5" fill="none"/>
      </g>
    </g>
    <g id="Grupo_1451" data-name="Grupo 1451" transform="translate(-1679.234 -926.243)">
      <g id="Grupo_1439" data-name="Grupo 1439" transform="translate(1718.234 970.411)">
        <g id="Grupo_1434" data-name="Grupo 1434" transform="translate(0 84.791)">
          <path id="Trazado_2804" data-name="Trazado 2804" d="M1719.734,1057.471H1782.4v-14.626h-62.668Z" transform="translate(-1717.941 -1041.053)" fill="#fff"/>
          <path id="Trazado_2805" data-name="Trazado 2805" d="M1782.693,1059.558h-62.667a1.794,1.794,0,0,1-1.793-1.793v-14.626a1.794,1.794,0,0,1,1.793-1.793h62.667a1.793,1.793,0,0,1,1.793,1.793v14.626A1.793,1.793,0,0,1,1782.693,1059.558Zm-60.874-3.586H1780.9v-11.04H1721.82Z" transform="translate(-1718.234 -1041.346)" fill="#74a839"/>
        </g>
        <g id="Grupo_1435" data-name="Grupo 1435" transform="translate(0 22.604)">
          <path id="Trazado_2806" data-name="Trazado 2806" d="M1755.57,990.821h-22.209a13.629,13.629,0,0,0-13.628,13.628h0v48.559h14.625v-44.484h21.211Z" transform="translate(-1717.941 -989.028)" fill="#fff"/>
          <path id="Trazado_2807" data-name="Trazado 2807" d="M1734.652,1055.094h-14.625a1.794,1.794,0,0,1-1.793-1.793v-48.559a15.438,15.438,0,0,1,15.42-15.421h22.209a1.794,1.794,0,0,1,1.793,1.793v17.7a1.793,1.793,0,0,1-1.793,1.793h-19.418V1053.3A1.794,1.794,0,0,1,1734.652,1055.094Zm-12.832-3.586h11.039v-42.691a1.794,1.794,0,0,1,1.793-1.793h19.418V992.907h-20.416a11.847,11.847,0,0,0-11.834,11.835Z" transform="translate(-1718.234 -989.321)" fill="#74a839"/>
        </g>
        <g id="Grupo_1436" data-name="Grupo 1436" transform="translate(35.836 16.022)">
          <rect id="Rectángulo_1272" data-name="Rectángulo 1272" width="21.577" height="38.001" rx="2.988" transform="translate(1.793 1.793)" fill="#fff"/>
          <path id="Trazado_2808" data-name="Trazado 2808" d="M1768.012,1025.4h-14.435a5.371,5.371,0,0,1-5.364-5.365V989.18a5.371,5.371,0,0,1,5.364-5.365h14.435a5.372,5.372,0,0,1,5.365,5.365v30.859A5.372,5.372,0,0,1,1768.012,1025.4Zm-14.435-38a1.78,1.78,0,0,0-1.777,1.779v30.859a1.78,1.78,0,0,0,1.777,1.779h14.435a1.781,1.781,0,0,0,1.779-1.779V989.18a1.781,1.781,0,0,0-1.779-1.779Z" transform="translate(-1748.214 -983.815)" fill="#74a839"/>
        </g>
        <g id="Grupo_1437" data-name="Grupo 1437" transform="translate(40.051)">
          <path id="Trazado_2809" data-name="Trazado 2809" d="M1763.408,971.91h-7.187a3.174,3.174,0,0,0-2.981,3.336v9.371a3.174,3.174,0,0,0,2.981,3.336h7.188a3.174,3.174,0,0,0,2.981-3.336v-9.371A3.174,3.174,0,0,0,1763.408,971.91Z" transform="translate(-1751.447 -970.118)" fill="#fff"/>
          <path id="Trazado_2810" data-name="Trazado 2810" d="M1763.7,990.04h-7.186a4.966,4.966,0,0,1-4.773-5.128v-9.373a4.966,4.966,0,0,1,4.773-5.128h7.186a4.967,4.967,0,0,1,4.775,5.128v9.373A4.967,4.967,0,0,1,1763.7,990.04ZM1756.513,974a1.42,1.42,0,0,0-1.187,1.542v9.373a1.42,1.42,0,0,0,1.187,1.542h7.186a1.42,1.42,0,0,0,1.189-1.542v-9.373A1.42,1.42,0,0,0,1763.7,974Z" transform="translate(-1751.74 -970.411)" fill="#74a839"/>
        </g>
        <g id="Grupo_1438" data-name="Grupo 1438" transform="translate(15.042 68.557)">
          <line id="Línea_31" data-name="Línea 31" x2="30.315" transform="translate(2.39 2.391)" fill="#fff"/>
          <path id="Trazado_2811" data-name="Trazado 2811" d="M1763.524,1032.546h-30.315a2.391,2.391,0,0,1,0-4.781h30.315a2.391,2.391,0,0,1,0,4.781Z" transform="translate(-1730.818 -1027.765)" fill="#74a839"/>
        </g>
      </g>
      <g id="Grupo_1450" data-name="Grupo 1450" transform="translate(1776.768 988.886)">
        <g id="Grupo_1440" data-name="Grupo 1440" transform="translate(35.559 28.448)">
          <path id="Trazado_2812" data-name="Trazado 2812" d="M1814.047,1055.208c-9.152,0-16.595-10.1-16.595-22.521s7.443-22.521,16.595-22.521,16.594,10.1,16.594,22.521S1823.2,1055.208,1814.047,1055.208Zm0-42.671c-7.844,0-14.224,9.039-14.224,20.15s6.38,20.15,14.224,20.15,14.223-9.039,14.223-20.15S1821.889,1012.537,1814.047,1012.537Z" transform="translate(-1796.853 -1009.569)" fill="#74a839"/>
          <path id="Trazado_2813" data-name="Trazado 2813" d="M1814.144,1055.9c-9.479,0-17.192-10.37-17.192-23.118s7.713-23.118,17.192-23.118,17.192,10.37,17.192,23.118S1823.624,1055.9,1814.144,1055.9Zm0-45.04c-8.82,0-16,9.834-16,21.922s7.177,21.922,16,21.922,16-9.834,16-21.922S1822.964,1010.861,1814.144,1010.861Zm0,42.671c-8.173,0-14.821-9.307-14.821-20.749s6.648-20.747,14.821-20.747,14.822,9.307,14.822,20.747S1822.316,1053.532,1814.144,1053.532Zm0-40.3c-7.514,0-13.625,8.771-13.625,19.552s6.112,19.553,13.625,19.553,13.627-8.771,13.627-19.553S1821.657,1013.232,1814.144,1013.232Z" transform="translate(-1796.951 -1009.666)" fill="#74a839"/>
        </g>
        <g id="Grupo_1441" data-name="Grupo 1441" transform="translate(53.339)">
          <path id="Trazado_2814" data-name="Trazado 2814" d="M1822.338,1053.8l-1.06-2.12.31-.153a15.374,15.374,0,0,0,8.518-13.761v-5.008a21.358,21.358,0,0,0-8.008-16.672l-.885-.708a23.71,23.71,0,0,1-8.887-18.5v-9.326a1.185,1.185,0,0,1,1.186-1.185h0a1.184,1.184,0,0,1,1.185,1.185v9.315a21.357,21.357,0,0,0,8.009,16.671l.875.7a23.735,23.735,0,0,1,8.9,18.523v5.013a17.739,17.739,0,0,1-9.829,15.876Z" transform="translate(-1811.728 -985.769)" fill="#74a839"/>
          <path id="Trazado_2815" data-name="Trazado 2815" d="M1822.169,1054.7l-1.6-3.19.845-.421a14.692,14.692,0,0,0,8.188-13.225v-5.008a20.661,20.661,0,0,0-7.784-16.205l-.885-.708a24.191,24.191,0,0,1-9.112-18.971v-9.326a1.783,1.783,0,0,1,3.566,0v9.315a20.658,20.658,0,0,0,7.785,16.205l.874.7a24.206,24.206,0,0,1,9.122,18.989v5.014a18.229,18.229,0,0,1-10.16,16.41Zm.008-2.656.526,1.052a17.038,17.038,0,0,0,9.273-15.226v-5.014a23.02,23.02,0,0,0-8.673-18.056l-.874-.7a21.85,21.85,0,0,1-8.234-17.139v-9.315a.587.587,0,0,0-1.175,0v9.326a23,23,0,0,0,8.664,18.038l.885.706a21.856,21.856,0,0,1,8.232,17.14v5.008A15.877,15.877,0,0,1,1822.178,1052.048Z" transform="translate(-1811.826 -985.867)" fill="#74a839"/>
        </g>
        <g id="Grupo_1442" data-name="Grupo 1442" transform="translate(40.301 4.741)">
          <path id="Trazado_2816" data-name="Trazado 2816" d="M1803.79,1021.151h-2.372v-1.244a15.979,15.979,0,0,1,4.674-11.035,12.888,12.888,0,0,0,3.624-9v-8.355a1.185,1.185,0,0,1,1.185-1.186h0a1.186,1.186,0,0,1,1.186,1.186v8.355a15.979,15.979,0,0,1-4.674,11.035,12.9,12.9,0,0,0-3.623,9Z" transform="translate(-1800.82 -989.735)" fill="#74a839"/>
          <path id="Trazado_2817" data-name="Trazado 2817" d="M1804.485,1021.846h-3.567V1020a16.57,16.57,0,0,1,4.841-11.449,12.329,12.329,0,0,0,3.457-8.584v-8.355a1.783,1.783,0,1,1,3.566,0v8.355a16.568,16.568,0,0,1-4.841,11.45,12.32,12.32,0,0,0-3.456,8.583Zm-2.372-1.2h1.176V1020a13.5,13.5,0,0,1,3.791-9.411,15.388,15.388,0,0,0,4.506-10.622v-8.355a.588.588,0,1,0-1.175,0v8.355a13.509,13.509,0,0,1-3.791,9.412,15.382,15.382,0,0,0-4.508,10.62Z" transform="translate(-1800.918 -989.833)" fill="#74a839"/>
        </g>
        <g id="Grupo_1443" data-name="Grupo 1443" transform="translate(38.031 39.214)">
          <path id="Trazado_2818" data-name="Trazado 2818" d="M1805.3,1041.555h0a1.187,1.187,0,0,1,0-1.677l.92-.92a4.756,4.756,0,0,0,1.372-2.476,4.533,4.533,0,0,0-1.25-4.063l-.342-.341a6.933,6.933,0,0,1-1.886-4.845,4.509,4.509,0,0,0-1.328-3.111l-3.065-3.065,1.676-1.677,3.2,3.2a6.933,6.933,0,0,1,1.887,4.844,4.506,4.506,0,0,0,1.327,3.111l.155.155a6.876,6.876,0,0,1,.049,9.818l-1.042,1.042A1.186,1.186,0,0,1,1805.3,1041.555Z" transform="translate(-1798.881 -1018.535)" fill="#74a839"/>
          <path id="Trazado_2819" data-name="Trazado 2819" d="M1806.281,1042.637a1.783,1.783,0,0,1-1.261-3.045l.922-.919a4.165,4.165,0,0,0,1.207-2.161,3.932,3.932,0,0,0-1.087-3.533l-.341-.339a7.468,7.468,0,0,1-2.062-5.255,3.921,3.921,0,0,0-1.152-2.7l-3.488-3.488,2.521-2.522,3.624,3.627a7.463,7.463,0,0,1,2.063,5.252,3.919,3.919,0,0,0,1.152,2.7l.155.155a7.452,7.452,0,0,1,2,3.41,7.55,7.55,0,0,1-1.954,7.253l-1.042,1.041a1.778,1.778,0,0,1-1.26.522Zm-5.571-21.442,2.643,2.643a5.112,5.112,0,0,1,1.5,3.52,6.377,6.377,0,0,0,1.711,4.435l.342.339a5.116,5.116,0,0,1,1.417,4.594,5.347,5.347,0,0,1-1.538,2.792l-.922.919a.591.591,0,0,0,0,.832.585.585,0,0,0,.416.172h0a.582.582,0,0,0,.415-.172l1.042-1.041a6.362,6.362,0,0,0,1.64-6.117,6.267,6.267,0,0,0-1.689-2.857l-.156-.155a5.11,5.11,0,0,1-1.5-3.521,6.373,6.373,0,0,0-1.713-4.433l-2.779-2.782Z" transform="translate(-1799.019 -1018.673)" fill="#74a839"/>
        </g>
        <g id="Grupo_1444" data-name="Grupo 1444" transform="translate(51.808 35.657)">
          <path id="Trazado_2820" data-name="Trazado 2820" d="M1811.391,1039.764h0a1.185,1.185,0,0,1,0-1.676l1.33-1.332a3.549,3.549,0,0,0,1.041-2.513v-2a5.923,5.923,0,0,1,1.729-4.181l.784-.786a3.576,3.576,0,0,0,1.043-2.525v-.8a5.929,5.929,0,0,1,1.736-4.193l3.353-3.353,1.676,1.676-3.352,3.353a3.555,3.555,0,0,0-1.042,2.516v.8a5.951,5.951,0,0,1-1.737,4.2l-.783.786a3.551,3.551,0,0,0-1.036,2.506v2a5.922,5.922,0,0,1-1.735,4.188l-1.33,1.33A1.187,1.187,0,0,1,1811.391,1039.764Z" transform="translate(-1810.448 -1015.559)" fill="#74a839"/>
          <path id="Trazado_2821" data-name="Trazado 2821" d="M1812.326,1040.848a1.766,1.766,0,0,1-1.26-.524,1.784,1.784,0,0,1,0-2.52l1.331-1.332a2.935,2.935,0,0,0,.865-2.089v-2a6.482,6.482,0,0,1,1.9-4.6l.785-.787a2.963,2.963,0,0,0,.868-2.1v-.8a6.487,6.487,0,0,1,1.912-4.616l3.774-3.775,2.522,2.52-3.775,3.776a2.947,2.947,0,0,0-.866,2.094v.8a6.51,6.51,0,0,1-1.91,4.622l-.783.788a2.926,2.926,0,0,0-.863,2.085v2a6.478,6.478,0,0,1-1.91,4.61l-1.331,1.329a1.771,1.771,0,0,1-1.26.524Zm10.177-23.461-2.928,2.93a5.3,5.3,0,0,0-1.562,3.771v.8a4.144,4.144,0,0,1-1.216,2.945l-.785.786a5.3,5.3,0,0,0-1.554,3.762v2a4.128,4.128,0,0,1-1.216,2.935l-1.331,1.332a.588.588,0,0,0,.415,1h0a.584.584,0,0,0,.415-.173l1.33-1.329a5.3,5.3,0,0,0,1.56-3.765v-2a4.118,4.118,0,0,1,1.212-2.93l.782-.785a5.318,5.318,0,0,0,1.562-3.78v-.8a4.133,4.133,0,0,1,1.217-2.939l2.929-2.931Z" transform="translate(-1810.545 -1015.697)" fill="#74a839"/>
        </g>
        <g id="Grupo_1445" data-name="Grupo 1445" transform="translate(0 28.448)">
          <path id="Trazado_2822" data-name="Trazado 2822" d="M1784.3,1055.208c-9.15,0-16.595-10.1-16.595-22.521s7.445-22.521,16.595-22.521,16.595,10.1,16.595,22.521S1793.448,1055.208,1784.3,1055.208Zm0-42.671c-7.843,0-14.223,9.039-14.223,20.15s6.381,20.15,14.223,20.15,14.223-9.039,14.223-20.15S1792.141,1012.537,1784.3,1012.537Z" transform="translate(-1767.105 -1009.569)" fill="#74a839"/>
          <path id="Trazado_2823" data-name="Trazado 2823" d="M1784.4,1055.9c-9.479,0-17.193-10.37-17.193-23.118s7.714-23.118,17.193-23.118,17.192,10.37,17.192,23.118S1793.876,1055.9,1784.4,1055.9Zm0-45.04c-8.821,0-16,9.834-16,21.922s7.177,21.922,16,21.922,16-9.834,16-21.922S1793.216,1010.861,1784.4,1010.861Zm0,42.671c-8.173,0-14.821-9.307-14.821-20.749s6.648-20.747,14.821-20.747,14.822,9.307,14.822,20.747S1792.568,1053.532,1784.4,1053.532Zm0-40.3c-7.514,0-13.626,8.771-13.626,19.552s6.112,19.553,13.626,19.553,13.626-8.771,13.626-19.553S1791.909,1013.232,1784.4,1013.232Z" transform="translate(-1767.203 -1009.666)" fill="#74a839"/>
        </g>
        <g id="Grupo_1446" data-name="Grupo 1446" transform="translate(17.779)">
          <path id="Trazado_2824" data-name="Trazado 2824" d="M1792.59,1053.8l-1.062-2.12.31-.153a15.373,15.373,0,0,0,8.519-13.761v-5.02a21.337,21.337,0,0,0-8-16.653l-.893-.715a23.706,23.706,0,0,1-8.887-18.5v-9.326a1.184,1.184,0,0,1,1.185-1.185h0a1.185,1.185,0,0,1,1.186,1.185v9.326a21.334,21.334,0,0,0,8,16.653l.883.708a23.731,23.731,0,0,1,8.9,18.523v5.013a17.738,17.738,0,0,1-9.828,15.876Z" transform="translate(-1781.979 -985.769)" fill="#74a839"/>
          <path id="Trazado_2825" data-name="Trazado 2825" d="M1792.42,1054.7l-1.594-3.19.845-.421a14.691,14.691,0,0,0,8.186-13.225v-5.02a20.645,20.645,0,0,0-7.773-16.187l-.893-.714a24.186,24.186,0,0,1-9.113-18.971v-9.326a1.783,1.783,0,0,1,3.567,0v9.326a20.638,20.638,0,0,0,7.776,16.187l.884.708a24.209,24.209,0,0,1,9.12,18.989v5.013a18.23,18.23,0,0,1-10.16,16.411Zm.009-2.656.526,1.052a17.04,17.04,0,0,0,9.273-15.227v-5.013a23.022,23.022,0,0,0-8.672-18.056l-.884-.708a21.83,21.83,0,0,1-8.224-17.121v-9.326a.588.588,0,0,0-1.176,0v9.326a23,23,0,0,0,8.665,18.038l.893.714a21.83,21.83,0,0,1,8.222,17.121v5.02A15.877,15.877,0,0,1,1792.429,1052.048Z" transform="translate(-1782.077 -985.867)" fill="#74a839"/>
        </g>
        <g id="Grupo_1447" data-name="Grupo 1447" transform="translate(4.742 4.741)">
          <path id="Trazado_2826" data-name="Trazado 2826" d="M1774.04,1021.151h-2.37v-1.244a15.979,15.979,0,0,1,4.674-11.035,12.892,12.892,0,0,0,3.623-9v-8.355a1.186,1.186,0,0,1,1.186-1.186h0a1.185,1.185,0,0,1,1.184,1.186v8.355a15.978,15.978,0,0,1-4.672,11.035,12.89,12.89,0,0,0-3.624,9Z" transform="translate(-1771.072 -989.735)" fill="#74a839"/>
          <path id="Trazado_2827" data-name="Trazado 2827" d="M1774.736,1021.846h-3.566V1020a16.568,16.568,0,0,1,4.84-11.449,12.323,12.323,0,0,0,3.458-8.584v-8.355a1.782,1.782,0,1,1,3.564,0v8.355a16.562,16.562,0,0,1-4.84,11.45,12.312,12.312,0,0,0-3.457,8.583Zm-2.37-1.2h1.175V1020a13.5,13.5,0,0,1,3.792-9.411,15.387,15.387,0,0,0,4.505-10.622v-8.355a.587.587,0,1,0-1.174,0v8.355a13.51,13.51,0,0,1-3.792,9.412,15.381,15.381,0,0,0-4.506,10.62Z" transform="translate(-1771.17 -989.833)" fill="#74a839"/>
        </g>
        <g id="Grupo_1448" data-name="Grupo 1448" transform="translate(2.471 39.214)">
          <path id="Trazado_2828" data-name="Trazado 2828" d="M1775.557,1041.555h0a1.187,1.187,0,0,1,0-1.677l.92-.92a4.772,4.772,0,0,0,1.372-2.476,4.537,4.537,0,0,0-1.251-4.063l-.341-.341a6.937,6.937,0,0,1-1.887-4.845,4.508,4.508,0,0,0-1.327-3.111l-3.066-3.065,1.676-1.677,3.2,3.2a6.924,6.924,0,0,1,1.886,4.844,4.508,4.508,0,0,0,1.328,3.111l.154.155a6.844,6.844,0,0,1,1.847,3.135,6.932,6.932,0,0,1-1.8,6.683l-1.042,1.042A1.185,1.185,0,0,1,1775.557,1041.555Z" transform="translate(-1769.132 -1018.535)" fill="#74a839"/>
          <path id="Trazado_2829" data-name="Trazado 2829" d="M1776.533,1042.637h0a1.783,1.783,0,0,1-1.26-3.045l.92-.919a4.151,4.151,0,0,0,1.207-2.16,3.934,3.934,0,0,0-1.087-3.535l-.341-.341a7.455,7.455,0,0,1-2.061-5.253,3.917,3.917,0,0,0-1.154-2.7l-3.488-3.488,2.521-2.522,3.625,3.627a7.452,7.452,0,0,1,2.062,5.252,3.92,3.92,0,0,0,1.154,2.7l.155.157a7.446,7.446,0,0,1,2,3.409,7.544,7.544,0,0,1-1.954,7.253l-1.041,1.041A1.774,1.774,0,0,1,1776.533,1042.637Zm-5.573-21.442,2.643,2.643a5.106,5.106,0,0,1,1.5,3.52,6.373,6.373,0,0,0,1.71,4.435l.341.341a5.112,5.112,0,0,1,1.418,4.594,5.335,5.335,0,0,1-1.539,2.791l-.92.919a.589.589,0,0,0,0,.832h0a.582.582,0,0,0,.415.172h0a.585.585,0,0,0,.416-.172l1.041-1.041a6.362,6.362,0,0,0,1.641-6.117,6.27,6.27,0,0,0-1.69-2.857l-.156-.156a5.108,5.108,0,0,1-1.5-3.52,6.366,6.366,0,0,0-1.712-4.433l-2.78-2.782Z" transform="translate(-1769.27 -1018.673)" fill="#74a839"/>
        </g>
        <g id="Grupo_1449" data-name="Grupo 1449" transform="translate(16.247 35.657)">
          <path id="Trazado_2830" data-name="Trazado 2830" d="M1781.643,1039.764h0a1.185,1.185,0,0,1,0-1.676l1.33-1.332a3.553,3.553,0,0,0,1.04-2.513v-1.988a5.953,5.953,0,0,1,1.737-4.2l.782-.784a3.555,3.555,0,0,0,1.038-2.51v-.814a5.922,5.922,0,0,1,1.734-4.187l3.354-3.355,1.676,1.676-3.352,3.353a3.559,3.559,0,0,0-1.042,2.516v.814a5.925,5.925,0,0,1-1.728,4.182l-.784.786a3.574,3.574,0,0,0-1.042,2.525v1.989a5.923,5.923,0,0,1-1.736,4.188l-1.33,1.33A1.185,1.185,0,0,1,1781.643,1039.764Z" transform="translate(-1780.697 -1015.559)" fill="#74a839"/>
          <path id="Trazado_2831" data-name="Trazado 2831" d="M1782.578,1040.848h0a1.782,1.782,0,0,1-1.259-3.043l1.329-1.332a2.939,2.939,0,0,0,.867-2.089v-1.989a6.514,6.514,0,0,1,1.909-4.624l.783-.785a2.94,2.94,0,0,0,.863-2.087v-.814a6.478,6.478,0,0,1,1.91-4.61l3.776-3.777,2.521,2.52-3.774,3.776a2.941,2.941,0,0,0-.867,2.094v.814a6.484,6.484,0,0,1-1.9,4.6l-.784.788a2.954,2.954,0,0,0-.87,2.1v1.99a6.474,6.474,0,0,1-1.91,4.61l-1.329,1.329A1.767,1.767,0,0,1,1782.578,1040.848Zm10.177-23.461-2.931,2.932a5.288,5.288,0,0,0-1.56,3.765v.814a4.128,4.128,0,0,1-1.211,2.931l-.783.785a5.323,5.323,0,0,0-1.561,3.78v1.989a4.128,4.128,0,0,1-1.217,2.935l-1.329,1.332a.584.584,0,0,0,0,.83h0a.584.584,0,0,0,.414.173h0a.586.586,0,0,0,.416-.173l1.329-1.329a5.288,5.288,0,0,0,1.56-3.765v-1.99a4.144,4.144,0,0,1,1.218-2.945l.784-.787a5.294,5.294,0,0,0,1.555-3.762v-.814a4.133,4.133,0,0,1,1.217-2.939l2.928-2.931Z" transform="translate(-1780.795 -1015.697)" fill="#74a839"/>
        </g>
      </g>
    </g>
  </g>
</svg>
