<svg xmlns="http://www.w3.org/2000/svg" xmlns:xlink="http://www.w3.org/1999/xlink" width="227" height="216" viewBox="0 0 227 216">
  <defs>
    <filter id="Image" x="0" y="0" width="227" height="216" filterUnits="userSpaceOnUse">
      <feOffset dy="5" input="SourceAlpha"/>
      <feGaussianBlur stdDeviation="2.5" result="blur"/>
      <feFlood flood-opacity="0.161"/>
      <feComposite operator="in" in2="blur"/>
      <feComposite in="SourceGraphic"/>
    </filter>
  </defs>
  <g id="Grupo_455" data-name="Grupo 455" transform="translate(-498.072 -3328.518)">
    <g transform="matrix(1, 0, 0, 1, 498.07, 3328.52)" filter="url(#Image)">
      <g id="Image-2" data-name="Image" transform="translate(7.5 2.5)" fill="#fff" stroke="#a2e2ff" stroke-width="6">
        <rect width="212" height="201" rx="100.5" stroke="none"/>
        <rect x="3" y="3" width="206" height="195" rx="97.5" fill="none"/>
      </g>
    </g>
    <g id="Grupo_1381" data-name="Grupo 1381" transform="translate(-1879.761 2697.442)">
      <g id="Grupo_1381-2" data-name="Grupo 1381" transform="translate(2478.851 720.848)">
        <path id="Trazado_2751" data-name="Trazado 2751" d="M2476.45,767.12c0-6.893-.011-13.786.013-20.677,0-.9-.138-1.412-1.168-1.759-4.712-1.592-7.641-4.9-8.034-9.875a74.975,74.975,0,0,1,.045-12.162c.489-5.787,5.677-10.115,11.563-10.094,5.809.023,10.947,4.362,11.417,10.1a75.205,75.205,0,0,1,.018,12.3c-.4,4.853-3.29,8.1-7.883,9.694a1.586,1.586,0,0,0-1.3,1.808q.056,20.472.02,40.944a7.736,7.736,0,0,1-.125,1.767,2.282,2.282,0,0,1-4.439-.006,7.425,7.425,0,0,1-.119-1.632Q2476.444,777.321,2476.45,767.12Zm9.281-38.149a55,55,0,0,0-.033-5.6,6.858,6.858,0,0,0-6.874-6.15,6.731,6.731,0,0,0-6.9,6.094,83.979,83.979,0,0,0,0,11.2,6.675,6.675,0,0,0,6.91,6.06,6.807,6.807,0,0,0,6.867-6.14A52.765,52.765,0,0,0,2485.731,728.971Z" transform="translate(-2467.036 -712.553)" fill="#74a839"/>
      </g>
      <g id="Grupo_1384" data-name="Grupo 1384" transform="translate(2424.333 682.575)">
        <g id="Grupo_1382" data-name="Grupo 1382">
          <path id="Trazado_2752" data-name="Trazado 2752" d="M2557.855,702.384c-.021-.332-.073-.661-.11-.992s-.058-.66-.11-.988q-.157-.984-.407-1.96a23.525,23.525,0,0,0-1.306-3.743c-.013-.034-.013-.056-.027-.092a17.956,17.956,0,0,0-2.274-3.849h0l-.017-.02c-.141-.183-.234-.3-.234-.3l-.026-.008a18.351,18.351,0,0,0-3.153-3.082l-.014-.033c-.066-.049-.125-.086-.192-.131-.287-.216-.59-.415-.891-.615-.115-.077-.23-.153-.342-.225-.166-.106-.322-.224-.493-.326l.006.026a16.7,16.7,0,0,0-3.992-1.9l.009.011c-.766-.274-1.553-.523-2.365-.731q-.745-.192-1.513-.345a27.987,27.987,0,0,0-4.416-.493h0a33.183,33.183,0,0,0-6.906.586,43.747,43.747,0,0,0-8.533,2.564l-.352.146c-.335.139-.67.277-1,.428l-.24.107h0c-1.693.771-3.364,1.692-4.981,2.581-.794.437-1.587.873-2.388,1.3l-.008.005-.438.259a2.572,2.572,0,0,1-.638.263l-.023.006c-.085.027-.178.048-.275.069h-.009a.72.72,0,0,1-.085.018l-.008,0h0a2.991,2.991,0,0,1-.507.047,1.952,1.952,0,0,1-.57-.073,62.142,62.142,0,0,0-35.812,0,1.994,1.994,0,0,1-.57.072,3.044,3.044,0,0,1-.507-.047h-.009l-.069-.014-.015,0-.009,0-.023-.006a2.741,2.741,0,0,1-.277-.07l-.008,0a3.638,3.638,0,0,1-.352-.121,2,2,0,0,1-.278-.14l-.448-.263c-.794-.419-1.594-.859-2.391-1.3-1.612-.889-3.281-1.807-4.975-2.579h0l-.134-.06-.1-.046c-.334-.151-.667-.289-1-.426l-.358-.148h0a45.8,45.8,0,0,0-6.437-2.11c-.7-.171-1.4-.32-2.1-.452a33.727,33.727,0,0,0-6.906-.586h0a30.444,30.444,0,0,0-3.212.288c-.41.06-.811.126-1.2.2a26.986,26.986,0,0,0-4.814,1.434l-.01-.006c-.12.052-.218.1-.333.149-.2.083-.4.158-.591.245h0l-.079.037c-.132.059-.263.12-.392.188-.066.032-.121.065-.177.1-.031.018-.064.036-.1.052a13.951,13.951,0,0,0-2.668,1.6v.013a18.781,18.781,0,0,0-2.258,1.887c-.057.046-.114.089-.174.142a17.6,17.6,0,0,0-2.867,3.723c-.023.036-.045.066-.069.1s-.043.084-.066.125h0c.023-.041.043-.084.066-.125h0c-.024.042-.045.087-.069.128-.1.179-.163.286-.163.286l0,.018a21.608,21.608,0,0,0-1.167,2.5c-.031.078-.056.16-.085.237-.136.361-.272.724-.392,1.1q-.228.7-.417,1.435a21.254,21.254,0,0,0-.666,5.648q.01.571.05,1.143a21.816,21.816,0,0,0,.281,2.281v.008l.069.345q.088.446.188.89c.014.064.026.129.04.191.055.231.124.453.188.679.044.157.082.317.129.471.133.435.272.861.411,1.267v0l.011.031c.15.42.3.843.479,1.261l.008.021v0c.051.125.1.245.158.366l.091.206h0v0a31.943,31.943,0,0,0,2.269,4.18c.158.248.313.5.467.743l.364.549c.269.395.539.788.833,1.168a4.048,4.048,0,0,1,.8,1.435c.086.342.2.651.312.979l.221.558c.094.206.188.412.273.626a12.605,12.605,0,0,0,2.719,4.177l0,0,.151.151c.084.087.17.172.259.254l.027.027h0l0,0,.027.023c.149.134.3.259.457.382l.129.1c.345.271.721.557,1.113.806l.005,0h0l.2.125h0a18.5,18.5,0,0,0,5.457,2.116h0c.05.01.1.024.152.037s.108.028.163.04q.887.172,1.731.258a15.823,15.823,0,0,0,1.645.082,12.364,12.364,0,0,0,3.017-.363l.149-.041c.337-.091.659-.209,1.014-.343h.005l.317-.129.038-.015c.129-.055.258-.114.387-.175l.005,0c.06-.027.112-.055.163-.083l.091-.048a10.5,10.5,0,0,0,1.209-.75,10.884,10.884,0,0,0,1.1-.909,3.709,3.709,0,0,1,.389-.312l.118-.086.01-.008c.046-.048.12-.117.194-.186.123-.114.246-.228.365-.361a1.368,1.368,0,0,1,.743-.372c.1-.02.2-.037.3-.05.134-.017.267-.026.393-.033.674-.038,1.349-.059,2.026-.079.077-.005.155-.015.232-.022,1.7-.133,3.391-.378,5.169-.678.628-.106,1.268-.218,1.924-.336a2.184,2.184,0,0,1,1.59.146c.011.008.024.009.035.017l.008,0a6.559,6.559,0,0,1,2.192,1.892,13.617,13.617,0,0,0,1.088,1.153c1.709,1.542,1.955,2.545,1.131,4.647l-.005.015c-.448,1.464-.95,3.046-1.572,4.957a27.021,27.021,0,0,0-.7,6.613l.024.674a25.851,25.851,0,0,0,1.14,6.405c1.92,6.168,4.211,12.3,6.426,18.225a5.9,5.9,0,0,0,.828,1.452l.393.5c.372.447.775.882,1.158,1.288h0a1.743,1.743,0,0,0,1.278.6h.011a1.674,1.674,0,0,0,1.222-.569,1.883,1.883,0,0,0-.264-2.567,9.915,9.915,0,0,1-1.8-2.768c-.135-.365-.267-.732-.4-1.1l-.419-1.157v0c-1.562-4.282-3.147-8.743-4.708-13.259a26.53,26.53,0,0,1-.929-3.488l-.2-1.149a24.22,24.22,0,0,1-.229-5.375,2.213,2.213,0,0,1-.02-.312c0-.05-.013-.1-.01-.153a2.206,2.206,0,0,1,.075-.475l.032-.125,0-.017c.061-.543.143-1.09.245-1.639a26.467,26.467,0,0,1,1.449-4.973c.127-.318.222-.614.316-.912l.093-.3c.045-.143.088-.285.123-.423l.006-.024v0h0a7.954,7.954,0,0,0,.22-2.01,6.392,6.392,0,0,0-1.855-4.3,10.1,10.1,0,0,0-.794-.767c-5.454-4.76-8.744-9.956-10.055-15.886a14.283,14.283,0,0,1,.268-7.642h0l.009-.026c.119-.355.254-.7.4-1.047.14-.319.292-.633.459-.938h0l.079-.151v0c.009-.016.022-.032.031-.05q.279-.488.6-.951t.654-.864l0,0,.014-.015c.209-.251.431-.489.659-.725.05-.052.094-.107.145-.16h0l.025-.024.009-.008c.229-.227.469-.443.714-.656.075-.066.149-.135.226-.2.294-.246.6-.488.913-.718l.017-.014.318-.231c.275-.2.562-.416.88-.61a31.848,31.848,0,0,1,12.363-4.068h.008l.357-.05h.006l.4-.057h.007l.023,0a53.9,53.9,0,0,1,8.8-.623h0a56.378,56.378,0,0,1,8.828.627h.005l.4.056h0l.368.051a39.962,39.962,0,0,1,7.06,1.628,26.143,26.143,0,0,1,5.3,2.442c.317.192.6.4.877.606l.278.2.005.005.015.012h0l.018.014c.036.027.066.054.1.08.431.321.818.641,1.177.961.2.175.4.35.575.527l.02.019.032.033.078.082c.27.276.512.539.73.8l.013.017h0l0,0c.185.224.355.457.523.691.054.075.114.147.166.222.188.275.363.557.529.844.021.037.046.07.066.106l.051.095c.01.019.018.039.028.059a13.2,13.2,0,0,1,1.383,8.337q-.094.651-.24,1.318c-1.312,5.93-4.6,11.126-10.056,15.886a6.672,6.672,0,0,0-2.433,7.055l0,.022h0l.007.023c.023.1.055.2.085.3.014.043.023.085.037.128l.1.319c.093.289.186.578.309.887a25.982,25.982,0,0,1,1.7,6.629l0,.022.013.041c.006.023.006.041.011.063a2.607,2.607,0,0,1,.065.383c0,.024.011.054.013.078a2.114,2.114,0,0,1-.017.287c-.006.064,0,.126-.011.192a24.154,24.154,0,0,1-.243,5.482l-.185,1.042a26.7,26.7,0,0,1-.929,3.488c-1.427,4.126-2.87,8.191-4.3,12.117l-1.36,3.679a10.8,10.8,0,0,1-1.672,2.488,1.88,1.88,0,0,0-.264,2.567,1.67,1.67,0,0,0,1.222.569h.01a1.746,1.746,0,0,0,1.279-.6c.361-.38.772-.823,1.158-1.288l.389-.517.005.014c.045-.059.072-.111.112-.17l.116-.155v-.019a5.528,5.528,0,0,0,.6-1.108c2.214-5.924,4.5-12.049,6.426-18.225a25.783,25.783,0,0,0,1.139-6.405l.018-.669.007-.005c0-.056,0-.112,0-.169l.007-.259-.009,0a27.154,27.154,0,0,0-.7-6.2v-.009c-.336-1.028-.636-1.962-.917-2.85-.23-.726-.447-1.424-.655-2.1v-.005q-.153-.385-.254-.725a2.99,2.99,0,0,1,.812-3.362c.169-.18.36-.364.575-.558a14.06,14.06,0,0,0,1.088-1.153,6.738,6.738,0,0,1,2.192-1.892l.006,0c.013-.005.023-.014.036-.019a2.1,2.1,0,0,1,1.59-.143,70.279,70.279,0,0,0,7.327,1.035h.01c.645.019,1.3.04,1.952.075l.064,0a2.953,2.953,0,0,1,1.15.24.97.97,0,0,1,.286.216,5.013,5.013,0,0,0,.365.36l.206.2.015.015.091.061a3.73,3.73,0,0,1,.4.319,10.555,10.555,0,0,0,2.316,1.662l.1.051c.032.018.063.033.1.05l.049.024,0,0c.234.115.466.208.7.3.187.072.351.133.512.189l.05.018c.154.054.3.1.451.142l.05.015h0l.152.042h0c.314.079.646.126.974.18a12.873,12.873,0,0,0,2.044.182,17.36,17.36,0,0,0,3.375-.34c.056-.011.109-.026.162-.04s.1-.026.155-.037h0a18.458,18.458,0,0,0,5.458-2.117l.2-.125a13.257,13.257,0,0,0,1.124-.812h0l.112-.091c.167-.134.336-.268.494-.412l0,0h0c.1-.093.2-.192.295-.29l.148-.149a12.529,12.529,0,0,0,1.563-1.943q.341-.525.63-1.083c.193-.373.369-.756.526-1.15.087-.217.183-.425.277-.635l.216-.545a10.289,10.289,0,0,0,.313-.983,4.07,4.07,0,0,1,.8-1.435c.295-.38.564-.774.834-1.168l.365-.549c.154-.248.308-.5.467-.743a31.973,31.973,0,0,0,2.268-4.179v0l.085-.193c.047-.109.094-.218.141-.327l.024-.056h0v0l.011-.031c.177-.425.332-.853.486-1.281h0c.138-.4.277-.826.409-1.258.045-.147.082-.3.124-.448.066-.237.139-.472.2-.714.015-.065.027-.131.042-.2.064-.29.125-.581.183-.871l.073-.365c.066-.379.124-.76.17-1.139A21.471,21.471,0,0,0,2557.855,702.384Zm-132.437-5.376c.117-.364.249-.718.382-1.068C2425.667,696.29,2425.536,696.644,2425.418,697.008Zm.479-1.337a21.753,21.753,0,0,1,1.166-2.5h0A22.169,22.169,0,0,0,2425.9,695.671Zm25.5,31.193-.17-.2.013.018.136.2c-.042.036-.086.074-.129.11l-.022.019h0c-.037.029-.081.056-.12.084-.071.052-.143.1-.222.156-.127.082-.264.162-.414.244l-.005,0a6.4,6.4,0,0,1-.72.344h-.007c-.283.115-.564.218-.846.3l-.011,0a1.319,1.319,0,0,1-.133.047l-.015.005-.083.015c-.5.135-.951.237-1.335.323-.264.06-.493.111-.67.16l-.038.01h-.04a19.22,19.22,0,0,1-3.461-.412h-.007l-.129-.018a10.69,10.69,0,0,1-7.326-4.871l0-.005h0l0-.009c-.093-.14-.183-.29-.271-.44l-.007-.011c-.05-.079-.068-.107-.084-.138-.112-.211-.207-.407-.288-.6a5.424,5.424,0,0,1-.206-.548v0c-.009-.028-.015-.058-.022-.086l-.014-.051c-.025-.094-.047-.182-.068-.267-.035-.154-.066-.3-.087-.443a4.742,4.742,0,0,1,1.094-4.022l0-.005.005-.008,0,0,.017-.018.021-.024.041-.047.021-.026.019-.02c.077-.086.154-.171.241-.253l0,0,.007-.005a6.782,6.782,0,0,1,4.122-1.817c.034,0,.066-.005.1-.006l.261-.046c.383-.073.764-.147,1.143-.236l.034-.008h.036a13.927,13.927,0,0,1,3.468.61,12.037,12.037,0,0,1,1.249.414c.015.006.032.01.046.015.323.128.633.283.943.439.1.05.2.087.3.139.166.091.323.2.487.3.23.138.465.268.687.423.257.179.5.384.744.585.119.1.242.179.359.281h0c.1.086.189.177.281.271l.3.29c.174.163.346.324.512.5a8.481,8.481,0,0,1,1.493,2.38A4.945,4.945,0,0,1,2451.4,726.865Zm12.854-3.7.171.268-.053.021h0l.226.356-2.081.224-.015,0h0l-.033.006a14.5,14.5,0,0,1-1.674.3c-.06.006-.117.018-.178.024a17.318,17.318,0,0,1-1.774.1c-.13,0-.258.008-.389.006h-.027l-1.914.208,0-.3a14.679,14.679,0,0,0-.062-1.538v-.013a14.244,14.244,0,0,0-3.816-7.578l0-.006a14.193,14.193,0,0,0-1.956-1.457,16.606,16.606,0,0,0-6.4-2.433,5.719,5.719,0,0,1-.694-.124c-.1-.023-.19-.057-.286-.085-.12-.036-.243-.066-.362-.11h0c-.056-.006-.147-.02-.25-.041l-.041-.009c-.051-.01-.11-.031-.166-.045s-.12-.029-.185-.052h-.008l-.029-.013a1.654,1.654,0,0,1-.359-.177l-.018-.015c-.027-.019-.04-.048-.064-.07a.747.747,0,0,1-.2-.218l-.05-.1-.068-.131c-.094-.089-.172-.189-.258-.285-.069-.077-.146-.148-.208-.229-.094-.12-.174-.244-.257-.368-.045-.069-.1-.134-.139-.2-.091-.147-.167-.291-.244-.437-.025-.047-.056-.1-.079-.143-.1-.189-.183-.374-.26-.546a14.243,14.243,0,0,1-.955-2.758c-.7-3.178.523-5.909,3.188-7.129h0l.007,0a8.8,8.8,0,0,1,3.4-.876,20.555,20.555,0,0,1,6.718.806c.107.028.219.061.329.095l.223.066.142.045c.32.1.638.2.953.3.7.231,1.276.437,1.8.646l.01.005.031.013.021.009h0c.3.123.591.24.875.359.337.142.669.285,1,.441h0l.934.423q.678.31,1.376.622l.225.1-.086.231C2457.037,710.069,2460.472,717.269,2464.256,723.165Zm3.756-30.228-5.87,4.97-.051-.015-.249.208-1.137-.525c-.619-.288-1.279-.594-1.951-.9h0c-.988-.364-1.9-.7-2.8-1.012q-.868-.307-1.707-.59c-.645-.216-1.285-.425-1.935-.622-.19-.056-.383-.1-.574-.138-.114-.024-.226-.05-.338-.077h-.005a22.924,22.924,0,0,0-5.377-.452c-.348.026-.676.056-.987.092s-.606.078-.888.125a10.311,10.311,0,0,0-7.271,4.522,8.865,8.865,0,0,0-.83,1.755,10.848,10.848,0,0,0,.031,6.7,25.165,25.165,0,0,0,1.127,2.856l.6,1.229-.075.051h0l-.125.138-5.947,4.421-.154-.222c-.073-.1-.139-.217-.2-.328-.046-.079-.092-.158-.142-.232a19.9,19.9,0,0,1-2.349-17.566q.249-.669.56-1.324l.014-.029q.314-.657.692-1.3c.056-.094.092-.176.142-.267a15.327,15.327,0,0,1,1.11-1.51.259.259,0,0,1,0,.031,16.41,16.41,0,0,1,1.928-2.093c.175-.153.346-.3.512-.437l.123-.1c.331-.271.636-.506.923-.718.3-.22.609-.439.932-.641h-.009a12.412,12.412,0,0,1,1.158-.674l.112-.041.013,0q.786-.41,1.62-.744a20.38,20.38,0,0,1,5.4-1.33c.051-.005.1-.009.155-.01l.113-.009a28.6,28.6,0,0,1,12.307,1.406h0l.211.064c.142.043.283.085.424.131h0q.986.322,1.978.694t1.983.793c.373.158.741.322,1.109.49,1.1.5,2.211,1.061,3.475,1.7l.006,0h0c.715.342,1.441.687,2.176,1.026l.374.174Zm55.772,31.537h-.011c-.13,0-.255,0-.383-.005a16.55,16.55,0,0,1-1.8-.1l-.1-.014a15.472,15.472,0,0,1-1.768-.317l-.024-.005-2.063-.221.233-.363h0v-.005l.112-.277c3.783-5.9,7.219-13.1,4.012-21.812l-.085-.231.224-.1c.469-.208.928-.417,1.384-.624l.925-.42h0c.625-.294,1.26-.552,1.856-.792l.013-.005.069-.029h0c-.011,0,0,0,.024-.009.5-.2,1.074-.406,1.777-.637h0c.355-.119.712-.232,1.071-.338l.02-.006.228-.068c.109-.033.217-.065.327-.095h0a20.628,20.628,0,0,1,6.713-.8,8.822,8.822,0,0,1,3.4.876l.007,0h0a5.773,5.773,0,0,1,3.36,5.957h0a8.277,8.277,0,0,1-.174,1.171,14.179,14.179,0,0,1-.955,2.758c-.078.172-.162.356-.258.544-.044.088-.1.179-.149.268s-.109.207-.172.31-.125.181-.188.272-.133.2-.209.3-.158.175-.238.262-.147.175-.231.254l-.117.227c0,.009-.015.013-.019.022a.807.807,0,0,1-.17.188c-.028.024-.042.057-.074.08l-.016.014a1.671,1.671,0,0,1-.361.179l-.026.011-.009,0c-.065.023-.124.035-.186.051s-.116.036-.167.046l-.037.009c-.106.021-.2.035-.254.041h0c-.147.054-.3.093-.448.135-.065.018-.129.043-.2.059a6.08,6.08,0,0,1-.7.124,14.355,14.355,0,0,0-4.352,1.323c-.516.243-1,.5-1.434.746-.219.124-.425.246-.618.365a14.368,14.368,0,0,0-1.961,1.463l-.009.006a14.021,14.021,0,0,0-3.572,6.486q-.136.542-.236,1.1l0,.01a14.471,14.471,0,0,0-.06,1.527l.005.3Zm23.863-3.66v.008h0a5.023,5.023,0,0,1-.154.7v.009c-.017.07-.024.1-.033.129a6.188,6.188,0,0,1-.474,1.094l0,.009c-.017.035-.029.057-.04.077a.511.511,0,0,1-.031.049l-.069.117-.068.112c-.061.1-.12.2-.18.285l0,.006a10.827,10.827,0,0,1-.645.924,10.577,10.577,0,0,1-5.519,3.673c-.376.107-.763.2-1.16.273l-.083.013c-.58.123-1.154.218-1.736.287s-1.169.112-1.78.131h-.04l-.038-.01c-.177-.048-.406-.1-.669-.16-.384-.086-.84-.188-1.316-.32h0c-.047-.008-.075-.011-.1-.019a.741.741,0,0,1-.1-.036c-.056-.017-.1-.034-.158-.052-.263-.085-.505-.174-.744-.271h0a6.62,6.62,0,0,1-.727-.347h0c-.153-.084-.292-.169-.424-.253s-.227-.153-.33-.231c-.047-.038-.092-.077-.134-.115-.014-.01-.024-.024-.037-.036h0a4.858,4.858,0,0,1-1.517-5.114,6.336,6.336,0,0,1,.291-.83,8.452,8.452,0,0,1,1.495-2.38c.165-.18.339-.342.512-.5l.3-.294c.09-.091.18-.181.28-.268a12.04,12.04,0,0,1,3.518-2.165,11.872,11.872,0,0,1,1.295-.428l.009,0a14.806,14.806,0,0,1,1.747-.421,12.882,12.882,0,0,1,1.711-.188h.037l.035.008c.378.089.762.163,1.146.237l.208.041.02,0c.061,0,.094,0,.127.006a8.5,8.5,0,0,1,2.371.627l0,0a6.049,6.049,0,0,1,.953.525c.075.051.133.116.2.17a5.228,5.228,0,0,1,.6.5l.026.027c.082.078.156.158.229.24l.008.009.013.014.043.05.01.011.026.031.012.014A4.773,4.773,0,0,1,2547.646,720.813Zm3.431-5.914,0,.006c-.043.066-.088.143-.133.22-.066.115-.134.227-.208.333l-.154.222-6.111-4.542.016-.037-.016-.012.073-.226c.046-.089.107-.2.176-.328l.037-.068.008-.011.273-.623a25.167,25.167,0,0,0,1.125-2.851,9.6,9.6,0,0,0-8.071-12.978c-.56-.095-1.175-.166-1.875-.217h-.009c-.268-.009-.537-.005-.806,0-.613,0-1.227.017-1.847.069a24.346,24.346,0,0,0-2.69.384l-.029.005h0c-.1.026-.219.05-.333.075-.193.041-.385.082-.576.138-2.086.632-4.069,1.351-6.44,2.224l-.014.006c-.655.294-1.314.6-1.933.887l-1.14.526-.249-.208-.051.015-6.183-5.234.027-.013h0l0,0,.323-.214q1.1-.509,2.182-1.029c1.682-.854,3.093-1.56,4.586-2.192,1.322-.559,2.645-1.058,3.936-1.479h0l.019-.005h0c.156-.052.294-.093.429-.134l.209-.064a28.512,28.512,0,0,1,12.308-1.4h0l.107.008c.052,0,.1.005.157.01a20,20,0,0,1,6.578,1.87l1.759.914c-.014,0-.027.009-.041.01a17.14,17.14,0,0,1,2.274,1.7c.29.263.567.529.822.792l0,.005c.271.278.52.553.752.82l.117.139a19.5,19.5,0,0,1,1.772,2.415C2556.221,701.7,2554.444,710.033,2551.077,714.9Z" transform="translate(-2424.333 -682.575)" fill="#74a839"/>
        </g>
        <g id="Grupo_1383" data-name="Grupo 1383" transform="translate(63.678 90.749)">
          <path id="Trazado_2753" data-name="Trazado 2753" d="M2478.551,753.661c-.273,0-.548,0-.823-.005h-.826c-.275,0-.549,0-.823.005a1.7,1.7,0,0,0-1.406,2.854,1.779,1.779,0,0,0,1.347.5c.368-.008.737-.006,1.1-.005h.383c.365,0,.735,0,1.1.005a1.738,1.738,0,0,0,1.347-.5,1.7,1.7,0,0,0-1.406-2.855Z" transform="translate(-2474.209 -753.656)" fill="#74a839"/>
        </g>
      </g>
    </g>
  </g>
</svg>
