<svg xmlns="http://www.w3.org/2000/svg" xmlns:xlink="http://www.w3.org/1999/xlink" width="227" height="216" viewBox="0 0 227 216">
  <defs>
    <filter id="Image" x="0" y="0" width="227" height="216" filterUnits="userSpaceOnUse">
      <feOffset dy="5" input="SourceAlpha"/>
      <feGaussianBlur stdDeviation="2.5" result="blur"/>
      <feFlood flood-opacity="0.161"/>
      <feComposite operator="in" in2="blur"/>
      <feComposite in="SourceGraphic"/>
    </filter>
  </defs>
  <g id="Grupo_455" data-name="Grupo 455" transform="translate(-498.072 -3328.518)">
    <g transform="matrix(1, 0, 0, 1, 498.07, 3328.52)" filter="url(#Image)">
      <g id="Image-2" data-name="Image" transform="translate(7.5 2.5)" fill="#fff" stroke="#a2e2ff" stroke-width="6">
        <rect width="212" height="201" rx="100.5" stroke="none"/>
        <rect x="3" y="3" width="206" height="195" rx="97.5" fill="none"/>
      </g>
    </g>
    <g id="Grupo_6273" data-name="Grupo 6273" transform="translate(-495.066 4003.823)">
      <g id="Grupo_6262" data-name="Grupo 6262" transform="translate(1047.86 -544.729)">
        <path id="Trazado_3406" data-name="Trazado 3406" d="M1130.4-532.064h-80.9a1.634,1.634,0,0,1-1.634-1.634v-10.281a6.893,6.893,0,0,1,6.886-6.885h70.4a6.893,6.893,0,0,1,6.886,6.885V-533.7A1.634,1.634,0,0,1,1130.4-532.064Zm-79.27-3.268h77.636v-8.647a3.622,3.622,0,0,0-3.618-3.617h-70.4a3.622,3.622,0,0,0-3.618,3.617Z" transform="translate(-1047.86 550.863)" fill="#74a839"/>
      </g>
      <g id="Grupo_6263" data-name="Grupo 6263" transform="translate(1060.831 -561.967)">
        <path id="Trazado_3407" data-name="Trazado 3407" d="M1086.061-554.548H1061.4a1.634,1.634,0,0,1-1.634-1.634,10.445,10.445,0,0,1,10.356-10.509h22.057a1.632,1.632,0,0,1,1.533,1.069,1.634,1.634,0,0,1-.472,1.808l-.449.383a16.985,16.985,0,0,0-5.178,7.75A1.634,1.634,0,0,1,1086.061-554.548Zm-22.842-3.268h21.69a20.22,20.22,0,0,1,3.3-5.607h-18.083A7.135,7.135,0,0,0,1063.219-557.815Z" transform="translate(-1059.769 566.69)" fill="#74a839"/>
      </g>
      <g id="Grupo_6264" data-name="Grupo 6264" transform="translate(1108.155 -612.771)">
        <path id="Trazado_3408" data-name="Trazado 3408" d="M1110.831-582.534a1.636,1.636,0,0,1-1.517-1.026l-5.981-14.928a1.641,1.641,0,0,1,.015-1.25,1.631,1.631,0,0,1,.894-.874l31.461-12.605a1.639,1.639,0,0,1,1.25.015,1.631,1.631,0,0,1,.875.894l5.981,14.93a1.636,1.636,0,0,1-.014,1.25,1.643,1.643,0,0,1-.9.875l-31.46,12.6A1.636,1.636,0,0,1,1110.831-582.534Zm-3.857-15.653,4.766,11.9,28.427-11.389-4.766-11.9Z" transform="translate(-1103.217 613.334)" fill="#74a839"/>
      </g>
      <g id="Grupo_6265" data-name="Grupo 6265" transform="translate(1140.827 -612.803)">
        <path id="Trazado_3409" data-name="Trazado 3409" d="M1138.405-598.159a1.618,1.618,0,0,1-.641-.132,1.635,1.635,0,0,1-.875-.9l-3.558-8.879a1.638,1.638,0,0,1,.015-1.249,1.63,1.63,0,0,1,.894-.875l7.629-3.056a1.635,1.635,0,0,1,2.124.909l3.558,8.878a1.641,1.641,0,0,1-.015,1.25,1.637,1.637,0,0,1-.894.875l-7.629,3.056A1.625,1.625,0,0,1,1138.405-598.159Zm-1.433-9.6,2.342,5.847,4.6-1.842-2.342-5.846Z" transform="translate(-1133.214 613.363)" fill="#74a839"/>
      </g>
      <g id="Grupo_6266" data-name="Grupo 6266" transform="translate(1146.966 -619.642)">
        <path id="Trazado_3410" data-name="Trazado 3410" d="M1147.02-596.938a1.619,1.619,0,0,1-.642-.132,1.631,1.631,0,0,1-.875-.894l-6.536-16.316a1.634,1.634,0,0,1,.91-2.124l7.789-3.121a1.632,1.632,0,0,1,1.25.014,1.637,1.637,0,0,1,.874.9l6.536,16.315a1.633,1.633,0,0,1-.909,2.124l-7.789,3.122A1.649,1.649,0,0,1,1147.02-596.938Zm-4.411-17.039,5.321,13.282,4.756-1.906-5.322-13.281Z" transform="translate(-1138.85 619.642)" fill="#74a839"/>
      </g>
      <g id="Grupo_6267" data-name="Grupo 6267" transform="translate(1098.431 -604.655)">
        <path id="Trazado_3411" data-name="Trazado 3411" d="M1105.5-575.535a1.635,1.635,0,0,1-1.517-1.026l-9.578-23.906a1.635,1.635,0,0,1,.91-2.124l7.925-3.175a1.633,1.633,0,0,1,1.249.014,1.639,1.639,0,0,1,.875.9l9.578,23.907a1.638,1.638,0,0,1-.015,1.249,1.634,1.634,0,0,1-.894.875l-7.925,3.174A1.627,1.627,0,0,1,1105.5-575.535Zm-7.454-24.63,8.364,20.872,4.891-1.959-8.364-20.873Z" transform="translate(-1094.289 605.883)" fill="#74a839"/>
      </g>
      <g id="Grupo_6268" data-name="Grupo 6268" transform="translate(1118.453 -587.452)">
        <path id="Trazado_3412" data-name="Trazado 3412" d="M1114.714-559.3l-2.042-2.551,1.08-.836c.067-.037,7.021-4.006,8.23-10.8,1.195-6.722-6.38-14.169-6.457-14.244l2.273-2.347c.364.352,8.9,8.723,7.4,17.164-1.4,7.877-8.631,12.373-9.731,13.016Z" transform="translate(-1112.672 590.088)" fill="#74a839"/>
      </g>
      <g id="Grupo_6269" data-name="Grupo 6269" transform="translate(1123.661 -592.516)">
        <path id="Trazado_3413" data-name="Trazado 3413" d="M1118.807-547.328l-1.353-2.973.831-.379c1.206-.784,14.37-9.55,15.548-18.906a32.7,32.7,0,0,0-5.667-23.088l2.534-2.063a35.387,35.387,0,0,1,6.376,25.559c-1.422,11.291-16.494,20.914-17.135,21.318l-.195.1Z" transform="translate(-1117.454 594.737)" fill="#74a839"/>
      </g>
      <g id="Grupo_6270" data-name="Grupo 6270" transform="translate(1083.874 -565.552)">
        <path id="Trazado_3414" data-name="Trazado 3414" d="M1121.913-546.061h-40.989V-547.7c0-12.289,9.194-22.286,20.494-22.286s20.494,10,20.494,22.286Zm-37.659-3.268h34.328c-.753-9.724-8.163-17.385-17.163-17.385S1085.008-559.053,1084.255-549.329Z" transform="translate(-1080.925 569.981)" fill="#74a839"/>
      </g>
      <g id="Grupo_6271" data-name="Grupo 6271" transform="translate(1094.213 -553.165)">
        <circle id="Elipse_115" data-name="Elipse 115" cx="1.707" cy="1.707" r="1.707" fill="#74a839"/>
      </g>
      <g id="Grupo_6272" data-name="Grupo 6272" transform="translate(1102.222 -553.092)">
        <line id="Línea_58" data-name="Línea 58" x2="9.729" transform="translate(1.634 1.634)" fill="#74a839"/>
        <path id="Trazado_3415" data-name="Trazado 3415" d="M1109.133-555.274h-9.73a1.634,1.634,0,0,1-1.634-1.634,1.634,1.634,0,0,1,1.634-1.634h9.73a1.634,1.634,0,0,1,1.634,1.634A1.634,1.634,0,0,1,1109.133-555.274Z" transform="translate(-1097.77 558.542)" fill="#74a839"/>
      </g>
    </g>
  </g>
</svg>
