<svg xmlns="http://www.w3.org/2000/svg" xmlns:xlink="http://www.w3.org/1999/xlink" width="227" height="216" viewBox="0 0 227 216">
  <defs>
    <filter id="Image" x="0" y="0" width="227" height="216" filterUnits="userSpaceOnUse">
      <feOffset dy="5" input="SourceAlpha"/>
      <feGaussianBlur stdDeviation="2.5" result="blur"/>
      <feFlood flood-opacity="0.161"/>
      <feComposite operator="in" in2="blur"/>
      <feComposite in="SourceGraphic"/>
    </filter>
  </defs>
  <g id="Grupo_455" data-name="Grupo 455" transform="translate(-498.072 -3328.518)">
    <g transform="matrix(1, 0, 0, 1, 498.07, 3328.52)" filter="url(#Image)">
      <g id="Image-2" data-name="Image" transform="translate(7.5 2.5)" fill="#fff" stroke="#a2e2ff" stroke-width="6">
        <rect width="212" height="201" rx="100.5" stroke="none"/>
        <rect x="3" y="3" width="206" height="195" rx="97.5" fill="none"/>
      </g>
    </g>
    <g id="Grupo_1793" data-name="Grupo 1793" transform="translate(-939.896 2117.138)">
      <g id="Grupo_1794" data-name="Grupo 1794" transform="translate(1526.517 1281.145)">
        <g id="Grupo_1793-2" data-name="Grupo 1793">
          <path id="Trazado_3073" data-name="Trazado 3073" d="M1548.418,1281.129a7.354,7.354,0,0,1,2.636.562c5.8,2.245,10.2,5.58,10.613,12.312.156,2.537,1.691,3.7,3.54,5.01,8.465,6.015,10.057,14.777,4.01,22.982a6.673,6.673,0,0,0-1.032,6.494c1.931,6.975.155,10.1-6.507,10.1-.213,0-.43,0-.651-.01-.181,0-.355-.007-.526-.007-5.361,0-6.688,2.5-6.323,7.462.279,3.775.07,7.589-.01,11.386-.061,2.968-1.062,5.314-4.427,5.314-.088,0-.177,0-.269-.005-3.416-.121-4.649-2.388-4.7-5.468-.068-4.339-.182-8.684-.027-13.017.138-3.845-1.289-5.448-5.319-5.6-8.945-.336-10.447-2.552-7.922-11.226,1.4-4.821,1.418-11.39,5.338-13.761a4.566,4.566,0,0,1,2.411-.655c3.448,0,7.422,3.256,11.116,4.384a16.284,16.284,0,0,0,4.584.851c2.342,0,4.294-.987,5.4-4.016,1.82-5-1.818-7.154-5.806-8.7-1.686-.655-3.4-1.243-5.055-1.968-2.923-1.278-7.718-1.2-3.823-7.65-6.4,6.076-6.231,6.917.41,9.434,3.043,1.153,6.112,2.248,9.1,3.523,1.931.822,3.61,2.15,2.632,4.571a3.151,3.151,0,0,1-3.056,2.217,5.507,5.507,0,0,1-1.909-.385c-6.263-2.347-12.547-4.643-18.768-7.1-3.49-1.375-4.074-3.8-1.953-6.892,3.99-5.813,7.989-11.621,11.948-17.455,1.219-1.8,2.6-2.688,4.344-2.688m0-3.384c-2.862,0-5.266,1.4-7.145,4.172q-4.782,7.049-9.617,14.062l-2.32,3.379c-2.124,3.094-2.014,5.559-1.548,7.082.457,1.5,1.705,3.554,5.05,4.873q.486.192.974.382c-3.087,2.686-3.936,7.041-4.7,10.935-.27,1.386-.525,2.695-.859,3.839-1.424,4.892-1.936,8.756.192,11.706,2.243,3.109,6.542,3.687,10.852,3.849a3.8,3.8,0,0,1,1.884.351h0a3.655,3.655,0,0,1,.179,1.746c-.135,3.809-.069,7.643,0,11.352l.031,1.84c.084,5.333,3.061,8.622,7.962,8.8.132,0,.261.006.388.006,1.791,0,7.645-.622,7.811-8.627.017-.789.039-1.578.061-2.367a91.441,91.441,0,0,0-.06-9.339c-.191-2.591.26-3.216.352-3.316a4.248,4.248,0,0,1,2.6-.512c.14,0,.283,0,.43.006.254.007.5.011.748.011,4.255,0,7.185-1.133,8.959-3.463,2.519-3.313,1.669-7.82.81-10.923-.471-1.7-.374-2.405.495-3.584,3.459-4.693,4.873-9.758,4.089-14.649-.8-5.022-3.869-9.551-8.862-13.1-1.871-1.329-2.073-1.653-2.122-2.459-.58-9.472-7.566-13.246-12.77-15.261a10.6,10.6,0,0,0-3.858-.789Z" transform="translate(-1526.406 -1277.122)" fill="#74a839"/>
          <path id="Trazado_3074" data-name="Trazado 3074" d="M1549.852,1366.839c-.135,0-.271,0-.41-.006-5.265-.188-8.46-3.7-8.551-9.4l-.032-1.839c-.065-3.769-.128-7.586.006-11.384a5.373,5.373,0,0,0-.067-1.278,5.668,5.668,0,0,0-1.409-.186c-4.466-.169-8.929-.782-11.324-4.1-2.274-3.152-1.758-7.17-.283-12.234.325-1.115.577-2.406.843-3.773.716-3.669,1.517-7.779,4.188-10.612l-.087-.034c-3.57-1.407-4.913-3.639-5.411-5.263-.5-1.65-.633-4.311,1.628-7.606l2.321-3.38q4.821-7.02,9.615-14.057c2.845-4.193,6.876-5.491,11.728-3.61,5.361,2.074,12.559,5.967,13.16,15.793.03.512.043.7,1.865,2,5.13,3.644,8.281,8.313,9.114,13.5.81,5.053-.643,10.279-4.2,15.109-.712.965-.843,1.454-.4,3.058.894,3.227,1.773,7.927-.911,11.456-2,2.631-5.27,3.847-10.21,3.693a5.427,5.427,0,0,0-2.574.324h0a5.955,5.955,0,0,0-.176,2.843,92.424,92.424,0,0,1,.06,9.4l-.011.4c-.019.656-.036,1.313-.05,1.968C1558.132,1364.415,1553.829,1366.839,1549.852,1366.839Zm-7.885-24.272a6.2,6.2,0,0,1,.12,1.689c-.134,3.766-.071,7.566-.007,11.242l.033,1.917c.079,5.045,2.767,8.033,7.372,8.2.125,0,.248.006.368.006,2.114,0,7.048-.782,7.2-8.029q.022-.986.05-1.975l.011-.4a90.988,90.988,0,0,0-.057-9.278c-.182-2.466.177-3.416.513-3.776.572-.615,2.152-.707,3.043-.707.145,0,.3,0,.45.006,4.432.116,7.454-.917,9.2-3.211,2.355-3.1,1.531-7.413.708-10.389-.523-1.887-.4-2.77.591-4.109,3.359-4.559,4.735-9.467,3.977-14.191-.778-4.857-3.756-9.247-8.614-12.7-1.837-1.3-2.308-1.785-2.377-2.918-.558-9.125-7.334-12.775-12.382-14.728-4.295-1.669-7.754-.558-10.276,3.155q-4.784,7.051-9.62,14.065l-2.321,3.379c-1.986,2.894-1.892,5.163-1.466,6.557.419,1.368,1.572,3.254,4.691,4.484l1.911.748-.762.663c-2.929,2.549-3.762,6.822-4.5,10.592-.276,1.408-.534,2.725-.872,3.893-1.375,4.72-1.884,8.427.1,11.177,2.089,2.9,6.223,3.44,10.378,3.6a4.306,4.306,0,0,1,2.215.463l.469.331Zm7.885,20.888-.293-.005c-2.366-.084-5.206-1.205-5.284-6.07l-.029-1.806c-.065-3.684-.131-7.494,0-11.24.128-3.577-1.065-4.83-4.731-4.968-4.935-.186-7.458-.969-8.706-2.7-1.472-2.039-.975-5.2.221-9.307.369-1.264.636-2.633.917-4.083.782-4.008,1.591-8.151,4.692-10.029a5.194,5.194,0,0,1,2.726-.743c2.221,0,4.594,1.234,6.891,2.426a27.534,27.534,0,0,0,4.4,1.984,15.456,15.456,0,0,0,4.406.824c2.392,0,3.925-1.148,4.821-3.613,1.538-4.224-1.068-6.224-5.453-7.924-.552-.214-1.107-.422-1.66-.629-1.128-.421-2.292-.855-3.418-1.348-.479-.21-1.012-.381-1.578-.563-1.623-.522-3.3-1.06-3.882-2.608a3.781,3.781,0,0,1-.034-2.3c-1.5,1.573-2.287,2.685-2.145,3.391.173.861,1.851,1.652,4.688,2.728l2.233.838c2.272.849,4.62,1.725,6.892,2.692,3.611,1.54,3.6,3.766,2.96,5.362-.946,2.346-3.119,3.165-5.747,2.174l-4.615-1.721c-4.652-1.732-9.464-3.524-14.163-5.377-1.86-.733-3.009-1.776-3.414-3.1-.419-1.367-.022-2.95,1.181-4.7l2.273-3.311q4.848-7.06,9.672-14.141c1.967-2.9,4.368-3.643,7.706-2.356,4.873,1.887,10.527,5.052,11,12.846.134,2.162,1.329,3.161,3.285,4.552,4.373,3.106,7.046,7,7.731,11.274.663,4.141-.575,8.485-3.584,12.566a6.057,6.057,0,0,0-.934,5.971c1.115,4.026,1.005,6.728-.346,8.5-1.293,1.7-3.693,2.447-7.419,2.359-2.508-.065-4.2.379-5.136,1.39s-1.286,2.691-1.086,5.408a89.407,89.407,0,0,1,.052,9.048c-.022.8-.044,1.6-.061,2.4C1554.808,1361.465,1553.112,1363.455,1549.852,1363.455Zm-10.484-49.73a3.92,3.92,0,0,0-2.094.567c-2.64,1.6-3.395,5.47-4.125,9.218-.275,1.412-.56,2.872-.943,4.19-1.3,4.46-1.416,6.85-.405,8.251.989,1.371,3.31,2.027,7.763,2.194,4.29.162,6.058,2.025,5.906,6.232-.133,3.716-.067,7.508,0,11.176l.031,1.809c.05,3.179,1.4,4.77,4.108,4.867l.248,0c2.571,0,3.749-1.453,3.816-4.716.017-.8.04-1.6.063-2.4a88.8,88.8,0,0,0-.051-8.924c-.226-3.084.209-5.036,1.411-6.329s3.132-1.863,6.064-1.781c3.255.1,5.38-.517,6.413-1.879,1.085-1.425,1.131-3.858.142-7.435a7.284,7.284,0,0,1,1.127-7.023c2.81-3.81,3.971-7.839,3.36-11.646-.632-3.938-3.132-7.56-7.231-10.474-1.78-1.263-3.617-2.57-3.8-5.471-.338-5.541-3.491-9.173-10.224-11.781-2.778-1.075-4.594-.543-6.253,1.9q-4.813,7.091-9.677,14.147l-2.272,3.31c-.982,1.43-1.325,2.658-1.021,3.653a4.1,4.1,0,0,0,2.695,2.324c4.688,1.849,9.494,3.639,14.142,5.37l4.616,1.722c2.016.757,3.472.283,4.185-1.489.448-1.112.591-2.546-2.307-3.782-2.245-.956-4.581-1.828-6.838-2.671l-2.239-.841c-3.537-1.34-5.162-2.183-5.453-3.628-.323-1.6,1.232-3.4,4.837-6.82l3.283-3.119-2.341,3.877c-1.175,1.946-1.6,3.391-1.259,4.295.373.994,1.7,1.421,3.111,1.875a17.467,17.467,0,0,1,1.694.606c1.094.478,2.244.908,3.356,1.323.559.209,1.119.418,1.675.634,4.164,1.615,8.153,4.005,6.159,9.48-1.082,2.973-3.036,4.417-5.969,4.417a16.413,16.413,0,0,1-4.763-.877,28.508,28.508,0,0,1-4.611-2.068C1543.529,1314.889,1541.29,1313.725,1539.368,1313.725Z" transform="translate(-1526.517 -1277.235)" fill="#74a839"/>
        </g>
      </g>
      <g id="Grupo_1796" data-name="Grupo 1796" transform="translate(1537.992 1259.589)">
        <g id="Grupo_1795" data-name="Grupo 1795">
          <path id="Trazado_3075" data-name="Trazado 3075" d="M1547.361,1282.669c-.145,0-.291,0-.437-.008h0c-6.3-.229-10.522-4.743-10.511-11.232a11.531,11.531,0,0,1,3.455-8.17,10.862,10.862,0,0,1,7.837-3.169,11.483,11.483,0,0,1,11.332,11.38,10.7,10.7,0,0,1-3.314,7.834A12,12,0,0,1,1547.361,1282.669Zm-.314-3.39a8.668,8.668,0,0,0,6.313-2.4,7.362,7.362,0,0,0,2.292-5.372,8.112,8.112,0,0,0-8.013-8.034,7.447,7.447,0,0,0-5.4,2.2,8.131,8.131,0,0,0-2.438,5.759c-.006,4.675,2.772,7.681,7.251,7.844Z" transform="translate(-1535.8 -1259.479)" fill="#74a839"/>
          <path id="Trazado_3076" data-name="Trazado 3076" d="M1547.472,1283.391c-.154,0-.308,0-.462-.009-6.646-.241-11.107-5-11.1-11.844a12.153,12.153,0,0,1,3.639-8.606,11.449,11.449,0,0,1,8.277-3.342,12.092,12.092,0,0,1,11.931,11.983,11.31,11.31,0,0,1-3.5,8.279A12.665,12.665,0,0,1,1547.472,1283.391Zm.123-22.581a10.242,10.242,0,0,0-7.191,3,10.926,10.926,0,0,0-3.271,7.735c-.009,6.137,3.98,10.405,9.925,10.62a11.312,11.312,0,0,0,8.348-3.183,10.1,10.1,0,0,0,3.131-7.389,10.875,10.875,0,0,0-10.734-10.776Zm-.175,19.2c-.094,0-.187,0-.281,0h0c-4.841-.178-7.845-3.418-7.839-8.456a8.747,8.747,0,0,1,2.621-6.2,8.035,8.035,0,0,1,5.846-2.375,8.72,8.72,0,0,1,8.609,8.638,7.972,7.972,0,0,1-2.476,5.817A9.285,9.285,0,0,1,1547.42,1280Zm-.243-1.225a8.08,8.08,0,0,0,5.866-2.223,6.754,6.754,0,0,0,2.108-4.93,7.5,7.5,0,0,0-7.415-7.429,6.856,6.856,0,0,0-4.964,2.027,7.522,7.522,0,0,0-2.255,5.324C1540.511,1275.922,1543,1278.625,1547.177,1278.779Z" transform="translate(-1535.911 -1259.589)" fill="#74a839"/>
        </g>
      </g>
    </g>
  </g>
</svg>
