<svg xmlns="http://www.w3.org/2000/svg" xmlns:xlink="http://www.w3.org/1999/xlink" width="227" height="216" viewBox="0 0 227 216">
  <defs>
    <filter id="Image" x="0" y="0" width="227" height="216" filterUnits="userSpaceOnUse">
      <feOffset dy="5" input="SourceAlpha"/>
      <feGaussianBlur stdDeviation="2.5" result="blur"/>
      <feFlood flood-opacity="0.161"/>
      <feComposite operator="in" in2="blur"/>
      <feComposite in="SourceGraphic"/>
    </filter>
  </defs>
  <g id="Grupo_6343" data-name="Grupo 6343" transform="translate(-358.5 -2552.5)">
    <g id="Grupo_455" data-name="Grupo 455" transform="translate(-139.572 -776.018)">
      <g transform="matrix(1, 0, 0, 1, 498.07, 3328.52)" filter="url(#Image)">
        <g id="Image-2" data-name="Image" transform="translate(7.5 2.5)" fill="#fff" stroke="#a2e2ff" stroke-width="6">
          <rect width="212" height="201" rx="100.5" stroke="none"/>
          <rect x="3" y="3" width="206" height="195" rx="97.5" fill="none"/>
        </g>
      </g>
    </g>
    <g id="Grupo_1161" data-name="Grupo 1161" transform="translate(83.18 2503.968)">
      <g id="Grupo_1161-2" data-name="Grupo 1161" transform="translate(321.82 111.032)">
        <path id="Trazado_2563" data-name="Trazado 2563" d="M458.3,131.279c-.022-.339-.074-.675-.112-1.013s-.059-.675-.113-1.01q-.16-1.008-.415-2a24.108,24.108,0,0,0-1.335-3.826c-.013-.035-.014-.058-.028-.095a18.259,18.259,0,0,0-2.325-3.933h0l-.017-.019c-.143-.188-.239-.309-.239-.309l-.027-.006a18.748,18.748,0,0,0-3.222-3.151l-.015-.033c-.068-.051-.128-.087-.2-.135-.293-.219-.6-.424-.912-.629-.117-.077-.234-.156-.348-.229-.171-.109-.33-.228-.505-.332a.167.167,0,0,1,.008.025,17.053,17.053,0,0,0-4.081-1.947l.009.012c-.784-.281-1.587-.534-2.417-.747q-.761-.2-1.546-.353a28.619,28.619,0,0,0-4.515-.5h0a33.922,33.922,0,0,0-7.058.6,44.738,44.738,0,0,0-8.722,2.62l-.36.149c-.343.142-.686.284-1.027.436l-.244.11-.005,0c-1.731.788-3.438,1.729-5.09,2.638-.812.446-1.622.893-2.441,1.325l-.009,0-.447.264a2.652,2.652,0,0,1-.653.27l-.024.005c-.087.028-.183.049-.283.071h0l-.009,0a.753.753,0,0,1-.087.018l-.008,0h0a3.056,3.056,0,0,1-.517.048,2.023,2.023,0,0,1-.583-.075,63.538,63.538,0,0,0-36.606,0,2.048,2.048,0,0,1-.582.074,3.14,3.14,0,0,1-.519-.048h-.009l-.07-.015-.016,0-.01,0-.024-.005c-.1-.024-.195-.044-.283-.073l-.008,0a3.321,3.321,0,0,1-.36-.125,1.953,1.953,0,0,1-.285-.143l-.458-.269c-.812-.428-1.627-.877-2.444-1.327-1.648-.908-3.353-1.848-5.085-2.637h0l-.137-.061-.105-.047c-.342-.154-.683-.295-1.023-.435l-.364-.152h0a46.882,46.882,0,0,0-6.579-2.157q-1.074-.261-2.142-.461a34.471,34.471,0,0,0-7.059-.6h0a30.743,30.743,0,0,0-3.284.3c-.419.061-.829.129-1.227.209a27.639,27.639,0,0,0-4.92,1.465l-.01-.006c-.124.053-.224.1-.341.153-.2.084-.407.162-.6.252h0l-.082.038c-.134.061-.269.124-.4.192-.069.032-.125.067-.182.1l-.1.055a14.235,14.235,0,0,0-2.727,1.63v.013a19.182,19.182,0,0,0-2.309,1.93c-.059.047-.117.091-.178.145a18,18,0,0,0-2.929,3.805c-.024.037-.047.067-.071.105s-.044.086-.068.128h0c.024-.042.044-.087.068-.128h0c-.025.043-.045.088-.069.131-.107.183-.168.292-.168.292l0,.018a21.943,21.943,0,0,0-1.192,2.558c-.031.08-.058.163-.088.243-.14.37-.277.74-.4,1.121q-.234.719-.426,1.466a21.769,21.769,0,0,0-.682,5.774q.01.582.051,1.167a22.769,22.769,0,0,0,.287,2.333v.008l.07.353c.06.3.124.606.191.908.015.066.026.132.042.2.056.235.126.463.19.693.045.161.085.325.132.482.135.445.278.88.42,1.3l0,0,.011.03c.155.43.311.862.49,1.29l.008.02,0,0c.051.128.105.252.16.374l.092.211h0v0a32.63,32.63,0,0,0,2.319,4.273c.162.253.32.505.477.759l.373.56c.275.4.55.805.852,1.194a4.159,4.159,0,0,1,.815,1.467c.087.349.2.665.318,1l.226.572c.1.21.192.42.28.639a12.882,12.882,0,0,0,2.78,4.27l0,0,.154.155c.087.088.174.175.264.259l.028.027h0l0,0,.028.024c.154.138.31.266.467.391l.133.106c.352.276.736.569,1.137.823l.005,0,0,0h0l.2.128h0a18.928,18.928,0,0,0,5.578,2.163h0c.051.01.1.024.156.038s.11.028.168.04q.9.177,1.768.264a16.122,16.122,0,0,0,1.682.084,12.673,12.673,0,0,0,3.084-.371l.152-.043a10.817,10.817,0,0,0,1.037-.349l0,0c.117-.046.221-.089.324-.131l.04-.016c.132-.056.264-.116.4-.178l.005,0c.061-.029.114-.057.167-.085l.094-.049a11,11,0,0,0,1.235-.768,10.813,10.813,0,0,0,1.127-.929,3.631,3.631,0,0,1,.4-.318l.119-.087.011-.008c.047-.049.123-.121.2-.191a5.247,5.247,0,0,0,.373-.37,1.389,1.389,0,0,1,.76-.378c.1-.023.2-.039.305-.052.138-.016.274-.027.4-.033.689-.04,1.379-.06,2.07-.082.079-.005.158-.016.238-.023,1.739-.135,3.466-.386,5.284-.692.643-.109,1.3-.223,1.967-.343a2.229,2.229,0,0,1,1.624.148c.013.008.025.01.038.017l.008,0a6.7,6.7,0,0,1,2.24,1.935,14.215,14.215,0,0,0,1.112,1.178c1.748,1.577,2,2.6,1.158,4.749l-.006.016c-.458,1.5-.971,3.114-1.606,5.067a27.632,27.632,0,0,0-.714,6.759l.025.689a26.4,26.4,0,0,0,1.165,6.548c1.962,6.3,4.3,12.569,6.567,18.628a6.062,6.062,0,0,0,.846,1.483l.4.514c.378.458.791.9,1.184,1.318h0a1.783,1.783,0,0,0,1.307.612h.012a1.709,1.709,0,0,0,1.248-.582,1.923,1.923,0,0,0-.27-2.624,10.151,10.151,0,0,1-1.841-2.829q-.206-.561-.407-1.123l-.429-1.182v0c-1.6-4.377-3.217-8.937-4.813-13.552a27.139,27.139,0,0,1-.95-3.566l-.2-1.174a24.6,24.6,0,0,1-.233-5.493,2.165,2.165,0,0,1-.022-.319c0-.052-.012-.105-.01-.157a2.144,2.144,0,0,1,.076-.486l.032-.127,0-.017q.094-.834.25-1.676a27.09,27.09,0,0,1,1.482-5.084c.129-.325.226-.628.323-.931l.1-.3c.046-.146.09-.291.125-.432l.006-.025v0h0a8.189,8.189,0,0,0,.224-2.054,6.531,6.531,0,0,0-1.9-4.4,10.856,10.856,0,0,0-.811-.785c-5.576-4.865-8.938-10.176-10.279-16.238a14.587,14.587,0,0,1,.274-7.812h0l.01-.026c.12-.363.259-.72.412-1.071.144-.327.3-.647.47-.959h0l.081-.153v0c.011-.017.023-.033.032-.052q.285-.5.613-.972t.668-.885l0,0,.013-.015c.215-.257.442-.5.674-.742.052-.053.1-.111.148-.163h0l.027-.025.01-.009c.233-.231.478-.453.729-.671.077-.068.153-.138.231-.2.3-.253.609-.5.933-.734l.017-.013.325-.236c.283-.21.575-.426.9-.625a32.54,32.54,0,0,1,12.636-4.157h.009l.364-.052h.006l.412-.058h.009l.024,0a55,55,0,0,1,8.993-.636h0a57.324,57.324,0,0,1,9.023.641h.005l.41.057h0l.376.053a40.866,40.866,0,0,1,7.217,1.663,26.731,26.731,0,0,1,5.416,2.5c.324.2.615.412.9.62l.284.21.005,0,.016.013h0l.019.014c.037.028.068.055.1.083.441.327.836.654,1.2.981.2.18.405.358.586.539l.021.02.032.033.081.084c.275.282.522.551.746.82l.013.016h0l0,0c.189.228.362.467.534.706.056.076.117.149.17.227.192.281.37.57.54.863.021.037.047.071.068.109l.053.1c.011.019.018.04.029.059a13.5,13.5,0,0,1,1.413,8.521q-.094.664-.245,1.347c-1.341,6.062-4.7,11.372-10.279,16.238a6.819,6.819,0,0,0-2.486,7.212l0,.023h0l.008.024c.024.1.056.205.088.309.013.043.024.086.038.13l.1.325c.095.3.189.591.315.907a26.509,26.509,0,0,1,1.737,6.777l0,.021.013.042c.006.024.005.042.011.065a2.493,2.493,0,0,1,.067.39c0,.026.012.055.013.081a2.054,2.054,0,0,1-.017.293c-.005.064,0,.129-.011.2a24.755,24.755,0,0,1-.248,5.6l-.189,1.065a27.339,27.339,0,0,1-.95,3.566c-1.458,4.217-2.933,8.373-4.39,12.386l-1.391,3.761a11.05,11.05,0,0,1-1.709,2.543,1.924,1.924,0,0,0-.271,2.624,1.711,1.711,0,0,0,1.249.582h.012a1.784,1.784,0,0,0,1.307-.612c.369-.389.789-.842,1.184-1.318l.4-.528.005.015c.045-.06.073-.114.115-.174l.118-.158v-.019a5.7,5.7,0,0,0,.614-1.133c2.263-6.055,4.6-12.316,6.567-18.628a26.329,26.329,0,0,0,1.165-6.548l.017-.684.008-.005c0-.057,0-.115,0-.172l.006-.266-.01,0a27.689,27.689,0,0,0-.713-6.34l0-.01c-.342-1.05-.649-2.006-.936-2.913-.234-.743-.457-1.453-.669-2.145v0c-.1-.263-.19-.51-.26-.742a3.057,3.057,0,0,1,.83-3.436c.173-.184.369-.373.588-.571a14.417,14.417,0,0,0,1.112-1.178,6.873,6.873,0,0,1,2.24-1.934l.008,0c.013-.005.024-.015.035-.019a2.141,2.141,0,0,1,1.626-.146,71.724,71.724,0,0,0,7.488,1.058h.011c.658.019,1.327.041,1.994.077.023,0,.044,0,.067,0a3.025,3.025,0,0,1,1.176.245,1.008,1.008,0,0,1,.291.219c.12.134.247.253.373.369.07.066.141.132.211.2l.015.015.092.063a3.817,3.817,0,0,1,.41.326,10.793,10.793,0,0,0,2.366,1.7l.1.052c.033.018.066.034.1.051.016.009.032.018.049.026l.005,0c.239.118.476.213.715.309.19.072.36.135.523.192l.052.019c.157.055.307.1.46.144l.052.015h0l.156.043h0c.32.081.66.129,1,.184a13.226,13.226,0,0,0,2.089.187,17.769,17.769,0,0,0,3.451-.348c.057-.012.112-.025.166-.04s.1-.027.158-.039h0a18.893,18.893,0,0,0,5.579-2.164l.2-.128a13.865,13.865,0,0,0,1.148-.83l0,0,.115-.091c.171-.138.343-.274.505-.422l0,0h0c.106-.1.2-.2.3-.3l.152-.154a12.7,12.7,0,0,0,1.6-1.987q.348-.535.644-1.106t.539-1.176c.088-.221.185-.434.283-.648l.22-.558c.119-.336.232-.654.32-1a4.159,4.159,0,0,1,.815-1.467c.3-.389.577-.791.852-1.194l.373-.56c.157-.254.315-.506.477-.76a32.579,32.579,0,0,0,2.318-4.271v0l.087-.2c.049-.111.1-.223.144-.333.009-.019.017-.039.025-.058h0l0,0,.012-.031c.182-.434.339-.872.5-1.308h0c.141-.413.283-.844.417-1.285.046-.15.084-.306.127-.459.069-.242.142-.482.2-.729.016-.067.028-.134.043-.2q.1-.443.187-.889l.074-.373q.1-.582.174-1.164A21.911,21.911,0,0,0,458.3,131.279Zm-135.371-5.5c.119-.372.255-.732.39-1.092C323.184,125.051,323.051,125.413,322.93,125.784Zm.489-1.365a22.149,22.149,0,0,1,1.191-2.556h0A22.692,22.692,0,0,0,323.42,124.419ZM349.489,156.3l-.173-.206.012.018.141.205-.132.113-.023.019,0,0h0c-.038.029-.083.057-.123.086-.074.053-.146.107-.228.159-.13.084-.27.166-.422.249l-.005,0a6.61,6.61,0,0,1-.735.352h0l-.005,0c-.29.116-.576.221-.864.309l-.012,0c-.068.026-.1.039-.135.048l-.016,0-.085.017c-.505.137-.973.242-1.365.329-.27.061-.5.114-.685.163l-.039.01h-.041a19.5,19.5,0,0,1-3.539-.421H341l-.132-.018a10.931,10.931,0,0,1-7.487-4.978l0-.005v0l-.005-.009c-.1-.143-.188-.3-.277-.449l-.008-.013c-.051-.081-.069-.11-.086-.141-.115-.216-.213-.416-.3-.61a5.371,5.371,0,0,1-.21-.56v0c-.01-.028-.016-.058-.024-.088s-.008-.033-.013-.052c-.027-.1-.049-.186-.07-.273-.037-.157-.068-.306-.088-.451a4.885,4.885,0,0,1,.784-3.684,4.993,4.993,0,0,1,.334-.428l0,0,.005-.008,0,0,.016-.018.021-.025.042-.048.022-.027.02-.02c.078-.088.158-.175.247-.258l0,0,.005-.005a6.928,6.928,0,0,1,4.214-1.856c.035,0,.068-.006.1-.008l.267-.046c.391-.075.783-.15,1.167-.241l.035-.009h.038a14.21,14.21,0,0,1,3.544.625,11.9,11.9,0,0,1,1.276.422c.015.006.032.01.047.016.329.13.646.289.963.448.1.051.206.089.305.143.171.091.331.205.5.305.235.142.475.274.7.433.261.183.51.392.761.6.12.1.247.184.365.287h0c.1.087.195.182.287.276l.307.3c.177.166.354.331.524.515a8.686,8.686,0,0,1,1.526,2.432A5.057,5.057,0,0,1,349.489,156.3Zm13.138-3.783.176.274-.055.021h0l.231.363-2.127.23h-.015l-.033.008a14.927,14.927,0,0,1-1.712.307c-.061.008-.119.018-.181.025a17.692,17.692,0,0,1-1.813.1c-.133,0-.263.008-.4.006h-.027l-1.956.212.005-.3a15.324,15.324,0,0,0-.064-1.573v-.013a14.573,14.573,0,0,0-3.9-7.747l-.005-.005a14.552,14.552,0,0,0-2-1.49,16.987,16.987,0,0,0-6.544-2.488,6.222,6.222,0,0,1-.71-.126c-.1-.024-.195-.059-.291-.088-.124-.037-.248-.068-.37-.112h-.005c-.057-.008-.149-.02-.256-.042l-.042-.009c-.052-.012-.112-.032-.169-.047s-.124-.029-.19-.052l-.008,0-.03-.013a1.712,1.712,0,0,1-.367-.182l-.018-.015c-.028-.02-.041-.051-.066-.072a.756.756,0,0,1-.2-.224l-.051-.1-.069-.134c-.1-.091-.177-.193-.264-.29-.07-.08-.148-.153-.213-.234-.1-.123-.177-.249-.262-.376-.046-.07-.1-.138-.143-.207-.091-.149-.17-.3-.248-.445-.026-.049-.057-.1-.081-.146-.1-.195-.187-.383-.266-.56a14.538,14.538,0,0,1-.977-2.819c-.715-3.248.534-6.038,3.258-7.286h0l.005,0a8.976,8.976,0,0,1,3.473-.894,21.013,21.013,0,0,1,6.867.822c.11.029.224.062.338.1l.227.068c.049.014.1.031.145.045.328.1.652.2.974.31.718.234,1.3.445,1.844.66l.011,0,.031.014.022.009h0c.311.126.6.245.893.367.346.145.684.291,1.021.45h0l.955.432c.462.212.93.425,1.407.635l.23.1-.087.236C355.249,139.135,358.761,146.495,362.627,152.521Zm3.84-30.9-6,5.08-.053-.015-.254.213L359,126.364c-.633-.295-1.307-.607-1.994-.915h0c-1.009-.371-1.948-.713-2.857-1.034-.591-.209-1.173-.412-1.746-.6-.658-.22-1.314-.434-1.978-.635-.195-.058-.391-.1-.588-.142-.115-.025-.23-.049-.345-.077h-.005a23.412,23.412,0,0,0-5.5-.462c-.355.026-.69.057-1.008.094s-.62.08-.908.128a10.545,10.545,0,0,0-7.432,4.622,9.06,9.06,0,0,0-.5.933,8.956,8.956,0,0,0-.346.862,11.088,11.088,0,0,0,.031,6.849,25.61,25.61,0,0,0,1.152,2.92l.614,1.257-.076.053h0l-.128.142-6.078,4.519-.159-.228c-.074-.108-.142-.221-.209-.336-.047-.08-.095-.16-.144-.236a20.343,20.343,0,0,1-2.4-17.955q.255-.682.574-1.353l.014-.03c.214-.447.448-.89.707-1.327.057-.1.095-.181.145-.273a15.544,15.544,0,0,1,1.135-1.544.3.3,0,0,1,0,.031,16.669,16.669,0,0,1,1.97-2.139c.178-.157.354-.306.524-.446l.125-.1c.338-.276.65-.517.943-.733.312-.225.624-.449.954-.655l-.009,0a12.246,12.246,0,0,1,1.184-.688l.115-.042.012-.005q.8-.418,1.657-.759a20.8,20.8,0,0,1,5.523-1.361c.052-.005.105-.009.158-.011l.115-.009a29.243,29.243,0,0,1,12.579,1.436h0l.216.066c.144.044.289.087.433.134h0q1.008.331,2.021.711t2.026.811c.381.161.757.328,1.134.5,1.128.516,2.261,1.085,3.553,1.74l.005,0h0c.732.349,1.474.7,2.224,1.049l.383.176Zm57.008,32.237h-.012c-.132,0-.26,0-.391-.005a17.1,17.1,0,0,1-1.84-.1l-.1-.015a15.35,15.35,0,0,1-1.808-.324l-.025-.005-2.11-.226.239-.371h0V152.8l.115-.284c3.867-6.026,7.378-13.387,4.1-22.3l-.087-.236.229-.1c.479-.212.949-.426,1.415-.637l.947-.429,0,0c.64-.3,1.288-.563,1.9-.808l.013-.006.07-.029h0c-.012,0,0,0,.026-.009.511-.205,1.1-.415,1.816-.651h0q.545-.184,1.1-.347l.019-.005.233-.07c.111-.034.223-.067.335-.1l0,0a21.067,21.067,0,0,1,6.862-.821,9,9,0,0,1,3.474.894l.006,0h0a5.9,5.9,0,0,1,3.433,6.089v0a8.388,8.388,0,0,1-.177,1.2,14.484,14.484,0,0,1-.976,2.82c-.078.176-.167.363-.263.556-.046.09-.1.183-.153.274-.058.106-.112.211-.176.317s-.128.185-.191.277-.137.207-.215.307-.161.177-.242.267-.15.18-.237.261l-.12.231c0,.01-.015.014-.019.023a.79.79,0,0,1-.174.191c-.028.025-.043.059-.074.082l-.018.015a1.683,1.683,0,0,1-.369.183l-.027.012-.008,0c-.067.024-.127.035-.191.053s-.119.037-.171.047l-.039.009c-.107.021-.2.035-.259.042h0c-.151.055-.305.1-.458.139-.068.018-.132.044-.2.06a6.011,6.011,0,0,1-.711.126,14.7,14.7,0,0,0-4.449,1.352c-.528.248-1.019.508-1.465.762-.223.127-.434.252-.632.373a14.8,14.8,0,0,0-2,1.5l-.008.006a14.344,14.344,0,0,0-3.653,6.63q-.139.553-.241,1.124l0,.011a14.941,14.941,0,0,0-.061,1.561l0,.3Zm24.392-3.741v.008h0v0a5.28,5.28,0,0,1-.157.717l0,.009a1.326,1.326,0,0,1-.034.131,6.223,6.223,0,0,1-.484,1.119l0,.009c-.016.035-.029.059-.04.078s-.022.035-.031.049c-.026.045-.047.08-.071.12l-.069.115c-.062.1-.123.2-.184.29l0,.008a11.187,11.187,0,0,1-.659.944,10.8,10.8,0,0,1-5.642,3.755q-.577.164-1.186.279l-.086.013c-.592.126-1.179.223-1.774.293s-1.2.115-1.82.134h-.04l-.039-.01c-.182-.049-.416-.1-.685-.163-.392-.088-.858-.191-1.345-.327h0a.7.7,0,0,1-.108-.019.987.987,0,0,1-.1-.035c-.057-.018-.106-.037-.161-.055-.269-.087-.517-.177-.76-.275h0a6.722,6.722,0,0,1-.743-.355l0,0c-.157-.086-.3-.172-.433-.258s-.233-.156-.338-.236c-.048-.039-.094-.077-.138-.116-.013-.012-.024-.026-.037-.037h0a4.969,4.969,0,0,1-1.551-5.229,6.353,6.353,0,0,1,.3-.849,8.631,8.631,0,0,1,1.528-2.432c.169-.184.346-.35.524-.516l.309-.3c.092-.094.185-.186.286-.274a12.333,12.333,0,0,1,3.6-2.214,12.136,12.136,0,0,1,1.323-.436l.009,0a15.1,15.1,0,0,1,1.786-.43,13.216,13.216,0,0,1,1.749-.192h.037l.037.009c.386.09.779.166,1.172.242l.212.042.02,0a1.126,1.126,0,0,1,.13.008,8.694,8.694,0,0,1,2.424.64l0,0a6.138,6.138,0,0,1,.974.536c.076.053.137.119.21.174a5.447,5.447,0,0,1,.609.507c.009.009.016.018.026.027.083.08.158.162.233.245l.009.009.012.015.044.052.011.012.027.031.013.015A4.884,4.884,0,0,1,447.868,150.118Zm3.507-6.046-.005.006c-.043.069-.089.146-.135.225-.068.117-.137.232-.212.341l-.158.228-6.246-4.645.015-.038-.015-.011.073-.231c.048-.091.111-.207.182-.335l.038-.069.006-.013.28-.636a25.63,25.63,0,0,0,1.15-2.914,9.817,9.817,0,0,0-8.249-13.265c-.574-.1-1.2-.169-1.918-.221h-.009c-.275-.01-.549-.005-.824,0-.627,0-1.253.017-1.888.07a24.845,24.845,0,0,0-2.749.393l-.031.005h-.005c-.105.026-.223.052-.34.076-.2.042-.395.084-.588.142-2.134.645-4.159,1.381-6.583,2.274l-.015.005c-.67.3-1.343.614-1.975.907l-1.166.539-.254-.213-.053.015-6.32-5.35.028-.013h0l0,0,.332-.218q1.126-.521,2.229-1.052c1.72-.873,3.163-1.594,4.688-2.24,1.35-.573,2.7-1.081,4.023-1.512h0l.02-.006h0c.159-.053.3-.1.438-.137l.215-.066a29.137,29.137,0,0,1,12.581-1.435h0l.111.008c.054,0,.106.005.16.012a20.433,20.433,0,0,1,6.723,1.91l1.8.935c-.015,0-.028.009-.043.011a17.423,17.423,0,0,1,2.324,1.741c.3.27.579.541.841.809l.005.005c.276.284.531.564.769.837l.119.142a20.088,20.088,0,0,1,1.812,2.469C456.631,130.581,454.816,139.1,451.375,144.073Z" transform="translate(-321.82 -111.032)" fill="#74a839"/>
      </g>
      <g id="Grupo_1162" data-name="Grupo 1162" transform="translate(386.909 203.791)">
        <path id="Trazado_2564" data-name="Trazado 2564" d="M386.808,197.327c-.281,0-.561,0-.842-.005h-.845c-.281,0-.561,0-.842.005a1.734,1.734,0,0,0-1.437,2.916,1.824,1.824,0,0,0,1.377.514c.376-.008.753-.005,1.128,0h.392c.373,0,.751,0,1.129,0a1.777,1.777,0,0,0,1.376-.513,1.734,1.734,0,0,0-1.436-2.918Z" transform="translate(-382.369 -197.321)" fill="#74a839"/>
      </g>
    </g>
  </g>
</svg>
