<svg xmlns="http://www.w3.org/2000/svg" xmlns:xlink="http://www.w3.org/1999/xlink" width="227" height="216" viewBox="0 0 227 216">
  <defs>
    <filter id="Image" x="0" y="0" width="227" height="216" filterUnits="userSpaceOnUse">
      <feOffset dy="5" input="SourceAlpha"/>
      <feGaussianBlur stdDeviation="2.5" result="blur"/>
      <feFlood flood-opacity="0.161"/>
      <feComposite operator="in" in2="blur"/>
      <feComposite in="SourceGraphic"/>
    </filter>
  </defs>
  <g id="Grupo_455" data-name="Grupo 455" transform="translate(-498.072 -3328.518)">
    <g transform="matrix(1, 0, 0, 1, 498.07, 3328.52)" filter="url(#Image)">
      <g id="Image-2" data-name="Image" transform="translate(7.5 2.5)" fill="#fff" stroke="#a2e2ff" stroke-width="6">
        <rect width="212" height="201" rx="100.5" stroke="none"/>
        <rect x="3" y="3" width="206" height="195" rx="97.5" fill="none"/>
      </g>
    </g>
    <g id="Grupo_1332" data-name="Grupo 1332" transform="translate(-715.947 2975.805)">
      <g id="Grupo_1341" data-name="Grupo 1341" transform="translate(1269.602 396.849)">
        <g id="Grupo_1333" data-name="Grupo 1333" transform="translate(4.937)">
          <g id="Grupo_1332-2" data-name="Grupo 1332">
            <path id="Trazado_2710" data-name="Trazado 2710" d="M1329.341,508.685a55.433,55.433,0,0,1-33.746-11.326,1.485,1.485,0,0,1,1.794-2.367,52.47,52.47,0,0,0,31.952,10.724,52.949,52.949,0,1,0-52.949-52.95,52.393,52.393,0,0,0,5.751,24.029,1.484,1.484,0,1,1-2.645,1.349,55.324,55.324,0,0,1-6.076-25.378,55.918,55.918,0,1,1,55.917,55.919Z" transform="translate(-1273.424 -396.849)" fill="#74a839" stroke="#74a839" stroke-width="1"/>
          </g>
        </g>
        <g id="Grupo_1335" data-name="Grupo 1335" transform="translate(13.483 9.549)">
          <g id="Grupo_1334" data-name="Grupo 1334">
            <path id="Trazado_2711" data-name="Trazado 2711" d="M1327.048,498.247q-.851,0-1.694-.03a1.485,1.485,0,0,1,.1-2.967q.793.029,1.59.028l.517,0h.017a1.484,1.484,0,0,1,.017,2.969Zm7.738-.655a1.485,1.485,0,0,1-.249-2.948q1.043-.178,2.064-.4a1.484,1.484,0,1,1,.64,2.9q-1.091.24-2.2.432A1.531,1.531,0,0,1,1334.786,497.592Zm-16.571-.2a1.55,1.55,0,0,1-.287-.027q-1.107-.217-2.195-.487a1.484,1.484,0,0,1,.713-2.882c.68.168,1.362.319,2.053.455a1.485,1.485,0,0,1-.285,2.942Zm25.624-2.34a1.485,1.485,0,0,1-.547-2.865q.977-.386,1.929-.819a1.485,1.485,0,1,1,1.227,2.7q-1.019.461-2.062.876A1.483,1.483,0,0,1,1343.839,495.051Zm-34.617-.424a1.474,1.474,0,0,1-.582-.12q-1.033-.44-2.042-.928a1.484,1.484,0,1,1,1.289-2.674q.948.457,1.917.871a1.485,1.485,0,0,1-.582,2.851Zm42.942-3.929a1.484,1.484,0,0,1-.82-2.722q.876-.581,1.722-1.2a1.485,1.485,0,0,1,1.757,2.4q-.9.663-1.84,1.283A1.481,1.481,0,0,1,1352.164,490.7ZM1301,490.064a1.473,1.473,0,0,1-.849-.267q-.748-.521-1.474-1.072a1.485,1.485,0,1,1,1.794-2.365q.678.515,1.378,1a1.484,1.484,0,0,1-.85,2.7Zm58.424-5.337a1.484,1.484,0,0,1-1.056-2.528q.742-.748,1.443-1.53a1.484,1.484,0,1,1,2.208,1.984q-.75.835-1.54,1.634A1.479,1.479,0,0,1,1359.423,484.727Zm5.89-7.331a1.485,1.485,0,0,1-1.247-2.29q.572-.882,1.1-1.793a1.485,1.485,0,0,1,2.569,1.488q-.566.975-1.174,1.917A1.485,1.485,0,0,1,1365.313,477.4Zm-78.844-4.015a1.484,1.484,0,0,1-1.323-.81q-.51-1-.973-2.023a1.484,1.484,0,1,1,2.706-1.221q.434.959.911,1.9a1.485,1.485,0,0,1-1.321,2.159Zm83.1-4.372a1.483,1.483,0,0,1-1.386-2.018q.376-.981.707-1.983a1.484,1.484,0,1,1,2.82.928q-.353,1.072-.755,2.121A1.486,1.486,0,0,1,1369.573,469.009Zm-86.487-4.4a1.484,1.484,0,0,1-1.431-1.1q-.292-1.081-.533-2.181a1.485,1.485,0,0,1,2.9-.637q.227,1.031.5,2.042a1.486,1.486,0,0,1-1.435,1.872Zm88.922-4.684a1.458,1.458,0,0,1-.236-.018,1.484,1.484,0,0,1-1.231-1.7q.165-1.035.28-2.082a1.485,1.485,0,1,1,2.952.327q-.124,1.12-.3,2.225A1.484,1.484,0,0,1,1372.009,459.922Zm-90.416-4.6a1.485,1.485,0,0,1-1.48-1.4q-.064-1.114-.074-2.241a1.484,1.484,0,0,1,1.47-1.5h.014a1.484,1.484,0,0,1,1.484,1.47q.01,1.058.07,2.1a1.485,1.485,0,0,1-1.4,1.566Zm90.928-4.788a1.485,1.485,0,0,1-1.482-1.413q-.051-1.058-.149-2.1a1.484,1.484,0,0,1,2.956-.279q.1,1.11.159,2.236a1.484,1.484,0,0,1-1.412,1.553Zm-90.494-4.6a1.443,1.443,0,0,1-.222-.017,1.484,1.484,0,0,1-1.248-1.687q.167-1.114.385-2.212a1.484,1.484,0,1,1,2.912.58q-.205,1.027-.36,2.07A1.487,1.487,0,0,1,1282.027,445.932Zm89.085-4.692a1.484,1.484,0,0,1-1.435-1.112q-.264-1.017-.577-2.019a1.485,1.485,0,1,1,2.834-.885q.333,1.068.618,2.159a1.486,1.486,0,0,1-1.439,1.858Zm-86.739-4.416a1.5,1.5,0,0,1-.52-.094,1.483,1.483,0,0,1-.87-1.909q.393-1.058.836-2.09a1.485,1.485,0,0,1,2.729,1.173q-.415.965-.783,1.953A1.485,1.485,0,0,1,1284.373,436.825Zm83.444-4.388a1.485,1.485,0,0,1-1.329-.822q-.469-.942-.982-1.856a1.484,1.484,0,0,1,2.59-1.451q.547.977,1.048,1.98a1.486,1.486,0,0,1-1.327,2.148Zm-79.261-4.041a1.483,1.483,0,0,1-1.252-2.279c.4-.632.817-1.254,1.244-1.867a1.485,1.485,0,0,1,2.431,1.7q-.6.862-1.168,1.752A1.486,1.486,0,0,1,1288.556,428.4Zm74.223-3.891a1.478,1.478,0,0,1-1.165-.563q-.653-.826-1.343-1.617a1.484,1.484,0,1,1,2.239-1.949q.736.845,1.434,1.725a1.484,1.484,0,0,1-1.164,2.405Zm-68.4-3.493a1.484,1.484,0,0,1-1.064-2.518q.781-.806,1.6-1.575a1.485,1.485,0,0,1,2.028,2.17q-.769.717-1.5,1.471A1.483,1.483,0,0,1,1294.381,421.011Zm61.838-3.244a1.48,1.48,0,0,1-.951-.345q-.808-.674-1.646-1.31a1.484,1.484,0,1,1,1.792-2.367q.9.678,1.758,1.4a1.484,1.484,0,0,1-.953,2.624Zm-54.631-2.794a1.484,1.484,0,0,1-.832-2.714q.928-.628,1.887-1.21a1.485,1.485,0,1,1,1.542,2.537q-.9.547-1.767,1.133A1.474,1.474,0,0,1,1301.589,414.973Zm46.831-2.46a1.474,1.474,0,0,1-.7-.174q-.928-.494-1.882-.946a1.484,1.484,0,1,1,1.27-2.683q1.017.481,2.009,1.008a1.485,1.485,0,0,1-.7,2.8Zm-38.545-1.969a1.484,1.484,0,0,1-.562-2.859q1.038-.424,2.1-.8a1.485,1.485,0,1,1,.986,2.8q-.994.349-1.965.745A1.477,1.477,0,0,1,1309.875,410.544Zm29.827-1.567a1.472,1.472,0,0,1-.412-.059q-1.007-.291-2.032-.534a1.485,1.485,0,1,1,.684-2.89q1.1.26,2.172.571a1.485,1.485,0,0,1-.411,2.912Zm-20.8-1.055a1.484,1.484,0,0,1-.262-2.945q1.1-.2,2.218-.346a1.485,1.485,0,0,1,.387,2.944q-1.046.138-2.077.323A1.451,1.451,0,0,1,1318.9,407.922Zm11.549-.6c-.036,0-.074,0-.111,0-.695-.052-1.4-.087-2.1-.106a1.484,1.484,0,0,1-1.444-1.523,1.464,1.464,0,0,1,1.523-1.444q1.128.029,2.241.112a1.484,1.484,0,0,1-.109,2.965Z" transform="translate(-1280.039 -404.241)" fill="#74a839"/>
          </g>
        </g>
        <g id="Grupo_1336" data-name="Grupo 1336" transform="translate(32.577 61.491)">
          <path id="Trazado_2712" data-name="Trazado 2712" d="M1314.789,445.841c-3.091-2.925-9.718-1.1-14.8,4.082s-6.693,11.748-3.6,14.672,9.717,1.1,14.8-4.082S1317.881,448.764,1314.789,445.841Z" transform="translate(-1294.819 -444.447)" fill="#74a839"/>
        </g>
        <g id="Grupo_1338" data-name="Grupo 1338" transform="translate(31.092 60.005)">
          <g id="Grupo_1337" data-name="Grupo 1337">
            <path id="Trazado_2713" data-name="Trazado 2713" d="M1300.667,467.81a7.028,7.028,0,0,1-4.96-1.8,6.878,6.878,0,0,1-2.036-5.009c-.07-3.734,2.022-8.138,5.6-11.781,5.732-5.842,13.144-7.653,16.878-4.122h0a6.875,6.875,0,0,1,2.033,5.01c.07,3.733-2.022,8.138-5.595,11.779C1308.831,465.714,1304.356,467.81,1300.667,467.81Zm10.516-21.563c-2.843,0-6.666,1.862-9.8,5.051-2.982,3.04-4.8,6.736-4.744,9.646a3.93,3.93,0,0,0,1.106,2.907c2.462,2.327,8.285.475,12.717-4.044,2.981-3.04,4.8-6.736,4.746-9.645a3.943,3.943,0,0,0-1.106-2.908h0A4.135,4.135,0,0,0,1311.183,446.248Z" transform="translate(-1293.67 -443.297)" fill="#74a839"/>
          </g>
        </g>
        <g id="Grupo_1340" data-name="Grupo 1340" transform="translate(0 80.773)">
          <g id="Grupo_1339" data-name="Grupo 1339">
            <path id="Trazado_2714" data-name="Trazado 2714" d="M1271.086,494.868a1.485,1.485,0,0,1-1.068-2.515,14.016,14.016,0,0,1,9.548-4.749,14.255,14.255,0,0,0,5.479-1.625c2.338-1.3,1.7-4.283.363-9.037-1.161-4.144-2.364-8.43.316-11.212,3.5-3.634,7.434-3.868,10.594-4.055,2.543-.151,4.552-.271,6.072-1.849a1.485,1.485,0,1,1,2.138,2.061c-2.323,2.412-5.225,2.585-8.033,2.752-3.053.182-5.937.353-8.632,3.152-1.5,1.557-.532,5.01.4,8.349,1.3,4.639,2.776,9.9-1.776,12.433a17.142,17.142,0,0,1-6.5,1.97,11.124,11.124,0,0,0-7.83,3.87A1.481,1.481,0,0,1,1271.086,494.868Z" transform="translate(-1269.602 -459.373)" fill="#74a839"/>
          </g>
        </g>
      </g>
      <g id="Grupo_1349" data-name="Grupo 1349" transform="translate(1316.631 416.478)">
        <g id="Grupo_1348" data-name="Grupo 1348">
          <g id="Grupo_1342" data-name="Grupo 1342" transform="translate(3.64 6.15)">
            <path id="Trazado_2715" data-name="Trazado 2715" d="M1325.049,416.8a16.227,16.227,0,1,0,16.227,16.226A16.243,16.243,0,0,0,1325.049,416.8Zm0,29.539a13.315,13.315,0,1,1,13.315-13.317A13.329,13.329,0,0,1,1325.049,446.343Z" transform="translate(-1308.823 -416.804)" fill="#74a839"/>
          </g>
          <g id="Grupo_1343" data-name="Grupo 1343" transform="translate(0 3.275)">
            <circle id="Elipse_92" data-name="Elipse 92" cx="4.368" cy="4.368" r="4.368" fill="#74a839"/>
          </g>
          <g id="Grupo_1344" data-name="Grupo 1344" transform="translate(31.106 3.275)">
            <circle id="Elipse_93" data-name="Elipse 93" cx="3.339" cy="3.339" r="3.339" fill="#74a839"/>
          </g>
          <g id="Grupo_1345" data-name="Grupo 1345" transform="translate(10.92)">
            <circle id="Elipse_94" data-name="Elipse 94" cx="1.638" cy="1.638" r="1.638" fill="#74a839"/>
          </g>
          <g id="Grupo_1346" data-name="Grupo 1346" transform="translate(8.736 15.515)">
            <path id="Trazado_2716" data-name="Trazado 2716" d="M1319.226,424.053a5.92,5.92,0,0,0-6.458,6.474,7.067,7.067,0,0,0,.862,3.65,5.251,5.251,0,0,0,2.248,2.134,8.032,8.032,0,0,0,3.5.673,7.039,7.039,0,0,0,3.477-.78,5.306,5.306,0,0,0,2.133-2.182,7.723,7.723,0,0,0,.737-3.6,6.315,6.315,0,0,0-1.69-4.7A6.536,6.536,0,0,0,1319.226,424.053Zm1.953,9.229a2.662,2.662,0,0,1-3.842-.018,5.623,5.623,0,0,1,.005-5.458,2.347,2.347,0,0,1,1.877-.829,2.444,2.444,0,0,1,1.933.815,3.868,3.868,0,0,1,.713,2.581A4.647,4.647,0,0,1,1321.179,433.282Z" transform="translate(-1312.768 -424.053)" fill="#74a839"/>
          </g>
          <g id="Grupo_1347" data-name="Grupo 1347" transform="translate(22.096 19.818)">
            <path id="Trazado_2717" data-name="Trazado 2717" d="M1326.964,433.526c.156-.127.465-.4.93-.725a6.152,6.152,0,0,0,1.612-1.537,2.694,2.694,0,0,0,.442-1.457,2.278,2.278,0,0,0-1.445-2.142,5.107,5.107,0,0,0-1.89-.28,4.6,4.6,0,0,0-1.821.291,2.263,2.263,0,0,0-1.017.835,3.657,3.657,0,0,0-.5,1.515l2.3.189a1.7,1.7,0,0,1,.376-.979,1.069,1.069,0,0,1,1.424-.008.86.86,0,0,1,.279.646,1.279,1.279,0,0,1-.281.739,6.772,6.772,0,0,1-1.294,1.138,9.876,9.876,0,0,0-2.254,2.021,15.327,15.327,0,0,0-.719,1.819h6.3v-1.456h-2.991C1326.624,434.134,1326.807,433.652,1326.964,433.526Z" transform="translate(-1323.11 -427.384)" fill="#74a839"/>
          </g>
        </g>
      </g>
    </g>
  </g>
</svg>
