<svg xmlns="http://www.w3.org/2000/svg" xmlns:xlink="http://www.w3.org/1999/xlink" width="227" height="216" viewBox="0 0 227 216">
  <defs>
    <filter id="Image" x="0" y="0" width="227" height="216" filterUnits="userSpaceOnUse">
      <feOffset dy="5" input="SourceAlpha"/>
      <feGaussianBlur stdDeviation="2.5" result="blur"/>
      <feFlood flood-opacity="0.161"/>
      <feComposite operator="in" in2="blur"/>
      <feComposite in="SourceGraphic"/>
    </filter>
  </defs>
  <g id="Grupo_455" data-name="Grupo 455" transform="translate(7.5 2.5)">
    <g transform="matrix(1, 0, 0, 1, -7.5, -2.5)" filter="url(#Image)">
      <g id="Image-2" data-name="Image" transform="translate(7.5 2.5)" fill="#fff" stroke="#a2e2ff" stroke-width="6">
        <rect width="212" height="201" rx="100.5" stroke="none"/>
        <rect x="3" y="3" width="206" height="195" rx="97.5" fill="none"/>
      </g>
    </g>
    <g id="Grupo_4500" data-name="Grupo 4500" transform="translate(-2711.078 -2105.272)">
      <g id="Grupo_4189" data-name="Grupo 4189" transform="translate(2784.551 2158.326)">
        <g id="Grupo_4166" data-name="Grupo 4166" transform="translate(0 3.493)">
          <g id="Grupo_4165" data-name="Grupo 4165">
            <g id="Grupo_4164" data-name="Grupo 4164">
              <g id="Grupo_4163" data-name="Grupo 4163">
                <g id="Grupo_4162" data-name="Grupo 4162">
                  <g id="Grupo_4161" data-name="Grupo 4161">
                    <g id="Grupo_4160" data-name="Grupo 4160">
                      <g id="Grupo_4159" data-name="Grupo 4159">
                        <g id="Grupo_4158" data-name="Grupo 4158">
                          <g id="Grupo_4157" data-name="Grupo 4157">
                            <g id="Grupo_4156" data-name="Grupo 4156">
                              <g id="Grupo_4155" data-name="Grupo 4155">
                                <g id="Grupo_4154" data-name="Grupo 4154">
                                  <g id="Grupo_4153" data-name="Grupo 4153">
                                    <g id="Grupo_4152" data-name="Grupo 4152">
                                      <g id="Grupo_4151" data-name="Grupo 4151">
                                        <g id="Grupo_4150" data-name="Grupo 4150">
                                          <g id="Grupo_4149" data-name="Grupo 4149">
                                            <g id="Grupo_4148" data-name="Grupo 4148">
                                              <g id="Grupo_4147" data-name="Grupo 4147">
                                                <g id="Grupo_4146" data-name="Grupo 4146">
                                                  <g id="Grupo_4145" data-name="Grupo 4145">
                                                    <path id="Trazado_3250" data-name="Trazado 3250" d="M2785.711,2177.777c-.127-.067-.257-.129-.4-.195l-.543-.259.3-.411c.048-.068.091-.127.135-.184a4.429,4.429,0,0,0-.408-6.278c-.128-.125-.262-.244-.4-.361-.741-.643-1.112-.963-1.115-1.392s.368-.759,1.105-1.417a8.214,8.214,0,0,0,1.066-1.127,4.274,4.274,0,0,0,.05-5.1,8.716,8.716,0,0,0-1.285-1.337,2.769,2.769,0,0,1-1.031-1.684,1.676,1.676,0,0,0-1.678-1.356c-.058,0-.118,0-.178.009a1.769,1.769,0,0,0-1.594,1.752,4.148,4.148,0,0,0,1.235,3.078c.305.316.643.616.972.907l.376.336a1.1,1.1,0,0,1,.426.808,1.072,1.072,0,0,1-.416.788l-.37.328c-.331.291-.674.592-.974.914a4.33,4.33,0,0,0,0,6.167c.256.273.547.53.828.779l.209.186c.421.377.744.7.74,1.085,0,.354-.257.635-.753,1.063a6.48,6.48,0,0,0-2.063,2.6,2.224,2.224,0,0,1-.656.921,5.6,5.6,0,0,0-2.289,3.9,36.933,36.933,0,0,0-.074,5.172,6.1,6.1,0,0,0,12.181-.221c.053-1.582.053-2.969,0-4.239A5.932,5.932,0,0,0,2785.711,2177.777Zm-.137,7.954c0,.449.008.9-.008,1.344a2.53,2.53,0,0,1-2.472,2.482h-.066a2.523,2.523,0,0,1-2.568-2.407c-.059-1.413-.058-2.784,0-4.077a2.5,2.5,0,0,1,2.661-2.37,2.531,2.531,0,0,1,2.444,2.5c.013.444.01.888.006,1.333l0,.6Z" transform="translate(-2776.87 -2156.68)" fill="#74a839"/>
                                                  </g>
                                                </g>
                                              </g>
                                            </g>
                                          </g>
                                        </g>
                                      </g>
                                    </g>
                                  </g>
                                </g>
                              </g>
                            </g>
                          </g>
                        </g>
                      </g>
                    </g>
                  </g>
                </g>
              </g>
            </g>
          </g>
        </g>
        <g id="Grupo_4188" data-name="Grupo 4188" transform="translate(18.887)">
          <g id="Grupo_4187" data-name="Grupo 4187">
            <g id="Grupo_4186" data-name="Grupo 4186">
              <g id="Grupo_4185" data-name="Grupo 4185">
                <g id="Grupo_4184" data-name="Grupo 4184">
                  <g id="Grupo_4183" data-name="Grupo 4183">
                    <g id="Grupo_4182" data-name="Grupo 4182">
                      <g id="Grupo_4181" data-name="Grupo 4181">
                        <g id="Grupo_4180" data-name="Grupo 4180">
                          <g id="Grupo_4179" data-name="Grupo 4179">
                            <g id="Grupo_4178" data-name="Grupo 4178">
                              <g id="Grupo_4177" data-name="Grupo 4177">
                                <g id="Grupo_4176" data-name="Grupo 4176">
                                  <g id="Grupo_4175" data-name="Grupo 4175">
                                    <g id="Grupo_4174" data-name="Grupo 4174">
                                      <g id="Grupo_4173" data-name="Grupo 4173">
                                        <g id="Grupo_4172" data-name="Grupo 4172">
                                          <g id="Grupo_4171" data-name="Grupo 4171">
                                            <g id="Grupo_4170" data-name="Grupo 4170">
                                              <g id="Grupo_4169" data-name="Grupo 4169">
                                                <g id="Grupo_4168" data-name="Grupo 4168">
                                                  <g id="Grupo_4167" data-name="Grupo 4167">
                                                    <path id="Trazado_3251" data-name="Trazado 3251" d="M2800.574,2175.027c-.124-.066-.251-.125-.389-.19l-.553-.263.285-.4c.052-.074.1-.137.145-.2a4.43,4.43,0,0,0-.408-6.279c-.129-.124-.261-.243-.4-.36-.742-.643-1.111-.964-1.115-1.392s.367-.759,1.107-1.417a8.25,8.25,0,0,0,1.065-1.127,4.28,4.28,0,0,0,.051-5.1,8.739,8.739,0,0,0-1.286-1.337,2.763,2.763,0,0,1-1.03-1.685,1.674,1.674,0,0,0-1.677-1.355,1.77,1.77,0,0,0-1.772,1.761,4.157,4.157,0,0,0,1.235,3.078c.305.316.643.616.972.907l.376.336a1.108,1.108,0,0,1,.426.807,1.078,1.078,0,0,1-.414.789l-.37.327c-.332.292-.673.594-.974.914a4.327,4.327,0,0,0,0,6.167,11.131,11.131,0,0,0,.822.775l.214.19c.42.377.743.7.739,1.084,0,.355-.257.637-.754,1.062a6.467,6.467,0,0,0-2.061,2.6,2.269,2.269,0,0,1-.658.922,5.585,5.585,0,0,0-2.286,3.9,36.7,36.7,0,0,0-.075,5.173,6.061,6.061,0,0,0,6.147,5.629h.118a6.039,6.039,0,0,0,5.916-5.849c.053-1.582.053-2.969,0-4.237A5.93,5.93,0,0,0,2800.574,2175.027Zm-.138,7.992c0,.436.007.871-.008,1.3a2.529,2.529,0,0,1-2.473,2.482h-.066a2.526,2.526,0,0,1-2.568-2.406c-.057-1.418-.056-2.789,0-4.077a2.471,2.471,0,0,1,2.661-2.37,2.529,2.529,0,0,1,2.444,2.5c.014.445.01.891.007,1.337l0,.6Z" transform="translate(-2791.732 -2153.931)" fill="#74a839"/>
                                                  </g>
                                                </g>
                                              </g>
                                            </g>
                                          </g>
                                        </g>
                                      </g>
                                    </g>
                                  </g>
                                </g>
                              </g>
                            </g>
                          </g>
                        </g>
                      </g>
                    </g>
                  </g>
                </g>
              </g>
            </g>
          </g>
        </g>
      </g>
      <g id="Grupo_4322" data-name="Grupo 4322" transform="translate(2776.739 2208.479)">
        <g id="Grupo_4211" data-name="Grupo 4211" transform="translate(20.359 34.845)">
          <g id="Grupo_4210" data-name="Grupo 4210">
            <g id="Grupo_4209" data-name="Grupo 4209">
              <g id="Grupo_4208" data-name="Grupo 4208">
                <g id="Grupo_4207" data-name="Grupo 4207">
                  <g id="Grupo_4206" data-name="Grupo 4206">
                    <g id="Grupo_4205" data-name="Grupo 4205">
                      <g id="Grupo_4204" data-name="Grupo 4204">
                        <g id="Grupo_4203" data-name="Grupo 4203">
                          <g id="Grupo_4202" data-name="Grupo 4202">
                            <g id="Grupo_4201" data-name="Grupo 4201">
                              <g id="Grupo_4200" data-name="Grupo 4200">
                                <g id="Grupo_4199" data-name="Grupo 4199">
                                  <g id="Grupo_4198" data-name="Grupo 4198">
                                    <g id="Grupo_4197" data-name="Grupo 4197">
                                      <g id="Grupo_4196" data-name="Grupo 4196">
                                        <g id="Grupo_4195" data-name="Grupo 4195">
                                          <g id="Grupo_4194" data-name="Grupo 4194">
                                            <g id="Grupo_4193" data-name="Grupo 4193">
                                              <g id="Grupo_4192" data-name="Grupo 4192">
                                                <g id="Grupo_4191" data-name="Grupo 4191">
                                                  <g id="Grupo_4190" data-name="Grupo 4190">
                                                    <path id="Trazado_3252" data-name="Trazado 3252" d="M2790.729,2222.758a1.928,1.928,0,0,0-1.879-1.939h-.072a1.916,1.916,0,0,0-1.989,1.816c-.06,1.275-.06,2.629,0,4.025a1.973,1.973,0,0,0,3.942-.073c.016-.427.011-.854.009-1.282l0-.63,0-.6C2790.739,2223.633,2790.743,2223.195,2790.729,2222.758Z" transform="translate(-2786.743 -2220.817)" fill="none"/>
                                                  </g>
                                                </g>
                                              </g>
                                            </g>
                                          </g>
                                        </g>
                                      </g>
                                    </g>
                                  </g>
                                </g>
                              </g>
                            </g>
                          </g>
                        </g>
                      </g>
                    </g>
                  </g>
                </g>
              </g>
            </g>
          </g>
        </g>
        <g id="Grupo_4233" data-name="Grupo 4233" transform="translate(37.791 24.605)">
          <g id="Grupo_4232" data-name="Grupo 4232">
            <g id="Grupo_4231" data-name="Grupo 4231">
              <g id="Grupo_4230" data-name="Grupo 4230">
                <g id="Grupo_4229" data-name="Grupo 4229">
                  <g id="Grupo_4228" data-name="Grupo 4228">
                    <g id="Grupo_4227" data-name="Grupo 4227">
                      <g id="Grupo_4226" data-name="Grupo 4226">
                        <g id="Grupo_4225" data-name="Grupo 4225">
                          <g id="Grupo_4224" data-name="Grupo 4224">
                            <g id="Grupo_4223" data-name="Grupo 4223">
                              <g id="Grupo_4222" data-name="Grupo 4222">
                                <g id="Grupo_4221" data-name="Grupo 4221">
                                  <g id="Grupo_4220" data-name="Grupo 4220">
                                    <g id="Grupo_4219" data-name="Grupo 4219">
                                      <g id="Grupo_4218" data-name="Grupo 4218">
                                        <g id="Grupo_4217" data-name="Grupo 4217">
                                          <g id="Grupo_4216" data-name="Grupo 4216">
                                            <g id="Grupo_4215" data-name="Grupo 4215">
                                              <g id="Grupo_4214" data-name="Grupo 4214">
                                                <g id="Grupo_4213" data-name="Grupo 4213">
                                                  <g id="Grupo_4212" data-name="Grupo 4212">
                                                    <path id="Trazado_3253" data-name="Trazado 3253" d="M2804.447,2214.7a1.93,1.93,0,0,0-1.881-1.939h-.073a1.913,1.913,0,0,0-1.986,1.815c-.06,1.276-.061,2.63,0,4.026a1.946,1.946,0,0,0,1.984,1.848h.054a1.948,1.948,0,0,0,1.9-1.919c.014-.427.012-.855.008-1.282l0-.632,0-.6C2804.458,2215.574,2804.46,2215.136,2804.447,2214.7Z" transform="translate(-2800.461 -2212.759)" fill="none"/>
                                                  </g>
                                                </g>
                                              </g>
                                            </g>
                                          </g>
                                        </g>
                                      </g>
                                    </g>
                                  </g>
                                </g>
                              </g>
                            </g>
                          </g>
                        </g>
                      </g>
                    </g>
                  </g>
                </g>
              </g>
            </g>
          </g>
        </g>
        <g id="Grupo_4255" data-name="Grupo 4255" transform="translate(4.13 24.605)">
          <g id="Grupo_4254" data-name="Grupo 4254">
            <g id="Grupo_4253" data-name="Grupo 4253">
              <g id="Grupo_4252" data-name="Grupo 4252">
                <g id="Grupo_4251" data-name="Grupo 4251">
                  <g id="Grupo_4250" data-name="Grupo 4250">
                    <g id="Grupo_4249" data-name="Grupo 4249">
                      <g id="Grupo_4248" data-name="Grupo 4248">
                        <g id="Grupo_4247" data-name="Grupo 4247">
                          <g id="Grupo_4246" data-name="Grupo 4246">
                            <g id="Grupo_4245" data-name="Grupo 4245">
                              <g id="Grupo_4244" data-name="Grupo 4244">
                                <g id="Grupo_4243" data-name="Grupo 4243">
                                  <g id="Grupo_4242" data-name="Grupo 4242">
                                    <g id="Grupo_4241" data-name="Grupo 4241">
                                      <g id="Grupo_4240" data-name="Grupo 4240">
                                        <g id="Grupo_4239" data-name="Grupo 4239">
                                          <g id="Grupo_4238" data-name="Grupo 4238">
                                            <g id="Grupo_4237" data-name="Grupo 4237">
                                              <g id="Grupo_4236" data-name="Grupo 4236">
                                                <g id="Grupo_4235" data-name="Grupo 4235">
                                                  <g id="Grupo_4234" data-name="Grupo 4234">
                                                    <path id="Trazado_3254" data-name="Trazado 3254" d="M2777.958,2214.7a1.929,1.929,0,0,0-1.88-1.939H2776a1.913,1.913,0,0,0-1.987,1.815c-.059,1.276-.06,2.63,0,4.026a1.944,1.944,0,0,0,1.985,1.848h.052a1.948,1.948,0,0,0,1.9-1.919c.015-.44.011-.878.008-1.319l0-.595,0-.6C2777.968,2215.572,2777.971,2215.136,2777.958,2214.7Z" transform="translate(-2773.973 -2212.759)" fill="none"/>
                                                  </g>
                                                </g>
                                              </g>
                                            </g>
                                          </g>
                                        </g>
                                      </g>
                                    </g>
                                  </g>
                                </g>
                              </g>
                            </g>
                          </g>
                        </g>
                      </g>
                    </g>
                  </g>
                </g>
              </g>
            </g>
          </g>
        </g>
        <g id="Grupo_4277" data-name="Grupo 4277">
          <g id="Grupo_4276" data-name="Grupo 4276">
            <g id="Grupo_4275" data-name="Grupo 4275">
              <g id="Grupo_4274" data-name="Grupo 4274">
                <g id="Grupo_4273" data-name="Grupo 4273">
                  <g id="Grupo_4272" data-name="Grupo 4272">
                    <g id="Grupo_4271" data-name="Grupo 4271">
                      <g id="Grupo_4270" data-name="Grupo 4270">
                        <g id="Grupo_4269" data-name="Grupo 4269">
                          <g id="Grupo_4268" data-name="Grupo 4268">
                            <g id="Grupo_4267" data-name="Grupo 4267">
                              <g id="Grupo_4266" data-name="Grupo 4266">
                                <g id="Grupo_4265" data-name="Grupo 4265">
                                  <g id="Grupo_4264" data-name="Grupo 4264">
                                    <g id="Grupo_4263" data-name="Grupo 4263">
                                      <g id="Grupo_4262" data-name="Grupo 4262">
                                        <g id="Grupo_4261" data-name="Grupo 4261">
                                          <g id="Grupo_4260" data-name="Grupo 4260">
                                            <g id="Grupo_4259" data-name="Grupo 4259">
                                              <g id="Grupo_4258" data-name="Grupo 4258">
                                                <g id="Grupo_4257" data-name="Grupo 4257">
                                                  <g id="Grupo_4256" data-name="Grupo 4256">
                                                    <path id="Trazado_3255" data-name="Trazado 3255" d="M2779.565,2214.492c-.128-.069-.258-.128-.4-.195l-.543-.259.3-.411c.049-.069.091-.127.136-.184a4.43,4.43,0,0,0-.411-6.279c-.127-.123-.259-.243-.393-.358-.742-.643-1.112-.965-1.116-1.393s.367-.759,1.107-1.417a8.194,8.194,0,0,0,1.065-1.127,4.277,4.277,0,0,0,.051-5.1,8.744,8.744,0,0,0-1.286-1.337,2.771,2.771,0,0,1-1.031-1.684,1.718,1.718,0,0,0-1.855-1.345,1.767,1.767,0,0,0-1.594,1.752,4.155,4.155,0,0,0,1.235,3.077c.308.318.648.621.979.914l.37.331a1.1,1.1,0,0,1,.426.805,1.073,1.073,0,0,1-.416.789l-.367.327c-.332.291-.675.594-.976.914a4.333,4.333,0,0,0,0,6.17c.254.271.544.528.825.775l.211.188c.42.377.743.7.74,1.085,0,.353-.257.635-.754,1.063a6.47,6.47,0,0,0-2.061,2.6,2.238,2.238,0,0,1-.657.921,5.59,5.59,0,0,0-2.288,3.9,36.654,36.654,0,0,0-.075,5.172,6.058,6.058,0,0,0,6.144,5.628h.121a6.038,6.038,0,0,0,5.916-5.848c.053-1.581.053-2.967,0-4.238A5.929,5.929,0,0,0,2779.565,2214.492Zm-.138,7.954c0,.448.009.9-.008,1.344a2.524,2.524,0,0,1-2.471,2.481h-.066a2.524,2.524,0,0,1-2.568-2.406c-.057-1.413-.056-2.784,0-4.077a2.484,2.484,0,0,1,2.567-2.37h.094a2.527,2.527,0,0,1,2.444,2.5c.014.444.01.888.007,1.332l0,.6Z" transform="translate(-2770.723 -2193.397)" fill="#74a839"/>
                                                  </g>
                                                </g>
                                              </g>
                                            </g>
                                          </g>
                                        </g>
                                      </g>
                                    </g>
                                  </g>
                                </g>
                              </g>
                            </g>
                          </g>
                        </g>
                      </g>
                    </g>
                  </g>
                </g>
              </g>
            </g>
          </g>
        </g>
        <g id="Grupo_4299" data-name="Grupo 4299" transform="translate(16.23 10.239)">
          <g id="Grupo_4298" data-name="Grupo 4298">
            <g id="Grupo_4297" data-name="Grupo 4297">
              <g id="Grupo_4296" data-name="Grupo 4296">
                <g id="Grupo_4295" data-name="Grupo 4295">
                  <g id="Grupo_4294" data-name="Grupo 4294">
                    <g id="Grupo_4293" data-name="Grupo 4293">
                      <g id="Grupo_4292" data-name="Grupo 4292">
                        <g id="Grupo_4291" data-name="Grupo 4291">
                          <g id="Grupo_4290" data-name="Grupo 4290">
                            <g id="Grupo_4289" data-name="Grupo 4289">
                              <g id="Grupo_4288" data-name="Grupo 4288">
                                <g id="Grupo_4287" data-name="Grupo 4287">
                                  <g id="Grupo_4286" data-name="Grupo 4286">
                                    <g id="Grupo_4285" data-name="Grupo 4285">
                                      <g id="Grupo_4284" data-name="Grupo 4284">
                                        <g id="Grupo_4283" data-name="Grupo 4283">
                                          <g id="Grupo_4282" data-name="Grupo 4282">
                                            <g id="Grupo_4281" data-name="Grupo 4281">
                                              <g id="Grupo_4280" data-name="Grupo 4280">
                                                <g id="Grupo_4279" data-name="Grupo 4279">
                                                  <g id="Grupo_4278" data-name="Grupo 4278">
                                                    <path id="Trazado_3256" data-name="Trazado 3256" d="M2792.334,2222.552c-.125-.067-.253-.127-.391-.192l-.548-.263.285-.4c.052-.074.1-.137.145-.2a4.426,4.426,0,0,0-.409-6.276c-.127-.125-.261-.244-.4-.361-.741-.642-1.112-.963-1.116-1.39s.369-.759,1.107-1.417a8.08,8.08,0,0,0,1.067-1.127,4.278,4.278,0,0,0,.048-5.1,8.8,8.8,0,0,0-1.283-1.336,2.767,2.767,0,0,1-1.032-1.685,1.675,1.675,0,0,0-1.676-1.356,1.7,1.7,0,0,0-.179.01,1.769,1.769,0,0,0-1.594,1.752,4.155,4.155,0,0,0,1.235,3.078c.3.314.642.614.969.9l.38.339a1.105,1.105,0,0,1,.426.807,1.079,1.079,0,0,1-.417.788l-.385.343c-.325.286-.662.582-.958.9a4.328,4.328,0,0,0,0,6.167c.253.272.543.529.823.775l.214.189c.421.379.744.7.739,1.085,0,.355-.256.637-.752,1.062a6.467,6.467,0,0,0-2.062,2.6,2.227,2.227,0,0,1-.659.921,5.594,5.594,0,0,0-2.286,3.9,37.031,37.031,0,0,0-.075,5.174,6.06,6.06,0,0,0,6.146,5.628h.12a6.041,6.041,0,0,0,5.915-5.85c.053-1.618.053-2.963,0-4.238A5.931,5.931,0,0,0,2792.334,2222.552Zm-.136,7.99c0,.437.006.872-.008,1.308a2.529,2.529,0,0,1-2.473,2.482h-.066a2.526,2.526,0,0,1-2.568-2.406c-.059-1.413-.058-2.786,0-4.078a2.488,2.488,0,0,1,2.569-2.372h.092a2.53,2.53,0,0,1,2.443,2.5c.014.445.01.891.008,1.337l0,.6Z" transform="translate(-2783.495 -2201.454)" fill="#74a839"/>
                                                  </g>
                                                </g>
                                              </g>
                                            </g>
                                          </g>
                                        </g>
                                      </g>
                                    </g>
                                  </g>
                                </g>
                              </g>
                            </g>
                          </g>
                        </g>
                      </g>
                    </g>
                  </g>
                </g>
              </g>
            </g>
          </g>
        </g>
        <g id="Grupo_4321" data-name="Grupo 4321" transform="translate(32.392)">
          <g id="Grupo_4320" data-name="Grupo 4320">
            <g id="Grupo_4319" data-name="Grupo 4319">
              <g id="Grupo_4318" data-name="Grupo 4318">
                <g id="Grupo_4317" data-name="Grupo 4317">
                  <g id="Grupo_4316" data-name="Grupo 4316">
                    <g id="Grupo_4315" data-name="Grupo 4315">
                      <g id="Grupo_4314" data-name="Grupo 4314">
                        <g id="Grupo_4313" data-name="Grupo 4313">
                          <g id="Grupo_4312" data-name="Grupo 4312">
                            <g id="Grupo_4311" data-name="Grupo 4311">
                              <g id="Grupo_4310" data-name="Grupo 4310">
                                <g id="Grupo_4309" data-name="Grupo 4309">
                                  <g id="Grupo_4308" data-name="Grupo 4308">
                                    <g id="Grupo_4307" data-name="Grupo 4307">
                                      <g id="Grupo_4306" data-name="Grupo 4306">
                                        <g id="Grupo_4305" data-name="Grupo 4305">
                                          <g id="Grupo_4304" data-name="Grupo 4304">
                                            <g id="Grupo_4303" data-name="Grupo 4303">
                                              <g id="Grupo_4302" data-name="Grupo 4302">
                                                <g id="Grupo_4301" data-name="Grupo 4301">
                                                  <g id="Grupo_4300" data-name="Grupo 4300">
                                                    <path id="Trazado_3257" data-name="Trazado 3257" d="M2805.053,2214.492c-.126-.067-.254-.126-.391-.191l-.549-.263.285-.4c.052-.075.1-.138.145-.2a4.428,4.428,0,0,0-.408-6.278c-.128-.125-.26-.243-.394-.358-.743-.644-1.113-.966-1.117-1.394s.367-.759,1.107-1.417a8.015,8.015,0,0,0,1.066-1.127,4.277,4.277,0,0,0,.05-5.1,8.829,8.829,0,0,0-1.285-1.337,2.76,2.76,0,0,1-1.031-1.684,1.718,1.718,0,0,0-1.855-1.345,1.769,1.769,0,0,0-1.6,1.752,4.159,4.159,0,0,0,1.235,3.077c.308.316.647.619.976.911l.374.333a1.105,1.105,0,0,1,.426.807,1.081,1.081,0,0,1-.416.788l-.374.332c-.33.29-.671.591-.968.909a4.33,4.33,0,0,0,0,6.17c.253.269.54.523.818.771l.218.192c.42.377.743.7.74,1.085,0,.353-.256.635-.753,1.063a6.469,6.469,0,0,0-2.062,2.6,2.265,2.265,0,0,1-.658.923,5.586,5.586,0,0,0-2.286,3.9,36.9,36.9,0,0,0-.075,5.172,6.059,6.059,0,0,0,6.144,5.628h.121a6.036,6.036,0,0,0,5.915-5.848c.053-1.594.053-2.981,0-4.238A5.929,5.929,0,0,0,2805.053,2214.492Zm-.137,7.99c0,.436.007.872-.008,1.308a2.524,2.524,0,0,1-2.473,2.481h-.066a2.524,2.524,0,0,1-2.567-2.406c-.059-1.413-.058-2.784,0-4.077a2.493,2.493,0,0,1,2.662-2.369,2.528,2.528,0,0,1,2.444,2.5c.014.444.01.89.007,1.336l0,.6Z" transform="translate(-2796.212 -2193.397)" fill="#74a839"/>
                                                  </g>
                                                </g>
                                              </g>
                                            </g>
                                          </g>
                                        </g>
                                      </g>
                                    </g>
                                  </g>
                                </g>
                              </g>
                            </g>
                          </g>
                        </g>
                      </g>
                    </g>
                  </g>
                </g>
              </g>
            </g>
          </g>
        </g>
      </g>
      <g id="Grupo_4344" data-name="Grupo 4344" transform="translate(2833.632 2210.709)">
        <g id="Grupo_4343" data-name="Grupo 4343">
          <g id="Grupo_4342" data-name="Grupo 4342">
            <g id="Grupo_4341" data-name="Grupo 4341">
              <g id="Grupo_4340" data-name="Grupo 4340">
                <g id="Grupo_4339" data-name="Grupo 4339">
                  <g id="Grupo_4338" data-name="Grupo 4338">
                    <g id="Grupo_4337" data-name="Grupo 4337">
                      <g id="Grupo_4336" data-name="Grupo 4336">
                        <g id="Grupo_4335" data-name="Grupo 4335">
                          <g id="Grupo_4334" data-name="Grupo 4334">
                            <g id="Grupo_4333" data-name="Grupo 4333">
                              <g id="Grupo_4332" data-name="Grupo 4332">
                                <g id="Grupo_4331" data-name="Grupo 4331">
                                  <g id="Grupo_4330" data-name="Grupo 4330">
                                    <g id="Grupo_4329" data-name="Grupo 4329">
                                      <g id="Grupo_4328" data-name="Grupo 4328">
                                        <g id="Grupo_4327" data-name="Grupo 4327">
                                          <g id="Grupo_4326" data-name="Grupo 4326">
                                            <g id="Grupo_4325" data-name="Grupo 4325">
                                              <g id="Grupo_4324" data-name="Grupo 4324">
                                                <g id="Grupo_4323" data-name="Grupo 4323">
                                                  <path id="Trazado_3258" data-name="Trazado 3258" d="M2827.011,2218.19a11.519,11.519,0,1,1,11.519-11.518A11.532,11.532,0,0,1,2827.011,2218.19Zm0-19.226a7.707,7.707,0,1,0,7.707,7.708A7.715,7.715,0,0,0,2827.011,2198.964Z" transform="translate(-2815.493 -2195.152)" fill="#74a839"/>
                                                </g>
                                              </g>
                                            </g>
                                          </g>
                                        </g>
                                      </g>
                                    </g>
                                  </g>
                                </g>
                              </g>
                            </g>
                          </g>
                        </g>
                      </g>
                    </g>
                  </g>
                </g>
              </g>
            </g>
          </g>
        </g>
      </g>
      <g id="Grupo_4366" data-name="Grupo 4366" transform="translate(2843.245 2229.935)">
        <g id="Grupo_4365" data-name="Grupo 4365">
          <g id="Grupo_4364" data-name="Grupo 4364">
            <g id="Grupo_4363" data-name="Grupo 4363">
              <g id="Grupo_4362" data-name="Grupo 4362">
                <g id="Grupo_4361" data-name="Grupo 4361">
                  <g id="Grupo_4360" data-name="Grupo 4360">
                    <g id="Grupo_4359" data-name="Grupo 4359">
                      <g id="Grupo_4358" data-name="Grupo 4358">
                        <g id="Grupo_4357" data-name="Grupo 4357">
                          <g id="Grupo_4356" data-name="Grupo 4356">
                            <g id="Grupo_4355" data-name="Grupo 4355">
                              <g id="Grupo_4354" data-name="Grupo 4354">
                                <g id="Grupo_4353" data-name="Grupo 4353">
                                  <g id="Grupo_4352" data-name="Grupo 4352">
                                    <g id="Grupo_4351" data-name="Grupo 4351">
                                      <g id="Grupo_4350" data-name="Grupo 4350">
                                        <g id="Grupo_4349" data-name="Grupo 4349">
                                          <g id="Grupo_4348" data-name="Grupo 4348">
                                            <g id="Grupo_4347" data-name="Grupo 4347">
                                              <g id="Grupo_4346" data-name="Grupo 4346">
                                                <g id="Grupo_4345" data-name="Grupo 4345">
                                                  <path id="Trazado_3259" data-name="Trazado 3259" d="M2824.963,2226.75a1.907,1.907,0,0,1-1.906-1.906v-12.657a1.906,1.906,0,0,1,3.813,0v12.657A1.907,1.907,0,0,1,2824.963,2226.75Z" transform="translate(-2823.057 -2210.281)" fill="#74a839"/>
                                                </g>
                                              </g>
                                            </g>
                                          </g>
                                        </g>
                                      </g>
                                    </g>
                                  </g>
                                </g>
                              </g>
                            </g>
                          </g>
                        </g>
                      </g>
                    </g>
                  </g>
                </g>
              </g>
            </g>
          </g>
        </g>
      </g>
      <g id="Grupo_4388" data-name="Grupo 4388" transform="translate(2838.008 2237.043)">
        <g id="Grupo_4387" data-name="Grupo 4387">
          <g id="Grupo_4386" data-name="Grupo 4386">
            <g id="Grupo_4385" data-name="Grupo 4385">
              <g id="Grupo_4384" data-name="Grupo 4384">
                <g id="Grupo_4383" data-name="Grupo 4383">
                  <g id="Grupo_4382" data-name="Grupo 4382">
                    <g id="Grupo_4381" data-name="Grupo 4381">
                      <g id="Grupo_4380" data-name="Grupo 4380">
                        <g id="Grupo_4379" data-name="Grupo 4379">
                          <g id="Grupo_4378" data-name="Grupo 4378">
                            <g id="Grupo_4377" data-name="Grupo 4377">
                              <g id="Grupo_4376" data-name="Grupo 4376">
                                <g id="Grupo_4375" data-name="Grupo 4375">
                                  <g id="Grupo_4374" data-name="Grupo 4374">
                                    <g id="Grupo_4373" data-name="Grupo 4373">
                                      <g id="Grupo_4372" data-name="Grupo 4372">
                                        <g id="Grupo_4371" data-name="Grupo 4371">
                                          <g id="Grupo_4370" data-name="Grupo 4370">
                                            <g id="Grupo_4369" data-name="Grupo 4369">
                                              <g id="Grupo_4368" data-name="Grupo 4368">
                                                <g id="Grupo_4367" data-name="Grupo 4367">
                                                  <path id="Trazado_3260" data-name="Trazado 3260" d="M2831.039,2219.687h-10.2a1.906,1.906,0,0,1,0-3.812h10.2a1.906,1.906,0,0,1,0,3.813Z" transform="translate(-2818.936 -2215.874)" fill="#74a839"/>
                                                </g>
                                              </g>
                                            </g>
                                          </g>
                                        </g>
                                      </g>
                                    </g>
                                  </g>
                                </g>
                              </g>
                            </g>
                          </g>
                        </g>
                      </g>
                    </g>
                  </g>
                </g>
              </g>
            </g>
          </g>
        </g>
      </g>
      <g id="Grupo_4410" data-name="Grupo 4410" transform="translate(2748.508 2137.702)">
        <g id="Grupo_4409" data-name="Grupo 4409">
          <g id="Grupo_4408" data-name="Grupo 4408">
            <g id="Grupo_4407" data-name="Grupo 4407">
              <g id="Grupo_4406" data-name="Grupo 4406">
                <g id="Grupo_4405" data-name="Grupo 4405">
                  <g id="Grupo_4404" data-name="Grupo 4404">
                    <g id="Grupo_4403" data-name="Grupo 4403">
                      <g id="Grupo_4402" data-name="Grupo 4402">
                        <g id="Grupo_4401" data-name="Grupo 4401">
                          <g id="Grupo_4400" data-name="Grupo 4400">
                            <g id="Grupo_4399" data-name="Grupo 4399">
                              <g id="Grupo_4398" data-name="Grupo 4398">
                                <g id="Grupo_4397" data-name="Grupo 4397">
                                  <g id="Grupo_4396" data-name="Grupo 4396">
                                    <g id="Grupo_4395" data-name="Grupo 4395">
                                      <g id="Grupo_4394" data-name="Grupo 4394">
                                        <g id="Grupo_4393" data-name="Grupo 4393">
                                          <g id="Grupo_4392" data-name="Grupo 4392">
                                            <g id="Grupo_4391" data-name="Grupo 4391">
                                              <g id="Grupo_4390" data-name="Grupo 4390">
                                                <g id="Grupo_4389" data-name="Grupo 4389">
                                                  <path id="Trazado_3261" data-name="Trazado 3261" d="M2816.882,2274.45a68.374,68.374,0,1,1,68.374-68.374A68.453,68.453,0,0,1,2816.882,2274.45Zm0-131.665a63.291,63.291,0,1,0,63.291,63.291A63.363,63.363,0,0,0,2816.882,2142.785Z" transform="translate(-2748.508 -2137.702)" fill="#74a839"/>
                                                </g>
                                              </g>
                                            </g>
                                          </g>
                                        </g>
                                      </g>
                                    </g>
                                  </g>
                                </g>
                              </g>
                            </g>
                          </g>
                        </g>
                      </g>
                    </g>
                  </g>
                </g>
              </g>
            </g>
          </g>
        </g>
      </g>
      <g id="Grupo_4499" data-name="Grupo 4499" transform="translate(2829.943 2166.397)">
        <g id="Grupo_4432" data-name="Grupo 4432" transform="translate(0 7.354)">
          <g id="Grupo_4431" data-name="Grupo 4431">
            <g id="Grupo_4430" data-name="Grupo 4430">
              <g id="Grupo_4429" data-name="Grupo 4429">
                <g id="Grupo_4428" data-name="Grupo 4428">
                  <g id="Grupo_4427" data-name="Grupo 4427">
                    <g id="Grupo_4426" data-name="Grupo 4426">
                      <g id="Grupo_4425" data-name="Grupo 4425">
                        <g id="Grupo_4424" data-name="Grupo 4424">
                          <g id="Grupo_4423" data-name="Grupo 4423">
                            <g id="Grupo_4422" data-name="Grupo 4422">
                              <g id="Grupo_4421" data-name="Grupo 4421">
                                <g id="Grupo_4420" data-name="Grupo 4420">
                                  <g id="Grupo_4419" data-name="Grupo 4419">
                                    <g id="Grupo_4418" data-name="Grupo 4418">
                                      <g id="Grupo_4417" data-name="Grupo 4417">
                                        <g id="Grupo_4416" data-name="Grupo 4416">
                                          <g id="Grupo_4415" data-name="Grupo 4415">
                                            <g id="Grupo_4414" data-name="Grupo 4414">
                                              <g id="Grupo_4413" data-name="Grupo 4413">
                                                <g id="Grupo_4412" data-name="Grupo 4412">
                                                  <g id="Grupo_4411" data-name="Grupo 4411">
                                                    <path id="Trazado_3262" data-name="Trazado 3262" d="M2824.11,2189.107a11.519,11.519,0,1,1,11.519-11.519A11.532,11.532,0,0,1,2824.11,2189.107Zm0-19.226a7.707,7.707,0,1,0,7.706,7.708A7.717,7.717,0,0,0,2824.11,2169.881Z" transform="translate(-2812.59 -2166.069)" fill="#74a839"/>
                                                  </g>
                                                </g>
                                              </g>
                                            </g>
                                          </g>
                                        </g>
                                      </g>
                                    </g>
                                  </g>
                                </g>
                              </g>
                            </g>
                          </g>
                        </g>
                      </g>
                    </g>
                  </g>
                </g>
              </g>
            </g>
          </g>
        </g>
        <g id="Grupo_4454" data-name="Grupo 4454" transform="translate(16.428 0.001)">
          <g id="Grupo_4453" data-name="Grupo 4453">
            <g id="Grupo_4452" data-name="Grupo 4452">
              <g id="Grupo_4451" data-name="Grupo 4451">
                <g id="Grupo_4450" data-name="Grupo 4450">
                  <g id="Grupo_4449" data-name="Grupo 4449">
                    <g id="Grupo_4448" data-name="Grupo 4448">
                      <g id="Grupo_4447" data-name="Grupo 4447">
                        <g id="Grupo_4446" data-name="Grupo 4446">
                          <g id="Grupo_4445" data-name="Grupo 4445">
                            <g id="Grupo_4444" data-name="Grupo 4444">
                              <g id="Grupo_4443" data-name="Grupo 4443">
                                <g id="Grupo_4442" data-name="Grupo 4442">
                                  <g id="Grupo_4441" data-name="Grupo 4441">
                                    <g id="Grupo_4440" data-name="Grupo 4440">
                                      <g id="Grupo_4439" data-name="Grupo 4439">
                                        <g id="Grupo_4438" data-name="Grupo 4438">
                                          <g id="Grupo_4437" data-name="Grupo 4437">
                                            <g id="Grupo_4436" data-name="Grupo 4436">
                                              <g id="Grupo_4435" data-name="Grupo 4435">
                                                <g id="Grupo_4434" data-name="Grupo 4434">
                                                  <g id="Grupo_4433" data-name="Grupo 4433">
                                                    <path id="Trazado_3263" data-name="Trazado 3263" d="M2827.424,2174.291a1.907,1.907,0,0,1-1.348-3.254l10.2-10.2a1.906,1.906,0,0,1,2.7,2.7l-10.2,10.2A1.9,1.9,0,0,1,2827.424,2174.291Z" transform="translate(-2825.518 -2160.282)" fill="#74a839"/>
                                                  </g>
                                                </g>
                                              </g>
                                            </g>
                                          </g>
                                        </g>
                                      </g>
                                    </g>
                                  </g>
                                </g>
                              </g>
                            </g>
                          </g>
                        </g>
                      </g>
                    </g>
                  </g>
                </g>
              </g>
            </g>
          </g>
        </g>
        <g id="Grupo_4476" data-name="Grupo 4476" transform="translate(28.532 9.987)">
          <g id="Grupo_4475" data-name="Grupo 4475">
            <g id="Grupo_4474" data-name="Grupo 4474">
              <g id="Grupo_4473" data-name="Grupo 4473">
                <g id="Grupo_4472" data-name="Grupo 4472">
                  <g id="Grupo_4471" data-name="Grupo 4471">
                    <g id="Grupo_4470" data-name="Grupo 4470">
                      <g id="Grupo_4469" data-name="Grupo 4469">
                        <g id="Grupo_4468" data-name="Grupo 4468">
                          <g id="Grupo_4467" data-name="Grupo 4467">
                            <g id="Grupo_4466" data-name="Grupo 4466">
                              <g id="Grupo_4465" data-name="Grupo 4465">
                                <g id="Grupo_4464" data-name="Grupo 4464">
                                  <g id="Grupo_4463" data-name="Grupo 4463">
                                    <g id="Grupo_4462" data-name="Grupo 4462">
                                      <g id="Grupo_4461" data-name="Grupo 4461">
                                        <g id="Grupo_4460" data-name="Grupo 4460">
                                          <g id="Grupo_4459" data-name="Grupo 4459">
                                            <g id="Grupo_4458" data-name="Grupo 4458">
                                              <g id="Grupo_4457" data-name="Grupo 4457">
                                                <g id="Grupo_4456" data-name="Grupo 4456">
                                                  <g id="Grupo_4455" data-name="Grupo 4455">
                                                    <path id="Trazado_3264" data-name="Trazado 3264" d="M2835.042,2168.141" transform="translate(-2835.042 -2168.141)" fill="none" stroke="#74a839" stroke-miterlimit="10" stroke-width="3"/>
                                                  </g>
                                                </g>
                                              </g>
                                            </g>
                                          </g>
                                        </g>
                                      </g>
                                    </g>
                                  </g>
                                </g>
                              </g>
                            </g>
                          </g>
                        </g>
                      </g>
                    </g>
                  </g>
                </g>
              </g>
            </g>
          </g>
        </g>
        <g id="Grupo_4498" data-name="Grupo 4498" transform="translate(18.446)">
          <g id="Grupo_4497" data-name="Grupo 4497">
            <g id="Grupo_4496" data-name="Grupo 4496">
              <g id="Grupo_4495" data-name="Grupo 4495">
                <g id="Grupo_4494" data-name="Grupo 4494">
                  <g id="Grupo_4493" data-name="Grupo 4493">
                    <g id="Grupo_4492" data-name="Grupo 4492">
                      <g id="Grupo_4491" data-name="Grupo 4491">
                        <g id="Grupo_4490" data-name="Grupo 4490">
                          <g id="Grupo_4489" data-name="Grupo 4489">
                            <g id="Grupo_4488" data-name="Grupo 4488">
                              <g id="Grupo_4487" data-name="Grupo 4487">
                                <g id="Grupo_4486" data-name="Grupo 4486">
                                  <g id="Grupo_4485" data-name="Grupo 4485">
                                    <g id="Grupo_4484" data-name="Grupo 4484">
                                      <g id="Grupo_4483" data-name="Grupo 4483">
                                        <g id="Grupo_4482" data-name="Grupo 4482">
                                          <g id="Grupo_4481" data-name="Grupo 4481">
                                            <g id="Grupo_4480" data-name="Grupo 4480">
                                              <g id="Grupo_4479" data-name="Grupo 4479">
                                                <g id="Grupo_4478" data-name="Grupo 4478">
                                                  <g id="Grupo_4477" data-name="Grupo 4477">
                                                    <path id="Trazado_3265" data-name="Trazado 3265" d="M2837.288,2172.468a1.907,1.907,0,0,1-1.906-1.884l-.073-6.378-6.33-.112a1.906,1.906,0,0,1,.033-3.812h.034l8.18.145a1.906,1.906,0,0,1,1.872,1.884l.1,8.229a1.906,1.906,0,0,1-1.883,1.928Z" transform="translate(-2827.106 -2160.282)" fill="#74a839"/>
                                                  </g>
                                                </g>
                                              </g>
                                            </g>
                                          </g>
                                        </g>
                                      </g>
                                    </g>
                                  </g>
                                </g>
                              </g>
                            </g>
                          </g>
                        </g>
                      </g>
                    </g>
                  </g>
                </g>
              </g>
            </g>
          </g>
        </g>
      </g>
    </g>
  </g>
</svg>
