<svg xmlns="http://www.w3.org/2000/svg" xmlns:xlink="http://www.w3.org/1999/xlink" width="227" height="216" viewBox="0 0 227 216">
  <defs>
    <filter id="Image" x="0" y="0" width="227" height="216" filterUnits="userSpaceOnUse">
      <feOffset dy="5" input="SourceAlpha"/>
      <feGaussianBlur stdDeviation="2.5" result="blur"/>
      <feFlood flood-opacity="0.161"/>
      <feComposite operator="in" in2="blur"/>
      <feComposite in="SourceGraphic"/>
    </filter>
  </defs>
  <g id="Grupo_455" data-name="Grupo 455" transform="translate(-498.072 -3328.518)">
    <g transform="matrix(1, 0, 0, 1, 498.07, 3328.52)" filter="url(#Image)">
      <g id="Image-2" data-name="Image" transform="translate(7.5 2.5)" fill="#fff" stroke="#a2e2ff" stroke-width="6">
        <rect width="212" height="201" rx="100.5" stroke="none"/>
        <rect x="3" y="3" width="206" height="195" rx="97.5" fill="none"/>
      </g>
    </g>
    <g id="Grupo_556" data-name="Grupo 556" transform="translate(1434.857 2526.69)">
      <path id="Trazado_1333" data-name="Trazado 1333" d="M-764.168,894.158c-.389,2.345-.668,4.713-1.186,7.03-3.742,16.777-18.189,30.4-35.042,33.156A43.526,43.526,0,0,1-833.279,927c-.125-.086-.258-.161-.553-.346-1.154,1.187-2.345,2.373-3.471,3.616a1.256,1.256,0,0,0-.11,1.008,7.1,7.1,0,0,1-1.917,7.507q-12.219,12.184-24.412,24.4a6.912,6.912,0,0,1-10.339.034q-3.038-3-6.04-6.04a6.89,6.89,0,0,1,.013-10.253q12.232-12.256,24.48-24.493a7.082,7.082,0,0,1,7.512-1.883,1.326,1.326,0,0,0,1.082-.226c1.188-1.089,2.312-2.247,3.216-3.142-1.782-3.562-3.788-6.835-5.12-10.365-4.875-12.923-3.786-25.478,2.893-37.56a2.38,2.38,0,0,1,2.62-1.441,1.943,1.943,0,0,1,1.779,1.713,3.951,3.951,0,0,1-.5,2.156,38.532,38.532,0,0,0-4.729,14c-1.685,13.732,2.54,25.387,12.737,34.694,7.826,7.142,17.238,10.33,27.82,10,17.95-.566,33.81-14.412,36.868-32.152A39.117,39.117,0,0,0-798,853.248a38.329,38.329,0,0,0-29.123,3.614c-.236.128-.467.271-.706.393a2.324,2.324,0,0,1-3.3-.761,2.224,2.224,0,0,1,1.033-3.215,57,57,0,0,1,8.074-3.616c3.28-1.016,6.733-1.476,10.109-2.182.219-.046.431-.128.645-.192h6.235c1.514.223,3.031.425,4.54.676a43.873,43.873,0,0,1,35.16,33.276c.507,2.277.782,4.608,1.165,6.914Zm-77.289,39.48a8.906,8.906,0,0,0-1.049-1.812c-2.027-2.106-4.1-4.166-6.19-6.214a2.3,2.3,0,0,0-3.561-.016q-12.34,12.307-24.65,24.646a2.289,2.289,0,0,0,.032,3.636q3.036,3.086,6.121,6.121a2.293,2.293,0,0,0,3.639.029q12.338-12.31,24.635-24.659A8.571,8.571,0,0,0-841.457,933.638Zm-2.274-9.856,3.1,3.048,2.926-2.953-2.989-3.032Z" transform="translate(0 0)" fill="#74a839" stroke="#74a839" stroke-width="1"/>
      <path id="Trazado_1334" data-name="Trazado 1334" d="M-820.225,853.7a34.684,34.684,0,0,1,34.669,34.62,34.693,34.693,0,0,1-34.651,34.641A34.694,34.694,0,0,1-854.817,888.4,34.686,34.686,0,0,1-820.225,853.7ZM-850.2,888.264a30.072,30.072,0,0,0,29.974,30.081,30.066,30.066,0,0,0,30.05-29.889,30.06,30.06,0,0,0-29.916-30.137A30.065,30.065,0,0,0-850.2,888.264Z" transform="translate(12.151 2.825)" fill="#74a839" stroke="#74a839" stroke-width="1"/>
      <path id="Trazado_1335" data-name="Trazado 1335" d="M-850.425,855.762a2.3,2.3,0,0,1,2.254,2.3,2.379,2.379,0,0,1-2.306,2.286,2.306,2.306,0,0,1-2.279-2.394A2.232,2.232,0,0,1-850.425,855.762Z" transform="translate(13.059 3.732)" fill="#74a839" stroke="#74a839" stroke-width="1"/>
      <path id="Trazado_1336" data-name="Trazado 1336" d="M-823.443,879.462a6.831,6.831,0,0,1,4.163,7.207c-.01.153,0,.307,0,.461-.02,2.616.493,3.106,3.068,3.114a13.365,13.365,0,0,1,3.315.275c3.5.922,5.38,4.215,4.732,8.12a2.2,2.2,0,0,1-2.339,1.808,2.274,2.274,0,0,1-2.145-2.168c-.284-3.349-.4-3.459-3.824-3.431-4.775.036-7.453-2.633-7.427-7.4a17.8,17.8,0,0,0-.032-2.074,1.837,1.837,0,0,0-2.633-1.5c-4.539,2.659-8.7,1.6-12.476-1.464-3.281-2.662-5.121-6.18-4.575-10.52a7.926,7.926,0,0,1,8.711-7.1,12.833,12.833,0,0,1,11.687,12.747C-823.246,878.141-823.36,878.746-823.443,879.462Zm-4.382-2.47c-.009-3.705-3.79-7.538-7.5-7.6a3.589,3.589,0,0,0-3.784,4.369,8.6,8.6,0,0,0,6.507,6.865C-829.807,881.18-827.818,879.666-827.825,876.991Z" transform="translate(17.041 7.7)" fill="#74a839" stroke="#74a839" stroke-width="1"/>
      <path id="Trazado_1337" data-name="Trazado 1337" d="M-823.668,869.527a2.317,2.317,0,0,1-2.3-2.357,2.316,2.316,0,0,1,2.295-2.244,2.33,2.33,0,0,1,2.3,2.355A2.336,2.336,0,0,1-823.668,869.527Z" transform="translate(24.86 7.769)" fill="#74a839" stroke="#74a839" stroke-width="1"/>
      <path id="Trazado_1338" data-name="Trazado 1338" d="M-817.253,874.062a2.333,2.333,0,0,1,2.3,2.247,2.331,2.331,0,0,1-2.308,2.352,2.317,2.317,0,0,1-2.292-2.362A2.315,2.315,0,0,1-817.253,874.062Z" transform="translate(27.684 11.793)" fill="#74a839" stroke="#74a839" stroke-width="1"/>
      <path id="Trazado_1339" data-name="Trazado 1339" d="M-842.308,882.236a2.329,2.329,0,0,1,2.349,2.309,2.333,2.333,0,0,1-2.256,2.29,2.317,2.317,0,0,1-2.344-2.312A2.316,2.316,0,0,1-842.308,882.236Z" transform="translate(16.67 15.394)" fill="#74a839" stroke="#74a839" stroke-width="1"/>
      <path id="Trazado_1340" data-name="Trazado 1340" d="M-825.533,893.716a2.334,2.334,0,0,1-2.406,2.254,2.323,2.323,0,0,1-2.194-2.345,2.317,2.317,0,0,1,2.4-2.253A2.335,2.335,0,0,1-825.533,893.716Z" transform="translate(23.024 19.418)" fill="#74a839" stroke="#74a839" stroke-width="1"/>
    </g>
  </g>
</svg>
