<svg xmlns="http://www.w3.org/2000/svg" xmlns:xlink="http://www.w3.org/1999/xlink" width="227" height="216" viewBox="0 0 227 216">
  <defs>
    <filter id="Image" x="0" y="0" width="227" height="216" filterUnits="userSpaceOnUse">
      <feOffset dy="5" input="SourceAlpha"/>
      <feGaussianBlur stdDeviation="2.5" result="blur"/>
      <feFlood flood-opacity="0.161"/>
      <feComposite operator="in" in2="blur"/>
      <feComposite in="SourceGraphic"/>
    </filter>
  </defs>
  <g id="Grupo_455" data-name="Grupo 455" transform="translate(-498.072 -3328.518)">
    <g transform="matrix(1, 0, 0, 1, 498.07, 3328.52)" filter="url(#Image)">
      <g id="Image-2" data-name="Image" transform="translate(7.5 2.5)" fill="#fff" stroke="#a2e2ff" stroke-width="6">
        <rect width="212" height="201" rx="100.5" stroke="none"/>
        <rect x="3" y="3" width="206" height="195" rx="97.5" fill="none"/>
      </g>
    </g>
    <g id="Grupo_6309" data-name="Grupo 6309" transform="translate(-1191.501 3987.351)">
      <g id="Grupo_6304" data-name="Grupo 6304" transform="translate(1738.503 -589.572)">
        <path id="Trazado_3441" data-name="Trazado 3441" d="M1804.295-502.337c-.168,0-.337-.006-.508-.02h-.816c-5.833.416-8.837-6.936-8.964-7.253l-.12-.471-3.1-24.727a1.542,1.542,0,0,1,.764-1.517,4.005,4.005,0,0,0,2.284-2.942,5.817,5.817,0,0,0-.3-2.787l-.058-.183c-4.3-16.574-15.017-31.434-16.729-33.735l-8.22-4.6a30.384,30.384,0,0,0-8.681-4.444,16.2,16.2,0,0,0-11.508.4c-3.977,1.758-5.994,4.768-5.994,8.949,0,2.875.816,5.051,2.426,6.466,3,2.636,7.983,2.067,8.034,2.063l.5,3.812c-.273.039-6.723.828-11.068-2.987-2.478-2.176-3.734-5.323-3.734-9.354,0-5.76,2.864-10.07,8.284-12.465a20.051,20.051,0,0,1,14.236-.541,34.219,34.219,0,0,1,9.683,4.932l8.617,4.8.241.314c.519.673,12.749,16.673,17.614,35.334.743,2.076,1.124,6.04-1.562,8.773a2.412,2.412,0,0,0-.668,1.992l2.716,21.692c.429.934,2.4,4.872,5.052,4.641l.174-.008,1.149.008c2.657.261,4.622-3.713,5.052-4.644l2.717-21.689a2.417,2.417,0,0,0-.668-1.992c-2.686-2.733-2.305-6.7-1.561-8.773,4.863-18.662,17.093-34.662,17.613-35.334l.24-.314,8.617-4.8a34.27,34.27,0,0,1,9.682-4.932,20.059,20.059,0,0,1,14.239.541c5.417,2.4,8.284,6.705,8.284,12.465,0,4.031-1.257,7.178-3.735,9.354-4.345,3.813-10.794,3.021-11.067,2.987l-.756-3.731c.038,0,6.282.509,9.3-2.158,1.6-1.412,2.413-3.584,2.413-6.452,0-4.181-2.018-7.191-6-8.949a16.21,16.21,0,0,0-11.51-.4,30.481,30.481,0,0,0-8.681,4.444l-.2.129-8.019,4.468c-1.711,2.3-12.438,17.184-16.729,33.735l-.062.192a5.279,5.279,0,0,0,.078,3.829,4.386,4.386,0,0,0,1.909,1.894,1.537,1.537,0,0,1,.762,1.518l-3.216,25.2C1812.628-509.3,1809.791-502.339,1804.295-502.337Z" transform="translate(-1738.503 589.72)" fill="#74a839"/>
      </g>
      <g id="Grupo_6305" data-name="Grupo 6305" transform="translate(1776.332 -590.245)">
        <path id="Trazado_3442" data-name="Trazado 3442" d="M1819.2-575.812l-1.526-1.235c-23.408-20.705-45.027-.944-45.936-.094l-.233.219-1.9.855-1.577-3.506,1.339-.6c2.727-2.374,26.224-21.539,50.793.195l1.461,1.18Z" transform="translate(-1768.026 590.245)" fill="#74a839"/>
      </g>
      <g id="Grupo_6306" data-name="Grupo 6306" transform="translate(1786.876 -576.796)">
        <path id="Trazado_3443" data-name="Trazado 3443" d="M1776.927-579.114c4.081,1.781,17.37,6.517,31.134-.122a.122.122,0,0,1,.142.2c-3.029,2.617-13.623,12.657-15.926,26.935a.121.121,0,0,1-.24.014c-.588-3.558-3.653-18.227-15.23-26.808A.124.124,0,0,1,1776.927-579.114Z" transform="translate(-1776.114 579.889)" fill="#74a839"/>
        <path id="Trazado_3444" data-name="Trazado 3444" d="M1792.29-551.21h0a.755.755,0,0,1-.74-.639c-.677-4.086-3.758-18.077-14.978-26.393a.771.771,0,0,1-.21-1,.763.763,0,0,1,.968-.314c3.742,1.634,17,6.446,30.6-.11a.769.769,0,0,1,.978.268.749.749,0,0,1-.142.992c-3.114,2.69-13.453,12.556-15.711,26.552A.771.771,0,0,1,1792.29-551.21Zm.52-.852v0Zm-13-25.18c8.01,7.245,11.259,17.233,12.491,22.6,2.511-10.662,9.347-18.686,13.4-22.681C1795.145-573.322,1785.164-575.445,1779.806-577.241Zm28.678-1.278-.007,0Zm-.559-.864,0,0Z" transform="translate(-1776.255 579.749)" fill="#74a839"/>
      </g>
      <g id="Grupo_6307" data-name="Grupo 6307" transform="translate(1751.614 -572.433)">
        <path id="Trazado_3445" data-name="Trazado 3445" d="M1757.556-558.7a8.83,8.83,0,0,1-8.821-8.821,8.83,8.83,0,0,1,8.821-8.821,8.831,8.831,0,0,1,8.821,8.821A8.831,8.831,0,0,1,1757.556-558.7Zm0-13.8a4.982,4.982,0,0,0-4.977,4.977,4.982,4.982,0,0,0,4.977,4.977,4.982,4.982,0,0,0,4.977-4.977A4.982,4.982,0,0,0,1757.556-572.5Z" transform="translate(-1748.735 576.344)" fill="#74a839"/>
      </g>
      <g id="Grupo_6308" data-name="Grupo 6308" transform="translate(1836.457 -572.433)">
        <path id="Trazado_3446" data-name="Trazado 3446" d="M1823.77-558.7a8.83,8.83,0,0,1-8.821-8.821,8.83,8.83,0,0,1,8.821-8.821,8.831,8.831,0,0,1,8.821,8.821A8.831,8.831,0,0,1,1823.77-558.7Zm0-13.8a4.982,4.982,0,0,0-4.977,4.977,4.982,4.982,0,0,0,4.977,4.977,4.982,4.982,0,0,0,4.977-4.977A4.982,4.982,0,0,0,1823.77-572.5Z" transform="translate(-1814.949 576.344)" fill="#74a839"/>
      </g>
    </g>
  </g>
</svg>
