<svg xmlns="http://www.w3.org/2000/svg" xmlns:xlink="http://www.w3.org/1999/xlink" width="227" height="216" viewBox="0 0 227 216">
  <defs>
    <filter id="Image" x="0" y="0" width="227" height="216" filterUnits="userSpaceOnUse">
      <feOffset dy="5" input="SourceAlpha"/>
      <feGaussianBlur stdDeviation="2.5" result="blur"/>
      <feFlood flood-opacity="0.161"/>
      <feComposite operator="in" in2="blur"/>
      <feComposite in="SourceGraphic"/>
    </filter>
  </defs>
  <g id="Grupo_455" data-name="Grupo 455" transform="translate(-498.072 -3328.518)">
    <g transform="matrix(1, 0, 0, 1, 498.07, 3328.52)" filter="url(#Image)">
      <g id="Image-2" data-name="Image" transform="translate(7.5 2.5)" fill="#fff" stroke="#a2e2ff" stroke-width="6">
        <rect width="212" height="201" rx="100.5" stroke="none"/>
        <rect x="3" y="3" width="206" height="195" rx="97.5" fill="none"/>
      </g>
    </g>
    <g id="Grupo_1556" data-name="Grupo 1556" transform="translate(-1864.691 2985.174)">
      <g id="Grupo_1570" data-name="Grupo 1570" transform="translate(2414.098 387.166)">
        <g id="Grupo_1556-2" data-name="Grupo 1556">
          <path id="Trazado_2923" data-name="Trazado 2923" d="M2415.6,471.908V398.133a9.466,9.466,0,0,1,9.467-9.467h101.716a9.467,9.467,0,0,1,9.467,9.467v73.775a9.468,9.468,0,0,1-9.467,9.468h-62.27" transform="translate(-2414.051 -387.118)" fill="#fff"/>
          <path id="Trazado_2924" data-name="Trazado 2924" d="M2526.828,482.971h-62.27a1.548,1.548,0,0,1,0-3.1h62.27a7.928,7.928,0,0,0,7.919-7.92V398.18a7.928,7.928,0,0,0-7.919-7.919H2425.113a7.928,7.928,0,0,0-7.92,7.919v73.775a1.547,1.547,0,1,1-3.095,0V398.18a11.028,11.028,0,0,1,11.015-11.014h101.715a11.028,11.028,0,0,1,11.014,11.014v73.775A11.028,11.028,0,0,1,2526.828,482.971Z" transform="translate(-2414.098 -387.166)" fill="#74a839"/>
        </g>
        <g id="Grupo_1557" data-name="Grupo 1557" transform="translate(14.241 10.474)">
          <path id="Trazado_2925" data-name="Trazado 2925" d="M2475.853,403.486a181.6,181.6,0,0,1-27.366-2.074l-20.147-3.069a.515.515,0,0,1-.431-.587.521.521,0,0,1,.587-.432l20.146,3.068a180.576,180.576,0,0,0,53.574.127l21.678-3.2a.516.516,0,0,1,.151,1.021l-21.679,3.2A181.772,181.772,0,0,1,2475.853,403.486Z" transform="translate(-2427.902 -397.319)" fill="#74a839"/>
        </g>
        <g id="Grupo_1558" data-name="Grupo 1558" transform="translate(17.859 51.288)">
          <path id="Trazado_2926" data-name="Trazado 2926" d="M2475.766,442.657a167.958,167.958,0,0,1-25.3-1.917l-18.621-2.836a.516.516,0,0,1-.432-.588.524.524,0,0,1,.588-.432l18.621,2.836a166.823,166.823,0,0,0,49.505.118l20.037-2.955a.526.526,0,0,1,.586.435.518.518,0,0,1-.435.587l-20.037,2.954A168.084,168.084,0,0,1,2475.766,442.657Z" transform="translate(-2431.408 -436.879)" fill="#74a839"/>
        </g>
        <g id="Grupo_1559" data-name="Grupo 1559" transform="translate(23.044 63.57)">
          <path id="Trazado_2927" data-name="Trazado 2927" d="M2475.645,454a148.452,148.452,0,0,1-22.339-1.692l-16.434-2.5a.514.514,0,0,1-.432-.587.523.523,0,0,1,.587-.432l16.435,2.5a147.173,147.173,0,0,0,43.675.1l17.684-2.607a.516.516,0,1,1,.151,1.021l-17.685,2.607A148.241,148.241,0,0,1,2475.645,454Z" transform="translate(-2436.434 -448.784)" fill="#74a839"/>
        </g>
        <g id="Grupo_1560" data-name="Grupo 1560" transform="translate(28.576 77.482)">
          <path id="Trazado_2928" data-name="Trazado 2928" d="M2475.516,466.9a127.25,127.25,0,0,1-19.18-1.454l-14.1-2.148a.516.516,0,0,1,.155-1.019l14.1,2.148a126.176,126.176,0,0,0,37.453.089l15.174-2.238a.516.516,0,0,1,.152,1.021l-15.174,2.238A127.373,127.373,0,0,1,2475.516,466.9Z" transform="translate(-2441.796 -462.269)" fill="#74a839"/>
        </g>
        <circle id="Elipse_114" data-name="Elipse 114" cx="26" cy="26" r="26" transform="translate(36.165 21.678)" fill="#fff"/>
        <g id="Grupo_6213" data-name="Grupo 6213" transform="translate(-1852.595 1774.463)">
          <path id="Trazado_3366" data-name="Trazado 3366" d="M1942.852-1728.511V-1725c-.032.159-.072.317-.1.477-.2,1.334-.311,2.689-.616,4a28.1,28.1,0,0,1-33.005,21.264,28.214,28.214,0,0,1-22.392-26.458,27.377,27.377,0,0,1,5.972-18.3,27.537,27.537,0,0,1,17.348-10.386c.984-.174,1.981-.28,2.973-.417h3.508c.955.126,1.914.222,2.864.384a27.48,27.48,0,0,1,14,6.734,27.663,27.663,0,0,1,9,16.058C1942.6-1730.607,1942.707-1729.556,1942.852-1728.511Zm-45.734-15.536a.92.92,0,0,0,.109.09,11.311,11.311,0,0,1,6.078,10.247,7.306,7.306,0,0,0,4.18,6.665,35.162,35.162,0,0,0,5.177,1.712.508.508,0,0,0,.386-.093c.348-.259.676-.545,1.109-.9-.382-.319-.62-.492-.827-.7-1-.992-2.016-1.964-2.97-3a4.88,4.88,0,0,1,.134-6.786,4.894,4.894,0,0,1,6.787-.186c.743.674,1.431,1.41,2.146,2.115.109.107.229.2.374.329.056-.26.1-.456.141-.652a8.2,8.2,0,0,1,9.609-6.186,7.873,7.873,0,0,1,6.238,5.671,7.824,7.824,0,0,1-2.037,8.181c-3.827,3.9-7.712,7.738-11.58,11.594a8.1,8.1,0,0,1-5.692,2.442,8.355,8.355,0,0,1-4.783-1.4c-.464.5-.9,1.048-1.4,1.518a8.211,8.211,0,0,1-11.465-.247,4.736,4.736,0,0,1-1.291-4.391,4.919,4.919,0,0,1,6.558-3.667c.163.057.447.1.528.012.651-.7,1.267-1.44,1.894-2.166-.008.044-.183-.049-.36-.138a10.91,10.91,0,0,1-3.431-2.677,11.379,11.379,0,0,1-2.745-7.55,7.73,7.73,0,0,0-5.124-7.2,24.682,24.682,0,0,0,4.079,33.664,24.744,24.744,0,0,0,34.889-3.184,24.712,24.712,0,0,0-3.224-34.882A24.639,24.639,0,0,0,1897.118-1744.047Zm29.651,18.989-.1-.16a8.907,8.907,0,0,1-5.076-2.82c-2.077-2.134-4.206-4.216-6.307-6.325a1.689,1.689,0,0,0-1.677-.563,1.638,1.638,0,0,0-.723,2.81c1.474,1.5,2.97,2.971,4.453,4.461a1.659,1.659,0,0,1,0,2.592c-.874.883-1.769,1.746-2.629,2.641a1.921,1.921,0,0,1-1.937.576,4.83,4.83,0,0,0-4.628,1.337c-.718.7-1.42,1.422-2.134,2.129a1.671,1.671,0,0,1-2.522.129,1.666,1.666,0,0,0-2.36.112,1.665,1.665,0,0,0,.193,2.353,4.9,4.9,0,0,0,6.67.048c.832-.767,1.607-1.6,2.416-2.388a1.662,1.662,0,0,1,2.446-.068,4.921,4.921,0,0,0,7.151-.231q3.008-3,6.01-6C1926.249-1724.658,1926.518-1724.849,1926.769-1725.058Zm1.164-13.206a4.937,4.937,0,0,0-4.92,4.913,4.936,4.936,0,0,0,4.941,4.946,4.936,4.936,0,0,0,4.919-4.914A4.934,4.934,0,0,0,1927.933-1738.264Z" fill="#74a839"/>
        </g>
      </g>
      <g id="Grupo_1582" data-name="Grupo 1582" transform="translate(2415.935 463.916)">
        <g id="Grupo_1575" data-name="Grupo 1575" transform="translate(19.192 13.576)">
          <g id="Grupo_1571" data-name="Grupo 1571" transform="translate(34.198 10.788)">
            <path id="Trazado_2935" data-name="Trazado 2935" d="M2485.7,501.35a1.568,1.568,0,0,1-.376-.046l-16.524-4.14a1.547,1.547,0,0,1-1.071-2.051l3.391-8.937a1.548,1.548,0,0,1,1.984-.9c3.975,1.471,14.471,5.345,15.283,5.609a1.549,1.549,0,0,1,1.006,1.912l-2.211,7.45A1.548,1.548,0,0,1,2485.7,501.35Zm-14.46-6.766,13.4,3.356,1.372-4.622c-2.966-1.076-9.594-3.522-12.54-4.611Z" transform="translate(-2467.629 -485.176)" fill="#74a839"/>
          </g>
          <g id="Grupo_1572" data-name="Grupo 1572">
            <path id="Trazado_2936" data-name="Trazado 2936" d="M2471.653,496.5l-33.866-12.1a4.982,4.982,0,1,1,3.409-9.362l33.839,12.551Zm-32.192-18.686a1.9,1.9,0,0,0-1.808,1.359,1.89,1.89,0,0,0,1.176,2.309l31.006,11.082,1.2-3.162-30.915-11.467A1.883,1.883,0,0,0,2439.461,477.812Z" transform="translate(-2434.481 -474.719)" fill="#74a839"/>
          </g>
          <g id="Grupo_1573" data-name="Grupo 1573" transform="translate(2.225 2.348)">
            <circle id="Elipse_97" data-name="Elipse 97" cx="2.483" cy="2.483" r="2.483" fill="#74a839"/>
          </g>
          <g id="Grupo_1574" data-name="Grupo 1574" transform="translate(9.693 4.565)">
            <rect id="Rectángulo_1275" data-name="Rectángulo 1275" width="6.796" height="3.095" transform="matrix(0.389, -0.921, 0.921, 0.389, 0, 6.26)" fill="#74a839"/>
          </g>
        </g>
        <g id="Grupo_1577" data-name="Grupo 1577" transform="translate(71.932 16.656)">
          <g id="Grupo_1576" data-name="Grupo 1576">
            <path id="Trazado_2937" data-name="Trazado 2937" d="M2515.454,502.632c-12.013,0-26.381-4.024-28.7-4.7a1.6,1.6,0,1,1,.894-3.076c8.959,2.6,33.621,7.93,40.078,1.473.958-.958,1-1.374,1-1.378-.567-.848-5.651-1.564-9.015-2.038-6.048-.851-12.9-1.817-17.375-4.8-2.376-1.584-2.563-3.15-2.3-4.186,1.011-4.019,11.708-5.622,17.994-6.219a1.6,1.6,0,1,1,.3,3.19c-7.268.692-14.206,2.418-15.141,3.744a3.372,3.372,0,0,0,.924.8c3.865,2.577,10.619,3.527,16.044,4.292,6.442.908,10.7,1.506,11.619,4.262.7,2.107-1.168,3.978-1.784,4.593C2526.989,501.6,2521.521,502.632,2515.454,502.632Z" transform="translate(-2485.602 -477.704)" fill="#74a839"/>
          </g>
        </g>
        <g id="Grupo_1579" data-name="Grupo 1579" transform="translate(6.996 6.856)">
          <g id="Grupo_1578" data-name="Grupo 1578">
            <path id="Trazado_2938" data-name="Trazado 2938" d="M2426.02,484.775a1.6,1.6,0,0,1-1.269-.623,9.977,9.977,0,0,1,6.1-15.92,1.6,1.6,0,0,1,.576,3.153,6.772,6.772,0,0,0-4.141,10.81,1.6,1.6,0,0,1-1.268,2.58Z" transform="translate(-2422.659 -468.205)" fill="#74a839"/>
          </g>
        </g>
        <g id="Grupo_1581" data-name="Grupo 1581">
          <g id="Grupo_1580" data-name="Grupo 1580">
            <path id="Trazado_2939" data-name="Trazado 2939" d="M2420.761,489.339a1.6,1.6,0,0,1-1.263-.614,16.874,16.874,0,0,1-2.576-16.287,17.081,17.081,0,0,1,12.754-10.85,1.6,1.6,0,0,1,.6,3.148,13.856,13.856,0,0,0-10.349,8.8,13.692,13.692,0,0,0,2.09,13.213,1.6,1.6,0,0,1-1.26,2.59Z" transform="translate(-2415.878 -461.56)" fill="#74a839"/>
          </g>
        </g>
      </g>
    </g>
  </g>
</svg>
