<svg xmlns="http://www.w3.org/2000/svg" xmlns:xlink="http://www.w3.org/1999/xlink" width="227" height="216" viewBox="0 0 227 216">
  <defs>
    <filter id="Image" x="0" y="0" width="227" height="216" filterUnits="userSpaceOnUse">
      <feOffset dy="5" input="SourceAlpha"/>
      <feGaussianBlur stdDeviation="2.5" result="blur"/>
      <feFlood flood-opacity="0.161"/>
      <feComposite operator="in" in2="blur"/>
      <feComposite in="SourceGraphic"/>
    </filter>
  </defs>
  <g id="Grupo_455" data-name="Grupo 455" transform="translate(-498.072 -3328.518)">
    <g transform="matrix(1, 0, 0, 1, 498.07, 3328.52)" filter="url(#Image)">
      <g id="Image-2" data-name="Image" transform="translate(7.5 2.5)" fill="#fff" stroke="#a2e2ff" stroke-width="6">
        <rect width="212" height="201" rx="100.5" stroke="none"/>
        <rect x="3" y="3" width="206" height="195" rx="97.5" fill="none"/>
      </g>
    </g>
    <g id="Grupo_1797" data-name="Grupo 1797" transform="translate(-1175.965 2117.93)">
      <g id="Grupo_1797-2" data-name="Grupo 1797" transform="translate(1747.763 1294.094)">
        <path id="Trazado_3077" data-name="Trazado 3077" d="M1760.409,1288.836h3.483a14.837,14.837,0,0,1-1.69,7.032,21.9,21.9,0,0,1-4.613,5.643c3.8,3.376,6.355,7.353,6.289,12.653h-3.5c-.107-.843-.183-1.69-.326-2.525-.2-1.161-.221-1.158-1.369-1.158-2.693,0-5.386.012-8.078-.012-.431,0-.618.137-.681.535-.16,1.039-.331,2.076-.5,3.156h-3.463c-.077-5.264,2.457-9.24,6.307-12.658-3.82-3.388-6.373-7.365-6.312-12.665h3.478c.152,1,.319,1.989.451,2.988.074.562.336.718.907.711,2.791-.036,5.585-.03,8.377,0,.475,0,.688-.15.756-.592C1760.074,1290.92,1760.24,1289.9,1760.409,1288.836Zm-5.4,10.216,2.794-2.89h-5.626l-.145.2Zm-2.982,7.569.174.227h5.434l.121-.161-2.861-2.65Z" transform="translate(-1745.498 -1288.387)" fill="#74a839"/>
        <path id="Trazado_3078" data-name="Trazado 3078" d="M1764.4,1314.688h-4.344l-.144-1.189c-.066-.572-.132-1.145-.229-1.71a3.168,3.168,0,0,0-.175-.748,2.375,2.375,0,0,0-.741-.036h-2.029c-2.022,0-4.043,0-6.063-.013a.577.577,0,0,0-.2.023.564.564,0,0,0-.034.132c-.114.736-.231,1.469-.354,2.219l-.212,1.317h-4.288l-.007-.442c-.068-4.757,1.867-8.794,6.088-12.665-4.208-3.859-6.146-7.9-6.091-12.669l0-.446h4.31l.2,1.276c.11.7.22,1.4.314,2.1.035.276.057.313.454.319,2.534-.031,5.2-.031,8.387,0,.258-.01.277-.013.307-.21.117-.765.24-1.53.364-2.312l.188-1.173h4.315v.45a15.184,15.184,0,0,1-1.74,7.241,21.389,21.389,0,0,1-4.351,5.425c4.2,3.858,6.137,7.895,6.078,12.667Zm-3.547-.9h2.655c-.069-4.436-2.029-8.217-6.139-11.868l-.367-.326.358-.338a21.488,21.488,0,0,0,4.523-5.523,14.185,14.185,0,0,0,1.631-6.374h-2.643l-.066.416c-.126.783-.247,1.544-.364,2.306-.1.661-.5.932-1.206.973-3.183-.03-5.843-.029-8.366,0a1.151,1.151,0,0,1-1.358-1.1c-.091-.7-.2-1.388-.311-2.08l-.08-.518h-2.643c.073,4.441,2.04,8.226,6.159,11.88l.38.335-.38.336c-4.129,3.668-6.095,7.45-6.157,11.873h2.632l.09-.561c.121-.748.239-1.481.354-2.214a1,1,0,0,1,1.106-.916h.022c2.017.017,4.035.016,6.055.013h2.019c1.377,0,1.578.172,1.811,1.531.1.584.168,1.171.236,1.76Zm-2.917-6.417h-5.872l-.568-.73,3.483-3.139,3.464,3.206Zm-4.908-.9h3.837l-1.892-1.752Zm2.084-6.721-3.6-3.252.512-.712h6.917Zm-2.051-3.065,2.009,1.815,1.755-1.815Z" transform="translate(-1745.572 -1288.461)" fill="#fff"/>
      </g>
      <g id="Grupo_1798" data-name="Grupo 1798" transform="translate(1792.461 1294.094)">
        <path id="Trazado_3079" data-name="Trazado 3079" d="M1797.7,1288.836h3.482a14.824,14.824,0,0,1-1.689,7.032,21.911,21.911,0,0,1-4.614,5.643c3.8,3.376,6.356,7.353,6.289,12.653h-3.5c-.107-.843-.183-1.69-.326-2.525-.2-1.161-.221-1.158-1.369-1.158-2.693,0-5.386.012-8.079-.012-.43,0-.617.137-.68.535-.162,1.039-.332,2.076-.506,3.156h-3.461c-.077-5.264,2.457-9.24,6.307-12.658-3.82-3.388-6.373-7.365-6.311-12.665h3.477c.152,1,.32,1.989.452,2.988.074.562.335.718.906.711,2.793-.036,5.585-.03,8.378,0,.474,0,.688-.15.756-.592C1797.367,1290.92,1797.533,1289.9,1797.7,1288.836Zm-5.4,10.216,2.792-2.89h-5.625l-.145.2Zm-2.982,7.569.174.227h5.433l.122-.161-2.862-2.65Z" transform="translate(-1782.791 -1288.387)" fill="#74a839"/>
        <path id="Trazado_3080" data-name="Trazado 3080" d="M1801.688,1314.688h-4.344l-.144-1.179c-.065-.576-.132-1.151-.229-1.72a3.2,3.2,0,0,0-.176-.748,2.385,2.385,0,0,0-.74-.036h-2.029c-2.023,0-4.043,0-6.063-.013a.521.521,0,0,0-.2.023.567.567,0,0,0-.033.132c-.126.814-.258,1.626-.392,2.459l-.175,1.076h-4.287l-.007-.442c-.068-4.757,1.867-8.793,6.086-12.665-4.207-3.858-6.145-7.9-6.09-12.669l0-.446h4.307l.188,1.208c.115.723.229,1.445.325,2.171.036.274.038.32.455.319,2.53-.031,5.2-.032,8.387,0,.266-.01.276-.013.307-.21.117-.765.24-1.53.364-2.312l.188-1.173h4.315v.45a15.2,15.2,0,0,1-1.74,7.241,21.406,21.406,0,0,1-4.351,5.425c4.2,3.859,6.136,7.9,6.078,12.667Zm-3.548-.9h2.655c-.07-4.435-2.029-8.216-6.139-11.868l-.367-.326.358-.338a21.5,21.5,0,0,0,4.523-5.523,14.2,14.2,0,0,0,1.631-6.374h-2.643l-.066.416c-.126.783-.247,1.544-.364,2.306a1.051,1.051,0,0,1-1.182.973h-.024c-3.184-.03-5.843-.029-8.366,0a1.154,1.154,0,0,1-1.359-1.1c-.094-.718-.207-1.434-.32-2.148l-.069-.449h-2.643c.073,4.441,2.04,8.226,6.158,11.88l.38.335-.38.336c-4.129,3.668-6.094,7.451-6.156,11.873h2.631l.053-.321c.134-.831.265-1.642.392-2.453a1.021,1.021,0,0,1,1.128-.916c2.018.018,4.036.018,6.054.013h2.021c1.376,0,1.577.172,1.81,1.531.1.586.17,1.177.238,1.769Zm-2.917-6.417h-5.872l-.564-.732,3.479-3.137,3.464,3.206Zm-4.909-.9h3.838l-1.894-1.752Zm2.085-6.721-3.6-3.254.517-.71h6.916Zm-2.052-3.065,2.009,1.815,1.755-1.815Z" transform="translate(-1782.865 -1288.461)" fill="#fff"/>
      </g>
      <g id="Grupo_1801" data-name="Grupo 1801" transform="translate(1734.537 1260.088)">
        <g id="Grupo_1799" data-name="Grupo 1799" transform="translate(31.62)">
          <path id="Trazado_3081" data-name="Trazado 3081" d="M1837.165,1283.054c-.09.139-.193.271-.268.417a3.156,3.156,0,0,1-6.047-1.393c-.017-3.372,0-6.742-.006-10.114v-1.081c-6.573,6.43-12.955,12.672-19.331,18.908a28.333,28.333,0,0,1-40.619,39.18c-10.6-9.375-12.962-24.014-6.074-35.5a14,14,0,0,1,4.721,3.7c.145.174-.031.7-.173,1.014a21.054,21.054,0,0,0,1.225,20.812,21.923,21.923,0,0,0,23.154,10.18,22.228,22.228,0,0,0,17.451-18.226c2.044-12.153-6.914-24.1-19.126-25.352a55.667,55.667,0,0,0-6.6.12,1.246,1.246,0,0,1-.835-.208c-1.51-1.558-2.983-3.152-4.453-4.72,6.352-2.679,17.15-3.02,26.85,4.539l19.34-18.92h-6.459c-1.51,0-3.02.006-4.53,0a3.236,3.236,0,0,1-3.433-2.5,3.19,3.19,0,0,1,2.024-3.622,1.1,1.1,0,0,0,.222-.2h20.647l2.318,2.318Z" transform="translate(-1760.918 -1260.088)" fill="#74a839"/>
        </g>
        <g id="Grupo_1800" data-name="Grupo 1800" transform="translate(0 18.943)">
          <path id="Trazado_3082" data-name="Trazado 3082" d="M1772.277,1331.209l-6.068,1.377v13.065h1.957q3.423,0,6.846,0c2.317,0,3.775,1.239,3.759,3.185s-1.467,3.134-3.81,3.135q-3.846,0-7.69,0h-1.137v7.643c0,.668.015,1.335,0,2a3.154,3.154,0,1,1-6.307-.006c-.028-3.157-.007-6.315-.007-9.639h-1.25q-3.9,0-7.794,0c-2.144,0-3.581-1.264-3.595-3.138s1.429-3.176,3.553-3.18c2.979-.006,5.959,0,9.012,0v-13.144a28.5,28.5,0,0,1-20.062-11.954,27.3,27.3,0,0,1-5.141-16.39,28.452,28.452,0,0,1,19.674-26.859,28.117,28.117,0,0,1,31.553,10.233,27.482,27.482,0,0,1,1.715,30.829,14.068,14.068,0,0,1-4.674-3.639c-.145-.172-.07-.657.06-.92,5.959-12.183-.819-25.167-11.165-29.737a22.084,22.084,0,1,0-12.151,42.1c2.318.357,4.744,0,7.121.006a1.683,1.683,0,0,1,1.093.279C1769.241,1327.942,1770.661,1329.492,1772.277,1331.209Z" transform="translate(-1734.537 -1275.893)" fill="#74a839"/>
        </g>
      </g>
    </g>
  </g>
</svg>
