<svg xmlns="http://www.w3.org/2000/svg" xmlns:xlink="http://www.w3.org/1999/xlink" width="227" height="216" viewBox="0 0 227 216">
  <defs>
    <filter id="Image" x="0" y="0" width="227" height="216" filterUnits="userSpaceOnUse">
      <feOffset dy="5" input="SourceAlpha"/>
      <feGaussianBlur stdDeviation="2.5" result="blur"/>
      <feFlood flood-opacity="0.161"/>
      <feComposite operator="in" in2="blur"/>
      <feComposite in="SourceGraphic"/>
    </filter>
  </defs>
  <g id="Grupo_455" data-name="Grupo 455" transform="translate(-498.072 -3328.518)">
    <g transform="matrix(1, 0, 0, 1, 498.07, 3328.52)" filter="url(#Image)">
      <g id="Image-2" data-name="Image" transform="translate(7.5 2.5)" fill="#fff" stroke="#a2e2ff" stroke-width="6">
        <rect width="212" height="201" rx="100.5" stroke="none"/>
        <rect x="3" y="3" width="206" height="195" rx="97.5" fill="none"/>
      </g>
    </g>
    <g id="Grupo_1355" data-name="Grupo 1355" transform="translate(-954.806 2970.985)">
      <g id="Grupo_1350" data-name="Grupo 1350" transform="translate(1555.781 418.652)">
        <path id="Trazado_2718" data-name="Trazado 2718" d="M1540.217,480.348c.047-4.245.937-7.9,3.5-10.887a19.858,19.858,0,0,1,3.949-3.1c.449-.31.714-.521.761-1.092a18.545,18.545,0,0,0-2.585-11.161c-1.128-1.916-2.352-3.775-3.479-5.691a14.184,14.184,0,0,1-2.144-6.9,11.37,11.37,0,0,1,2.492-7.478,35.995,35.995,0,0,1,3.128-3.591c3.818-3.754,4.659-8.14,2.973-13.121-.192-.567-.382-1.138-.54-1.715a2.645,2.645,0,0,1,1.6-3.188,2.557,2.557,0,0,1,3.305,1.336c2.5,6.584,2.833,12.957-2.1,18.713-1.1,1.288-2.277,2.514-3.383,3.8-2.558,2.97-2.867,5.5-1.02,8.947.764,1.429,1.649,2.8,2.539,4.153,3.233,4.924,5.021,10.238,4.516,16.2a.936.936,0,0,0,.331.76c4.451,2.223,6.37,6.152,7.114,10.769a17.369,17.369,0,0,1-2.394,12.4,10.144,10.144,0,0,1-5.251,4.419,8.1,8.1,0,0,1-8.763-2.117C1541.431,488.6,1540.292,484.486,1540.217,480.348Zm5.033-.4.289.074a11.767,11.767,0,0,0,1.406,6c.856,1.542,1.9,3.052,3.865,3.053s3.029-1.5,3.867-3.052a11.885,11.885,0,0,0,1.149-8.511,13.946,13.946,0,0,0-1.957-4.6c-1.777-2.613-4.2-2.546-6.144-.03a6.1,6.1,0,0,0-1.067,1.81C1546.123,476.42,1545.711,478.19,1545.25,479.944Z" transform="translate(-1540.217 -412.258)" fill="#74a839"/>
      </g>
      <g id="Grupo_1354" data-name="Grupo 1354" transform="translate(1502.707 396.849)">
        <g id="Grupo_1351" data-name="Grupo 1351">
          <path id="Trazado_2719" data-name="Trazado 2719" d="M1502.707,456.531c.325-2.373.553-4.764.99-7.116a62.662,62.662,0,0,1,27.386-41.867,60.865,60.865,0,0,1,36.484-10.678c18.667.474,34.277,7.8,46.684,21.742a60.626,60.626,0,0,1,15.219,33.408c2.454,19.72-3.014,37.092-16.442,51.77a62.039,62.039,0,0,1-36.155,19.542c-2.153.372-4.335.579-6.506.862h-7.959a7.083,7.083,0,0,0-.957-.205,63.763,63.763,0,0,1-57.795-52.626c-.4-2.275-.638-4.58-.952-6.872Zm4.24,3.97a59.442,59.442,0,1,0,59.5-59.434A59.51,59.51,0,0,0,1506.948,460.5Z" transform="translate(-1502.707 -396.849)" fill="#74a839"/>
        </g>
        <g id="Grupo_1352" data-name="Grupo 1352" transform="translate(30.31 10.638)">
          <path id="Trazado_2720" data-name="Trazado 2720" d="M1557.393,404.367a52.905,52.905,0,0,1,52.363,44.18c2.466,15.028-.968,28.678-10,40.934-.7.955-1.527,1.547-2.745,1.111-1.428-.511-1.8-2.087-.773-3.472a52.258,52.258,0,0,0,6.108-10.493,48.774,48.774,0,0,0-36.555-67.27c-13.619-2.326-26.057.715-37.276,8.767-.337.241-.658.507-1.009.725a2.1,2.1,0,0,1-2.966-.49,2.023,2.023,0,0,1,.546-2.952,92.83,92.83,0,0,1,8.173-5.176A51.173,51.173,0,0,1,1557.393,404.367Z" transform="translate(-1524.129 -404.367)" fill="#74a839"/>
        </g>
        <g id="Grupo_1353" data-name="Grupo 1353" transform="translate(10.438 30.29)">
          <path id="Trazado_2721" data-name="Trazado 2721" d="M1510.084,451.586a54.3,54.3,0,0,1,10.778-31.751c1.208-1.631,2.357-1.994,3.5-1.109,1.112.86,1.105,2.032-.058,3.593a47.1,47.1,0,0,0-9.033,21.01c-2.394,15.072,1.264,28.549,11.178,40.156a47,47,0,0,0,31.168,16.569,47.872,47.872,0,0,0,34.6-9.087c.3-.218.591-.454.9-.664a2.14,2.14,0,0,1,3.171.362,2.063,2.063,0,0,1-.656,3.028,88.222,88.222,0,0,1-8.074,5.1c-31.477,16.277-70.08-2.729-76.382-37.6C1510.606,458.031,1510.439,454.792,1510.084,451.586Z" transform="translate(-1510.084 -418.256)" fill="#74a839"/>
        </g>
      </g>
    </g>
  </g>
</svg>
