<svg xmlns="http://www.w3.org/2000/svg" xmlns:xlink="http://www.w3.org/1999/xlink" width="227" height="216" viewBox="0 0 227 216">
  <defs>
    <filter id="Image" x="0" y="0" width="227" height="216" filterUnits="userSpaceOnUse">
      <feOffset dy="5" input="SourceAlpha"/>
      <feGaussianBlur stdDeviation="2.5" result="blur"/>
      <feFlood flood-opacity="0.161"/>
      <feComposite operator="in" in2="blur"/>
      <feComposite in="SourceGraphic"/>
    </filter>
  </defs>
  <g id="Grupo_455" data-name="Grupo 455" transform="translate(-498.072 -3328.518)">
    <g transform="matrix(1, 0, 0, 1, 498.07, 3328.52)" filter="url(#Image)">
      <g id="Image-2" data-name="Image" transform="translate(7.5 2.5)" fill="#fff" stroke="#a2e2ff" stroke-width="6">
        <rect width="212" height="201" rx="100.5" stroke="none"/>
        <rect x="3" y="3" width="206" height="195" rx="97.5" fill="none"/>
      </g>
    </g>
    <g id="Grupo_6316" data-name="Grupo 6316" transform="translate(-1427.124 3983.948)">
      <g id="Grupo_6311" data-name="Grupo 6311" transform="translate(2001.291 -568.72)">
        <g id="Grupo_6310" data-name="Grupo 6310">
          <path id="Trazado_3447" data-name="Trazado 3447" d="M2032.6-497.239a1.742,1.742,0,0,1-1.741-1.741v-8.572c-21.007-2.083-25.26-16.842-26.066-21.364a2.572,2.572,0,0,0-1.063-1.57,5.559,5.559,0,0,1-3.211-2.294,4.837,4.837,0,0,1-.4-4.007,5.146,5.146,0,0,1,5.814-3.767l.125-.2c.538-.847,1.094-1.725,1.734-2.565a110.136,110.136,0,0,1,9.382-10.377c2.111-2.127,3.869-3.8,5.534-5.263a45.837,45.837,0,0,1,3.708-2.834l.573-.409c4.485-3.211,14.713-12.123,14.815-12.213a1.744,1.744,0,0,1,2.457.168,1.743,1.743,0,0,1-.167,2.457c-.426.369-10.457,9.113-15.079,12.419l-.581.414c-1.173.836-2.388,1.7-3.43,2.614-1.6,1.409-3.306,3.029-5.36,5.1a107.187,107.187,0,0,0-9.086,10.04c-.548.717-1.04,1.493-1.561,2.314l-.264.418a3.075,3.075,0,0,1-2.932,1.4c-1.907-.227-2.212.815-2.341,1.258-.232.793-.038,1.11.027,1.215a2.253,2.253,0,0,0,1.251.775,1.65,1.65,0,0,1,.473.166,6.012,6.012,0,0,1,3,4.092c.713,3.991,4.5,17.014,23.693,18.609h.693a1.742,1.742,0,0,1,1.741,1.741v10.232A1.742,1.742,0,0,1,2032.6-497.239Z" transform="translate(-1999.872 574.842)" fill="#74a839"/>
        </g>
      </g>
      <g id="Grupo_6315" data-name="Grupo 6315" transform="translate(1991.049 -612.931)">
        <g id="Grupo_6312" data-name="Grupo 6312" transform="translate(27.698 35.557)">
          <path id="Trazado_3448" data-name="Trazado 3448" d="M2054.682-572.583a1.738,1.738,0,0,1-.98-.3c-18.719-12.759-35.877-1.03-36.05-.91a1.743,1.743,0,0,1-2.426-.426,1.744,1.744,0,0,1,.427-2.426c.19-.132,19.325-13.215,40.009.884a1.74,1.74,0,0,1,.459,2.419A1.739,1.739,0,0,1,2054.682-572.583Z" transform="translate(-2014.912 582.298)" fill="#74a839" stroke="#74a839" stroke-width="1"/>
        </g>
        <g id="Grupo_6313" data-name="Grupo 6313" transform="translate(13.968 18.56)">
          <path id="Trazado_3449" data-name="Trazado 3449" d="M2070.316-581.5a1.735,1.735,0,0,1-1.052-.353c-32.814-24.893-62.139-2.691-63.371-1.733a1.742,1.742,0,0,1-2.443-.3,1.741,1.741,0,0,1,.3-2.442c.321-.251,32.628-24.836,67.617,1.7a1.742,1.742,0,0,1,.335,2.44A1.737,1.737,0,0,1,2070.316-581.5Z" transform="translate(-2003.083 596.941)" fill="#74a839" stroke="#74a839" stroke-width="1"/>
        </g>
        <g id="Grupo_6314" data-name="Grupo 6314">
          <path id="Trazado_3450" data-name="Trazado 3450" d="M2085.923-594.1a2.025,2.025,0,0,1-1.118-.337c-46.9-31-90.154-2.429-90.584-2.136a2.034,2.034,0,0,1-2.82-.541,2.029,2.029,0,0,1,.537-2.819c.453-.31,45.878-30.431,95.108,2.107a2.032,2.032,0,0,1,.575,2.815A2.029,2.029,0,0,1,2085.923-594.1Z" transform="translate(-1991.049 612.931)" fill="#74a839" stroke="#74a839" stroke-width="1"/>
        </g>
      </g>
    </g>
  </g>
</svg>
