<svg xmlns="http://www.w3.org/2000/svg" xmlns:xlink="http://www.w3.org/1999/xlink" width="227" height="216" viewBox="0 0 227 216">
  <defs>
    <filter id="Image" x="0" y="0" width="227" height="216" filterUnits="userSpaceOnUse">
      <feOffset dy="5" input="SourceAlpha"/>
      <feGaussianBlur stdDeviation="2.5" result="blur"/>
      <feFlood flood-opacity="0.161"/>
      <feComposite operator="in" in2="blur"/>
      <feComposite in="SourceGraphic"/>
    </filter>
  </defs>
  <g id="Grupo_455" data-name="Grupo 455" transform="translate(-498.072 -3328.518)">
    <g transform="matrix(1, 0, 0, 1, 498.07, 3328.52)" filter="url(#Image)">
      <g id="Image-2" data-name="Image" transform="translate(7.5 2.5)" fill="#fff" stroke="#a2e2ff" stroke-width="6">
        <rect width="212" height="201" rx="100.5" stroke="none"/>
        <rect x="3" y="3" width="206" height="195" rx="97.5" fill="none"/>
      </g>
    </g>
    <g id="Grupo_1609" data-name="Grupo 1609" transform="translate(215.243 2692.719)">
      <g id="Grupo_1607" data-name="Grupo 1607" transform="translate(337.329 683.678)">
        <g id="Grupo_1584" data-name="Grupo 1584" transform="translate(31.054 13.016)">
          <g id="Grupo_1583" data-name="Grupo 1583">
            <path id="Trazado_2940" data-name="Trazado 2940" d="M400.863,755.325c-14.2,0-28.528-4.088-37.673-12.267a1.514,1.514,0,0,1-.424-1.614l15.691-46.114a1.513,1.513,0,0,1,2.408-.669c9.461,8,30.707,8.023,39.191.054a1.513,1.513,0,0,1,2.468.615l15.69,46.114a1.514,1.514,0,0,1-.391,1.585C429.181,751.224,415.083,755.325,400.863,755.325Zm-34.905-13.87c17.052,14.311,52.95,14.327,69.075.029l-14.669-43.113c-9.829,7.107-29.174,7.086-39.716-.086Z" transform="translate(-362.685 -694.305)" fill="#74a839"/>
          </g>
        </g>
        <g id="Grupo_1586" data-name="Grupo 1586">
          <g id="Grupo_1585" data-name="Grupo 1585">
            <path id="Trazado_2941" data-name="Trazado 2941" d="M446.805,768.61H382.44a1.512,1.512,0,0,1,0-3.025h64.366a4.7,4.7,0,0,0,4.691-4.691V691.643a4.7,4.7,0,0,0-4.691-4.691H345.294a4.7,4.7,0,0,0-4.691,4.691v65.374a1.512,1.512,0,0,1-3.024,0V691.643a7.724,7.724,0,0,1,7.714-7.715H446.805a7.724,7.724,0,0,1,7.714,7.715v69.251A7.724,7.724,0,0,1,446.805,768.61Z" transform="translate(-337.273 -683.621)" fill="#74a839"/>
            <path id="Trazado_2942" data-name="Trazado 2942" d="M446.861,768.973H382.5a1.819,1.819,0,0,1,0-3.637h64.364a4.39,4.39,0,0,0,4.386-4.384V691.7a4.39,4.39,0,0,0-4.386-4.384H345.351a4.389,4.389,0,0,0-4.384,4.384v65.374a1.819,1.819,0,0,1-3.637,0V691.7a8.031,8.031,0,0,1,8.022-8.022h101.51a8.031,8.031,0,0,1,8.022,8.022v69.251A8.031,8.031,0,0,1,446.861,768.973ZM382.5,765.948a1.206,1.206,0,0,0,0,2.413h64.364a7.418,7.418,0,0,0,7.409-7.41V691.7a7.418,7.418,0,0,0-7.409-7.409H345.351a7.418,7.418,0,0,0-7.409,7.409v65.374a1.206,1.206,0,0,0,2.413,0V691.7a5,5,0,0,1,5-5h101.51a5,5,0,0,1,5,5v69.251a5,5,0,0,1-5,5Z" transform="translate(-337.329 -683.678)" fill="#74a839"/>
          </g>
        </g>
        <g id="Grupo_1588" data-name="Grupo 1588" transform="translate(13.412 14.421)">
          <g id="Grupo_1587" data-name="Grupo 1587">
            <path id="Trazado_2943" data-name="Trazado 2943" d="M349.792,742.833a1.512,1.512,0,0,1-1.513-1.511V696.964a1.513,1.513,0,0,1,3.025,0v44.358A1.512,1.512,0,0,1,349.792,742.833Z" transform="translate(-348.28 -695.453)" fill="#74a839"/>
          </g>
        </g>
        <g id="Grupo_1590" data-name="Grupo 1590" transform="translate(15.429 22.486)">
          <g id="Grupo_1589" data-name="Grupo 1589">
            <path id="Trazado_2944" data-name="Trazado 2944" d="M359.5,705.062h-8.066a1.512,1.512,0,0,1,0-3.024H359.5a1.512,1.512,0,0,1,0,3.024Z" transform="translate(-349.927 -702.038)" fill="#74a839"/>
          </g>
        </g>
        <g id="Grupo_1592" data-name="Grupo 1592" transform="translate(15.429 34.583)">
          <g id="Grupo_1591" data-name="Grupo 1591">
            <path id="Trazado_2945" data-name="Trazado 2945" d="M359.5,714.94h-8.066a1.512,1.512,0,0,1,0-3.024H359.5a1.512,1.512,0,0,1,0,3.024Z" transform="translate(-349.927 -711.916)" fill="#74a839"/>
          </g>
        </g>
        <g id="Grupo_1594" data-name="Grupo 1594" transform="translate(15.429 46.68)">
          <g id="Grupo_1593" data-name="Grupo 1593">
            <path id="Trazado_2946" data-name="Trazado 2946" d="M359.5,724.818h-8.066a1.513,1.513,0,0,1,0-3.025H359.5a1.513,1.513,0,0,1,0,3.025Z" transform="translate(-349.927 -721.793)" fill="#74a839"/>
          </g>
        </g>
        <g id="Grupo_1596" data-name="Grupo 1596" transform="translate(13.412 58.777)">
          <g id="Grupo_1595" data-name="Grupo 1595">
            <path id="Trazado_2947" data-name="Trazado 2947" d="M359.874,734.695H349.792a1.512,1.512,0,1,1,0-3.024h10.082a1.512,1.512,0,0,1,0,3.024Z" transform="translate(-348.28 -731.671)" fill="#74a839"/>
          </g>
        </g>
        <g id="Grupo_1598" data-name="Grupo 1598" transform="translate(18.788 75.364)">
          <g id="Grupo_1597" data-name="Grupo 1597">
            <path id="Trazado_2948" data-name="Trazado 2948" d="M402.97,778.995a1.5,1.5,0,0,1-.371-.047l-29.616-7.467c-2.25-.7-4.26,1.2-7.076,4.171a1.51,1.51,0,0,1-1.55.4l-9.7-3.042a1.508,1.508,0,0,1-.9-.758c-1.686-3.326-1.424-8.22.828-15.4,1.846-5.886,4.4-9.741,7.594-11.461a1.516,1.516,0,0,1,1.17-.11l9.7,3.041a1.512,1.512,0,0,1,1.061,1.426c.063,5.853.824,8.261,2.809,8.884l28.658,10.808a1.512,1.512,0,0,1,.91,1.868l-2.077,6.625A1.513,1.513,0,0,1,402.97,778.995Zm-30.987-10.71a6.059,6.059,0,0,1,1.822.286l28.149,7.1,1.222-3.9-27.24-10.276c-4.056-1.269-4.713-5.82-4.829-10.608l-8.01-2.511c-1.656,1.113-3.823,3.65-5.623,9.386-1.836,5.857-2.251,9.981-1.261,12.574l8.149,2.556C366.562,770.589,369.011,768.285,371.982,768.285Z" transform="translate(-352.67 -745.214)" fill="#74a839"/>
          </g>
        </g>
        <g id="Grupo_1600" data-name="Grupo 1600" transform="translate(24.253 81.964)">
          <g id="Grupo_1599" data-name="Grupo 1599">
            <path id="Trazado_2949" data-name="Trazado 2949" d="M358.646,772.814a1.536,1.536,0,0,1-.472-.076,1.514,1.514,0,0,1-.966-1.909l6.3-19.185a1.513,1.513,0,0,1,2.874.943l-6.3,19.185A1.513,1.513,0,0,1,358.646,772.814Z" transform="translate(-357.132 -750.603)" fill="#74a839"/>
          </g>
        </g>
        <g id="Grupo_1602" data-name="Grupo 1602" transform="translate(69.867 87.003)">
          <g id="Grupo_1601" data-name="Grupo 1601">
            <path id="Trazado_2950" data-name="Trazado 2950" d="M422.549,778.246c-11.337,0-24.9-3.8-27.082-4.432a1.512,1.512,0,0,1,.843-2.905c8.457,2.454,31.732,7.485,37.826,1.391.905-.905.942-1.3.942-1.3-.535-.8-5.332-1.475-8.508-1.923-5.707-.8-12.176-1.715-16.4-4.529-2.242-1.494-2.42-2.972-2.174-3.95.954-3.794,11.051-5.307,16.983-5.87a1.512,1.512,0,0,1,.287,3.01c-6.86.654-13.409,2.283-14.291,3.533a3.176,3.176,0,0,0,.872.759c3.648,2.432,10.022,3.33,15.142,4.051,6.081.856,10.1,1.422,10.966,4.022.665,1.988-1.1,3.755-1.683,4.335C433.436,777.276,428.276,778.246,422.549,778.246Z" transform="translate(-394.377 -754.718)" fill="#74a839"/>
          </g>
        </g>
        <g id="Grupo_1604" data-name="Grupo 1604" transform="translate(8.579 77.754)">
          <g id="Grupo_1603" data-name="Grupo 1603">
            <path id="Trazado_2951" data-name="Trazado 2951" d="M347.506,762.8a1.509,1.509,0,0,1-1.2-.588,9.417,9.417,0,0,1,5.759-15.026,1.513,1.513,0,0,1,.544,2.976,6.392,6.392,0,0,0-3.908,10.2,1.512,1.512,0,0,1-1.2,2.436Z" transform="translate(-344.334 -747.165)" fill="#74a839"/>
          </g>
        </g>
        <g id="Grupo_1606" data-name="Grupo 1606" transform="translate(1.977 71.283)">
          <g id="Grupo_1605" data-name="Grupo 1605">
            <path id="Trazado_2952" data-name="Trazado 2952" d="M343.55,768.1a1.51,1.51,0,0,1-1.192-.579,15.926,15.926,0,0,1-2.431-15.372,16.122,16.122,0,0,1,12.036-10.24,1.513,1.513,0,0,1,.571,2.971,13.077,13.077,0,0,0-9.767,8.306,12.917,12.917,0,0,0,1.973,12.47,1.512,1.512,0,0,1-1.19,2.444Z" transform="translate(-338.943 -741.882)" fill="#74a839"/>
          </g>
        </g>
      </g>
      <g id="Grupo_936" data-name="Grupo 936" transform="translate(600.698 -293.143)">
        <path id="Trazado_1922" data-name="Trazado 1922" d="M-170.123,1024.26a22.339,22.339,0,0,1-18.268,22.653,22.666,22.666,0,0,1-26.113-15.857,22,22,0,0,1,13.761-26.491,22.731,22.731,0,0,1,29.7,14.313A13.563,13.563,0,0,1-170.123,1024.26Zm-23.4,9.395c-1.512,2.723-4.027,4.112-6.844,5.108a.736.736,0,0,1-.971-.319,1.282,1.282,0,0,1-.01-.919c.078-.2.4-.318.637-.437,1.064-.543,2.178-1.005,3.188-1.629a7.124,7.124,0,0,0,1.824-1.637c.735-.94,1.207-1.907.432-3.192a5.792,5.792,0,0,1-.721-4.7.414.414,0,0,0-.212-.351,7.547,7.547,0,0,0-1.727-.344c-3.378-.032-6.756-.015-10.135-.016a1.289,1.289,0,0,1-1.461-1.035c-.129-.377-.225-.765-.346-1.144a1.669,1.669,0,0,0-1.615-1.213,1.569,1.569,0,0,0-1.649,1,3.93,3.93,0,0,0,3.549,5.8c2.047.116,4.087.35,6.132.512a1.291,1.291,0,0,0,.7-.148c.6-.339,1.168-.739,1.764-1.087a.863.863,0,0,1,1.2.259.82.82,0,0,1-.29,1.17c-.137.1-.286.178-.429.267a42.34,42.34,0,0,0-5.64,4.08,8.986,8.986,0,0,0-2.559,4,.752.752,0,0,0,.2.839,21.192,21.192,0,0,0,22.333,6.08,6.392,6.392,0,0,0,3.039-2.023,11.294,11.294,0,0,0,2.866-5.617,2.92,2.92,0,0,0-1.793-3.462q-3.184-1.556-6.368-3.112a2.3,2.3,0,0,1-.481-.275.779.779,0,0,1-.223-1.029.852.852,0,0,1,1.032-.415,3.1,3.1,0,0,1,.417.181q2.753,1.344,5.505,2.689a6.359,6.359,0,0,1,2.9,2.042c.524-.314,1-.6,1.469-.883.852-.513,1.73-.988,2.547-1.548a6.886,6.886,0,0,0,3.111-4.694,11.854,11.854,0,0,0-.513-6.614,7.544,7.544,0,0,0-6.58-4.755,8.19,8.19,0,0,0-9.084,8.85.672.672,0,0,0,.464.62c.731.346,1.445.731,2.145,1.133.581.334.731.849.429,1.286s-.775.451-1.35.149a30.565,30.565,0,0,0-2.768-1.357,6.043,6.043,0,0,0-3.478-.466,1.689,1.689,0,0,0-1.549,1.746,4.32,4.32,0,0,0,.06.94,9.873,9.873,0,0,0,1.667,3.759,31.123,31.123,0,0,0,4.99,5.63c.488.451.547.972.174,1.347a.909.909,0,0,1-1.348-.1c-.836-.8-1.675-1.6-2.463-2.447C-192.106,1035.372-192.794,1034.509-193.526,1033.654Zm-19.4-13.346a8.194,8.194,0,0,1,.984-.17A3.44,3.44,0,0,1-208.08,1023c.114.417.29.533.72.531,3.259-.014,6.519,0,9.778,0a.785.785,0,0,0,.347-.038,7.489,7.489,0,0,0,3.231-2.724,3.234,3.234,0,0,0-.348-3.727,9.692,9.692,0,0,0-1.176-1.1,6,6,0,0,1-2.18-3.337,8.055,8.055,0,0,1,1.594-7.086l.32-.407A20.5,20.5,0,0,0-212.923,1020.309Zm22.814,3.443c.008-3.9,1.5-7,4.9-9.012s6.87-1.852,10.388.038c-.085-.161-.111-.221-.147-.276a20.956,20.956,0,0,0-16.158-9.645,3.666,3.666,0,0,0-3.184,1.236c-.072.071-.14.145-.209.218-2.057,2.145-2.606,6.691.642,8.782a4.687,4.687,0,0,1,2,4.591,5.507,5.507,0,0,1-2.11,3.681c-.33.292-.686.556-1.03.833l.043.136A6.28,6.28,0,0,1-190.109,1023.752Zm-19.965,12.738c.855-2.631,2.822-4.242,4.848-5.843-1.44-.16-2.844-.221-4.242-.346a12.1,12.1,0,0,1-2.135-.381,10.992,10.992,0,0,1-1.54-.68A19.69,19.69,0,0,0-210.074,1036.49Zm30.182,4.748a20.194,20.194,0,0,0,7.074-9.873c-.207.168-.312.269-.432.348-1.272.847-2.511,1.753-3.836,2.51a2.09,2.09,0,0,0-1.18,1.547A17.912,17.912,0,0,1-179.892,1041.238Z" transform="translate(-1.785 -1.801)" fill="#74a839" stroke="#74a839" stroke-width="0.5"/>
        <path id="Trazado_1923" data-name="Trazado 1923" d="M-169.241,1029.762a2.569,2.569,0,0,1-1.4,2.5,2.366,2.366,0,0,1-2.586-.259.853.853,0,0,1-.316-1.245c.292-.414.751-.451,1.263-.1a.823.823,0,0,0,1.136-.025.825.825,0,0,0,.028-1.135c-.372-.53-.352-.947.06-1.266a.807.807,0,0,1,1.237.28A8.445,8.445,0,0,1-169.241,1029.762Z" transform="translate(-7.24 -5.768)" fill="#74a839" stroke="#74a839" stroke-width="0.5"/>
      </g>
    </g>
  </g>
</svg>
