<svg xmlns="http://www.w3.org/2000/svg" xmlns:xlink="http://www.w3.org/1999/xlink" width="227" height="216" viewBox="0 0 227 216">
  <defs>
    <filter id="Image" x="0" y="0" width="227" height="216" filterUnits="userSpaceOnUse">
      <feOffset dy="5" input="SourceAlpha"/>
      <feGaussianBlur stdDeviation="2.5" result="blur"/>
      <feFlood flood-opacity="0.161"/>
      <feComposite operator="in" in2="blur"/>
      <feComposite in="SourceGraphic"/>
    </filter>
  </defs>
  <g id="Grupo_455" data-name="Grupo 455" transform="translate(-498.072 -3328.518)">
    <g transform="matrix(1, 0, 0, 1, 498.07, 3328.52)" filter="url(#Image)">
      <g id="Image-2" data-name="Image" transform="translate(7.5 2.5)" fill="#fff" stroke="#a2e2ff" stroke-width="6">
        <rect width="212" height="201" rx="100.5" stroke="none"/>
        <rect x="3" y="3" width="206" height="195" rx="97.5" fill="none"/>
      </g>
    </g>
    <g id="Grupo_1610" data-name="Grupo 1610" transform="translate(-10.272 2702.144)">
      <g id="Grupo_1632" data-name="Grupo 1632" transform="translate(569.699 683.678)">
        <g id="Grupo_1611" data-name="Grupo 1611">
          <g id="Grupo_1610-2" data-name="Grupo 1610">
            <path id="Trazado_2955" data-name="Trazado 2955" d="M667.023,759.19h-57.2a1.344,1.344,0,0,1,0-2.689h57.2a4.174,4.174,0,0,0,4.17-4.169V690.785a4.174,4.174,0,0,0-4.17-4.169H576.805a4.173,4.173,0,0,0-4.169,4.169v58.1a1.344,1.344,0,0,1-2.689,0v-58.1a6.865,6.865,0,0,1,6.857-6.856h90.218a6.865,6.865,0,0,1,6.857,6.856v61.548A6.865,6.865,0,0,1,667.023,759.19Z" transform="translate(-569.677 -683.656)" fill="#74a839"/>
            <path id="Trazado_2956" data-name="Trazado 2956" d="M667.045,759.484h-57.2a1.616,1.616,0,0,1,0-3.233h57.2a3.9,3.9,0,0,0,3.9-3.9V690.807a3.9,3.9,0,0,0-3.9-3.9H576.826a3.9,3.9,0,0,0-3.9,3.9v58.1a1.616,1.616,0,0,1-3.232,0v-58.1a7.137,7.137,0,0,1,7.127-7.13h90.219a7.138,7.138,0,0,1,7.13,7.13v61.547A7.139,7.139,0,0,1,667.045,759.484Zm-57.2-2.688a1.072,1.072,0,0,0,0,2.144h57.2a6.593,6.593,0,0,0,6.585-6.585V690.807a6.593,6.593,0,0,0-6.585-6.585H576.826a6.592,6.592,0,0,0-6.583,6.585v58.1a1.072,1.072,0,0,0,2.143,0v-58.1a4.445,4.445,0,0,1,4.44-4.441h90.219a4.447,4.447,0,0,1,4.442,4.441v61.547a4.447,4.447,0,0,1-4.442,4.441Z" transform="translate(-569.699 -683.678)" fill="#74a839"/>
          </g>
        </g>
        <g id="Grupo_1613" data-name="Grupo 1613" transform="translate(11.919 12.817)">
          <g id="Grupo_1612" data-name="Grupo 1612">
            <path id="Trazado_2957" data-name="Trazado 2957" d="M581.993,737.563a1.344,1.344,0,0,1-1.344-1.343V696.8a1.344,1.344,0,0,1,2.689,0v39.423A1.344,1.344,0,0,1,581.993,737.563Z" transform="translate(-580.649 -695.453)" fill="#74a839"/>
          </g>
        </g>
        <g id="Grupo_1615" data-name="Grupo 1615" transform="translate(13.712 19.984)">
          <g id="Grupo_1614" data-name="Grupo 1614">
            <path id="Trazado_2958" data-name="Trazado 2958" d="M590.807,704.725h-7.168a1.344,1.344,0,0,1,0-2.687h7.168a1.344,1.344,0,1,1,0,2.687Z" transform="translate(-582.296 -702.038)" fill="#74a839"/>
          </g>
        </g>
        <g id="Grupo_1617" data-name="Grupo 1617" transform="translate(13.712 30.736)">
          <g id="Grupo_1616" data-name="Grupo 1616">
            <path id="Trazado_2959" data-name="Trazado 2959" d="M590.807,714.6h-7.168a1.344,1.344,0,0,1,0-2.687h7.168a1.344,1.344,0,1,1,0,2.687Z" transform="translate(-582.296 -711.916)" fill="#74a839"/>
          </g>
        </g>
        <g id="Grupo_1619" data-name="Grupo 1619" transform="translate(13.712 41.487)">
          <g id="Grupo_1618" data-name="Grupo 1618">
            <path id="Trazado_2960" data-name="Trazado 2960" d="M590.807,724.482h-7.168a1.344,1.344,0,0,1,0-2.689h7.168a1.344,1.344,0,1,1,0,2.689Z" transform="translate(-582.296 -721.793)" fill="#74a839"/>
          </g>
        </g>
        <g id="Grupo_1621" data-name="Grupo 1621" transform="translate(11.919 52.239)">
          <g id="Grupo_1620" data-name="Grupo 1620">
            <path id="Trazado_2961" data-name="Trazado 2961" d="M590.952,734.358h-8.959a1.344,1.344,0,1,1,0-2.687h8.959a1.344,1.344,0,1,1,0,2.687Z" transform="translate(-580.649 -731.671)" fill="#74a839"/>
          </g>
        </g>
        <g id="Grupo_1623" data-name="Grupo 1623" transform="translate(16.697 66.981)">
          <g id="Grupo_1622" data-name="Grupo 1622">
            <path id="Trazado_2962" data-name="Trazado 2962" d="M629.744,775.237a1.326,1.326,0,0,1-.33-.041l-26.321-6.636c-2-.626-3.786,1.062-6.289,3.707a1.343,1.343,0,0,1-1.378.358l-8.62-2.7a1.34,1.34,0,0,1-.8-.674c-1.5-2.956-1.266-7.306.736-13.688,1.64-5.231,3.911-8.658,6.75-10.186a1.346,1.346,0,0,1,1.039-.1l8.62,2.7a1.343,1.343,0,0,1,.943,1.267c.056,5.2.732,7.342,2.5,7.9l25.47,9.606a1.345,1.345,0,0,1,.809,1.66l-1.846,5.888A1.344,1.344,0,0,1,629.744,775.237ZM602.2,765.719a5.385,5.385,0,0,1,1.62.255l25.017,6.307,1.086-3.466-24.21-9.133c-3.6-1.128-4.188-5.172-4.293-9.428l-7.118-2.231c-1.472.989-3.4,3.244-5,8.342-1.632,5.205-2,8.871-1.121,11.175l7.243,2.272C597.386,767.766,599.563,765.719,602.2,765.719Z" transform="translate(-585.039 -745.214)" fill="#74a839"/>
          </g>
        </g>
        <g id="Grupo_1625" data-name="Grupo 1625" transform="translate(21.554 72.846)">
          <g id="Grupo_1624" data-name="Grupo 1624">
            <path id="Trazado_2963" data-name="Trazado 2963" d="M590.846,770.344a1.377,1.377,0,0,1-.42-.068,1.346,1.346,0,0,1-.858-1.7l5.6-17.051a1.344,1.344,0,0,1,2.555.838l-5.6,17.051A1.345,1.345,0,0,1,590.846,770.344Z" transform="translate(-589.501 -750.603)" fill="#74a839"/>
          </g>
        </g>
        <g id="Grupo_1627" data-name="Grupo 1627" transform="translate(62.093 77.325)">
          <g id="Grupo_1626" data-name="Grupo 1626">
            <path id="Trazado_2964" data-name="Trazado 2964" d="M651.784,775.629c-10.076,0-22.129-3.376-24.069-3.939a1.344,1.344,0,0,1,.749-2.582c7.515,2.181,28.2,6.653,33.619,1.236.8-.8.837-1.153.837-1.157-.476-.711-4.739-1.31-7.562-1.709-5.073-.714-10.822-1.524-14.575-4.025-1.992-1.328-2.15-2.642-1.931-3.51.848-3.372,9.821-4.716,15.094-5.217a1.344,1.344,0,0,1,.255,2.675c-6.1.581-11.918,2.029-12.7,3.14a2.822,2.822,0,0,0,.775.675c3.243,2.162,8.907,2.96,13.458,3.6,5.4.761,8.973,1.264,9.746,3.575.591,1.767-.98,3.337-1.5,3.853C661.461,774.767,656.874,775.629,651.784,775.629Z" transform="translate(-626.745 -754.718)" fill="#74a839"/>
          </g>
        </g>
        <g id="Grupo_1629" data-name="Grupo 1629" transform="translate(7.624 69.104)">
          <g id="Grupo_1628" data-name="Grupo 1628">
            <path id="Trazado_2965" data-name="Trazado 2965" d="M579.522,761.065a1.34,1.34,0,0,1-1.065-.522,8.369,8.369,0,0,1,5.118-13.355,1.344,1.344,0,0,1,.483,2.645,5.68,5.68,0,0,0-3.473,9.067,1.344,1.344,0,0,1-1.063,2.165Z" transform="translate(-576.703 -747.166)" fill="#74a839"/>
          </g>
        </g>
        <g id="Grupo_1631" data-name="Grupo 1631" transform="translate(1.756 63.353)">
          <g id="Grupo_1630" data-name="Grupo 1630">
            <path id="Trazado_2966" data-name="Trazado 2966" d="M575.407,765.184a1.342,1.342,0,0,1-1.059-.515,14.154,14.154,0,0,1-2.161-13.662,14.325,14.325,0,0,1,10.7-9.1,1.344,1.344,0,0,1,.507,2.641,11.623,11.623,0,0,0-8.681,7.382,11.48,11.48,0,0,0,1.754,11.083,1.343,1.343,0,0,1-1.058,2.173Z" transform="translate(-571.312 -741.882)" fill="#74a839"/>
          </g>
        </g>
      </g>
      <g id="Grupo_1634" data-name="Grupo 1634" transform="translate(601.478 691.6)">
        <g id="Grupo_1633" data-name="Grupo 1633">
          <path id="Trazado_2967" data-name="Trazado 2967" d="M655.137,719.073a28.121,28.121,0,1,1-28.132-28.117A28.163,28.163,0,0,1,655.137,719.073Zm-25.39,2.89c-.1-.247-.153-.4-.217-.557a6.384,6.384,0,0,1,4.118-8.543,8.4,8.4,0,0,1,8.965,3.079c2.415,3.361,2.169,6.975.554,10.517-1.416,3.1-4.169,4.626-7.394,5.266a5.422,5.422,0,0,0-2.961,1.523,9.608,9.608,0,0,1-6.855,3.115,22.733,22.733,0,0,1-10.848-2.593c-5.07-2.717-7.361-7.529-6.21-12.96a7.56,7.56,0,0,1,7.186-6.046,1.068,1.068,0,0,1,1.173.914,1.155,1.155,0,0,1-.855,1.237,2.964,2.964,0,0,0-1.17.776,6.114,6.114,0,0,0-1.3,3.376,2.979,2.979,0,0,0,.727,2.288c.656-.447,1.283-.837,1.862-1.289a1.208,1.208,0,0,0,.44-.727,7.842,7.842,0,0,1,4.7-6.709c.629-.3,1.267-.575,1.89-.884a3.934,3.934,0,0,0,2.28-3.141,11.465,11.465,0,0,0,.051-1.894,2.709,2.709,0,0,0-1.052-2.081c-.408-.332-.842-.635-1.281-.926a6.2,6.2,0,0,1-2.882-4.216,9.575,9.575,0,0,1,1.542-7.419c.1-.145.2-.295.356-.527-.309.047-.516.07-.718.111a25.956,25.956,0,1,0,31.033,27.838,25.159,25.159,0,0,0-7.965-21.221,25.558,25.558,0,0,0-16.305-7.118,4.989,4.989,0,0,0-4.476,1.953,7.094,7.094,0,0,0-1.453,4.42,4.67,4.67,0,0,0,2.571,4.695,6.685,6.685,0,0,1,1.158.873c2.654,2.346,2.206,8.338-1.331,10.261-.888.482-1.823.875-2.728,1.328a5.821,5.821,0,0,0-3.191,4.3l2.973-.183c.037-.11.074-.229.119-.344a2.072,2.072,0,0,1,3.358-1.065,14.576,14.576,0,0,1,2.02,1.89,8.457,8.457,0,0,1,.82,1.227ZM612.1,719.2l-.207-.092a13.581,13.581,0,0,0-.826,2.009,9.083,9.083,0,0,0,3.919,10.032,20.065,20.065,0,0,0,11.331,3.015,7.15,7.15,0,0,0,5.165-2.645,5.754,5.754,0,0,1,3.59-1.846c5.469-.924,7.589-4.918,6.976-9.7a6.159,6.159,0,0,0-7.289-5.157,4.206,4.206,0,0,0-3.42,5.227,4.3,4.3,0,0,0,1.678,2.457,1.066,1.066,0,0,1,.293,1.509.965.965,0,0,1-1.437.271c-.657-.674-1.219-.48-1.859-.073-.157.1-.362.119-.525.212a.782.782,0,0,0-.339.318,1.1,1.1,0,0,1-1.1.794c-.591-.022-.818-.445-1.073-.923a29.261,29.261,0,0,0-1.673-2.738,4.763,4.763,0,0,0-.985-.811,3.365,3.365,0,0,0,.292,2.756,1.085,1.085,0,0,1-.267,1.555,1.04,1.04,0,0,1-1.522-.4c-.355-.6-.6-1.273-.917-1.959a7.383,7.383,0,0,0-5.625,1.879c.55.291,1.034.53,1.5.8a1.046,1.046,0,0,1,.5,1.351,1.025,1.025,0,0,1-1.355.606c-2.366-1.034-4.291-2.53-5.033-5.152A5.784,5.784,0,0,1,612.1,719.2Z" transform="translate(-598.895 -690.956)" fill="#74a839"/>
        </g>
      </g>
    </g>
  </g>
</svg>
