<svg xmlns="http://www.w3.org/2000/svg" xmlns:xlink="http://www.w3.org/1999/xlink" width="227" height="216" viewBox="0 0 227 216">
  <defs>
    <filter id="Image" x="0" y="0" width="227" height="216" filterUnits="userSpaceOnUse">
      <feOffset dy="5" input="SourceAlpha"/>
      <feGaussianBlur stdDeviation="2.5" result="blur"/>
      <feFlood flood-opacity="0.161"/>
      <feComposite operator="in" in2="blur"/>
      <feComposite in="SourceGraphic"/>
    </filter>
  </defs>
  <g id="Grupo_455" data-name="Grupo 455" transform="translate(-498.072 -3328.518)">
    <g transform="matrix(1, 0, 0, 1, 498.07, 3328.52)" filter="url(#Image)">
      <g id="Image-2" data-name="Image" transform="translate(7.5 2.5)" fill="#fff" stroke="#a2e2ff" stroke-width="6">
        <rect width="212" height="201" rx="100.5" stroke="none"/>
        <rect x="3" y="3" width="206" height="195" rx="97.5" fill="none"/>
      </g>
    </g>
    <g id="Grupo_1356" data-name="Grupo 1356" transform="translate(-1174.902 2985.451)">
      <g id="Grupo_1363" data-name="Grupo 1363" transform="translate(1719.474 395.348)">
        <g id="Grupo_1362" data-name="Grupo 1362">
          <g id="Grupo_1361" data-name="Grupo 1361">
            <g id="Grupo_1356-2" data-name="Grupo 1356">
              <rect id="Rectángulo_1271" data-name="Rectángulo 1271" width="129.993" height="99.889" rx="9.19" transform="translate(1.664 1.666)" fill="#fff"/>
              <path id="Trazado_2722" data-name="Trazado 2722" d="M1840.932,498.567H1731.339a11.878,11.878,0,0,1-11.865-11.864v-79.49a11.879,11.879,0,0,1,11.865-11.866h109.593a11.879,11.879,0,0,1,11.865,11.866V486.7A11.878,11.878,0,0,1,1840.932,498.567Zm-109.593-99.889a8.545,8.545,0,0,0-8.535,8.536V486.7a8.544,8.544,0,0,0,8.535,8.534h109.593a8.544,8.544,0,0,0,8.535-8.534v-79.49a8.545,8.545,0,0,0-8.535-8.536Z" transform="translate(-1719.474 -395.348)" fill="#74a839"/>
            </g>
            <g id="Grupo_1357" data-name="Grupo 1357" transform="translate(15.342 27.214)">
              <path id="Trazado_2723" data-name="Trazado 2723" d="M1784.958,426.512a195.588,195.588,0,0,1-29.482-2.235l-21.707-3.306a.554.554,0,0,1-.465-.632.561.561,0,0,1,.631-.465l21.707,3.306a194.514,194.514,0,0,0,57.722.137l23.358-3.444a.562.562,0,0,1,.63.468.557.557,0,0,1-.468.63l-23.358,3.444A195.889,195.889,0,0,1,1784.958,426.512Z" transform="translate(-1733.297 -419.868)" fill="#74a839"/>
            </g>
            <g id="Grupo_1358" data-name="Grupo 1358" transform="translate(19.24 43.871)">
              <path id="Trazado_2724" data-name="Trazado 2724" d="M1784.6,441.1a180.953,180.953,0,0,1-27.258-2.065l-20.063-3.057a.555.555,0,0,1,.167-1.1l20.063,3.057a179.751,179.751,0,0,0,53.339.127l21.589-3.184a.568.568,0,0,1,.63.468.557.557,0,0,1-.467.632l-21.591,3.183A181.032,181.032,0,0,1,1784.6,441.1Z" transform="translate(-1736.809 -434.876)" fill="#74a839"/>
            </g>
            <g id="Grupo_1359" data-name="Grupo 1359" transform="translate(24.826 60.626)">
              <path id="Trazado_2725" data-name="Trazado 2725" d="M1784.091,455.6a159.766,159.766,0,0,1-24.07-1.825l-17.707-2.7a.553.553,0,0,1-.465-.632.559.559,0,0,1,.631-.465l17.707,2.7a158.552,158.552,0,0,0,47.058.111l19.054-2.809a.563.563,0,0,1,.63.468.557.557,0,0,1-.468.63l-19.054,2.81A159.957,159.957,0,0,1,1784.091,455.6Z" transform="translate(-1741.842 -449.972)" fill="#74a839"/>
            </g>
            <g id="Grupo_1360" data-name="Grupo 1360" transform="translate(30.787 83.482)">
              <path id="Trazado_2726" data-name="Trazado 2726" d="M1783.542,475.548a137,137,0,0,1-20.664-1.566l-15.193-2.314a.555.555,0,0,1,.167-1.1l15.194,2.314a136.067,136.067,0,0,0,40.352.1l16.351-2.411a.564.564,0,0,1,.63.468.556.556,0,0,1-.468.63l-16.35,2.411A137.3,137.3,0,0,1,1783.542,475.548Z" transform="translate(-1747.213 -470.565)" fill="#74a839"/>
            </g>
          </g>
        </g>
      </g>
      <g id="Grupo_1380" data-name="Grupo 1380" transform="translate(1751.493 414.582)">
        <g id="Grupo_1364" data-name="Grupo 1364" transform="translate(38.797 1.378)">
          <path id="Trazado_2727" data-name="Trazado 2727" d="M1783.279,445.837v-1.155a13.151,13.151,0,0,1,3.851-9.3,13.149,13.149,0,0,0,3.852-9.3V413.92h4.4v8.659a20.914,20.914,0,0,0,7.848,16.33l.812.65a20.91,20.91,0,0,1,7.848,16.327v4.64a15.408,15.408,0,0,1-8.517,13.781l-.287.143" transform="translate(-1783.279 -413.92)" fill="#fff"/>
        </g>
        <g id="Grupo_1365" data-name="Grupo 1365" transform="translate(34.394 27.793)">
          <ellipse id="Elipse_95" data-name="Elipse 95" cx="14.307" cy="19.81" rx="14.307" ry="19.81" fill="#fff"/>
        </g>
        <g id="Grupo_1366" data-name="Grupo 1366" transform="translate(34.394 27.793)">
          <path id="Trazado_2728" data-name="Trazado 2728" d="M1784.474,472.759c10.108-1.451,17.95-11.9,17.95-24.585a29.755,29.755,0,0,0-.857-7.115,11.663,11.663,0,0,0-7.948-3.34c-7.9,0-14.307,8.869-14.307,19.81A23.4,23.4,0,0,0,1784.474,472.759Z" transform="translate(-1779.312 -437.719)" fill="#fff"/>
        </g>
        <g id="Grupo_1367" data-name="Grupo 1367" transform="translate(5.779 1.378)">
          <path id="Trazado_2729" data-name="Trazado 2729" d="M1753.53,445.837v-1.155a13.153,13.153,0,0,1,3.852-9.3,13.154,13.154,0,0,0,3.852-9.3V413.92h4.4v8.659a20.914,20.914,0,0,0,7.848,16.33l.812.65a20.91,20.91,0,0,1,7.848,16.327v4.64a15.408,15.408,0,0,1-8.517,13.781l-.287.143" transform="translate(-1753.53 -413.92)" fill="#fff"/>
        </g>
        <g id="Grupo_1368" data-name="Grupo 1368" transform="translate(1.377 27.793)">
          <ellipse id="Elipse_96" data-name="Elipse 96" cx="14.307" cy="19.81" rx="14.307" ry="19.81" fill="#fff"/>
        </g>
        <g id="Grupo_1369" data-name="Grupo 1369" transform="translate(1.377 27.793)">
          <path id="Trazado_2730" data-name="Trazado 2730" d="M1754.726,472.759c10.108-1.451,17.95-11.9,17.95-24.585a29.749,29.749,0,0,0-.858-7.115,11.66,11.66,0,0,0-7.947-3.34c-7.9,0-14.307,8.869-14.307,19.81A23.4,23.4,0,0,0,1754.726,472.759Z" transform="translate(-1749.564 -437.719)" fill="#fff"/>
        </g>
        <g id="Grupo_1370" data-name="Grupo 1370" transform="translate(33.017 26.414)">
          <path id="Trazado_2731" data-name="Trazado 2731" d="M1793.728,478.55c-8.5,0-15.407-9.381-15.407-20.911s6.911-20.911,15.407-20.911,15.409,9.381,15.409,20.911S1802.226,478.55,1793.728,478.55Zm0-39.621c-7.282,0-13.207,8.393-13.207,18.709s5.925,18.709,13.207,18.709,13.208-8.393,13.208-18.709S1801.011,438.929,1793.728,438.929Z" transform="translate(-1778.043 -436.45)" fill="#74a839"/>
          <path id="Trazado_2732" data-name="Trazado 2732" d="M1793.756,478.854c-8.649,0-15.685-9.506-15.685-21.189s7.036-21.189,15.685-21.189,15.686,9.506,15.686,21.189S1802.405,478.854,1793.756,478.854Zm0-41.823c-8.343,0-15.13,9.256-15.13,20.634s6.787,20.634,15.13,20.634,15.131-9.256,15.131-20.634S1802.1,437.032,1793.756,437.032Zm0,39.621c-7.435,0-13.484-8.517-13.484-18.987s6.049-18.987,13.484-18.987,13.485,8.517,13.485,18.987S1801.192,476.653,1793.756,476.653Zm0-37.419c-7.129,0-12.929,8.269-12.929,18.432s5.8,18.432,12.929,18.432,12.93-8.269,12.93-18.432S1800.886,439.234,1793.756,439.234Z" transform="translate(-1778.071 -436.477)" fill="#74a839"/>
        </g>
        <g id="Grupo_1371" data-name="Grupo 1371" transform="translate(49.525)">
          <path id="Trazado_2733" data-name="Trazado 2733" d="M1802.491,475.546l-.985-1.969.286-.143a14.274,14.274,0,0,0,7.91-12.777v-4.65a19.835,19.835,0,0,0-7.435-15.481l-.821-.657a22.011,22.011,0,0,1-8.252-17.181v-8.659a1.1,1.1,0,0,1,1.1-1.1h0a1.1,1.1,0,0,1,1.1,1.1v8.649a19.83,19.83,0,0,0,7.436,15.48l.811.65a22.034,22.034,0,0,1,8.261,17.2v4.655a16.47,16.47,0,0,1-9.125,14.741Z" transform="translate(-1792.917 -412.65)" fill="#74a839"/>
          <path id="Trazado_2734" data-name="Trazado 2734" d="M1802.393,475.945l-1.232-2.464.536-.268a13.916,13.916,0,0,0,7.756-12.528v-4.65a19.455,19.455,0,0,0-7.332-15.263l-.82-.658a22.18,22.18,0,0,1-8.356-17.4v-8.659a1.378,1.378,0,1,1,2.756,0V422.7a19.458,19.458,0,0,0,7.332,15.264l.812.65a22.207,22.207,0,0,1,8.364,17.416v4.654a16.649,16.649,0,0,1-9.279,14.989Zm-.486-2.215.736,1.472.04-.019a16.1,16.1,0,0,0,8.971-14.493v-4.654a21.652,21.652,0,0,0-8.156-16.982l-.812-.65a20.016,20.016,0,0,1-7.539-15.7v-8.648a.823.823,0,1,0-1.646,0v8.659a21.623,21.623,0,0,0,8.148,16.963l.821.658a20.011,20.011,0,0,1,7.539,15.7v4.65a14.469,14.469,0,0,1-8.063,13.026Z" transform="translate(-1792.945 -412.678)" fill="#74a839"/>
        </g>
        <g id="Grupo_1372" data-name="Grupo 1372" transform="translate(37.419 4.403)">
          <path id="Trazado_2735" data-name="Trazado 2735" d="M1784.488,445.51h-2.2v-1.155a14.837,14.837,0,0,1,4.34-10.246,11.965,11.965,0,0,0,3.364-8.353V418a1.1,1.1,0,0,1,1.1-1.1h0a1.1,1.1,0,0,1,1.1,1.1v7.759a14.836,14.836,0,0,1-4.34,10.245,11.969,11.969,0,0,0-3.365,8.354Z" transform="translate(-1782.009 -416.617)" fill="#74a839"/>
          <path id="Trazado_2736" data-name="Trazado 2736" d="M1784.794,445.815h-2.757v-1.433a15.113,15.113,0,0,1,4.417-10.44,11.707,11.707,0,0,0,3.287-8.16v-7.76a1.377,1.377,0,0,1,2.755,0v7.76a15.11,15.11,0,0,1-4.416,10.438,11.711,11.711,0,0,0-3.286,8.161Zm-2.2-.555h1.647v-.878a12.266,12.266,0,0,1,3.442-8.547,14.551,14.551,0,0,0,4.261-10.052v-7.76a.822.822,0,0,0-1.645,0v7.76a12.263,12.263,0,0,1-3.444,8.546,14.559,14.559,0,0,0-4.261,10.053Z" transform="translate(-1782.037 -416.645)" fill="#74a839"/>
        </g>
        <g id="Grupo_1373" data-name="Grupo 1373" transform="translate(35.425 36.526)">
          <path id="Trazado_2737" data-name="Trazado 2737" d="M1785.775,466.531h0a1.1,1.1,0,0,1,0-1.557l.855-.853a4.431,4.431,0,0,0,1.274-2.3,4.215,4.215,0,0,0-1.161-3.772l-.317-.316a6.436,6.436,0,0,1-1.751-4.5,4.187,4.187,0,0,0-1.233-2.889l-2.847-2.846,1.557-1.557,2.974,2.975a6.432,6.432,0,0,1,1.751,4.5,4.185,4.185,0,0,0,1.233,2.889l.144.144a6.361,6.361,0,0,1,1.714,2.911,6.435,6.435,0,0,1-1.668,6.205l-.968.968A1.1,1.1,0,0,1,1785.775,466.531Z" transform="translate(-1780.202 -445.549)" fill="#74a839"/>
          <path id="Trazado_2738" data-name="Trazado 2738" d="M1786.592,467.169a1.376,1.376,0,0,1-.974-2.351l.855-.855a4.133,4.133,0,0,0,1.2-2.153,3.923,3.923,0,0,0-1.084-3.526l-.318-.316a6.655,6.655,0,0,1-1.832-4.689,3.919,3.919,0,0,0-1.152-2.7l-3.042-3.043,1.948-1.949,3.171,3.171a6.654,6.654,0,0,1,1.832,4.689,3.92,3.92,0,0,0,1.152,2.7l.143.143a6.653,6.653,0,0,1,1.788,3.039,6.724,6.724,0,0,1-1.742,6.469l-.967.969A1.373,1.373,0,0,1,1786.592,467.169Zm-5.566-19.632,2.649,2.65a4.47,4.47,0,0,1,1.315,3.08,6.188,6.188,0,0,0,1.67,4.307l.318.316a4.474,4.474,0,0,1,1.237,4.019,4.673,4.673,0,0,1-1.352,2.446l-.854.854a.823.823,0,0,0,1.164,1.164l.967-.968a6.178,6.178,0,0,0,1.6-5.941,6.1,6.1,0,0,0-1.641-2.782l-.143-.143a4.473,4.473,0,0,1-1.315-3.081,6.192,6.192,0,0,0-1.67-4.307l-2.778-2.778Z" transform="translate(-1780.241 -445.588)" fill="#74a839"/>
        </g>
        <g id="Grupo_1374" data-name="Grupo 1374" transform="translate(48.103 33.223)">
          <path id="Trazado_2739" data-name="Trazado 2739" d="M1792.235,464.656h0a1.1,1.1,0,0,1,0-1.556l1.235-1.236a3.3,3.3,0,0,0,.967-2.333v-1.856a5.5,5.5,0,0,1,1.6-3.883l.728-.73a3.319,3.319,0,0,0,.968-2.344v-.745a5.507,5.507,0,0,1,1.613-3.893l3.112-3.113,1.557,1.556-3.112,3.113a3.3,3.3,0,0,0-.968,2.336v.746a5.527,5.527,0,0,1-1.613,3.9l-.727.729a3.3,3.3,0,0,0-.962,2.329v1.856a5.5,5.5,0,0,1-1.612,3.889l-1.234,1.235A1.1,1.1,0,0,1,1792.235,464.656Z" transform="translate(-1791.635 -442.573)" fill="#74a839"/>
          <path id="Trazado_2740" data-name="Trazado 2740" d="M1793.041,465.294a1.376,1.376,0,0,1-.974-2.351l1.235-1.235a3.043,3.043,0,0,0,.885-2.138v-1.857a5.738,5.738,0,0,1,1.685-4.078l.729-.731a3.022,3.022,0,0,0,.887-2.147v-.746a5.745,5.745,0,0,1,1.695-4.09l3.307-3.31,1.949,1.949-3.307,3.309a3.049,3.049,0,0,0-.887,2.141v.746a5.759,5.759,0,0,1-1.695,4.1l-.727.729a3.007,3.007,0,0,0-.88,2.132v1.857a5.74,5.74,0,0,1-1.693,4.085l-1.234,1.235A1.376,1.376,0,0,1,1793.041,465.294Zm9.448-21.9-2.916,2.918a5.2,5.2,0,0,0-1.532,3.7v.746a3.567,3.567,0,0,1-1.05,2.539l-.728.73a5.187,5.187,0,0,0-1.523,3.686v1.857a3.6,3.6,0,0,1-1.048,2.529l-1.235,1.236a.823.823,0,0,0,1.164,1.164l1.234-1.236a5.181,5.181,0,0,0,1.531-3.693v-1.857a3.553,3.553,0,0,1,1.043-2.524l.727-.729a5.21,5.21,0,0,0,1.532-3.7v-.746a3.608,3.608,0,0,1,1.049-2.533l2.916-2.917Z" transform="translate(-1791.663 -442.612)" fill="#74a839"/>
        </g>
        <g id="Grupo_1375" data-name="Grupo 1375" transform="translate(0 26.414)">
          <path id="Trazado_2741" data-name="Trazado 2741" d="M1763.98,478.55c-8.5,0-15.408-9.381-15.408-20.911s6.912-20.911,15.408-20.911,15.407,9.381,15.407,20.911S1772.477,478.55,1763.98,478.55Zm0-39.621c-7.283,0-13.208,8.393-13.208,18.709s5.924,18.709,13.208,18.709,13.207-8.393,13.207-18.709S1771.262,438.929,1763.98,438.929Z" transform="translate(-1748.296 -436.45)" fill="#74a839"/>
          <path id="Trazado_2742" data-name="Trazado 2742" d="M1764.007,478.854c-8.648,0-15.684-9.506-15.684-21.189s7.036-21.189,15.684-21.189,15.686,9.506,15.686,21.189S1772.656,478.854,1764.007,478.854Zm0-41.823c-8.342,0-15.129,9.256-15.129,20.634s6.787,20.634,15.129,20.634,15.131-9.256,15.131-20.634S1772.351,437.032,1764.007,437.032Zm0,39.621c-7.435,0-13.484-8.517-13.484-18.987s6.049-18.987,13.484-18.987,13.485,8.517,13.485,18.987S1771.443,476.653,1764.007,476.653Zm0-37.419c-7.129,0-12.929,8.269-12.929,18.432s5.8,18.432,12.929,18.432,12.93-8.269,12.93-18.432S1771.137,439.234,1764.007,439.234Z" transform="translate(-1748.323 -436.477)" fill="#74a839"/>
        </g>
        <g id="Grupo_1376" data-name="Grupo 1376" transform="translate(16.508)">
          <path id="Trazado_2743" data-name="Trazado 2743" d="M1772.743,475.546l-.985-1.969.287-.143a14.274,14.274,0,0,0,7.91-12.777V456a19.811,19.811,0,0,0-7.427-15.463l-.829-.664a22.012,22.012,0,0,1-8.253-17.181v-8.659a1.1,1.1,0,0,1,1.1-1.1h0a1.1,1.1,0,0,1,1.1,1.1v8.659a19.809,19.809,0,0,0,7.427,15.463l.82.657a22.034,22.034,0,0,1,8.261,17.2v4.655a16.471,16.471,0,0,1-9.126,14.741Z" transform="translate(-1763.17 -412.65)" fill="#74a839"/>
          <path id="Trazado_2744" data-name="Trazado 2744" d="M1772.645,475.945l-1.233-2.464.536-.268a13.914,13.914,0,0,0,7.757-12.528v-4.662a19.438,19.438,0,0,0-7.323-15.245l-.829-.665a22.18,22.18,0,0,1-8.356-17.4v-8.659a1.378,1.378,0,1,1,2.756,0v8.659a19.439,19.439,0,0,0,7.323,15.248l.82.656a22.2,22.2,0,0,1,8.365,17.416v4.654a16.65,16.65,0,0,1-9.28,14.989Zm-.487-2.215.737,1.472.039-.019a16.1,16.1,0,0,0,8.972-14.493v-4.654a21.65,21.65,0,0,0-8.158-16.982l-.82-.657a19.993,19.993,0,0,1-7.531-15.68v-8.659a.823.823,0,1,0-1.646,0v8.659a21.623,21.623,0,0,0,8.148,16.963l.829.665a19.99,19.99,0,0,1,7.532,15.679v4.662a14.471,14.471,0,0,1-8.064,13.026Z" transform="translate(-1763.197 -412.678)" fill="#74a839"/>
        </g>
        <g id="Grupo_1377" data-name="Grupo 1377" transform="translate(4.401 4.403)">
          <path id="Trazado_2745" data-name="Trazado 2745" d="M1754.74,445.51h-2.2v-1.155a14.832,14.832,0,0,1,4.34-10.246,11.969,11.969,0,0,0,3.364-8.353V418a1.1,1.1,0,0,1,1.1-1.1h0a1.1,1.1,0,0,1,1.1,1.1v7.759A14.831,14.831,0,0,1,1758.1,436a11.973,11.973,0,0,0-3.364,8.354Z" transform="translate(-1752.26 -416.617)" fill="#74a839"/>
          <path id="Trazado_2746" data-name="Trazado 2746" d="M1755.045,445.815h-2.757v-1.433a15.106,15.106,0,0,1,4.419-10.44,11.711,11.711,0,0,0,3.286-8.16v-7.76a1.378,1.378,0,0,1,2.756,0v7.76a15.109,15.109,0,0,1-4.417,10.438,11.715,11.715,0,0,0-3.286,8.161Zm-2.2-.555h1.647v-.878a12.265,12.265,0,0,1,3.442-8.546,14.561,14.561,0,0,0,4.262-10.053v-7.76a.823.823,0,0,0-1.646,0v7.76a12.266,12.266,0,0,1-3.443,8.546,14.561,14.561,0,0,0-4.262,10.053Z" transform="translate(-1752.288 -416.645)" fill="#74a839"/>
        </g>
        <g id="Grupo_1378" data-name="Grupo 1378" transform="translate(2.408 36.526)">
          <path id="Trazado_2747" data-name="Trazado 2747" d="M1756.027,466.531h0a1.1,1.1,0,0,1,0-1.557l.854-.853a4.432,4.432,0,0,0,1.275-2.3,4.213,4.213,0,0,0-1.162-3.772l-.316-.316a6.437,6.437,0,0,1-1.753-4.5,4.182,4.182,0,0,0-1.233-2.889l-2.846-2.846,1.556-1.557,2.973,2.975a6.427,6.427,0,0,1,1.752,4.5,4.18,4.18,0,0,0,1.233,2.889l.143.144a6.365,6.365,0,0,1,1.715,2.911,6.436,6.436,0,0,1-1.669,6.205l-.967.968A1.1,1.1,0,0,1,1756.027,466.531Z" transform="translate(-1750.454 -445.549)" fill="#74a839"/>
          <path id="Trazado_2748" data-name="Trazado 2748" d="M1756.843,467.17a1.377,1.377,0,0,1-.973-2.352l.855-.855a4.142,4.142,0,0,0,1.2-2.153,3.92,3.92,0,0,0-1.085-3.526l-.316-.316a6.653,6.653,0,0,1-1.833-4.689,3.924,3.924,0,0,0-1.151-2.7l-3.042-3.043,1.948-1.949,3.17,3.171a6.652,6.652,0,0,1,1.833,4.689,3.927,3.927,0,0,0,1.151,2.7l.143.142a6.66,6.66,0,0,1,.047,9.509l-.968.969A1.372,1.372,0,0,1,1756.843,467.17Zm-5.565-19.633,2.649,2.65a4.475,4.475,0,0,1,1.314,3.08,6.186,6.186,0,0,0,1.671,4.307l.316.316a4.474,4.474,0,0,1,1.239,4.019,4.685,4.685,0,0,1-1.352,2.446l-.853.854a.823.823,0,0,0,1.163,1.164l.968-.968a6.185,6.185,0,0,0,1.6-5.942,6.1,6.1,0,0,0-1.641-2.781l-.143-.142a4.478,4.478,0,0,1-1.315-3.082,6.19,6.19,0,0,0-1.671-4.307l-2.777-2.778Z" transform="translate(-1750.493 -445.588)" fill="#74a839"/>
        </g>
        <g id="Grupo_1379" data-name="Grupo 1379" transform="translate(15.085 33.223)">
          <path id="Trazado_2749" data-name="Trazado 2749" d="M1762.487,464.656h0a1.1,1.1,0,0,1,0-1.556l1.235-1.236a3.3,3.3,0,0,0,.966-2.333v-1.846a5.522,5.522,0,0,1,1.613-3.9l.726-.728a3.3,3.3,0,0,0,.963-2.331v-.756a5.5,5.5,0,0,1,1.61-3.888l3.114-3.115,1.556,1.556-3.112,3.113a3.306,3.306,0,0,0-.968,2.336v.756a5.5,5.5,0,0,1-1.6,3.883l-.728.73a3.321,3.321,0,0,0-.969,2.344v1.847a5.5,5.5,0,0,1-1.61,3.889l-1.235,1.235A1.1,1.1,0,0,1,1762.487,464.656Z" transform="translate(-1761.888 -442.573)" fill="#74a839"/>
          <path id="Trazado_2750" data-name="Trazado 2750" d="M1763.292,465.294a1.373,1.373,0,0,1-.974-.4h0a1.38,1.38,0,0,1,0-1.949l1.235-1.235a3.041,3.041,0,0,0,.885-2.138v-1.846a5.762,5.762,0,0,1,1.694-4.1l.726-.73a3,3,0,0,0,.882-2.132v-.757a5.818,5.818,0,0,1,1.692-4.084l3.311-3.312,1.948,1.949-3.307,3.309a3.048,3.048,0,0,0-.887,2.141v.757a5.741,5.741,0,0,1-1.686,4.079l-.728.731a3.015,3.015,0,0,0-.888,2.145v1.848a5.818,5.818,0,0,1-1.691,4.085l-1.235,1.235A1.375,1.375,0,0,1,1763.292,465.294Zm-.583-.794a.823.823,0,0,0,1.164,0l1.235-1.236a5.259,5.259,0,0,0,1.529-3.693v-1.848a3.567,3.567,0,0,1,1.051-2.538l.728-.73a5.193,5.193,0,0,0,1.523-3.687v-.757a3.608,3.608,0,0,1,1.049-2.533l2.916-2.917-1.163-1.164-2.919,2.92a5.258,5.258,0,0,0-1.528,3.691v.757a3.55,3.55,0,0,1-1.044,2.525l-.726.729a5.21,5.21,0,0,0-1.532,3.7v1.846a3.6,3.6,0,0,1-1.048,2.529l-1.235,1.236A.827.827,0,0,0,1762.71,464.5Z" transform="translate(-1761.915 -442.612)" fill="#74a839"/>
        </g>
      </g>
    </g>
  </g>
</svg>
