<svg xmlns="http://www.w3.org/2000/svg" xmlns:xlink="http://www.w3.org/1999/xlink" width="227" height="216" viewBox="0 0 227 216">
  <defs>
    <filter id="Image" x="0" y="0" width="227" height="216" filterUnits="userSpaceOnUse">
      <feOffset dy="5" input="SourceAlpha"/>
      <feGaussianBlur stdDeviation="2.5" result="blur"/>
      <feFlood flood-opacity="0.161"/>
      <feComposite operator="in" in2="blur"/>
      <feComposite in="SourceGraphic"/>
    </filter>
  </defs>
  <g id="Grupo_455" data-name="Grupo 455" transform="translate(-498.072 -3328.518)">
    <g transform="matrix(1, 0, 0, 1, 498.07, 3328.52)" filter="url(#Image)">
      <g id="Image-2" data-name="Image" transform="translate(7.5 2.5)" fill="#fff" stroke="#a2e2ff" stroke-width="6">
        <rect width="212" height="201" rx="100.5" stroke="none"/>
        <rect x="3" y="3" width="206" height="195" rx="97.5" fill="none"/>
      </g>
    </g>
    <g id="Grupo_1300" data-name="Grupo 1300" transform="translate(-19.119 2976.107)">
      <g id="Grupo_1295" data-name="Grupo 1295" transform="translate(572.691 453.407)">
        <path id="Trazado_2679" data-name="Trazado 2679" d="M572.691,464.482a16.441,16.441,0,0,1,.94-1.913,5.56,5.56,0,0,1,4.771-2.675c1.677-.029,3.353-.012,5.029-.012,3.427,0,4.842.832,6.592,3.976,5.22-.689,9.625,1.444,13.76,4.93.073-.721.127-1.009.127-1.3.006-3.01.031-6.02-.027-9.028a1.677,1.677,0,0,0-.7-1.2,5.9,5.9,0,0,1-3.162-5.212c-.051-1.941-.065-3.886,0-5.827a5.717,5.717,0,0,1,5.893-5.849c6.895-.069,13.791-.031,20.686-.017,1.44,0,2.326.809,2.3,1.98s-.9,1.917-2.366,1.92q-9.829.022-19.659.008c-2.478,0-2.958.475-2.96,2.919,0,1.562-.027,3.124.013,4.685a1.907,1.907,0,0,0,2.129,2.12c1.176.023,2.352.005,3.69.005,0-1.194-.009-2.32,0-3.448.016-1.48.71-2.327,1.909-2.353,1.258-.027,1.972.819,1.985,2.37.008,1.1,0,2.193,0,3.36h3.9a26.962,26.962,0,0,1,.04-3.461,3.187,3.187,0,0,1,.92-1.935,1.823,1.823,0,0,1,2.906,1.449c.079,1.282.016,2.574.016,3.94h3.938c0-1.3-.038-2.548.013-3.793a1.824,1.824,0,0,1,1.523-1.881,1.759,1.759,0,0,1,2.1.974,3.685,3.685,0,0,1,.246,1.44c.035,1.06.01,2.121.01,3.261h3.919c0-1.178-.017-2.314,0-3.448.029-1.472.756-2.292,1.974-2.272,1.176.018,1.885.816,1.922,2.227.03,1.138.006,2.276.006,3.492h5.679c.012-.01.088-.051.113-.111q.929-2.23,2.67-1.623c1.125.4,1.543,1.653,1.027,3.093a4.024,4.024,0,0,1-3.592,2.679v15.658c.359-.125.7-.239,1.033-.363,3.495-1.293,6.979-2.616,10.487-3.873a5.991,5.991,0,0,1,6.713,1.846,5.847,5.847,0,0,1,.563,6.726,7.147,7.147,0,0,1-2.2,2.25q-13.856,8.528-27.781,16.945a13.043,13.043,0,0,1-6.993,1.747q-17.428-.029-34.858.021a5.186,5.186,0,0,0-1.937.658c-.856.385-1.679.843-2.517,1.271h-8a6.555,6.555,0,0,1-4.8-4.8Zm17.623,30.436c.42.019.721.047,1.021.047q16.915,0,33.828.009a9.471,9.471,0,0,0,5.083-1.442q10.422-6.374,20.87-12.709c2.177-1.325,4.369-2.63,6.524-3.993a2,2,0,0,0,.83-2.674,2.089,2.089,0,0,0-2.682-1.089c-.219.068-.43.154-.645.233-7.593,2.817-15.21,5.576-22.77,8.482a20.254,20.254,0,0,1-8.439,1.507c-2.7-.137-5.407-.03-8.112-.03-.762,0-1.524.026-2.285,0a12.562,12.562,0,0,0-8.006,2.532,1.9,1.9,0,0,1-2.821-.388,1.963,1.963,0,0,1,.606-2.793,14.232,14.232,0,0,1,7.513-3.062c3.152-.182,6.316-.164,9.474-.163.854,0,1.13-.269,1.133-1.1a5.033,5.033,0,0,0-4.9-4.646c-1.828-.061-3.661-.1-5.485-.007a17.935,17.935,0,0,1-12.66-3.924,10.551,10.551,0,0,0-8.072-1.945Zm35-15.443a15.731,15.731,0,0,0,2.985-.421c3.267-1.133,6.483-2.414,9.744-3.561a1.279,1.279,0,0,0,.988-1.474c-.032-4.987-.016-9.974-.019-14.962,0-.363-.04-.727-.062-1.087H607.89c-.025.369-.062.669-.064.968-.005,3.2.034,6.4-.027,9.593-.018,1,.359,1.217,1.262,1.2,2.283-.048,4.572.07,6.852-.033A9.1,9.1,0,0,1,625.313,479.475Zm-48.726.795q0,7.147,0,14.291c0,1.658.715,2.365,2.371,2.378,1.716.013,3.43.018,5.144,0a1.983,1.983,0,0,0,2.249-2.159q.033-14.4,0-28.808a1.953,1.953,0,0,0-2.206-2.184c-1.677-.021-3.353-.01-5.03-.005-1.889.007-2.531.648-2.532,2.544Q576.58,473.3,576.587,480.269Z" transform="translate(-572.691 -440.332)" fill="#74a839"/>
      </g>
      <g id="Grupo_1296" data-name="Grupo 1296" transform="translate(623.433 396.849)">
        <path id="Trazado_2680" data-name="Trazado 2680" d="M644.77,463.168a33.16,33.16,0,1,1,33.252-33.039A33.133,33.133,0,0,1,644.77,463.168ZM615.6,429.933a29.263,29.263,0,1,0,29.273-29.19A29.252,29.252,0,0,0,615.6,429.933Z" transform="translate(-611.703 -396.849)" fill="#74a839"/>
      </g>
      <g id="Grupo_1297" data-name="Grupo 1297" transform="translate(639.03 423.671)">
        <path id="Trazado_2681" data-name="Trazado 2681" d="M634.408,429.428l-.38-.849c-.058-.157-.133-.3-.2-.455l-4.772-10.654-4.774,10.654c-.072.151-.144.3-.2.455l-.38.849h.13a5.958,5.958,0,0,0-.13,1.21,5.364,5.364,0,1,0,10.714,0,5.865,5.865,0,0,0-.13-1.21Z" transform="translate(-623.694 -417.47)" fill="#74a839"/>
      </g>
      <g id="Grupo_1298" data-name="Grupo 1298" transform="translate(651.862 409.851)">
        <path id="Trazado_2682" data-name="Trazado 2682" d="M644.274,418.8l-.38-.848c-.059-.157-.133-.3-.2-.455l-4.772-10.655L634.144,417.5c-.072.151-.144.3-.2.455l-.38.848h.13a5.967,5.967,0,0,0-.13,1.21,5.364,5.364,0,1,0,10.714,0,5.873,5.873,0,0,0-.13-1.21Z" transform="translate(-633.56 -406.845)" fill="#74a839"/>
      </g>
      <g id="Grupo_1299" data-name="Grupo 1299" transform="translate(660.695 428.661)">
        <path id="Trazado_2683" data-name="Trazado 2683" d="M651.066,433.265l-.381-.848c-.059-.157-.133-.3-.2-.455l-4.772-10.655-4.773,10.655c-.072.151-.144.3-.2.455l-.381.848h.13a5.963,5.963,0,0,0-.13,1.21,5.365,5.365,0,1,0,10.715,0,5.959,5.959,0,0,0-.13-1.21Z" transform="translate(-640.351 -421.307)" fill="#74a839"/>
      </g>
    </g>
  </g>
</svg>
