<svg xmlns="http://www.w3.org/2000/svg" xmlns:xlink="http://www.w3.org/1999/xlink" width="227" height="216" viewBox="0 0 227 216">
  <defs>
    <filter id="Image" x="0" y="0" width="227" height="216" filterUnits="userSpaceOnUse">
      <feOffset dy="5" input="SourceAlpha"/>
      <feGaussianBlur stdDeviation="2.5" result="blur"/>
      <feFlood flood-opacity="0.161"/>
      <feComposite operator="in" in2="blur"/>
      <feComposite in="SourceGraphic"/>
    </filter>
  </defs>
  <g id="Grupo_6346" data-name="Grupo 6346" transform="translate(-498.072 -3328.518)">
    <g transform="matrix(1, 0, 0, 1, 498.07, 3328.52)" filter="url(#Image)">
      <g id="Image-2" data-name="Image" transform="translate(7.5 2.5)" fill="#fff" stroke="#a2e2ff" stroke-width="6">
        <rect width="212" height="201" rx="100.5" stroke="none"/>
        <rect x="3" y="3" width="206" height="195" rx="97.5" fill="none"/>
      </g>
    </g>
    <g id="Grupo_554" data-name="Grupo 554" transform="translate(1424.01 2618.228)">
      <path id="Trazado_1323" data-name="Trazado 1323" d="M-759.367,785.54a16.106,16.106,0,0,1-.9,2.988,43.183,43.183,0,0,1-2.817,4.538,1.344,1.344,0,0,0-.287,1.38,7.314,7.314,0,0,1-2.056,7.806,1.746,1.746,0,0,1-2.547.111,1.739,1.739,0,0,1-.054-2.548c2.52-2.553,1.453-5.274-.833-6.906a13.88,13.88,0,0,0-9.92-2.389,24.9,24.9,0,0,0-5.368,1.408,7.777,7.777,0,0,0-2.537,1.653,4.027,4.027,0,0,0-.2,6.073c.118.13.254.245.37.376a1.777,1.777,0,0,1,.036,2.551,1.763,1.763,0,0,1-2.478.048,7.482,7.482,0,0,1-2.578-7.578,8.573,8.573,0,0,1,3.742-5.276c-.9-2.281-3.328-3.912-5.365-3.625a3.138,3.138,0,0,0-2.891,2.648c-.373,2.677-.676,5.369-.832,8.067-.294,5.09-.324,10.2-.735,15.276-.267,3.309-1.019,6.578-1.535,9.866a10.612,10.612,0,0,0,.01,1.122,12.858,12.858,0,0,1-.243,3.6c-1.261,3.536-2.721,7-4.139,10.48a5.42,5.42,0,0,1-5.4,3.631q-4.484.012-8.969,0a5.382,5.382,0,0,1-5.338-3.561c-1.445-3.505-2.89-7.014-4.2-10.572a6.824,6.824,0,0,1-.256-3.188,7.668,7.668,0,0,0-.089-2.345c-.538-3.429-1.168-6.862-1.416-10.317-.429-5.962-.578-11.941-.894-17.91-.073-1.362-.337-2.716-.535-4.071-.367-2.512-3.469-3.393-5.307-2.326a8.157,8.157,0,0,0-3.083,3.174l.816.675a7.8,7.8,0,0,1,.383,12.233,15.17,15.17,0,0,1-8.13,3.693,19.254,19.254,0,0,1-12.49-1.853c-2.664-1.426-4.79-3.425-5.25-6.585a18.923,18.923,0,0,1,.243-3.526,1.793,1.793,0,0,0-.23-1.165c-5.187-5.885-5.023-13.035.527-18.6,3.942-3.953,8.873-6,14.268-6.957a48.081,48.081,0,0,1,7.022-.632,25.4,25.4,0,0,0,11.629-2.967,32.838,32.838,0,0,1,12.855-4.093,1.431,1.431,0,0,0,.381-.152h7.176a3.236,3.236,0,0,0,.589.176,29.954,29.954,0,0,1,11.691,3.594,27.6,27.6,0,0,0,13.614,3.458,31.893,31.893,0,0,1,12.9,2.689c4.034,1.773,7.6,4.185,9.821,8.1a32.874,32.874,0,0,1,1.829,4.776Zm-32.278-15.668a27.114,27.114,0,0,1,1.116,2.778,15.218,15.218,0,0,1,.521,3,1.768,1.768,0,0,1-1.681,2.115c-1.115.052-1.823-.643-1.886-1.919a8.316,8.316,0,0,0-2.2-5.462,16.629,16.629,0,0,0-3.914-3.317c-9.165-4.968-18.428-4.982-27.55.075-3.464,1.921-5.862,4.8-6.017,9.059a1.651,1.651,0,0,1-1.688,1.564,1.725,1.725,0,0,1-1.839-1.526,4.415,4.415,0,0,1,.075-1.57c.427-1.634.922-3.25,1.322-4.633-2.572.181-5.327.4-8.084.564-5.236.306-10.226,1.421-14.659,4.387a13.012,13.012,0,0,0-4.957,5.614c-1.477,3.4-.511,7.884,2.18,10.042,5.7-4.42,12.015-4.707,18.683-2.613a12.826,12.826,0,0,1,4.168-4.422c4.164-2.662,10.1-.394,10.936,4.5a38.016,38.016,0,0,1,.608,4.38c.325,6.073.513,12.155.887,18.225.181,2.934.664,5.847.981,8.53,1.454,0,2.705-.029,3.953.008a1.716,1.716,0,0,1,1.849,1.739,1.771,1.771,0,0,1-1.778,1.835c-.489.043-.984.01-1.477.017-1.862.032-2.581,1.1-1.886,2.864,1.33,3.363,2.693,6.713,4.017,10.078a2.085,2.085,0,0,0,2.177,1.462q4.38-.036,8.757,0a2.122,2.122,0,0,0,2.224-1.55c.759-2,1.586-3.979,2.383-5.966.576-1.434,1.184-2.856,1.713-4.307a1.776,1.776,0,0,0-1.685-2.573c-.6-.03-1.2.021-1.792-.029a1.766,1.766,0,0,1-1.78-1.832,1.691,1.691,0,0,1,1.846-1.734c1.281,0,2.563.108,3.9.173.051-.23.135-.533.184-.841a119.926,119.926,0,0,0,1.349-15.641c.116-4.458.472-8.915.819-13.363a7.636,7.636,0,0,1,1.7-4.569,7.264,7.264,0,0,1,9.642-1.264,44.628,44.628,0,0,1,4.382,4.142c6.317-1.97,12.626-1.646,18.367,2.831,2.094-2.424,3.2-5.049,2.64-8.2a10.528,10.528,0,0,0-3.539-5.965,20.215,20.215,0,0,0-10.591-5.1C-782.032,770.7-786.866,770.378-791.645,769.872Zm-57.747,20.514a15.351,15.351,0,0,0-7.865,2.054c-3.942,2.445-3.945,6.087-.016,8.54a13.818,13.818,0,0,0,6.586,1.98,14.352,14.352,0,0,0,10.047-2.653,4.406,4.406,0,0,0,1.986-3.963,4.707,4.707,0,0,0-2.369-3.553A15.8,15.8,0,0,0-849.392,790.385Z" transform="translate(0 0)" fill="#74a839" stroke="#74a839" stroke-width="1"/>
      <path id="Trazado_1324" data-name="Trazado 1324" d="M-781.183,841.779c-5.9-1.505-8.989-5.463-9-11.395-.008-5.487.014-10.974-.011-16.461a4.266,4.266,0,0,1,1.5-3.752,1.179,1.179,0,0,0,.3-.821c.033-1.089.011-2.18.014-3.271a5.264,5.264,0,0,1,2.971-4.963,1.07,1.07,0,0,0,.632-1.148c-.014-3.869.019-7.738-.019-11.607a3.9,3.9,0,0,1,2.439-3.934c1.053-.484,2.066-1.053,3.116-1.54A3.555,3.555,0,0,1-774,786.18c.035,4.537.021,9.075,0,13.612a1.317,1.317,0,0,0,.781,1.392,5.113,5.113,0,0,1,2.824,4.618c.016.632.019,1.267,0,1.9-.025,1.218-.081,2.345,1.043,3.307a3.378,3.378,0,0,1,.757,2.313q.09,8.864.022,17.728a10.732,10.732,0,0,1-8.173,10.5c-.7.186-.848.467-.868,1.129a21.678,21.678,0,0,1-.354,4.5,9.762,9.762,0,0,1-9.856,7.343q-21.262.012-42.523-.014a11.91,11.91,0,0,1-3.015-.387,9.578,9.578,0,0,1-7.179-8.883c-.135-3.758-.062-7.525-.067-11.288-.008-5.909.013-11.818-.008-17.728-.011-3.374-1.851-5.817-4.858-6.549a6.264,6.264,0,0,0-7.716,5.849c-.048,1.543-.008,3.09-.008,4.795,1.084,0,2.126,0,3.166,0,2.564.011,4,1.429,4.017,3.963.01,1.618,0,3.236,0,4.853a4.062,4.062,0,0,1-1.175,2.844,2.354,2.354,0,0,0-.619,1.41c-.046,4.607.01,9.216-.041,13.822a7.137,7.137,0,0,1-6.935,7.31,7.2,7.2,0,0,1-7.446-7.244c-.041-4.642.008-9.286-.04-13.928a4.162,4.162,0,0,0-.6-1.421,8.916,8.916,0,0,1-1.084-2.527,46.858,46.858,0,0,1-.041-5.589,3.481,3.481,0,0,1,3.606-3.486c1.151-.022,2.3,0,3.6,0,0-1.715-.04-3.323.006-4.928a9.818,9.818,0,0,1,7.508-9.2c6.481-1.548,12.252,3.2,12.271,10.136.024,9.18,0,18.359.014,27.539a9.674,9.674,0,0,0,.2,2.3,6.2,6.2,0,0,0,6.189,4.758c5.593.022,11.185.006,16.778.006q12.872,0,25.747,0c4.314,0,6.878-2.572,6.886-6.891C-781.182,843.3-781.183,842.562-781.183,841.779Zm-5.3-28.624c0,6.4-.113,12.7.056,18.982.067,2.518,1.692,4.355,3.963,5.455a7.193,7.193,0,0,0,10.3-6.632c.049-5.7.013-11.393.008-17.089a5.275,5.275,0,0,0-.094-.716Zm-72.136,19.818c0,4.953-.035,9.766.04,14.578a3.919,3.919,0,0,0,.867,2.086,3.4,3.4,0,0,0,3.9,1.064,3.5,3.5,0,0,0,2.367-3.4c.026-4.571.013-9.142.008-13.713a4.314,4.314,0,0,0-.092-.618Zm-1.716-9.023v5.284h10.655v-5.284Zm86.342-14.5c0-1.284.032-2.44-.008-3.593a1.685,1.685,0,0,0-1.719-1.757c-2.42-.046-4.841-.035-7.26-.006a1.6,1.6,0,0,0-1.713,1.413c-.129,1.3-.033,2.621-.033,3.944Zm-3.64-23.332c-1.026.508-1.886.983-2.786,1.364a1.167,1.167,0,0,0-.778,1.286c.033,3.588.014,7.176.019,10.764,0,.3.04.6.06.894h3.485Z" transform="translate(1.991 13.339)" fill="#74a839" stroke="#74a839" stroke-width="1"/>
      <path id="Trazado_1325" data-name="Trazado 1325" d="M-830.925,794.717c0,1.126.029,2.251-.008,3.377a1.8,1.8,0,0,1-1.753,1.975,1.788,1.788,0,0,1-1.837-1.992q-.05-3.429,0-6.86a1.76,1.76,0,0,1,1.8-1.918,1.78,1.78,0,0,1,1.786,1.935C-830.895,792.394-830.927,793.556-830.925,794.717Z" transform="translate(19.328 17.34)" fill="#74a839"/>
    </g>
  </g>
</svg>
