<svg xmlns="http://www.w3.org/2000/svg" xmlns:xlink="http://www.w3.org/1999/xlink" width="227" height="216" viewBox="0 0 227 216">
  <defs>
    <filter id="Image" x="0" y="0" width="227" height="216" filterUnits="userSpaceOnUse">
      <feOffset dy="5" input="SourceAlpha"/>
      <feGaussianBlur stdDeviation="2.5" result="blur"/>
      <feFlood flood-opacity="0.161"/>
      <feComposite operator="in" in2="blur"/>
      <feComposite in="SourceGraphic"/>
    </filter>
  </defs>
  <g id="Grupo_455" data-name="Grupo 455" transform="translate(-498.072 -3328.518)">
    <g transform="matrix(1, 0, 0, 1, 498.07, 3328.52)" filter="url(#Image)">
      <g id="Image-2" data-name="Image" transform="translate(7.5 2.5)" fill="#fff" stroke="#a2e2ff" stroke-width="6">
        <rect width="212" height="201" rx="100.5" stroke="none"/>
        <rect x="3" y="3" width="206" height="195" rx="97.5" fill="none"/>
      </g>
    </g>
    <g id="Grupo_1424" data-name="Grupo 1424" transform="translate(-474.062 2407.391)">
      <g id="Grupo_1424-2" data-name="Grupo 1424" transform="translate(1040.433 978.473)">
        <path id="Trazado_2785" data-name="Trazado 2785" d="M1132.439,1024.575a45.9,45.9,0,1,1-45.9-45.905A45.905,45.905,0,0,1,1132.439,1024.575Z" transform="translate(-1040.212 -978.252)" fill="#fff"/>
        <path id="Trazado_2786" data-name="Trazado 2786" d="M1086.577,1070.941a46.323,46.323,0,1,1,46.324-46.323A46.376,46.376,0,0,1,1086.577,1070.941Zm0-91.81a45.487,45.487,0,1,0,45.488,45.487A45.538,45.538,0,0,0,1086.577,979.131Z" transform="translate(-1040.255 -978.295)" fill="#74a839"/>
      </g>
      <g id="Grupo_1425" data-name="Grupo 1425" transform="translate(1049.36 987.399)">
        <path id="Trazado_2787" data-name="Trazado 2787" d="M1122.589,1023.651a36.978,36.978,0,1,1-36.978-36.977A36.977,36.977,0,0,1,1122.589,1023.651Z" transform="translate(-1048.215 -986.255)" fill="#fff"/>
        <path id="Trazado_2788" data-name="Trazado 2788" d="M1085.654,1061.09a37.4,37.4,0,1,1,37.4-37.4A37.438,37.438,0,0,1,1085.654,1061.09Zm0-73.956a36.56,36.56,0,1,0,36.56,36.56A36.6,36.6,0,0,0,1085.654,987.135Z" transform="translate(-1048.258 -986.298)" fill="#74a839"/>
      </g>
      <g id="Grupo_1426" data-name="Grupo 1426" transform="translate(1077.97 1067.139)">
        <path id="Trazado_2789" data-name="Trazado 2789" d="M1091.018,1062.3c0-2.287-3.746-4.139-8.366-4.139s-8.367,1.853-8.367,4.139,3.745,4.138,8.367,4.138S1091.018,1064.588,1091.018,1062.3Z" transform="translate(-1073.866 -1057.745)" fill="#f5f5f5"/>
        <path id="Trazado_2790" data-name="Trazado 2790" d="M1082.694,1066.9c-4.926,0-8.785-2-8.785-4.556s3.859-4.558,8.785-4.558,8.785,2,8.785,4.558S1087.619,1066.9,1082.694,1066.9Zm0-8.277c-4.308,0-7.948,1.7-7.948,3.721s3.641,3.72,7.948,3.72,7.948-1.7,7.948-3.72S1087,1058.625,1082.694,1058.625Z" transform="translate(-1073.909 -1057.788)" fill="#74a839"/>
      </g>
      <g id="Grupo_1427" data-name="Grupo 1427" transform="translate(1080.068 997.117)">
        <path id="Trazado_2791" data-name="Trazado 2791" d="M1095.549,1004.89a9.88,9.88,0,1,1-9.88-9.88A9.879,9.879,0,0,1,1095.549,1004.89Z" transform="translate(-1075.79 -995.01)" fill="#f5f5f5"/>
      </g>
      <g id="Grupo_1428" data-name="Grupo 1428" transform="translate(1047.638 985.678)">
        <path id="Trazado_2792" data-name="Trazado 2792" d="M1085.79,1062.529a38.7,38.7,0,1,0-38.7-38.7A38.743,38.743,0,0,0,1085.79,1062.529Zm0-73.956a35.256,35.256,0,1,1-35.256,35.256A35.3,35.3,0,0,1,1085.79,988.573Z" transform="translate(-1046.672 -984.712)" fill="#74a839"/>
        <path id="Trazado_2793" data-name="Trazado 2793" d="M1085.832,1062.991a39.118,39.118,0,1,1,39.119-39.118A39.162,39.162,0,0,1,1085.832,1062.991Zm0-77.4a38.281,38.281,0,1,0,38.282,38.281A38.325,38.325,0,0,0,1085.832,985.592Zm0,73.956a35.675,35.675,0,1,1,35.676-35.675A35.715,35.715,0,0,1,1085.832,1059.547Zm0-70.513a34.838,34.838,0,1,0,34.839,34.838A34.878,34.878,0,0,0,1085.832,989.035Z" transform="translate(-1046.715 -984.755)" fill="#74a839"/>
      </g>
      <g id="Grupo_1429" data-name="Grupo 1429" transform="translate(1038.712 976.753)">
        <path id="Trazado_2794" data-name="Trazado 2794" d="M1076.625,1071.653c0,3.341,4.337,5.859,10.088,5.859s10.088-2.518,10.088-5.859c0-.116-.007-.231-.018-.345a47.625,47.625,0,1,0-20.141,0Q1076.625,1071.479,1076.625,1071.653Zm10.088,2.417c-4.057,0-6.646-1.587-6.646-2.417s2.589-2.418,6.646-2.418,6.644,1.587,6.644,2.418S1090.77,1074.07,1086.713,1074.07Zm-44.184-49.317a44.183,44.183,0,1,1,52.4,43.419,15.389,15.389,0,0,0-16.44,0A44.153,44.153,0,0,1,1042.529,1024.753Z" transform="translate(-1038.669 -976.71)" fill="#74a839"/>
        <path id="Trazado_2795" data-name="Trazado 2795" d="M1086.755,1077.974c-5.99,0-10.5-2.7-10.5-6.279v-.011a48.045,48.045,0,1,1,21.011,0v.011C1097.261,1075.275,1092.746,1077.974,1086.755,1077.974Zm0-100.385a47.211,47.211,0,0,0-9.981,93.354l.363.077-.036.37c-.01.1-.015.2-.015.306,0,3.1,4.156,5.442,9.668,5.442s9.669-2.34,9.669-5.442c0-.1,0-.2-.013-.306l-.037-.37.365-.077a47.211,47.211,0,0,0-9.984-93.354Zm0,96.942c-3.912,0-7.063-1.552-7.063-2.835s3.151-2.836,7.063-2.836,7.064,1.552,7.064,2.836S1090.668,1074.531,1086.755,1074.531Zm0-4.835c-3.891,0-6.2,1.518-6.226,2,.022.481,2.336,2,6.226,2s6.206-1.518,6.227-2C1092.961,1071.214,1090.648,1069.7,1086.755,1069.7Zm8.108-1.035-.151-.122a14.991,14.991,0,0,0-15.912,0l-.151.122-.191-.036a44.6,44.6,0,1,1,16.595,0Zm-8.108-87.63a43.769,43.769,0,0,0-8.329,86.737,15.936,15.936,0,0,1,16.659,0,43.769,43.769,0,0,0-8.331-86.737Z" transform="translate(-1038.712 -976.753)" fill="#74a839"/>
      </g>
      <g id="Grupo_1430" data-name="Grupo 1430" transform="translate(1078.146 994.872)">
        <path id="Trazado_2796" data-name="Trazado 2796" d="M1085.824,1016.786a11.707,11.707,0,0,0,0-23.414,11.56,11.56,0,0,0-9.921,5.581,1.721,1.721,0,1,0,2.936,1.8,8.142,8.142,0,0,1,6.986-3.935,8.264,8.264,0,1,1-7.984,10.146,1.721,1.721,0,1,0-3.354.775A11.6,11.6,0,0,0,1085.824,1016.786Z" transform="translate(-1074.023 -992.955)" fill="#74a839"/>
        <path id="Trazado_2797" data-name="Trazado 2797" d="M1085.868,1017.248a12.013,12.013,0,0,1-11.745-9.375,2.139,2.139,0,0,1,1.6-2.566,2.138,2.138,0,0,1,2.565,1.6,7.833,7.833,0,1,0,.948-5.9,2.139,2.139,0,1,1-3.65-2.233,11.975,11.975,0,0,1,10.278-5.78,12.125,12.125,0,0,1,0,24.25Zm-9.661-11.161a1.326,1.326,0,0,0-.293.034,1.3,1.3,0,0,0-.976,1.564,11.277,11.277,0,1,0,1.367-8.47,1.3,1.3,0,0,0,2.221,1.362,8.557,8.557,0,0,1,7.343-4.136,8.682,8.682,0,1,1-8.392,10.658A1.307,1.307,0,0,0,1076.206,1006.087Z" transform="translate(-1074.066 -992.998)" fill="#74a839"/>
      </g>
      <g id="Grupo_1431" data-name="Grupo 1431" transform="translate(1099.107 1029.672)">
        <path id="Trazado_2798" data-name="Trazado 2798" d="M1094.944,1024.572a1.712,1.712,0,0,0-1.71,1.722,1.727,1.727,0,1,0,1.732-1.722Z" transform="translate(-1092.816 -1024.154)" fill="#74a839"/>
        <path id="Trazado_2799" data-name="Trazado 2799" d="M1095.008,1028.477a2.14,2.14,0,0,1-.021-4.28h.021a2.14,2.14,0,1,1,0,4.28Zm-.021-3.443a1.314,1.314,0,1,0,.021,0Z" transform="translate(-1092.859 -1024.197)" fill="#74a839"/>
      </g>
      <g id="Grupo_1432" data-name="Grupo 1432" transform="translate(1107.077 1004.951)">
        <path id="Trazado_2800" data-name="Trazado 2800" d="M1102.112,1005.852h.018a1.722,1.722,0,0,0-.016-3.443h-.04a1.714,1.714,0,0,0-1.694,1.739A1.732,1.732,0,0,0,1102.112,1005.852Z" transform="translate(-1099.962 -1001.991)" fill="#74a839"/>
        <path id="Trazado_2801" data-name="Trazado 2801" d="M1102.176,1006.314h-.02a2.13,2.13,0,1,1,.022,0Zm-.018-3.443a1.3,1.3,0,1,0,0,2.607h.019a1.3,1.3,0,0,0-.017-2.607Z" transform="translate(-1100.005 -1002.034)" fill="#74a839"/>
      </g>
      <g id="Grupo_1433" data-name="Grupo 1433" transform="translate(1094.21 1026.253)">
        <path id="Trazado_2802" data-name="Trazado 2802" d="M1090.576,1021.508h-.023a1.71,1.71,0,0,0-1.709,1.721,1.727,1.727,0,1,0,1.732-1.721Z" transform="translate(-1088.426 -1021.089)" fill="#74a839"/>
        <path id="Trazado_2803" data-name="Trazado 2803" d="M1090.619,1025.412a2.14,2.14,0,0,1-.023-4.28h.023a2.14,2.14,0,0,1,0,4.28Zm-.023-3.443a1.314,1.314,0,1,0,.023,0Z" transform="translate(-1088.469 -1021.132)" fill="#74a839"/>
      </g>
    </g>
  </g>
</svg>
