<svg xmlns="http://www.w3.org/2000/svg" xmlns:xlink="http://www.w3.org/1999/xlink" width="227" height="216" viewBox="0 0 227 216">
  <defs>
    <filter id="Image" x="0" y="0" width="227" height="216" filterUnits="userSpaceOnUse">
      <feOffset dy="5" input="SourceAlpha"/>
      <feGaussianBlur stdDeviation="2.5" result="blur"/>
      <feFlood flood-opacity="0.161"/>
      <feComposite operator="in" in2="blur"/>
      <feComposite in="SourceGraphic"/>
    </filter>
  </defs>
  <g id="Grupo_455" data-name="Grupo 455" transform="translate(-498.072 -3328.518)">
    <g transform="matrix(1, 0, 0, 1, 498.07, 3328.52)" filter="url(#Image)">
      <g id="Image-2" data-name="Image" transform="translate(7.5 2.5)" fill="#fff" stroke="#a2e2ff" stroke-width="6">
        <rect width="212" height="201" rx="100.5" stroke="none"/>
        <rect x="3" y="3" width="206" height="195" rx="97.5" fill="none"/>
      </g>
    </g>
    <path id="Trazado_3365" data-name="Trazado 3365" d="M588.628,3392.158s8.537,37.521-4.624,50.028-6.4,19.5-6.4,19.5l38.771,4.783,13.873-4.783,25.61-19.5-23.13-44.157s.365-5.871-2.48-5.871Z" fill="#fff"/>
    <g id="Grupo_6334" data-name="Grupo 6334" transform="translate(-1407.575 1617.246)">
      <g id="Grupo_6332" data-name="Grupo 6332" transform="translate(1978.147 1758.761)">
        <g id="Grupo_6327" data-name="Grupo 6327" transform="translate(4.647)">
          <path id="Trazado_3461" data-name="Trazado 3461" d="M1992.66,1868.838a1.4,1.4,0,0,1-1.4-1.4c0-2.64-1.806-5.607-3.719-8.749a38.2,38.2,0,0,1-4.628-9.541c-2.8-10.278.882-16.457,3.844-21.421l.479-.8c.807-1.367,1.676-2.678,2.518-3.947,2.382-3.593,4.845-7.309,6.214-12.782,3.6-14.41-5.5-49.327-5.594-49.678a1.4,1.4,0,0,1,2.708-.712c.383,1.46,9.375,35.969,5.6,51.069-1.485,5.939-4.084,9.859-6.6,13.649-.859,1.3-1.67,2.52-2.441,3.823l-.485.815c-2.829,4.744-6.035,10.12-3.545,19.25a35.464,35.464,0,0,0,4.317,8.822c2.123,3.486,4.127,6.779,4.127,10.2A1.4,1.4,0,0,1,1992.66,1868.838Z" transform="translate(-1981.915 -1758.761)" fill="#74a839" stroke="#74a839" stroke-miterlimit="10" stroke-width="0.5"/>
        </g>
        <g id="Grupo_6328" data-name="Grupo 6328" transform="translate(38.713 23.823)">
          <path id="Trazado_3462" data-name="Trazado 3462" d="M2010.932,1849.87a1.4,1.4,0,0,1-.424-2.732c23.41-7.471,35.351-16.8,38.714-30.256,1.594-6.378,3.393-22.684-14.3-36.3a1.4,1.4,0,0,1,1.707-2.218c13.186,10.144,18.907,24.8,15.308,39.194-3.576,14.3-16.47,24.549-40.579,32.243A1.386,1.386,0,0,1,2010.932,1849.87Z" transform="translate(-2009.533 -1778.076)" fill="#74a839" stroke="#74a839" stroke-miterlimit="10" stroke-width="0.5"/>
        </g>
        <g id="Grupo_6329" data-name="Grupo 6329" transform="translate(45.709 94.218)">
          <path id="Trazado_3463" data-name="Trazado 3463" d="M2016.606,1851.006a1.426,1.426,0,0,1-.342-.042,1.4,1.4,0,0,1-1.018-1.7c.361-1.447.85-2.87,1.368-4.377a51.179,51.179,0,0,0,2.341-8.573,1.4,1.4,0,1,1,2.76.46,53.576,53.576,0,0,1-2.454,9.02c-.5,1.449-.967,2.817-1.3,4.149A1.4,1.4,0,0,1,2016.606,1851.006Z" transform="translate(-2015.205 -1835.148)" fill="#74a839" stroke="#74a839" stroke-miterlimit="10" stroke-width="0.5"/>
        </g>
        <g id="Grupo_6330" data-name="Grupo 6330" transform="translate(54.105 0.001)">
          <path id="Trazado_3464" data-name="Trazado 3464" d="M2026.879,1781.769a10.8,10.8,0,0,1-3.988-.719,1.4,1.4,0,0,1,1.039-2.6,9.623,9.623,0,0,0,8.283-1.011,6.13,6.13,0,0,0,2.859-5.176c.093-5.781-6.821-10.925-6.89-10.975a1.4,1.4,0,0,1,1.652-2.259c.334.243,8.153,6.043,8.037,13.279a8.919,8.919,0,0,1-4.107,7.458A12.66,12.66,0,0,1,2026.879,1781.769Z" transform="translate(-2022.012 -1758.762)" fill="#74a839" stroke="#74a839" stroke-miterlimit="10" stroke-width="0.5"/>
        </g>
        <g id="Grupo_6331" data-name="Grupo 6331" transform="translate(0 108.21)">
          <path id="Trazado_3465" data-name="Trazado 3465" d="M2053.241,1849.291h-73.7a1.4,1.4,0,0,1,0-2.8h73.7a1.4,1.4,0,0,1,0,2.8Z" transform="translate(-1978.147 -1846.492)" fill="#74a839" stroke="#74a839" stroke-miterlimit="10" stroke-width="0.5"/>
        </g>
        <path id="Trazado_3466" data-name="Trazado 3466" d="M2044.74,1846.114a1.483,1.483,0,1,0,1.483,1.484A1.484,1.484,0,0,0,2044.74,1846.114Z" transform="translate(-1962.948 -1738.37)" fill="#74a839" stroke="#74a839" stroke-miterlimit="10" stroke-width="0.5"/>
      </g>
      <g id="Grupo_6333" data-name="Grupo 6333" transform="translate(2014.639 1802.055)">
        <path id="Trazado_3467" data-name="Trazado 3467" d="M2014.293,1811.165c-.491,0-.931,0-1.372,0-.481,0-.966-.027-1.444.01a4.175,4.175,0,0,0-.821.237,11.908,11.908,0,0,1-2.464-3.816,10.544,10.544,0,0,1-.457-3.085,10.124,10.124,0,0,1,1.093-4.825,16.319,16.319,0,0,1,1.07-1.687,8.2,8.2,0,0,1,1.612-1.707,10.475,10.475,0,0,1,10.592-1.68,10.066,10.066,0,0,1,3.788,2.612c.32.352.614.725.924,1.093.248-.3.489-.609.755-.9a10.486,10.486,0,0,1,18.014,4.835,10.524,10.524,0,0,1,.073,3.964,9.217,9.217,0,0,1-.908,2.8,10.262,10.262,0,0,1-.965,1.376c-.268.352-.57.675-.868,1.022a1.59,1.59,0,0,0-1.292-.46c-.718.017-1.437,0-2.208,0,.2-.226.374-.412.542-.6.545-.613,1.083-1.231,1.634-1.838a4.8,4.8,0,0,0,1.039-2.049,7.569,7.569,0,0,0-11.993-7.956,7.507,7.507,0,0,0-2.469,3.5,1.46,1.46,0,0,1-1.672.978.209.209,0,0,1-.19-.206,4.516,4.516,0,0,0-.128-.62,1.269,1.269,0,0,0-.919-.9.355.355,0,0,1-.249-.215,7.393,7.393,0,0,0-5.436-4.147,7.279,7.279,0,0,0-5.252.945,7.369,7.369,0,0,0-2.944,3.245,7.769,7.769,0,0,0-.463,5.436,5.724,5.724,0,0,0,1.27,2.174c.622.747,1.263,1.479,1.9,2.217Z" transform="translate(-2007.733 -1793.862)" fill="#74a839"/>
        <path id="Trazado_3468" data-name="Trazado 3468" d="M2030.655,1806.489c-.072.384-.137.725-.2,1.068q-.553,3.093-1.1,6.187-.446,2.507-.892,5.016a.818.818,0,0,1-1.622-.017q-.261-1.373-.522-2.747-.49-2.561-.98-5.12-.526-2.764-1.043-5.53c-.01-.049-.028-.1-.058-.2-.251,1.135-.491,2.217-.73,3.3-.207.935-.411,1.87-.624,2.8a.825.825,0,0,1-.887.665l-5.284-.028-5.659-.036a.855.855,0,0,1-.857-.6.827.827,0,0,1,.781-1.032c.516-.007,1.032,0,1.549,0l2.912.014,5.74.034h.249c.143-.65.284-1.288.425-1.924q.594-2.677,1.192-5.354c.158-.709.312-1.418.474-2.128a.8.8,0,0,1,.818-.613.828.828,0,0,1,.791.707c.115.611.227,1.221.343,1.832q.592,3.115,1.185,6.23.417,2.189.838,4.379a4.629,4.629,0,0,0,.146.629c.051-.259.1-.518.149-.778q.536-2.984,1.069-5.969.309-1.746.61-3.493a.824.824,0,0,1,.94-.755.861.861,0,0,1,.676.549q.977,2.039,1.957,4.074c.338.7.687,1.4,1.017,2.107a.305.305,0,0,0,.328.2q2.622.008,5.243.029c.555,0,1.111,0,1.667.01a.805.805,0,0,1,.781.512.768.768,0,0,1-.141.85.844.844,0,0,1-.694.275q-2.761-.018-5.521-.033c-.675,0-1.351-.014-2.025-.019a.818.818,0,0,1-.808-.493c-.633-1.323-1.274-2.642-1.913-3.963C2030.875,1806.932,2030.774,1806.732,2030.655,1806.489Z" transform="translate(-2007.164 -1792.37)" fill="#74a839"/>
        <path id="Trazado_3469" data-name="Trazado 3469" d="M2039.859,1809.931c-.219.234-.412.448-.614.653-1.914,1.94-3.819,3.893-5.751,5.814-1.361,1.353-2.75,2.677-4.149,3.99a21.9,21.9,0,0,1-2.642,2.189,1.554,1.554,0,0,1-1.882.131,13.4,13.4,0,0,1-1.522-1.137q-2.017-1.837-3.979-3.732-1.669-1.615-3.277-3.291c-1.374-1.422-2.724-2.869-4.083-4.3-.017-.019-.03-.039-.063-.084.09-.005.159-.011.227-.011,1.2,0,2.4,0,3.594.016a.388.388,0,0,1,.247.114c.9.929,1.8,1.87,2.7,2.8q1.234,1.262,2.491,2.5c.862.85,1.728,1.7,2.606,2.53.6.572,1.231,1.121,1.864,1.7.354-.3.7-.581,1.02-.882,1.209-1.129,2.426-2.25,3.61-3.4,1.446-1.408,2.863-2.847,4.29-4.274.407-.407.8-.825,1.213-1.231a.375.375,0,0,1,.236-.109c1.244,0,2.488.011,3.732.02C2039.759,1809.921,2039.79,1809.926,2039.859,1809.931Z" transform="translate(-2006.761 -1790.117)" fill="#74a839"/>
      </g>
    </g>
  </g>
</svg>
