<svg xmlns="http://www.w3.org/2000/svg" xmlns:xlink="http://www.w3.org/1999/xlink" width="227" height="216" viewBox="0 0 227 216">
  <defs>
    <filter id="Image" x="0" y="0" width="227" height="216" filterUnits="userSpaceOnUse">
      <feOffset dy="5" input="SourceAlpha"/>
      <feGaussianBlur stdDeviation="2.5" result="blur"/>
      <feFlood flood-opacity="0.161"/>
      <feComposite operator="in" in2="blur"/>
      <feComposite in="SourceGraphic"/>
    </filter>
  </defs>
  <g id="Grupo_455" data-name="Grupo 455" transform="translate(-498.072 -3328.518)">
    <g transform="matrix(1, 0, 0, 1, 498.07, 3328.52)" filter="url(#Image)">
      <g id="Image-2" data-name="Image" transform="translate(7.5 2.5)" fill="#fff" stroke="#a2e2ff" stroke-width="6">
        <rect width="212" height="201" rx="100.5" stroke="none"/>
        <rect x="3" y="3" width="206" height="195" rx="97.5" fill="none"/>
      </g>
    </g>
    <g id="Grupo_6206" data-name="Grupo 6206" transform="translate(-246.926 2117.577)">
      <g id="Grupo_6200" data-name="Grupo 6200" transform="translate(813.884 1326.922)">
        <path id="Trazado_3342" data-name="Trazado 3342" d="M818.8,1356.63c-.317-.125-.63-.264-.951-.376a6.732,6.732,0,0,1-4.447-7.553,6.813,6.813,0,0,1,6.922-5.507c3.17.041,6.351-.01,9.512-.244a10.544,10.544,0,0,0,3.867-1.219c3.173-1.616,6.266-3.388,9.519-5.166-.354-.221-.6-.389-.858-.534-2.261-1.254-4.562-2.44-6.779-3.769a20.663,20.663,0,0,0-12-2.623,32.621,32.621,0,0,1-4.395.129,6.621,6.621,0,0,1-5.854-7.292,6.77,6.77,0,0,1,6.784-6.019q1.048.03,2.1.075c1.228.051,1.895.646,1.86,1.651-.033.963-.706,1.508-1.881,1.5-.63,0-1.259-.037-1.887-.059a3.547,3.547,0,1,0,.016,7.071c2.583-.062,5.172-.177,7.75-.063a17.776,17.776,0,0,1,7.8,2.221c3.525,1.928,7.039,3.875,10.563,5.805a2.085,2.085,0,0,1,1.333,1.848,2.054,2.054,0,0,1-1.3,1.862c-3.615,1.984-7.214,3.995-10.838,5.959a19.605,19.605,0,0,1-9.085,2.2c-2.13.044-4.263-.108-6.394-.171a3.465,3.465,0,0,0-3.36,2.063,3.174,3.174,0,0,0,.591,3.787,4.215,4.215,0,0,0,2.542,1.208c7.2,0,14.014-1.362,19.928-5.875,3.5-2.671,7.136-5.166,10.714-7.737,1.223-.879,1.779-.885,3.02.006,3.636,2.609,7.289,5.2,10.891,7.853a28.593,28.593,0,0,0,15.66,5.6c.14.008.281.007.419.024a1.629,1.629,0,0,1,1.576,1.64,1.569,1.569,0,0,1-1.793,1.493,32.743,32.743,0,0,1-9.541-1.821,32.123,32.123,0,0,1-8.018-4.276c-3.537-2.565-7.088-5.111-10.678-7.7-.3.195-.588.372-.864.571-3.263,2.348-6.565,4.647-9.777,7.063a32.572,32.572,0,0,1-17.443,6.173c-.411.035-.818.13-1.227.2Z" transform="translate(-812.69 -1315.86)" fill="#74a839"/>
        <path id="Trazado_3343" data-name="Trazado 3343" d="M818.9,1357.325l-.222-.042-.307-.125c-.2-.084-.409-.17-.618-.241a7.308,7.308,0,0,1,2.572-14.223h.108c3.554.043,6.649-.035,9.459-.243a9.809,9.809,0,0,0,3.638-1.155c2.26-1.15,4.445-2.36,6.758-3.642q.919-.51,1.85-1.024c-.711-.393-1.426-.78-2.139-1.167-1.525-.827-3.1-1.682-4.619-2.591-3.274-1.96-6.984-2.761-11.666-2.54-.38.018-.762.046-1.143.072a21.361,21.361,0,0,1-3.333.055,7.182,7.182,0,0,1-6.4-7.931,7.349,7.349,0,0,1,7.2-6.572l.192,0c.7.019,1.4.045,2.1.074,1.546.066,2.479.934,2.432,2.269a2.164,2.164,0,0,1-2.454,2.076h-.029c-.474,0-.946-.023-1.419-.041l-.486-.018a3.056,3.056,0,0,0-2.351.857,2.86,2.86,0,0,0-.864,2.087,2.819,2.819,0,0,0,.847,2.064,3.223,3.223,0,0,0,2.39.87l1.423-.038c2.083-.058,4.241-.118,6.367-.026a18.388,18.388,0,0,1,8.062,2.293q2.815,1.539,5.626,3.091,2.467,1.36,4.938,2.714a2.7,2.7,0,0,1,1.642,2.369,2.659,2.659,0,0,1-1.614,2.39q-2.052,1.125-4.1,2.256c-2.245,1.241-4.489,2.482-6.744,3.7a20.065,20.065,0,0,1-9.358,2.274c-1.486.034-2.98-.032-4.431-.1-.665-.027-1.329-.056-1.994-.075a2.833,2.833,0,0,0-2.8,1.7,2.6,2.6,0,0,0,.453,3.113,3.623,3.623,0,0,0,2.133,1.048c8.208,0,14.424-1.829,19.565-5.752,2.459-1.877,5.021-3.692,7.5-5.449,1.079-.765,2.156-1.528,3.23-2.3,1.438-1.032,2.27-1.031,3.717.006l2.683,1.922c2.747,1.965,5.5,3.931,8.214,5.936a28.134,28.134,0,0,0,15.341,5.485l.131.006c.108,0,.215.008.323.021a2.219,2.219,0,0,1,2.1,2.256,2.1,2.1,0,0,1-.672,1.488,2.407,2.407,0,0,1-1.748.577,31.89,31.89,0,0,1-17.88-6.209q-3.745-2.716-7.52-5.426l-2.825-2.033c-.17.109-.336.217-.5.333q-1.482,1.066-2.974,2.127c-2.242,1.6-4.559,3.249-6.792,4.929-4.863,3.656-10.67,5.714-17.752,6.29a7.822,7.822,0,0,0-.782.121l-.4.072Zm.116-1.195,4.146-.057a8.648,8.648,0,0,1,.9-.137c6.852-.558,12.455-2.54,17.132-6.055,2.246-1.689,4.569-3.346,6.816-4.948q1.487-1.059,2.972-2.124c.2-.146.41-.278.624-.417l.606-.394,3.488,2.512q3.783,2.72,7.524,5.428a30.7,30.7,0,0,0,17.237,5.983,1.148,1.148,0,0,0,.882-.266.9.9,0,0,0,.284-.653c.022-.54-.392-.942-1.054-1.025-.069-.008-.145-.011-.219-.013l-.16-.007a29.322,29.322,0,0,1-15.98-5.716c-2.713-2-5.457-3.964-8.2-5.926l-2.685-1.922c-1.025-.737-1.306-.738-2.322-.006q-1.614,1.157-3.236,2.3c-2.469,1.75-5.023,3.561-7.463,5.424-5.361,4.089-11.808,6-20.292,6a4.823,4.823,0,0,1-2.95-1.37,3.766,3.766,0,0,1-.732-4.459,4.058,4.058,0,0,1,3.927-2.422c.67.019,1.339.049,2.01.076,1.43.061,2.91.124,4.353.094a18.892,18.892,0,0,0,8.815-2.13c2.252-1.22,4.494-2.458,6.736-3.7q2.05-1.131,4.1-2.259c.719-.4,1-.77.994-1.334s-.282-.922-1.023-1.329q-2.473-1.353-4.941-2.715-2.81-1.548-5.624-3.09a17.187,17.187,0,0,0-7.54-2.147c-2.08-.094-4.215-.031-6.282.026l-1.426.038a4.429,4.429,0,0,1-3.253-1.208,4.141,4.141,0,0,1,.02-5.866,4.5,4.5,0,0,1,3.223-1.192l.491.019c.46.018.921.036,1.381.039h.023c1.226,0,1.25-.693,1.257-.922.01-.268.035-.978-1.286-1.033-.7-.029-1.393-.055-2.089-.074a6.215,6.215,0,0,0-6.171,5.467,6,6,0,0,0,5.311,6.649,20.385,20.385,0,0,0,3.145-.057c.389-.026.779-.054,1.167-.072a20.937,20.937,0,0,1,12.337,2.707c1.5.9,3.062,1.744,4.575,2.566.731.4,1.461.791,2.186,1.193.182.1.355.211.558.342l1.193.748-.9.49q-1.387.76-2.743,1.513c-2.321,1.286-4.514,2.5-6.793,3.661a11.007,11.007,0,0,1-4.092,1.283c-2.845.208-5.975.29-9.563.245a6.115,6.115,0,0,0-2.271,11.9c.229.08.455.173.681.266Z" transform="translate(-812.787 -1315.957)" fill="#74a839"/>
      </g>
      <g id="Grupo_6201" data-name="Grupo 6201" transform="translate(828.482 1259.589)">
        <path id="Trazado_3344" data-name="Trazado 3344" d="M869.316,1302.367c-.772,3.066-1.549,6.11-2.3,9.158-1.008,4.07-1.953,8.15-4.135,11.819a40.751,40.751,0,0,1-9.32,10.576,6.645,6.645,0,0,1-9.422-1.313,6.734,6.734,0,0,1,1.33-9.347,63.5,63.5,0,0,0,6.552-5.7,17.029,17.029,0,0,0,3.017-4.849c1.328-2.989,2.394-6.093,3.634-9.314-2.69.527-5.2,1.143-7.743,1.491-5.381.733-9.569,3.547-13.208,7.339a7.132,7.132,0,0,1-6.251,2.517,6.241,6.241,0,0,1-5.5-4.384,6.082,6.082,0,0,1,1.584-6.947c5.532-4.873,11.77-8.439,19.262-9.214,4.66-.481,9.342-.739,14.015-1.1.206-.016.411-.039.676-.066.995-3.943,2.118-7.837,2.947-11.792,1.714-8.184,6.428-14.391,12.642-19.626a6.631,6.631,0,0,1,9.522,1.115,6.73,6.73,0,0,1-1.337,9.5,62.645,62.645,0,0,0-6.542,5.711,16.9,16.9,0,0,0-2.96,4.766c-1.229,2.734-2.2,5.587-3.274,8.392-.1.252-.16.516-.284.92l6.86-1.348c1.2-.236,2.033.188,2.218,1.135.193.983-.349,1.68-1.564,1.929-2.977.612-5.958,1.2-8.939,1.8a1.942,1.942,0,0,1-2.309-2.775c1.5-3.876,2.945-7.774,4.482-11.635s4.35-6.713,7.53-9.249c.929-.742,1.891-1.442,2.842-2.156a3.548,3.548,0,1,0-4.358-5.588c-5.688,4.864-10.005,10.58-11.551,18.127-.819,4-1.952,7.935-2.944,11.9-.383,1.531-.883,1.924-2.475,2.044-5.162.387-10.329.718-15.481,1.205a26.012,26.012,0,0,0-11.469,4.333,58.972,58.972,0,0,0-5,3.631,3.51,3.51,0,0,0,3.966,5.774,5.318,5.318,0,0,0,1.417-1.063,26.134,26.134,0,0,1,16.551-8.63c2.7-.366,5.355-1.012,8.022-1.565a2,2,0,0,1,2.1.581,1.965,1.965,0,0,1,.237,2.164q-2.177,5.617-4.333,11.243c-1.628,4.234-4.625,7.356-8.168,10.032-.809.612-1.623,1.216-2.427,1.834a3.542,3.542,0,1,0,4.337,5.6c5.577-4.751,9.913-10.295,11.5-17.683.885-4.131,2.034-8.2,3.071-12.3.428-1.69.771-2,2.491-2.137,4.813-.377,9.636-.632,14.436-1.123a29.53,29.53,0,0,0,17.143-7.836,5.276,5.276,0,0,0,1.621-2.6,3.393,3.393,0,0,0-4.591-3.667,7.805,7.805,0,0,0-2.281,1.616,30.135,30.135,0,0,1-7.346,5.694c-1.173.572-2.069.4-2.525-.523-.432-.872-.085-1.707,1.049-2.262a25.417,25.417,0,0,0,6.711-5.314c2.088-2.111,4.513-3.206,7.489-2.312a6.383,6.383,0,0,1,3.688,9.6,15.651,15.651,0,0,1-3.7,3.941,34.775,34.775,0,0,1-15.972,6.724c-3.9.575-7.873.643-11.814.94C871.606,1302.182,870.494,1302.274,869.316,1302.367Z" transform="translate(-824.909 -1259.492)" fill="#74a839"/>
        <path id="Trazado_3345" data-name="Trazado 3345" d="M849.691,1336.022a7.445,7.445,0,0,1-5.934-2.958,7.317,7.317,0,0,1,1.437-10.174,63.406,63.406,0,0,0,6.49-5.648,16.044,16.044,0,0,0,2.9-4.679c.925-2.08,1.712-4.193,2.547-6.429q.34-.914.689-1.843c-.485.1-.965.2-1.441.3-1.81.382-3.518.742-5.277.982-4.7.643-8.787,2.917-12.859,7.161a7.727,7.727,0,0,1-6.752,2.7,6.835,6.835,0,0,1-5.994-4.779,6.633,6.633,0,0,1,1.752-7.593c6.348-5.592,12.758-8.652,19.594-9.359,3.229-.333,6.517-.565,9.7-.786,1.445-.1,2.891-.2,4.335-.314l.246-.021q.423-1.659.861-3.307c.693-2.635,1.411-5.359,1.976-8.056,1.565-7.468,5.766-14,12.842-19.962a7.081,7.081,0,0,1,5.365-1.623,7.33,7.33,0,0,1,3.575,13.163,62.084,62.084,0,0,0-6.482,5.655,16.469,16.469,0,0,0-2.847,4.6c-.864,1.922-1.615,3.948-2.341,5.906-.294.794-.589,1.59-.892,2.382l5.875-1.154a2.7,2.7,0,0,1,2.082.3,1.985,1.985,0,0,1,.839,1.308c.262,1.331-.5,2.315-2.031,2.63q-3.379.692-6.766,1.365l-2.174.436a2.533,2.533,0,0,1-2.983-3.575q.81-2.1,1.61-4.206c.945-2.482,1.891-4.966,2.873-7.434,1.727-4.341,5.029-7.355,7.713-9.5.68-.543,1.379-1.066,2.077-1.585l.775-.582a3.131,3.131,0,0,0,1.27-2.076,2.882,2.882,0,0,0-.614-2.158,2.905,2.905,0,0,0-4.265-.422c-6.378,5.453-9.985,11.108-11.354,17.794-.568,2.78-1.3,5.566-2.005,8.262-.319,1.219-.639,2.439-.945,3.661-.443,1.77-1.146,2.354-3.009,2.5l-4.109.3c-3.727.268-7.581.547-11.361.9a25.1,25.1,0,0,0-11.2,4.242,59.237,59.237,0,0,0-4.953,3.594,2.914,2.914,0,0,0,3.309,4.784,4.743,4.743,0,0,0,1.257-.938,26.9,26.9,0,0,1,16.917-8.824c2.012-.273,4.048-.713,6.018-1.139.655-.141,1.308-.283,1.963-.418a2.56,2.56,0,0,1,2.671.773,2.524,2.524,0,0,1,.345,2.771q-1.8,4.625-3.572,9.258l-.762,1.984c-1.47,3.823-4.128,7.093-8.365,10.3l-.861.647c-.522.393-1.045.785-1.562,1.183a3.053,3.053,0,0,0-1.2,2.031,2.89,2.89,0,0,0,.59,2.15,2.991,2.991,0,0,0,2.059,1.128,2.809,2.809,0,0,0,2.141-.639c6.326-5.39,9.917-10.9,11.3-17.353.621-2.9,1.383-5.809,2.119-8.622.321-1.233.645-2.467.958-3.7.492-1.949,1.056-2.433,3.022-2.587,1.642-.129,3.285-.244,4.929-.358,3.115-.216,6.339-.441,9.493-.762a29.013,29.013,0,0,0,16.8-7.684,4.691,4.691,0,0,0,1.437-2.279,2.57,2.57,0,0,0-.948-2.511,2.785,2.785,0,0,0-2.83-.484,7.382,7.382,0,0,0-2.1,1.5l-.118.112a30.233,30.233,0,0,1-7.38,5.686c-1.476.717-2.719.42-3.321-.8a2.034,2.034,0,0,1-.141-1.585,2.706,2.706,0,0,1,1.462-1.479,24.861,24.861,0,0,0,6.548-5.2c2.512-2.54,5.158-3.346,8.086-2.463a7.14,7.14,0,0,1,4.711,4.361,6.862,6.862,0,0,1-.693,6.135,16.361,16.361,0,0,1-3.844,4.095,35.326,35.326,0,0,1-16.244,6.837c-2.716.4-5.5.56-8.194.714-1.222.069-2.444.138-3.662.23l-2.973.235-.575,2.273q-.819,3.24-1.622,6.467l-.14.561c-.952,3.856-1.936,7.844-4.063,11.42a41.13,41.13,0,0,1-9.453,10.732A6.778,6.778,0,0,1,849.691,1336.022Zm10.021-33.323-.387,1.008c-.369.958-.723,1.906-1.073,2.844-.84,2.255-1.633,4.384-2.573,6.5a17.185,17.185,0,0,1-3.132,5.019,63.54,63.54,0,0,1-6.54,5.7,6.156,6.156,0,0,0-1.3,8.578,6.272,6.272,0,0,0,4.254,2.438,5.646,5.646,0,0,0,4.311-1.228,39.959,39.959,0,0,0,9.188-10.42c2.035-3.425,3-7.324,3.93-11.1l.139-.561q.8-3.236,1.625-6.473l.782-3.1,3.832-.3c1.227-.092,2.456-.161,3.684-.232,2.668-.152,5.426-.309,8.089-.7a34.155,34.155,0,0,0,15.7-6.611,15.114,15.114,0,0,0,3.556-3.787,5.671,5.671,0,0,0,.577-5.074,5.951,5.951,0,0,0-3.934-3.632c-2.5-.754-4.69-.067-6.892,2.161a25.876,25.876,0,0,1-6.872,5.429,1.563,1.563,0,0,0-.857.791.852.852,0,0,0,.081.671c.118.24.437.88,1.727.252a28.92,28.92,0,0,0,7.079-5.478l.117-.112a8.5,8.5,0,0,1,2.467-1.737,3.976,3.976,0,0,1,4.045.67,3.748,3.748,0,0,1,1.358,3.671,5.778,5.778,0,0,1-1.806,2.923,30.162,30.162,0,0,1-17.482,7.988c-3.174.325-6.406.55-9.532.767-1.64.115-3.279.228-4.918.356-1.445.115-1.592.24-1.959,1.689-.312,1.239-.635,2.475-.958,3.711-.735,2.8-1.492,5.7-2.107,8.57-1.441,6.72-5.157,12.443-11.694,18.013a3.982,3.982,0,0,1-3.04.916,4.19,4.19,0,0,1-2.881-1.588,4.069,4.069,0,0,1-.827-3.034,4.238,4.238,0,0,1,1.66-2.821q.783-.6,1.573-1.191l.856-.645c4.053-3.062,6.585-6.166,7.971-9.771l.763-1.984q1.781-4.631,3.572-9.26a1.38,1.38,0,0,0-.131-1.556,1.431,1.431,0,0,0-1.528-.388c-.65.135-1.3.276-1.953.418-1.991.43-4.051.875-6.11,1.154a25.4,25.4,0,0,0-16.186,8.437,5.831,5.831,0,0,1-1.576,1.19,4.107,4.107,0,0,1-4.623-6.767,59.524,59.524,0,0,1,5.055-3.666,26.2,26.2,0,0,1,11.731-4.425c3.794-.358,7.655-.636,11.387-.905l4.106-.3c1.351-.1,1.623-.325,1.94-1.592.307-1.228.627-2.452.948-3.676.7-2.681,1.427-5.452,1.99-8.2,1.425-6.958,5.158-12.824,11.748-18.46a4.1,4.1,0,0,1,5.982.594,4.069,4.069,0,0,1,.856,3.051,4.309,4.309,0,0,1-1.734,2.874l-.78.584c-.688.514-1.377,1.027-2.047,1.561-2.568,2.05-5.724,4.924-7.348,9-.981,2.463-1.924,4.94-2.867,7.417q-.8,2.109-1.613,4.214a1.354,1.354,0,0,0,1.634,1.972l2.174-.436q3.383-.677,6.761-1.366c1.288-.263,1.15-.965,1.1-1.229a.8.8,0,0,0-.332-.546,1.625,1.625,0,0,0-1.185-.118l-7.835,1.54.392-1.3c.068-.235.124-.423.192-.606.313-.813.615-1.629.917-2.444.732-1.977,1.491-4.021,2.371-5.981a17.548,17.548,0,0,1,3.072-4.935,62.966,62.966,0,0,1,6.6-5.766,6.136,6.136,0,0,0-2.965-11.039,5.893,5.893,0,0,0-4.463,1.351c-6.961,5.865-10.914,12-12.443,19.292-.572,2.726-1.292,5.465-1.99,8.114-.325,1.232-.649,2.463-.962,3.7l-.1.407-1.1.106c-1.449.112-2.9.213-4.346.314-3.17.221-6.45.451-9.658.782-6.583.682-12.773,3.647-18.929,9.068a5.5,5.5,0,0,0-1.414,6.3,5.643,5.643,0,0,0,5.006,3.989,6.548,6.548,0,0,0,5.75-2.339c4.268-4.447,8.577-6.836,13.559-7.517,1.718-.234,3.406-.59,5.193-.966.824-.174,1.66-.35,2.516-.517Z" transform="translate(-825.008 -1259.589)" fill="#74a839"/>
      </g>
      <g id="Grupo_6202" data-name="Grupo 6202" transform="translate(829.194 1326.913)">
        <path id="Trazado_3346" data-name="Trazado 3346" d="M858.495,1336.638c3.316,1.787,6.546,3.678,9.907,5.3,3.715,1.791,7.742,1.693,11.737,1.328,3.633-.331,6.394,1.064,7.659,4.017a6.75,6.75,0,0,1-1.8,7.73,1.618,1.618,0,0,1-2.418.048c-.632-.7-.516-1.58.313-2.394a3.579,3.579,0,0,0-2.863-6.289,30.626,30.626,0,0,1-10.631-.47,24.434,24.434,0,0,1-4.868-1.866c-3.474-1.8-6.864-3.759-10.3-5.637a1.969,1.969,0,0,1,.019-3.748q5.15-2.819,10.278-5.673c3.9-2.175,8.136-2.61,12.486-2.479,1.154.035,2.306.118,3.458.171a3.49,3.49,0,0,0,3.695-3.229,3.408,3.408,0,0,0-3.219-3.8c-6.68-.052-13.117.993-18.749,4.918-4.043,2.819-8.008,5.75-12.011,8.627-1.353.972-1.859.969-3.191.011-3.661-2.633-7.334-5.251-10.978-7.909a28.852,28.852,0,0,0-9.377-4.543c-1.273-.351-1.812-1.234-1.4-2.223a1.643,1.643,0,0,1,2.117-.837,30.61,30.61,0,0,1,10.174,4.809c3.463,2.491,6.931,4.974,10.373,7.491a.955.955,0,0,0,1.352,0c3.357-2.457,6.778-4.829,10.109-7.32,5.441-4.066,11.671-5.705,18.313-6.128a27.572,27.572,0,0,1,3.355-.068,6.679,6.679,0,1,1-.8,13.334c-3.351-.164-6.717-.432-10.026.376a14.475,14.475,0,0,0-3.259,1.116c-3.1,1.616-6.135,3.344-9.194,5.033C858.671,1336.382,858.621,1336.489,858.495,1336.638Z" transform="translate(-825.507 -1315.852)" fill="#74a839"/>
        <path id="Trazado_3347" data-name="Trazado 3347" d="M884.758,1356.276a2.03,2.03,0,0,1-1.525-.719,2.192,2.192,0,0,1,.337-3.222,2.984,2.984,0,0,0-2.394-5.267,31.508,31.508,0,0,1-10.838-.49,24.939,24.939,0,0,1-4.987-1.912c-2.3-1.191-4.6-2.471-6.818-3.71-1.161-.647-2.323-1.295-3.49-1.933a2.554,2.554,0,0,1,.019-4.8q5.146-2.819,10.273-5.672c4.428-2.47,9.162-2.666,12.8-2.554.723.022,1.443.063,2.166.1.434.024.87.049,1.3.069a2.926,2.926,0,0,0,3.07-2.672,3.142,3.142,0,0,0-.8-2.345,2.479,2.479,0,0,0-1.831-.815c-7.8-.106-13.607,1.466-18.4,4.809-2.709,1.887-5.428,3.86-8.057,5.767q-1.973,1.432-3.948,2.856c-1.553,1.111-2.352,1.113-3.888.01l-2.954-2.12q-4.021-2.885-8.027-5.791a28.383,28.383,0,0,0-9.184-4.45,2.655,2.655,0,0,1-1.78-1.312,2.038,2.038,0,0,1-.017-1.714,2.239,2.239,0,0,1,2.821-1.189,31.364,31.364,0,0,1,10.371,4.9l2.013,1.448q4.191,3.014,8.365,6.048c.3.221.345.226.645,0q2.1-1.536,4.223-3.044c1.971-1.411,3.942-2.822,5.882-4.272,4.978-3.721,11.073-5.765,18.633-6.246a28.063,28.063,0,0,1,3.426-.069,7.193,7.193,0,0,1,5.009,2.383,7.5,7.5,0,0,1,1.835,5.483,7.279,7.279,0,0,1-7.7,6.661l-.891-.044a30.957,30.957,0,0,0-8.965.4,14.056,14.056,0,0,0-3.123,1.067c-2.317,1.208-4.642,2.5-6.891,3.752l-1.742.968q1.124.613,2.24,1.232c2.221,1.228,4.518,2.5,6.828,3.612,3.724,1.793,7.847,1.595,11.423,1.271,3.9-.347,6.92,1.24,8.264,4.375a7.393,7.393,0,0,1-1.97,8.425A2.723,2.723,0,0,1,884.758,1356.276Zm-3.2-10.419a4.154,4.154,0,0,1,2.844,7.331c-.6.589-.7,1.116-.289,1.566.423.466.956.429,1.594-.105a6.17,6.17,0,0,0,1.636-7.036c-1.143-2.671-3.635-3.969-7.057-3.658-3.732.338-8.051.541-12.049-1.386-2.34-1.126-4.651-2.406-6.888-3.641-1.011-.559-2.024-1.118-3.044-1.668l-.65-.35.566-.677a1.063,1.063,0,0,1,.338-.324l2.29-1.271c2.254-1.254,4.586-2.551,6.918-3.767a15.1,15.1,0,0,1,3.391-1.167,31.883,31.883,0,0,1,9.309-.438l.89.045a6.062,6.062,0,0,0,6.454-5.54,6.314,6.314,0,0,0-1.535-4.617,6,6,0,0,0-4.183-1.985,28.006,28.006,0,0,0-3.281.069c-7.425.473-13.143,2.383-18,6.011-1.948,1.456-3.925,2.87-5.9,4.286-1.408,1.008-2.815,2.015-4.212,3.036a1.532,1.532,0,0,1-2.056,0q-4.162-3.042-8.358-6.042l-2.013-1.447a30.141,30.141,0,0,0-9.977-4.717c-.331-.085-1.124-.209-1.414.489a.87.87,0,0,0-.014.735,1.545,1.545,0,0,0,1.025.686,29.57,29.57,0,0,1,9.569,4.635q4,2.913,8.02,5.786l2.955,2.12c1.12.808,1.356.809,2.493-.011q1.975-1.419,3.944-2.851c2.634-1.911,5.357-3.887,8.074-5.78,5.011-3.493,11.066-5.107,19.1-5.024a3.688,3.688,0,0,1,2.7,1.2,4.339,4.339,0,0,1,1.112,3.237,4.072,4.072,0,0,1-4.317,3.785c-.438-.019-.877-.044-1.317-.068-.709-.039-1.421-.081-2.135-.1-5.156-.154-8.921.586-12.177,2.4q-5.126,2.862-10.281,5.675c-.8.436-1.075.8-1.063,1.386.011.556.284.9,1.045,1.315q1.752.959,3.5,1.938c2.214,1.234,4.5,2.51,6.785,3.691a23.655,23.655,0,0,0,4.75,1.821,29.97,29.97,0,0,0,10.425.453C881.239,1345.865,881.4,1345.858,881.562,1345.858Z" transform="translate(-825.604 -1315.95)" fill="#74a839"/>
      </g>
      <g id="Grupo_6203" data-name="Grupo 6203" transform="translate(807.151 1286.728)">
        <path id="Trazado_3348" data-name="Trazado 3348" d="M815.734,1296.658c2.107-3.566,4.355-6.882,3.711-11.214a2.2,2.2,0,0,1,2.173-2.633,2.294,2.294,0,0,1,2.266,2.583,14.681,14.681,0,0,1-2.936,9.106c-1.152,1.493-2.211,3.056-3.366,4.662,1.12,1.56,2.192,3.149,3.364,4.66a14.59,14.59,0,0,1,2.94,9.21,2.287,2.287,0,0,1-2.275,2.471,2.154,2.154,0,0,1-2.157-2.528c.622-4.349-1.555-7.724-3.707-11.27-1.954,3.45-4.336,6.621-3.637,10.845a3.351,3.351,0,0,1,.017.63,2.275,2.275,0,0,1-2.212,2.323,2.217,2.217,0,0,1-2.264-2.26,14.471,14.471,0,0,1,2.623-8.991c1.08-1.463,2.106-2.965,3.2-4.414a.963.963,0,0,0-.01-1.374c-1.094-1.45-2.122-2.952-3.2-4.415a14.431,14.431,0,0,1-2.61-8.995,2.216,2.216,0,0,1,2.28-2.241,2.254,2.254,0,0,1,2.184,2.345c0,.454-.044.908-.062,1.363a10.539,10.539,0,0,0,1.491,6.218C814.322,1293.973,814.971,1295.282,815.734,1296.658Z" transform="translate(-807.054 -1282.211)" fill="#74a839"/>
        <path id="Trazado_3349" data-name="Trazado 3349" d="M809.97,1316.2a2.786,2.786,0,0,1-1.965-.793,2.875,2.875,0,0,1-.854-2.059,15.014,15.014,0,0,1,2.739-9.352c.459-.621.908-1.251,1.357-1.88.609-.853,1.218-1.7,1.85-2.538.22-.289.219-.351-.011-.655-.622-.825-1.224-1.668-1.826-2.511-.456-.638-.913-1.276-1.377-1.908a14.986,14.986,0,0,1-2.725-9.354,2.854,2.854,0,0,1,.864-2.051,2.837,2.837,0,0,1,4.794,2.162c0,.3-.019.6-.036.9l-.026.486a9.952,9.952,0,0,0,1.4,5.877c.541.867,1.015,1.751,1.517,2.686.06.115.122.228.183.343,1.891-3.165,3.656-6.165,3.1-9.921a2.9,2.9,0,0,1,.618-2.339,2.848,2.848,0,0,1,2.135-.978,2.631,2.631,0,0,1,1.98.778,3.3,3.3,0,0,1,.894,2.409,15.214,15.214,0,0,1-3.063,9.464c-.781,1.014-1.512,2.047-2.285,3.142-.27.382-.541.767-.818,1.155q.4.561.794,1.123c.743,1.054,1.51,2.143,2.307,3.17a15.141,15.141,0,0,1,3.066,9.574,3.153,3.153,0,0,1-.891,2.28,2.626,2.626,0,0,1-1.989.791,2.833,2.833,0,0,1-2.125-.969,2.785,2.785,0,0,1-.618-2.24c.545-3.792-1.178-6.841-3.1-10.016-.109.184-.216.368-.325.551-1.7,2.88-3.3,5.6-2.737,9.027a3.358,3.358,0,0,1,.029.658,2.9,2.9,0,0,1-2.8,2.989Zm0-32.692a1.6,1.6,0,0,0-1.12.45,1.659,1.659,0,0,0-.5,1.2,13.828,13.828,0,0,0,2.492,8.635c.468.637.928,1.281,1.388,1.923.6.834,1.192,1.669,1.808,2.487a1.541,1.541,0,0,1,.008,2.1c-.625.824-1.227,1.666-1.829,2.51-.454.635-.907,1.27-1.37,1.9a13.879,13.879,0,0,0-2.5,8.635,1.642,1.642,0,1,0,3.281-.078,2.887,2.887,0,0,0-.01-.515c-.639-3.855,1.154-6.891,2.886-9.828.275-.467.552-.935.821-1.41l.5-.886.77,1.27c2.053,3.377,4.175,6.869,3.545,11.267a1.6,1.6,0,0,0,.342,1.294,1.641,1.641,0,0,0,1.233.552,1.668,1.668,0,0,0,1.134-.445,1.975,1.975,0,0,0,.536-1.426,13.991,13.991,0,0,0-2.815-8.846c-.815-1.05-1.589-2.15-2.339-3.216-.344-.489-.688-.977-1.038-1.462l-.251-.349.251-.349c.362-.5.714-1,1.063-1.5.78-1.1,1.517-2.149,2.315-3.182a14.073,14.073,0,0,0,2.813-8.749,2.121,2.121,0,0,0-.542-1.549,1.438,1.438,0,0,0-1.118-.429,1.629,1.629,0,0,0-1.242.558,1.719,1.719,0,0,0-.349,1.391c.626,4.209-1.372,7.555-3.3,10.791l-1.017,1.715-.505-.916c-.239-.431-.467-.857-.69-1.273-.491-.918-.956-1.786-1.476-2.618a11.11,11.11,0,0,1-1.582-6.559l.028-.508c.017-.278.033-.557.035-.834a1.666,1.666,0,0,0-1.6-1.745Z" transform="translate(-807.151 -1282.309)" fill="#74a839"/>
      </g>
      <g id="Grupo_6204" data-name="Grupo 6204" transform="translate(892.24 1316.467)">
        <path id="Trazado_3350" data-name="Trazado 3350" d="M885.191,1324.014c-1.307-1.813-2.555-3.541-3.8-5.274a14.482,14.482,0,0,1-2.5-8.924,2.151,2.151,0,0,1,2.278-2.111,2.034,2.034,0,0,1,2.145,2.2c-.658,4.419,1.423,7.917,3.636,11.433.069-.035.191-.054.228-.119a41.25,41.25,0,0,0,2.713-5.073,20.775,20.775,0,0,0,.8-4.592c.074-.546-.067-1.118-.048-1.675a2.189,2.189,0,0,1,2.221-2.177,2.129,2.129,0,0,1,2.241,2.141,14.359,14.359,0,0,1-2.332,8.659c-1.075,1.552-2.151,3.106-3.321,4.586a1.287,1.287,0,0,0,.033,1.889c1.031,1.322,1.957,2.726,2.96,4.07a14.285,14.285,0,0,1,2.659,9.082,2.152,2.152,0,0,1-2.292,2.2,2.193,2.193,0,0,1-2.17-2.328c0-.454.042-.908.061-1.363a10.538,10.538,0,0,0-1.5-6.216c-.771-1.231-1.419-2.541-2.229-4.009-1.238,2.707-3.158,4.838-3.541,7.669a23.318,23.318,0,0,0-.086,3.552c.03,1.664-.786,2.691-2.221,2.7-1.393,0-2.271-.977-2.249-2.57a14.6,14.6,0,0,1,2.89-9.014C882.944,1327.225,884.027,1325.635,885.191,1324.014Z" transform="translate(-878.286 -1307.107)" fill="#74a839"/>
        <path id="Trazado_3351" data-name="Trazado 3351" d="M881.221,1341.026a2.727,2.727,0,0,1-1.991-.779,3.249,3.249,0,0,1-.846-2.4,15.129,15.129,0,0,1,3.014-9.37c.8-1.046,1.565-2.124,2.341-3.221q.4-.57.813-1.148l-.984-1.365c-.868-1.2-1.718-2.38-2.562-3.561a15.029,15.029,0,0,1-2.609-9.281,2.682,2.682,0,0,1,.807-1.9,2.772,2.772,0,0,1,2.077-.8,2.933,2.933,0,0,1,2.181.991,2.354,2.354,0,0,1,.545,1.9c-.563,3.778.956,6.834,3.106,10.31.162-.282.33-.564.5-.847a23.719,23.719,0,0,0,1.826-3.524,13.276,13.276,0,0,0,.63-3.3c.043-.388.085-.774.136-1.155a3.908,3.908,0,0,0-.018-.821,6.584,6.584,0,0,1-.036-.8,2.774,2.774,0,0,1,2.813-2.752h.031a2.731,2.731,0,0,1,2.812,2.729,14.913,14.913,0,0,1-2.438,9.008c-1.076,1.553-2.169,3.13-3.344,4.615-.364.462-.36.645.037,1.151.6.767,1.159,1.56,1.721,2.353.411.579.821,1.157,1.246,1.726a14.838,14.838,0,0,1,2.777,9.446,2.834,2.834,0,0,1-.839,2.022,2.976,2.976,0,0,1-2.065.767,2.783,2.783,0,0,1-2.752-2.929c0-.3.018-.607.036-.911l.024-.472a9.953,9.953,0,0,0-1.407-5.876c-.534-.854-1.009-1.74-1.511-2.678-.063-.117-.125-.235-.189-.352-.3.567-.624,1.113-.937,1.649a13.1,13.1,0,0,0-2.036,4.805,20.225,20.225,0,0,0-.09,3.038l.008.425a3.427,3.427,0,0,1-.847,2.528,2.692,2.692,0,0,1-1.967.775Zm.013-32.625a1.694,1.694,0,0,0-1.2.457,1.479,1.479,0,0,0-.446,1.063,13.877,13.877,0,0,0,2.385,8.569c.844,1.178,1.694,2.356,2.56,3.557l1.487,2.063-.251.349c-.359.5-.711,1-1.06,1.49-.785,1.111-1.556,2.2-2.369,3.26a13.974,13.974,0,0,0-2.767,8.658,2.1,2.1,0,0,0,.5,1.54,1.538,1.538,0,0,0,1.141.424h.008a1.512,1.512,0,0,0,1.118-.416,2.288,2.288,0,0,0,.507-1.672l-.008-.421a20.991,20.991,0,0,1,.1-3.223,14.232,14.232,0,0,1,2.188-5.251,28.553,28.553,0,0,0,1.4-2.586l.493-1.079.573,1.039c.262.472.505.928.742,1.37.493.921.959,1.789,1.47,2.611a11.1,11.1,0,0,1,1.59,6.557l-.026.491c-.017.283-.032.567-.033.851a1.589,1.589,0,0,0,1.586,1.727,1.77,1.77,0,0,0,1.209-.433,1.621,1.621,0,0,0,.472-1.177,13.678,13.678,0,0,0-2.54-8.715c-.43-.577-.847-1.163-1.263-1.751-.552-.779-1.1-1.558-1.692-2.309a1.865,1.865,0,0,1-.031-2.627c1.152-1.456,2.233-3.016,3.279-4.526a13.781,13.781,0,0,0,2.246-8.34,1.528,1.528,0,0,0-1.617-1.55h-.02a1.59,1.59,0,0,0-1.629,1.6,5.361,5.361,0,0,0,.031.65,4.746,4.746,0,0,1,.011,1.083c-.049.37-.09.748-.129,1.124a14.5,14.5,0,0,1-.7,3.6,24.755,24.755,0,0,1-1.916,3.707c-.282.479-.566.958-.834,1.443a.812.812,0,0,1-.478.364l-.485.246-.293-.462c-2.078-3.3-4.435-7.044-3.721-11.839a1.162,1.162,0,0,0-.275-.947,1.726,1.726,0,0,0-1.289-.57Z" transform="translate(-878.384 -1307.204)" fill="#74a839"/>
      </g>
      <g id="Grupo_6205" data-name="Grupo 6205" transform="translate(823.742 1262.08)">
        <path id="Trazado_3352" data-name="Trazado 3352" d="M836.734,1275.352c-2-3.6-3.682-7.237-7.75-8.872a2.16,2.16,0,0,1-1.114-3.21,2.251,2.251,0,0,1,3.281-.673,14.641,14.641,0,0,1,6.374,7.138c.612,1.522,1.322,3,1.934,4.525a1.038,1.038,0,0,0,1.246.776c1.91-.207,3.828-.35,5.743-.521a14.232,14.232,0,0,1,8.833,2.425,2.174,2.174,0,0,1,.641,3.051,2.1,2.1,0,0,1-3.015.7c-3.458-2.837-7.518-2.868-11.81-2.69,1.92,3.186,3.246,6.737,6.943,8.376a10.311,10.311,0,0,1,.935.469,2.255,2.255,0,1,1-2.23,3.905,14.8,14.8,0,0,1-6.409-7.114c-.653-1.617-1.361-3.216-2.108-4.791a1.167,1.167,0,0,0-.895-.562c-1.743.1-3.485.27-5.22.462a14.742,14.742,0,0,1-9.485-2.334,2.183,2.183,0,0,1-.719-3.109,2.106,2.106,0,0,1,3.1-.636C828.442,1275.5,832.507,1275.375,836.734,1275.352Z" transform="translate(-820.943 -1261.578)" fill="#74a839"/>
        <path id="Trazado_3353" data-name="Trazado 3353" d="M848.167,1291.84a3.159,3.159,0,0,1-1.634-.475,15.368,15.368,0,0,1-6.652-7.4c-.624-1.545-1.327-3.146-2.094-4.761a.72.72,0,0,0-.34-.22c-1.478.088-3.125.234-5.169.458a15.245,15.245,0,0,1-9.86-2.416,2.78,2.78,0,0,1-.914-3.941,2.9,2.9,0,0,1,1.981-1.323,2.511,2.511,0,0,1,2.008.547c2.993,2.468,6.55,2.572,10.333,2.548l-.043-.079c-1.756-3.206-3.414-6.238-6.923-7.647a2.754,2.754,0,0,1-1.406-4.065,2.75,2.75,0,0,1,1.691-1.307,3.165,3.165,0,0,1,2.413.423,15.17,15.17,0,0,1,6.62,7.428c.3.756.631,1.5.959,2.246s.665,1.513.974,2.28c.166.412.265.447.63.4,1.328-.143,2.66-.257,3.992-.37l1.761-.153a14.634,14.634,0,0,1,9.2,2.511,2.665,2.665,0,0,1,1.217,1.681,2.909,2.909,0,0,1-.383,2.2,2.964,2.964,0,0,1-2,1.338,2.358,2.358,0,0,1-1.9-.491c-3-2.462-6.505-2.71-10.413-2.591q.274.484.544.971c1.442,2.6,2.8,5.048,5.623,6.3.336.149.668.315.988.5a3.091,3.091,0,0,1,1.516,1.879,2.809,2.809,0,0,1-2.717,3.531Zm-10.717-14.05a1.766,1.766,0,0,1,1.416.9c.778,1.636,1.491,3.26,2.124,4.826a14.208,14.208,0,0,0,6.165,6.827,1.821,1.821,0,0,0,1.39.257,1.681,1.681,0,0,0,1.184-1.988,1.916,1.916,0,0,0-.95-1.144,9.517,9.517,0,0,0-.882-.443c-3.185-1.412-4.71-4.156-6.183-6.81-.336-.6-.672-1.21-1.03-1.8l-.52-.864,1.007-.042c4.567-.19,8.639-.107,12.214,2.826a1.188,1.188,0,0,0,.947.235,1.785,1.785,0,0,0,1.183-.8,1.711,1.711,0,0,0,.229-1.29,1.465,1.465,0,0,0-.676-.934,13.506,13.506,0,0,0-8.469-2.34l-1.767.153c-1.322.112-2.646.226-3.966.368a1.626,1.626,0,0,1-1.866-1.147c-.3-.756-.631-1.5-.958-2.246s-.667-1.513-.975-2.28a14.013,14.013,0,0,0-6.128-6.848,1.993,1.993,0,0,0-1.5-.292,1.552,1.552,0,0,0-.957.753,1.564,1.564,0,0,0,.821,2.354c3.907,1.57,5.747,4.932,7.526,8.184l1.015,1.835-1.443.008c-4.223.028-8.193.05-11.671-2.819a1.316,1.316,0,0,0-1.06-.288,1.726,1.726,0,0,0-1.16.784,1.587,1.587,0,0,0,.526,2.279,14.1,14.1,0,0,0,9.108,2.249c2.064-.227,3.732-.374,5.251-.464Z" transform="translate(-821.04 -1261.675)" fill="#74a839"/>
      </g>
    </g>
  </g>
</svg>
