<svg xmlns="http://www.w3.org/2000/svg" xmlns:xlink="http://www.w3.org/1999/xlink" width="227" height="216" viewBox="0 0 227 216">
  <defs>
    <filter id="Image" x="0" y="0" width="227" height="216" filterUnits="userSpaceOnUse">
      <feOffset dy="5" input="SourceAlpha"/>
      <feGaussianBlur stdDeviation="2.5" result="blur"/>
      <feFlood flood-opacity="0.161"/>
      <feComposite operator="in" in2="blur"/>
      <feComposite in="SourceGraphic"/>
    </filter>
  </defs>
  <g id="Grupo_455" data-name="Grupo 455" transform="translate(-498.072 -3328.518)">
    <g transform="matrix(1, 0, 0, 1, 498.07, 3328.52)" filter="url(#Image)">
      <g id="Image-2" data-name="Image" transform="translate(7.5 2.5)" fill="#fff" stroke="#a2e2ff" stroke-width="6">
        <rect width="212" height="201" rx="100.5" stroke="none"/>
        <rect x="3" y="3" width="206" height="195" rx="97.5" fill="none"/>
      </g>
    </g>
    <g id="Grupo_1720" data-name="Grupo 1720" transform="translate(-947.106 2691.662)">
      <g id="Grupo_1724" data-name="Grupo 1724" transform="translate(1526.808 703.548)">
        <g id="Grupo_1721" data-name="Grupo 1721" transform="translate(0 4.623)">
          <g id="Grupo_1720-2" data-name="Grupo 1720">
            <path id="Trazado_3013" data-name="Trazado 3013" d="M1575.955,764.574c-.213,0-.421-.009-.626-.026-3.579-.3-4.731-2.862-5.5-4.556-.606-1.346-.859-1.742-1.37-1.786-.443-.015-1.02.492-1.94,1.358-2.283,2.148-5.729,5.4-14.207,4.674-7.745-.66-12.771-5.469-16.665-10.088-3.33-3.95-3.51-10.948-3.655-16.572a37.658,37.658,0,0,0-.5-6.587c-.332-1.379-1.195-1.968-2.816-2.975-2.4-1.491-5.692-3.53-6.784-10.295-.894-5.531,1.074-9.987,5.54-12.545,5.076-2.907,12.9-2.68,16.733.491,10.838,8.952,5.553,18.693,5.5,18.789a1.5,1.5,0,0,1-2.626-1.465c.171-.315,4.058-7.7-4.788-15-2.643-2.183-8.9-2.733-13.324-.2-2.334,1.337-4.937,4.064-4.065,9.455.874,5.411,3.175,6.839,5.4,8.219,1.649,1.022,3.517,2.182,4.156,4.825A38.5,38.5,0,0,1,1535,737.5c.132,5.153.3,11.568,2.947,14.71,5.024,5.958,9.259,8.574,14.62,9.031,7.134.6,9.883-1.98,11.891-3.869,1.266-1.191,2.488-2.318,4.255-2.163,2.351.2,3.222,2.134,3.859,3.548.759,1.686,1.274,2.648,3.006,2.8,4.318.36,10.261-4.512,10.508-5.839a.348.348,0,0,0-.033-.234c-.55-.579-3.187-.495-4.457-.453a19.38,19.38,0,0,1-2.171,0c-1.754-.15-2.32-2.143-3.261-5.444-.68-2.39-1.707-6-2.957-6.765-1.681-1.025-6.444.365-9.29,1.68a1.5,1.5,0,1,1-1.264-2.73c1.387-.642,8.49-3.733,12.123-1.517,2.252,1.377,3.331,5.166,4.283,8.507a26.64,26.64,0,0,0,1.069,3.289c.4.011.87-.01,1.37-.026,2.465-.081,5.255-.171,6.737,1.389a3.213,3.213,0,0,1,.846,2.575C1588.808,759.265,1581.273,764.574,1575.955,764.574Z" transform="translate(-1521.688 -703.132)" fill="#74a839"/>
          </g>
        </g>
        <g id="Grupo_1723" data-name="Grupo 1723" transform="translate(29.91)">
          <g id="Grupo_1722" data-name="Grupo 1722">
            <path id="Trazado_3014" data-name="Trazado 3014" d="M1546.948,743.252a1.506,1.506,0,0,1-1.381-2.1c1.955-4.539,7.249-8.639,12.37-12.605.682-.529,1.36-1.054,2.023-1.576,9.813-7.708,6.76-25.564,6.728-25.744a1.5,1.5,0,0,1,2.961-.53c.144.8,3.408,19.81-7.83,28.641-.67.525-1.354,1.055-2.041,1.588-4.819,3.732-9.8,7.591-11.448,11.416A1.5,1.5,0,0,1,1546.948,743.252Z" transform="translate(-1545.445 -699.46)" fill="#74a839"/>
          </g>
        </g>
      </g>
      <g id="Grupo_1726" data-name="Grupo 1726" transform="translate(1501.916 683.678)">
        <g id="Grupo_1725" data-name="Grupo 1725">
          <path id="Trazado_3015" data-name="Trazado 3015" d="M1558.822,797.24a56.655,56.655,0,1,1,56.655-56.655A56.72,56.72,0,0,1,1558.822,797.24Zm0-110.3a53.647,53.647,0,1,0,53.648,53.648A53.708,53.708,0,0,0,1558.822,686.937Z" transform="translate(-1501.851 -683.613)" fill="#74a839"/>
          <path id="Trazado_3016" data-name="Trazado 3016" d="M1558.886,797.618a56.97,56.97,0,1,1,56.97-56.97A57.034,57.034,0,0,1,1558.886,797.618Zm0-113.311a56.341,56.341,0,1,0,56.34,56.341A56.406,56.406,0,0,0,1558.886,684.307Zm0,110.3a53.962,53.962,0,1,1,53.962-53.964A54.025,54.025,0,0,1,1558.886,794.612Zm0-107.3a53.333,53.333,0,1,0,53.333,53.332A53.393,53.393,0,0,0,1558.886,687.317Z" transform="translate(-1501.916 -683.678)" fill="#74a839"/>
        </g>
      </g>
      <g id="Grupo_1728" data-name="Grupo 1728" transform="translate(1510.745 692.576)">
        <g id="Grupo_1727" data-name="Grupo 1727">
          <path id="Trazado_3017" data-name="Trazado 3017" d="M1558.55,786.917a1.5,1.5,0,0,1-.049-3.006q1.065-.036,2.126-.121a1.5,1.5,0,1,1,.24,3q-1.131.091-2.267.127Zm-7.325-.337a1.6,1.6,0,0,1-.189-.011q-1.124-.142-2.247-.337a1.5,1.5,0,1,1,.516-2.964q1.052.185,2.105.316a1.5,1.5,0,0,1-.185,3Zm16.764-.946a1.5,1.5,0,0,1-.353-2.966q1.037-.249,2.061-.549a1.5,1.5,0,0,1,.842,2.89q-1.092.317-2.2.584A1.567,1.567,0,0,1,1567.989,785.634Zm-26.045-1.211a1.514,1.514,0,0,1-.49-.082q-1.071-.368-2.131-.791a1.5,1.5,0,1,1,1.114-2.8q.993.4,2,.742a1.5,1.5,0,0,1-.49,2.926Zm35.034-1.953a1.5,1.5,0,0,1-.642-2.864q.961-.453,1.9-.954a1.5,1.5,0,1,1,1.41,2.658q-1.005.533-2.032,1.017A1.5,1.5,0,0,1,1576.979,782.47Zm-43.684-2.048a1.489,1.489,0,0,1-.766-.21q-.982-.58-1.925-1.2a1.5,1.5,0,0,1,1.647-2.519q.889.582,1.812,1.13a1.5,1.5,0,0,1-.768,2.8Zm51.842-2.874a1.5,1.5,0,0,1-.905-2.707c.566-.427,1.125-.867,1.672-1.322a1.5,1.5,0,1,1,1.921,2.314q-.876.727-1.784,1.411A1.489,1.489,0,0,1,1585.137,777.547Zm-59.506-2.787a1.5,1.5,0,0,1-1.013-.392q-.844-.771-1.646-1.572a1.5,1.5,0,1,1,2.129-2.125q.75.752,1.542,1.473a1.5,1.5,0,0,1-1.012,2.616Zm66.487-3.7a1.5,1.5,0,0,1-1.129-2.5q.7-.8,1.363-1.636a1.505,1.505,0,0,1,2.357,1.872q-.712.893-1.459,1.747A1.5,1.5,0,0,1,1592.118,771.059Zm-72.834-3.411a1.506,1.506,0,0,1-1.22-.622q-.667-.925-1.288-1.876a1.5,1.5,0,1,1,2.519-1.643q.582.89,1.208,1.756a1.5,1.5,0,0,1-1.219,2.385Zm78.342-4.363a1.5,1.5,0,0,1-1.3-2.252l.144-.253q.446-.8.861-1.62a1.5,1.5,0,0,1,2.684,1.361c-.295.579-.6,1.154-.919,1.727l-.159.281A1.505,1.505,0,0,1,1597.626,763.286Zm-83.1-3.893a1.5,1.5,0,0,1-1.374-.889q-.465-1.039-.88-2.1a1.5,1.5,0,0,1,2.8-1.1q.389.992.826,1.967a1.5,1.5,0,0,1-.758,1.988A1.522,1.522,0,0,1,1514.523,759.393Zm86.937-4.832a1.5,1.5,0,0,1-1.431-1.964q.327-1.016.6-2.043a1.5,1.5,0,0,1,2.9.786q-.3,1.093-.645,2.178A1.505,1.505,0,0,1,1601.46,754.561Zm-89.927-4.216a1.5,1.5,0,0,1-1.468-1.178q-.246-1.111-.438-2.23a1.5,1.5,0,0,1,2.964-.512c.121.7.258,1.4.412,2.091a1.505,1.505,0,0,1-1.143,1.794A1.546,1.546,0,0,1,1511.533,750.345Zm91.9-5.1a1.354,1.354,0,0,1-.16-.009,1.5,1.5,0,0,1-1.337-1.654q.112-1.059.174-2.121a1.5,1.5,0,1,1,3,.172q-.064,1.133-.185,2.266A1.5,1.5,0,0,1,1603.435,745.241Zm-93-4.36a1.5,1.5,0,0,1-1.5-1.482l-.005-.624c0-.555.009-1.1.029-1.653a1.5,1.5,0,0,1,1.5-1.452h.054a1.505,1.505,0,0,1,1.45,1.556q-.026.77-.026,1.54l.005.589a1.505,1.505,0,0,1-1.483,1.525Zm93.018-5.167a1.5,1.5,0,0,1-1.494-1.355q-.108-1.06-.263-2.114a1.5,1.5,0,1,1,2.975-.442q.168,1.124.281,2.256a1.505,1.505,0,0,1-1.5,1.654Zm-92.163-4.322a1.505,1.505,0,0,1-1.479-1.793q.219-1.112.489-2.221a1.5,1.5,0,0,1,2.922.718q-.253,1.037-.457,2.08A1.5,1.5,0,0,1,1511.294,731.392Zm90.257-5.015a1.5,1.5,0,0,1-1.435-1.054c-.213-.677-.441-1.352-.685-2.018a1.5,1.5,0,0,1,2.827-1.032q.389,1.067.729,2.152a1.5,1.5,0,0,1-1.435,1.953Zm-87.483-4.1a1.484,1.484,0,0,1-.582-.118,1.5,1.5,0,0,1-.8-1.969q.438-1.043.93-2.072a1.5,1.5,0,0,1,2.714,1.294q-.461.965-.871,1.944A1.506,1.506,0,0,1,1514.067,722.279Zm83.728-4.657a1.5,1.5,0,0,1-1.316-.773q-.517-.931-1.079-1.838a1.5,1.5,0,1,1,2.557-1.585q.6.969,1.152,1.961a1.5,1.5,0,0,1-1.314,2.235Zm-79.163-3.707a1.5,1.5,0,0,1-1.24-2.354q.646-.942,1.328-1.843a1.5,1.5,0,1,1,2.4,1.815q-.64.846-1.245,1.73A1.5,1.5,0,0,1,1518.632,713.916Zm73.7-4.1a1.5,1.5,0,0,1-1.138-.52q-.7-.806-1.434-1.58a1.5,1.5,0,1,1,2.18-2.072q.786.825,1.527,1.683a1.5,1.5,0,0,1-1.136,2.489Zm-67.542-3.165a1.5,1.5,0,0,1-1.041-2.59q.823-.789,1.678-1.535a1.5,1.5,0,1,1,1.979,2.264q-.8.7-1.575,1.442A1.5,1.5,0,0,1,1524.8,706.647Zm7.524-5.854a1.5,1.5,0,0,1-.8-2.78q.967-.6,1.956-1.16a1.5,1.5,0,0,1,1.473,2.624q-.931.523-1.836,1.088A1.5,1.5,0,0,1,1532.319,700.793Zm47.448-1.2a1.5,1.5,0,0,1-.733-.19c-.587-.329-1.181-.642-1.778-.942a1.5,1.5,0,0,1,1.35-2.689c.636.32,1.269.655,1.895,1a1.5,1.5,0,0,1-.734,2.816Zm-38.9-3a1.5,1.5,0,0,1-.521-2.916q1.065-.393,2.15-.738a1.5,1.5,0,1,1,.908,2.869c-.678.213-1.348.445-2.014.691A1.521,1.521,0,0,1,1540.871,696.6Zm30.265-.735a1.514,1.514,0,0,1-.456-.07q-1.016-.325-2.043-.6a1.5,1.5,0,1,1,.773-2.906q1.1.291,2.183.636a1.5,1.5,0,0,1-.457,2.939Zm-21.041-1.647a1.5,1.5,0,0,1-.223-2.991q1.124-.168,2.251-.288a1.522,1.522,0,0,1,1.653,1.34,1.5,1.5,0,0,1-1.339,1.653q-1.059.112-2.115.271A1.545,1.545,0,0,1,1550.1,694.213Zm11.715-.291q-.077,0-.155-.008c-.708-.072-1.416-.127-2.123-.165a1.5,1.5,0,1,1,.16-3q1.133.062,2.267.176a1.5,1.5,0,0,1-.15,3Z" transform="translate(-1508.929 -690.746)" fill="#74a839"/>
        </g>
      </g>
      <g id="Grupo_1730" data-name="Grupo 1730" transform="translate(1578.941 709.563)">
        <g id="Grupo_1729" data-name="Grupo 1729">
          <path id="Trazado_3018" data-name="Trazado 3018" d="M1564.6,712.26a1.5,1.5,0,0,1-1.25-2.338c2.229-3.341,8.132-5.385,8.8-5.606a1.5,1.5,0,0,1,.953,2.853c-1.54.515-5.843,2.314-7.248,4.422A1.5,1.5,0,0,1,1564.6,712.26Z" transform="translate(-1563.095 -704.238)" fill="#74a839"/>
        </g>
      </g>
      <g id="Grupo_1732" data-name="Grupo 1732" transform="translate(1548.859 728.293)">
        <g id="Grupo_1731" data-name="Grupo 1731">
          <path id="Trazado_3019" data-name="Trazado 3019" d="M1550.735,726.456a1.5,1.5,0,0,1-1.157-.541c-4.264-5.118-8.27-3.593-8.313-3.577a1.5,1.5,0,1,1-1.117-2.792c.244-.1,6.092-2.335,11.742,4.444a1.5,1.5,0,0,1-1.155,2.466Z" transform="translate(-1539.201 -719.114)" fill="#74a839"/>
        </g>
      </g>
    </g>
  </g>
</svg>
