<svg xmlns="http://www.w3.org/2000/svg" xmlns:xlink="http://www.w3.org/1999/xlink" width="227" height="216" viewBox="0 0 227 216">
  <defs>
    <filter id="Image" x="0" y="0" width="227" height="216" filterUnits="userSpaceOnUse">
      <feOffset dy="5" input="SourceAlpha"/>
      <feGaussianBlur stdDeviation="2.5" result="blur"/>
      <feFlood flood-opacity="0.161"/>
      <feComposite operator="in" in2="blur"/>
      <feComposite in="SourceGraphic"/>
    </filter>
  </defs>
  <g id="Grupo_455" data-name="Grupo 455" transform="translate(-498.072 -3328.518)">
    <g transform="matrix(1, 0, 0, 1, 498.07, 3328.52)" filter="url(#Image)">
      <g id="Image-2" data-name="Image" transform="translate(7.5 2.5)" fill="#fff" stroke="#a2e2ff" stroke-width="6">
        <rect width="212" height="201" rx="100.5" stroke="none"/>
        <rect x="3" y="3" width="206" height="195" rx="97.5" fill="none"/>
      </g>
    </g>
    <g id="Grupo_1719" data-name="Grupo 1719" transform="translate(-710.009 2696.85)">
      <g id="Grupo_1717" data-name="Grupo 1717" transform="translate(1266.805 683.678)">
        <g id="Grupo_1694" data-name="Grupo 1694" transform="translate(29.071 12.185)">
          <g id="Grupo_1693" data-name="Grupo 1693">
            <path id="Trazado_2999" data-name="Trazado 2999" d="M1327.9,751.429c-13.3,0-26.707-3.827-35.268-11.484a1.413,1.413,0,0,1-.4-1.511l14.689-43.17a1.416,1.416,0,0,1,2.253-.626c8.858,7.486,28.748,7.511,36.69.05a1.415,1.415,0,0,1,2.309.576l14.689,43.17a1.42,1.42,0,0,1-.366,1.484C1354.411,747.59,1341.212,751.429,1327.9,751.429Zm-32.678-12.984c15.964,13.4,49.57,13.412,64.666.028l-13.734-40.361c-9.2,6.653-27.311,6.634-37.18-.08Z" transform="translate(-1292.161 -694.306)" fill="#74a839"/>
          </g>
        </g>
        <g id="Grupo_1696" data-name="Grupo 1696">
          <g id="Grupo_1695" data-name="Grupo 1695">
            <path id="Trazado_3000" data-name="Trazado 3000" d="M1369.307,763.2h-60.255a1.416,1.416,0,1,1,0-2.832h60.255a4.4,4.4,0,0,0,4.391-4.391v-64.83a4.4,4.4,0,0,0-4.391-4.391h-95.03a4.4,4.4,0,0,0-4.39,4.391v61.2a1.416,1.416,0,0,1-2.832,0v-61.2a7.23,7.23,0,0,1,7.222-7.222h95.03a7.232,7.232,0,0,1,7.223,7.222v64.83A7.232,7.232,0,0,1,1369.307,763.2Z" transform="translate(-1266.769 -683.641)" fill="#74a839"/>
            <path id="Trazado_3001" data-name="Trazado 3001" d="M1369.344,763.527h-60.255a1.7,1.7,0,0,1,0-3.405h60.255a4.11,4.11,0,0,0,4.106-4.1v-64.83a4.11,4.11,0,0,0-4.106-4.1h-95.029a4.109,4.109,0,0,0-4.1,4.1v61.2a1.7,1.7,0,0,1-3.405,0v-61.2a7.519,7.519,0,0,1,7.51-7.51h95.029a7.518,7.518,0,0,1,7.509,7.51v64.83A7.518,7.518,0,0,1,1369.344,763.527Zm-60.255-2.832a1.129,1.129,0,0,0,0,2.259h60.255a6.943,6.943,0,0,0,6.935-6.936v-64.83a6.943,6.943,0,0,0-6.935-6.937h-95.029a6.944,6.944,0,0,0-6.936,6.937v61.2a1.129,1.129,0,0,0,2.259,0v-61.2a4.683,4.683,0,0,1,4.678-4.678h95.029a4.684,4.684,0,0,1,4.679,4.678v64.83a4.684,4.684,0,0,1-4.679,4.678Z" transform="translate(-1266.805 -683.678)" fill="#74a839"/>
          </g>
        </g>
        <g id="Grupo_1698" data-name="Grupo 1698" transform="translate(12.555 13.5)">
          <g id="Grupo_1697" data-name="Grupo 1697">
            <path id="Trazado_3002" data-name="Trazado 3002" d="M1279.172,739.808a1.415,1.415,0,0,1-1.416-1.415V696.868a1.415,1.415,0,0,1,2.831,0v41.526A1.414,1.414,0,0,1,1279.172,739.808Z" transform="translate(-1277.756 -695.453)" fill="#74a839"/>
          </g>
        </g>
        <g id="Grupo_1700" data-name="Grupo 1700" transform="translate(14.443 21.05)">
          <g id="Grupo_1699" data-name="Grupo 1699">
            <path id="Trazado_3003" data-name="Trazado 3003" d="M1288.368,704.869h-7.55a1.415,1.415,0,1,1,0-2.831h7.55a1.415,1.415,0,1,1,0,2.831Z" transform="translate(-1279.402 -702.038)" fill="#74a839"/>
          </g>
        </g>
        <g id="Grupo_1702" data-name="Grupo 1702" transform="translate(14.443 32.375)">
          <g id="Grupo_1701" data-name="Grupo 1701">
            <path id="Trazado_3004" data-name="Trazado 3004" d="M1288.368,714.747h-7.55a1.415,1.415,0,1,1,0-2.831h7.55a1.415,1.415,0,1,1,0,2.831Z" transform="translate(-1279.402 -711.916)" fill="#74a839"/>
          </g>
        </g>
        <g id="Grupo_1704" data-name="Grupo 1704" transform="translate(14.443 43.699)">
          <g id="Grupo_1703" data-name="Grupo 1703">
            <path id="Trazado_3005" data-name="Trazado 3005" d="M1288.368,724.625h-7.55a1.416,1.416,0,0,1,0-2.832h7.55a1.416,1.416,0,1,1,0,2.832Z" transform="translate(-1279.402 -721.793)" fill="#74a839"/>
          </g>
        </g>
        <g id="Grupo_1706" data-name="Grupo 1706" transform="translate(12.555 55.025)">
          <g id="Grupo_1705" data-name="Grupo 1705">
            <path id="Trazado_3006" data-name="Trazado 3006" d="M1288.609,734.5h-9.437a1.415,1.415,0,1,1,0-2.831h9.437a1.415,1.415,0,1,1,0,2.831Z" transform="translate(-1277.756 -731.671)" fill="#74a839"/>
          </g>
        </g>
        <g id="Grupo_1708" data-name="Grupo 1708" transform="translate(17.588 70.552)">
          <g id="Grupo_1707" data-name="Grupo 1707">
            <path id="Trazado_3007" data-name="Trazado 3007" d="M1329.235,776.838a1.388,1.388,0,0,1-.348-.044l-27.725-6.99c-2.107-.659-3.988,1.119-6.625,3.905a1.415,1.415,0,0,1-1.452.377l-9.08-2.848a1.414,1.414,0,0,1-.839-.71c-1.579-3.114-1.332-7.7.775-14.417,1.728-5.51,4.12-9.119,7.11-10.729a1.416,1.416,0,0,1,1.094-.1l9.08,2.847a1.414,1.414,0,0,1,.992,1.334c.058,5.479.772,7.733,2.631,8.317l26.828,10.118a1.416,1.416,0,0,1,.852,1.748l-1.944,6.2A1.417,1.417,0,0,1,1329.235,776.838Zm-29.009-10.026a5.672,5.672,0,0,1,1.706.268l26.352,6.643,1.144-3.651-25.5-9.62c-3.8-1.188-4.411-5.448-4.521-9.931l-7.5-2.35c-1.55,1.042-3.578,3.417-5.263,8.787-1.72,5.483-2.108,9.344-1.181,11.771l7.628,2.393C1295.151,768.969,1297.444,766.812,1300.226,766.812Z" transform="translate(-1282.145 -745.214)" fill="#74a839"/>
          </g>
        </g>
        <g id="Grupo_1710" data-name="Grupo 1710" transform="translate(22.704 76.731)">
          <g id="Grupo_1709" data-name="Grupo 1709">
            <path id="Trazado_3008" data-name="Trazado 3008" d="M1288.025,771.4a1.45,1.45,0,0,1-.443-.071,1.416,1.416,0,0,1-.9-1.787l5.894-17.96a1.415,1.415,0,1,1,2.69.883l-5.894,17.96A1.415,1.415,0,0,1,1288.025,771.4Z" transform="translate(-1286.608 -750.603)" fill="#74a839"/>
          </g>
        </g>
        <g id="Grupo_1712" data-name="Grupo 1712" transform="translate(65.405 81.448)">
          <g id="Grupo_1711" data-name="Grupo 1711">
            <path id="Trazado_3009" data-name="Trazado 3009" d="M1350.227,776.744c-10.613,0-23.308-3.557-25.353-4.149a1.416,1.416,0,0,1,.789-2.719c7.916,2.3,29.706,7.007,35.41,1.3.847-.847.883-1.214.883-1.219-.5-.749-4.993-1.38-7.965-1.8-5.344-.752-11.4-1.605-15.352-4.24-2.1-1.4-2.264-2.783-2.034-3.7.893-3.552,10.344-4.968,15.9-5.5a1.415,1.415,0,1,1,.268,2.818c-6.422.612-12.552,2.137-13.378,3.308a2.955,2.955,0,0,0,.817.711c3.415,2.277,9.382,3.117,14.175,3.793,5.691.8,9.451,1.331,10.266,3.765.621,1.861-1.032,3.515-1.577,4.059C1360.419,775.836,1355.588,776.744,1350.227,776.744Z" transform="translate(-1323.852 -754.718)" fill="#74a839"/>
          </g>
        </g>
        <g id="Grupo_1714" data-name="Grupo 1714" transform="translate(8.031 72.789)">
          <g id="Grupo_1713" data-name="Grupo 1713">
            <path id="Trazado_3010" data-name="Trazado 3010" d="M1276.78,761.806a1.415,1.415,0,0,1-1.122-.55,8.817,8.817,0,0,1,5.391-14.067,1.416,1.416,0,0,1,.51,2.786,5.984,5.984,0,0,0-3.66,9.55,1.415,1.415,0,0,1-1.119,2.28Z" transform="translate(-1273.81 -747.166)" fill="#74a839"/>
          </g>
        </g>
        <g id="Grupo_1716" data-name="Grupo 1716" transform="translate(1.85 66.732)">
          <g id="Grupo_1715" data-name="Grupo 1715">
            <path id="Trazado_3011" data-name="Trazado 3011" d="M1272.732,766.427a1.411,1.411,0,0,1-1.116-.542,14.906,14.906,0,0,1-2.276-14.391,15.089,15.089,0,0,1,11.268-9.586,1.416,1.416,0,0,1,.534,2.781,12.239,12.239,0,0,0-9.143,7.776,12.1,12.1,0,0,0,1.846,11.674,1.415,1.415,0,0,1-1.113,2.288Z" transform="translate(-1268.419 -741.882)" fill="#74a839"/>
          </g>
        </g>
      </g>
      <g id="Grupo_1718" data-name="Grupo 1718" transform="translate(1318.193 714.783)">
        <path id="Trazado_3012" data-name="Trazado 3012" d="M1337.669,716.776a60.612,60.612,0,0,1-19.783-5.9,7.31,7.31,0,0,0-6.175,6.077,7.2,7.2,0,0,0,2.6,6.713l9.045,7.367a3.662,3.662,0,0,0,4.94-.288l7.152-7.365A7.22,7.22,0,0,0,1337.669,716.776Zm-12.943,5.635h-.044l.022-.025Z" transform="translate(-1311.626 -710.808)" fill="#74a839"/>
      </g>
    </g>
  </g>
</svg>
