<svg xmlns="http://www.w3.org/2000/svg" xmlns:xlink="http://www.w3.org/1999/xlink" width="227" height="216" viewBox="0 0 227 216">
  <defs>
    <filter id="Image" x="0" y="0" width="227" height="216" filterUnits="userSpaceOnUse">
      <feOffset dy="5" input="SourceAlpha"/>
      <feGaussianBlur stdDeviation="2.5" result="blur"/>
      <feFlood flood-opacity="0.161"/>
      <feComposite operator="in" in2="blur"/>
      <feComposite in="SourceGraphic"/>
    </filter>
  </defs>
  <g id="Grupo_455" data-name="Grupo 455" transform="translate(-498.072 -3328.518)">
    <g transform="matrix(1, 0, 0, 1, 498.07, 3328.52)" filter="url(#Image)">
      <g id="Image-2" data-name="Image" transform="translate(7.5 2.5)" fill="#fff" stroke="#a2e2ff" stroke-width="6">
        <rect width="212" height="201" rx="100.5" stroke="none"/>
        <rect x="3" y="3" width="206" height="195" rx="97.5" fill="none"/>
      </g>
    </g>
    <g id="Grupo_1733" data-name="Grupo 1733" transform="translate(-1172.971 2698.34)">
      <g id="Grupo_1734" data-name="Grupo 1734" transform="translate(1731.543 683.678)">
        <g id="Grupo_1733-2" data-name="Grupo 1733">
          <path id="Trazado_3020" data-name="Trazado 3020" d="M1830.283,760.287h-58.039a1.364,1.364,0,1,1,0-2.728h58.039a4.235,4.235,0,0,0,4.23-4.23V690.885a4.235,4.235,0,0,0-4.23-4.23h-91.534a4.235,4.235,0,0,0-4.23,4.23v58.948a1.363,1.363,0,0,1-2.727,0V690.885a6.965,6.965,0,0,1,6.956-6.956h91.534a6.965,6.965,0,0,1,6.957,6.956V753.33A6.966,6.966,0,0,1,1830.283,760.287Z" transform="translate(-1731.517 -683.652)" fill="#74a839"/>
          <path id="Trazado_3021" data-name="Trazado 3021" d="M1830.31,760.59h-58.039a1.64,1.64,0,0,1,0-3.28h58.039a3.959,3.959,0,0,0,3.953-3.954V690.911a3.959,3.959,0,0,0-3.953-3.954h-91.534a3.958,3.958,0,0,0-3.954,3.954V749.86a1.639,1.639,0,0,1-3.279,0V690.911a7.242,7.242,0,0,1,7.232-7.233h91.534a7.243,7.243,0,0,1,7.233,7.233v62.445A7.243,7.243,0,0,1,1830.31,760.59Zm-58.039-2.728a1.088,1.088,0,0,0,0,2.176h58.039a6.689,6.689,0,0,0,6.681-6.681V690.911a6.689,6.689,0,0,0-6.681-6.681h-91.534a6.689,6.689,0,0,0-6.68,6.681V749.86a1.087,1.087,0,0,0,2.174,0V690.911a4.511,4.511,0,0,1,4.506-4.506h91.534a4.51,4.51,0,0,1,4.506,4.506v62.445a4.51,4.51,0,0,1-4.506,4.506Z" transform="translate(-1731.543 -683.678)" fill="#74a839"/>
        </g>
      </g>
      <g id="Grupo_1736" data-name="Grupo 1736" transform="translate(1743.637 696.682)">
        <g id="Grupo_1735" data-name="Grupo 1735">
          <path id="Trazado_3022" data-name="Trazado 3022" d="M1743.857,738.177a1.362,1.362,0,0,1-1.363-1.363v-40a1.363,1.363,0,0,1,2.727,0v40A1.363,1.363,0,0,1,1743.857,738.177Z" transform="translate(-1742.494 -695.453)" fill="#74a839"/>
        </g>
      </g>
      <g id="Grupo_1738" data-name="Grupo 1738" transform="translate(1745.454 703.954)">
        <g id="Grupo_1737" data-name="Grupo 1737">
          <path id="Trazado_3023" data-name="Trazado 3023" d="M1752.776,704.765H1745.5a1.363,1.363,0,1,1,0-2.727h7.272a1.363,1.363,0,1,1,0,2.727Z" transform="translate(-1744.14 -702.038)" fill="#74a839"/>
        </g>
      </g>
      <g id="Grupo_1740" data-name="Grupo 1740" transform="translate(1745.454 714.862)">
        <g id="Grupo_1739" data-name="Grupo 1739">
          <path id="Trazado_3024" data-name="Trazado 3024" d="M1752.776,714.643H1745.5a1.363,1.363,0,1,1,0-2.727h7.272a1.363,1.363,0,1,1,0,2.727Z" transform="translate(-1744.14 -711.916)" fill="#74a839"/>
        </g>
      </g>
      <g id="Grupo_1742" data-name="Grupo 1742" transform="translate(1745.454 725.77)">
        <g id="Grupo_1741" data-name="Grupo 1741">
          <path id="Trazado_3025" data-name="Trazado 3025" d="M1752.776,724.521H1745.5a1.364,1.364,0,1,1,0-2.728h7.272a1.364,1.364,0,1,1,0,2.728Z" transform="translate(-1744.14 -721.793)" fill="#74a839"/>
        </g>
      </g>
      <g id="Grupo_1744" data-name="Grupo 1744" transform="translate(1743.637 736.679)">
        <g id="Grupo_1743" data-name="Grupo 1743">
          <path id="Trazado_3026" data-name="Trazado 3026" d="M1752.948,734.4h-9.091a1.363,1.363,0,0,1,0-2.727h9.091a1.363,1.363,0,1,1,0,2.727Z" transform="translate(-1742.494 -731.671)" fill="#74a839"/>
        </g>
      </g>
      <g id="Grupo_1746" data-name="Grupo 1746" transform="translate(1748.484 751.635)">
        <g id="Grupo_1745" data-name="Grupo 1745">
          <path id="Trazado_3027" data-name="Trazado 3027" d="M1792.24,775.675a1.335,1.335,0,0,1-.335-.042L1765.2,768.9c-2.029-.635-3.84,1.078-6.38,3.761a1.363,1.363,0,0,1-1.4.363l-8.746-2.743a1.363,1.363,0,0,1-.808-.684c-1.521-3-1.284-7.412.746-13.887,1.664-5.307,3.969-8.784,6.849-10.334a1.363,1.363,0,0,1,1.054-.1l8.746,2.742a1.363,1.363,0,0,1,.955,1.285c.056,5.278.743,7.449,2.533,8.011l25.843,9.746a1.364,1.364,0,0,1,.819,1.684l-1.873,5.973A1.362,1.362,0,0,1,1792.24,775.675Zm-27.942-9.657a5.47,5.47,0,0,1,1.643.258l25.381,6.4,1.1-3.516-24.564-9.267c-3.657-1.144-4.248-5.248-4.354-9.566l-7.222-2.264c-1.493,1-3.448,3.291-5.07,8.464-1.655,5.281-2.03,9-1.136,11.338l7.347,2.3C1759.411,768.095,1761.619,766.018,1764.3,766.018Z" transform="translate(-1746.883 -745.214)" fill="#74a839"/>
        </g>
      </g>
      <g id="Grupo_1748" data-name="Grupo 1748" transform="translate(1753.412 757.586)">
        <g id="Grupo_1747" data-name="Grupo 1747">
          <path id="Trazado_3028" data-name="Trazado 3028" d="M1752.71,770.631a1.39,1.39,0,0,1-.425-.068,1.364,1.364,0,0,1-.87-1.722l5.677-17.3a1.363,1.363,0,1,1,2.591.85l-5.677,17.3A1.364,1.364,0,0,1,1752.71,770.631Z" transform="translate(-1751.346 -750.603)" fill="#74a839"/>
        </g>
      </g>
      <g id="Grupo_1750" data-name="Grupo 1750" transform="translate(1794.542 762.13)">
        <g id="Grupo_1749" data-name="Grupo 1749">
          <path id="Trazado_3029" data-name="Trazado 3029" d="M1813.994,775.933c-10.224,0-22.452-3.426-24.421-4a1.364,1.364,0,0,1,.761-2.62c7.625,2.213,28.612,6.75,34.108,1.255.816-.816.849-1.169.849-1.174-.483-.721-4.808-1.33-7.671-1.734-5.147-.724-10.98-1.546-14.787-4.084-2.022-1.347-2.181-2.68-1.959-3.561.86-3.421,9.963-4.785,15.313-5.293a1.363,1.363,0,1,1,.258,2.714c-6.185.59-12.09,2.059-12.886,3.186a2.877,2.877,0,0,0,.787.685c3.29,2.193,9.037,3,13.654,3.653,5.482.772,9.1,1.282,9.888,3.627.6,1.792-.995,3.386-1.518,3.909C1823.811,775.059,1819.158,775.933,1813.994,775.933Z" transform="translate(-1788.59 -754.718)" fill="#74a839"/>
        </g>
      </g>
      <g id="Grupo_1752" data-name="Grupo 1752" transform="translate(1739.279 753.79)">
        <g id="Grupo_1751" data-name="Grupo 1751">
          <path id="Trazado_3030" data-name="Trazado 3030" d="M1741.407,761.267a1.362,1.362,0,0,1-1.08-.53,8.492,8.492,0,0,1,5.192-13.549,1.364,1.364,0,0,1,.492,2.684,5.764,5.764,0,0,0-3.525,9.2,1.363,1.363,0,0,1-1.079,2.2Z" transform="translate(-1738.548 -747.166)" fill="#74a839"/>
        </g>
      </g>
      <g id="Grupo_1754" data-name="Grupo 1754" transform="translate(1733.325 747.955)">
        <g id="Grupo_1753" data-name="Grupo 1753">
          <path id="Trazado_3031" data-name="Trazado 3031" d="M1737.312,765.524a1.359,1.359,0,0,1-1.074-.522,14.361,14.361,0,0,1-2.193-13.862,14.538,14.538,0,0,1,10.853-9.233,1.364,1.364,0,0,1,.516,2.679,11.789,11.789,0,0,0-8.807,7.49,11.647,11.647,0,0,0,1.778,11.244,1.363,1.363,0,0,1-1.072,2.2Z" transform="translate(-1733.156 -741.882)" fill="#74a839"/>
        </g>
      </g>
      <g id="Grupo_1758" data-name="Grupo 1758" transform="translate(1767.125 692.83)">
        <g id="Grupo_1755" data-name="Grupo 1755">
          <path id="Trazado_3032" data-name="Trazado 3032" d="M1791.712,751.641c-1.072-.149-2.151-.266-3.218-.451a29.191,29.191,0,0,1-16.418-8.724,28.478,28.478,0,0,1-8.049-16.635c-1.271-10.493,2.054-19.375,9.908-26.463a28.161,28.161,0,0,1,15.593-7.126,29.9,29.9,0,0,1,33.36,24.017c.2,1.026.282,2.075.423,3.112.025.19.071.375.107.563v3.73a3.379,3.379,0,0,0-.1.451,28.741,28.741,0,0,1-4.837,14.092,29.439,29.439,0,0,1-19.71,12.97c-1.1.205-2.221.31-3.332.463Zm1.86-57.7a27.855,27.855,0,1,0,27.86,27.817A27.881,27.881,0,0,0,1793.571,693.945Z" transform="translate(-1763.763 -691.965)" fill="#74a839"/>
        </g>
        <g id="Grupo_1756" data-name="Grupo 1756" transform="translate(3.939 3.974)">
          <path id="Trazado_3033" data-name="Trazado 3033" d="M1819.048,720.3a25.835,25.835,0,1,1-1.055-6.3A16.21,16.21,0,0,1,1819.048,720.3ZM1792.271,731.3c-1.73,3.186-4.609,4.812-7.831,5.978a.835.835,0,0,1-1.111-.374,1.531,1.531,0,0,1-.011-1.075c.089-.231.462-.372.729-.511,1.218-.635,2.492-1.176,3.649-1.907a8.209,8.209,0,0,0,2.087-1.915c.84-1.1,1.38-2.232.494-3.736a6.9,6.9,0,0,1-.825-5.5.488.488,0,0,0-.243-.411,8.435,8.435,0,0,0-1.974-.4c-3.865-.038-7.731-.018-11.6-.019a1.479,1.479,0,0,1-1.671-1.213c-.147-.441-.257-.895-.4-1.338a1.917,1.917,0,0,0-1.849-1.42,1.793,1.793,0,0,0-1.886,1.173c-1.312,2.781-.091,6.547,4.061,6.788,2.342.136,4.676.41,7.016.6a1.455,1.455,0,0,0,.8-.174c.688-.4,1.336-.865,2.019-1.271a.987.987,0,1,1,1.047,1.672c-.158.114-.327.209-.491.313a48.533,48.533,0,0,0-6.453,4.776,10.536,10.536,0,0,0-2.928,4.677.9.9,0,0,0,.229.983,23.9,23.9,0,0,0,25.553,7.114,7.308,7.308,0,0,0,3.476-2.368,13.331,13.331,0,0,0,3.28-6.573,3.435,3.435,0,0,0-2.052-4.051q-3.643-1.822-7.286-3.642a2.689,2.689,0,0,1-.551-.322.925.925,0,0,1-.254-1.2.966.966,0,0,1,1.181-.485,3.63,3.63,0,0,1,.478.212q3.151,1.574,6.3,3.147c1.265.629,2.584,1.178,3.319,2.39l1.682-1.034c.973-.6,1.978-1.156,2.913-1.811a8.077,8.077,0,0,0,3.559-5.494,14.158,14.158,0,0,0-.587-7.739,8.647,8.647,0,0,0-7.527-5.564,9.474,9.474,0,0,0-10.4,10.355.784.784,0,0,0,.531.726c.836.406,1.652.856,2.454,1.327.664.391.836.993.49,1.5s-.887.528-1.543.176a34.726,34.726,0,0,0-3.167-1.588,6.772,6.772,0,0,0-3.98-.544,1.962,1.962,0,0,0-1.772,2.042,5.256,5.256,0,0,0,.07,1.1,11.7,11.7,0,0,0,1.907,4.4,36.193,36.193,0,0,0,5.709,6.587c.559.528.626,1.139.2,1.577a1.026,1.026,0,0,1-1.543-.114c-.956-.938-1.916-1.875-2.818-2.864C1793.9,733.306,1793.109,732.3,1792.271,731.3Zm-22.194-15.617a9.385,9.385,0,0,1,1.125-.2c2.338-.118,3.776.957,4.416,3.349a.7.7,0,0,0,.824.622c3.728-.018,7.458,0,11.187,0a.871.871,0,0,0,.4-.044,8.622,8.622,0,0,0,3.7-3.187,3.855,3.855,0,0,0-.4-4.362,11.221,11.221,0,0,0-1.345-1.284,7.044,7.044,0,0,1-2.494-3.9,9.586,9.586,0,0,1,1.823-8.291l.367-.477C1781.457,698.783,1772.421,705.581,1770.078,715.678Zm26.1,4.03c.009-4.563,1.712-8.194,5.6-10.545s7.861-2.167,11.886.043c-.1-.188-.127-.258-.168-.322a23.891,23.891,0,0,0-18.488-11.285,4.142,4.142,0,0,0-3.643,1.447c-.082.083-.16.169-.24.254-2.353,2.51-2.982,7.831.734,10.277a5.534,5.534,0,0,1,2.295,5.373,6.485,6.485,0,0,1-2.415,4.308c-.377.342-.784.65-1.178.975l.048.158A7.046,7.046,0,0,1,1796.181,719.708Zm-22.843,14.905c.978-3.078,3.229-4.963,5.546-6.837-1.646-.188-3.253-.26-4.854-.405a13.68,13.68,0,0,1-2.443-.446,12.593,12.593,0,0,1-1.761-.8A23.312,23.312,0,0,0,1773.338,734.613Zm34.533,5.556a23.615,23.615,0,0,0,8.095-11.552c-.237.2-.358.315-.495.407-1.456.992-2.871,2.052-4.39,2.938a2.439,2.439,0,0,0-1.348,1.811A21.307,21.307,0,0,1,1807.87,740.169Z" transform="translate(-1767.33 -695.564)" fill="#74a839"/>
        </g>
        <g id="Grupo_1757" data-name="Grupo 1757" transform="translate(44.743 28.409)">
          <path id="Trazado_3034" data-name="Trazado 3034" d="M1809.668,719.766a3.1,3.1,0,0,1-1.694,3.013,2.858,2.858,0,0,1-3.124-.312,1.031,1.031,0,0,1-.381-1.5c.354-.5.908-.546,1.526-.125a.993.993,0,0,0,1.406-1.4c-.449-.639-.426-1.143.072-1.527a.976.976,0,0,1,1.5.338A10.42,10.42,0,0,1,1809.668,719.766Z" transform="translate(-1804.278 -717.69)" fill="#74a839"/>
        </g>
      </g>
    </g>
  </g>
</svg>
