<svg xmlns="http://www.w3.org/2000/svg" xmlns:xlink="http://www.w3.org/1999/xlink" width="227" height="216" viewBox="0 0 227 216">
  <defs>
    <filter id="Image" x="0" y="0" width="227" height="216" filterUnits="userSpaceOnUse">
      <feOffset dy="5" input="SourceAlpha"/>
      <feGaussianBlur stdDeviation="2.5" result="blur"/>
      <feFlood flood-opacity="0.161"/>
      <feComposite operator="in" in2="blur"/>
      <feComposite in="SourceGraphic"/>
    </filter>
  </defs>
  <g id="Grupo_455" data-name="Grupo 455" transform="translate(-498.072 -3328.518)">
    <g transform="matrix(1, 0, 0, 1, 498.07, 3328.52)" filter="url(#Image)">
      <g id="Image-2" data-name="Image" transform="translate(7.5 2.5)" fill="#fff" stroke="#a2e2ff" stroke-width="6">
        <rect width="212" height="201" rx="100.5" stroke="none"/>
        <rect x="3" y="3" width="206" height="195" rx="97.5" fill="none"/>
      </g>
    </g>
    <g id="Grupo_1806" data-name="Grupo 1806" transform="translate(-1612.752 2134.296)">
      <g id="Grupo_1802" data-name="Grupo 1802" transform="translate(2148.867 1263.325)">
        <path id="Trazado_3083" data-name="Trazado 3083" d="M2191.735,1264.826h.068a4.683,4.683,0,0,1,4.668,5.221,37.613,37.613,0,0,1-4.078,13.066c-2.965,5.628-7.24,10.2-12,14.673,8.595,7.635,14.738,16.449,16.082,27.679a4.693,4.693,0,0,1-4.67,5.228h0a4.679,4.679,0,0,1-4.652-4.074c-.105-.834-.221-1.666-.364-2.494-.517-3.021-.573-3.012-3.56-3.012-7,0-14.007.031-21.009-.031-1.12-.01-1.607.355-1.768,1.392-.22,1.415-.447,2.829-.677,4.26a4.7,4.7,0,0,1-4.635,3.947h-.072a4.692,4.692,0,0,1-4.671-5.22c1.324-11.16,7.439-19.977,16.137-27.7-8.633-7.66-14.781-16.478-16.135-27.707a4.692,4.692,0,0,1,4.669-5.232h.08a4.7,4.7,0,0,1,4.641,3.99c.2,1.258.385,2.518.552,3.78.193,1.461.871,1.866,2.357,1.848,7.261-.092,14.525-.077,21.787-.008,1.234.011,1.789-.389,1.966-1.54.21-1.366.426-2.732.647-4.113A4.7,4.7,0,0,1,2191.735,1264.826Zm-17.433,25.937,6.01-6.216a.393.393,0,0,0-.277-.667h-13.642a.391.391,0,0,0-.262.681l6.9,6.24A.915.915,0,0,0,2174.3,1290.763Zm-8.093,20.672.179.234,14.183-.069h0a.486.486,0,0,0-.058-.649l-6.462-5.984a.979.979,0,0,0-1.324-.007l-6.458,5.819A.484.484,0,0,0,2166.209,1311.434Z" transform="translate(-2149.14 -1263.598)" fill="#74a839"/>
        <path id="Trazado_3084" data-name="Trazado 3084" d="M2191.534,1331.647a5.913,5.913,0,0,1-5.87-5.147c-.119-.944-.232-1.719-.357-2.439a8.462,8.462,0,0,0-.446-1.92,11.032,11.032,0,0,0-1.876-.073l-5.279,0c-5.165.006-10.509.012-15.769-.035a1.872,1.872,0,0,0-.479.048c0,.013-.034.1-.065.306-.222,1.418-.447,2.834-.679,4.267a5.9,5.9,0,0,1-5.845,4.977,5.982,5.982,0,0,1-4.514-2,5.88,5.88,0,0,1-1.448-4.594c1.188-10.009,6.27-19.034,15.526-27.555-9.23-8.492-14.312-17.52-15.523-27.559a5.964,5.964,0,0,1,11.82-1.578c.2,1.269.386,2.536.555,3.809.093.7.11.784,1.125.781,6.527-.082,13.661-.086,21.815-.008a1.45,1.45,0,0,0,.619-.079h0a1.037,1.037,0,0,0,.122-.42c.211-1.368.428-2.736.648-4.121a5.9,5.9,0,0,1,5.848-4.988h.068a5.949,5.949,0,0,1,4.456,2.008,5.853,5.853,0,0,1,1.43,4.59,39.082,39.082,0,0,1-4.209,13.488c-2.967,5.63-7.123,10.106-11.279,14.081,9.22,8.488,14.293,17.513,15.495,27.554a5.92,5.92,0,0,1-5.887,6.6Zm-8.576-12.033c3.625,0,4.156.452,4.769,4.032.13.756.249,1.566.372,2.546a3.472,3.472,0,0,0,6.042,1.828,3.385,3.385,0,0,0,.844-2.682c-1.186-9.909-6.168-18.459-15.678-26.907l-1-.892.977-.919c4.315-4.058,8.725-8.6,11.753-14.352a36.625,36.625,0,0,0,3.947-12.645,3.358,3.358,0,0,0-.833-2.664,3.5,3.5,0,0,0-2.618-1.179h-.068a3.451,3.451,0,0,0-3.424,2.92c-.22,1.381-.435,2.745-.646,4.109a2.811,2.811,0,0,1-3.134,2.58h-.056c-8.135-.078-15.254-.075-21.76.008-1.368-.011-3.238-.266-3.588-2.913-.166-1.254-.354-2.5-.547-3.755a3.459,3.459,0,0,0-3.43-2.95,3.532,3.532,0,0,0-2.687,1.175,3.381,3.381,0,0,0-.843,2.684c1.2,9.916,6.195,18.475,15.73,26.935l1.035.918-1.034.918c-9.561,8.489-14.562,17.045-15.734,26.926a3.378,3.378,0,0,0,.845,2.676,3.53,3.53,0,0,0,6.1-1.741c.23-1.429.457-2.841.676-4.253a2.648,2.648,0,0,1,2.947-2.431h.045c5.245.046,10.583.04,15.745.035Zm-17.444-6.99-.55-.714a1.719,1.719,0,0,1,.213-2.319l6.457-5.817a2.2,2.2,0,0,1,2.977.019l6.464,5.985a1.708,1.708,0,0,1,.205,2.285l-.367.487Zm7.595-6.877-4.895,4.41,9.608-.047Zm.269-13.75a2.14,2.14,0,0,1-1.441-.561l-6.9-6.24a1.617,1.617,0,0,1,1.084-2.816h13.641a1.619,1.619,0,0,1,1.16,2.745l-6.01,6.218A2.126,2.126,0,0,1,2173.378,1292Zm-5.085-7.163,5.068,4.581,4.43-4.582Z" transform="translate(-2148.867 -1263.325)" fill="#fff"/>
      </g>
      <g id="Grupo_1803" data-name="Grupo 1803" transform="translate(2250.623 1263.325)">
        <path id="Trazado_3085" data-name="Trazado 3085" d="M2316.135,1264.826h.069a4.682,4.682,0,0,1,4.667,5.221,37.623,37.623,0,0,1-4.078,13.066c-2.966,5.628-7.24,10.2-12,14.673,8.594,7.635,14.738,16.449,16.082,27.679a4.693,4.693,0,0,1-4.67,5.228h0a4.68,4.68,0,0,1-4.652-4.074c-.1-.834-.221-1.666-.363-2.494-.518-3.021-.573-3.012-3.56-3.012-7,0-14.007.031-21.01-.031-1.12-.01-1.606.355-1.769,1.392-.22,1.415-.446,2.829-.677,4.26a4.7,4.7,0,0,1-4.635,3.947h-.072a4.692,4.692,0,0,1-4.671-5.22c1.324-11.16,7.439-19.977,16.138-27.7-8.635-7.66-14.781-16.478-16.136-27.707a4.693,4.693,0,0,1,4.669-5.232h.08a4.7,4.7,0,0,1,4.642,3.99c.2,1.258.383,2.518.55,3.78.193,1.461.871,1.866,2.357,1.848,7.262-.092,14.525-.077,21.787-.008,1.233.011,1.789-.389,1.966-1.54.211-1.366.427-2.732.647-4.113A4.694,4.694,0,0,1,2316.135,1264.826Zm-17.432,25.937,6.009-6.216a.393.393,0,0,0-.276-.667h-13.641a.391.391,0,0,0-.263.681l6.9,6.24A.915.915,0,0,0,2298.7,1290.763Zm-8.094,20.672.18.234,14.182-.069h0a.486.486,0,0,0-.057-.649c-2.176-2.014-4.348-4.026-6.463-5.984a.977.977,0,0,0-1.323-.007l-6.458,5.819A.485.485,0,0,0,2290.609,1311.434Z" transform="translate(-2273.541 -1263.598)" fill="#74a839"/>
        <path id="Trazado_3086" data-name="Trazado 3086" d="M2315.934,1331.647a5.912,5.912,0,0,1-5.869-5.147c-.119-.944-.232-1.719-.356-2.439a8.582,8.582,0,0,0-.446-1.92,11.038,11.038,0,0,0-1.876-.073l-5.279,0c-5.167.006-10.51.012-15.77-.035a1.959,1.959,0,0,0-.479.048c0,.013-.034.1-.065.306-.221,1.418-.448,2.834-.679,4.267a5.9,5.9,0,0,1-5.844,4.977,5.985,5.985,0,0,1-4.515-2,5.877,5.877,0,0,1-1.447-4.594c1.188-10.009,6.27-19.034,15.525-27.555-9.23-8.492-14.312-17.52-15.523-27.559a5.883,5.883,0,0,1,1.442-4.6,5.987,5.987,0,0,1,10.377,3.028c.2,1.268.386,2.536.555,3.808.093.7.1.8,1.125.781,6.526-.082,13.662-.086,21.814-.008a1.424,1.424,0,0,0,.618-.079h0a1.015,1.015,0,0,0,.123-.421c.211-1.368.427-2.735.648-4.12a5.893,5.893,0,0,1,5.847-4.988h.068a5.948,5.948,0,0,1,4.456,2.008,5.851,5.851,0,0,1,1.429,4.59,39.056,39.056,0,0,1-4.209,13.488c-2.967,5.63-7.123,10.106-11.278,14.081,9.22,8.488,14.292,17.513,15.494,27.554a5.886,5.886,0,0,1-1.445,4.6A5.948,5.948,0,0,1,2315.934,1331.647Zm-8.574-12.033c3.624,0,4.156.452,4.769,4.032.129.756.248,1.566.372,2.546a3.454,3.454,0,0,0,3.434,3,3.49,3.49,0,0,0,2.608-1.173,3.393,3.393,0,0,0,.844-2.682c-1.186-9.909-6.168-18.459-15.679-26.907l-1-.892.979-.919c4.314-4.058,8.725-8.6,11.753-14.352a36.64,36.64,0,0,0,3.946-12.645,3.357,3.357,0,0,0-.833-2.664,3.5,3.5,0,0,0-2.617-1.179h-.068a3.45,3.45,0,0,0-3.423,2.92c-.221,1.381-.436,2.745-.646,4.109a2.813,2.813,0,0,1-3.135,2.58h-.056c-8.135-.078-15.254-.075-21.76.008-1.351.015-3.24-.266-3.589-2.914-.165-1.253-.353-2.5-.547-3.753a3.458,3.458,0,0,0-3.428-2.951,3.532,3.532,0,0,0-2.688,1.175,3.386,3.386,0,0,0-.843,2.684c1.2,9.916,6.194,18.475,15.731,26.935l1.034.918-1.033.918c-9.562,8.489-14.561,17.045-15.734,26.926a3.386,3.386,0,0,0,.845,2.676,3.53,3.53,0,0,0,6.1-1.741c.231-1.429.456-2.841.676-4.253a2.647,2.647,0,0,1,2.946-2.431h.046c5.245.046,10.582.04,15.745.035Zm-17.445-6.99-.55-.714a1.72,1.72,0,0,1,.212-2.319l6.457-5.817a2.2,2.2,0,0,1,2.978.019l6.463,5.985a1.708,1.708,0,0,1,.205,2.285l-.365.487Zm7.6-6.877-4.9,4.41,9.608-.047Zm.269-13.751a2.14,2.14,0,0,1-1.442-.56l-6.9-6.24a1.617,1.617,0,0,1,1.085-2.816h13.641a1.619,1.619,0,0,1,1.16,2.745l-6.01,6.22A2.128,2.128,0,0,1,2297.779,1292Zm-5.085-7.162,5.067,4.581,4.43-4.582Z" transform="translate(-2273.268 -1263.325)" fill="#fff"/>
      </g>
      <g id="Grupo_1804" data-name="Grupo 1804" transform="translate(2199.12 1282.339)">
        <rect id="Rect치ngulo_1280" data-name="Rect치ngulo 1280" width="46.571" height="9.148" rx="4.574" transform="translate(1.227 1.227)" fill="#74a839"/>
        <path id="Trazado_3087" data-name="Trazado 3087" d="M2253.543,1298.171H2216.09a5.792,5.792,0,0,1-5.786-5.785v-.03a5.793,5.793,0,0,1,5.786-5.786h37.453a5.8,5.8,0,0,1,0,11.6Zm-37.453-9.147a3.336,3.336,0,0,0-3.332,3.332v.03a3.336,3.336,0,0,0,3.332,3.331h37.453a3.347,3.347,0,0,0,0-6.693Z" transform="translate(-2210.304 -1286.57)" fill="#fff"/>
      </g>
      <g id="Grupo_1805" data-name="Grupo 1805" transform="translate(2199.177 1301.047)">
        <rect id="Rect치ngulo_1281" data-name="Rect치ngulo 1281" width="46.516" height="9.157" rx="4.579" transform="translate(1.227 1.227)" fill="#74a839"/>
        <path id="Trazado_3088" data-name="Trazado 3088" d="M2253.557,1321.053h-37.4a5.805,5.805,0,0,1,0-11.611h37.4a5.792,5.792,0,0,1,5.786,5.785v.04A5.792,5.792,0,0,1,2253.557,1321.053Zm-37.4-9.157a3.352,3.352,0,0,0,0,6.7h37.4a3.336,3.336,0,0,0,3.333-3.332v-.04a3.336,3.336,0,0,0-3.333-3.331Z" transform="translate(-2210.373 -1309.442)" fill="#fff"/>
      </g>
    </g>
  </g>
</svg>
