<svg xmlns="http://www.w3.org/2000/svg" xmlns:xlink="http://www.w3.org/1999/xlink" width="227" height="216" viewBox="0 0 227 216">
  <defs>
    <filter id="Image" x="0" y="0" width="227" height="216" filterUnits="userSpaceOnUse">
      <feOffset dy="5" input="SourceAlpha"/>
      <feGaussianBlur stdDeviation="2.5" result="blur"/>
      <feFlood flood-opacity="0.161"/>
      <feComposite operator="in" in2="blur"/>
      <feComposite in="SourceGraphic"/>
    </filter>
  </defs>
  <g id="Grupo_455" data-name="Grupo 455" transform="translate(-498.072 -3328.518)">
    <g transform="matrix(1, 0, 0, 1, 498.07, 3328.52)" filter="url(#Image)">
      <g id="Image-2" data-name="Image" transform="translate(7.5 2.5)" fill="#fff" stroke="#a2e2ff" stroke-width="6">
        <rect width="212" height="201" rx="100.5" stroke="none"/>
        <rect x="3" y="3" width="206" height="195" rx="97.5" fill="none"/>
      </g>
    </g>
    <g id="Grupo_6282" data-name="Grupo 6282" transform="translate(-734.711 3986.666)">
      <g id="Grupo_6274" data-name="Grupo 6274" transform="translate(1294.738 -609.799)">
        <path id="Trazado_3416" data-name="Trazado 3416" d="M1296.581-581.058a1.836,1.836,0,0,1-.8-.181,1.843,1.843,0,0,1-.866-2.46c.268-.562,6.83-13.782,27.383-15.767.8-.165,9.11-2.053,9.958-8.722a1.854,1.854,0,0,1,2.061-1.6,1.843,1.843,0,0,1,1.6,2.062c-1.227,9.669-12.542,11.815-13.023,11.9-.05.009-.1.016-.154.021-18.571,1.757-24.439,13.577-24.5,13.7A1.843,1.843,0,0,1,1296.581-581.058Z" transform="translate(-1294.738 609.799)" fill="#74a839"/>
      </g>
      <g id="Grupo_6275" data-name="Grupo 6275" transform="translate(1300.905 -578.317)">
        <path id="Trazado_3417" data-name="Trazado 3417" d="M1322.472-531.472a24.73,24.73,0,0,1-13.677-4.1c-9.333-6.405-8.228-19.32-4.082-29.27,4.617-11.081-3.634-15.69-3.987-15.88a1.849,1.849,0,0,1-.756-2.493,1.84,1.84,0,0,1,2.481-.767c.118.062,11.6,6.308,5.668,20.559-3.589,8.614-4.748,19.653,2.764,24.811,6.442,4.417,16.981,5.187,22.4-.717a17.291,17.291,0,0,0,3.526-6.356,1.844,1.844,0,0,1,2.327-1.177,1.842,1.842,0,0,1,1.177,2.326,20.866,20.866,0,0,1-4.314,7.7C1332.578-533.1,1327.577-531.472,1322.472-531.472Z" transform="translate(-1299.754 584.193)" fill="#74a839"/>
      </g>
      <g id="Grupo_6276" data-name="Grupo 6276" transform="translate(1309.073 -530.355)">
        <path id="Trazado_3418" data-name="Trazado 3418" d="M1308.24-515.849a1.825,1.825,0,0,1-1.034-.32,1.846,1.846,0,0,1-.492-2.561c.082-.119,8.069-12.113,4.657-24.1a1.843,1.843,0,0,1,1.269-2.277,1.842,1.842,0,0,1,2.278,1.269c3.891,13.673-4.783,26.639-5.153,27.185A1.842,1.842,0,0,1,1308.24-515.849Z" transform="translate(-1306.397 545.182)" fill="#74a839"/>
      </g>
      <g id="Grupo_6277" data-name="Grupo 6277" transform="translate(1355.82 -609.799)">
        <path id="Trazado_3419" data-name="Trazado 3419" d="M1383.774-581.058a1.844,1.844,0,0,1-1.663-1.044c-.256-.521-6.077-11.957-24.5-13.7-.05,0-.1-.012-.152-.021-.481-.086-11.793-2.233-13.023-11.9a1.844,1.844,0,0,1,1.6-2.063,1.848,1.848,0,0,1,2.063,1.6c.851,6.7,9.144,8.558,9.955,8.723,20.557,1.982,27.117,15.2,27.386,15.767a1.843,1.843,0,0,1-.865,2.46A1.841,1.841,0,0,1,1383.774-581.058Z" transform="translate(-1344.42 609.799)" fill="#74a839"/>
      </g>
      <g id="Grupo_6278" data-name="Grupo 6278" transform="translate(1350.195 -578.317)">
        <path id="Trazado_3420" data-name="Trazado 3420" d="M1357.781-531.472c-5.1,0-10.1-1.63-13.529-5.36a20.858,20.858,0,0,1-4.314-7.7,1.842,1.842,0,0,1,1.177-2.326,1.837,1.837,0,0,1,2.326,1.177,17.282,17.282,0,0,0,3.527,6.356c5.421,5.9,15.958,5.138,22.4.715,7.513-5.155,6.354-16.2,2.765-24.809-5.938-14.251,5.55-20.5,5.668-20.559a1.843,1.843,0,0,1,2.49.773,1.843,1.843,0,0,1-.766,2.487c-.369.2-8.6,4.81-3.986,15.88,4.146,9.951,5.25,22.866-4.083,29.269A24.726,24.726,0,0,1,1357.781-531.472Z" transform="translate(-1339.845 584.193)" fill="#74a839"/>
      </g>
      <g id="Grupo_6279" data-name="Grupo 6279" transform="translate(1373.16 -530.354)">
        <path id="Trazado_3421" data-name="Trazado 3421" d="M1366.2-515.849a1.843,1.843,0,0,1-1.526-.807c-.371-.546-9.044-13.512-5.153-27.185a1.838,1.838,0,0,1,2.277-1.269,1.843,1.843,0,0,1,1.27,2.277c-3.424,12.034,4.574,23.981,4.656,24.1a1.845,1.845,0,0,1-.488,2.562A1.834,1.834,0,0,1,1366.2-515.849Z" transform="translate(-1358.523 545.182)" fill="#74a839"/>
      </g>
      <g id="Grupo_6280" data-name="Grupo 6280" transform="translate(1317.107 -548.564)">
        <circle id="Elipse_116" data-name="Elipse 116" cx="2.873" cy="2.873" r="2.873" transform="translate(1.229 1.229)" fill="#fff"/>
        <path id="Trazado_3422" data-name="Trazado 3422" d="M1317.034-551.789a4.107,4.107,0,0,1-4.1-4.1,4.106,4.106,0,0,1,4.1-4.1,4.105,4.105,0,0,1,4.1,4.1A4.106,4.106,0,0,1,1317.034-551.789Zm0-5.745a1.644,1.644,0,0,0-1.643,1.643,1.645,1.645,0,0,0,1.643,1.644,1.645,1.645,0,0,0,1.643-1.644A1.644,1.644,0,0,0,1317.034-557.534Z" transform="translate(-1312.932 559.993)" fill="#74a839"/>
      </g>
      <g id="Grupo_6281" data-name="Grupo 6281" transform="translate(1362.683 -557.13)">
        <path id="Trazado_3423" data-name="Trazado 3423" d="M1359.139-558.8s4.746-8.276-2.065-8.158c-7.691.134-1.548,8.441-1.548,8.441L1350-548.782l3.1,2.129,4.288-8.1,4.989,8.331,2.957-2.377Zm-.592-4.968-1.37,2.214-1.479-2.593a.923.923,0,0,1,.471-1.3,2.074,2.074,0,0,1,1.948.095A1.132,1.132,0,0,1,1358.547-563.77Z" transform="translate(-1350.002 566.96)" fill="#74a839"/>
      </g>
    </g>
  </g>
</svg>
