<svg xmlns="http://www.w3.org/2000/svg" xmlns:xlink="http://www.w3.org/1999/xlink" width="227" height="216" viewBox="0 0 227 216">
  <defs>
    <filter id="Image" x="0" y="0" width="227" height="216" filterUnits="userSpaceOnUse">
      <feOffset dy="5" input="SourceAlpha"/>
      <feGaussianBlur stdDeviation="2.5" result="blur"/>
      <feFlood flood-opacity="0.161"/>
      <feComposite operator="in" in2="blur"/>
      <feComposite in="SourceGraphic"/>
    </filter>
  </defs>
  <g id="Grupo_455" data-name="Grupo 455" transform="translate(-498.072 -3328.518)">
    <g transform="matrix(1, 0, 0, 1, 498.07, 3328.52)" filter="url(#Image)">
      <g id="Image-2" data-name="Image" transform="translate(7.5 2.5)" fill="#fff" stroke="#a2e2ff" stroke-width="6">
        <rect width="212" height="201" rx="100.5" stroke="none"/>
        <rect x="3" y="3" width="206" height="195" rx="97.5" fill="none"/>
      </g>
    </g>
    <g id="Grupo_1331" data-name="Grupo 1331" transform="translate(-486.108 2974.92)">
      <g id="Grupo_1323" data-name="Grupo 1323" transform="translate(1037.432 396.849)">
        <g id="Grupo_1320" data-name="Grupo 1320">
          <path id="Trazado_2700" data-name="Trazado 2700" d="M1037.432,453.256c.308-2.243.523-4.5.936-6.725a59.223,59.223,0,0,1,25.883-39.569,57.524,57.524,0,0,1,34.482-10.093c17.643.448,32.4,7.372,44.123,20.549a57.3,57.3,0,0,1,14.384,31.575c2.319,18.638-2.849,35.057-15.539,48.929a58.636,58.636,0,0,1-34.171,18.469c-2.035.352-4.1.547-6.149.814h-7.522a6.686,6.686,0,0,0-.9-.194,60.264,60.264,0,0,1-54.623-49.738c-.382-2.15-.6-4.329-.9-6.5Zm4.008,3.752a56.18,56.18,0,1,0,56.237-56.173A56.245,56.245,0,0,0,1041.44,457.008Z" transform="translate(-1037.432 -396.849)" fill="#74a839"/>
        </g>
        <g id="Grupo_1321" data-name="Grupo 1321" transform="translate(28.647 10.054)">
          <path id="Trazado_2701" data-name="Trazado 2701" d="M1090.293,404.367a50,50,0,0,1,49.489,41.756c2.331,14.2-.915,27.1-9.449,38.688a2.126,2.126,0,0,1-2.594,1.05c-1.349-.483-1.7-1.973-.73-3.282a49.383,49.383,0,0,0,5.773-9.917,46.1,46.1,0,0,0-34.549-63.579c-12.871-2.2-24.628.675-35.231,8.286-.318.227-.622.479-.954.685a1.988,1.988,0,0,1-2.8-.463,1.912,1.912,0,0,1,.516-2.79,87.7,87.7,0,0,1,7.724-4.892A48.366,48.366,0,0,1,1090.293,404.367Z" transform="translate(-1058.854 -404.367)" fill="#74a839"/>
        </g>
        <g id="Grupo_1322" data-name="Grupo 1322" transform="translate(9.865 28.628)">
          <path id="Trazado_2702" data-name="Trazado 2702" d="M1044.809,449.757A51.319,51.319,0,0,1,1055,419.748c1.142-1.542,2.228-1.884,3.31-1.048,1.051.813,1.045,1.92-.055,3.4a44.515,44.515,0,0,0-8.537,19.857c-2.263,14.245,1.194,26.982,10.565,37.952a44.418,44.418,0,0,0,29.458,15.66,45.245,45.245,0,0,0,32.7-8.588c.286-.206.559-.429.85-.627a2.022,2.022,0,0,1,3,.342,1.95,1.95,0,0,1-.62,2.862,83.362,83.362,0,0,1-7.631,4.821c-29.749,15.384-66.234-2.58-72.191-35.533C1045.3,455.848,1045.145,452.787,1044.809,449.757Z" transform="translate(-1044.809 -418.256)" fill="#74a839"/>
        </g>
      </g>
      <g id="Grupo_1324" data-name="Grupo 1324" transform="translate(1074.42 464.904)">
        <path id="Trazado_2703" data-name="Trazado 2703" d="M1080.156,455.333a3.743,3.743,0,0,0-3.244.563,3.765,3.765,0,0,1-.614-.209,1.492,1.492,0,0,0-1.253,0,4.136,4.136,0,0,1-1.555-1.99,5.876,5.876,0,0,1-.273-.968,5.841,5.841,0,0,0-.369-1.154,5.7,5.7,0,0,0-3.37-3.111,42.162,42.162,0,0,0-4.386-.722,43.556,43.556,0,0,1,4.2,1.189,4.953,4.953,0,0,1,2.62,3,4.845,4.845,0,0,1,.189.971,6.883,6.883,0,0,0,.2,1.181,5.981,5.981,0,0,0,1.122,2.2,6.383,6.383,0,0,0,.73.741,1.5,1.5,0,0,0,.843,1.376,6.711,6.711,0,0,0,.98.334,3.655,3.655,0,0,0,2.626,2.414,3.052,3.052,0,1,0,1.557-5.813" transform="translate(-1065.091 -447.739)" fill="#74a839"/>
      </g>
      <g id="Grupo_1325" data-name="Grupo 1325" transform="translate(1090.645 479.937)">
        <path id="Trazado_2704" data-name="Trazado 2704" d="M1091.777,459.239a3.319,3.319,0,0,0-4.258,1.89,3.745,3.745,0,0,0-.059,3.294,3.676,3.676,0,0,1-.321.562,1.487,1.487,0,0,0-.238,1.234,4.19,4.19,0,0,1-2.249,1.151,5.934,5.934,0,0,1-1,.088,5.924,5.924,0,0,0-1.2.142,5.716,5.716,0,0,0-3.69,2.724,43.026,43.026,0,0,0-1.534,4.172c.66-1.289,1.2-2.736,1.958-3.9a4.949,4.949,0,0,1,3.438-2.009,5.117,5.117,0,0,1,.991,0,7.147,7.147,0,0,0,1.2.031,6.021,6.021,0,0,0,2.375-.689,6.111,6.111,0,0,0,.874-.586,1.445,1.445,0,0,0,.29.048,1.507,1.507,0,0,0,1.21-.607,7.019,7.019,0,0,0,.513-.9,3.661,3.661,0,0,0,2.865-2.124,3.319,3.319,0,0,0-1.158-4.516" transform="translate(-1077.224 -458.981)" fill="#74a839"/>
      </g>
      <g id="Grupo_1326" data-name="Grupo 1326" transform="translate(1126.076 451.109)">
        <path id="Trazado_2705" data-name="Trazado 2705" d="M1109.618,439.866a3.051,3.051,0,1,0-5.634,2.113,3.74,3.74,0,0,0,2.344,2.311,3.789,3.789,0,0,1,.187.622,1.473,1.473,0,0,0,.726,1.016,5.019,5.019,0,0,1-.036.646,4.614,4.614,0,0,1-.682,1.78,5.855,5.855,0,0,1-.626.788,5.949,5.949,0,0,0-.726.967,5.723,5.723,0,0,0-.573,4.553,42.714,42.714,0,0,0,1.965,3.988,42.641,42.641,0,0,1-1.476-4.108,4.877,4.877,0,0,1,1.6-4.595,6.894,6.894,0,0,0,.845-.845,5.754,5.754,0,0,0,1.32-3.219,1.5,1.5,0,0,0,.63-1.484,6.8,6.8,0,0,0-.3-.994,3.649,3.649,0,0,0,.437-3.539" transform="translate(-1103.719 -437.423)" fill="#74a839"/>
      </g>
      <g id="Grupo_1327" data-name="Grupo 1327" transform="translate(1100.265 424.436)">
        <path id="Trazado_2706" data-name="Trazado 2706" d="M1094.155,432.85a4.953,4.953,0,0,1-1.452-3.708,4.866,4.866,0,0,1,.15-.979,7,7,0,0,0,.213-1.178,5.7,5.7,0,0,0-.75-3.4,1.487,1.487,0,0,0-.325-1.577,6.783,6.783,0,0,0-.81-.65,3.664,3.664,0,0,0-1.657-3.16,3.052,3.052,0,1,0-3.43,4.947,3.745,3.745,0,0,0,3.246.566,3.967,3.967,0,0,1,.5.4,1.5,1.5,0,0,0,1.075.453c.036,0,.07-.02.106-.021a4.5,4.5,0,0,1,.336.546,4.651,4.651,0,0,1,.453,1.853,5.655,5.655,0,0,1-.068,1,5.9,5.9,0,0,0-.044,1.209,5.715,5.715,0,0,0,2.12,4.067,43.265,43.265,0,0,0,3.887,2.162,43.593,43.593,0,0,1-3.552-2.538" transform="translate(-1084.418 -417.478)" fill="#74a839"/>
      </g>
      <g id="Grupo_1328" data-name="Grupo 1328" transform="translate(1063.005 443.678)">
        <path id="Trazado_2707" data-name="Trazado 2707" d="M1059.993,439.352a4.025,4.025,0,0,1,.172-.624,3.739,3.739,0,0,0,2.3-2.355,3.052,3.052,0,1,0-5.675-2,3.66,3.66,0,0,0,.508,3.529,6.61,6.61,0,0,0-.279,1,1.505,1.505,0,0,0,.658,1.472,6.275,6.275,0,0,0,.2,1.023,6.011,6.011,0,0,0,1.183,2.17,7.1,7.1,0,0,0,.86.828,4.811,4.811,0,0,1,.7.706,4.962,4.962,0,0,1,.993,3.858c-.294,1.357-.943,2.758-1.4,4.136a42.953,42.953,0,0,0,1.886-4.028,5.712,5.712,0,0,0-.659-4.54,5.9,5.9,0,0,0-.745-.952,5.823,5.823,0,0,1-.642-.774,4.634,4.634,0,0,1-.715-1.768,4.547,4.547,0,0,1-.051-.643,1.489,1.489,0,0,0,.709-1.035" transform="translate(-1056.555 -431.867)" fill="#74a839"/>
      </g>
      <g id="Grupo_1329" data-name="Grupo 1329" transform="translate(1079.749 433.234)">
        <path id="Trazado_2708" data-name="Trazado 2708" d="M1089.716,439.013a6.953,6.953,0,0,1,4.237,7.336c-.01.155,0,.313,0,.469-.021,2.663.5,3.161,3.124,3.171a13.563,13.563,0,0,1,3.374.281c3.227.849,4.249,1.9,4.37,3.68.024.361-.642,5.033-.7,5.408-.194,1.171-.1,1.087-1.232,1.016a2.315,2.315,0,0,1-2.184-2.207c-.289-3.409-.412-3.52-3.893-3.493-4.861.037-7.587-2.68-7.561-7.533a17.951,17.951,0,0,0-.032-2.113,1.869,1.869,0,0,0-2.68-1.53c-4.622,2.707-8.853,1.63-12.7-1.49-3.342-2.711-5.213-6.292-4.659-10.71a8.072,8.072,0,0,1,8.869-7.228,13.065,13.065,0,0,1,11.9,12.976C1089.915,437.668,1089.8,438.284,1089.716,439.013Zm-4.461-2.514c-.009-3.772-3.859-7.675-7.632-7.738a3.653,3.653,0,0,0-3.851,4.448,8.748,8.748,0,0,0,6.622,6.989C1083.235,440.762,1085.261,439.221,1085.255,436.5Z" transform="translate(-1069.076 -424.057)" fill="#74a839"/>
      </g>
      <g id="Grupo_1330" data-name="Grupo 1330" transform="translate(1110.148 463.069)">
        <path id="Trazado_2709" data-name="Trazado 2709" d="M1097.157,446.413a30.043,30.043,0,0,0-.393,3.906,26.919,26.919,0,0,0,.128,4,13.21,13.21,0,0,0,.94,3.843,6.158,6.158,0,0,0,2.56,3.06,6.839,6.839,0,0,1-3.681-2.331,15.136,15.136,0,0,1-2.387-3.83,30.281,30.281,0,0,1-1.538-4.224,34.818,34.818,0,0,1-.978-4.467Z" transform="translate(-1091.808 -446.367)" fill="#74a839"/>
      </g>
    </g>
  </g>
</svg>
