<svg xmlns="http://www.w3.org/2000/svg" xmlns:xlink="http://www.w3.org/1999/xlink" width="227" height="216" viewBox="0 0 227 216">
  <defs>
    <filter id="Image" x="0" y="0" width="227" height="216" filterUnits="userSpaceOnUse">
      <feOffset dy="5" input="SourceAlpha"/>
      <feGaussianBlur stdDeviation="2.5" result="blur"/>
      <feFlood flood-opacity="0.161"/>
      <feComposite operator="in" in2="blur"/>
      <feComposite in="SourceGraphic"/>
    </filter>
  </defs>
  <g id="Grupo_455" data-name="Grupo 455" transform="translate(-498.072 -3328.518)">
    <g transform="matrix(1, 0, 0, 1, 498.07, 3328.52)" filter="url(#Image)">
      <g id="Image-2" data-name="Image" transform="translate(7.5 2.5)" fill="#fff" stroke="#a2e2ff" stroke-width="6">
        <rect width="212" height="201" rx="100.5" stroke="none"/>
        <rect x="3" y="3" width="206" height="195" rx="97.5" fill="none"/>
      </g>
    </g>
    <g id="Grupo_1635" data-name="Grupo 1635" transform="translate(-243.496 2698.34)">
      <g id="Grupo_1662" data-name="Grupo 1662" transform="translate(801.152 682.817)">
        <g id="Grupo_1660" data-name="Grupo 1660">
          <g id="Grupo_1659" data-name="Grupo 1659">
            <g id="Grupo_1636" data-name="Grupo 1636" transform="translate(28.222 11.829)">
              <g id="Grupo_1635-2" data-name="Grupo 1635">
                <path id="Trazado_2968" data-name="Trazado 2968" d="M862.12,749.762c-12.908,0-25.927-3.715-34.239-11.148a1.374,1.374,0,0,1-.385-1.467l14.26-41.91a1.375,1.375,0,0,1,2.188-.608c8.6,7.267,27.908,7.292,35.618.049a1.374,1.374,0,0,1,2.242.559l14.26,41.91a1.376,1.376,0,0,1-.355,1.44C887.857,746.035,875.044,749.762,862.12,749.762ZM830.4,737.156c15.5,13.006,48.124,13.021,62.779.027L879.842,698c-8.933,6.459-26.515,6.44-36.1-.078Z" transform="translate(-827.423 -694.306)" fill="#74a839"/>
              </g>
            </g>
            <g id="Grupo_1638" data-name="Grupo 1638">
              <g id="Grupo_1637" data-name="Grupo 1637">
                <path id="Trazado_2969" data-name="Trazado 2969" d="M901.585,760.89h-58.5a1.375,1.375,0,0,1,0-2.749h58.5a4.269,4.269,0,0,0,4.264-4.263V690.94a4.269,4.269,0,0,0-4.264-4.263H809.329a4.268,4.268,0,0,0-4.263,4.263v59.414a1.375,1.375,0,0,1-2.749,0V690.94a7.02,7.02,0,0,1,7.012-7.011h92.255a7.02,7.02,0,0,1,7.012,7.011v62.938A7.02,7.02,0,0,1,901.585,760.89Z" transform="translate(-802.04 -683.65)" fill="#74a839"/>
                <path id="Trazado_2970" data-name="Trazado 2970" d="M901.613,761.2h-58.5a1.653,1.653,0,1,1,0-3.306h58.5a3.989,3.989,0,0,0,3.985-3.985V690.969a3.989,3.989,0,0,0-3.985-3.985H809.357a3.99,3.99,0,0,0-3.986,3.985v59.414a1.652,1.652,0,1,1-3.3,0V690.969a7.3,7.3,0,0,1,7.289-7.291h92.255a7.3,7.3,0,0,1,7.291,7.291v62.938A7.3,7.3,0,0,1,901.613,761.2Zm-58.5-2.749a1.1,1.1,0,1,0,0,2.193h58.5a6.742,6.742,0,0,0,6.734-6.734V690.969a6.742,6.742,0,0,0-6.734-6.734H809.357a6.741,6.741,0,0,0-6.733,6.734v59.414a1.1,1.1,0,0,0,2.19,0V690.969a4.547,4.547,0,0,1,4.542-4.541h92.255a4.546,4.546,0,0,1,4.541,4.541v62.938a4.546,4.546,0,0,1-4.541,4.541Z" transform="translate(-802.068 -683.678)" fill="#74a839"/>
              </g>
            </g>
            <g id="Grupo_1640" data-name="Grupo 1640" transform="translate(12.188 13.106)">
              <g id="Grupo_1639" data-name="Grupo 1639">
                <path id="Trazado_2971" data-name="Trazado 2971" d="M814.393,738.514a1.374,1.374,0,0,1-1.375-1.373V696.827a1.375,1.375,0,0,1,2.749,0V737.14A1.374,1.374,0,0,1,814.393,738.514Z" transform="translate(-813.018 -695.453)" fill="#74a839"/>
              </g>
            </g>
            <g id="Grupo_1642" data-name="Grupo 1642" transform="translate(14.021 20.436)">
              <g id="Grupo_1641" data-name="Grupo 1641">
                <path id="Trazado_2972" data-name="Trazado 2972" d="M823.368,704.786h-7.329a1.374,1.374,0,0,1,0-2.748h7.329a1.374,1.374,0,1,1,0,2.748Z" transform="translate(-814.665 -702.038)" fill="#74a839"/>
              </g>
            </g>
            <g id="Grupo_1644" data-name="Grupo 1644" transform="translate(14.021 31.43)">
              <g id="Grupo_1643" data-name="Grupo 1643">
                <path id="Trazado_2973" data-name="Trazado 2973" d="M823.368,714.664h-7.329a1.374,1.374,0,0,1,0-2.748h7.329a1.374,1.374,0,1,1,0,2.748Z" transform="translate(-814.665 -711.916)" fill="#74a839"/>
              </g>
            </g>
            <g id="Grupo_1646" data-name="Grupo 1646" transform="translate(14.021 42.424)">
              <g id="Grupo_1645" data-name="Grupo 1645">
                <path id="Trazado_2974" data-name="Trazado 2974" d="M823.368,724.542h-7.329a1.375,1.375,0,0,1,0-2.749h7.329a1.375,1.375,0,1,1,0,2.749Z" transform="translate(-814.665 -721.793)" fill="#74a839"/>
              </g>
            </g>
            <g id="Grupo_1648" data-name="Grupo 1648" transform="translate(12.188 53.419)">
              <g id="Grupo_1647" data-name="Grupo 1647">
                <path id="Trazado_2975" data-name="Trazado 2975" d="M823.554,734.419h-9.162a1.374,1.374,0,1,1,0-2.748h9.162a1.374,1.374,0,1,1,0,2.748Z" transform="translate(-813.018 -731.671)" fill="#74a839"/>
              </g>
            </g>
            <g id="Grupo_1650" data-name="Grupo 1650" transform="translate(17.074 68.493)">
              <g id="Grupo_1649" data-name="Grupo 1649">
                <path id="Trazado_2976" data-name="Trazado 2976" d="M863.122,775.915a1.352,1.352,0,0,1-.337-.042l-26.916-6.786c-2.045-.64-3.871,1.086-6.431,3.791a1.374,1.374,0,0,1-1.409.366l-8.814-2.765a1.368,1.368,0,0,1-.815-.689c-1.534-3.023-1.294-7.471.752-14,1.677-5.349,4-8.853,6.9-10.416a1.375,1.375,0,0,1,1.063-.1l8.814,2.764a1.374,1.374,0,0,1,.964,1.3c.057,5.319.748,7.508,2.553,8.074l26.045,9.823a1.375,1.375,0,0,1,.827,1.7l-1.888,6.021A1.375,1.375,0,0,1,863.122,775.915Zm-28.162-9.734a5.507,5.507,0,0,1,1.656.26l25.583,6.449,1.111-3.544-24.756-9.34c-3.688-1.153-4.283-5.289-4.39-9.641l-7.278-2.282c-1.5,1.012-3.475,3.317-5.11,8.53-1.668,5.323-2.047,9.071-1.146,11.428l7.406,2.323C830.033,768.275,832.26,766.182,834.96,766.182Z" transform="translate(-817.408 -745.214)" fill="#74a839"/>
              </g>
            </g>
            <g id="Grupo_1652" data-name="Grupo 1652" transform="translate(22.041 74.492)">
              <g id="Grupo_1651" data-name="Grupo 1651">
                <path id="Trazado_2977" data-name="Trazado 2977" d="M823.246,770.789a1.411,1.411,0,0,1-.43-.069,1.376,1.376,0,0,1-.877-1.735l5.722-17.436a1.375,1.375,0,0,1,2.612.857l-5.722,17.436A1.375,1.375,0,0,1,823.246,770.789Z" transform="translate(-821.87 -750.603)" fill="#74a839"/>
              </g>
            </g>
            <g id="Grupo_1654" data-name="Grupo 1654" transform="translate(63.495 79.071)">
              <g id="Grupo_1653" data-name="Grupo 1653">
                <path id="Trazado_2978" data-name="Trazado 2978" d="M884.719,776.1c-10.3,0-22.628-3.453-24.613-4.028a1.375,1.375,0,0,1,.766-2.64c7.685,2.231,28.839,6.8,34.378,1.264.821-.823.856-1.179.856-1.183-.486-.727-4.847-1.34-7.732-1.747-5.188-.73-11.066-1.558-14.9-4.116-2.037-1.358-2.2-2.7-1.975-3.59.867-3.448,10.043-4.823,15.435-5.335a1.374,1.374,0,0,1,.26,2.736c-6.235.594-12.187,2.075-12.988,3.211a2.884,2.884,0,0,0,.793.69c3.316,2.211,9.108,3.026,13.762,3.682,5.526.778,9.176,1.292,9.966,3.655.6,1.806-1,3.413-1.529,3.94C894.614,775.219,889.923,776.1,884.719,776.1Z" transform="translate(-859.114 -754.718)" fill="#74a839"/>
              </g>
            </g>
            <g id="Grupo_1656" data-name="Grupo 1656" transform="translate(7.796 70.665)">
              <g id="Grupo_1655" data-name="Grupo 1655">
                <path id="Trazado_2979" data-name="Trazado 2979" d="M811.955,761.379a1.374,1.374,0,0,1-1.09-.534,8.559,8.559,0,0,1,5.235-13.656,1.375,1.375,0,0,1,.494,2.7,5.809,5.809,0,0,0-3.553,9.272,1.374,1.374,0,0,1-1.086,2.214Z" transform="translate(-809.072 -747.166)" fill="#74a839"/>
              </g>
            </g>
            <g id="Grupo_1658" data-name="Grupo 1658" transform="translate(1.795 64.784)">
              <g id="Grupo_1657" data-name="Grupo 1657">
                <path id="Trazado_2980" data-name="Trazado 2980" d="M807.868,765.71a1.373,1.373,0,0,1-1.083-.526,14.474,14.474,0,0,1-2.209-13.971,14.649,14.649,0,0,1,10.939-9.306,1.375,1.375,0,0,1,.519,2.7,11.884,11.884,0,0,0-8.877,7.549,11.739,11.739,0,0,0,1.793,11.333,1.374,1.374,0,0,1-1.082,2.222Z" transform="translate(-803.681 -741.882)" fill="#74a839"/>
              </g>
            </g>
          </g>
        </g>
        <g id="Grupo_1661" data-name="Grupo 1661" transform="translate(48.944 28.322)">
          <path id="Trazado_2981" data-name="Trazado 2981" d="M860.072,709.123a14.072,14.072,0,0,0-14.031,14.031h0a14.032,14.032,0,1,0,28.063,0h0A14.072,14.072,0,0,0,860.072,709.123Zm0,21.6a7.494,7.494,0,1,1,7.494-7.494A7.494,7.494,0,0,1,860.072,730.72Z" transform="translate(-846.041 -709.123)" fill="#74a839"/>
        </g>
      </g>
      <g id="Grupo_1663" data-name="Grupo 1663" transform="translate(870.623 712.993)">
        <rect id="Rectángulo_1276" data-name="Rectángulo 1276" width="5.852" height="5.852" rx="2.675" fill="#fff"/>
      </g>
    </g>
  </g>
</svg>
