<svg xmlns="http://www.w3.org/2000/svg" xmlns:xlink="http://www.w3.org/1999/xlink" width="227" height="216" viewBox="0 0 227 216">
  <defs>
    <filter id="Image" x="0" y="0" width="227" height="216" filterUnits="userSpaceOnUse">
      <feOffset dy="5" input="SourceAlpha"/>
      <feGaussianBlur stdDeviation="2.5" result="blur"/>
      <feFlood flood-opacity="0.161"/>
      <feComposite operator="in" in2="blur"/>
      <feComposite in="SourceGraphic"/>
    </filter>
  </defs>
  <g id="Grupo_6345" data-name="Grupo 6345" transform="translate(-498.072 -3328.518)">
    <g transform="matrix(1, 0, 0, 1, 498.07, 3328.52)" filter="url(#Image)">
      <g id="Image-2" data-name="Image" transform="translate(7.5 2.5)" fill="#fff" stroke="#a2e2ff" stroke-width="6">
        <rect width="212" height="201" rx="100.5" stroke="none"/>
        <rect x="3" y="3" width="206" height="195" rx="97.5" fill="none"/>
      </g>
    </g>
    <g id="Grupo_6261" data-name="Grupo 6261" transform="translate(-273.021 3990.523)">
      <g id="Grupo_6260" data-name="Grupo 6260" transform="translate(831.589 -600.714)">
        <g id="Grupo_6250" data-name="Grupo 6250">
          <path id="Trazado_3399" data-name="Trazado 3399" d="M919.578-575.139a1.617,1.617,0,0,0-1.174-1.555l-62.022-17.62-9.51-2.7a1.58,1.58,0,0,1-.3-.118c-1.13-.586-8.912-4.419-11.219.071-1.716,3.34-1.51,5.2-1.217,6.034a1.535,1.535,0,0,0,.623.766l5.227,3.44a1.617,1.617,0,0,1,.658,1.822l-7.436,24.353s-.9,2.969,2.145,5.605,11.855,8.242,14.72,3.329l.936-1.751a1.615,1.615,0,0,1,2.1-.7l16.21,7.473c.478.219,2.131.35,2.226.867.426,2.315.875,28.58.875,28.58a1.616,1.616,0,0,0,1.614,1.536h20.821a1.615,1.615,0,0,0,1.615-1.615v-28.258a1.615,1.615,0,0,1,1.616-1.615h17.944a1.615,1.615,0,0,0,1.579-1.275l1.93-8.955a1.571,1.571,0,0,0,.037-.34Z" transform="translate(-831.242 601.061)" fill="#fff"/>
          <path id="Trazado_3400" data-name="Trazado 3400" d="M895.2-513.518H874.381a3.46,3.46,0,0,1-3.459-3.293c-.156-9.189-.485-23.661-.761-27.5-.057-.012-.108-.023-.153-.035a5.425,5.425,0,0,1-1.115-.328l-16.01-7.382-.834,1.558a5.628,5.628,0,0,1-4.064,2.83c-5.788.973-13.416-5.567-13.495-5.634a7.408,7.408,0,0,1-2.7-7.541l7.384-24.188-5.082-3.343a3.39,3.39,0,0,1-1.35-1.7c-.47-1.337-.625-3.72,1.316-7.494a5.565,5.565,0,0,1,3.339-2.816c3.805-1.217,8.9,1.184,10.375,1.949l71.485,20.3a3.479,3.479,0,0,1,2.517,3.332v17.368a3.55,3.55,0,0,1-.078.729l-1.932,8.955a3.484,3.484,0,0,1-3.385,2.734H898.665v28.025A3.467,3.467,0,0,1,895.2-513.518Zm-20.59-3.7H894.97v-28.025a3.469,3.469,0,0,1,3.464-3.463h17.757l1.892-8.771-.006-17.142-71.365-20.275a3.489,3.489,0,0,1-.636-.251c-1.836-.954-5.482-2.383-7.559-1.712a1.862,1.862,0,0,0-1.174.984c-1.375,2.676-1.253,4.028-1.151,4.46l5.157,3.391a3.483,3.483,0,0,1,1.408,3.9l-7.435,24.354c-.039.16-.426,1.929,1.586,3.667,2.552,2.208,7.661,5.263,10.469,4.782a1.9,1.9,0,0,0,1.446-.987l.9-1.691a3.47,3.47,0,0,1,4.5-1.513l16.21,7.475c.041.009.2.038.37.075,1.041.233,2.615.581,2.9,2.135C874.134-543.515,874.524-522.206,874.612-517.214Z" transform="translate(-831.589 600.714)" fill="#74a839"/>
        </g>
        <g id="Grupo_6251" data-name="Grupo 6251" transform="translate(8.08 32.596)">
          <path id="Trazado_3401" data-name="Trazado 3401" d="M840-557.56a1.843,1.843,0,0,1-.6-.1,1.85,1.85,0,0,1-1.143-2.351l4.5-13a1.852,1.852,0,0,1,2.35-1.143,1.85,1.85,0,0,1,1.143,2.35l-4.5,13A1.848,1.848,0,0,1,840-557.56Z" transform="translate(-838.148 574.255)" fill="#74a839"/>
        </g>
        <g id="Grupo_6258" data-name="Grupo 6258" transform="translate(17.09 4.897)">
          <g id="Grupo_6252" data-name="Grupo 6252" transform="translate(69.398 17.956)">
            <path id="Trazado_3402" data-name="Trazado 3402" d="M918.123-559.707H905.257a3.467,3.467,0,0,1-3.463-3.462V-578.7a3.469,3.469,0,0,1,3.463-3.463h12.866a3.467,3.467,0,0,1,3.462,3.463v15.531A3.465,3.465,0,0,1,918.123-559.707Zm-12.634-3.7h12.4v-15.064h-12.4Z" transform="translate(-901.794 582.163)" fill="#74a839"/>
          </g>
          <g id="Grupo_6253" data-name="Grupo 6253">
            <path id="Trazado_3403" data-name="Trazado 3403" d="M847.309-577.838a1.835,1.835,0,0,1-.7-.137,1.847,1.847,0,0,1-1.013-2.408l6.2-15.2a1.844,1.844,0,0,1,2.408-1.013,1.847,1.847,0,0,1,1.014,2.408l-6.2,15.2A1.845,1.845,0,0,1,847.309-577.838Z" transform="translate(-845.461 596.738)" fill="#74a839"/>
          </g>
          <g id="Grupo_6254" data-name="Grupo 6254" transform="translate(21.618 36.815)">
            <path id="Trazado_3404" data-name="Trazado 3404" d="M889.531-552.859l-.085,0a1.846,1.846,0,0,1-1.762-1.93c.022-.775-.083-7.73-10.738-8.333-3.591-.2-6.293.564-8.015,2.282a8.722,8.722,0,0,0-2.222,6.024,1.852,1.852,0,0,1-1.733,1.951,1.842,1.842,0,0,1-1.956-1.719,12.394,12.394,0,0,1,3.263-8.833c2.5-2.519,6.152-3.669,10.873-3.4,14.567.825,14.225,12.078,14.219,12.192A1.848,1.848,0,0,1,889.531-552.859Z" transform="translate(-863.01 566.855)" fill="#74a839"/>
          </g>
          <g id="Grupo_6255" data-name="Grupo 6255" transform="translate(47.382 21.533)">
            <rect id="Rectángulo_1297" data-name="Rectángulo 1297" width="14.84" height="14.84" rx="4.211" fill="#74a839"/>
          </g>
          <g id="Grupo_6256" data-name="Grupo 6256" transform="translate(29.648 46.511)">
            <rect id="Rectángulo_1298" data-name="Rectángulo 1298" width="10.587" height="10.587" rx="3.004" fill="#74a839"/>
          </g>
          <g id="Grupo_6257" data-name="Grupo 6257" transform="translate(0.943 3.621)">
            <rect id="Rectángulo_1299" data-name="Rectángulo 1299" width="40.857" height="3.697" transform="translate(0 38.455) rotate(-70.256)" fill="#74a839"/>
          </g>
        </g>
        <g id="Grupo_6259" data-name="Grupo 6259" transform="translate(2.965 1.767)">
          <path id="Trazado_3405" data-name="Trazado 3405" d="M842.65-584.114l4.15-13.756s-6.958-2.772-10.489-.542-1.974,6.51-1.974,6.51S837.183-585.385,842.65-584.114Z" transform="translate(-833.996 599.279)" fill="#74a839"/>
        </g>
      </g>
    </g>
  </g>
</svg>
