<svg xmlns="http://www.w3.org/2000/svg" xmlns:xlink="http://www.w3.org/1999/xlink" width="227" height="216" viewBox="0 0 227 216">
  <defs>
    <filter id="Image" x="0" y="0" width="227" height="216" filterUnits="userSpaceOnUse">
      <feOffset dy="5" input="SourceAlpha"/>
      <feGaussianBlur stdDeviation="2.5" result="blur"/>
      <feFlood flood-opacity="0.161"/>
      <feComposite operator="in" in2="blur"/>
      <feComposite in="SourceGraphic"/>
    </filter>
  </defs>
  <g id="Grupo_455" data-name="Grupo 455" transform="translate(7.5 2.5)">
    <g transform="matrix(1, 0, 0, 1, -7.5, -2.5)" filter="url(#Image)">
      <g id="Image-2" data-name="Image" transform="translate(7.5 2.5)" fill="#fff" stroke="#a2e2ff" stroke-width="6">
        <rect width="212" height="201" rx="100.5" stroke="none"/>
        <rect x="3" y="3" width="206" height="195" rx="97.5" fill="none"/>
      </g>
    </g>
    <g id="Grupo_6236" data-name="Grupo 6236" transform="translate(-2658.132 654.961)">
      <g id="Grupo_6234" data-name="Grupo 6234" transform="translate(2720.115 -598.978)">
        <g id="Grupo_6215" data-name="Grupo 6215">
          <path id="Trazado_3367" data-name="Trazado 3367" d="M2760.935-513.838a44.2,44.2,0,0,1-31.355-12.966,44.4,44.4,0,0,1,0-62.71h0a44.4,44.4,0,0,1,62.71,0,44.4,44.4,0,0,1,0,62.71A44.2,44.2,0,0,1,2760.935-513.838Zm-28.8-73.119a40.777,40.777,0,0,0,0,57.6,40.774,40.774,0,0,0,57.595,0,40.462,40.462,0,0,0,11.93-28.8,40.464,40.464,0,0,0-11.93-28.8,40.463,40.463,0,0,0-28.8-11.928,40.465,40.465,0,0,0-28.8,11.928Z" transform="translate(-2716.615 602.48)" fill="#74a839"/>
        </g>
        <g id="Grupo_6216" data-name="Grupo 6216" transform="translate(6.464 45.907)">
          <path id="Trazado_3368" data-name="Trazado 3368" d="M2722.6-544.2l-.622-3.562c1.823-.324,6.815-1.875,7.987-5.1,1.066-2.934-1.292-6.628-3.459-9.21l2.772-2.323c4.045,4.822,5.417,9.122,4.082,12.781C2731.221-545.763,2722.949-544.259,2722.6-544.2Z" transform="translate(-2721.976 564.398)" fill="#74a839"/>
        </g>
        <g id="Grupo_6217" data-name="Grupo 6217" transform="translate(0.829 25.682)">
          <path id="Trazado_3369" data-name="Trazado 3369" d="M2724.079-555.431a12.785,12.785,0,0,1-6.777-2.4l2.162-2.9c.9.667,3.712,2.234,5.82,1.494,1.437-.506,2.512-2.079,3.194-4.672a10.4,10.4,0,0,0-1.466-8.865,16.513,16.513,0,0,0-5.978-5.109l1.512-3.287a20.263,20.263,0,0,1,7.452,6.357,14.056,14.056,0,0,1,1.977,11.825c-1.009,3.835-2.862,6.247-5.51,7.17A7.2,7.2,0,0,1,2724.079-555.431Z" transform="translate(-2717.302 581.176)" fill="#74a839"/>
        </g>
        <g id="Grupo_6218" data-name="Grupo 6218" transform="translate(10.088 12.457)">
          <path id="Trazado_3370" data-name="Trazado 3370" d="M2726.588-571.381l-1.6-3.242.8,1.62-.8-1.619c.059-.03,5.894-2.988,6.655-7.509.4-2.359-.7-4.877-3.253-7.485l2.583-2.53c3.415,3.486,4.84,7.064,4.232,10.633C2734.121-575.169,2726.9-571.533,2726.588-571.381Z" transform="translate(-2724.983 592.146)" fill="#74a839"/>
        </g>
        <g id="Grupo_6219" data-name="Grupo 6219" transform="translate(18.051 2.456)">
          <path id="Trazado_3371" data-name="Trazado 3371" d="M2737.781-580.326a27.377,27.377,0,0,1-6.193-.728l.9-3.5c2.709.688,10.326,1.615,13.02-2.306,3.308-4.823-.763-11.628-.8-11.7l3.089-1.881c.219.359,5.313,8.9.7,15.624C2746-581.2,2741.507-580.326,2737.781-580.326Z" transform="translate(-2731.588 600.442)" fill="#74a839"/>
        </g>
        <g id="Grupo_6220" data-name="Grupo 6220" transform="translate(34.065 1.278)">
          <path id="Trazado_3372" data-name="Trazado 3372" d="M2752.678-585.852a16.685,16.685,0,0,1-7.806-2.237l1.808-3.133c.072.041,7.15,4.037,9.734-.123,2.958-4.774,1.467-8.47,1.4-8.624l3.312-1.45c.1.223,2.367,5.513-1.642,11.979A7.549,7.549,0,0,1,2752.678-585.852Z" transform="translate(-2744.872 601.42)" fill="#74a839"/>
        </g>
        <g id="Grupo_6221" data-name="Grupo 6221" transform="translate(46.813 4.945)">
          <path id="Trazado_3373" data-name="Trazado 3373" d="M2762.989-588.24a16.039,16.039,0,0,1-7.541-2.334l1.9-3.078-.95,1.538.948-1.539c1.309.8,5.237,2.615,7.61,1.366,1.513-.793,2.371-2.843,2.55-6.091l3.612.2c-.256,4.615-1.768,7.677-4.493,9.1A7.774,7.774,0,0,1,2762.989-588.24Z" transform="translate(-2755.447 598.378)" fill="#74a839"/>
        </g>
        <g id="Grupo_6222" data-name="Grupo 6222" transform="translate(13.586 58.046)">
          <path id="Trazado_3374" data-name="Trazado 3374" d="M2729.2-536.291l-1.31-3.372.655,1.685-.659-1.683c.041-.017,4.149-1.674,4.736-4.73.5-2.585-1.807-5.4-3.826-7.308l2.481-2.63c3.906,3.686,5.554,7.268,4.893,10.643C2735.187-538.671,2729.442-536.386,2729.2-536.291Z" transform="translate(-2727.884 554.329)" fill="#74a839"/>
        </g>
        <g id="Grupo_6223" data-name="Grupo 6223" transform="translate(19.38 64.08)">
          <path id="Trazado_3375" data-name="Trazado 3375" d="M2741.727-528.359l-1.653-3.216.827,1.608-.834-1.6c.03-.014,2.975-1.595,3.394-4.354.321-2.112-.871-4.536-3.539-7.205-.889-.891-3.843-3.236-5.756-2.383l-1.474-3.3c4.513-2.021,9.269,2.6,9.794,3.134,3.535,3.535,5.065,7.015,4.545,10.337C2746.312-530.762,2741.914-528.455,2741.727-528.359Z" transform="translate(-2732.691 549.323)" fill="#74a839"/>
        </g>
        <g id="Grupo_6224" data-name="Grupo 6224" transform="translate(31.429 73.21)">
          <path id="Trazado_3376" data-name="Trazado 3376" d="M2757.286-528.074l-3.616-.064,1.808.031-1.808-.028c0-.061.045-6.148-3.292-8.777-1.62-1.277-3.909-1.548-6.8-.81l-.9-3.5c4.042-1.037,7.391-.535,9.943,1.483C2757.372-535.992,2757.292-528.4,2757.286-528.074Z" transform="translate(-2742.686 541.749)" fill="#74a839"/>
        </g>
        <g id="Grupo_6225" data-name="Grupo 6225" transform="translate(41.055 71.714)">
          <path id="Trazado_3377" data-name="Trazado 3377" d="M2768.467-530.445c-.9-2.481-4.292-9.441-8.118-8.9a7.626,7.626,0,0,0-6.194,5.133l-3.484-.963a11.223,11.223,0,0,1,9.169-7.751c7.4-1.037,11.578,9.99,12.031,11.252Z" transform="translate(-2750.671 542.991)" fill="#74a839"/>
        </g>
        <g id="Grupo_6226" data-name="Grupo 6226" transform="translate(54.525 66.896)">
          <path id="Trazado_3378" data-name="Trazado 3378" d="M2761.9-537.326a8.779,8.779,0,0,1,3.441-8.31c.092-.075.171-.136.228-.188l.217-.205.308-.158c7.866-3.569,15.872,5.927,16.208,6.332l-2.781,2.311c-.065-.077-6.4-7.55-11.7-5.449q-.094.079-.2.166a5.19,5.19,0,0,0-2.117,5.166Z" transform="translate(-2761.844 546.987)" fill="#74a839"/>
        </g>
        <g id="Grupo_6227" data-name="Grupo 6227" transform="translate(64.476 62.508)">
          <path id="Trazado_3379" data-name="Trazado 3379" d="M2773.449-542.943l-3.35-1.361c.08-.2,2.047-4.927,6.577-6.075,3.126-.792,6.536.311,10.137,3.274l-2.3,2.792c-2.662-2.193-5.005-3.052-6.949-2.56C2774.832-546.18,2773.463-542.974,2773.449-542.943Z" transform="translate(-2770.1 550.627)" fill="#74a839"/>
        </g>
        <g id="Grupo_6228" data-name="Grupo 6228" transform="translate(69.82 52.694)">
          <path id="Trazado_3380" data-name="Trazado 3380" d="M2774.944-546.535c-.067-.224-1.591-5.524,1.684-9.173,2.6-2.891,7.274-3.739,13.9-2.523l-.652,3.557c-5.235-.96-8.886-.482-10.56,1.383-1.909,2.124-.921,5.691-.91,5.726Z" transform="translate(-2774.532 558.768)" fill="#74a839"/>
        </g>
        <g id="Grupo_6229" data-name="Grupo 6229" transform="translate(73.194 40.794)">
          <path id="Trazado_3381" data-name="Trazado 3381" d="M2778.531-553.087c-.86-1.12-2.418-7.953.462-12.189,1.583-2.328,5.036-4.657,12.485-2.526l-.994,3.477c-4.024-1.15-6.783-.916-8.2.7-2.16,2.454-1.11,7.7-.731,8.581a1.246,1.246,0,0,0-.152-.245Z" transform="translate(-2777.331 568.64)" fill="#74a839"/>
        </g>
        <g id="Grupo_6230" data-name="Grupo 6230" transform="translate(54.845 12.052)">
          <path id="Trazado_3382" data-name="Trazado 3382" d="M2772.7-583.935a10.18,10.18,0,0,1-1.4-.1c-5.809-.81-9.046-6.426-9.181-6.665l3.146-1.784c.024.044,2.522,4.322,6.555,4.87,2.652.365,5.55-.97,8.578-3.963l2.544,2.57C2779.526-585.636,2776.088-583.935,2772.7-583.935Z" transform="translate(-2762.11 592.482)" fill="#74a839"/>
        </g>
        <g id="Grupo_6231" data-name="Grupo 6231" transform="translate(73.01 26.165)">
          <path id="Trazado_3383" data-name="Trazado 3383" d="M2779.264-561.451c-.164-.333-3.981-8.241-.863-14,1.619-2.991,4.694-4.781,9.14-5.325l.439,3.59c-3.213.392-5.365,1.553-6.394,3.448-2.235,4.113.895,10.629.926,10.7Z" transform="translate(-2777.179 580.775)" fill="#74a839"/>
        </g>
        <g id="Grupo_6232" data-name="Grupo 6232" transform="translate(64.812 18.499)">
          <path id="Trazado_3384" data-name="Trazado 3384" d="M2780.751-571.874c-11.3-5.287-10.383-14.855-10.338-15.26l3.6.383c-.03.3-.605,7.445,8.274,11.6Z" transform="translate(-2770.378 587.134)" fill="#74a839"/>
        </g>
        <g id="Grupo_6233" data-name="Grupo 6233" transform="translate(44.544 11.448)">
          <path id="Trazado_3385" data-name="Trazado 3385" d="M2783.357-550.677s-3.5,3.428-5.737,3.257-3.034,1.776-4.41.63-.141-1.462-2.7-3.709-3.238-2.188-4.849-3.821-3.019-2.536-4.2-4.2-3.5-2.787-3.089-4.117-.288-3.4-.166-5.228.521-3.494.322-4.151-2.078-1.361-.8-2.727.856-2.086.153-2.757-4.007-2.374-2.354-3.929,3.29-1.225,2.528-3.279-1.857-1.419-.279-3,1.793-2.313,3.068-3.068a3.753,3.753,0,0,1,1.887-.705l3.272.946s3.992,4.6,6.956,4.492l2.487,2.07,2.474,7.193,4.388,2.873v2.88l.808,5.286s.346,3.044.416,3.594,0,5.069,0,5.069Z" transform="translate(-2753.257 593.292)" fill="#74a839"/>
          <path id="Trazado_3386" data-name="Trazado 3386" d="M2774.371-544.315a3.07,3.07,0,0,1-2.01-.777,4,4,0,0,1-1.387-2.037c-.121-.359-.245-.732-1.351-1.7a23.5,23.5,0,0,0-2.572-1.981,13.879,13.879,0,0,1-2.374-1.932c-.555-.562-1.085-1.033-1.589-1.48a16.923,16.923,0,0,1-2.8-2.944,9.619,9.619,0,0,0-1.326-1.372c-1.105-1.01-2.618-2.394-2.014-4.331a6.815,6.815,0,0,0-.086-2.013,14.821,14.821,0,0,1-.16-2.8c.051-.752.144-1.479.228-2.125.052-.4.118-.9.14-1.225-2.154-2.076-1.147-3.8-.354-4.645.084-.091.151-.168.2-.232-.1-.088-.265-.2-.447-.329-1.107-.8-2.78-2-2.9-3.774a3.042,3.042,0,0,1,1.02-2.429,9.142,9.142,0,0,1,1.919-1.348l.121-.069a2.708,2.708,0,0,0-.489-.809c-1.5-1.85-.149-3.2.66-4.013.553-.553.924-.993,1.249-1.384a7.86,7.86,0,0,1,2.178-1.963,5.2,5.2,0,0,1,2.948-.951l.36.066,3.783,1.093.351.4c1.387,1.593,4.115,3.871,5.526,3.872l.69-.024,3.409,2.833,2.435,7.087,4.688,3.07v3.719l.786,5.151c.01.069.354,3.09.424,3.635.073.562.048,3.208.015,5.329l-.19,7.154-.523.511c-.958.939-4.282,3.979-7.139,3.768a2.482,2.482,0,0,0-1.4.405A4.474,4.474,0,0,1,2774.371-544.315Zm-13.886-17.8a10.9,10.9,0,0,0,.916.9,12.57,12.57,0,0,1,1.833,1.946,13.984,13.984,0,0,0,2.257,2.338c.56.5,1.146,1.02,1.762,1.644a10.359,10.359,0,0,0,1.834,1.483A26.717,26.717,0,0,1,2772-551.55a6.828,6.828,0,0,1,2.4,3.272.755.755,0,0,0,.118.265c.081-.039.166-.082.241-.119a5.823,5.823,0,0,1,3.307-.781c.693.025,2.458-1.073,3.81-2.264l.15-5.639c.03-2,.043-4.43.01-4.82-.068-.524-.416-3.591-.416-3.591l-.82-5.491v-1.9l-4.09-2.677-2.509-7.3-1.64-1.363c-3.011-.374-6.087-3.4-7.257-4.671l-2.382-.688a4.509,4.509,0,0,0-.856.412,4.354,4.354,0,0,0-1.248,1.174c-.335.4-.749.891-1.353,1.5a6.568,6.568,0,0,1,.585,1.2c1.044,2.816-.86,3.884-1.773,4.4a7.514,7.514,0,0,0-.868.541,12.088,12.088,0,0,0,1.167.921,9.237,9.237,0,0,1,.855.668,3.313,3.313,0,0,1,.228,4.949,3.054,3.054,0,0,1,.9,1.321,7.156,7.156,0,0,1-.041,2.9c-.076.577-.162,1.226-.206,1.9a12.006,12.006,0,0,0,.14,2.112A9.416,9.416,0,0,1,2760.485-562.111Zm-3.414-14.032Zm6.029-13.226Z" transform="translate(-2753.565 592.983)" fill="#74a839"/>
        </g>
      </g>
      <g id="Grupo_6235" data-name="Grupo 6235" transform="translate(2699.576 -619.518)">
        <path id="Trazado_3387" data-name="Trazado 3387" d="M2764.437-489.8a64.935,64.935,0,0,1-64.861-64.86,64.935,64.935,0,0,1,64.861-64.861,64.934,64.934,0,0,1,64.86,64.861A64.934,64.934,0,0,1,2764.437-489.8Zm0-124.9a60.106,60.106,0,0,0-60.039,60.039,60.106,60.106,0,0,0,60.039,60.039,60.105,60.105,0,0,0,60.037-60.039A60.105,60.105,0,0,0,2764.437-614.7Z" transform="translate(-2699.576 619.518)" fill="#74a839"/>
      </g>
    </g>
  </g>
</svg>
