<svg xmlns="http://www.w3.org/2000/svg" width="25.083" height="25.083" viewBox="0 0 25.083 25.083">
  <path id="Trazado_126" data-name="Trazado 126" d="M18.874,6.21c6.31,6.309,6.215,16.334,6.209,16.755l-.035,2.082-2.082.036c-.442,0-10.444.1-16.755-6.211S0,2.539,0,2.117L.037.036,2.119,0h.129C3.513,0,12.871.208,18.874,6.21Zm1.757,14.427c-.328-2.9-1.389-7.97-4.8-11.382C12.4,5.823,7.349,4.77,4.454,4.446c.328,2.9,1.389,7.97,4.8,11.382C12.685,19.259,17.734,20.313,20.631,20.637Z" fill="#00549c"/>
</svg>
