<svg xmlns="http://www.w3.org/2000/svg" width="1920" height="502.527" viewBox="0 0 1920 502.527">
  <path id="Intersección_1" data-name="Intersección 1" d="M2031.155-1809.744l-5.663-22.689,22.486-6.429c2.757-.785,43.625-12.152,94.7-9.878v48.459c-4.55-.238-9.02-.345-13.379-.345a292.724,292.724,0,0,0-43.116,3.289c9.248,23.625,27.008,60,56.495,87.85v60.734C2059.44-1699.975,2032.441-1805.038,2031.155-1809.744ZM241-1948.2c-5.937,0-12.061-.168-18.323-.547v-48.5a282.392,282.392,0,0,0,61.167-2.655c-9.724-24.838-28.866-63.8-61.167-92.1v-59.276l.118.068c82.563,47.668,112.018,148.592,115.7,162.312l.376,1.4,5.663,22.69-22.469,6.438c-2.515.709-36.515,10.169-81.053,10.169Z" transform="translate(-222.674 2151.28)" fill="#00549c" opacity="0.05"/>
</svg>
