<svg xmlns="http://www.w3.org/2000/svg" xmlns:xlink="http://www.w3.org/1999/xlink" width="219" height="209" viewBox="0 0 219 209">
  <defs>
    <filter id="Image" x="0" y="0" width="219" height="209" filterUnits="userSpaceOnUse">
      <feOffset dy="5" input="SourceAlpha"/>
      <feGaussianBlur stdDeviation="2.5" result="blur"/>
      <feFlood flood-opacity="0.161"/>
      <feComposite operator="in" in2="blur"/>
      <feComposite in="SourceGraphic"/>
    </filter>
  </defs>
  <g id="Grupo_6339" data-name="Grupo 6339" transform="translate(7.5 2.5)">
    <g transform="matrix(1, 0, 0, 1, -7.5, -2.5)" filter="url(#Image)">
      <g id="Image-2" data-name="Image" transform="translate(7.5 2.5)" fill="#fff" stroke="#a2e2ff" stroke-width="6">
        <rect width="204" height="194" rx="97" stroke="none"/>
        <rect x="3" y="3" width="198" height="188" rx="94" fill="none"/>
      </g>
    </g>
    <g id="Grupo_1085" data-name="Grupo 1085" transform="translate(35.849 49.858)">
      <g id="Grupo_570" data-name="Grupo 570">
        <g id="Grupo_568" data-name="Grupo 568">
          <path id="Trazado_1367" data-name="Trazado 1367" d="M207.344,551.618a41.282,41.282,0,0,0-5.068-1.71c-.7-.153-1.406-.266-2.1-.351a30.444,30.444,0,0,0-12.106,1.382c-.208.066-.419.124-.625.193l-.026.011c-.681.227-1.356.475-2.029.739-2.163.844-4.258,1.865-6.392,2.889-.7.356-1.4.715-2.118,1.063l5.735,4.836c1.053-.377,2.1-.762,3.15-1.148.317-.142.62-.288.944-.422a33.539,33.539,0,0,1,6.4-2.013,17.635,17.635,0,0,1,5.405-.457c.1.005.2,0,.3.005,4.881.248,8.809,2.918,9.988,6.936a12.235,12.235,0,0,1-1.047,8.94c-.182.38-.377.741-.538,1.039-.063.14-.129.288-.185.425l5.651,4.221c.121-.161.235-.338.351-.506a20.341,20.341,0,0,0,3.018-7.835C217.316,561.806,213.784,554.955,207.344,551.618Z" transform="translate(-87.24 -545.494)" fill="none"/>
          <path id="Trazado_1368" data-name="Trazado 1368" d="M144.669,569.855a20.382,20.382,0,0,0,3.018,7.835c.116.169.23.343.351.506l5.651-4.221c-.055-.137-.121-.285-.182-.425-.164-.3-.359-.66-.541-1.039a12.248,12.248,0,0,1-1.047-8.94c1.179-4.018,5.107-6.688,9.99-6.936.1-.005.2,0,.3-.005a17.625,17.625,0,0,1,5.4.457A33.539,33.539,0,0,1,174,559.1c.324.135.63.28.944.422,1.05.385,2.1.77,3.15,1.148l5.735-4.836c-.715-.348-1.414-.707-2.116-1.063-2.137-1.024-4.231-2.045-6.395-2.889-.673-.264-1.348-.512-2.026-.739l-.026-.011c-.208-.069-.419-.127-.628-.193a30.437,30.437,0,0,0-12.1-1.382c-.7.084-1.4.2-2.105.351a41.278,41.278,0,0,0-5.068,1.71C146.927,554.955,143.395,561.806,144.669,569.855Z" transform="translate(-140.422 -545.494)" fill="none"/>
          <path id="Trazado_1369" data-name="Trazado 1369" d="M183.825,580.124c.5-.005,1.008-.024,1.514-.063.045-.454.111-.894.187-1.327a11.131,11.131,0,0,1,3.865-7.685,14.947,14.947,0,0,1,9.679-4.237l.066-.01a3.876,3.876,0,0,0,1.279-.768,20.941,20.941,0,0,0,2.306-5.363,5.451,5.451,0,0,0-2.992-6.242,6.906,6.906,0,0,0-1.686-.544,18.733,18.733,0,0,0-5.656-.008,21.516,21.516,0,0,0-2.514.5q-.273.075-.546.158c-.361.1-.718.221-1.076.34q-.89.3-1.773.636l-.069.029c-.62.24-1.232.509-1.844.786q-1.124.527-2.229,1.108c2.923,8.014.34,14.913-4.018,21.812a13.249,13.249,0,0,0,1.5.448C181.168,579.839,182.508,579.981,183.825,580.124Z" transform="translate(-84.878 -538.549)" fill="none"/>
          <path id="Trazado_1370" data-name="Trazado 1370" d="M194.864,560.22a12.571,12.571,0,0,0-4.746.314,12.882,12.882,0,0,0-4.68,2.519c-.137.121-.269.264-.4.393a9.672,9.672,0,0,0-1.44,1.712c-1.625,2.554-1.356,5.2.488,6.814.055.048.105.1.164.143a5.717,5.717,0,0,0,.715.456c.121.069.23.145.359.206.111.05.224.084.338.129a6.833,6.833,0,0,0,.831.3c.082.026.161.045.243.069a13.653,13.653,0,0,0,5.366.071,11.415,11.415,0,0,0,6.321-3.58,10.3,10.3,0,0,0,.91-1.158c.092-.15.19-.3.28-.454.032-.056.063-.111.095-.169a6.536,6.536,0,0,0,.454-1.05c.013-.04.021-.079.032-.119a5.909,5.909,0,0,0,.148-.678,4.826,4.826,0,0,0-.224-2.287,5.094,5.094,0,0,0-.807-1.506l-.045-.053c-.095-.119-.2-.219-.3-.324a6.009,6.009,0,0,0-1.849-1.153A12.262,12.262,0,0,0,194.864,560.22Z" transform="translate(-77.993 -527.966)" fill="none"/>
          <path id="Trazado_1371" data-name="Trazado 1371" d="M163.73,565.159a9.561,9.561,0,0,0-1.44-1.712c-.135-.129-.266-.272-.4-.393a12.9,12.9,0,0,0-4.68-2.519,12.563,12.563,0,0,0-4.746-.314,12.291,12.291,0,0,0-2.24.591,5.947,5.947,0,0,0-1.849,1.153,3.969,3.969,0,0,0-.306.324l-.045.053a5.1,5.1,0,0,0-.807,1.506,4.827,4.827,0,0,0-.224,2.287,5.9,5.9,0,0,0,.148.678c.011.04.018.079.032.119a6.535,6.535,0,0,0,.454,1.05c.032.058.063.113.1.172.087.156.185.3.277.448a10.389,10.389,0,0,0,.91,1.161,11.409,11.409,0,0,0,6.321,3.58,13.653,13.653,0,0,0,5.366-.071c.082-.024.161-.042.243-.069a6.833,6.833,0,0,0,.831-.3c.113-.045.227-.079.338-.129.129-.061.237-.137.359-.206a5.718,5.718,0,0,0,.715-.456c.058-.045.111-.1.166-.143C165.086,570.364,165.355,567.713,163.73,565.159Z" transform="translate(-136.281 -527.966)" fill="none"/>
          <path id="Trazado_1372" data-name="Trazado 1372" d="M169.123,557.431q-1.1-.582-2.229-1.108c-.615-.277-1.227-.546-1.849-.789l-.063-.026q-.882-.34-1.773-.636c-.359-.119-.712-.24-1.074-.34-.182-.055-.364-.108-.549-.158a21.582,21.582,0,0,0-2.512-.5,18.732,18.732,0,0,0-5.656.008,7.046,7.046,0,0,0-1.688.541,5.456,5.456,0,0,0-2.992,6.244,20.942,20.942,0,0,0,2.306,5.363,3.876,3.876,0,0,0,1.279.768l.066.01a14.954,14.954,0,0,1,9.682,4.237,11.138,11.138,0,0,1,3.862,7.685c.079.432.142.873.187,1.327.506.04,1.01.058,1.514.063,1.316-.142,2.657-.285,4.013-.433a13.376,13.376,0,0,0,1.493-.448C168.786,572.344,166.2,565.445,169.123,557.431Z" transform="translate(-133.533 -538.549)" fill="none"/>
          <path id="Trazado_1373" data-name="Trazado 1373" d="M183.835,566.651a13.759,13.759,0,0,0,6.49.024c.1-.021.19-.055.29-.076-.111.024-.214.055-.322.076A14.715,14.715,0,0,1,183.835,566.651Z" transform="translate(-75.842 -517.365)" fill="#74a839"/>
          <path id="Trazado_1374" data-name="Trazado 1374" d="M176.1,575.387a25.355,25.355,0,0,0-1.67-6.532c-.14-.351-.243-.678-.348-1.008.055.19.1.375.166.567C175.044,570.672,175.474,573.063,176.1,575.387Z" transform="translate(-91.825 -515.319)" fill="#74a839"/>
          <path id="Trazado_1375" data-name="Trazado 1375" d="M189.4,568.233a12.916,12.916,0,0,0,3.137-5.1c-.127.288-.261.567-.38.865A12.714,12.714,0,0,1,189.4,568.233Z" transform="translate(-66.727 -523.036)" fill="#74a839"/>
          <path id="Trazado_1376" data-name="Trazado 1376" d="M194.836,566.661c.116-.575.24-1.145.356-1.72v-4.416a10.036,10.036,0,0,1-.24-.992,20.245,20.245,0,0,0-2.567-7.426c-.063-.111-.127-.2-.187-.3a22.651,22.651,0,0,1,2.3,5.735A21.368,21.368,0,0,1,194.836,566.661Z" transform="translate(-62.142 -541.592)" fill="#74a839"/>
          <path id="Trazado_1377" data-name="Trazado 1377" d="M177.46,554.264l.032.029Z" transform="translate(-86.285 -537.569)" fill="#74a839"/>
          <path id="Trazado_1378" data-name="Trazado 1378" d="M191.446,564.717a29.4,29.4,0,0,0,2.844-5.1,31.537,31.537,0,0,1-2.269,4.184C191.826,564.1,191.636,564.413,191.446,564.717Z" transform="translate(-63.374 -528.8)" fill="#74a839"/>
          <path id="Trazado_1379" data-name="Trazado 1379" d="M176.752,553.665l.042.029Z" transform="translate(-87.444 -538.55)" fill="#74a839"/>
          <path id="Trazado_1380" data-name="Trazado 1380" d="M174,567.592v0Z" transform="translate(-91.948 -515.737)" fill="#74a839"/>
          <path id="Trazado_1381" data-name="Trazado 1381" d="M177.77,554.6l.013.016Z" transform="translate(-85.777 -537.015)" fill="#74a839"/>
          <path id="Trazado_1382" data-name="Trazado 1382" d="M178.248,555.3c.029.048.053.1.079.148C178.3,555.394,178.277,555.346,178.248,555.3Z" transform="translate(-84.994 -535.878)" fill="#74a839"/>
          <path id="Trazado_1383" data-name="Trazado 1383" d="M188.688,565.742l-.2.127Z" transform="translate(-68.22 -518.767)" fill="#74a839"/>
          <path id="Trazado_1384" data-name="Trazado 1384" d="M171.575,551.827l.364.055C171.818,551.861,171.7,551.848,171.575,551.827Z" transform="translate(-95.925 -541.561)" fill="#74a839"/>
          <path id="Trazado_1385" data-name="Trazado 1385" d="M152.223,565.133c.05-.013.087-.037.135-.05-.082.026-.161.045-.243.069C152.152,565.144,152.189,565.141,152.223,565.133Z" transform="translate(-127.802 -519.846)" fill="#74a839"/>
          <path id="Trazado_1386" data-name="Trazado 1386" d="M153.223,564.617c-.055.047-.108.1-.166.143C153.115,564.712,153.168,564.665,153.223,564.617Z" transform="translate(-126.259 -520.61)" fill="#74a839"/>
          <path id="Trazado_1387" data-name="Trazado 1387" d="M147.216,563.146c.024.045.053.084.079.129-.034-.058-.066-.114-.1-.171Z" transform="translate(-135.857 -523.088)" fill="#74a839"/>
          <path id="Trazado_1388" data-name="Trazado 1388" d="M189.615,565.235c-.2.182-.412.346-.62.514C189.206,565.583,189.414,565.414,189.615,565.235Z" transform="translate(-67.389 -519.597)" fill="#74a839"/>
          <path id="Trazado_1389" data-name="Trazado 1389" d="M184.415,566.817a10.491,10.491,0,0,1-1.029-.348A10.217,10.217,0,0,0,184.415,566.817Z" transform="translate(-76.577 -517.576)" fill="#74a839"/>
          <path id="Trazado_1390" data-name="Trazado 1390" d="M182.47,565.2c-.667-.037-1.335-.058-2-.079.251.019.5.047.747.061a5.123,5.123,0,0,1,3.094.96c-.2-.2-.4-.364-.591-.578A1.96,1.96,0,0,0,182.47,565.2Z" transform="translate(-81.362 -519.781)" fill="#74a839"/>
          <path id="Trazado_1391" data-name="Trazado 1391" d="M183.252,566.427c-.084-.042-.169-.09-.253-.132C183.083,566.34,183.168,566.385,183.252,566.427Z" transform="translate(-77.211 -517.861)" fill="#74a839"/>
          <path id="Trazado_1392" data-name="Trazado 1392" d="M166.852,553.188a50.575,50.575,0,0,1,5.92-1.34,31.6,31.6,0,0,0-12.164,4c-.406.248-.757.525-1.126.794a18.05,18.05,0,0,1,2.221-1.361A28.411,28.411,0,0,1,166.852,553.188Z" transform="translate(-115.736 -541.527)" fill="#74a839"/>
          <path id="Trazado_1393" data-name="Trazado 1393" d="M167.4,578.88a29.091,29.091,0,0,1-9.36-14.356,14.625,14.625,0,0,1-.011-8.432,13.861,13.861,0,0,0-.261,7.442c1.414,6.39,5.052,11.394,9.893,15.617a6.9,6.9,0,0,1,2.49,7.279C170.934,583.407,170.105,581.26,167.4,578.88Z" transform="translate(-119.161 -534.574)" fill="#74a839"/>
          <path id="Trazado_1394" data-name="Trazado 1394" d="M167.378,597.05a6.955,6.955,0,0,0,1.161,1.9,23.167,23.167,0,0,0,1.343-6.308q-2.406-6.581-4.691-13.2a26.594,26.594,0,0,1-.929-3.5A23.371,23.371,0,0,0,159.838,572,25.6,25.6,0,0,0,161,578.958C162.9,585.06,165.141,591.059,167.378,597.05Z" transform="translate(-115.151 -508.517)" fill="#74a839"/>
          <path id="Trazado_1395" data-name="Trazado 1395" d="M147.046,562.78c-.013-.04-.021-.079-.032-.119C147.027,562.7,147.032,562.74,147.046,562.78Z" transform="translate(-136.158 -523.814)" fill="#74a839"/>
          <path id="Trazado_1396" data-name="Trazado 1396" d="M168.045,583.525l.187,0Z" transform="translate(-101.707 -489.642)" fill="#74a839"/>
          <path id="Trazado_1397" data-name="Trazado 1397" d="M147.063,555.045c1.2.681,1.261,1.754.174,3.591-3.815,6.442-2.464,14.681,1.068,19.78a20.382,20.382,0,0,1-3.018-7.835c-1.274-8.049,2.258-14.9,8.7-18.237l-.19.071a1.969,1.969,0,0,1-2.62-.971,1.886,1.886,0,0,1,.857-2.461,18.788,18.788,0,0,0-8,7.453C145.042,554.842,145.96,554.423,147.063,555.045Z" transform="translate(-141.04 -546.22)" fill="#74a839"/>
          <path id="Trazado_1398" data-name="Trazado 1398" d="M195.176,550.266c-.222-.1-.435-.219-.66-.314a25.513,25.513,0,0,0-9.524-2.008,28.136,28.136,0,0,1,4.424.493A26.471,26.471,0,0,1,195.176,550.266Z" transform="translate(-73.945 -547.922)" fill="#74a839"/>
          <path id="Trazado_1399" data-name="Trazado 1399" d="M162.629,550.967a28.222,28.222,0,0,0-12.1-1.382A30.436,30.436,0,0,1,162.629,550.967Z" transform="translate(-130.407 -545.521)" fill="#74a839"/>
          <path id="Trazado_1400" data-name="Trazado 1400" d="M188.314,558.732l-.016.037c1.849,1.377,3.72,2.767,5.68,4.226.121-.174.222-.369.338-.549-.116.169-.23.346-.351.506Z" transform="translate(-68.531 -530.25)" fill="#74a839"/>
          <path id="Trazado_1401" data-name="Trazado 1401" d="M186.91,552.72a2.218,2.218,0,0,1-.939-.034,63.247,63.247,0,0,0-17.855-2.609,63.024,63.024,0,0,1,17.836,2.625A2.158,2.158,0,0,0,186.91,552.72Z" transform="translate(-101.591 -544.428)" fill="#74a839"/>
          <path id="Trazado_1402" data-name="Trazado 1402" d="M143.034,557.437a23.314,23.314,0,0,0,1.026,3.857c-.272-.794-.533-1.593-.731-2.427C143.219,558.394,143.129,557.914,143.034,557.437Z" transform="translate(-142.678 -532.371)" fill="#74a839"/>
          <path id="Trazado_1403" data-name="Trazado 1403" d="M145.876,563.093c-.388-.5-.731-1.026-1.09-1.543a34.094,34.094,0,0,1,2.264,4.184c-.15-.433-.311-.849-.43-1.314A3.812,3.812,0,0,0,145.876,563.093Z" transform="translate(-139.808 -525.634)" fill="#74a839"/>
          <path id="Trazado_1404" data-name="Trazado 1404" d="M148.075,558.969c-.055-.105-.135-.245-.216-.4.061.14.127.287.182.425Z" transform="translate(-134.774 -530.514)" fill="#74a839"/>
          <path id="Trazado_1405" data-name="Trazado 1405" d="M160.719,552.476c-.731-.338-1.451-.681-2.166-1.023.7.356,1.4.715,2.116,1.063Z" transform="translate(-117.256 -542.175)" fill="#74a839"/>
          <path id="Trazado_1406" data-name="Trazado 1406" d="M151.156,552.184a23.118,23.118,0,0,1,5.4.457A17.625,17.625,0,0,0,151.156,552.184Z" transform="translate(-129.373 -541.048)" fill="#74a839"/>
          <path id="Trazado_1407" data-name="Trazado 1407" d="M158.146,548.544a43.96,43.96,0,0,1,8.516,2.559,36.16,36.16,0,0,0-15.422-3.145A33.256,33.256,0,0,1,158.146,548.544Z" transform="translate(-129.237 -547.936)" fill="#74a839"/>
          <path id="Trazado_1408" data-name="Trazado 1408" d="M155.351,550.073l.026.011Z" transform="translate(-122.501 -544.434)" fill="#74a839"/>
          <path id="Trazado_1409" data-name="Trazado 1409" d="M158.9,554.593l.232-.193c-1.053-.377-2.1-.762-3.15-1.148C157.024,553.715,158.032,554.192,158.9,554.593Z" transform="translate(-121.46 -539.225)" fill="#74a839"/>
          <path id="Trazado_1410" data-name="Trazado 1410" d="M168.116,551.573a69.425,69.425,0,0,1,8.722.617A56.488,56.488,0,0,0,168.116,551.573Z" transform="translate(-101.591 -541.978)" fill="#74a839"/>
          <path id="Trazado_1411" data-name="Trazado 1411" d="M153.233,567.581a11.328,11.328,0,0,0,2.844-2.071,4.681,4.681,0,0,0-.491.383A10.8,10.8,0,0,1,153.233,567.581Z" transform="translate(-125.971 -519.147)" fill="#74a839"/>
          <path id="Trazado_1412" data-name="Trazado 1412" d="M161.487,551.354a2.378,2.378,0,0,1-.327-.129c-.232-.119-.459-.245-.691-.369.15.09.3.174.448.264A2.363,2.363,0,0,0,161.487,551.354Z" transform="translate(-114.118 -543.152)" fill="#74a839"/>
          <path id="Trazado_1413" data-name="Trazado 1413" d="M180.882,550.193c.206-.069.417-.127.625-.193C181.3,550.063,181.088,550.124,180.882,550.193Z" transform="translate(-80.679 -544.554)" fill="#74a839"/>
          <path id="Trazado_1414" data-name="Trazado 1414" d="M158.462,555.138q.372-.443.786-.863Q158.833,554.694,158.462,555.138Z" transform="translate(-117.405 -537.551)" fill="#74a839"/>
          <path id="Trazado_1415" data-name="Trazado 1415" d="M157.984,556.421a12.18,12.18,0,0,1,1.248-1.812A12.314,12.314,0,0,0,157.984,556.421Z" transform="translate(-118.188 -537.004)" fill="#74a839"/>
          <path id="Trazado_1416" data-name="Trazado 1416" d="M195.36,559.1c-1.179-4.018-5.107-6.688-9.988-6.936-.1-.005-.2,0-.3-.005.628.045,1.261.114,1.892.219,6.725,1.14,10.2,6.667,8.212,13.206a32.994,32.994,0,0,1-1.406,3.5c.161-.3.356-.66.538-1.039A12.235,12.235,0,0,0,195.36,559.1Z" transform="translate(-73.807 -541.02)" fill="#74a839"/>
          <path id="Trazado_1417" data-name="Trazado 1417" d="M176.867,551.868q3.1,2.628,5.714,4.838l.047-.016-5.735-4.836Z" transform="translate(-87.256 -541.515)" fill="#74a839"/>
          <path id="Trazado_1418" data-name="Trazado 1418" d="M158.773,555.225a15.3,15.3,0,0,1,1.823-1.548A15.3,15.3,0,0,0,158.773,555.225Z" transform="translate(-116.896 -538.532)" fill="#74a839"/>
          <path id="Trazado_1419" data-name="Trazado 1419" d="M164.881,551.828c-.074.008-.148.021-.224.032.135-.021.269-.034.4-.053C165,551.815,164.942,551.82,164.881,551.828Z" transform="translate(-107.257 -541.594)" fill="#74a839"/>
          <path id="Trazado_1420" data-name="Trazado 1420" d="M192.878,551.536a19.592,19.592,0,0,0-6.907-2.045c-.09-.008-.177-.008-.264-.016.7.084,1.4.2,2.1.351A41.284,41.284,0,0,1,192.878,551.536Z" transform="translate(-72.774 -545.412)" fill="#74a839"/>
          <path id="Trazado_1421" data-name="Trazado 1421" d="M161.417,570.846a1.849,1.849,0,0,0-.034.85c.026-.33.032-.66.071-.992Z" transform="translate(-112.676 -510.639)" fill="#74a839"/>
          <path id="Trazado_1422" data-name="Trazado 1422" d="M163.072,564.781a70.695,70.695,0,0,1-7.3,1.031c1.361-.04,2.723-.071,4.073-.214,1.52-.158,3.168-1.155,4.466-.773a1.427,1.427,0,0,1,.2.084A1.841,1.841,0,0,0,163.072,564.781Z" transform="translate(-121.82 -520.47)" fill="#74a839"/>
          <path id="Trazado_1423" data-name="Trazado 1423" d="M162.154,568.263c.074-.227.142-.454.2-.67C162.3,567.812,162.223,568.039,162.154,568.263Z" transform="translate(-111.357 -515.735)" fill="#74a839"/>
          <path id="Trazado_1424" data-name="Trazado 1424" d="M186.1,550.077c-1.306.425-2.6.915-3.883,1.459-1.535.652-3.034,1.406-4.538,2.169,2.134-1.024,4.229-2.045,6.392-2.889C184.745,550.552,185.42,550.3,186.1,550.077Z" transform="translate(-85.924 -544.428)" fill="#74a839"/>
          <path id="Trazado_1425" data-name="Trazado 1425" d="M180.245,554.765c2.126-.783,4.253-1.562,6.416-2.216.306-.092.617-.145.926-.219a33.552,33.552,0,0,0-6.4,2.013C180.865,554.477,180.562,554.622,180.245,554.765Z" transform="translate(-81.723 -540.737)" fill="#74a839"/>
          <path id="Trazado_1426" data-name="Trazado 1426" d="M157.634,557.3a11.632,11.632,0,0,1,.844-1.952A11.724,11.724,0,0,0,157.634,557.3Z" transform="translate(-118.762 -535.787)" fill="#74a839"/>
          <path id="Trazado_1427" data-name="Trazado 1427" d="M184.541,565.266a6.832,6.832,0,0,1-.831-.3C183.987,565.082,184.264,565.185,184.541,565.266Z" transform="translate(-76.047 -520.03)" fill="#74a839"/>
          <path id="Trazado_1428" data-name="Trazado 1428" d="M183.89,565.127a5.7,5.7,0,0,1-.715-.456A5.687,5.687,0,0,0,183.89,565.127Z" transform="translate(-76.923 -520.521)" fill="#74a839"/>
          <path id="Trazado_1429" data-name="Trazado 1429" d="M183.627,562.8a12.881,12.881,0,0,1,4.68-2.519A11.548,11.548,0,0,0,183.627,562.8Z" transform="translate(-76.183 -527.713)" fill="#74a839"/>
          <path id="Trazado_1430" data-name="Trazado 1430" d="M184.117,565.109c.8.221,1.538.356,1.971.475a19.01,19.01,0,0,0,3.4-.4A13.654,13.654,0,0,1,184.117,565.109Z" transform="translate(-75.38 -519.804)" fill="#74a839"/>
          <path id="Trazado_1431" data-name="Trazado 1431" d="M147.2,549.054c.158-.084.319-.156.48-.229C147.516,548.9,147.358,548.975,147.2,549.054Z" transform="translate(-135.858 -546.48)" fill="#74a839"/>
          <path id="Trazado_1432" data-name="Trazado 1432" d="M143.864,559.976c-.084-.193-.174-.383-.251-.578C143.692,559.591,143.777,559.783,143.864,559.976Z" transform="translate(-141.729 -529.159)" fill="#74a839"/>
          <path id="Trazado_1433" data-name="Trazado 1433" d="M147.279,565.509c-.156-.14-.3-.3-.446-.441C146.981,565.216,147.126,565.366,147.279,565.509Z" transform="translate(-136.455 -519.871)" fill="#74a839"/>
          <path id="Trazado_1434" data-name="Trazado 1434" d="M183.627,563.1a9.674,9.674,0,0,1,1.44-1.712c-.222.211-.448.411-.66.644a8.186,8.186,0,0,0-1.435,2.284,4.617,4.617,0,0,0,1.142,5.6C182.271,568.3,182,565.651,183.627,563.1Z" transform="translate(-78.027 -525.904)" fill="#74a839"/>
          <path id="Trazado_1435" data-name="Trazado 1435" d="M189.172,563.168c-.09.156-.187.3-.28.454C188.992,563.471,189.082,563.321,189.172,563.168Z" transform="translate(-67.558 -522.983)" fill="#74a839"/>
          <path id="Trazado_1436" data-name="Trazado 1436" d="M155.181,563.168a14.407,14.407,0,0,1,.066,1.567l1.636-.177c-.5-.005-1.008-.024-1.514-.063C155.323,564.041,155.26,563.6,155.181,563.168Z" transform="translate(-122.78 -522.983)" fill="#74a839"/>
          <path id="Trazado_1437" data-name="Trazado 1437" d="M150.088,558.656l-.066-.01a5.577,5.577,0,0,0,1.3.314,16.59,16.59,0,0,1,6.455,2.448,14.683,14.683,0,0,1,1.992,1.485A14.955,14.955,0,0,0,150.088,558.656Z" transform="translate(-131.231 -530.393)" fill="#74a839"/>
          <path id="Trazado_1438" data-name="Trazado 1438" d="M157.722,549.4c-.04-.019-.082-.034-.124-.053.079.037.158.074.237.108C157.8,549.444,157.762,549.423,157.722,549.4Z" transform="translate(-118.821 -545.615)" fill="#74a839"/>
          <path id="Trazado_1439" data-name="Trazado 1439" d="M189.488,562.706a6.539,6.539,0,0,1-.454,1.05A5.925,5.925,0,0,0,189.488,562.706Z" transform="translate(-67.325 -523.74)" fill="#74a839"/>
          <path id="Trazado_1440" data-name="Trazado 1440" d="M160.961,551.072l.084.018Z" transform="translate(-113.312 -542.798)" fill="#74a839"/>
          <path id="Trazado_1441" data-name="Trazado 1441" d="M189.366,562.4a5.915,5.915,0,0,1-.148.678A5.02,5.02,0,0,0,189.366,562.4Z" transform="translate(-67.024 -524.235)" fill="#74a839"/>
          <path id="Trazado_1442" data-name="Trazado 1442" d="M188.866,560.946l.045.053Z" transform="translate(-67.601 -526.623)" fill="#74a839"/>
          <path id="Trazado_1443" data-name="Trazado 1443" d="M190.869,553.956a6.9,6.9,0,0,1,1.686.544,8.438,8.438,0,0,0-3.277-.847,20.062,20.062,0,0,0-6.579.792,21.5,21.5,0,0,1,2.514-.5A18.735,18.735,0,0,1,190.869,553.956Z" transform="translate(-77.703 -538.619)" fill="#74a839"/>
          <path id="Trazado_1444" data-name="Trazado 1444" d="M182.37,555.781q1.1-.582,2.229-1.108c-.755.338-1.514.691-2.3,1.037,2.978,8.088.354,15.079-4,21.867l.053.016C182.71,570.694,185.293,563.8,182.37,555.781Z" transform="translate(-84.91 -536.899)" fill="#74a839"/>
          <path id="Trazado_1445" data-name="Trazado 1445" d="M186.21,559.122c.422-.045,1-.211,1.14-.5.045-.09.095-.179.14-.269A3.875,3.875,0,0,1,186.21,559.122Z" transform="translate(-71.951 -530.869)" fill="#74a839"/>
          <path id="Trazado_1446" data-name="Trazado 1446" d="M161.621,567.686a31.646,31.646,0,0,0-1.517,4.807q.8-2.457,1.564-4.933C161.65,567.6,161.639,567.641,161.621,567.686Z" transform="translate(-114.716 -515.79)" fill="#74a839"/>
          <path id="Trazado_1447" data-name="Trazado 1447" d="M179.7,565.087a1.8,1.8,0,0,1,.372-.306c-1.219.488-2.124,2-3.218,2.992-1.609,1.454-1.841,2.321-1.047,4.34-.1-.319-.206-.636-.3-.958a2.823,2.823,0,0,1,.995-3.031C177.6,567.139,178.7,566.158,179.7,565.087Z" transform="translate(-89.711 -520.341)" fill="#74a839"/>
          <path id="Trazado_1448" data-name="Trazado 1448" d="M181.051,567.94a14.3,14.3,0,0,1,3.865-7.685A11.131,11.131,0,0,0,181.051,567.94Z" transform="translate(-80.402 -527.755)" fill="#74a839"/>
          <path id="Trazado_1449" data-name="Trazado 1449" d="M187.2,560.162a12.252,12.252,0,0,1,2.242.591,6.012,6.012,0,0,1,1.849,1.153,6.537,6.537,0,0,0-3.947-1.736C187.295,560.165,187.25,560.167,187.2,560.162Z" transform="translate(-70.33 -527.907)" fill="#74a839"/>
          <path id="Trazado_1450" data-name="Trazado 1450" d="M181.447,554.367l-.061.026.069-.029Z" transform="translate(-79.854 -537.405)" fill="#74a839"/>
          <path id="Trazado_1451" data-name="Trazado 1451" d="M182.9,563.964c-1.316-.143-2.657-.285-4.01-.433A15.732,15.732,0,0,0,182.9,563.964Z" transform="translate(-83.949 -522.388)" fill="#74a839"/>
          <path id="Trazado_1452" data-name="Trazado 1452" d="M148.374,566.253c-.4-.253-.77-.536-1.137-.823A13.021,13.021,0,0,0,148.374,566.253Z" transform="translate(-135.793 -519.278)" fill="#74a839"/>
          <path id="Trazado_1453" data-name="Trazado 1453" d="M153.238,567.922a18.491,18.491,0,0,1-5.492-2.132A17.1,17.1,0,0,0,153.238,567.922Z" transform="translate(-134.961 -518.688)" fill="#74a839"/>
          <path id="Trazado_1454" data-name="Trazado 1454" d="M182.084,554.334c.359-.119.715-.24,1.076-.34C182.8,554.1,182.443,554.213,182.084,554.334Z" transform="translate(-78.71 -538.011)" fill="#74a839"/>
          <path id="Trazado_1455" data-name="Trazado 1455" d="M152.553,566.6l-.156.045C152.45,566.633,152.5,566.617,152.553,566.6Z" transform="translate(-127.34 -517.36)" fill="#74a839"/>
          <path id="Trazado_1456" data-name="Trazado 1456" d="M153.614,566.345c-.253.124-.509.224-.768.327C153.1,566.575,153.36,566.464,153.614,566.345Z" transform="translate(-126.605 -517.779)" fill="#74a839"/>
          <path id="Trazado_1457" data-name="Trazado 1457" d="M178.634,549.706c.448-.2.9-.383,1.353-.57Q179.307,549.413,178.634,549.706Z" transform="translate(-84.362 -545.969)" fill="#74a839"/>
          <path id="Trazado_1458" data-name="Trazado 1458" d="M147.229,562.472a5.1,5.1,0,0,1,.807-1.506A4.45,4.45,0,0,0,147,564.76,4.827,4.827,0,0,1,147.229,562.472Z" transform="translate(-136.297 -526.59)" fill="#74a839"/>
          <path id="Trazado_1459" data-name="Trazado 1459" d="M147.34,563.339a10.316,10.316,0,0,0,7.1,4.722c.045.008.092.01.135.018a11.409,11.409,0,0,1-6.321-3.58A10.4,10.4,0,0,1,147.34,563.339Z" transform="translate(-135.624 -522.703)" fill="#74a839"/>
          <path id="Trazado_1460" data-name="Trazado 1460" d="M152.522,565.179a6.541,6.541,0,0,0,.7-.335c-.121.069-.23.145-.359.206C152.749,565.1,152.635,565.134,152.522,565.179Z" transform="translate(-127.136 -520.238)" fill="#74a839"/>
          <path id="Trazado_1461" data-name="Trazado 1461" d="M153.533,553.934c.185.05.367.1.549.158C153.9,554.042,153.718,553.979,153.533,553.934Z" transform="translate(-125.479 -538.109)" fill="#74a839"/>
          <path id="Trazado_1462" data-name="Trazado 1462" d="M159.009,563.63c-.058-.09-.111-.179-.169-.269a13.388,13.388,0,0,1-1.493.448Z" transform="translate(-119.232 -522.667)" fill="#74a839"/>
          <path id="Trazado_1463" data-name="Trazado 1463" d="M147.366,561.147a3.987,3.987,0,0,1,.306-.324A3.933,3.933,0,0,0,147.366,561.147Z" transform="translate(-135.582 -526.825)" fill="#74a839"/>
          <path id="Trazado_1464" data-name="Trazado 1464" d="M193.119,558.9c-.158.441-.317.881-.5,1.317C192.794,559.78,192.966,559.345,193.119,558.9Z" transform="translate(-61.451 -529.976)" fill="#74a839"/>
          <path id="Trazado_1465" data-name="Trazado 1465" d="M189.3,549.037c-.084-.047-.179-.079-.264-.127.121.061.227.132.346.193C189.349,549.084,189.333,549.055,189.3,549.037Z" transform="translate(-67.324 -546.339)" fill="#74a839"/>
          <path id="Trazado_1466" data-name="Trazado 1466" d="M175.763,553.253c2.446-1.29,4.825-2.717,7.337-3.86A68.792,68.792,0,0,0,175.763,553.253Z" transform="translate(-89.065 -545.548)" fill="#74a839"/>
          <path id="Trazado_1467" data-name="Trazado 1467" d="M152.6,561.236c.137.121.269.264.4.393C152.874,561.5,152.747,561.36,152.6,561.236Z" transform="translate(-127 -526.148)" fill="#74a839"/>
          <path id="Trazado_1468" data-name="Trazado 1468" d="M153.778,560.651a13.436,13.436,0,0,0-3.374-.6c-.451.105-.913.192-1.372.282A12.562,12.562,0,0,1,153.778,560.651Z" transform="translate(-132.853 -528.083)" fill="#74a839"/>
          <path id="Trazado_1469" data-name="Trazado 1469" d="M154.148,554.123q.89.3,1.773.636C155.338,554.524,154.744,554.318,154.148,554.123Z" transform="translate(-124.472 -537.8)" fill="#74a839"/>
          <path id="Trazado_1470" data-name="Trazado 1470" d="M154.844,554.374c.623.242,1.235.512,1.849.789C156.087,554.875,155.467,554.625,154.844,554.374Z" transform="translate(-123.332 -537.389)" fill="#74a839"/>
          <path id="Trazado_1471" data-name="Trazado 1471" d="M151.792,553.954c-2.538,1.158-3.7,3.712-3.023,6.783a14.135,14.135,0,0,0,.931,2.686,6.294,6.294,0,0,0,1.406,2.139A20.939,20.939,0,0,1,148.8,560.2,5.456,5.456,0,0,1,151.792,553.954Z" transform="translate(-133.594 -538.077)" fill="#74a839"/>
          <path id="Trazado_1472" data-name="Trazado 1472" d="M175.271,551.116c.1-.021.19-.042.28-.071C175.458,551.071,175.366,551.1,175.271,551.116Z" transform="translate(-89.87 -542.842)" fill="#74a839"/>
          <path id="Trazado_1473" data-name="Trazado 1473" d="M194.569,547.958a36.16,36.16,0,0,0-15.422,3.145,43.96,43.96,0,0,1,8.516-2.559A33.257,33.257,0,0,1,194.569,547.958Z" transform="translate(-83.521 -547.936)" fill="#74a839"/>
          <path id="Trazado_1474" data-name="Trazado 1474" d="M176.4,550.856c-.23.124-.459.251-.691.369a2.257,2.257,0,0,1-.327.129,2.383,2.383,0,0,0,.572-.235C176.1,551.03,176.248,550.946,176.4,550.856Z" transform="translate(-89.697 -543.152)" fill="#74a839"/>
          <path id="Trazado_1475" data-name="Trazado 1475" d="M191.236,551.445a1.967,1.967,0,0,1-2.617.971l-.193-.071c6.44,3.337,9.972,10.188,8.7,18.237a20.341,20.341,0,0,1-3.018,7.835c3.532-5.1,4.883-13.338,1.071-19.78-1.087-1.836-1.026-2.91.171-3.591,1.1-.623,2.021-.2,3.029,1.39a18.787,18.787,0,0,0-8-7.453A1.884,1.884,0,0,1,191.236,551.445Z" transform="translate(-68.321 -546.22)" fill="#74a839"/>
          <path id="Trazado_1476" data-name="Trazado 1476" d="M157.688,549.393c2.511,1.142,4.891,2.57,7.337,3.86A68.294,68.294,0,0,0,157.688,549.393Z" transform="translate(-118.673 -545.548)" fill="#74a839"/>
          <path id="Trazado_1477" data-name="Trazado 1477" d="M183.932,566.646l-.156-.045C183.829,566.617,183.882,566.633,183.932,566.646Z" transform="translate(-75.938 -517.36)" fill="#74a839"/>
          <path id="Trazado_1478" data-name="Trazado 1478" d="M153.485,566.469a10.491,10.491,0,0,1-1.029.348A10.211,10.211,0,0,0,153.485,566.469Z" transform="translate(-127.244 -517.576)" fill="#74a839"/>
          <path id="Trazado_1479" data-name="Trazado 1479" d="M175.24,551.09l.082-.018Z" transform="translate(-89.921 -542.798)" fill="#74a839"/>
          <path id="Trazado_1480" data-name="Trazado 1480" d="M175.581,567.684c-.018-.045-.029-.082-.045-.124.506,1.651,1.031,3.3,1.562,4.931A31.563,31.563,0,0,0,175.581,567.684Z" transform="translate(-89.436 -515.789)" fill="#74a839"/>
          <path id="Trazado_1481" data-name="Trazado 1481" d="M189.7,565.43c-.367.287-.739.57-1.137.823A13.566,13.566,0,0,0,189.7,565.43Z" transform="translate(-68.095 -519.278)" fill="#74a839"/>
          <path id="Trazado_1482" data-name="Trazado 1482" d="M189.676,565.068c-.148.145-.29.3-.446.441C189.383,565.366,189.531,565.216,189.676,565.068Z" transform="translate(-67.004 -519.871)" fill="#74a839"/>
          <path id="Trazado_1483" data-name="Trazado 1483" d="M192.777,559.4c-.079.2-.169.385-.253.578Q192.655,559.687,192.777,559.4Z" transform="translate(-61.608 -529.159)" fill="#74a839"/>
          <path id="Trazado_1484" data-name="Trazado 1484" d="M160.855,551.045c.09.029.185.05.28.071C161.04,551.1,160.947,551.071,160.855,551.045Z" transform="translate(-113.485 -542.842)" fill="#74a839"/>
          <path id="Trazado_1485" data-name="Trazado 1485" d="M192.809,561.292a23.342,23.342,0,0,0,1.026-3.854c-.095.475-.185.955-.3,1.427C193.342,559.7,193.081,560.5,192.809,561.292Z" transform="translate(-61.142 -532.37)" fill="#74a839"/>
          <path id="Trazado_1486" data-name="Trazado 1486" d="M161.948,552.7a63.038,63.038,0,0,1,17.836-2.625,63.246,63.246,0,0,0-17.855,2.609,2.208,2.208,0,0,1-.937.034A2.147,2.147,0,0,0,161.948,552.7Z" transform="translate(-113.259 -544.428)" fill="#74a839"/>
          <path id="Trazado_1487" data-name="Trazado 1487" d="M191.9,565.79a18.508,18.508,0,0,1-5.5,2.132A17.111,17.111,0,0,0,191.9,565.79Z" transform="translate(-71.632 -518.688)" fill="#74a839"/>
          <path id="Trazado_1488" data-name="Trazado 1488" d="M153.39,566.295c-.084.042-.169.09-.253.132C153.221,566.385,153.306,566.34,153.39,566.295Z" transform="translate(-126.128 -517.861)" fill="#74a839"/>
          <path id="Trazado_1489" data-name="Trazado 1489" d="M180.872,550.084l.026-.011Z" transform="translate(-80.696 -544.434)" fill="#74a839"/>
          <path id="Trazado_1490" data-name="Trazado 1490" d="M147.148,549.035c-.032.019-.05.047-.082.066.119-.06.227-.132.346-.19C147.327,548.956,147.232,548.988,147.148,549.035Z" transform="translate(-136.073 -546.338)" fill="#74a839"/>
          <path id="Trazado_1491" data-name="Trazado 1491" d="M143.924,560.216c-.185-.436-.343-.876-.5-1.317C143.576,559.345,143.747,559.78,143.924,560.216Z" transform="translate(-142.041 -529.976)" fill="#74a839"/>
          <path id="Trazado_1492" data-name="Trazado 1492" d="M193.225,549.585a28.229,28.229,0,0,0-12.106,1.382A30.443,30.443,0,0,1,193.225,549.585Z" transform="translate(-80.291 -545.521)" fill="#74a839"/>
          <path id="Trazado_1493" data-name="Trazado 1493" d="M178.657,549.4c-.04.019-.077.04-.113.055.079-.034.158-.071.237-.108C178.739,549.37,178.7,549.386,178.657,549.4Z" transform="translate(-84.509 -545.615)" fill="#74a839"/>
          <path id="Trazado_1494" data-name="Trazado 1494" d="M191.018,564.42c-.116.467-.28.881-.43,1.314a34.657,34.657,0,0,1,2.264-4.184c-.359.517-.7,1.042-1.09,1.543A3.811,3.811,0,0,0,191.018,564.42Z" transform="translate(-64.78 -525.634)" fill="#74a839"/>
          <path id="Trazado_1495" data-name="Trazado 1495" d="M176.858,552.476l.05.039c.715-.348,1.414-.707,2.118-1.063C178.309,551.795,177.589,552.138,176.858,552.476Z" transform="translate(-87.271 -542.175)" fill="#74a839"/>
          <path id="Trazado_1496" data-name="Trazado 1496" d="M181.921,565.51a11.329,11.329,0,0,0,2.844,2.071,10.866,10.866,0,0,1-2.353-1.688A4.673,4.673,0,0,0,181.921,565.51Z" transform="translate(-78.977 -519.147)" fill="#74a839"/>
          <path id="Trazado_1497" data-name="Trazado 1497" d="M157.562,547.944a25.513,25.513,0,0,0-9.524,2.008c-.222.1-.438.211-.66.314a26.564,26.564,0,0,1,5.759-1.828A28.136,28.136,0,0,1,157.562,547.944Z" transform="translate(-135.56 -547.922)" fill="#74a839"/>
          <path id="Trazado_1498" data-name="Trazado 1498" d="M179.283,554.593c.873-.4,1.881-.879,2.918-1.34-1.05.385-2.1.77-3.15,1.148Z" transform="translate(-83.678 -539.225)" fill="#74a839"/>
          <path id="Trazado_1499" data-name="Trazado 1499" d="M147.871,565.869c-.069-.042-.137-.084-.2-.127C147.734,565.784,147.8,565.826,147.871,565.869Z" transform="translate(-135.087 -518.767)" fill="#74a839"/>
          <path id="Trazado_1500" data-name="Trazado 1500" d="M147.622,565.75c-.208-.169-.422-.332-.62-.514C147.2,565.414,147.411,565.583,147.622,565.75Z" transform="translate(-136.178 -519.597)" fill="#74a839"/>
          <path id="Trazado_1501" data-name="Trazado 1501" d="M188.853,548.824c.161.074.322.145.48.227C189.172,548.975,189.014,548.9,188.853,548.824Z" transform="translate(-67.622 -546.48)" fill="#74a839"/>
          <path id="Trazado_1502" data-name="Trazado 1502" d="M177.153,564.91a1.333,1.333,0,0,1,.2-.084c1.3-.383,2.947.614,4.466.773,1.348.143,2.709.174,4.071.214a70.7,70.7,0,0,1-7.3-1.031A1.841,1.841,0,0,0,177.153,564.91Z" transform="translate(-86.788 -520.47)" fill="#74a839"/>
          <path id="Trazado_1503" data-name="Trazado 1503" d="M183.863,566.672c-.259-.1-.514-.2-.768-.327C183.348,566.464,183.6,566.575,183.863,566.672Z" transform="translate(-77.054 -517.779)" fill="#74a839"/>
          <path id="Trazado_1504" data-name="Trazado 1504" d="M157.085,549.136c.451.187.9.37,1.353.57Q157.766,549.413,157.085,549.136Z" transform="translate(-119.661 -545.969)" fill="#74a839"/>
          <path id="Trazado_1505" data-name="Trazado 1505" d="M188.291,558.969l.034.026c.055-.137.121-.285.185-.425C188.426,558.724,188.346,558.864,188.291,558.969Z" transform="translate(-68.542 -530.514)" fill="#74a839"/>
          <path id="Trazado_1506" data-name="Trazado 1506" d="M183.028,552.641a23.129,23.129,0,0,1,5.405-.457A17.635,17.635,0,0,0,183.028,552.641Z" transform="translate(-77.164 -541.048)" fill="#74a839"/>
          <path id="Trazado_1507" data-name="Trazado 1507" d="M184.16,565.133c.034.008.074.011.108.019-.082-.024-.161-.042-.243-.069C184.072,565.1,184.112,565.12,184.16,565.133Z" transform="translate(-75.531 -519.846)" fill="#74a839"/>
          <path id="Trazado_1508" data-name="Trazado 1508" d="M153.741,553.994c.361.1.715.221,1.074.34C154.456,554.213,154.1,554.1,153.741,553.994Z" transform="translate(-125.139 -538.011)" fill="#74a839"/>
          <path id="Trazado_1509" data-name="Trazado 1509" d="M154.831,554.367l-.011,0,.063.027Z" transform="translate(-123.371 -537.405)" fill="#74a839"/>
          <path id="Trazado_1510" data-name="Trazado 1510" d="M159.839,563.531c-1.356.148-2.7.29-4.013.433A15.765,15.765,0,0,0,159.839,563.531Z" transform="translate(-121.723 -522.388)" fill="#74a839"/>
          <path id="Trazado_1511" data-name="Trazado 1511" d="M153.42,562.029c-.214-.232-.441-.433-.662-.644a9.561,9.561,0,0,1,1.44,1.712c1.625,2.554,1.356,5.205-.485,6.814a4.62,4.62,0,0,0,1.14-5.6A8.24,8.24,0,0,0,153.42,562.029Z" transform="translate(-126.749 -525.904)" fill="#74a839"/>
          <path id="Trazado_1512" data-name="Trazado 1512" d="M150.081,565.18a19.011,19.011,0,0,0,3.4.4c.433-.119,1.174-.253,1.971-.475A13.654,13.654,0,0,1,150.081,565.18Z" transform="translate(-131.134 -519.804)" fill="#74a839"/>
          <path id="Trazado_1513" data-name="Trazado 1513" d="M153.717,560.255a14.3,14.3,0,0,1,3.862,7.685A11.138,11.138,0,0,0,153.717,560.255Z" transform="translate(-125.178 -527.755)" fill="#74a839"/>
          <path id="Trazado_1514" data-name="Trazado 1514" d="M149.537,558.354c.045.09.095.179.14.269.14.288.718.454,1.14.5A3.875,3.875,0,0,1,149.537,558.354Z" transform="translate(-132.025 -530.869)" fill="#74a839"/>
          <path id="Trazado_1515" data-name="Trazado 1515" d="M157.141,553.948a21.571,21.571,0,0,1,2.512.5,20.055,20.055,0,0,0-6.577-.792,8.489,8.489,0,0,0-3.279.844,7.043,7.043,0,0,1,1.688-.541A18.734,18.734,0,0,1,157.141,553.948Z" transform="translate(-131.599 -538.619)" fill="#74a839"/>
          <path id="Trazado_1516" data-name="Trazado 1516" d="M147.106,563.082a5.912,5.912,0,0,1-.148-.678A5.023,5.023,0,0,0,147.106,563.082Z" transform="translate(-136.25 -524.235)" fill="#74a839"/>
          <path id="Trazado_1517" data-name="Trazado 1517" d="M147.48,563.756a6.538,6.538,0,0,1-.454-1.05A5.93,5.93,0,0,0,147.48,563.756Z" transform="translate(-136.139 -523.74)" fill="#74a839"/>
          <path id="Trazado_1518" data-name="Trazado 1518" d="M147.512,563.617c-.092-.148-.19-.293-.277-.448C147.322,563.319,147.412,563.47,147.512,563.617Z" transform="translate(-135.796 -522.982)" fill="#74a839"/>
          <path id="Trazado_1519" data-name="Trazado 1519" d="M153.038,564.971a6.833,6.833,0,0,1-.831.3C152.484,565.185,152.761,565.082,153.038,564.971Z" transform="translate(-127.652 -520.03)" fill="#74a839"/>
          <path id="Trazado_1520" data-name="Trazado 1520" d="M151.571,560.162c-.047.005-.095,0-.142.008a6.524,6.524,0,0,0-3.947,1.736,5.949,5.949,0,0,1,1.849-1.153A12.282,12.282,0,0,1,151.571,560.162Z" transform="translate(-135.392 -527.907)" fill="#74a839"/>
          <path id="Trazado_1521" data-name="Trazado 1521" d="M153.5,564.671a5.7,5.7,0,0,1-.715.456A5.691,5.691,0,0,0,153.5,564.671Z" transform="translate(-126.703 -520.521)" fill="#74a839"/>
          <path id="Trazado_1522" data-name="Trazado 1522" d="M150.831,560.281a12.9,12.9,0,0,1,4.68,2.519A11.514,11.514,0,0,0,150.831,560.281Z" transform="translate(-129.906 -527.713)" fill="#74a839"/>
          <path id="Trazado_1523" data-name="Trazado 1523" d="M157.843,555.71c-.784-.346-1.543-.7-2.3-1.037q1.128.527,2.229,1.108c-2.923,8.015-.338,14.913,4.018,21.812l.053-.016C157.489,570.789,154.864,563.8,157.843,555.71Z" transform="translate(-122.184 -536.899)" fill="#74a839"/>
          <path id="Trazado_1524" data-name="Trazado 1524" d="M147.349,561l.045-.053Z" transform="translate(-135.609 -526.623)" fill="#74a839"/>
          <path id="Trazado_1525" data-name="Trazado 1525" d="M168.116,583.522l.187,0Z" transform="translate(-101.591 -489.642)" fill="#74a839"/>
          <path id="Trazado_1526" data-name="Trazado 1526" d="M155.113,550c.208.066.419.124.628.193C155.532,550.124,155.321,550.063,155.113,550Z" transform="translate(-122.891 -544.554)" fill="#74a839"/>
          <path id="Trazado_1527" data-name="Trazado 1527" d="M181.412,554.759q.882-.34,1.773-.636C182.589,554.318,182,554.524,181.412,554.759Z" transform="translate(-79.811 -537.8)" fill="#74a839"/>
          <path id="Trazado_1528" data-name="Trazado 1528" d="M182.492,554.092q.273-.083.546-.158C182.853,553.979,182.674,554.042,182.492,554.092Z" transform="translate(-78.042 -538.109)" fill="#74a839"/>
          <path id="Trazado_1529" data-name="Trazado 1529" d="M180.687,555.161c.612-.277,1.224-.546,1.844-.786C181.911,554.623,181.294,554.876,180.687,555.161Z" transform="translate(-80.999 -537.387)" fill="#74a839"/>
          <path id="Trazado_1530" data-name="Trazado 1530" d="M189.915,564.76a4.447,4.447,0,0,0-1.031-3.794,5.093,5.093,0,0,1,.807,1.506A4.825,4.825,0,0,1,189.915,564.76Z" transform="translate(-67.573 -526.59)" fill="#74a839"/>
          <path id="Trazado_1531" data-name="Trazado 1531" d="M179.92,563.809a13.263,13.263,0,0,1-1.5-.448c-.055.09-.111.179-.169.269Z" transform="translate(-84.982 -522.667)" fill="#74a839"/>
          <path id="Trazado_1532" data-name="Trazado 1532" d="M189.427,560.2a20.938,20.938,0,0,1-2.306,5.363,6.3,6.3,0,0,0,1.406-2.139,14.14,14.14,0,0,0,.931-2.686c.675-3.071-.485-5.622-3.023-6.78A5.45,5.45,0,0,1,189.427,560.2Z" transform="translate(-71.583 -538.075)" fill="#74a839"/>
          <path id="Trazado_1533" data-name="Trazado 1533" d="M182.516,562.892a14.487,14.487,0,0,1,1.989-1.485,16.59,16.59,0,0,1,6.455-2.448,5.578,5.578,0,0,0,1.3-.314l-.066.01A14.948,14.948,0,0,0,182.516,562.892Z" transform="translate(-78.002 -530.393)" fill="#74a839"/>
          <path id="Trazado_1534" data-name="Trazado 1534" d="M186.151,568.078c.042-.008.09-.01.135-.018a10.321,10.321,0,0,0,7.1-4.72,10.307,10.307,0,0,1-.91,1.158A11.416,11.416,0,0,1,186.151,568.078Z" transform="translate(-72.048 -522.702)" fill="#74a839"/>
          <path id="Trazado_1535" data-name="Trazado 1535" d="M189.075,563.146l.018-.042c-.032.058-.063.113-.095.169C189.022,563.228,189.051,563.191,189.075,563.146Z" transform="translate(-67.384 -523.088)" fill="#74a839"/>
          <path id="Trazado_1536" data-name="Trazado 1536" d="M189.238,562.661c-.011.039-.019.079-.032.119C189.219,562.74,189.224,562.7,189.238,562.661Z" transform="translate(-67.044 -523.814)" fill="#74a839"/>
          <path id="Trazado_1537" data-name="Trazado 1537" d="M183.277,564.76c-.058-.045-.108-.1-.164-.143C183.166,564.665,183.219,564.712,183.277,564.76Z" transform="translate(-77.025 -520.61)" fill="#74a839"/>
          <path id="Trazado_1538" data-name="Trazado 1538" d="M183.474,561.629c.135-.129.266-.272.4-.393C183.735,561.36,183.609,561.5,183.474,561.629Z" transform="translate(-76.433 -526.148)" fill="#74a839"/>
          <path id="Trazado_1539" data-name="Trazado 1539" d="M188.751,560.823c.1.105.208.206.3.324A4.4,4.4,0,0,0,188.751,560.823Z" transform="translate(-67.789 -526.825)" fill="#74a839"/>
          <path id="Trazado_1540" data-name="Trazado 1540" d="M183.446,564.844a6.541,6.541,0,0,0,.7.335c-.113-.045-.227-.079-.338-.129C183.675,564.989,183.567,564.913,183.446,564.844Z" transform="translate(-76.479 -520.238)" fill="#74a839"/>
          <path id="Trazado_1541" data-name="Trazado 1541" d="M190.147,560.337c-.459-.09-.918-.177-1.372-.282a13.436,13.436,0,0,0-3.374.6A12.57,12.57,0,0,1,190.147,560.337Z" transform="translate(-73.277 -528.083)" fill="#74a839"/>
          <path id="Trazado_1542" data-name="Trazado 1542" d="M180.406,564.558l1.636.177a15.11,15.11,0,0,1,.066-1.567c-.076.432-.142.873-.187,1.327C181.414,564.534,180.91,564.553,180.406,564.558Z" transform="translate(-81.459 -522.983)" fill="#74a839"/>
          <path id="Trazado_1543" data-name="Trazado 1543" d="M154.9,565.566c-.19.214-.393.382-.591.578a5.123,5.123,0,0,1,3.094-.96c.248-.013.5-.042.747-.061-.67.021-1.338.042-2,.079A1.959,1.959,0,0,0,154.9,565.566Z" transform="translate(-124.205 -519.781)" fill="#74a839"/>
          <path id="Trazado_1544" data-name="Trazado 1544" d="M162.3,567.773c-1.095-.987-2-2.5-3.219-2.992a1.8,1.8,0,0,1,.372.306c1.005,1.071,2.108,2.052,3.2,3.036a2.823,2.823,0,0,1,.995,3.031c-.1.322-.2.636-.3.955C164.139,570.091,163.907,569.226,162.3,567.773Z" transform="translate(-116.395 -520.341)" fill="#74a839"/>
          <path id="Trazado_1545" data-name="Trazado 1545" d="M162.229,567.595v0Z" transform="translate(-111.235 -515.737)" fill="#74a839"/>
          <path id="Trazado_1546" data-name="Trazado 1546" d="M145.644,563.136a12.946,12.946,0,0,0,3.137,5.1A12.643,12.643,0,0,1,146.027,564C145.908,563.7,145.771,563.424,145.644,563.136Z" transform="translate(-138.402 -523.036)" fill="#74a839"/>
          <path id="Trazado_1547" data-name="Trazado 1547" d="M150.151,566.675c-.111-.021-.214-.053-.324-.076.1.021.19.055.29.076a13.759,13.759,0,0,0,6.49-.024A14.7,14.7,0,0,1,150.151,566.675Z" transform="translate(-131.55 -517.365)" fill="#74a839"/>
          <path id="Trazado_1548" data-name="Trazado 1548" d="M158.76,554.295l.034-.032Z" transform="translate(-116.917 -537.57)" fill="#74a839"/>
          <path id="Trazado_1549" data-name="Trazado 1549" d="M157.634,556.092Z" transform="translate(-118.762 -534.575)" fill="#74a839"/>
          <path id="Trazado_1550" data-name="Trazado 1550" d="M157.954,555.444c.026-.05.053-.1.079-.148Z" transform="translate(-118.237 -535.878)" fill="#74a839"/>
          <path id="Trazado_1551" data-name="Trazado 1551" d="M158.457,554.621l.013-.019Z" transform="translate(-117.413 -537.015)" fill="#74a839"/>
          <path id="Trazado_1552" data-name="Trazado 1552" d="M147.528,559.1a12.248,12.248,0,0,0,1.047,8.94c.182.38.377.741.541,1.039a32.441,32.441,0,0,1-1.409-3.5c-1.989-6.54,1.488-12.067,8.212-13.206.631-.105,1.264-.174,1.894-.219-.1.005-.2,0-.3.005C152.635,552.41,148.707,555.08,147.528,559.1Z" transform="translate(-136.031 -541.02)" fill="#74a839"/>
          <path id="Trazado_1553" data-name="Trazado 1553" d="M145.653,562.447c.116.179.216.375.338.549,1.96-1.459,3.833-2.849,5.682-4.226l-.019-.037L146,562.953C145.883,562.789,145.769,562.615,145.653,562.447Z" transform="translate(-138.388 -530.25)" fill="#74a839"/>
          <path id="Trazado_1554" data-name="Trazado 1554" d="M153.2,552.33c.309.074.62.126.926.219,2.163.654,4.29,1.433,6.416,2.216-.314-.142-.62-.287-.944-.422A33.552,33.552,0,0,0,153.2,552.33Z" transform="translate(-126.018 -540.737)" fill="#74a839"/>
          <path id="Trazado_1555" data-name="Trazado 1555" d="M157.229,556.707q2.62-2.216,5.714-4.838l-.026-.013-5.735,4.836Z" transform="translate(-119.504 -541.515)" fill="#74a839"/>
          <path id="Trazado_1556" data-name="Trazado 1556" d="M143.708,559.617a29.391,29.391,0,0,0,2.844,5.1c-.19-.3-.38-.612-.575-.916A31.7,31.7,0,0,1,143.708,559.617Z" transform="translate(-141.574 -528.8)" fill="#74a839"/>
          <path id="Trazado_1557" data-name="Trazado 1557" d="M143.59,557.543a22.75,22.75,0,0,1,2.3-5.735c-.061.1-.124.187-.187.3a20.192,20.192,0,0,0-2.564,7.426c-.05.335-.161.662-.243.992v4.416c.116.572.24,1.145.356,1.717A21.359,21.359,0,0,1,143.59,557.543Z" transform="translate(-142.899 -541.592)" fill="#74a839"/>
          <path id="Trazado_1558" data-name="Trazado 1558" d="M154.979,549.476c-.09.008-.177.008-.266.016a19.592,19.592,0,0,0-6.907,2.045,41.278,41.278,0,0,1,5.068-1.71C153.578,549.674,154.28,549.56,154.979,549.476Z" transform="translate(-134.861 -545.412)" fill="#74a839"/>
          <path id="Trazado_1559" data-name="Trazado 1559" d="M163.782,553.7c-1.506-.763-3-1.517-4.54-2.169-1.282-.544-2.577-1.034-3.881-1.459.678.227,1.353.475,2.026.739C159.55,551.66,161.645,552.681,163.782,553.7Z" transform="translate(-122.485 -544.428)" fill="#74a839"/>
          <path id="Trazado_1560" data-name="Trazado 1560" d="M177.775,554.608a12.329,12.329,0,0,1,1.248,1.815A12.329,12.329,0,0,0,177.775,554.608Z" transform="translate(-85.769 -537.006)" fill="#74a839"/>
          <path id="Trazado_1561" data-name="Trazado 1561" d="M174,567.593c.055.216.124.443.2.67C174.132,568.039,174.053,567.812,174,567.593Z" transform="translate(-91.948 -515.735)" fill="#74a839"/>
          <path id="Trazado_1562" data-name="Trazado 1562" d="M186.288,565.736a29.091,29.091,0,0,1-9.36,14.357c-2.7,2.38-3.53,4.527-2.752,7.55a6.9,6.9,0,0,1,2.49-7.279c4.844-4.224,8.479-9.228,9.893-15.617a13.186,13.186,0,0,0-1.105-9.394A13.75,13.75,0,0,1,186.288,565.736Z" transform="translate(-92.121 -535.787)" fill="#74a839"/>
          <path id="Trazado_1563" data-name="Trazado 1563" d="M174.88,570.845l-.037-.14c.04.33.047.66.071.989A1.849,1.849,0,0,0,174.88,570.845Z" transform="translate(-90.572 -510.637)" fill="#74a839"/>
          <path id="Trazado_1564" data-name="Trazado 1564" d="M182.785,555.28a18.578,18.578,0,0,1,2.221,1.361c-.369-.266-.723-.546-1.129-.794a31.6,31.6,0,0,0-12.164-4,50.57,50.57,0,0,1,5.92,1.34A28.437,28.437,0,0,1,182.785,555.28Z" transform="translate(-95.699 -541.527)" fill="#74a839"/>
          <path id="Trazado_1565" data-name="Trazado 1565" d="M163.407,567.847c-.106.33-.206.657-.348,1.008a25.47,25.47,0,0,0-1.67,6.529c.625-2.321,1.053-4.711,1.852-6.97C163.31,568.222,163.352,568.037,163.407,567.847Z" transform="translate(-112.611 -515.319)" fill="#74a839"/>
          <path id="Trazado_1566" data-name="Trazado 1566" d="M172.588,592.64a23.064,23.064,0,0,0,1.34,6.308,6.954,6.954,0,0,0,1.161-1.9c2.237-5.991,4.477-11.99,6.376-18.092A25.6,25.6,0,0,0,182.629,572a23.372,23.372,0,0,0-4.424,3.939,26.589,26.589,0,0,1-.929,3.5Q174.989,586.056,172.588,592.64Z" transform="translate(-94.266 -508.517)" fill="#74a839"/>
          <path id="Trazado_1567" data-name="Trazado 1567" d="M164.81,552.191a69.462,69.462,0,0,1,8.722-.617A56.489,56.489,0,0,0,164.81,552.191Z" transform="translate(-107.007 -541.978)" fill="#74a839"/>
          <path id="Trazado_1568" data-name="Trazado 1568" d="M171.6,551.828c-.061-.008-.121-.013-.179-.021.135.018.269.031.4.053C171.752,551.849,171.675,551.836,171.6,551.828Z" transform="translate(-96.176 -541.594)" fill="#74a839"/>
          <path id="Trazado_1569" data-name="Trazado 1569" d="M159.464,553.694l.045-.029Z" transform="translate(-115.764 -538.55)" fill="#74a839"/>
          <path id="Trazado_1570" data-name="Trazado 1570" d="M164.519,551.883l.364-.055C164.762,551.848,164.64,551.861,164.519,551.883Z" transform="translate(-107.483 -541.561)" fill="#74a839"/>
          <path id="Trazado_1571" data-name="Trazado 1571" d="M176.768,553.676a15.111,15.111,0,0,1,1.826,1.551A15.576,15.576,0,0,0,176.768,553.676Z" transform="translate(-87.418 -538.532)" fill="#74a839"/>
          <path id="Trazado_1572" data-name="Trazado 1572" d="M177.472,554.275c.28.279.541.567.786.863C178.013,554.842,177.749,554.555,177.472,554.275Z" transform="translate(-86.265 -537.551)" fill="#74a839"/>
          <path id="Trazado_1573" data-name="Trazado 1573" d="M164.392,587.539a1.889,1.889,0,0,0,2.873.024c.755-.823.586-1.889-.256-2.889a9.52,9.52,0,0,1-1.741-2.67c-.266-.726-.525-1.454-.789-2.182a23.168,23.168,0,0,1-1.343,6.308C163.534,586.622,163.97,587.091,164.392,587.539Z" transform="translate(-109.749 -495.701)" fill="#74a839"/>
          <path id="Trazado_1574" data-name="Trazado 1574" d="M230.035,595.358c1.095-.987,2-2.5,3.218-2.992a1.841,1.841,0,0,1,1.432-.129,70.7,70.7,0,0,0,7.3,1.031c.67.021,1.338.042,2,.079a1.96,1.96,0,0,1,1.245.364c.19.214.4.382.591.578a4.667,4.667,0,0,1,.491.383,10.868,10.868,0,0,0,2.353,1.688c.084.042.169.09.253.132.253.124.509.224.768.327a10.489,10.489,0,0,0,1.029.348l.156.045a14.715,14.715,0,0,0,6.458.024c.108-.021.211-.053.322-.076a18.509,18.509,0,0,0,5.5-2.132l.2-.126c.4-.253.77-.536,1.137-.823.208-.169.422-.332.62-.514.156-.14.3-.3.446-.44a12.712,12.712,0,0,0,2.757-4.232c.119-.3.253-.578.38-.865.15-.433.314-.847.43-1.314a3.81,3.81,0,0,1,.744-1.327c.388-.5.731-1.026,1.089-1.543.19-.3.38-.612.575-.915a31.533,31.533,0,0,0,2.269-4.184c.084-.193.174-.383.253-.578.182-.435.34-.876.5-1.317.272-.794.533-1.593.731-2.427.111-.472.2-.952.3-1.427a21.369,21.369,0,0,0-.335-9.117,22.649,22.649,0,0,0-2.3-5.735c-1.008-1.594-1.926-2.013-3.029-1.39-1.2.681-1.258,1.754-.171,3.591,3.812,6.442,2.461,14.681-1.071,19.78-.116.179-.216.374-.338.549-1.96-1.459-3.831-2.849-5.68-4.226l.016-.037-.034-.026c.055-.105.135-.245.219-.4a32.989,32.989,0,0,0,1.406-3.5c1.989-6.54-1.488-12.067-8.212-13.206-.631-.105-1.264-.174-1.892-.219a23.129,23.129,0,0,0-5.405.456c-.309.074-.62.127-.926.219-2.163.654-4.29,1.433-6.416,2.216-1.037.462-2.045.939-2.918,1.34l-.232-.193-.047.016q-2.62-2.216-5.714-4.838l.026-.013-.05-.039c.731-.338,1.451-.681,2.168-1.023,1.5-.763,3-1.517,4.538-2.169,1.282-.544,2.577-1.034,3.883-1.459l.026-.011c.206-.069.417-.129.625-.193a28.228,28.228,0,0,1,12.106-1.382c.087.008.174.008.264.016a19.592,19.592,0,0,1,6.907,2.045l.193.071a1.967,1.967,0,0,0,2.617-.971,1.884,1.884,0,0,0-.857-2.461c-.119-.06-.224-.132-.346-.193-.158-.082-.319-.153-.48-.227a26.47,26.47,0,0,0-5.759-1.828,28.137,28.137,0,0,0-4.424-.493,33.257,33.257,0,0,0-6.907.586,43.964,43.964,0,0,0-8.516,2.559c-.451.187-.9.37-1.353.57-.079.037-.158.074-.237.108-2.512,1.142-4.891,2.57-7.337,3.86-.148.09-.3.174-.446.264a2.384,2.384,0,0,1-.572.235c-.09.029-.185.05-.28.071l-.082.018a2.158,2.158,0,0,1-.958-.018,61.911,61.911,0,0,0-35.672,0,2.147,2.147,0,0,1-.955.018l-.084-.018c-.095-.021-.19-.042-.28-.071a2.365,2.365,0,0,1-.57-.235c-.148-.09-.3-.174-.449-.264-2.445-1.29-4.825-2.717-7.337-3.86-.079-.034-.158-.071-.237-.108-.449-.2-.9-.383-1.353-.57a43.963,43.963,0,0,0-8.516-2.559,33.256,33.256,0,0,0-6.907-.586,28.136,28.136,0,0,0-4.424.493,26.564,26.564,0,0,0-5.759,1.828c-.161.074-.322.145-.48.23-.119.058-.227.129-.346.19a1.886,1.886,0,0,0-.857,2.461,1.969,1.969,0,0,0,2.62.971l.19-.071a19.593,19.593,0,0,1,6.907-2.045c.09-.008.177-.008.266-.016a28.221,28.221,0,0,1,12.1,1.382c.208.063.419.124.628.193l.026.011c1.3.425,2.6.915,3.881,1.459,1.535.652,3.034,1.406,4.54,2.169.715.343,1.435.686,2.166,1.023l-.05.039.026.013q-3.1,2.628-5.714,4.838l-.047-.016-.232.193c-.873-.4-1.881-.879-2.918-1.34-2.126-.783-4.253-1.562-6.416-2.216-.306-.092-.617-.145-.926-.219a23.118,23.118,0,0,0-5.4-.456c-.63.045-1.264.114-1.894.219-6.724,1.14-10.2,6.667-8.212,13.206a32.436,32.436,0,0,0,1.409,3.5c.082.153.161.293.216.4l-.034.026.018.037c-1.849,1.377-3.722,2.767-5.682,4.226-.121-.174-.222-.369-.338-.549-3.532-5.1-4.883-13.338-1.068-19.78,1.087-1.836,1.024-2.91-.174-3.591-1.1-.623-2.021-.2-3.029,1.39a22.751,22.751,0,0,0-2.3,5.735,21.359,21.359,0,0,0-.335,9.115c.095.477.185.958.3,1.43.2.834.459,1.633.731,2.427.158.441.317.881.5,1.317.076.2.166.385.251.578a31.7,31.7,0,0,0,2.269,4.184c.2.3.385.612.575.915.359.517.7,1.042,1.09,1.543a3.812,3.812,0,0,1,.744,1.327c.119.464.28.881.43,1.314.127.288.264.567.383.865a12.643,12.643,0,0,0,2.754,4.232c.148.145.29.3.446.44.2.182.412.346.62.514.367.287.739.57,1.137.823.066.042.135.084.2.126a18.491,18.491,0,0,0,5.492,2.132c.111.024.214.055.325.076a14.7,14.7,0,0,0,6.455-.024l.156-.045a10.49,10.49,0,0,0,1.029-.348c.259-.1.514-.2.768-.327.084-.042.169-.09.253-.132a10.805,10.805,0,0,0,2.353-1.688,4.668,4.668,0,0,1,.491-.383c.2-.2.4-.364.591-.578a1.96,1.96,0,0,1,1.245-.364c.667-.037,1.335-.058,2-.079a70.695,70.695,0,0,0,7.3-1.031,1.841,1.841,0,0,1,1.432.129c1.221.488,2.124,2,3.219,2.992,1.609,1.454,1.841,2.319,1.05,4.337q-.76,2.481-1.564,4.933a26.8,26.8,0,0,0-.7,6.78A23.369,23.369,0,0,1,192,615.347a23.849,23.849,0,0,1-.4-6.363,1.849,1.849,0,0,1,.034-.85l.037-.143a25.47,25.47,0,0,1,1.67-6.529c.142-.351.243-.678.348-1.008.069-.224.148-.451.2-.67v0a6.9,6.9,0,0,0-2.49-7.279c-4.841-4.224-8.479-9.228-9.893-15.618a13.861,13.861,0,0,1,.261-7.442h0a11.732,11.732,0,0,1,.844-1.952l.079-.148a12.312,12.312,0,0,1,1.248-1.812l.013-.019q.372-.443.786-.862l.034-.032a15.3,15.3,0,0,1,1.823-1.549l.045-.029c.369-.269.72-.546,1.126-.794a31.6,31.6,0,0,1,12.164-4c.121-.021.243-.034.364-.055.077-.011.15-.024.224-.032s.121-.013.179-.021a61.913,61.913,0,0,1,17.443,0c.058.008.119.013.179.021s.15.021.224.032c.121.021.243.034.364.055a31.6,31.6,0,0,1,12.164,4c.406.248.76.528,1.129.794l.042.029a15.576,15.576,0,0,1,1.826,1.551l.032.029c.277.279.541.567.786.862l.013.016a12.334,12.334,0,0,1,1.248,1.815c.029.05.053.1.079.148a13.186,13.186,0,0,1,1.105,9.394c-1.414,6.389-5.049,11.394-9.893,15.618a6.9,6.9,0,0,0-2.49,7.279v0c.05.219.129.446.2.67.106.33.208.657.348,1.008a25.354,25.354,0,0,1,1.67,6.532l.037.14a1.849,1.849,0,0,1,.034.85,23.744,23.744,0,0,1-.4,6.363,23.369,23.369,0,0,1,4.424-3.939,26.8,26.8,0,0,0-.7-6.78c-.53-1.635-1.055-3.279-1.562-4.931C228.194,597.68,228.426,596.812,230.035,595.358Zm-60.183-3.424c-.055.047-.108.1-.166.143a5.685,5.685,0,0,1-.715.456,6.529,6.529,0,0,1-.7.335c-.277.111-.554.214-.831.3-.047.013-.084.037-.135.05-.034.008-.071.011-.108.019-.8.221-1.538.356-1.971.475a19.016,19.016,0,0,1-3.4-.4c-.042-.008-.09-.01-.135-.018a10.316,10.316,0,0,1-7.1-4.722c-.1-.148-.19-.3-.277-.449-.026-.045-.055-.084-.079-.129l-.018-.042a5.931,5.931,0,0,1-.454-1.05c-.013-.04-.018-.079-.032-.119a5.025,5.025,0,0,1-.148-.678,4.45,4.45,0,0,1,1.032-3.794l.045-.053a3.938,3.938,0,0,1,.306-.324,6.525,6.525,0,0,1,3.947-1.736c.047-.005.095,0,.142-.008.459-.09.921-.177,1.372-.282a13.436,13.436,0,0,1,3.374.6,11.516,11.516,0,0,1,4.68,2.519c.142.124.269.264.4.393.222.211.448.412.662.644a8.24,8.24,0,0,1,1.432,2.284A4.62,4.62,0,0,1,169.852,591.934Zm12.7-3.329-.053.016c.058.09.111.179.169.269l-1.662.179a15.762,15.762,0,0,1-4.013.433l-1.636.177a12.225,12.225,0,0,0-3.928-9.252,14.688,14.688,0,0,0-1.992-1.485,16.592,16.592,0,0,0-6.455-2.448,5.571,5.571,0,0,1-1.3-.314c-.422-.045-1-.211-1.14-.5-.045-.09-.095-.179-.14-.269a6.294,6.294,0,0,1-1.406-2.139,14.136,14.136,0,0,1-.931-2.686c-.675-3.071.485-5.624,3.023-6.783a8.487,8.487,0,0,1,3.279-.844,20.052,20.052,0,0,1,6.577.792c.185.045.364.108.549.158.359.105.715.219,1.074.34.6.2,1.19.4,1.773.636l.011,0,.053.024c.623.251,1.243.5,1.849.789.754.338,1.514.691,2.3,1.037C175.569,574.826,178.194,581.817,182.549,588.6Zm81.3-6.68a4.41,4.41,0,0,1,.3.324l.045.053a4.447,4.447,0,0,1,1.031,3.794,5.016,5.016,0,0,1-.148.678c-.013.039-.018.079-.032.119a5.923,5.923,0,0,1-.454,1.05l-.018.042c-.024.045-.053.082-.076.127-.09.153-.179.3-.28.454a10.321,10.321,0,0,1-7.1,4.72c-.045.008-.092.01-.134.018a19.017,19.017,0,0,1-3.4.4c-.433-.119-1.171-.253-1.971-.475-.034-.008-.074-.011-.108-.019s-.087-.037-.135-.05c-.277-.082-.554-.185-.831-.3a6.53,6.53,0,0,1-.7-.335,5.68,5.68,0,0,1-.715-.456c-.058-.047-.111-.1-.164-.143a4.617,4.617,0,0,1-1.142-5.6,8.186,8.186,0,0,1,1.435-2.284c.211-.232.438-.433.66-.644.135-.129.261-.269.4-.393a11.55,11.55,0,0,1,4.68-2.519,13.436,13.436,0,0,1,3.374-.6c.454.105.913.193,1.372.282.05.005.095,0,.145.008A6.538,6.538,0,0,1,263.85,581.925Zm-27.573,6.68c4.355-6.788,6.98-13.779,4-21.867.784-.346,1.543-.7,2.3-1.037.607-.285,1.224-.538,1.844-.786l.061-.026.008,0c.586-.235,1.177-.44,1.773-.636.359-.121.715-.235,1.076-.34.182-.05.361-.113.546-.158a20.058,20.058,0,0,1,6.579-.792,8.438,8.438,0,0,1,3.277.847c2.538,1.158,3.7,3.709,3.023,6.78a14.141,14.141,0,0,1-.931,2.686,6.3,6.3,0,0,1-1.406,2.139c-.045.09-.1.179-.14.269-.14.288-.718.454-1.14.5a5.572,5.572,0,0,1-1.3.314,16.592,16.592,0,0,0-6.455,2.448,14.491,14.491,0,0,0-1.989,1.485,14.3,14.3,0,0,0-3.865,7.685,15.115,15.115,0,0,0-.066,1.567l-1.636-.177a15.729,15.729,0,0,1-4.01-.433l-1.665-.179c.058-.09.113-.179.169-.269Z" transform="translate(-142.888 -547.927)" fill="#74a839"/>
          <path id="Trazado_1575" data-name="Trazado 1575" d="M173.827,582a9.462,9.462,0,0,1-1.741,2.67c-.842,1-1.01,2.066-.256,2.889a1.889,1.889,0,0,0,2.873-.024c.422-.448.857-.918,1.256-1.409a23.066,23.066,0,0,1-1.34-6.308C174.352,580.551,174.1,581.279,173.827,582Z" transform="translate(-96.296 -495.701)" fill="#74a839"/>
          <path id="Trazado_1576" data-name="Trazado 1576" d="M173.53,583.9a1.924,1.924,0,0,0-2.108-1.828c-.411-.008-.82-.005-1.232-.008s-.82,0-1.232.008a1.931,1.931,0,1,0-.047,3.849c.364-.008.728-.005,1.092,0l.187,0,.187,0c.364,0,.728-.005,1.092,0A1.909,1.909,0,0,0,173.53,583.9Z" transform="translate(-103.665 -492.033)" fill="#74a839"/>
        </g>
        <g id="Grupo_569" data-name="Grupo 569" transform="translate(38.354 9.393)">
          <path id="Trazado_1577" data-name="Trazado 1577" d="M169.231,581.986c-.412,0-.82,0-1.232.005a2.75,2.75,0,0,0-.507.085c1.142.066,2.366.079,3.643.029a2.552,2.552,0,0,0-.675-.114C170.052,581.986,169.64,581.989,169.231,581.986Z" transform="translate(-140.966 -501.55)" fill="none"/>
          <path id="Trazado_1578" data-name="Trazado 1578" d="M197.5,626.022q2.4-6.581,4.691-13.2a26.48,26.48,0,0,0,.929-3.5,23.743,23.743,0,0,0,.4-6.363c-.024-.33-.032-.659-.069-.989-.625-2.324-1.053-4.714-1.852-6.972-.069-.193-.111-.377-.166-.564-.074-.23-.142-.456-.2-.673l0,0c-.776-3.021.053-5.171,2.754-7.55a29.1,29.1,0,0,0,9.36-14.357,18.34,18.34,0,0,0,.528-2.807l.013-.09a14.87,14.87,0,0,0,.037-2.67l0-.005a12.343,12.343,0,0,0-.435-2.382c-.016-.047-.018-.1-.032-.148a11.818,11.818,0,0,0-.944-2.282l-.076-.148a12.2,12.2,0,0,0-1.25-1.812l-.013-.018q-.368-.443-.784-.863l-.034-.029a14.914,14.914,0,0,0-1.826-1.551l-.04-.029a18.407,18.407,0,0,0-2.224-1.361,28.385,28.385,0,0,0-5.15-2.092,51.159,51.159,0,0,0-5.92-1.34c-.121-.016-.243-.037-.364-.053s-.272-.034-.406-.055a61.889,61.889,0,0,0-17.44,0c-.135.021-.269.032-.4.055s-.243.037-.367.053a51.115,51.115,0,0,0-5.917,1.34,28.408,28.408,0,0,0-5.152,2.092,18.575,18.575,0,0,0-2.221,1.361l-.042.032a15.1,15.1,0,0,0-1.826,1.546l-.034.032q-.415.419-.783.863l-.013.018a12.109,12.109,0,0,0-1.248,1.812c-.029.05-.053.1-.079.148a11.638,11.638,0,0,0-.847,1.952h0a12.255,12.255,0,0,0-.459,1.931v.019a15.74,15.74,0,0,0,.472,6.482,29.078,29.078,0,0,0,9.36,14.357c2.7,2.38,3.53,4.53,2.751,7.55v0c-.055.216-.127.443-.2.673-.058.187-.1.372-.166.564-.8,2.258-1.229,4.648-1.855,6.97-.037.333-.045.662-.069.995a23.732,23.732,0,0,0,.4,6.36,26.07,26.07,0,0,0,.926,3.5q2.291,6.62,4.691,13.2c.266.728.522,1.459.791,2.184a9.488,9.488,0,0,0,1.741,2.667,37.981,37.981,0,0,0,7.526,1.148,2.756,2.756,0,0,1,.507-.085c.412-.005.82,0,1.232-.005s.82,0,1.229.005a2.554,2.554,0,0,1,.675.114,29.64,29.64,0,0,0,7.358-1.177,9.555,9.555,0,0,0,1.744-2.667C196.976,627.481,197.234,626.75,197.5,626.022Z" transform="translate(-157.438 -551.496)" fill="#fff"/>
        </g>
      </g>
      <path id="Trazado_1579" data-name="Trazado 1579" d="M173.226,617.467c0-7-.011-14.008.013-21.012,0-.918-.14-1.435-1.187-1.789-4.791-1.617-7.767-4.981-8.165-10.035a76.112,76.112,0,0,1,.045-12.359c.5-5.88,5.77-10.281,11.75-10.257,5.9.021,11.128,4.432,11.6,10.262a76.644,76.644,0,0,1,.018,12.5c-.412,4.931-3.345,8.228-8.012,9.851a1.611,1.611,0,0,0-1.324,1.836q.059,20.807.021,41.611a7.994,7.994,0,0,1-.127,1.8,2.319,2.319,0,0,1-4.511-.008,7.568,7.568,0,0,1-.121-1.66Q173.22,627.835,173.226,617.467Zm9.431-38.769a56.009,56.009,0,0,0-.034-5.688,6.971,6.971,0,0,0-6.986-6.252,6.846,6.846,0,0,0-7.012,6.194,85.289,85.289,0,0,0,0,11.378,6.779,6.779,0,0,0,7.023,6.157,6.915,6.915,0,0,0,6.978-6.239A54.082,54.082,0,0,0,182.658,578.7Z" transform="translate(-108.894 -524.874)" fill="#00549c"/>
    </g>
  </g>
</svg>
