<svg xmlns="http://www.w3.org/2000/svg" xmlns:xlink="http://www.w3.org/1999/xlink" width="220" height="210" viewBox="0 0 220 210">
  <defs>
    <filter id="Image" x="0" y="0" width="220" height="210" filterUnits="userSpaceOnUse">
      <feOffset dy="5" input="SourceAlpha"/>
      <feGaussianBlur stdDeviation="2.5" result="blur"/>
      <feFlood flood-opacity="0.161"/>
      <feComposite operator="in" in2="blur"/>
      <feComposite in="SourceGraphic"/>
    </filter>
  </defs>
  <g id="Grupo_6340" data-name="Grupo 6340" transform="translate(7.5 2.5)">
    <g transform="matrix(1, 0, 0, 1, -7.5, -2.5)" filter="url(#Image)">
      <g id="Image-2" data-name="Image" transform="translate(7.5 2.5)" fill="#fff" stroke="#a2e2ff" stroke-width="6">
        <rect width="205" height="195" rx="97.5" stroke="none"/>
        <rect x="3" y="3" width="199" height="189" rx="94.5" fill="none"/>
      </g>
    </g>
    <g id="Grupo_572" data-name="Grupo 572" transform="translate(50 43)">
      <path id="Trazado_1580" data-name="Trazado 1580" d="M282.509,546.362a64.882,64.882,0,0,1,7.024,1.277c15.691,4.6,25.362,14.914,28.612,30.956a37.052,37.052,0,0,1-3.656,24.559,1.261,1.261,0,0,0,.092,1.422,16.331,16.331,0,0,1,2.6,8.983,1.84,1.84,0,0,0,.506,1.167c1.383,1.448,2.826,2.842,4.235,4.267,1.235,1.251,1.232,2.3,0,3.555-.611.622-1.248,1.219-1.941,1.891a9.758,9.758,0,0,0,6.06,2.341,47.875,47.875,0,0,1,6.065.7c5.494,1.238,8.03,5.3,7.087,11.08-.221,1.351-.471,2.7-.666,4.056a6.707,6.707,0,0,0,4.625,7.585c1.4.493,2.012,1.509,1.641,2.723-.379,1.233-1.535,1.73-2.992,1.288a10.958,10.958,0,0,1-7.477-12.112c.263-1.841.637-3.677.743-5.528.161-2.831-.924-4.272-3.711-4.907a31.838,31.838,0,0,0-5.012-.614,14.674,14.674,0,0,1-9.563-3.758,12.587,12.587,0,0,1-1.148,1.522,2.1,2.1,0,0,1-3.25.013c-1.488-1.446-2.929-2.942-4.422-4.38a1.728,1.728,0,0,0-1.074-.487,16.6,16.6,0,0,1-9.26-2.757,2.005,2.005,0,0,0-2.194-.145,38.98,38.98,0,1,1-22.349-74.1c1.306-.229,2.623-.406,3.937-.606Zm21.717,49.547a26.633,26.633,0,1,0-45.825,5.354c8.233,11,21.8,12.662,30.524,9.052-1.251-4.583-1.146-8.986,2.581-12.481C295.219,594.355,299.636,594.542,304.226,595.909Zm-13.5,18.425a30.924,30.924,0,1,1,2.676-56.71,30.3,30.3,0,0,1,14.116,14.145c4.164,8.583,4.161,17.322.6,26.071l3.021,2.368a34.718,34.718,0,1,0-59.107,6.057c11.027,14.49,29.041,16.5,40.966,11.153Zm22.2-1.164c-.005-6.273-6.344-13.2-12.66-13.84-5.341-.54-8.372,2.6-7.659,7.927.761,5.649,6.471,11.448,12.131,12.32C309.651,620.333,312.935,617.763,312.93,613.17ZM315.843,619l.392.474-3.571,3.495-.406-.419,1.678,1.809,3.674-3.684Z" transform="translate(-240.784 -546.362)" fill="#74a839"/>
      <path id="Trazado_1581" data-name="Trazado 1581" d="M263.65,556.275A12.905,12.905,0,1,1,250.7,569.069,12.872,12.872,0,0,1,263.65,556.275Zm8.607,12.926a8.665,8.665,0,1,0-17.329-.008,8.665,8.665,0,0,0,17.329.008Z" transform="translate(-224.593 -530.168)" fill="#00549c"/>
      <path id="Trazado_1582" data-name="Trazado 1582" d="M246.458,571.86a23.894,23.894,0,0,1,8.233-17.1,2.147,2.147,0,0,1,3.187-.076c.89.951.769,2.207-.377,3.234a19.789,19.789,0,0,0-6.811,14.564c-.061,1.557-.845,2.5-2.112,2.5-1.288,0-2.136-1.035-2.123-2.6C246.458,572.279,246.458,572.174,246.458,571.86Z" transform="translate(-231.52 -533.862)" fill="#74a839"/>
      <path id="Trazado_1583" data-name="Trazado 1583" d="M251.194,554.879a2.049,2.049,0,1,1,4.087.224,2,2,0,0,1-2.149,1.965A2.031,2.031,0,0,1,251.194,554.879Z" transform="translate(-223.782 -535.754)" fill="#74a839"/>
    </g>
  </g>
</svg>
