<svg xmlns="http://www.w3.org/2000/svg" xmlns:xlink="http://www.w3.org/1999/xlink" width="220" height="210" viewBox="0 0 220 210">
  <defs>
    <filter id="Image" x="0" y="0" width="220" height="210" filterUnits="userSpaceOnUse">
      <feOffset dy="5" input="SourceAlpha"/>
      <feGaussianBlur stdDeviation="2.5" result="blur"/>
      <feFlood flood-opacity="0.161"/>
      <feComposite operator="in" in2="blur"/>
      <feComposite in="SourceGraphic"/>
    </filter>
  </defs>
  <g id="Grupo_6341" data-name="Grupo 6341" transform="translate(-270.5 -1568.5)">
    <g transform="matrix(1, 0, 0, 1, 270.5, 1568.5)" filter="url(#Image)">
      <g id="Image-2" data-name="Image" transform="translate(7.5 2.5)" fill="#fff" stroke="#a2e2ff" stroke-width="6">
        <rect width="205" height="195" rx="97.5" stroke="none"/>
        <rect x="3" y="3" width="199" height="189" rx="94.5" fill="none"/>
      </g>
    </g>
    <g id="Grupo_496" data-name="Grupo 496" transform="translate(9 1487.549)">
      <path id="Trazado_508" data-name="Trazado 508" d="M320,177.949c.266-1.947.454-3.911.813-5.841A51.448,51.448,0,0,1,343.3,137.736a49.97,49.97,0,0,1,29.953-8.767c15.326.389,28.141,6.4,38.327,17.851a49.774,49.774,0,0,1,12.5,27.426c2.015,16.19-2.475,30.454-13.5,42.5a50.925,50.925,0,0,1-29.682,16.044c-1.769.306-3.56.475-5.34.707h-6.536a5.87,5.87,0,0,0-.785-.168,52.35,52.35,0,0,1-47.45-43.206c-.333-1.867-.524-3.759-.781-5.641Zm3.48,3.216a48.8,48.8,0,1,0,48.9-48.751A48.857,48.857,0,0,0,323.48,181.165Z" transform="translate(0 0)" fill="#74a839"/>
      <path id="Trazado_509" data-name="Trazado 509" d="M416.1,179.716A45.32,45.32,0,1,1,370.768,134.4,45.388,45.388,0,0,1,416.1,179.716Zm-40.918,4.657c-.154-.4-.248-.65-.349-.9a10.288,10.288,0,0,1,6.636-13.769,13.533,13.533,0,0,1,14.447,4.964c3.893,5.417,3.5,11.24.893,16.948-2.282,5-6.718,7.454-11.917,8.486a8.757,8.757,0,0,0-4.772,2.454c-3.029,2.992-6.644,5.033-11.048,5.022A36.652,36.652,0,0,1,351.6,203.4c-8.172-4.378-11.864-12.133-10.008-20.887a12.181,12.181,0,0,1,11.581-9.744,1.72,1.72,0,0,1,1.891,1.473,1.861,1.861,0,0,1-1.379,1.992,4.773,4.773,0,0,0-1.886,1.251,9.848,9.848,0,0,0-2.091,5.441,4.8,4.8,0,0,0,1.172,3.688c1.058-.72,2.068-1.348,3-2.077a1.937,1.937,0,0,0,.708-1.171,12.643,12.643,0,0,1,7.569-10.813c1.014-.478,2.043-.926,3.047-1.425a6.341,6.341,0,0,0,3.674-5.063,18.481,18.481,0,0,0,.084-3.053,4.375,4.375,0,0,0-1.695-3.355c-.659-.534-1.357-1.022-2.064-1.492a9.982,9.982,0,0,1-4.646-6.794,15.422,15.422,0,0,1,2.486-11.956c.167-.233.321-.477.572-.85-.5.076-.831.112-1.157.18a41.832,41.832,0,1,0,50.016,44.865c1.177-13.395-3.161-24.875-12.838-34.2a41.192,41.192,0,0,0-26.278-11.471,8.041,8.041,0,0,0-7.213,3.146,11.425,11.425,0,0,0-2.342,7.125,7.526,7.526,0,0,0,4.144,7.565,10.748,10.748,0,0,1,1.867,1.407c4.275,3.779,3.555,13.438-2.147,16.537-1.43.777-2.938,1.411-4.395,2.141a9.379,9.379,0,0,0-5.143,6.928l4.79-.294c.06-.176.119-.367.191-.553.965-2.485,3.226-3.268,5.412-1.716a23.407,23.407,0,0,1,3.257,3.047,13.656,13.656,0,0,1,1.32,1.975Zm-28.446-4.457-.334-.149a21.785,21.785,0,0,0-1.332,3.238,14.643,14.643,0,0,0,6.315,16.17c5.548,3.6,11.765,4.9,18.261,4.859,3.374-.023,6.129-1.874,8.324-4.264a9.273,9.273,0,0,1,5.785-2.975c8.816-1.488,12.231-7.926,11.242-15.625-.668-5.2-5.472-9.208-11.747-8.311a6.779,6.779,0,0,0-5.512,8.423,6.95,6.95,0,0,0,2.705,3.96,1.717,1.717,0,0,1,.471,2.431,1.556,1.556,0,0,1-2.317.436c-1.058-1.086-1.962-.773-2.994-.118-.252.161-.585.194-.846.344a1.264,1.264,0,0,0-.545.511,1.765,1.765,0,0,1-1.767,1.279c-.953-.036-1.32-.717-1.732-1.488a47.285,47.285,0,0,0-2.7-4.411,7.612,7.612,0,0,0-1.588-1.306,5.426,5.426,0,0,0,.471,4.442,1.747,1.747,0,0,1-.429,2.505,1.675,1.675,0,0,1-2.453-.636c-.573-.973-.968-2.051-1.477-3.158a11.9,11.9,0,0,0-9.067,3.028c.887.468,1.668.855,2.425,1.286a1.688,1.688,0,0,1,.8,2.178,1.653,1.653,0,0,1-2.184.977c-3.814-1.667-6.915-4.076-8.112-8.3A9.305,9.305,0,0,1,346.741,179.916Z" transform="translate(1.498 1.495)" fill="#00549c"/>
    </g>
  </g>
</svg>
